<svg viewBox="-16 -32 880 192" width="880" height="192" xmlns="http://www.w3.org/2000/svg"><desc>Generated with https://github.com/Platane/snk</desc><style>:root{--cb:#1b1f230a;--cs:purple;--ce:#161b22;--c0:#161b22;--c1:#01311f;--c2:#034525;--c3:#0f6d31;--c4:#00c647}.c{shape-rendering:geometricPrecision;fill:var(--ce);stroke-width:1px;stroke:var(--cb);animation:none 28700ms linear infinite;width:12px;height:12px}@keyframes c0{8%{fill:var(--c1)}8.02%,100%{fill:var(--ce)}}.c.c0{fill:var(--c1);animation-name:c0}@keyframes c1{58.53%{fill:var(--c2)}58.55%,100%{fill:var(--ce)}}.c.c1{fill:var(--c2);animation-name:c1}@keyframes c2{5.56%{fill:var(--c1)}5.58%,100%{fill:var(--ce)}}.c.c2{fill:var(--c1);animation-name:c2}@keyframes c3{5.91%{fill:var(--c1)}5.93%,100%{fill:var(--ce)}}.c.c3{fill:var(--c1);animation-name:c3}@keyframes c4{55.39%{fill:var(--c2)}55.41%,100%{fill:var(--ce)}}.c.c4{fill:var(--c2);animation-name:c4}@keyframes c5{64.45%{fill:var(--c4)}64.47%,100%{fill:var(--ce)}}.c.c5{fill:var(--c4);animation-name:c5}@keyframes c6{14.28%{fill:var(--c1)}14.3%,100%{fill:var(--ce)}}.c.c6{fill:var(--c1);animation-name:c6}@keyframes c7{18.81%{fill:var(--c1)}18.83%,100%{fill:var(--ce)}}.c.c7{fill:var(--c1);animation-name:c7}@keyframes c8{48.07%{fill:var(--c2)}48.09%,100%{fill:var(--ce)}}.c.c8{fill:var(--c2);animation-name:c8}@keyframes c9{85.36%{fill:var(--c4)}85.38%,100%{fill:var(--ce)}}.c.c9{fill:var(--c4);animation-name:c9}@keyframes ca{18.11%{fill:var(--c1)}18.13%,100%{fill:var(--ce)}}.c.ca{fill:var(--c1);animation-name:ca}@keyframes cb{22.64%{fill:var(--c1)}22.66%,100%{fill:var(--ce)}}.c.cb{fill:var(--c1);animation-name:cb}@keyframes cc{19.85%{fill:var(--c1)}19.87%,100%{fill:var(--ce)}}.c.cc{fill:var(--c1);animation-name:cc}@keyframes cd{20.2%{fill:var(--c1)}20.22%,100%{fill:var(--ce)}}.c.cd{fill:var(--c1);animation-name:cd}@keyframes ce{70.37%{fill:var(--c4)}70.39%,100%{fill:var(--ce)}}.c.ce{fill:var(--c4);animation-name:ce}@keyframes cf{70.02%{fill:var(--c4)}70.04%,100%{fill:var(--ce)}}.c.cf{fill:var(--c4);animation-name:cf}@keyframes cg{45.29%{fill:var(--c2)}45.31%,100%{fill:var(--ce)}}.c.cg{fill:var(--c2);animation-name:cg}@keyframes ch{44.94%{fill:var(--c2)}44.96%,100%{fill:var(--ce)}}.c.ch{fill:var(--c2);animation-name:ch}@keyframes ci{46.68%{fill:var(--c2)}46.7%,100%{fill:var(--ce)}}.c.ci{fill:var(--c2);animation-name:ci}@keyframes cj{24.03%{fill:var(--c2)}24.05%,100%{fill:var(--ce)}}.c.cj{fill:var(--c2);animation-name:cj}@keyframes ck{34.14%{fill:var(--c2)}34.16%,100%{fill:var(--ce)}}.c.ck{fill:var(--c2);animation-name:ck}@keyframes cl{33.79%{fill:var(--c2)}33.81%,100%{fill:var(--ce)}}.c.cl{fill:var(--c2);animation-name:cl}@keyframes cm{36.23%{fill:var(--c2)}36.25%,100%{fill:var(--ce)}}.c.cm{fill:var(--c2);animation-name:cm}@keyframes cn{36.58%{fill:var(--c2)}36.6%,100%{fill:var(--ce)}}.c.cn{fill:var(--c2);animation-name:cn}@keyframes co{44.59%{fill:var(--c2)}44.61%,100%{fill:var(--ce)}}.c.co{fill:var(--c2);animation-name:co}@keyframes cp{46.33%{fill:var(--c2)}46.35%,100%{fill:var(--ce)}}.c.cp{fill:var(--c2);animation-name:cp}@keyframes cq{24.38%{fill:var(--c2)}24.4%,100%{fill:var(--ce)}}.c.cq{fill:var(--c2);animation-name:cq}@keyframes cr{71.42%{fill:var(--c4)}71.44%,100%{fill:var(--ce)}}.c.cr{fill:var(--c4);animation-name:cr}@keyframes cs{33.44%{fill:var(--c2)}33.46%,100%{fill:var(--ce)}}.c.cs{fill:var(--c2);animation-name:cs}@keyframes ct{33.09%{fill:var(--c2)}33.11%,100%{fill:var(--ce)}}.c.ct{fill:var(--c2);animation-name:ct}@keyframes cu{36.92%{fill:var(--c2)}36.94%,100%{fill:var(--ce)}}.c.cu{fill:var(--c2);animation-name:cu}@keyframes cv{44.24%{fill:var(--c2)}44.26%,100%{fill:var(--ce)}}.c.cv{fill:var(--c2);animation-name:cv}@keyframes cw{43.89%{fill:var(--c2)}43.91%,100%{fill:var(--ce)}}.c.cw{fill:var(--c2);animation-name:cw}@keyframes cx{24.73%{fill:var(--c2)}24.75%,100%{fill:var(--ce)}}.c.cx{fill:var(--c2);animation-name:cx}@keyframes cy{29.26%{fill:var(--c2)}29.28%,100%{fill:var(--ce)}}.c.cy{fill:var(--c2);animation-name:cy}@keyframes cz{29.61%{fill:var(--c2)}29.63%,100%{fill:var(--ce)}}.c.cz{fill:var(--c2);animation-name:cz}@keyframes c10{32.74%{fill:var(--c2)}32.76%,100%{fill:var(--ce)}}.c.c10{fill:var(--c2);animation-name:c10}@keyframes c11{37.27%{fill:var(--c2)}37.29%,100%{fill:var(--ce)}}.c.c11{fill:var(--c2);animation-name:c11}@keyframes c12{37.62%{fill:var(--c2)}37.64%,100%{fill:var(--ce)}}.c.c12{fill:var(--c2);animation-name:c12}@keyframes c13{43.54%{fill:var(--c2)}43.56%,100%{fill:var(--ce)}}.c.c13{fill:var(--c2);animation-name:c13}@keyframes c14{25.08%{fill:var(--c2)}25.1%,100%{fill:var(--ce)}}.c.c14{fill:var(--c2);animation-name:c14}@keyframes c15{28.91%{fill:var(--c2)}28.93%,100%{fill:var(--ce)}}.c.c15{fill:var(--c2);animation-name:c15}@keyframes c16{29.96%{fill:var(--c2)}29.98%,100%{fill:var(--ce)}}.c.c16{fill:var(--c2);animation-name:c16}@keyframes c17{32.39%{fill:var(--c2)}32.41%,100%{fill:var(--ce)}}.c.c17{fill:var(--c2);animation-name:c17}@keyframes c18{73.16%{fill:var(--c4)}73.18%,100%{fill:var(--ce)}}.c.c18{fill:var(--c4);animation-name:c18}@keyframes c19{37.97%{fill:var(--c2)}37.99%,100%{fill:var(--ce)}}.c.c19{fill:var(--c2);animation-name:c19}@keyframes c1a{43.2%{fill:var(--c2)}43.22%,100%{fill:var(--ce)}}.c.c1a{fill:var(--c2);animation-name:c1a}@keyframes c1b{25.43%{fill:var(--c2)}25.45%,100%{fill:var(--ce)}}.c.c1b{fill:var(--c2);animation-name:c1b}@keyframes c1c{28.56%{fill:var(--c2)}28.58%,100%{fill:var(--ce)}}.c.c1c{fill:var(--c2);animation-name:c1c}@keyframes c1d{30.3%{fill:var(--c2)}30.32%,100%{fill:var(--ce)}}.c.c1d{fill:var(--c2);animation-name:c1d}@keyframes c1e{32.05%{fill:var(--c2)}32.07%,100%{fill:var(--ce)}}.c.c1e{fill:var(--c2);animation-name:c1e}@keyframes c1f{40.06%{fill:var(--c2)}40.08%,100%{fill:var(--ce)}}.c.c1f{fill:var(--c2);animation-name:c1f}@keyframes c1g{38.32%{fill:var(--c2)}38.34%,100%{fill:var(--ce)}}.c.c1g{fill:var(--c2);animation-name:c1g}@keyframes c1h{40.76%{fill:var(--c2)}40.78%,100%{fill:var(--ce)}}.c.c1h{fill:var(--c2);animation-name:c1h}@keyframes c1i{25.77%{fill:var(--c2)}25.79%,100%{fill:var(--ce)}}.c.c1i{fill:var(--c2);animation-name:c1i}@keyframes c1j{28.21%{fill:var(--c2)}28.23%,100%{fill:var(--ce)}}.c.c1j{fill:var(--c2);animation-name:c1j}@keyframes c1k{30.65%{fill:var(--c2)}30.67%,100%{fill:var(--ce)}}.c.c1k{fill:var(--c2);animation-name:c1k}@keyframes c1l{31.7%{fill:var(--c2)}31.72%,100%{fill:var(--ce)}}.c.c1l{fill:var(--c2);animation-name:c1l}@keyframes c1m{39.71%{fill:var(--c2)}39.73%,100%{fill:var(--ce)}}.c.c1m{fill:var(--c2);animation-name:c1m}@keyframes c1n{38.67%{fill:var(--c2)}38.69%,100%{fill:var(--ce)}}.c.c1n{fill:var(--c2);animation-name:c1n}@keyframes c1o{41.1%{fill:var(--c2)}41.12%,100%{fill:var(--ce)}}.c.c1o{fill:var(--c2);animation-name:c1o}@keyframes c1p{26.12%{fill:var(--c2)}26.14%,100%{fill:var(--ce)}}.c.c1p{fill:var(--c2);animation-name:c1p}@keyframes c1q{27.86%{fill:var(--c2)}27.88%,100%{fill:var(--ce)}}.c.c1q{fill:var(--c2);animation-name:c1q}@keyframes c1r{31%{fill:var(--c2)}31.02%,100%{fill:var(--ce)}}.c.c1r{fill:var(--c2);animation-name:c1r}@keyframes c1s{31.35%{fill:var(--c2)}31.37%,100%{fill:var(--ce)}}.c.c1s{fill:var(--c2);animation-name:c1s}@keyframes c1t{39.36%{fill:var(--c2)}39.38%,100%{fill:var(--ce)}}.c.c1t{fill:var(--c2);animation-name:c1t}@keyframes c1u{39.01%{fill:var(--c2)}39.03%,100%{fill:var(--ce)}}.c.c1u{fill:var(--c2);animation-name:c1u}@keyframes c1v{41.45%{fill:var(--c2)}41.47%,100%{fill:var(--ce)}}.c.c1v{fill:var(--c2);animation-name:c1v}@keyframes c1w{26.47%{fill:var(--c2)}26.49%,100%{fill:var(--ce)}}.c.c1w{fill:var(--c2);animation-name:c1w}@keyframes c1x{76.99%{fill:var(--c4)}77.01%,100%{fill:var(--ce)}}.c.c1x{fill:var(--c4);animation-name:c1x}@keyframes c1y{77.34%{fill:var(--c4)}77.36%,100%{fill:var(--ce)}}.c.c1y{fill:var(--c4);animation-name:c1y}@keyframes c1z{77.69%{fill:var(--c4)}77.71%,100%{fill:var(--ce)}}.c.c1z{fill:var(--c4);animation-name:c1z}@keyframes c20{74.55%{fill:var(--c4)}74.57%,100%{fill:var(--ce)}}.c.c20{fill:var(--c4);animation-name:c20}@keyframes c21{78.39%{fill:var(--c4)}78.41%,100%{fill:var(--ce)}}.c.c21{fill:var(--c4);animation-name:c21}@keyframes c22{79.43%{fill:var(--c4)}79.45%,100%{fill:var(--ce)}}.c.c22{fill:var(--c4);animation-name:c22}@keyframes c23{76.3%{fill:var(--c4)}76.32%,100%{fill:var(--ce)}}.c.c23{fill:var(--c4);animation-name:c23}@keyframes c24{75.95%{fill:var(--c4)}75.97%,100%{fill:var(--ce)}}.c.c24{fill:var(--c4);animation-name:c24}@keyframes c25{75.6%{fill:var(--c4)}75.62%,100%{fill:var(--ce)}}.c.c25{fill:var(--c4);animation-name:c25}@keyframes c26{75.25%{fill:var(--c4)}75.27%,100%{fill:var(--ce)}}.c.c26{fill:var(--c4);animation-name:c26}@keyframes c27{74.9%{fill:var(--c4)}74.92%,100%{fill:var(--ce)}}.c.c27{fill:var(--c4);animation-name:c27}@keyframes c28{78.74%{fill:var(--c4)}78.76%,100%{fill:var(--ce)}}.c.c28{fill:var(--c4);animation-name:c28}.u{transform-origin:0 0;transform:scale(0,1);animation:none linear 28700ms infinite}@keyframes u0{5.56%{transform:scale(0.000,1)}5.58%,5.91%{transform:scale(0.111,1)}5.93%,8%{transform:scale(0.222,1)}8.02%,14.28%{transform:scale(0.333,1)}14.3%,18.11%{transform:scale(0.444,1)}18.13%,18.81%{transform:scale(0.556,1)}18.83%,19.85%{transform:scale(0.667,1)}19.87%,20.2%{transform:scale(0.778,1)}20.22%,22.64%{transform:scale(0.889,1)}22.66%,100%{transform:scale(1.000,1)}}.u.u0{fill:var(--c1);animation-name:u0;transform-origin:0.0px 0}@keyframes u1{24.03%{transform:scale(0.000,1)}24.05%,24.38%{transform:scale(0.019,1)}24.4%,24.73%{transform:scale(0.037,1)}24.75%,25.08%{transform:scale(0.056,1)}25.1%,25.43%{transform:scale(0.074,1)}25.45%,25.77%{transform:scale(0.093,1)}25.79%,26.12%{transform:scale(0.111,1)}26.14%,26.47%{transform:scale(0.130,1)}26.49%,27.86%{transform:scale(0.148,1)}27.88%,28.21%{transform:scale(0.167,1)}28.23%,28.56%{transform:scale(0.185,1)}28.58%,28.91%{transform:scale(0.204,1)}28.93%,29.26%{transform:scale(0.222,1)}29.28%,29.61%{transform:scale(0.241,1)}29.63%,29.96%{transform:scale(0.259,1)}29.98%,30.3%{transform:scale(0.278,1)}30.32%,30.65%{transform:scale(0.296,1)}30.67%,31%{transform:scale(0.315,1)}31.02%,31.35%{transform:scale(0.333,1)}31.37%,31.7%{transform:scale(0.352,1)}31.72%,32.05%{transform:scale(0.370,1)}32.07%,32.39%{transform:scale(0.389,1)}32.41%,32.74%{transform:scale(0.407,1)}32.76%,33.09%{transform:scale(0.426,1)}33.11%,33.44%{transform:scale(0.444,1)}33.46%,33.79%{transform:scale(0.463,1)}33.81%,34.14%{transform:scale(0.481,1)}34.16%,36.23%{transform:scale(0.500,1)}36.25%,36.58%{transform:scale(0.519,1)}36.6%,36.92%{transform:scale(0.537,1)}36.94%,37.27%{transform:scale(0.556,1)}37.29%,37.62%{transform:scale(0.574,1)}37.64%,37.97%{transform:scale(0.593,1)}37.99%,38.32%{transform:scale(0.611,1)}38.34%,38.67%{transform:scale(0.630,1)}38.69%,39.01%{transform:scale(0.648,1)}39.03%,39.36%{transform:scale(0.667,1)}39.38%,39.71%{transform:scale(0.685,1)}39.73%,40.06%{transform:scale(0.704,1)}40.08%,40.76%{transform:scale(0.722,1)}40.78%,41.1%{transform:scale(0.741,1)}41.12%,41.45%{transform:scale(0.759,1)}41.47%,43.2%{transform:scale(0.778,1)}43.22%,43.54%{transform:scale(0.796,1)}43.56%,43.89%{transform:scale(0.815,1)}43.91%,44.24%{transform:scale(0.833,1)}44.26%,44.59%{transform:scale(0.852,1)}44.61%,44.94%{transform:scale(0.870,1)}44.96%,45.29%{transform:scale(0.889,1)}45.31%,46.33%{transform:scale(0.907,1)}46.35%,46.68%{transform:scale(0.926,1)}46.7%,48.07%{transform:scale(0.944,1)}48.09%,55.39%{transform:scale(0.963,1)}55.41%,58.53%{transform:scale(0.981,1)}58.55%,100%{transform:scale(1.000,1)}}.u.u1{fill:var(--c2);animation-name:u1;transform-origin:94.2px 0}@keyframes u2{64.45%{transform:scale(0.000,1)}64.47%,70.02%{transform:scale(0.056,1)}70.04%,70.37%{transform:scale(0.111,1)}70.39%,71.42%{transform:scale(0.167,1)}71.44%,73.16%{transform:scale(0.222,1)}73.18%,74.55%{transform:scale(0.278,1)}74.57%,74.9%{transform:scale(0.333,1)}74.92%,75.25%{transform:scale(0.389,1)}75.27%,75.6%{transform:scale(0.444,1)}75.62%,75.95%{transform:scale(0.500,1)}75.97%,76.3%{transform:scale(0.556,1)}76.32%,76.99%{transform:scale(0.611,1)}77.01%,77.34%{transform:scale(0.667,1)}77.36%,77.69%{transform:scale(0.722,1)}77.71%,78.39%{transform:scale(0.778,1)}78.41%,78.74%{transform:scale(0.833,1)}78.76%,79.43%{transform:scale(0.889,1)}79.45%,85.36%{transform:scale(0.944,1)}85.38%,100%{transform:scale(1.000,1)}}.u.u2{fill:var(--c4);animation-name:u2;transform-origin:659.6px 0}.s{shape-rendering:geometricPrecision;fill:var(--cs);animation:none linear 28700ms infinite}@keyframes s0{0%,99.65%{transform:translate(0px,-16px)}0.35%{transform:translate(0px,0px)}5.57%{transform:translate(240px,0px)}5.92%{transform:translate(240px,16px)}6.62%{transform:translate(208px,16px)}8.01%{transform:translate(208px,80px)}13.59%{transform:translate(464px,80px)}14.29%{transform:translate(464px,48px)}18.12%{transform:translate(640px,48px)}18.47%{transform:translate(640px,64px)}18.82%{transform:translate(624px,64px)}19.16%,48.43%{transform:translate(624px,80px)}19.86%{transform:translate(656px,80px)}20.21%{transform:translate(656px,96px)}20.56%{transform:translate(672px,96px)}22.3%{transform:translate(672px,16px)}22.65%{transform:translate(656px,16px)}23%{transform:translate(656px,0px)}26.48%,76.66%,81.53%{transform:translate(816px,0px)}26.83%{transform:translate(816px,-16px)}27.18%{transform:translate(800px,-16px)}27.87%{transform:translate(800px,16px)}29.27%{transform:translate(736px,16px)}29.62%{transform:translate(736px,32px)}31.01%{transform:translate(800px,32px)}31.36%{transform:translate(800px,48px)}33.1%{transform:translate(720px,48px)}33.45%,71.08%{transform:translate(720px,32px)}33.8%{transform:translate(704px,32px)}34.49%{transform:translate(704px,0px)}34.84%{transform:translate(688px,0px)}35.19%{transform:translate(688px,16px)}35.54%{transform:translate(704px,16px)}36.59%,45.64%{transform:translate(704px,64px)}37.28%{transform:translate(736px,64px)}37.63%{transform:translate(736px,80px)}39.02%,41.81%{transform:translate(800px,80px)}39.37%{transform:translate(800px,64px)}40.07%{transform:translate(768px,64px)}40.77%{transform:translate(768px,96px)}41.46%{transform:translate(800px,96px)}42.86%{transform:translate(752px,80px)}43.21%{transform:translate(752px,96px)}43.9%{transform:translate(720px,96px)}44.25%{transform:translate(720px,80px)}44.95%{transform:translate(688px,80px)}45.3%,69.69%{transform:translate(688px,64px)}46.34%{transform:translate(704px,96px)}48.08%{transform:translate(624px,96px)}52.61%{transform:translate(432px,80px)}52.96%{transform:translate(432px,64px)}57.84%{transform:translate(208px,64px)}58.54%{transform:translate(208px,96px)}63.76%{transform:translate(448px,96px)}64.46%{transform:translate(448px,64px)}70.38%{transform:translate(688px,32px)}71.43%{transform:translate(720px,16px)}72.13%{transform:translate(752px,16px)}73.17%{transform:translate(752px,64px)}74.91%{transform:translate(832px,64px)}76.31%{transform:translate(832px,0px)}78.4%{transform:translate(816px,80px)}78.75%{transform:translate(832px,80px)}79.09%{transform:translate(832px,96px)}79.44%{transform:translate(816px,96px)}96.86%{transform:translate(112px,0px)}97.21%{transform:translate(112px,-16px)}}.s.s0{transform:translate(0px,-16px);animation-name:s0}@keyframes s1{0%,99.65%{transform:translate(16px,-16px)}0.35%{transform:translate(0px,-16px)}0.7%{transform:translate(0px,0px)}5.92%{transform:translate(240px,0px)}6.27%{transform:translate(240px,16px)}6.97%{transform:translate(208px,16px)}8.36%{transform:translate(208px,80px)}13.94%{transform:translate(464px,80px)}14.63%{transform:translate(464px,48px)}18.47%{transform:translate(640px,48px)}18.82%{transform:translate(640px,64px)}19.16%{transform:translate(624px,64px)}19.51%,48.78%{transform:translate(624px,80px)}20.21%{transform:translate(656px,80px)}20.56%{transform:translate(656px,96px)}20.91%{transform:translate(672px,96px)}22.65%{transform:translate(672px,16px)}23%{transform:translate(656px,16px)}23.34%{transform:translate(656px,0px)}26.83%,77%,81.88%{transform:translate(816px,0px)}27.18%{transform:translate(816px,-16px)}27.53%{transform:translate(800px,-16px)}28.22%{transform:translate(800px,16px)}29.62%{transform:translate(736px,16px)}29.97%{transform:translate(736px,32px)}31.36%{transform:translate(800px,32px)}31.71%{transform:translate(800px,48px)}33.45%{transform:translate(720px,48px)}33.8%,71.43%{transform:translate(720px,32px)}34.15%{transform:translate(704px,32px)}34.84%{transform:translate(704px,0px)}35.19%{transform:translate(688px,0px)}35.54%{transform:translate(688px,16px)}35.89%{transform:translate(704px,16px)}36.93%,45.99%{transform:translate(704px,64px)}37.63%{transform:translate(736px,64px)}37.98%{transform:translate(736px,80px)}39.37%,42.16%{transform:translate(800px,80px)}39.72%{transform:translate(800px,64px)}40.42%{transform:translate(768px,64px)}41.11%{transform:translate(768px,96px)}41.81%{transform:translate(800px,96px)}43.21%{transform:translate(752px,80px)}43.55%{transform:translate(752px,96px)}44.25%{transform:translate(720px,96px)}44.6%{transform:translate(720px,80px)}45.3%{transform:translate(688px,80px)}45.64%,70.03%{transform:translate(688px,64px)}46.69%{transform:translate(704px,96px)}48.43%{transform:translate(624px,96px)}52.96%{transform:translate(432px,80px)}53.31%{transform:translate(432px,64px)}58.19%{transform:translate(208px,64px)}58.89%{transform:translate(208px,96px)}64.11%{transform:translate(448px,96px)}64.81%{transform:translate(448px,64px)}70.73%{transform:translate(688px,32px)}71.78%{transform:translate(720px,16px)}72.47%{transform:translate(752px,16px)}73.52%{transform:translate(752px,64px)}75.26%{transform:translate(832px,64px)}76.66%{transform:translate(832px,0px)}78.75%{transform:translate(816px,80px)}79.09%{transform:translate(832px,80px)}79.44%{transform:translate(832px,96px)}79.79%{transform:translate(816px,96px)}97.21%{transform:translate(112px,0px)}97.56%{transform:translate(112px,-16px)}}.s.s1{transform:translate(16px,-16px);animation-name:s1}@keyframes s2{0%,99.65%{transform:translate(32px,-16px)}0.7%{transform:translate(0px,-16px)}1.05%{transform:translate(0px,0px)}6.27%{transform:translate(240px,0px)}6.62%{transform:translate(240px,16px)}7.32%{transform:translate(208px,16px)}8.71%{transform:translate(208px,80px)}14.29%{transform:translate(464px,80px)}14.98%{transform:translate(464px,48px)}18.82%{transform:translate(640px,48px)}19.16%{transform:translate(640px,64px)}19.51%{transform:translate(624px,64px)}19.86%,49.13%{transform:translate(624px,80px)}20.56%{transform:translate(656px,80px)}20.91%{transform:translate(656px,96px)}21.25%{transform:translate(672px,96px)}23%{transform:translate(672px,16px)}23.34%{transform:translate(656px,16px)}23.69%{transform:translate(656px,0px)}27.18%,77.35%,82.23%{transform:translate(816px,0px)}27.53%{transform:translate(816px,-16px)}27.87%{transform:translate(800px,-16px)}28.57%{transform:translate(800px,16px)}29.97%{transform:translate(736px,16px)}30.31%{transform:translate(736px,32px)}31.71%{transform:translate(800px,32px)}32.06%{transform:translate(800px,48px)}33.8%{transform:translate(720px,48px)}34.15%,71.78%{transform:translate(720px,32px)}34.49%{transform:translate(704px,32px)}35.19%{transform:translate(704px,0px)}35.54%{transform:translate(688px,0px)}35.89%{transform:translate(688px,16px)}36.24%{transform:translate(704px,16px)}37.28%,46.34%{transform:translate(704px,64px)}37.98%{transform:translate(736px,64px)}38.33%{transform:translate(736px,80px)}39.72%,42.51%{transform:translate(800px,80px)}40.07%{transform:translate(800px,64px)}40.77%{transform:translate(768px,64px)}41.46%{transform:translate(768px,96px)}42.16%{transform:translate(800px,96px)}43.55%{transform:translate(752px,80px)}43.9%{transform:translate(752px,96px)}44.6%{transform:translate(720px,96px)}44.95%{transform:translate(720px,80px)}45.64%{transform:translate(688px,80px)}45.99%,70.38%{transform:translate(688px,64px)}47.04%{transform:translate(704px,96px)}48.78%{transform:translate(624px,96px)}53.31%{transform:translate(432px,80px)}53.66%{transform:translate(432px,64px)}58.54%{transform:translate(208px,64px)}59.23%{transform:translate(208px,96px)}64.46%{transform:translate(448px,96px)}65.16%{transform:translate(448px,64px)}71.08%{transform:translate(688px,32px)}72.13%{transform:translate(720px,16px)}72.82%{transform:translate(752px,16px)}73.87%{transform:translate(752px,64px)}75.61%{transform:translate(832px,64px)}77%{transform:translate(832px,0px)}79.09%{transform:translate(816px,80px)}79.44%{transform:translate(832px,80px)}79.79%{transform:translate(832px,96px)}80.14%{transform:translate(816px,96px)}97.56%{transform:translate(112px,0px)}97.91%{transform:translate(112px,-16px)}}.s.s2{transform:translate(32px,-16px);animation-name:s2}@keyframes s3{0%,99.65%{transform:translate(48px,-16px)}1.05%{transform:translate(0px,-16px)}1.39%{transform:translate(0px,0px)}6.62%{transform:translate(240px,0px)}6.97%{transform:translate(240px,16px)}7.67%{transform:translate(208px,16px)}9.06%{transform:translate(208px,80px)}14.63%{transform:translate(464px,80px)}15.33%{transform:translate(464px,48px)}19.16%{transform:translate(640px,48px)}19.51%{transform:translate(640px,64px)}19.86%{transform:translate(624px,64px)}20.21%,49.48%{transform:translate(624px,80px)}20.91%{transform:translate(656px,80px)}21.25%{transform:translate(656px,96px)}21.6%{transform:translate(672px,96px)}23.34%{transform:translate(672px,16px)}23.69%{transform:translate(656px,16px)}24.04%{transform:translate(656px,0px)}27.53%,77.7%,82.58%{transform:translate(816px,0px)}27.87%{transform:translate(816px,-16px)}28.22%{transform:translate(800px,-16px)}28.92%{transform:translate(800px,16px)}30.31%{transform:translate(736px,16px)}30.66%{transform:translate(736px,32px)}32.06%{transform:translate(800px,32px)}32.4%{transform:translate(800px,48px)}34.15%{transform:translate(720px,48px)}34.49%,72.13%{transform:translate(720px,32px)}34.84%{transform:translate(704px,32px)}35.54%{transform:translate(704px,0px)}35.89%{transform:translate(688px,0px)}36.24%{transform:translate(688px,16px)}36.59%{transform:translate(704px,16px)}37.63%,46.69%{transform:translate(704px,64px)}38.33%{transform:translate(736px,64px)}38.68%{transform:translate(736px,80px)}40.07%,42.86%{transform:translate(800px,80px)}40.42%{transform:translate(800px,64px)}41.11%{transform:translate(768px,64px)}41.81%{transform:translate(768px,96px)}42.51%{transform:translate(800px,96px)}43.9%{transform:translate(752px,80px)}44.25%{transform:translate(752px,96px)}44.95%{transform:translate(720px,96px)}45.3%{transform:translate(720px,80px)}45.99%{transform:translate(688px,80px)}46.34%,70.73%{transform:translate(688px,64px)}47.39%{transform:translate(704px,96px)}49.13%{transform:translate(624px,96px)}53.66%{transform:translate(432px,80px)}54.01%{transform:translate(432px,64px)}58.89%{transform:translate(208px,64px)}59.58%{transform:translate(208px,96px)}64.81%{transform:translate(448px,96px)}65.51%{transform:translate(448px,64px)}71.43%{transform:translate(688px,32px)}72.47%{transform:translate(720px,16px)}73.17%{transform:translate(752px,16px)}74.22%{transform:translate(752px,64px)}75.96%{transform:translate(832px,64px)}77.35%{transform:translate(832px,0px)}79.44%{transform:translate(816px,80px)}79.79%{transform:translate(832px,80px)}80.14%{transform:translate(832px,96px)}80.49%{transform:translate(816px,96px)}97.91%{transform:translate(112px,0px)}98.26%{transform:translate(112px,-16px)}}.s.s3{transform:translate(48px,-16px);animation-name:s3}</style><rect class="c" x="2" y="2" rx="2" ry="2"/><rect class="c" x="2" y="18" rx="2" ry="2"/><rect class="c" x="2" y="34" rx="2" ry="2"/><rect class="c" x="2" y="50" rx="2" ry="2"/><rect class="c" x="2" y="66" rx="2" ry="2"/><rect class="c" x="2" y="82" rx="2" ry="2"/><rect class="c" x="2" y="98" rx="2" ry="2"/><rect class="c" x="18" y="2" rx="2" ry="2"/><rect class="c" x="18" y="18" rx="2" ry="2"/><rect class="c" x="18" y="34" rx="2" ry="2"/><rect class="c" x="18" y="50" rx="2" ry="2"/><rect class="c" x="18" y="66" rx="2" ry="2"/><rect class="c" x="18" y="82" rx="2" ry="2"/><rect class="c" x="18" y="98" rx="2" ry="2"/><rect class="c" x="34" y="2" rx="2" ry="2"/><rect class="c" x="34" y="18" rx="2" ry="2"/><rect class="c" x="34" y="34" rx="2" ry="2"/><rect class="c" x="34" y="50" rx="2" ry="2"/><rect class="c" x="34" y="66" rx="2" ry="2"/><rect class="c" x="34" y="82" rx="2" ry="2"/><rect class="c" x="34" y="98" rx="2" ry="2"/><rect class="c" x="50" y="2" rx="2" ry="2"/><rect class="c" x="50" y="18" rx="2" ry="2"/><rect class="c" x="50" y="34" rx="2" ry="2"/><rect class="c" x="50" y="50" rx="2" ry="2"/><rect class="c" x="50" y="66" rx="2" ry="2"/><rect class="c" x="50" y="82" rx="2" ry="2"/><rect class="c" x="50" y="98" rx="2" ry="2"/><rect class="c" x="66" y="2" rx="2" ry="2"/><rect class="c" x="66" y="18" rx="2" ry="2"/><rect class="c" x="66" y="34" rx="2" ry="2"/><rect class="c" x="66" y="50" rx="2" ry="2"/><rect class="c" x="66" y="66" rx="2" ry="2"/><rect class="c" x="66" y="82" rx="2" ry="2"/><rect class="c" x="66" y="98" rx="2" ry="2"/><rect class="c" x="82" y="2" rx="2" ry="2"/><rect class="c" x="82" y="18" rx="2" ry="2"/><rect class="c" x="82" y="34" rx="2" ry="2"/><rect class="c" x="82" y="50" rx="2" ry="2"/><rect class="c" x="82" y="66" rx="2" ry="2"/><rect class="c" x="82" y="82" rx="2" ry="2"/><rect class="c" x="82" y="98" rx="2" ry="2"/><rect class="c" x="98" y="2" rx="2" ry="2"/><rect class="c" x="98" y="18" rx="2" ry="2"/><rect class="c" x="98" y="34" rx="2" ry="2"/><rect class="c" x="98" y="50" rx="2" ry="2"/><rect class="c" x="98" y="66" rx="2" ry="2"/><rect class="c" x="98" y="82" rx="2" ry="2"/><rect class="c" x="98" y="98" rx="2" ry="2"/><rect class="c" x="114" y="2" rx="2" ry="2"/><rect class="c" x="114" y="18" rx="2" ry="2"/><rect class="c" x="114" y="34" rx="2" ry="2"/><rect class="c" x="114" y="50" rx="2" ry="2"/><rect class="c" x="114" y="66" rx="2" ry="2"/><rect class="c" x="114" y="82" rx="2" ry="2"/><rect class="c" x="114" y="98" rx="2" ry="2"/><rect class="c" x="130" y="2" rx="2" ry="2"/><rect class="c" x="130" y="18" rx="2" ry="2"/><rect class="c" x="130" y="34" rx="2" ry="2"/><rect class="c" x="130" y="50" rx="2" ry="2"/><rect class="c" x="130" y="66" rx="2" ry="2"/><rect class="c" x="130" y="82" rx="2" ry="2"/><rect class="c" x="130" y="98" rx="2" ry="2"/><rect class="c" x="146" y="2" rx="2" ry="2"/><rect class="c" x="146" y="18" rx="2" ry="2"/><rect class="c" x="146" y="34" rx="2" ry="2"/><rect class="c" x="146" y="50" rx="2" ry="2"/><rect class="c" x="146" y="66" rx="2" ry="2"/><rect class="c" x="146" y="82" rx="2" ry="2"/><rect class="c" x="146" y="98" rx="2" ry="2"/><rect class="c" x="162" y="2" rx="2" ry="2"/><rect class="c" x="162" y="18" rx="2" ry="2"/><rect class="c" x="162" y="34" rx="2" ry="2"/><rect class="c" x="162" y="50" rx="2" ry="2"/><rect class="c" x="162" y="66" rx="2" ry="2"/><rect class="c" x="162" y="82" rx="2" ry="2"/><rect class="c" x="162" y="98" rx="2" ry="2"/><rect class="c" x="178" y="2" rx="2" ry="2"/><rect class="c" x="178" y="18" rx="2" ry="2"/><rect class="c" x="178" y="34" rx="2" ry="2"/><rect class="c" x="178" y="50" rx="2" ry="2"/><rect class="c" x="178" y="66" rx="2" ry="2"/><rect class="c" x="178" y="82" rx="2" ry="2"/><rect class="c" x="178" y="98" rx="2" ry="2"/><rect class="c" x="194" y="2" rx="2" ry="2"/><rect class="c" x="194" y="18" rx="2" ry="2"/><rect class="c" x="194" y="34" rx="2" ry="2"/><rect class="c" x="194" y="50" rx="2" ry="2"/><rect class="c" x="194" y="66" rx="2" ry="2"/><rect class="c" x="194" y="82" rx="2" ry="2"/><rect class="c" x="194" y="98" rx="2" ry="2"/><rect class="c" x="210" y="2" rx="2" ry="2"/><rect class="c" x="210" y="18" rx="2" ry="2"/><rect class="c" x="210" y="34" rx="2" ry="2"/><rect class="c" x="210" y="50" rx="2" ry="2"/><rect class="c" x="210" y="66" rx="2" ry="2"/><rect class="c c0" x="210" y="82" rx="2" ry="2"/><rect class="c c1" x="210" y="98" rx="2" ry="2"/><rect class="c" x="226" y="2" rx="2" ry="2"/><rect class="c" x="226" y="18" rx="2" ry="2"/><rect class="c" x="226" y="34" rx="2" ry="2"/><rect class="c" x="226" y="50" rx="2" ry="2"/><rect class="c" x="226" y="66" rx="2" ry="2"/><rect class="c" x="226" y="82" rx="2" ry="2"/><rect class="c" x="226" y="98" rx="2" ry="2"/><rect class="c c2" x="242" y="2" rx="2" ry="2"/><rect class="c c3" x="242" y="18" rx="2" ry="2"/><rect class="c" x="242" y="34" rx="2" ry="2"/><rect class="c" x="242" y="50" rx="2" ry="2"/><rect class="c" x="242" y="66" rx="2" ry="2"/><rect class="c" x="242" y="82" rx="2" ry="2"/><rect class="c" x="242" y="98" rx="2" ry="2"/><rect class="c" x="258" y="2" rx="2" ry="2"/><rect class="c" x="258" y="18" rx="2" ry="2"/><rect class="c" x="258" y="34" rx="2" ry="2"/><rect class="c" x="258" y="50" rx="2" ry="2"/><rect class="c" x="258" y="66" rx="2" ry="2"/><rect class="c" x="258" y="82" rx="2" ry="2"/><rect class="c" x="258" y="98" rx="2" ry="2"/><rect class="c" x="274" y="2" rx="2" ry="2"/><rect class="c" x="274" y="18" rx="2" ry="2"/><rect class="c" x="274" y="34" rx="2" ry="2"/><rect class="c" x="274" y="50" rx="2" ry="2"/><rect class="c" x="274" y="66" rx="2" ry="2"/><rect class="c" x="274" y="82" rx="2" ry="2"/><rect class="c" x="274" y="98" rx="2" ry="2"/><rect class="c" x="290" y="2" rx="2" ry="2"/><rect class="c" x="290" y="18" rx="2" ry="2"/><rect class="c" x="290" y="34" rx="2" ry="2"/><rect class="c" x="290" y="50" rx="2" ry="2"/><rect class="c" x="290" y="66" rx="2" ry="2"/><rect class="c" x="290" y="82" rx="2" ry="2"/><rect class="c" x="290" y="98" rx="2" ry="2"/><rect class="c" x="306" y="2" rx="2" ry="2"/><rect class="c" x="306" y="18" rx="2" ry="2"/><rect class="c" x="306" y="34" rx="2" ry="2"/><rect class="c" x="306" y="50" rx="2" ry="2"/><rect class="c" x="306" y="66" rx="2" ry="2"/><rect class="c" x="306" y="82" rx="2" ry="2"/><rect class="c" x="306" y="98" rx="2" ry="2"/><rect class="c" x="322" y="2" rx="2" ry="2"/><rect class="c" x="322" y="18" rx="2" ry="2"/><rect class="c" x="322" y="34" rx="2" ry="2"/><rect class="c" x="322" y="50" rx="2" ry="2"/><rect class="c c4" x="322" y="66" rx="2" ry="2"/><rect class="c" x="322" y="82" rx="2" ry="2"/><rect class="c" x="322" y="98" rx="2" ry="2"/><rect class="c" x="338" y="2" rx="2" ry="2"/><rect class="c" x="338" y="18" rx="2" ry="2"/><rect class="c" x="338" y="34" rx="2" ry="2"/><rect class="c" x="338" y="50" rx="2" ry="2"/><rect class="c" x="338" y="66" rx="2" ry="2"/><rect class="c" x="338" y="82" rx="2" ry="2"/><rect class="c" x="338" y="98" rx="2" ry="2"/><rect class="c" x="354" y="2" rx="2" ry="2"/><rect class="c" x="354" y="18" rx="2" ry="2"/><rect class="c" x="354" y="34" rx="2" ry="2"/><rect class="c" x="354" y="50" rx="2" ry="2"/><rect class="c" x="354" y="66" rx="2" ry="2"/><rect class="c" x="354" y="82" rx="2" ry="2"/><rect class="c" x="354" y="98" rx="2" ry="2"/><rect class="c" x="370" y="2" rx="2" ry="2"/><rect class="c" x="370" y="18" rx="2" ry="2"/><rect class="c" x="370" y="34" rx="2" ry="2"/><rect class="c" x="370" y="50" rx="2" ry="2"/><rect class="c" x="370" y="66" rx="2" ry="2"/><rect class="c" x="370" y="82" rx="2" ry="2"/><rect class="c" x="370" y="98" rx="2" ry="2"/><rect class="c" x="386" y="2" rx="2" ry="2"/><rect class="c" x="386" y="18" rx="2" ry="2"/><rect class="c" x="386" y="34" rx="2" ry="2"/><rect class="c" x="386" y="50" rx="2" ry="2"/><rect class="c" x="386" y="66" rx="2" ry="2"/><rect class="c" x="386" y="82" rx="2" ry="2"/><rect class="c" x="386" y="98" rx="2" ry="2"/><rect class="c" x="402" y="2" rx="2" ry="2"/><rect class="c" x="402" y="18" rx="2" ry="2"/><rect class="c" x="402" y="34" rx="2" ry="2"/><rect class="c" x="402" y="50" rx="2" ry="2"/><rect class="c" x="402" y="66" rx="2" ry="2"/><rect class="c" x="402" y="82" rx="2" ry="2"/><rect class="c" x="402" y="98" rx="2" ry="2"/><rect class="c" x="418" y="2" rx="2" ry="2"/><rect class="c" x="418" y="18" rx="2" ry="2"/><rect class="c" x="418" y="34" rx="2" ry="2"/><rect class="c" x="418" y="50" rx="2" ry="2"/><rect class="c" x="418" y="66" rx="2" ry="2"/><rect class="c" x="418" y="82" rx="2" ry="2"/><rect class="c" x="418" y="98" rx="2" ry="2"/><rect class="c" x="434" y="2" rx="2" ry="2"/><rect class="c" x="434" y="18" rx="2" ry="2"/><rect class="c" x="434" y="34" rx="2" ry="2"/><rect class="c" x="434" y="50" rx="2" ry="2"/><rect class="c" x="434" y="66" rx="2" ry="2"/><rect class="c" x="434" y="82" rx="2" ry="2"/><rect class="c" x="434" y="98" rx="2" ry="2"/><rect class="c" x="450" y="2" rx="2" ry="2"/><rect class="c" x="450" y="18" rx="2" ry="2"/><rect class="c" x="450" y="34" rx="2" ry="2"/><rect class="c" x="450" y="50" rx="2" ry="2"/><rect class="c c5" x="450" y="66" rx="2" ry="2"/><rect class="c" x="450" y="82" rx="2" ry="2"/><rect class="c" x="450" y="98" rx="2" ry="2"/><rect class="c" x="466" y="2" rx="2" ry="2"/><rect class="c" x="466" y="18" rx="2" ry="2"/><rect class="c" x="466" y="34" rx="2" ry="2"/><rect class="c c6" x="466" y="50" rx="2" ry="2"/><rect class="c" x="466" y="66" rx="2" ry="2"/><rect class="c" x="466" y="82" rx="2" ry="2"/><rect class="c" x="466" y="98" rx="2" ry="2"/><rect class="c" x="482" y="2" rx="2" ry="2"/><rect class="c" x="482" y="18" rx="2" ry="2"/><rect class="c" x="482" y="34" rx="2" ry="2"/><rect class="c" x="482" y="50" rx="2" ry="2"/><rect class="c" x="482" y="66" rx="2" ry="2"/><rect class="c" x="482" y="82" rx="2" ry="2"/><rect class="c" x="482" y="98" rx="2" ry="2"/><rect class="c" x="498" y="2" rx="2" ry="2"/><rect class="c" x="498" y="18" rx="2" ry="2"/><rect class="c" x="498" y="34" rx="2" ry="2"/><rect class="c" x="498" y="50" rx="2" ry="2"/><rect class="c" x="498" y="66" rx="2" ry="2"/><rect class="c" x="498" y="82" rx="2" ry="2"/><rect class="c" x="498" y="98" rx="2" ry="2"/><rect class="c" x="514" y="2" rx="2" ry="2"/><rect class="c" x="514" y="18" rx="2" ry="2"/><rect class="c" x="514" y="34" rx="2" ry="2"/><rect class="c" x="514" y="50" rx="2" ry="2"/><rect class="c" x="514" y="66" rx="2" ry="2"/><rect class="c" x="514" y="82" rx="2" ry="2"/><rect class="c" x="514" y="98" rx="2" ry="2"/><rect class="c" x="530" y="2" rx="2" ry="2"/><rect class="c" x="530" y="18" rx="2" ry="2"/><rect class="c" x="530" y="34" rx="2" ry="2"/><rect class="c" x="530" y="50" rx="2" ry="2"/><rect class="c" x="530" y="66" rx="2" ry="2"/><rect class="c" x="530" y="82" rx="2" ry="2"/><rect class="c" x="530" y="98" rx="2" ry="2"/><rect class="c" x="546" y="2" rx="2" ry="2"/><rect class="c" x="546" y="18" rx="2" ry="2"/><rect class="c" x="546" y="34" rx="2" ry="2"/><rect class="c" x="546" y="50" rx="2" ry="2"/><rect class="c" x="546" y="66" rx="2" ry="2"/><rect class="c" x="546" y="82" rx="2" ry="2"/><rect class="c" x="546" y="98" rx="2" ry="2"/><rect class="c" x="562" y="2" rx="2" ry="2"/><rect class="c" x="562" y="18" rx="2" ry="2"/><rect class="c" x="562" y="34" rx="2" ry="2"/><rect class="c" x="562" y="50" rx="2" ry="2"/><rect class="c" x="562" y="66" rx="2" ry="2"/><rect class="c" x="562" y="82" rx="2" ry="2"/><rect class="c" x="562" y="98" rx="2" ry="2"/><rect class="c" x="578" y="2" rx="2" ry="2"/><rect class="c" x="578" y="18" rx="2" ry="2"/><rect class="c" x="578" y="34" rx="2" ry="2"/><rect class="c" x="578" y="50" rx="2" ry="2"/><rect class="c" x="578" y="66" rx="2" ry="2"/><rect class="c" x="578" y="82" rx="2" ry="2"/><rect class="c" x="578" y="98" rx="2" ry="2"/><rect class="c" x="594" y="2" rx="2" ry="2"/><rect class="c" x="594" y="18" rx="2" ry="2"/><rect class="c" x="594" y="34" rx="2" ry="2"/><rect class="c" x="594" y="50" rx="2" ry="2"/><rect class="c" x="594" y="66" rx="2" ry="2"/><rect class="c" x="594" y="82" rx="2" ry="2"/><rect class="c" x="594" y="98" rx="2" ry="2"/><rect class="c" x="610" y="2" rx="2" ry="2"/><rect class="c" x="610" y="18" rx="2" ry="2"/><rect class="c" x="610" y="34" rx="2" ry="2"/><rect class="c" x="610" y="50" rx="2" ry="2"/><rect class="c" x="610" y="66" rx="2" ry="2"/><rect class="c" x="610" y="82" rx="2" ry="2"/><rect class="c" x="610" y="98" rx="2" ry="2"/><rect class="c" x="626" y="2" rx="2" ry="2"/><rect class="c" x="626" y="18" rx="2" ry="2"/><rect class="c" x="626" y="34" rx="2" ry="2"/><rect class="c" x="626" y="50" rx="2" ry="2"/><rect class="c c7" x="626" y="66" rx="2" ry="2"/><rect class="c" x="626" y="82" rx="2" ry="2"/><rect class="c c8" x="626" y="98" rx="2" ry="2"/><rect class="c c9" x="642" y="2" rx="2" ry="2"/><rect class="c" x="642" y="18" rx="2" ry="2"/><rect class="c" x="642" y="34" rx="2" ry="2"/><rect class="c ca" x="642" y="50" rx="2" ry="2"/><rect class="c" x="642" y="66" rx="2" ry="2"/><rect class="c" x="642" y="82" rx="2" ry="2"/><rect class="c" x="642" y="98" rx="2" ry="2"/><rect class="c" x="658" y="2" rx="2" ry="2"/><rect class="c cb" x="658" y="18" rx="2" ry="2"/><rect class="c" x="658" y="34" rx="2" ry="2"/><rect class="c" x="658" y="50" rx="2" ry="2"/><rect class="c" x="658" y="66" rx="2" ry="2"/><rect class="c cc" x="658" y="82" rx="2" ry="2"/><rect class="c cd" x="658" y="98" rx="2" ry="2"/><rect class="c" x="674" y="2" rx="2" ry="2"/><rect class="c" x="674" y="18" rx="2" ry="2"/><rect class="c" x="674" y="34" rx="2" ry="2"/><rect class="c" x="674" y="50" rx="2" ry="2"/><rect class="c" x="674" y="66" rx="2" ry="2"/><rect class="c" x="674" y="82" rx="2" ry="2"/><rect class="c" x="674" y="98" rx="2" ry="2"/><rect class="c" x="690" y="2" rx="2" ry="2"/><rect class="c" x="690" y="18" rx="2" ry="2"/><rect class="c ce" x="690" y="34" rx="2" ry="2"/><rect class="c cf" x="690" y="50" rx="2" ry="2"/><rect class="c cg" x="690" y="66" rx="2" ry="2"/><rect class="c ch" x="690" y="82" rx="2" ry="2"/><rect class="c ci" x="690" y="98" rx="2" ry="2"/><rect class="c cj" x="706" y="2" rx="2" ry="2"/><rect class="c ck" x="706" y="18" rx="2" ry="2"/><rect class="c cl" x="706" y="34" rx="2" ry="2"/><rect class="c cm" x="706" y="50" rx="2" ry="2"/><rect class="c cn" x="706" y="66" rx="2" ry="2"/><rect class="c co" x="706" y="82" rx="2" ry="2"/><rect class="c cp" x="706" y="98" rx="2" ry="2"/><rect class="c cq" x="722" y="2" rx="2" ry="2"/><rect class="c cr" x="722" y="18" rx="2" ry="2"/><rect class="c cs" x="722" y="34" rx="2" ry="2"/><rect class="c ct" x="722" y="50" rx="2" ry="2"/><rect class="c cu" x="722" y="66" rx="2" ry="2"/><rect class="c cv" x="722" y="82" rx="2" ry="2"/><rect class="c cw" x="722" y="98" rx="2" ry="2"/><rect class="c cx" x="738" y="2" rx="2" ry="2"/><rect class="c cy" x="738" y="18" rx="2" ry="2"/><rect class="c cz" x="738" y="34" rx="2" ry="2"/><rect class="c c10" x="738" y="50" rx="2" ry="2"/><rect class="c c11" x="738" y="66" rx="2" ry="2"/><rect class="c c12" x="738" y="82" rx="2" ry="2"/><rect class="c c13" x="738" y="98" rx="2" ry="2"/><rect class="c c14" x="754" y="2" rx="2" ry="2"/><rect class="c c15" x="754" y="18" rx="2" ry="2"/><rect class="c c16" x="754" y="34" rx="2" ry="2"/><rect class="c c17" x="754" y="50" rx="2" ry="2"/><rect class="c c18" x="754" y="66" rx="2" ry="2"/><rect class="c c19" x="754" y="82" rx="2" ry="2"/><rect class="c c1a" x="754" y="98" rx="2" ry="2"/><rect class="c c1b" x="770" y="2" rx="2" ry="2"/><rect class="c c1c" x="770" y="18" rx="2" ry="2"/><rect class="c c1d" x="770" y="34" rx="2" ry="2"/><rect class="c c1e" x="770" y="50" rx="2" ry="2"/><rect class="c c1f" x="770" y="66" rx="2" ry="2"/><rect class="c c1g" x="770" y="82" rx="2" ry="2"/><rect class="c c1h" x="770" y="98" rx="2" ry="2"/><rect class="c c1i" x="786" y="2" rx="2" ry="2"/><rect class="c c1j" x="786" y="18" rx="2" ry="2"/><rect class="c c1k" x="786" y="34" rx="2" ry="2"/><rect class="c c1l" x="786" y="50" rx="2" ry="2"/><rect class="c c1m" x="786" y="66" rx="2" ry="2"/><rect class="c c1n" x="786" y="82" rx="2" ry="2"/><rect class="c c1o" x="786" y="98" rx="2" ry="2"/><rect class="c c1p" x="802" y="2" rx="2" ry="2"/><rect class="c c1q" x="802" y="18" rx="2" ry="2"/><rect class="c c1r" x="802" y="34" rx="2" ry="2"/><rect class="c c1s" x="802" y="50" rx="2" ry="2"/><rect class="c c1t" x="802" y="66" rx="2" ry="2"/><rect class="c c1u" x="802" y="82" rx="2" ry="2"/><rect class="c c1v" x="802" y="98" rx="2" ry="2"/><rect class="c c1w" x="818" y="2" rx="2" ry="2"/><rect class="c c1x" x="818" y="18" rx="2" ry="2"/><rect class="c c1y" x="818" y="34" rx="2" ry="2"/><rect class="c c1z" x="818" y="50" rx="2" ry="2"/><rect class="c c20" x="818" y="66" rx="2" ry="2"/><rect class="c c21" x="818" y="82" rx="2" ry="2"/><rect class="c c22" x="818" y="98" rx="2" ry="2"/><rect class="c c23" x="834" y="2" rx="2" ry="2"/><rect class="c c24" x="834" y="18" rx="2" ry="2"/><rect class="c c25" x="834" y="34" rx="2" ry="2"/><rect class="c c26" x="834" y="50" rx="2" ry="2"/><rect class="c c27" x="834" y="66" rx="2" ry="2"/><rect class="c c28" x="834" y="82" rx="2" ry="2"/><rect class="u u0" height="12" width="94.8" x="0.0" y="144"/><rect class="u u1" height="12" width="565.9" x="94.2" y="144"/><rect class="u u2" height="12" width="189.0" x="659.6" y="144"/><rect class="s s0" x="0.8" y="0.8" width="14.4" height="14.4" rx="4.5" ry="4.5"/><rect class="s s1" x="1.8" y="1.8" width="12.3" height="12.3" rx="4.1" ry="4.1"/><rect class="s s2" x="2.6" y="2.6" width="10.8" height="10.8" rx="3.6" ry="3.6"/><rect class="s s3" x="3.0" y="3.0" width="9.9" height="9.9" rx="3.3" ry="3.3"/></svg>