<svg viewBox="-16 -32 880 192" width="880" height="192" xmlns="http://www.w3.org/2000/svg"><desc>Generated with https://github.com/Platane/snk</desc><style>:root{--cb:#1b1f230a;--cs:purple;--ce:#161b22;--c0:#161b22;--c1:#01311f;--c2:#034525;--c3:#0f6d31;--c4:#00c647}.c{shape-rendering:geometricPrecision;fill:var(--ce);stroke-width:1px;stroke:var(--cb);animation:none 29900ms linear infinite;width:12px;height:12px}@keyframes c0{6.68%{fill:var(--c1)}6.7%,100%{fill:var(--ce)}}.c.c0{fill:var(--c1);animation-name:c0}@keyframes c1{55.17%{fill:var(--c2)}55.19%,100%{fill:var(--ce)}}.c.c1{fill:var(--c2);animation-name:c1}@keyframes c2{4.34%{fill:var(--c1)}4.36%,100%{fill:var(--ce)}}.c.c2{fill:var(--c1);animation-name:c2}@keyframes c3{4.67%{fill:var(--c1)}4.69%,100%{fill:var(--ce)}}.c.c3{fill:var(--c1);animation-name:c3}@keyframes c4{52.16%{fill:var(--c2)}52.18%,100%{fill:var(--ce)}}.c.c4{fill:var(--c2);animation-name:c4}@keyframes c5{60.86%{fill:var(--c4)}60.88%,100%{fill:var(--ce)}}.c.c5{fill:var(--c4);animation-name:c5}@keyframes c6{12.7%{fill:var(--c1)}12.72%,100%{fill:var(--ce)}}.c.c6{fill:var(--c1);animation-name:c6}@keyframes c7{17.05%{fill:var(--c1)}17.07%,100%{fill:var(--ce)}}.c.c7{fill:var(--c1);animation-name:c7}@keyframes c8{45.14%{fill:var(--c2)}45.16%,100%{fill:var(--ce)}}.c.c8{fill:var(--c2);animation-name:c8}@keyframes c9{86.95%{fill:var(--c4)}86.97%,100%{fill:var(--ce)}}.c.c9{fill:var(--c4);animation-name:c9}@keyframes ca{16.38%{fill:var(--c1)}16.4%,100%{fill:var(--ce)}}.c.ca{fill:var(--c1);animation-name:ca}@keyframes cb{20.73%{fill:var(--c1)}20.75%,100%{fill:var(--ce)}}.c.cb{fill:var(--c1);animation-name:cb}@keyframes cc{18.05%{fill:var(--c1)}18.07%,100%{fill:var(--ce)}}.c.cc{fill:var(--c1);animation-name:cc}@keyframes cd{18.38%{fill:var(--c1)}18.4%,100%{fill:var(--ce)}}.c.cd{fill:var(--c1);animation-name:cd}@keyframes ce{66.55%{fill:var(--c4)}66.57%,100%{fill:var(--ce)}}.c.ce{fill:var(--c4);animation-name:ce}@keyframes cf{66.21%{fill:var(--c4)}66.23%,100%{fill:var(--ce)}}.c.cf{fill:var(--c4);animation-name:cf}@keyframes cg{42.46%{fill:var(--c2)}42.48%,100%{fill:var(--ce)}}.c.cg{fill:var(--c2);animation-name:cg}@keyframes ch{42.13%{fill:var(--c2)}42.15%,100%{fill:var(--ce)}}.c.ch{fill:var(--c2);animation-name:ch}@keyframes ci{43.8%{fill:var(--c2)}43.82%,100%{fill:var(--ce)}}.c.ci{fill:var(--c2);animation-name:ci}@keyframes cj{22.06%{fill:var(--c2)}22.08%,100%{fill:var(--ce)}}.c.cj{fill:var(--c2);animation-name:cj}@keyframes ck{31.76%{fill:var(--c2)}31.78%,100%{fill:var(--ce)}}.c.ck{fill:var(--c2);animation-name:ck}@keyframes cl{31.43%{fill:var(--c2)}31.45%,100%{fill:var(--ce)}}.c.cl{fill:var(--c2);animation-name:cl}@keyframes cm{33.77%{fill:var(--c2)}33.79%,100%{fill:var(--ce)}}.c.cm{fill:var(--c2);animation-name:cm}@keyframes cn{34.1%{fill:var(--c2)}34.12%,100%{fill:var(--ce)}}.c.cn{fill:var(--c2);animation-name:cn}@keyframes co{41.8%{fill:var(--c2)}41.82%,100%{fill:var(--ce)}}.c.co{fill:var(--c2);animation-name:co}@keyframes cp{43.47%{fill:var(--c2)}43.49%,100%{fill:var(--ce)}}.c.cp{fill:var(--c2);animation-name:cp}@keyframes cq{22.4%{fill:var(--c2)}22.42%,100%{fill:var(--ce)}}.c.cq{fill:var(--c2);animation-name:cq}@keyframes cr{67.55%{fill:var(--c4)}67.57%,100%{fill:var(--ce)}}.c.cr{fill:var(--c4);animation-name:cr}@keyframes cs{31.09%{fill:var(--c2)}31.11%,100%{fill:var(--ce)}}.c.cs{fill:var(--c2);animation-name:cs}@keyframes ct{30.76%{fill:var(--c2)}30.78%,100%{fill:var(--ce)}}.c.ct{fill:var(--c2);animation-name:ct}@keyframes cu{34.44%{fill:var(--c2)}34.46%,100%{fill:var(--ce)}}.c.cu{fill:var(--c2);animation-name:cu}@keyframes cv{41.46%{fill:var(--c2)}41.48%,100%{fill:var(--ce)}}.c.cv{fill:var(--c2);animation-name:cv}@keyframes cw{41.13%{fill:var(--c2)}41.15%,100%{fill:var(--ce)}}.c.cw{fill:var(--c2);animation-name:cw}@keyframes cx{22.73%{fill:var(--c2)}22.75%,100%{fill:var(--ce)}}.c.cx{fill:var(--c2);animation-name:cx}@keyframes cy{27.08%{fill:var(--c2)}27.1%,100%{fill:var(--ce)}}.c.cy{fill:var(--c2);animation-name:cy}@keyframes cz{27.41%{fill:var(--c2)}27.43%,100%{fill:var(--ce)}}.c.cz{fill:var(--c2);animation-name:cz}@keyframes c10{30.42%{fill:var(--c2)}30.44%,100%{fill:var(--ce)}}.c.c10{fill:var(--c2);animation-name:c10}@keyframes c11{34.77%{fill:var(--c2)}34.79%,100%{fill:var(--ce)}}.c.c11{fill:var(--c2);animation-name:c11}@keyframes c12{35.11%{fill:var(--c2)}35.13%,100%{fill:var(--ce)}}.c.c12{fill:var(--c2);animation-name:c12}@keyframes c13{40.79%{fill:var(--c2)}40.81%,100%{fill:var(--ce)}}.c.c13{fill:var(--c2);animation-name:c13}@keyframes c14{23.07%{fill:var(--c2)}23.09%,100%{fill:var(--ce)}}.c.c14{fill:var(--c2);animation-name:c14}@keyframes c15{26.75%{fill:var(--c2)}26.77%,100%{fill:var(--ce)}}.c.c15{fill:var(--c2);animation-name:c15}@keyframes c16{27.75%{fill:var(--c2)}27.77%,100%{fill:var(--ce)}}.c.c16{fill:var(--c2);animation-name:c16}@keyframes c17{30.09%{fill:var(--c2)}30.11%,100%{fill:var(--ce)}}.c.c17{fill:var(--c2);animation-name:c17}@keyframes c18{69.22%{fill:var(--c4)}69.24%,100%{fill:var(--ce)}}.c.c18{fill:var(--c4);animation-name:c18}@keyframes c19{35.44%{fill:var(--c2)}35.46%,100%{fill:var(--ce)}}.c.c19{fill:var(--c2);animation-name:c19}@keyframes c1a{40.46%{fill:var(--c2)}40.48%,100%{fill:var(--ce)}}.c.c1a{fill:var(--c2);animation-name:c1a}@keyframes c1b{23.4%{fill:var(--c2)}23.42%,100%{fill:var(--ce)}}.c.c1b{fill:var(--c2);animation-name:c1b}@keyframes c1c{26.41%{fill:var(--c2)}26.43%,100%{fill:var(--ce)}}.c.c1c{fill:var(--c2);animation-name:c1c}@keyframes c1d{28.08%{fill:var(--c2)}28.1%,100%{fill:var(--ce)}}.c.c1d{fill:var(--c2);animation-name:c1d}@keyframes c1e{29.76%{fill:var(--c2)}29.78%,100%{fill:var(--ce)}}.c.c1e{fill:var(--c2);animation-name:c1e}@keyframes c1f{37.45%{fill:var(--c2)}37.47%,100%{fill:var(--ce)}}.c.c1f{fill:var(--c2);animation-name:c1f}@keyframes c1g{35.78%{fill:var(--c2)}35.8%,100%{fill:var(--ce)}}.c.c1g{fill:var(--c2);animation-name:c1g}@keyframes c1h{38.12%{fill:var(--c2)}38.14%,100%{fill:var(--ce)}}.c.c1h{fill:var(--c2);animation-name:c1h}@keyframes c1i{23.74%{fill:var(--c2)}23.76%,100%{fill:var(--ce)}}.c.c1i{fill:var(--c2);animation-name:c1i}@keyframes c1j{26.08%{fill:var(--c2)}26.1%,100%{fill:var(--ce)}}.c.c1j{fill:var(--c2);animation-name:c1j}@keyframes c1k{28.42%{fill:var(--c2)}28.44%,100%{fill:var(--ce)}}.c.c1k{fill:var(--c2);animation-name:c1k}@keyframes c1l{29.42%{fill:var(--c2)}29.44%,100%{fill:var(--ce)}}.c.c1l{fill:var(--c2);animation-name:c1l}@keyframes c1m{37.11%{fill:var(--c2)}37.13%,100%{fill:var(--ce)}}.c.c1m{fill:var(--c2);animation-name:c1m}@keyframes c1n{36.11%{fill:var(--c2)}36.13%,100%{fill:var(--ce)}}.c.c1n{fill:var(--c2);animation-name:c1n}@keyframes c1o{38.45%{fill:var(--c2)}38.47%,100%{fill:var(--ce)}}.c.c1o{fill:var(--c2);animation-name:c1o}@keyframes c1p{24.07%{fill:var(--c2)}24.09%,100%{fill:var(--ce)}}.c.c1p{fill:var(--c2);animation-name:c1p}@keyframes c1q{25.74%{fill:var(--c2)}25.76%,100%{fill:var(--ce)}}.c.c1q{fill:var(--c2);animation-name:c1q}@keyframes c1r{28.75%{fill:var(--c2)}28.77%,100%{fill:var(--ce)}}.c.c1r{fill:var(--c2);animation-name:c1r}@keyframes c1s{29.09%{fill:var(--c2)}29.11%,100%{fill:var(--ce)}}.c.c1s{fill:var(--c2);animation-name:c1s}@keyframes c1t{36.78%{fill:var(--c2)}36.8%,100%{fill:var(--ce)}}.c.c1t{fill:var(--c2);animation-name:c1t}@keyframes c1u{36.44%{fill:var(--c2)}36.46%,100%{fill:var(--ce)}}.c.c1u{fill:var(--c2);animation-name:c1u}@keyframes c1v{38.79%{fill:var(--c2)}38.81%,100%{fill:var(--ce)}}.c.c1v{fill:var(--c2);animation-name:c1v}@keyframes c1w{24.4%{fill:var(--c2)}24.42%,100%{fill:var(--ce)}}.c.c1w{fill:var(--c2);animation-name:c1w}@keyframes c1x{76.24%{fill:var(--c4)}76.26%,100%{fill:var(--ce)}}.c.c1x{fill:var(--c4);animation-name:c1x}@keyframes c1y{75.91%{fill:var(--c4)}75.93%,100%{fill:var(--ce)}}.c.c1y{fill:var(--c4);animation-name:c1y}@keyframes c1z{82.26%{fill:var(--c4)}82.28%,100%{fill:var(--ce)}}.c.c1z{fill:var(--c4);animation-name:c1z}@keyframes c20{70.56%{fill:var(--c4)}70.58%,100%{fill:var(--ce)}}.c.c20{fill:var(--c4);animation-name:c20}@keyframes c21{80.26%{fill:var(--c4)}80.28%,100%{fill:var(--ce)}}.c.c21{fill:var(--c4);animation-name:c21}@keyframes c22{80.59%{fill:var(--c4)}80.61%,100%{fill:var(--ce)}}.c.c22{fill:var(--c4);animation-name:c22}@keyframes c23{74.24%{fill:var(--c4)}74.26%,100%{fill:var(--ce)}}.c.c23{fill:var(--c4);animation-name:c23}@keyframes c24{74.57%{fill:var(--c4)}74.59%,100%{fill:var(--ce)}}.c.c24{fill:var(--c4);animation-name:c24}@keyframes c25{75.58%{fill:var(--c4)}75.6%,100%{fill:var(--ce)}}.c.c25{fill:var(--c4);animation-name:c25}@keyframes c26{77.25%{fill:var(--c4)}77.27%,100%{fill:var(--ce)}}.c.c26{fill:var(--c4);animation-name:c26}@keyframes c27{70.89%{fill:var(--c4)}70.91%,100%{fill:var(--ce)}}.c.c27{fill:var(--c4);animation-name:c27}@keyframes c28{79.92%{fill:var(--c4)}79.94%,100%{fill:var(--ce)}}.c.c28{fill:var(--c4);animation-name:c28}@keyframes c29{79.59%{fill:var(--c4)}79.61%,100%{fill:var(--ce)}}.c.c29{fill:var(--c4);animation-name:c29}@keyframes c2a{73.9%{fill:var(--c4)}73.92%,100%{fill:var(--ce)}}.c.c2a{fill:var(--c4);animation-name:c2a}@keyframes c2b{74.91%{fill:var(--c4)}74.93%,100%{fill:var(--ce)}}.c.c2b{fill:var(--c4);animation-name:c2b}@keyframes c2c{75.24%{fill:var(--c4)}75.26%,100%{fill:var(--ce)}}.c.c2c{fill:var(--c4);animation-name:c2c}@keyframes c2d{77.58%{fill:var(--c4)}77.6%,100%{fill:var(--ce)}}.c.c2d{fill:var(--c4);animation-name:c2d}@keyframes c2e{71.23%{fill:var(--c4)}71.25%,100%{fill:var(--ce)}}.c.c2e{fill:var(--c4);animation-name:c2e}@keyframes c2f{78.25%{fill:var(--c4)}78.27%,100%{fill:var(--ce)}}.c.c2f{fill:var(--c4);animation-name:c2f}@keyframes c2g{79.25%{fill:var(--c4)}79.27%,100%{fill:var(--ce)}}.c.c2g{fill:var(--c4);animation-name:c2g}@keyframes c2h{73.57%{fill:var(--c4)}73.59%,100%{fill:var(--ce)}}.c.c2h{fill:var(--c4);animation-name:c2h}@keyframes c2i{72.57%{fill:var(--c4)}72.59%,100%{fill:var(--ce)}}.c.c2i{fill:var(--c4);animation-name:c2i}@keyframes c2j{72.23%{fill:var(--c4)}72.25%,100%{fill:var(--ce)}}.c.c2j{fill:var(--c4);animation-name:c2j}@keyframes c2k{71.9%{fill:var(--c4)}71.92%,100%{fill:var(--ce)}}.c.c2k{fill:var(--c4);animation-name:c2k}@keyframes c2l{71.56%{fill:var(--c4)}71.58%,100%{fill:var(--ce)}}.c.c2l{fill:var(--c4);animation-name:c2l}@keyframes c2m{78.59%{fill:var(--c4)}78.61%,100%{fill:var(--ce)}}.c.c2m{fill:var(--c4);animation-name:c2m}@keyframes c2n{78.92%{fill:var(--c4)}78.94%,100%{fill:var(--ce)}}.c.c2n{fill:var(--c4);animation-name:c2n}@keyframes c2o{73.23%{fill:var(--c4)}73.25%,100%{fill:var(--ce)}}.c.c2o{fill:var(--c4);animation-name:c2o}@keyframes c2p{72.9%{fill:var(--c4)}72.92%,100%{fill:var(--ce)}}.c.c2p{fill:var(--c4);animation-name:c2p}.u{transform-origin:0 0;transform:scale(0,1);animation:none linear 29900ms infinite}@keyframes u0{4.34%{transform:scale(0.000,1)}4.36%,4.67%{transform:scale(0.111,1)}4.69%,6.68%{transform:scale(0.222,1)}6.7%,12.7%{transform:scale(0.333,1)}12.72%,16.38%{transform:scale(0.444,1)}16.4%,17.05%{transform:scale(0.556,1)}17.07%,18.05%{transform:scale(0.667,1)}18.07%,18.38%{transform:scale(0.778,1)}18.4%,20.73%{transform:scale(0.889,1)}20.75%,100%{transform:scale(1.000,1)}}.u.u0{fill:var(--c1);animation-name:u0;transform-origin:0.0px 0}@keyframes u1{22.06%{transform:scale(0.000,1)}22.08%,22.4%{transform:scale(0.019,1)}22.42%,22.73%{transform:scale(0.037,1)}22.75%,23.07%{transform:scale(0.056,1)}23.09%,23.4%{transform:scale(0.074,1)}23.42%,23.74%{transform:scale(0.093,1)}23.76%,24.07%{transform:scale(0.111,1)}24.09%,24.4%{transform:scale(0.130,1)}24.42%,25.74%{transform:scale(0.148,1)}25.76%,26.08%{transform:scale(0.167,1)}26.1%,26.41%{transform:scale(0.185,1)}26.43%,26.75%{transform:scale(0.204,1)}26.77%,27.08%{transform:scale(0.222,1)}27.1%,27.41%{transform:scale(0.241,1)}27.43%,27.75%{transform:scale(0.259,1)}27.77%,28.08%{transform:scale(0.278,1)}28.1%,28.42%{transform:scale(0.296,1)}28.44%,28.75%{transform:scale(0.315,1)}28.77%,29.09%{transform:scale(0.333,1)}29.11%,29.42%{transform:scale(0.352,1)}29.44%,29.76%{transform:scale(0.370,1)}29.78%,30.09%{transform:scale(0.389,1)}30.11%,30.42%{transform:scale(0.407,1)}30.44%,30.76%{transform:scale(0.426,1)}30.78%,31.09%{transform:scale(0.444,1)}31.11%,31.43%{transform:scale(0.463,1)}31.45%,31.76%{transform:scale(0.481,1)}31.78%,33.77%{transform:scale(0.500,1)}33.79%,34.1%{transform:scale(0.519,1)}34.12%,34.44%{transform:scale(0.537,1)}34.46%,34.77%{transform:scale(0.556,1)}34.79%,35.11%{transform:scale(0.574,1)}35.13%,35.44%{transform:scale(0.593,1)}35.46%,35.78%{transform:scale(0.611,1)}35.8%,36.11%{transform:scale(0.630,1)}36.13%,36.44%{transform:scale(0.648,1)}36.46%,36.78%{transform:scale(0.667,1)}36.8%,37.11%{transform:scale(0.685,1)}37.13%,37.45%{transform:scale(0.704,1)}37.47%,38.12%{transform:scale(0.722,1)}38.14%,38.45%{transform:scale(0.741,1)}38.47%,38.79%{transform:scale(0.759,1)}38.81%,40.46%{transform:scale(0.778,1)}40.48%,40.79%{transform:scale(0.796,1)}40.81%,41.13%{transform:scale(0.815,1)}41.15%,41.46%{transform:scale(0.833,1)}41.48%,41.8%{transform:scale(0.852,1)}41.82%,42.13%{transform:scale(0.870,1)}42.15%,42.46%{transform:scale(0.889,1)}42.48%,43.47%{transform:scale(0.907,1)}43.49%,43.8%{transform:scale(0.926,1)}43.82%,45.14%{transform:scale(0.944,1)}45.16%,52.16%{transform:scale(0.963,1)}52.18%,55.17%{transform:scale(0.981,1)}55.19%,100%{transform:scale(1.000,1)}}.u.u1{fill:var(--c2);animation-name:u1;transform-origin:77.9px 0}@keyframes u2{60.86%{transform:scale(0.000,1)}60.88%,66.21%{transform:scale(0.029,1)}66.23%,66.55%{transform:scale(0.057,1)}66.57%,67.55%{transform:scale(0.086,1)}67.57%,69.22%{transform:scale(0.114,1)}69.24%,70.56%{transform:scale(0.143,1)}70.58%,70.89%{transform:scale(0.171,1)}70.91%,71.23%{transform:scale(0.200,1)}71.25%,71.56%{transform:scale(0.229,1)}71.58%,71.9%{transform:scale(0.257,1)}71.92%,72.23%{transform:scale(0.286,1)}72.25%,72.57%{transform:scale(0.314,1)}72.59%,72.9%{transform:scale(0.343,1)}72.92%,73.23%{transform:scale(0.371,1)}73.25%,73.57%{transform:scale(0.400,1)}73.59%,73.9%{transform:scale(0.429,1)}73.92%,74.24%{transform:scale(0.457,1)}74.26%,74.57%{transform:scale(0.486,1)}74.59%,74.91%{transform:scale(0.514,1)}74.93%,75.24%{transform:scale(0.543,1)}75.26%,75.58%{transform:scale(0.571,1)}75.6%,75.91%{transform:scale(0.600,1)}75.93%,76.24%{transform:scale(0.629,1)}76.26%,77.25%{transform:scale(0.657,1)}77.27%,77.58%{transform:scale(0.686,1)}77.6%,78.25%{transform:scale(0.714,1)}78.27%,78.59%{transform:scale(0.743,1)}78.61%,78.92%{transform:scale(0.771,1)}78.94%,79.25%{transform:scale(0.800,1)}79.27%,79.59%{transform:scale(0.829,1)}79.61%,79.92%{transform:scale(0.857,1)}79.94%,80.26%{transform:scale(0.886,1)}80.28%,80.59%{transform:scale(0.914,1)}80.61%,82.26%{transform:scale(0.943,1)}82.28%,86.95%{transform:scale(0.971,1)}86.97%,100%{transform:scale(1.000,1)}}.u.u2{fill:var(--c4);animation-name:u2;transform-origin:545.1px 0}.s{shape-rendering:geometricPrecision;fill:var(--cs);animation:none linear 29900ms infinite}@keyframes s0{0%,99.67%{transform:translate(0px,-16px)}0.33%{transform:translate(0px,0px)}4.35%{transform:translate(192px,0px)}4.68%{transform:translate(192px,16px)}5.35%{transform:translate(160px,16px)}6.69%{transform:translate(160px,80px)}12.04%{transform:translate(416px,80px)}12.71%{transform:translate(416px,48px)}16.39%{transform:translate(592px,48px)}16.72%{transform:translate(592px,64px)}17.06%{transform:translate(576px,64px)}17.39%,45.48%{transform:translate(576px,80px)}18.06%{transform:translate(608px,80px)}18.39%{transform:translate(608px,96px)}18.73%{transform:translate(624px,96px)}20.4%{transform:translate(624px,16px)}20.74%{transform:translate(608px,16px)}21.07%{transform:translate(608px,0px)}24.41%,83.28%{transform:translate(768px,0px)}24.75%{transform:translate(768px,-16px)}25.08%{transform:translate(752px,-16px)}25.75%{transform:translate(752px,16px)}27.09%{transform:translate(688px,16px)}27.42%{transform:translate(688px,32px)}28.76%{transform:translate(752px,32px)}29.1%{transform:translate(752px,48px)}30.77%{transform:translate(672px,48px)}31.1%,67.22%{transform:translate(672px,32px)}31.44%{transform:translate(656px,32px)}32.11%{transform:translate(656px,0px)}32.44%{transform:translate(640px,0px)}32.78%{transform:translate(640px,16px)}33.11%{transform:translate(656px,16px)}34.11%,42.81%{transform:translate(656px,64px)}34.78%{transform:translate(688px,64px)}35.12%{transform:translate(688px,80px)}36.45%,39.13%{transform:translate(752px,80px)}36.79%{transform:translate(752px,64px)}37.46%{transform:translate(720px,64px)}38.13%{transform:translate(720px,96px)}38.8%{transform:translate(752px,96px)}40.13%{transform:translate(704px,80px)}40.47%{transform:translate(704px,96px)}41.14%{transform:translate(672px,96px)}41.47%{transform:translate(672px,80px)}42.14%{transform:translate(640px,80px)}42.47%,65.89%{transform:translate(640px,64px)}43.48%{transform:translate(656px,96px)}45.15%{transform:translate(576px,96px)}49.5%{transform:translate(384px,80px)}49.83%{transform:translate(384px,64px)}54.52%{transform:translate(160px,64px)}55.18%{transform:translate(160px,96px)}60.2%{transform:translate(400px,96px)}60.87%{transform:translate(400px,64px)}66.56%{transform:translate(640px,32px)}67.56%{transform:translate(672px,16px)}68.23%{transform:translate(704px,16px)}69.23%{transform:translate(704px,64px)}71.57%{transform:translate(816px,64px)}72.58%{transform:translate(816px,16px)}72.91%{transform:translate(832px,16px)}73.24%{transform:translate(832px,0px)}74.25%{transform:translate(784px,0px)}74.58%,76.59%{transform:translate(784px,16px)}74.92%{transform:translate(800px,16px)}75.25%{transform:translate(800px,32px)}75.92%{transform:translate(768px,32px)}76.25%{transform:translate(768px,16px)}77.26%,81.94%{transform:translate(784px,48px)}77.59%{transform:translate(800px,48px)}78.26%{transform:translate(800px,80px)}78.6%{transform:translate(816px,80px)}78.93%{transform:translate(816px,96px)}79.6%,80.94%{transform:translate(784px,96px)}79.93%{transform:translate(784px,80px)}80.27%{transform:translate(768px,80px)}80.6%{transform:translate(768px,96px)}82.27%{transform:translate(768px,48px)}97.32%{transform:translate(96px,0px)}97.66%{transform:translate(96px,-16px)}}.s.s0{transform:translate(0px,-16px);animation-name:s0}@keyframes s1{0%,99.67%{transform:translate(16px,-16px)}0.33%{transform:translate(0px,-16px)}0.67%{transform:translate(0px,0px)}4.68%{transform:translate(192px,0px)}5.02%{transform:translate(192px,16px)}5.69%{transform:translate(160px,16px)}7.02%{transform:translate(160px,80px)}12.37%{transform:translate(416px,80px)}13.04%{transform:translate(416px,48px)}16.72%{transform:translate(592px,48px)}17.06%{transform:translate(592px,64px)}17.39%{transform:translate(576px,64px)}17.73%,45.82%{transform:translate(576px,80px)}18.39%{transform:translate(608px,80px)}18.73%{transform:translate(608px,96px)}19.06%{transform:translate(624px,96px)}20.74%{transform:translate(624px,16px)}21.07%{transform:translate(608px,16px)}21.4%{transform:translate(608px,0px)}24.75%,83.61%{transform:translate(768px,0px)}25.08%{transform:translate(768px,-16px)}25.42%{transform:translate(752px,-16px)}26.09%{transform:translate(752px,16px)}27.42%{transform:translate(688px,16px)}27.76%{transform:translate(688px,32px)}29.1%{transform:translate(752px,32px)}29.43%{transform:translate(752px,48px)}31.1%{transform:translate(672px,48px)}31.44%,67.56%{transform:translate(672px,32px)}31.77%{transform:translate(656px,32px)}32.44%{transform:translate(656px,0px)}32.78%{transform:translate(640px,0px)}33.11%{transform:translate(640px,16px)}33.44%{transform:translate(656px,16px)}34.45%,43.14%{transform:translate(656px,64px)}35.12%{transform:translate(688px,64px)}35.45%{transform:translate(688px,80px)}36.79%,39.46%{transform:translate(752px,80px)}37.12%{transform:translate(752px,64px)}37.79%{transform:translate(720px,64px)}38.46%{transform:translate(720px,96px)}39.13%{transform:translate(752px,96px)}40.47%{transform:translate(704px,80px)}40.8%{transform:translate(704px,96px)}41.47%{transform:translate(672px,96px)}41.81%{transform:translate(672px,80px)}42.47%{transform:translate(640px,80px)}42.81%,66.22%{transform:translate(640px,64px)}43.81%{transform:translate(656px,96px)}45.48%{transform:translate(576px,96px)}49.83%{transform:translate(384px,80px)}50.17%{transform:translate(384px,64px)}54.85%{transform:translate(160px,64px)}55.52%{transform:translate(160px,96px)}60.54%{transform:translate(400px,96px)}61.2%{transform:translate(400px,64px)}66.89%{transform:translate(640px,32px)}67.89%{transform:translate(672px,16px)}68.56%{transform:translate(704px,16px)}69.57%{transform:translate(704px,64px)}71.91%{transform:translate(816px,64px)}72.91%{transform:translate(816px,16px)}73.24%{transform:translate(832px,16px)}73.58%{transform:translate(832px,0px)}74.58%{transform:translate(784px,0px)}74.92%,76.92%{transform:translate(784px,16px)}75.25%{transform:translate(800px,16px)}75.59%{transform:translate(800px,32px)}76.25%{transform:translate(768px,32px)}76.59%{transform:translate(768px,16px)}77.59%,82.27%{transform:translate(784px,48px)}77.93%{transform:translate(800px,48px)}78.6%{transform:translate(800px,80px)}78.93%{transform:translate(816px,80px)}79.26%{transform:translate(816px,96px)}79.93%,81.27%{transform:translate(784px,96px)}80.27%{transform:translate(784px,80px)}80.6%{transform:translate(768px,80px)}80.94%{transform:translate(768px,96px)}82.61%{transform:translate(768px,48px)}97.66%{transform:translate(96px,0px)}97.99%{transform:translate(96px,-16px)}}.s.s1{transform:translate(16px,-16px);animation-name:s1}@keyframes s2{0%,99.67%{transform:translate(32px,-16px)}0.67%{transform:translate(0px,-16px)}1%{transform:translate(0px,0px)}5.02%{transform:translate(192px,0px)}5.35%{transform:translate(192px,16px)}6.02%{transform:translate(160px,16px)}7.36%{transform:translate(160px,80px)}12.71%{transform:translate(416px,80px)}13.38%{transform:translate(416px,48px)}17.06%{transform:translate(592px,48px)}17.39%{transform:translate(592px,64px)}17.73%{transform:translate(576px,64px)}18.06%,46.15%{transform:translate(576px,80px)}18.73%{transform:translate(608px,80px)}19.06%{transform:translate(608px,96px)}19.4%{transform:translate(624px,96px)}21.07%{transform:translate(624px,16px)}21.4%{transform:translate(608px,16px)}21.74%{transform:translate(608px,0px)}25.08%,83.95%{transform:translate(768px,0px)}25.42%{transform:translate(768px,-16px)}25.75%{transform:translate(752px,-16px)}26.42%{transform:translate(752px,16px)}27.76%{transform:translate(688px,16px)}28.09%{transform:translate(688px,32px)}29.43%{transform:translate(752px,32px)}29.77%{transform:translate(752px,48px)}31.44%{transform:translate(672px,48px)}31.77%,67.89%{transform:translate(672px,32px)}32.11%{transform:translate(656px,32px)}32.78%{transform:translate(656px,0px)}33.11%{transform:translate(640px,0px)}33.44%{transform:translate(640px,16px)}33.78%{transform:translate(656px,16px)}34.78%,43.48%{transform:translate(656px,64px)}35.45%{transform:translate(688px,64px)}35.79%{transform:translate(688px,80px)}37.12%,39.8%{transform:translate(752px,80px)}37.46%{transform:translate(752px,64px)}38.13%{transform:translate(720px,64px)}38.8%{transform:translate(720px,96px)}39.46%{transform:translate(752px,96px)}40.8%{transform:translate(704px,80px)}41.14%{transform:translate(704px,96px)}41.81%{transform:translate(672px,96px)}42.14%{transform:translate(672px,80px)}42.81%{transform:translate(640px,80px)}43.14%,66.56%{transform:translate(640px,64px)}44.15%{transform:translate(656px,96px)}45.82%{transform:translate(576px,96px)}50.17%{transform:translate(384px,80px)}50.5%{transform:translate(384px,64px)}55.18%{transform:translate(160px,64px)}55.85%{transform:translate(160px,96px)}60.87%{transform:translate(400px,96px)}61.54%{transform:translate(400px,64px)}67.22%{transform:translate(640px,32px)}68.23%{transform:translate(672px,16px)}68.9%{transform:translate(704px,16px)}69.9%{transform:translate(704px,64px)}72.24%{transform:translate(816px,64px)}73.24%{transform:translate(816px,16px)}73.58%{transform:translate(832px,16px)}73.91%{transform:translate(832px,0px)}74.92%{transform:translate(784px,0px)}75.25%,77.26%{transform:translate(784px,16px)}75.59%{transform:translate(800px,16px)}75.92%{transform:translate(800px,32px)}76.59%{transform:translate(768px,32px)}76.92%{transform:translate(768px,16px)}77.93%,82.61%{transform:translate(784px,48px)}78.26%{transform:translate(800px,48px)}78.93%{transform:translate(800px,80px)}79.26%{transform:translate(816px,80px)}79.6%{transform:translate(816px,96px)}80.27%,81.61%{transform:translate(784px,96px)}80.6%{transform:translate(784px,80px)}80.94%{transform:translate(768px,80px)}81.27%{transform:translate(768px,96px)}82.94%{transform:translate(768px,48px)}97.99%{transform:translate(96px,0px)}98.33%{transform:translate(96px,-16px)}}.s.s2{transform:translate(32px,-16px);animation-name:s2}@keyframes s3{0%,99.67%{transform:translate(48px,-16px)}1%{transform:translate(0px,-16px)}1.34%{transform:translate(0px,0px)}5.35%{transform:translate(192px,0px)}5.69%{transform:translate(192px,16px)}6.35%{transform:translate(160px,16px)}7.69%{transform:translate(160px,80px)}13.04%{transform:translate(416px,80px)}13.71%{transform:translate(416px,48px)}17.39%{transform:translate(592px,48px)}17.73%{transform:translate(592px,64px)}18.06%{transform:translate(576px,64px)}18.39%,46.49%{transform:translate(576px,80px)}19.06%{transform:translate(608px,80px)}19.4%{transform:translate(608px,96px)}19.73%{transform:translate(624px,96px)}21.4%{transform:translate(624px,16px)}21.74%{transform:translate(608px,16px)}22.07%{transform:translate(608px,0px)}25.42%,84.28%{transform:translate(768px,0px)}25.75%{transform:translate(768px,-16px)}26.09%{transform:translate(752px,-16px)}26.76%{transform:translate(752px,16px)}28.09%{transform:translate(688px,16px)}28.43%{transform:translate(688px,32px)}29.77%{transform:translate(752px,32px)}30.1%{transform:translate(752px,48px)}31.77%{transform:translate(672px,48px)}32.11%,68.23%{transform:translate(672px,32px)}32.44%{transform:translate(656px,32px)}33.11%{transform:translate(656px,0px)}33.44%{transform:translate(640px,0px)}33.78%{transform:translate(640px,16px)}34.11%{transform:translate(656px,16px)}35.12%,43.81%{transform:translate(656px,64px)}35.79%{transform:translate(688px,64px)}36.12%{transform:translate(688px,80px)}37.46%,40.13%{transform:translate(752px,80px)}37.79%{transform:translate(752px,64px)}38.46%{transform:translate(720px,64px)}39.13%{transform:translate(720px,96px)}39.8%{transform:translate(752px,96px)}41.14%{transform:translate(704px,80px)}41.47%{transform:translate(704px,96px)}42.14%{transform:translate(672px,96px)}42.47%{transform:translate(672px,80px)}43.14%{transform:translate(640px,80px)}43.48%,66.89%{transform:translate(640px,64px)}44.48%{transform:translate(656px,96px)}46.15%{transform:translate(576px,96px)}50.5%{transform:translate(384px,80px)}50.84%{transform:translate(384px,64px)}55.52%{transform:translate(160px,64px)}56.19%{transform:translate(160px,96px)}61.2%{transform:translate(400px,96px)}61.87%{transform:translate(400px,64px)}67.56%{transform:translate(640px,32px)}68.56%{transform:translate(672px,16px)}69.23%{transform:translate(704px,16px)}70.23%{transform:translate(704px,64px)}72.58%{transform:translate(816px,64px)}73.58%{transform:translate(816px,16px)}73.91%{transform:translate(832px,16px)}74.25%{transform:translate(832px,0px)}75.25%{transform:translate(784px,0px)}75.59%,77.59%{transform:translate(784px,16px)}75.92%{transform:translate(800px,16px)}76.25%{transform:translate(800px,32px)}76.92%{transform:translate(768px,32px)}77.26%{transform:translate(768px,16px)}78.26%,82.94%{transform:translate(784px,48px)}78.6%{transform:translate(800px,48px)}79.26%{transform:translate(800px,80px)}79.6%{transform:translate(816px,80px)}79.93%{transform:translate(816px,96px)}80.6%,81.94%{transform:translate(784px,96px)}80.94%{transform:translate(784px,80px)}81.27%{transform:translate(768px,80px)}81.61%{transform:translate(768px,96px)}83.28%{transform:translate(768px,48px)}98.33%{transform:translate(96px,0px)}98.66%{transform:translate(96px,-16px)}}.s.s3{transform:translate(48px,-16px);animation-name:s3}</style><rect class="c" x="2" y="2" rx="2" ry="2"/><rect class="c" x="2" y="18" rx="2" ry="2"/><rect class="c" x="2" y="34" rx="2" ry="2"/><rect class="c" x="2" y="50" rx="2" ry="2"/><rect class="c" x="2" y="66" rx="2" ry="2"/><rect class="c" x="2" y="82" rx="2" ry="2"/><rect class="c" x="2" y="98" rx="2" ry="2"/><rect class="c" x="18" y="2" rx="2" ry="2"/><rect class="c" x="18" y="18" rx="2" ry="2"/><rect class="c" x="18" y="34" rx="2" ry="2"/><rect class="c" x="18" y="50" rx="2" ry="2"/><rect class="c" x="18" y="66" rx="2" ry="2"/><rect class="c" x="18" y="82" rx="2" ry="2"/><rect class="c" x="18" y="98" rx="2" ry="2"/><rect class="c" x="34" y="2" rx="2" ry="2"/><rect class="c" x="34" y="18" rx="2" ry="2"/><rect class="c" x="34" y="34" rx="2" ry="2"/><rect class="c" x="34" y="50" rx="2" ry="2"/><rect class="c" x="34" y="66" rx="2" ry="2"/><rect class="c" x="34" y="82" rx="2" ry="2"/><rect class="c" x="34" y="98" rx="2" ry="2"/><rect class="c" x="50" y="2" rx="2" ry="2"/><rect class="c" x="50" y="18" rx="2" ry="2"/><rect class="c" x="50" y="34" rx="2" ry="2"/><rect class="c" x="50" y="50" rx="2" ry="2"/><rect class="c" x="50" y="66" rx="2" ry="2"/><rect class="c" x="50" y="82" rx="2" ry="2"/><rect class="c" x="50" y="98" rx="2" ry="2"/><rect class="c" x="66" y="2" rx="2" ry="2"/><rect class="c" x="66" y="18" rx="2" ry="2"/><rect class="c" x="66" y="34" rx="2" ry="2"/><rect class="c" x="66" y="50" rx="2" ry="2"/><rect class="c" x="66" y="66" rx="2" ry="2"/><rect class="c" x="66" y="82" rx="2" ry="2"/><rect class="c" x="66" y="98" rx="2" ry="2"/><rect class="c" x="82" y="2" rx="2" ry="2"/><rect class="c" x="82" y="18" rx="2" ry="2"/><rect class="c" x="82" y="34" rx="2" ry="2"/><rect class="c" x="82" y="50" rx="2" ry="2"/><rect class="c" x="82" y="66" rx="2" ry="2"/><rect class="c" x="82" y="82" rx="2" ry="2"/><rect class="c" x="82" y="98" rx="2" ry="2"/><rect class="c" x="98" y="2" rx="2" ry="2"/><rect class="c" x="98" y="18" rx="2" ry="2"/><rect class="c" x="98" y="34" rx="2" ry="2"/><rect class="c" x="98" y="50" rx="2" ry="2"/><rect class="c" x="98" y="66" rx="2" ry="2"/><rect class="c" x="98" y="82" rx="2" ry="2"/><rect class="c" x="98" y="98" rx="2" ry="2"/><rect class="c" x="114" y="2" rx="2" ry="2"/><rect class="c" x="114" y="18" rx="2" ry="2"/><rect class="c" x="114" y="34" rx="2" ry="2"/><rect class="c" x="114" y="50" rx="2" ry="2"/><rect class="c" x="114" y="66" rx="2" ry="2"/><rect class="c" x="114" y="82" rx="2" ry="2"/><rect class="c" x="114" y="98" rx="2" ry="2"/><rect class="c" x="130" y="2" rx="2" ry="2"/><rect class="c" x="130" y="18" rx="2" ry="2"/><rect class="c" x="130" y="34" rx="2" ry="2"/><rect class="c" x="130" y="50" rx="2" ry="2"/><rect class="c" x="130" y="66" rx="2" ry="2"/><rect class="c" x="130" y="82" rx="2" ry="2"/><rect class="c" x="130" y="98" rx="2" ry="2"/><rect class="c" x="146" y="2" rx="2" ry="2"/><rect class="c" x="146" y="18" rx="2" ry="2"/><rect class="c" x="146" y="34" rx="2" ry="2"/><rect class="c" x="146" y="50" rx="2" ry="2"/><rect class="c" x="146" y="66" rx="2" ry="2"/><rect class="c" x="146" y="82" rx="2" ry="2"/><rect class="c" x="146" y="98" rx="2" ry="2"/><rect class="c" x="162" y="2" rx="2" ry="2"/><rect class="c" x="162" y="18" rx="2" ry="2"/><rect class="c" x="162" y="34" rx="2" ry="2"/><rect class="c" x="162" y="50" rx="2" ry="2"/><rect class="c" x="162" y="66" rx="2" ry="2"/><rect class="c c0" x="162" y="82" rx="2" ry="2"/><rect class="c c1" x="162" y="98" rx="2" ry="2"/><rect class="c" x="178" y="2" rx="2" ry="2"/><rect class="c" x="178" y="18" rx="2" ry="2"/><rect class="c" x="178" y="34" rx="2" ry="2"/><rect class="c" x="178" y="50" rx="2" ry="2"/><rect class="c" x="178" y="66" rx="2" ry="2"/><rect class="c" x="178" y="82" rx="2" ry="2"/><rect class="c" x="178" y="98" rx="2" ry="2"/><rect class="c c2" x="194" y="2" rx="2" ry="2"/><rect class="c c3" x="194" y="18" rx="2" ry="2"/><rect class="c" x="194" y="34" rx="2" ry="2"/><rect class="c" x="194" y="50" rx="2" ry="2"/><rect class="c" x="194" y="66" rx="2" ry="2"/><rect class="c" x="194" y="82" rx="2" ry="2"/><rect class="c" x="194" y="98" rx="2" ry="2"/><rect class="c" x="210" y="2" rx="2" ry="2"/><rect class="c" x="210" y="18" rx="2" ry="2"/><rect class="c" x="210" y="34" rx="2" ry="2"/><rect class="c" x="210" y="50" rx="2" ry="2"/><rect class="c" x="210" y="66" rx="2" ry="2"/><rect class="c" x="210" y="82" rx="2" ry="2"/><rect class="c" x="210" y="98" rx="2" ry="2"/><rect class="c" x="226" y="2" rx="2" ry="2"/><rect class="c" x="226" y="18" rx="2" ry="2"/><rect class="c" x="226" y="34" rx="2" ry="2"/><rect class="c" x="226" y="50" rx="2" ry="2"/><rect class="c" x="226" y="66" rx="2" ry="2"/><rect class="c" x="226" y="82" rx="2" ry="2"/><rect class="c" x="226" y="98" rx="2" ry="2"/><rect class="c" x="242" y="2" rx="2" ry="2"/><rect class="c" x="242" y="18" rx="2" ry="2"/><rect class="c" x="242" y="34" rx="2" ry="2"/><rect class="c" x="242" y="50" rx="2" ry="2"/><rect class="c" x="242" y="66" rx="2" ry="2"/><rect class="c" x="242" y="82" rx="2" ry="2"/><rect class="c" x="242" y="98" rx="2" ry="2"/><rect class="c" x="258" y="2" rx="2" ry="2"/><rect class="c" x="258" y="18" rx="2" ry="2"/><rect class="c" x="258" y="34" rx="2" ry="2"/><rect class="c" x="258" y="50" rx="2" ry="2"/><rect class="c" x="258" y="66" rx="2" ry="2"/><rect class="c" x="258" y="82" rx="2" ry="2"/><rect class="c" x="258" y="98" rx="2" ry="2"/><rect class="c" x="274" y="2" rx="2" ry="2"/><rect class="c" x="274" y="18" rx="2" ry="2"/><rect class="c" x="274" y="34" rx="2" ry="2"/><rect class="c" x="274" y="50" rx="2" ry="2"/><rect class="c c4" x="274" y="66" rx="2" ry="2"/><rect class="c" x="274" y="82" rx="2" ry="2"/><rect class="c" x="274" y="98" rx="2" ry="2"/><rect class="c" x="290" y="2" rx="2" ry="2"/><rect class="c" x="290" y="18" rx="2" ry="2"/><rect class="c" x="290" y="34" rx="2" ry="2"/><rect class="c" x="290" y="50" rx="2" ry="2"/><rect class="c" x="290" y="66" rx="2" ry="2"/><rect class="c" x="290" y="82" rx="2" ry="2"/><rect class="c" x="290" y="98" rx="2" ry="2"/><rect class="c" x="306" y="2" rx="2" ry="2"/><rect class="c" x="306" y="18" rx="2" ry="2"/><rect class="c" x="306" y="34" rx="2" ry="2"/><rect class="c" x="306" y="50" rx="2" ry="2"/><rect class="c" x="306" y="66" rx="2" ry="2"/><rect class="c" x="306" y="82" rx="2" ry="2"/><rect class="c" x="306" y="98" rx="2" ry="2"/><rect class="c" x="322" y="2" rx="2" ry="2"/><rect class="c" x="322" y="18" rx="2" ry="2"/><rect class="c" x="322" y="34" rx="2" ry="2"/><rect class="c" x="322" y="50" rx="2" ry="2"/><rect class="c" x="322" y="66" rx="2" ry="2"/><rect class="c" x="322" y="82" rx="2" ry="2"/><rect class="c" x="322" y="98" rx="2" ry="2"/><rect class="c" x="338" y="2" rx="2" ry="2"/><rect class="c" x="338" y="18" rx="2" ry="2"/><rect class="c" x="338" y="34" rx="2" ry="2"/><rect class="c" x="338" y="50" rx="2" ry="2"/><rect class="c" x="338" y="66" rx="2" ry="2"/><rect class="c" x="338" y="82" rx="2" ry="2"/><rect class="c" x="338" y="98" rx="2" ry="2"/><rect class="c" x="354" y="2" rx="2" ry="2"/><rect class="c" x="354" y="18" rx="2" ry="2"/><rect class="c" x="354" y="34" rx="2" ry="2"/><rect class="c" x="354" y="50" rx="2" ry="2"/><rect class="c" x="354" y="66" rx="2" ry="2"/><rect class="c" x="354" y="82" rx="2" ry="2"/><rect class="c" x="354" y="98" rx="2" ry="2"/><rect class="c" x="370" y="2" rx="2" ry="2"/><rect class="c" x="370" y="18" rx="2" ry="2"/><rect class="c" x="370" y="34" rx="2" ry="2"/><rect class="c" x="370" y="50" rx="2" ry="2"/><rect class="c" x="370" y="66" rx="2" ry="2"/><rect class="c" x="370" y="82" rx="2" ry="2"/><rect class="c" x="370" y="98" rx="2" ry="2"/><rect class="c" x="386" y="2" rx="2" ry="2"/><rect class="c" x="386" y="18" rx="2" ry="2"/><rect class="c" x="386" y="34" rx="2" ry="2"/><rect class="c" x="386" y="50" rx="2" ry="2"/><rect class="c" x="386" y="66" rx="2" ry="2"/><rect class="c" x="386" y="82" rx="2" ry="2"/><rect class="c" x="386" y="98" rx="2" ry="2"/><rect class="c" x="402" y="2" rx="2" ry="2"/><rect class="c" x="402" y="18" rx="2" ry="2"/><rect class="c" x="402" y="34" rx="2" ry="2"/><rect class="c" x="402" y="50" rx="2" ry="2"/><rect class="c c5" x="402" y="66" rx="2" ry="2"/><rect class="c" x="402" y="82" rx="2" ry="2"/><rect class="c" x="402" y="98" rx="2" ry="2"/><rect class="c" x="418" y="2" rx="2" ry="2"/><rect class="c" x="418" y="18" rx="2" ry="2"/><rect class="c" x="418" y="34" rx="2" ry="2"/><rect class="c c6" x="418" y="50" rx="2" ry="2"/><rect class="c" x="418" y="66" rx="2" ry="2"/><rect class="c" x="418" y="82" rx="2" ry="2"/><rect class="c" x="418" y="98" rx="2" ry="2"/><rect class="c" x="434" y="2" rx="2" ry="2"/><rect class="c" x="434" y="18" rx="2" ry="2"/><rect class="c" x="434" y="34" rx="2" ry="2"/><rect class="c" x="434" y="50" rx="2" ry="2"/><rect class="c" x="434" y="66" rx="2" ry="2"/><rect class="c" x="434" y="82" rx="2" ry="2"/><rect class="c" x="434" y="98" rx="2" ry="2"/><rect class="c" x="450" y="2" rx="2" ry="2"/><rect class="c" x="450" y="18" rx="2" ry="2"/><rect class="c" x="450" y="34" rx="2" ry="2"/><rect class="c" x="450" y="50" rx="2" ry="2"/><rect class="c" x="450" y="66" rx="2" ry="2"/><rect class="c" x="450" y="82" rx="2" ry="2"/><rect class="c" x="450" y="98" rx="2" ry="2"/><rect class="c" x="466" y="2" rx="2" ry="2"/><rect class="c" x="466" y="18" rx="2" ry="2"/><rect class="c" x="466" y="34" rx="2" ry="2"/><rect class="c" x="466" y="50" rx="2" ry="2"/><rect class="c" x="466" y="66" rx="2" ry="2"/><rect class="c" x="466" y="82" rx="2" ry="2"/><rect class="c" x="466" y="98" rx="2" ry="2"/><rect class="c" x="482" y="2" rx="2" ry="2"/><rect class="c" x="482" y="18" rx="2" ry="2"/><rect class="c" x="482" y="34" rx="2" ry="2"/><rect class="c" x="482" y="50" rx="2" ry="2"/><rect class="c" x="482" y="66" rx="2" ry="2"/><rect class="c" x="482" y="82" rx="2" ry="2"/><rect class="c" x="482" y="98" rx="2" ry="2"/><rect class="c" x="498" y="2" rx="2" ry="2"/><rect class="c" x="498" y="18" rx="2" ry="2"/><rect class="c" x="498" y="34" rx="2" ry="2"/><rect class="c" x="498" y="50" rx="2" ry="2"/><rect class="c" x="498" y="66" rx="2" ry="2"/><rect class="c" x="498" y="82" rx="2" ry="2"/><rect class="c" x="498" y="98" rx="2" ry="2"/><rect class="c" x="514" y="2" rx="2" ry="2"/><rect class="c" x="514" y="18" rx="2" ry="2"/><rect class="c" x="514" y="34" rx="2" ry="2"/><rect class="c" x="514" y="50" rx="2" ry="2"/><rect class="c" x="514" y="66" rx="2" ry="2"/><rect class="c" x="514" y="82" rx="2" ry="2"/><rect class="c" x="514" y="98" rx="2" ry="2"/><rect class="c" x="530" y="2" rx="2" ry="2"/><rect class="c" x="530" y="18" rx="2" ry="2"/><rect class="c" x="530" y="34" rx="2" ry="2"/><rect class="c" x="530" y="50" rx="2" ry="2"/><rect class="c" x="530" y="66" rx="2" ry="2"/><rect class="c" x="530" y="82" rx="2" ry="2"/><rect class="c" x="530" y="98" rx="2" ry="2"/><rect class="c" x="546" y="2" rx="2" ry="2"/><rect class="c" x="546" y="18" rx="2" ry="2"/><rect class="c" x="546" y="34" rx="2" ry="2"/><rect class="c" x="546" y="50" rx="2" ry="2"/><rect class="c" x="546" y="66" rx="2" ry="2"/><rect class="c" x="546" y="82" rx="2" ry="2"/><rect class="c" x="546" y="98" rx="2" ry="2"/><rect class="c" x="562" y="2" rx="2" ry="2"/><rect class="c" x="562" y="18" rx="2" ry="2"/><rect class="c" x="562" y="34" rx="2" ry="2"/><rect class="c" x="562" y="50" rx="2" ry="2"/><rect class="c" x="562" y="66" rx="2" ry="2"/><rect class="c" x="562" y="82" rx="2" ry="2"/><rect class="c" x="562" y="98" rx="2" ry="2"/><rect class="c" x="578" y="2" rx="2" ry="2"/><rect class="c" x="578" y="18" rx="2" ry="2"/><rect class="c" x="578" y="34" rx="2" ry="2"/><rect class="c" x="578" y="50" rx="2" ry="2"/><rect class="c c7" x="578" y="66" rx="2" ry="2"/><rect class="c" x="578" y="82" rx="2" ry="2"/><rect class="c c8" x="578" y="98" rx="2" ry="2"/><rect class="c c9" x="594" y="2" rx="2" ry="2"/><rect class="c" x="594" y="18" rx="2" ry="2"/><rect class="c" x="594" y="34" rx="2" ry="2"/><rect class="c ca" x="594" y="50" rx="2" ry="2"/><rect class="c" x="594" y="66" rx="2" ry="2"/><rect class="c" x="594" y="82" rx="2" ry="2"/><rect class="c" x="594" y="98" rx="2" ry="2"/><rect class="c" x="610" y="2" rx="2" ry="2"/><rect class="c cb" x="610" y="18" rx="2" ry="2"/><rect class="c" x="610" y="34" rx="2" ry="2"/><rect class="c" x="610" y="50" rx="2" ry="2"/><rect class="c" x="610" y="66" rx="2" ry="2"/><rect class="c cc" x="610" y="82" rx="2" ry="2"/><rect class="c cd" x="610" y="98" rx="2" ry="2"/><rect class="c" x="626" y="2" rx="2" ry="2"/><rect class="c" x="626" y="18" rx="2" ry="2"/><rect class="c" x="626" y="34" rx="2" ry="2"/><rect class="c" x="626" y="50" rx="2" ry="2"/><rect class="c" x="626" y="66" rx="2" ry="2"/><rect class="c" x="626" y="82" rx="2" ry="2"/><rect class="c" x="626" y="98" rx="2" ry="2"/><rect class="c" x="642" y="2" rx="2" ry="2"/><rect class="c" x="642" y="18" rx="2" ry="2"/><rect class="c ce" x="642" y="34" rx="2" ry="2"/><rect class="c cf" x="642" y="50" rx="2" ry="2"/><rect class="c cg" x="642" y="66" rx="2" ry="2"/><rect class="c ch" x="642" y="82" rx="2" ry="2"/><rect class="c ci" x="642" y="98" rx="2" ry="2"/><rect class="c cj" x="658" y="2" rx="2" ry="2"/><rect class="c ck" x="658" y="18" rx="2" ry="2"/><rect class="c cl" x="658" y="34" rx="2" ry="2"/><rect class="c cm" x="658" y="50" rx="2" ry="2"/><rect class="c cn" x="658" y="66" rx="2" ry="2"/><rect class="c co" x="658" y="82" rx="2" ry="2"/><rect class="c cp" x="658" y="98" rx="2" ry="2"/><rect class="c cq" x="674" y="2" rx="2" ry="2"/><rect class="c cr" x="674" y="18" rx="2" ry="2"/><rect class="c cs" x="674" y="34" rx="2" ry="2"/><rect class="c ct" x="674" y="50" rx="2" ry="2"/><rect class="c cu" x="674" y="66" rx="2" ry="2"/><rect class="c cv" x="674" y="82" rx="2" ry="2"/><rect class="c cw" x="674" y="98" rx="2" ry="2"/><rect class="c cx" x="690" y="2" rx="2" ry="2"/><rect class="c cy" x="690" y="18" rx="2" ry="2"/><rect class="c cz" x="690" y="34" rx="2" ry="2"/><rect class="c c10" x="690" y="50" rx="2" ry="2"/><rect class="c c11" x="690" y="66" rx="2" ry="2"/><rect class="c c12" x="690" y="82" rx="2" ry="2"/><rect class="c c13" x="690" y="98" rx="2" ry="2"/><rect class="c c14" x="706" y="2" rx="2" ry="2"/><rect class="c c15" x="706" y="18" rx="2" ry="2"/><rect class="c c16" x="706" y="34" rx="2" ry="2"/><rect class="c c17" x="706" y="50" rx="2" ry="2"/><rect class="c c18" x="706" y="66" rx="2" ry="2"/><rect class="c c19" x="706" y="82" rx="2" ry="2"/><rect class="c c1a" x="706" y="98" rx="2" ry="2"/><rect class="c c1b" x="722" y="2" rx="2" ry="2"/><rect class="c c1c" x="722" y="18" rx="2" ry="2"/><rect class="c c1d" x="722" y="34" rx="2" ry="2"/><rect class="c c1e" x="722" y="50" rx="2" ry="2"/><rect class="c c1f" x="722" y="66" rx="2" ry="2"/><rect class="c c1g" x="722" y="82" rx="2" ry="2"/><rect class="c c1h" x="722" y="98" rx="2" ry="2"/><rect class="c c1i" x="738" y="2" rx="2" ry="2"/><rect class="c c1j" x="738" y="18" rx="2" ry="2"/><rect class="c c1k" x="738" y="34" rx="2" ry="2"/><rect class="c c1l" x="738" y="50" rx="2" ry="2"/><rect class="c c1m" x="738" y="66" rx="2" ry="2"/><rect class="c c1n" x="738" y="82" rx="2" ry="2"/><rect class="c c1o" x="738" y="98" rx="2" ry="2"/><rect class="c c1p" x="754" y="2" rx="2" ry="2"/><rect class="c c1q" x="754" y="18" rx="2" ry="2"/><rect class="c c1r" x="754" y="34" rx="2" ry="2"/><rect class="c c1s" x="754" y="50" rx="2" ry="2"/><rect class="c c1t" x="754" y="66" rx="2" ry="2"/><rect class="c c1u" x="754" y="82" rx="2" ry="2"/><rect class="c c1v" x="754" y="98" rx="2" ry="2"/><rect class="c c1w" x="770" y="2" rx="2" ry="2"/><rect class="c c1x" x="770" y="18" rx="2" ry="2"/><rect class="c c1y" x="770" y="34" rx="2" ry="2"/><rect class="c c1z" x="770" y="50" rx="2" ry="2"/><rect class="c c20" x="770" y="66" rx="2" ry="2"/><rect class="c c21" x="770" y="82" rx="2" ry="2"/><rect class="c c22" x="770" y="98" rx="2" ry="2"/><rect class="c c23" x="786" y="2" rx="2" ry="2"/><rect class="c c24" x="786" y="18" rx="2" ry="2"/><rect class="c c25" x="786" y="34" rx="2" ry="2"/><rect class="c c26" x="786" y="50" rx="2" ry="2"/><rect class="c c27" x="786" y="66" rx="2" ry="2"/><rect class="c c28" x="786" y="82" rx="2" ry="2"/><rect class="c c29" x="786" y="98" rx="2" ry="2"/><rect class="c c2a" x="802" y="2" rx="2" ry="2"/><rect class="c c2b" x="802" y="18" rx="2" ry="2"/><rect class="c c2c" x="802" y="34" rx="2" ry="2"/><rect class="c c2d" x="802" y="50" rx="2" ry="2"/><rect class="c c2e" x="802" y="66" rx="2" ry="2"/><rect class="c c2f" x="802" y="82" rx="2" ry="2"/><rect class="c c2g" x="802" y="98" rx="2" ry="2"/><rect class="c c2h" x="818" y="2" rx="2" ry="2"/><rect class="c c2i" x="818" y="18" rx="2" ry="2"/><rect class="c c2j" x="818" y="34" rx="2" ry="2"/><rect class="c c2k" x="818" y="50" rx="2" ry="2"/><rect class="c c2l" x="818" y="66" rx="2" ry="2"/><rect class="c c2m" x="818" y="82" rx="2" ry="2"/><rect class="c c2n" x="818" y="98" rx="2" ry="2"/><rect class="c c2o" x="834" y="2" rx="2" ry="2"/><rect class="c c2p" x="834" y="18" rx="2" ry="2"/><rect class="c" x="834" y="34" rx="2" ry="2"/><rect class="u u0" height="12" width="78.5" x="0.0" y="144"/><rect class="u u1" height="12" width="467.9" x="77.9" y="144"/><rect class="u u2" height="12" width="303.5" x="545.1" y="144"/><rect class="s s0" x="0.8" y="0.8" width="14.4" height="14.4" rx="4.5" ry="4.5"/><rect class="s s1" x="1.8" y="1.8" width="12.3" height="12.3" rx="4.1" ry="4.1"/><rect class="s s2" x="2.6" y="2.6" width="10.8" height="10.8" rx="3.6" ry="3.6"/><rect class="s s3" x="3.0" y="3.0" width="9.9" height="9.9" rx="3.3" ry="3.3"/></svg>