<svg viewBox="-16 -32 880 192" width="880" height="192" xmlns="http://www.w3.org/2000/svg"><desc>Generated with https://github.com/Platane/snk</desc><style>:root{--cb:#1b1f230a;--cs:purple;--ce:#161b22;--c0:#161b22;--c1:#01311f;--c2:#034525;--c3:#0f6d31;--c4:#00c647}.c{shape-rendering:geometricPrecision;fill:var(--ce);stroke-width:1px;stroke:var(--cb);animation:none 23100ms linear infinite;width:12px;height:12px}@keyframes c0{10.81%{fill:var(--c1)}10.83%,100%{fill:var(--ce)}}.c.c0{fill:var(--c1);animation-name:c0}@keyframes c1{11.25%{fill:var(--c1)}11.27%,100%{fill:var(--ce)}}.c.c1{fill:var(--c1);animation-name:c1}@keyframes c2{7.78%{fill:var(--c1)}7.8%,100%{fill:var(--ce)}}.c.c2{fill:var(--c1);animation-name:c2}@keyframes c3{8.22%{fill:var(--c1)}8.24%,100%{fill:var(--ce)}}.c.c3{fill:var(--c1);animation-name:c3}@keyframes c4{15.14%{fill:var(--c1)}15.16%,100%{fill:var(--ce)}}.c.c4{fill:var(--c1);animation-name:c4}@keyframes c5{71.42%{fill:var(--c3)}71.44%,100%{fill:var(--ce)}}.c.c5{fill:var(--c3);animation-name:c5}@keyframes c6{19.47%{fill:var(--c1)}19.49%,100%{fill:var(--ce)}}.c.c6{fill:var(--c1);animation-name:c6}@keyframes c7{25.1%{fill:var(--c1)}25.12%,100%{fill:var(--ce)}}.c.c7{fill:var(--c1);animation-name:c7}@keyframes c8{25.96%{fill:var(--c1)}25.98%,100%{fill:var(--ce)}}.c.c8{fill:var(--c1);animation-name:c8}@keyframes c9{64.49%{fill:var(--c3)}64.51%,100%{fill:var(--ce)}}.c.c9{fill:var(--c3);animation-name:c9}@keyframes ca{24.23%{fill:var(--c1)}24.25%,100%{fill:var(--ce)}}.c.ca{fill:var(--c1);animation-name:ca}@keyframes cb{54.97%{fill:var(--c1)}54.99%,100%{fill:var(--ce)}}.c.cb{fill:var(--c1);animation-name:cb}@keyframes cc{27.26%{fill:var(--c1)}27.28%,100%{fill:var(--ce)}}.c.cc{fill:var(--c1);animation-name:cc}@keyframes cd{26.83%{fill:var(--c1)}26.85%,100%{fill:var(--ce)}}.c.cd{fill:var(--c1);animation-name:cd}@keyframes ce{62.33%{fill:var(--c3)}62.35%,100%{fill:var(--ce)}}.c.ce{fill:var(--c3);animation-name:ce}@keyframes cf{78.34%{fill:var(--c4)}78.36%,100%{fill:var(--ce)}}.c.cf{fill:var(--c4);animation-name:cf}@keyframes cg{50.21%{fill:var(--c1)}50.23%,100%{fill:var(--ce)}}.c.cg{fill:var(--c1);animation-name:cg}@keyframes ch{28.13%{fill:var(--c1)}28.15%,100%{fill:var(--ce)}}.c.ch{fill:var(--c1);animation-name:ch}@keyframes ci{49.34%{fill:var(--c1)}49.36%,100%{fill:var(--ce)}}.c.ci{fill:var(--c1);animation-name:ci}@keyframes cj{35.92%{fill:var(--c1)}35.94%,100%{fill:var(--ce)}}.c.cj{fill:var(--c1);animation-name:cj}@keyframes ck{36.35%{fill:var(--c1)}36.37%,100%{fill:var(--ce)}}.c.ck{fill:var(--c1);animation-name:ck}@keyframes cl{36.79%{fill:var(--c1)}36.81%,100%{fill:var(--ce)}}.c.cl{fill:var(--c1);animation-name:cl}@keyframes cm{52.8%{fill:var(--c1)}52.82%,100%{fill:var(--ce)}}.c.cm{fill:var(--c1);animation-name:cm}@keyframes cn{50.64%{fill:var(--c1)}50.66%,100%{fill:var(--ce)}}.c.cn{fill:var(--c1);animation-name:cn}@keyframes co{28.56%{fill:var(--c1)}28.58%,100%{fill:var(--ce)}}.c.co{fill:var(--c1);animation-name:co}@keyframes cp{48.91%{fill:var(--c1)}48.93%,100%{fill:var(--ce)}}.c.cp{fill:var(--c1);animation-name:cp}@keyframes cq{35.49%{fill:var(--c1)}35.51%,100%{fill:var(--ce)}}.c.cq{fill:var(--c1);animation-name:cq}@keyframes cr{57.57%{fill:var(--c2)}57.59%,100%{fill:var(--ce)}}.c.cr{fill:var(--c2);animation-name:cr}@keyframes cs{37.22%{fill:var(--c1)}37.24%,100%{fill:var(--ce)}}.c.cs{fill:var(--c1);animation-name:cs}@keyframes ct{52.37%{fill:var(--c1)}52.39%,100%{fill:var(--ce)}}.c.ct{fill:var(--c1);animation-name:ct}@keyframes cu{51.07%{fill:var(--c1)}51.09%,100%{fill:var(--ce)}}.c.cu{fill:var(--c1);animation-name:cu}@keyframes cv{28.99%{fill:var(--c1)}29.01%,100%{fill:var(--ce)}}.c.cv{fill:var(--c1);animation-name:cv}@keyframes cw{48.47%{fill:var(--c1)}48.49%,100%{fill:var(--ce)}}.c.cw{fill:var(--c1);animation-name:cw}@keyframes cx{35.05%{fill:var(--c1)}35.07%,100%{fill:var(--ce)}}.c.cx{fill:var(--c1);animation-name:cx}@keyframes cy{40.68%{fill:var(--c1)}40.7%,100%{fill:var(--ce)}}.c.cy{fill:var(--c1);animation-name:cy}@keyframes cz{37.65%{fill:var(--c1)}37.67%,100%{fill:var(--ce)}}.c.cz{fill:var(--c1);animation-name:cz}@keyframes c10{41.55%{fill:var(--c1)}41.57%,100%{fill:var(--ce)}}.c.c10{fill:var(--c1);animation-name:c10}@keyframes c11{51.51%{fill:var(--c1)}51.53%,100%{fill:var(--ce)}}.c.c11{fill:var(--c1);animation-name:c11}@keyframes c12{29.43%{fill:var(--c1)}29.45%,100%{fill:var(--ce)}}.c.c12{fill:var(--c1);animation-name:c12}@keyframes c13{48.04%{fill:var(--c1)}48.06%,100%{fill:var(--ce)}}.c.c13{fill:var(--c1);animation-name:c13}@keyframes c14{34.62%{fill:var(--c1)}34.64%,100%{fill:var(--ce)}}.c.c14{fill:var(--c1);animation-name:c14}@keyframes c15{40.25%{fill:var(--c1)}40.27%,100%{fill:var(--ce)}}.c.c15{fill:var(--c1);animation-name:c15}@keyframes c16{38.09%{fill:var(--c1)}38.11%,100%{fill:var(--ce)}}.c.c16{fill:var(--c1);animation-name:c16}@keyframes c17{41.98%{fill:var(--c1)}42%,100%{fill:var(--ce)}}.c.c17{fill:var(--c1);animation-name:c17}@keyframes c18{59.73%{fill:var(--c2)}59.75%,100%{fill:var(--ce)}}.c.c18{fill:var(--c2);animation-name:c18}@keyframes c19{29.86%{fill:var(--c1)}29.88%,100%{fill:var(--ce)}}.c.c19{fill:var(--c1);animation-name:c19}@keyframes c1a{47.61%{fill:var(--c1)}47.63%,100%{fill:var(--ce)}}.c.c1a{fill:var(--c1);animation-name:c1a}@keyframes c1b{34.19%{fill:var(--c1)}34.21%,100%{fill:var(--ce)}}.c.c1b{fill:var(--c1);animation-name:c1b}@keyframes c1c{39.82%{fill:var(--c1)}39.84%,100%{fill:var(--ce)}}.c.c1c{fill:var(--c1);animation-name:c1c}@keyframes c1d{38.52%{fill:var(--c1)}38.54%,100%{fill:var(--ce)}}.c.c1d{fill:var(--c1);animation-name:c1d}@keyframes c1e{42.41%{fill:var(--c1)}42.43%,100%{fill:var(--ce)}}.c.c1e{fill:var(--c1);animation-name:c1e}@keyframes c1f{43.71%{fill:var(--c1)}43.73%,100%{fill:var(--ce)}}.c.c1f{fill:var(--c1);animation-name:c1f}@keyframes c1g{30.29%{fill:var(--c1)}30.31%,100%{fill:var(--ce)}}.c.c1g{fill:var(--c1);animation-name:c1g}@keyframes c1h{44.58%{fill:var(--c1)}44.6%,100%{fill:var(--ce)}}.c.c1h{fill:var(--c1);animation-name:c1h}@keyframes c1i{33.76%{fill:var(--c1)}33.78%,100%{fill:var(--ce)}}.c.c1i{fill:var(--c1);animation-name:c1i}@keyframes c1j{39.38%{fill:var(--c1)}39.4%,100%{fill:var(--ce)}}.c.c1j{fill:var(--c1);animation-name:c1j}@keyframes c1k{38.95%{fill:var(--c1)}38.97%,100%{fill:var(--ce)}}.c.c1k{fill:var(--c1);animation-name:c1k}@keyframes c1l{42.85%{fill:var(--c1)}42.87%,100%{fill:var(--ce)}}.c.c1l{fill:var(--c1);animation-name:c1l}@keyframes c1m{43.28%{fill:var(--c1)}43.3%,100%{fill:var(--ce)}}.c.c1m{fill:var(--c1);animation-name:c1m}@keyframes c1n{30.73%{fill:var(--c1)}30.75%,100%{fill:var(--ce)}}.c.c1n{fill:var(--c1);animation-name:c1n}@keyframes c1o{45.01%{fill:var(--c1)}45.03%,100%{fill:var(--ce)}}.c.c1o{fill:var(--c1);animation-name:c1o}@keyframes c1p{33.32%{fill:var(--c1)}33.34%,100%{fill:var(--ce)}}.c.c1p{fill:var(--c1);animation-name:c1p}@keyframes c1q{32.89%{fill:var(--c1)}32.91%,100%{fill:var(--ce)}}.c.c1q{fill:var(--c1);animation-name:c1q}@keyframes c1r{32.46%{fill:var(--c1)}32.48%,100%{fill:var(--ce)}}.c.c1r{fill:var(--c1);animation-name:c1r}@keyframes c1s{32.02%{fill:var(--c1)}32.04%,100%{fill:var(--ce)}}.c.c1s{fill:var(--c1);animation-name:c1s}@keyframes c1t{31.59%{fill:var(--c1)}31.61%,100%{fill:var(--ce)}}.c.c1t{fill:var(--c1);animation-name:c1t}@keyframes c1u{31.16%{fill:var(--c1)}31.18%,100%{fill:var(--ce)}}.c.c1u{fill:var(--c1);animation-name:c1u}@keyframes c1v{45.44%{fill:var(--c1)}45.46%,100%{fill:var(--ce)}}.c.c1v{fill:var(--c1);animation-name:c1v}.u{transform-origin:0 0;transform:scale(0,1);animation:none linear 23100ms infinite}@keyframes u0{7.78%{transform:scale(0.000,1)}7.8%,8.22%{transform:scale(0.016,1)}8.24%,10.81%{transform:scale(0.032,1)}10.83%,11.25%{transform:scale(0.048,1)}11.27%,15.14%{transform:scale(0.065,1)}15.16%,19.47%{transform:scale(0.081,1)}19.49%,24.23%{transform:scale(0.097,1)}24.25%,25.1%{transform:scale(0.113,1)}25.12%,25.96%{transform:scale(0.129,1)}25.98%,26.83%{transform:scale(0.145,1)}26.85%,27.26%{transform:scale(0.161,1)}27.28%,28.13%{transform:scale(0.177,1)}28.15%,28.56%{transform:scale(0.194,1)}28.58%,28.99%{transform:scale(0.210,1)}29.01%,29.43%{transform:scale(0.226,1)}29.45%,29.86%{transform:scale(0.242,1)}29.88%,30.29%{transform:scale(0.258,1)}30.31%,30.73%{transform:scale(0.274,1)}30.75%,31.16%{transform:scale(0.290,1)}31.18%,31.59%{transform:scale(0.306,1)}31.61%,32.02%{transform:scale(0.323,1)}32.04%,32.46%{transform:scale(0.339,1)}32.48%,32.89%{transform:scale(0.355,1)}32.91%,33.32%{transform:scale(0.371,1)}33.34%,33.76%{transform:scale(0.387,1)}33.78%,34.19%{transform:scale(0.403,1)}34.21%,34.62%{transform:scale(0.419,1)}34.64%,35.05%{transform:scale(0.435,1)}35.07%,35.49%{transform:scale(0.452,1)}35.51%,35.92%{transform:scale(0.468,1)}35.94%,36.35%{transform:scale(0.484,1)}36.37%,36.79%{transform:scale(0.500,1)}36.81%,37.22%{transform:scale(0.516,1)}37.24%,37.65%{transform:scale(0.532,1)}37.67%,38.09%{transform:scale(0.548,1)}38.11%,38.52%{transform:scale(0.565,1)}38.54%,38.95%{transform:scale(0.581,1)}38.97%,39.38%{transform:scale(0.597,1)}39.4%,39.82%{transform:scale(0.613,1)}39.84%,40.25%{transform:scale(0.629,1)}40.27%,40.68%{transform:scale(0.645,1)}40.7%,41.55%{transform:scale(0.661,1)}41.57%,41.98%{transform:scale(0.677,1)}42%,42.41%{transform:scale(0.694,1)}42.43%,42.85%{transform:scale(0.710,1)}42.87%,43.28%{transform:scale(0.726,1)}43.3%,43.71%{transform:scale(0.742,1)}43.73%,44.58%{transform:scale(0.758,1)}44.6%,45.01%{transform:scale(0.774,1)}45.03%,45.44%{transform:scale(0.790,1)}45.46%,47.61%{transform:scale(0.806,1)}47.63%,48.04%{transform:scale(0.823,1)}48.06%,48.47%{transform:scale(0.839,1)}48.49%,48.91%{transform:scale(0.855,1)}48.93%,49.34%{transform:scale(0.871,1)}49.36%,50.21%{transform:scale(0.887,1)}50.23%,50.64%{transform:scale(0.903,1)}50.66%,51.07%{transform:scale(0.919,1)}51.09%,51.51%{transform:scale(0.935,1)}51.53%,52.37%{transform:scale(0.952,1)}52.39%,52.8%{transform:scale(0.968,1)}52.82%,54.97%{transform:scale(0.984,1)}54.99%,100%{transform:scale(1.000,1)}}.u.u0{fill:var(--c1);animation-name:u0;transform-origin:0.0px 0}@keyframes u1{57.57%{transform:scale(0.000,1)}57.59%,59.73%{transform:scale(0.500,1)}59.75%,100%{transform:scale(1.000,1)}}.u.u1{fill:var(--c2);animation-name:u1;transform-origin:773.2px 0}@keyframes u2{62.33%{transform:scale(0.000,1)}62.35%,64.49%{transform:scale(0.333,1)}64.51%,71.42%{transform:scale(0.667,1)}71.44%,100%{transform:scale(1.000,1)}}.u.u2{fill:var(--c3);animation-name:u2;transform-origin:798.1px 0}@keyframes u3{78.34%{transform:scale(0.000,1)}78.36%,100%{transform:scale(1.000,1)}}.u.u3{fill:var(--c4);animation-name:u3;transform-origin:835.5px 0}.s{shape-rendering:geometricPrecision;fill:var(--cs);animation:none linear 23100ms infinite}@keyframes s0{0%,99.57%{transform:translate(0px,-16px)}0.43%{transform:translate(0px,0px)}7.79%{transform:translate(272px,0px)}8.23%{transform:translate(272px,16px)}9.09%{transform:translate(240px,16px)}11.26%{transform:translate(240px,96px)}14.29%{transform:translate(352px,96px)}15.15%{transform:translate(352px,64px)}18.18%{transform:translate(464px,64px)}18.61%{transform:translate(464px,48px)}24.24%{transform:translate(672px,48px)}24.68%{transform:translate(672px,64px)}25.11%{transform:translate(656px,64px)}25.97%{transform:translate(656px,96px)}26.84%{transform:translate(688px,96px)}27.27%{transform:translate(688px,80px)}31.17%,45.89%{transform:translate(832px,80px)}33.33%{transform:translate(832px,0px)}35.93%{transform:translate(736px,0px)}36.8%{transform:translate(736px,32px)}38.96%{transform:translate(816px,32px)}39.39%{transform:translate(816px,16px)}40.69%{transform:translate(768px,16px)}41.56%,51.95%{transform:translate(768px,48px)}42.86%{transform:translate(816px,48px)}43.29%{transform:translate(816px,64px)}43.72%{transform:translate(800px,64px)}44.59%{transform:translate(800px,96px)}45.45%{transform:translate(832px,96px)}47.19%{transform:translate(784px,80px)}47.62%{transform:translate(784px,96px)}49.35%{transform:translate(720px,96px)}50.22%,77.92%{transform:translate(720px,64px)}51.52%,60.17%{transform:translate(768px,64px)}52.81%{transform:translate(736px,48px)}53.68%{transform:translate(736px,16px)}54.98%{transform:translate(688px,16px)}55.41%{transform:translate(688px,0px)}57.14%{transform:translate(752px,0px)}57.58%{transform:translate(752px,16px)}58.44%{transform:translate(784px,16px)}59.74%{transform:translate(784px,64px)}61.04%{transform:translate(768px,32px)}62.34%{transform:translate(720px,32px)}63.2%{transform:translate(720px,0px)}69.7%{transform:translate(480px,0px)}71.43%{transform:translate(480px,64px)}78.35%{transform:translate(720px,48px)}96.1%{transform:translate(64px,48px)}96.97%{transform:translate(64px,16px)}97.4%{transform:translate(48px,16px)}98.27%{transform:translate(48px,-16px)}}.s.s0{transform:translate(0px,-16px);animation-name:s0}@keyframes s1{0%,99.57%{transform:translate(16px,-16px)}0.43%{transform:translate(0px,-16px)}0.87%{transform:translate(0px,0px)}8.23%{transform:translate(272px,0px)}8.66%{transform:translate(272px,16px)}9.52%{transform:translate(240px,16px)}11.69%{transform:translate(240px,96px)}14.72%{transform:translate(352px,96px)}15.58%{transform:translate(352px,64px)}18.61%{transform:translate(464px,64px)}19.05%{transform:translate(464px,48px)}24.68%{transform:translate(672px,48px)}25.11%{transform:translate(672px,64px)}25.54%{transform:translate(656px,64px)}26.41%{transform:translate(656px,96px)}27.27%{transform:translate(688px,96px)}27.71%{transform:translate(688px,80px)}31.6%,46.32%{transform:translate(832px,80px)}33.77%{transform:translate(832px,0px)}36.36%{transform:translate(736px,0px)}37.23%{transform:translate(736px,32px)}39.39%{transform:translate(816px,32px)}39.83%{transform:translate(816px,16px)}41.13%{transform:translate(768px,16px)}41.99%,52.38%{transform:translate(768px,48px)}43.29%{transform:translate(816px,48px)}43.72%{transform:translate(816px,64px)}44.16%{transform:translate(800px,64px)}45.02%{transform:translate(800px,96px)}45.89%{transform:translate(832px,96px)}47.62%{transform:translate(784px,80px)}48.05%{transform:translate(784px,96px)}49.78%{transform:translate(720px,96px)}50.65%,78.35%{transform:translate(720px,64px)}51.95%,60.61%{transform:translate(768px,64px)}53.25%{transform:translate(736px,48px)}54.11%{transform:translate(736px,16px)}55.41%{transform:translate(688px,16px)}55.84%{transform:translate(688px,0px)}57.58%{transform:translate(752px,0px)}58.01%{transform:translate(752px,16px)}58.87%{transform:translate(784px,16px)}60.17%{transform:translate(784px,64px)}61.47%{transform:translate(768px,32px)}62.77%{transform:translate(720px,32px)}63.64%{transform:translate(720px,0px)}70.13%{transform:translate(480px,0px)}71.86%{transform:translate(480px,64px)}78.79%{transform:translate(720px,48px)}96.54%{transform:translate(64px,48px)}97.4%{transform:translate(64px,16px)}97.84%{transform:translate(48px,16px)}98.7%{transform:translate(48px,-16px)}}.s.s1{transform:translate(16px,-16px);animation-name:s1}@keyframes s2{0%,99.57%{transform:translate(32px,-16px)}0.87%{transform:translate(0px,-16px)}1.3%{transform:translate(0px,0px)}8.66%{transform:translate(272px,0px)}9.09%{transform:translate(272px,16px)}9.96%{transform:translate(240px,16px)}12.12%{transform:translate(240px,96px)}15.15%{transform:translate(352px,96px)}16.02%{transform:translate(352px,64px)}19.05%{transform:translate(464px,64px)}19.48%{transform:translate(464px,48px)}25.11%{transform:translate(672px,48px)}25.54%{transform:translate(672px,64px)}25.97%{transform:translate(656px,64px)}26.84%{transform:translate(656px,96px)}27.71%{transform:translate(688px,96px)}28.14%{transform:translate(688px,80px)}32.03%,46.75%{transform:translate(832px,80px)}34.2%{transform:translate(832px,0px)}36.8%{transform:translate(736px,0px)}37.66%{transform:translate(736px,32px)}39.83%{transform:translate(816px,32px)}40.26%{transform:translate(816px,16px)}41.56%{transform:translate(768px,16px)}42.42%,52.81%{transform:translate(768px,48px)}43.72%{transform:translate(816px,48px)}44.16%{transform:translate(816px,64px)}44.59%{transform:translate(800px,64px)}45.45%{transform:translate(800px,96px)}46.32%{transform:translate(832px,96px)}48.05%{transform:translate(784px,80px)}48.48%{transform:translate(784px,96px)}50.22%{transform:translate(720px,96px)}51.08%,78.79%{transform:translate(720px,64px)}52.38%,61.04%{transform:translate(768px,64px)}53.68%{transform:translate(736px,48px)}54.55%{transform:translate(736px,16px)}55.84%{transform:translate(688px,16px)}56.28%{transform:translate(688px,0px)}58.01%{transform:translate(752px,0px)}58.44%{transform:translate(752px,16px)}59.31%{transform:translate(784px,16px)}60.61%{transform:translate(784px,64px)}61.9%{transform:translate(768px,32px)}63.2%{transform:translate(720px,32px)}64.07%{transform:translate(720px,0px)}70.56%{transform:translate(480px,0px)}72.29%{transform:translate(480px,64px)}79.22%{transform:translate(720px,48px)}96.97%{transform:translate(64px,48px)}97.84%{transform:translate(64px,16px)}98.27%{transform:translate(48px,16px)}99.13%{transform:translate(48px,-16px)}}.s.s2{transform:translate(32px,-16px);animation-name:s2}@keyframes s3{0%,99.57%{transform:translate(48px,-16px)}1.3%{transform:translate(0px,-16px)}1.73%{transform:translate(0px,0px)}9.09%{transform:translate(272px,0px)}9.52%{transform:translate(272px,16px)}10.39%{transform:translate(240px,16px)}12.55%{transform:translate(240px,96px)}15.58%{transform:translate(352px,96px)}16.45%{transform:translate(352px,64px)}19.48%{transform:translate(464px,64px)}19.91%{transform:translate(464px,48px)}25.54%{transform:translate(672px,48px)}25.97%{transform:translate(672px,64px)}26.41%{transform:translate(656px,64px)}27.27%{transform:translate(656px,96px)}28.14%{transform:translate(688px,96px)}28.57%{transform:translate(688px,80px)}32.47%,47.19%{transform:translate(832px,80px)}34.63%{transform:translate(832px,0px)}37.23%{transform:translate(736px,0px)}38.1%{transform:translate(736px,32px)}40.26%{transform:translate(816px,32px)}40.69%{transform:translate(816px,16px)}41.99%{transform:translate(768px,16px)}42.86%,53.25%{transform:translate(768px,48px)}44.16%{transform:translate(816px,48px)}44.59%{transform:translate(816px,64px)}45.02%{transform:translate(800px,64px)}45.89%{transform:translate(800px,96px)}46.75%{transform:translate(832px,96px)}48.48%{transform:translate(784px,80px)}48.92%{transform:translate(784px,96px)}50.65%{transform:translate(720px,96px)}51.52%,79.22%{transform:translate(720px,64px)}52.81%,61.47%{transform:translate(768px,64px)}54.11%{transform:translate(736px,48px)}54.98%{transform:translate(736px,16px)}56.28%{transform:translate(688px,16px)}56.71%{transform:translate(688px,0px)}58.44%{transform:translate(752px,0px)}58.87%{transform:translate(752px,16px)}59.74%{transform:translate(784px,16px)}61.04%{transform:translate(784px,64px)}62.34%{transform:translate(768px,32px)}63.64%{transform:translate(720px,32px)}64.5%{transform:translate(720px,0px)}71%{transform:translate(480px,0px)}72.73%{transform:translate(480px,64px)}79.65%{transform:translate(720px,48px)}97.4%{transform:translate(64px,48px)}98.27%{transform:translate(64px,16px)}98.7%{transform:translate(48px,16px)}}.s.s3{transform:translate(48px,-16px);animation-name:s3}</style><rect class="c" x="2" y="2" rx="2" ry="2"/><rect class="c" x="2" y="18" rx="2" ry="2"/><rect class="c" x="2" y="34" rx="2" ry="2"/><rect class="c" x="2" y="50" rx="2" ry="2"/><rect class="c" x="2" y="66" rx="2" ry="2"/><rect class="c" x="2" y="82" rx="2" ry="2"/><rect class="c" x="2" y="98" rx="2" ry="2"/><rect class="c" x="18" y="2" rx="2" ry="2"/><rect class="c" x="18" y="18" rx="2" ry="2"/><rect class="c" x="18" y="34" rx="2" ry="2"/><rect class="c" x="18" y="50" rx="2" ry="2"/><rect class="c" x="18" y="66" rx="2" ry="2"/><rect class="c" x="18" y="82" rx="2" ry="2"/><rect class="c" x="18" y="98" rx="2" ry="2"/><rect class="c" x="34" y="2" rx="2" ry="2"/><rect class="c" x="34" y="18" rx="2" ry="2"/><rect class="c" x="34" y="34" rx="2" ry="2"/><rect class="c" x="34" y="50" rx="2" ry="2"/><rect class="c" x="34" y="66" rx="2" ry="2"/><rect class="c" x="34" y="82" rx="2" ry="2"/><rect class="c" x="34" y="98" rx="2" ry="2"/><rect class="c" x="50" y="2" rx="2" ry="2"/><rect class="c" x="50" y="18" rx="2" ry="2"/><rect class="c" x="50" y="34" rx="2" ry="2"/><rect class="c" x="50" y="50" rx="2" ry="2"/><rect class="c" x="50" y="66" rx="2" ry="2"/><rect class="c" x="50" y="82" rx="2" ry="2"/><rect class="c" x="50" y="98" rx="2" ry="2"/><rect class="c" x="66" y="2" rx="2" ry="2"/><rect class="c" x="66" y="18" rx="2" ry="2"/><rect class="c" x="66" y="34" rx="2" ry="2"/><rect class="c" x="66" y="50" rx="2" ry="2"/><rect class="c" x="66" y="66" rx="2" ry="2"/><rect class="c" x="66" y="82" rx="2" ry="2"/><rect class="c" x="66" y="98" rx="2" ry="2"/><rect class="c" x="82" y="2" rx="2" ry="2"/><rect class="c" x="82" y="18" rx="2" ry="2"/><rect class="c" x="82" y="34" rx="2" ry="2"/><rect class="c" x="82" y="50" rx="2" ry="2"/><rect class="c" x="82" y="66" rx="2" ry="2"/><rect class="c" x="82" y="82" rx="2" ry="2"/><rect class="c" x="82" y="98" rx="2" ry="2"/><rect class="c" x="98" y="2" rx="2" ry="2"/><rect class="c" x="98" y="18" rx="2" ry="2"/><rect class="c" x="98" y="34" rx="2" ry="2"/><rect class="c" x="98" y="50" rx="2" ry="2"/><rect class="c" x="98" y="66" rx="2" ry="2"/><rect class="c" x="98" y="82" rx="2" ry="2"/><rect class="c" x="98" y="98" rx="2" ry="2"/><rect class="c" x="114" y="2" rx="2" ry="2"/><rect class="c" x="114" y="18" rx="2" ry="2"/><rect class="c" x="114" y="34" rx="2" ry="2"/><rect class="c" x="114" y="50" rx="2" ry="2"/><rect class="c" x="114" y="66" rx="2" ry="2"/><rect class="c" x="114" y="82" rx="2" ry="2"/><rect class="c" x="114" y="98" rx="2" ry="2"/><rect class="c" x="130" y="2" rx="2" ry="2"/><rect class="c" x="130" y="18" rx="2" ry="2"/><rect class="c" x="130" y="34" rx="2" ry="2"/><rect class="c" x="130" y="50" rx="2" ry="2"/><rect class="c" x="130" y="66" rx="2" ry="2"/><rect class="c" x="130" y="82" rx="2" ry="2"/><rect class="c" x="130" y="98" rx="2" ry="2"/><rect class="c" x="146" y="2" rx="2" ry="2"/><rect class="c" x="146" y="18" rx="2" ry="2"/><rect class="c" x="146" y="34" rx="2" ry="2"/><rect class="c" x="146" y="50" rx="2" ry="2"/><rect class="c" x="146" y="66" rx="2" ry="2"/><rect class="c" x="146" y="82" rx="2" ry="2"/><rect class="c" x="146" y="98" rx="2" ry="2"/><rect class="c" x="162" y="2" rx="2" ry="2"/><rect class="c" x="162" y="18" rx="2" ry="2"/><rect class="c" x="162" y="34" rx="2" ry="2"/><rect class="c" x="162" y="50" rx="2" ry="2"/><rect class="c" x="162" y="66" rx="2" ry="2"/><rect class="c" x="162" y="82" rx="2" ry="2"/><rect class="c" x="162" y="98" rx="2" ry="2"/><rect class="c" x="178" y="2" rx="2" ry="2"/><rect class="c" x="178" y="18" rx="2" ry="2"/><rect class="c" x="178" y="34" rx="2" ry="2"/><rect class="c" x="178" y="50" rx="2" ry="2"/><rect class="c" x="178" y="66" rx="2" ry="2"/><rect class="c" x="178" y="82" rx="2" ry="2"/><rect class="c" x="178" y="98" rx="2" ry="2"/><rect class="c" x="194" y="2" rx="2" ry="2"/><rect class="c" x="194" y="18" rx="2" ry="2"/><rect class="c" x="194" y="34" rx="2" ry="2"/><rect class="c" x="194" y="50" rx="2" ry="2"/><rect class="c" x="194" y="66" rx="2" ry="2"/><rect class="c" x="194" y="82" rx="2" ry="2"/><rect class="c" x="194" y="98" rx="2" ry="2"/><rect class="c" x="210" y="2" rx="2" ry="2"/><rect class="c" x="210" y="18" rx="2" ry="2"/><rect class="c" x="210" y="34" rx="2" ry="2"/><rect class="c" x="210" y="50" rx="2" ry="2"/><rect class="c" x="210" y="66" rx="2" ry="2"/><rect class="c" x="210" y="82" rx="2" ry="2"/><rect class="c" x="210" y="98" rx="2" ry="2"/><rect class="c" x="226" y="2" rx="2" ry="2"/><rect class="c" x="226" y="18" rx="2" ry="2"/><rect class="c" x="226" y="34" rx="2" ry="2"/><rect class="c" x="226" y="50" rx="2" ry="2"/><rect class="c" x="226" y="66" rx="2" ry="2"/><rect class="c" x="226" y="82" rx="2" ry="2"/><rect class="c" x="226" y="98" rx="2" ry="2"/><rect class="c" x="242" y="2" rx="2" ry="2"/><rect class="c" x="242" y="18" rx="2" ry="2"/><rect class="c" x="242" y="34" rx="2" ry="2"/><rect class="c" x="242" y="50" rx="2" ry="2"/><rect class="c" x="242" y="66" rx="2" ry="2"/><rect class="c c0" x="242" y="82" rx="2" ry="2"/><rect class="c c1" x="242" y="98" rx="2" ry="2"/><rect class="c" x="258" y="2" rx="2" ry="2"/><rect class="c" x="258" y="18" rx="2" ry="2"/><rect class="c" x="258" y="34" rx="2" ry="2"/><rect class="c" x="258" y="50" rx="2" ry="2"/><rect class="c" x="258" y="66" rx="2" ry="2"/><rect class="c" x="258" y="82" rx="2" ry="2"/><rect class="c" x="258" y="98" rx="2" ry="2"/><rect class="c c2" x="274" y="2" rx="2" ry="2"/><rect class="c c3" x="274" y="18" rx="2" ry="2"/><rect class="c" x="274" y="34" rx="2" ry="2"/><rect class="c" x="274" y="50" rx="2" ry="2"/><rect class="c" x="274" y="66" rx="2" ry="2"/><rect class="c" x="274" y="82" rx="2" ry="2"/><rect class="c" x="274" y="98" rx="2" ry="2"/><rect class="c" x="290" y="2" rx="2" ry="2"/><rect class="c" x="290" y="18" rx="2" ry="2"/><rect class="c" x="290" y="34" rx="2" ry="2"/><rect class="c" x="290" y="50" rx="2" ry="2"/><rect class="c" x="290" y="66" rx="2" ry="2"/><rect class="c" x="290" y="82" rx="2" ry="2"/><rect class="c" x="290" y="98" rx="2" ry="2"/><rect class="c" x="306" y="2" rx="2" ry="2"/><rect class="c" x="306" y="18" rx="2" ry="2"/><rect class="c" x="306" y="34" rx="2" ry="2"/><rect class="c" x="306" y="50" rx="2" ry="2"/><rect class="c" x="306" y="66" rx="2" ry="2"/><rect class="c" x="306" y="82" rx="2" ry="2"/><rect class="c" x="306" y="98" rx="2" ry="2"/><rect class="c" x="322" y="2" rx="2" ry="2"/><rect class="c" x="322" y="18" rx="2" ry="2"/><rect class="c" x="322" y="34" rx="2" ry="2"/><rect class="c" x="322" y="50" rx="2" ry="2"/><rect class="c" x="322" y="66" rx="2" ry="2"/><rect class="c" x="322" y="82" rx="2" ry="2"/><rect class="c" x="322" y="98" rx="2" ry="2"/><rect class="c" x="338" y="2" rx="2" ry="2"/><rect class="c" x="338" y="18" rx="2" ry="2"/><rect class="c" x="338" y="34" rx="2" ry="2"/><rect class="c" x="338" y="50" rx="2" ry="2"/><rect class="c" x="338" y="66" rx="2" ry="2"/><rect class="c" x="338" y="82" rx="2" ry="2"/><rect class="c" x="338" y="98" rx="2" ry="2"/><rect class="c" x="354" y="2" rx="2" ry="2"/><rect class="c" x="354" y="18" rx="2" ry="2"/><rect class="c" x="354" y="34" rx="2" ry="2"/><rect class="c" x="354" y="50" rx="2" ry="2"/><rect class="c c4" x="354" y="66" rx="2" ry="2"/><rect class="c" x="354" y="82" rx="2" ry="2"/><rect class="c" x="354" y="98" rx="2" ry="2"/><rect class="c" x="370" y="2" rx="2" ry="2"/><rect class="c" x="370" y="18" rx="2" ry="2"/><rect class="c" x="370" y="34" rx="2" ry="2"/><rect class="c" x="370" y="50" rx="2" ry="2"/><rect class="c" x="370" y="66" rx="2" ry="2"/><rect class="c" x="370" y="82" rx="2" ry="2"/><rect class="c" x="370" y="98" rx="2" ry="2"/><rect class="c" x="386" y="2" rx="2" ry="2"/><rect class="c" x="386" y="18" rx="2" ry="2"/><rect class="c" x="386" y="34" rx="2" ry="2"/><rect class="c" x="386" y="50" rx="2" ry="2"/><rect class="c" x="386" y="66" rx="2" ry="2"/><rect class="c" x="386" y="82" rx="2" ry="2"/><rect class="c" x="386" y="98" rx="2" ry="2"/><rect class="c" x="402" y="2" rx="2" ry="2"/><rect class="c" x="402" y="18" rx="2" ry="2"/><rect class="c" x="402" y="34" rx="2" ry="2"/><rect class="c" x="402" y="50" rx="2" ry="2"/><rect class="c" x="402" y="66" rx="2" ry="2"/><rect class="c" x="402" y="82" rx="2" ry="2"/><rect class="c" x="402" y="98" rx="2" ry="2"/><rect class="c" x="418" y="2" rx="2" ry="2"/><rect class="c" x="418" y="18" rx="2" ry="2"/><rect class="c" x="418" y="34" rx="2" ry="2"/><rect class="c" x="418" y="50" rx="2" ry="2"/><rect class="c" x="418" y="66" rx="2" ry="2"/><rect class="c" x="418" y="82" rx="2" ry="2"/><rect class="c" x="418" y="98" rx="2" ry="2"/><rect class="c" x="434" y="2" rx="2" ry="2"/><rect class="c" x="434" y="18" rx="2" ry="2"/><rect class="c" x="434" y="34" rx="2" ry="2"/><rect class="c" x="434" y="50" rx="2" ry="2"/><rect class="c" x="434" y="66" rx="2" ry="2"/><rect class="c" x="434" y="82" rx="2" ry="2"/><rect class="c" x="434" y="98" rx="2" ry="2"/><rect class="c" x="450" y="2" rx="2" ry="2"/><rect class="c" x="450" y="18" rx="2" ry="2"/><rect class="c" x="450" y="34" rx="2" ry="2"/><rect class="c" x="450" y="50" rx="2" ry="2"/><rect class="c" x="450" y="66" rx="2" ry="2"/><rect class="c" x="450" y="82" rx="2" ry="2"/><rect class="c" x="450" y="98" rx="2" ry="2"/><rect class="c" x="466" y="2" rx="2" ry="2"/><rect class="c" x="466" y="18" rx="2" ry="2"/><rect class="c" x="466" y="34" rx="2" ry="2"/><rect class="c" x="466" y="50" rx="2" ry="2"/><rect class="c" x="466" y="66" rx="2" ry="2"/><rect class="c" x="466" y="82" rx="2" ry="2"/><rect class="c" x="466" y="98" rx="2" ry="2"/><rect class="c" x="482" y="2" rx="2" ry="2"/><rect class="c" x="482" y="18" rx="2" ry="2"/><rect class="c" x="482" y="34" rx="2" ry="2"/><rect class="c" x="482" y="50" rx="2" ry="2"/><rect class="c c5" x="482" y="66" rx="2" ry="2"/><rect class="c" x="482" y="82" rx="2" ry="2"/><rect class="c" x="482" y="98" rx="2" ry="2"/><rect class="c" x="498" y="2" rx="2" ry="2"/><rect class="c" x="498" y="18" rx="2" ry="2"/><rect class="c" x="498" y="34" rx="2" ry="2"/><rect class="c c6" x="498" y="50" rx="2" ry="2"/><rect class="c" x="498" y="66" rx="2" ry="2"/><rect class="c" x="498" y="82" rx="2" ry="2"/><rect class="c" x="498" y="98" rx="2" ry="2"/><rect class="c" x="514" y="2" rx="2" ry="2"/><rect class="c" x="514" y="18" rx="2" ry="2"/><rect class="c" x="514" y="34" rx="2" ry="2"/><rect class="c" x="514" y="50" rx="2" ry="2"/><rect class="c" x="514" y="66" rx="2" ry="2"/><rect class="c" x="514" y="82" rx="2" ry="2"/><rect class="c" x="514" y="98" rx="2" ry="2"/><rect class="c" x="530" y="2" rx="2" ry="2"/><rect class="c" x="530" y="18" rx="2" ry="2"/><rect class="c" x="530" y="34" rx="2" ry="2"/><rect class="c" x="530" y="50" rx="2" ry="2"/><rect class="c" x="530" y="66" rx="2" ry="2"/><rect class="c" x="530" y="82" rx="2" ry="2"/><rect class="c" x="530" y="98" rx="2" ry="2"/><rect class="c" x="546" y="2" rx="2" ry="2"/><rect class="c" x="546" y="18" rx="2" ry="2"/><rect class="c" x="546" y="34" rx="2" ry="2"/><rect class="c" x="546" y="50" rx="2" ry="2"/><rect class="c" x="546" y="66" rx="2" ry="2"/><rect class="c" x="546" y="82" rx="2" ry="2"/><rect class="c" x="546" y="98" rx="2" ry="2"/><rect class="c" x="562" y="2" rx="2" ry="2"/><rect class="c" x="562" y="18" rx="2" ry="2"/><rect class="c" x="562" y="34" rx="2" ry="2"/><rect class="c" x="562" y="50" rx="2" ry="2"/><rect class="c" x="562" y="66" rx="2" ry="2"/><rect class="c" x="562" y="82" rx="2" ry="2"/><rect class="c" x="562" y="98" rx="2" ry="2"/><rect class="c" x="578" y="2" rx="2" ry="2"/><rect class="c" x="578" y="18" rx="2" ry="2"/><rect class="c" x="578" y="34" rx="2" ry="2"/><rect class="c" x="578" y="50" rx="2" ry="2"/><rect class="c" x="578" y="66" rx="2" ry="2"/><rect class="c" x="578" y="82" rx="2" ry="2"/><rect class="c" x="578" y="98" rx="2" ry="2"/><rect class="c" x="594" y="2" rx="2" ry="2"/><rect class="c" x="594" y="18" rx="2" ry="2"/><rect class="c" x="594" y="34" rx="2" ry="2"/><rect class="c" x="594" y="50" rx="2" ry="2"/><rect class="c" x="594" y="66" rx="2" ry="2"/><rect class="c" x="594" y="82" rx="2" ry="2"/><rect class="c" x="594" y="98" rx="2" ry="2"/><rect class="c" x="610" y="2" rx="2" ry="2"/><rect class="c" x="610" y="18" rx="2" ry="2"/><rect class="c" x="610" y="34" rx="2" ry="2"/><rect class="c" x="610" y="50" rx="2" ry="2"/><rect class="c" x="610" y="66" rx="2" ry="2"/><rect class="c" x="610" y="82" rx="2" ry="2"/><rect class="c" x="610" y="98" rx="2" ry="2"/><rect class="c" x="626" y="2" rx="2" ry="2"/><rect class="c" x="626" y="18" rx="2" ry="2"/><rect class="c" x="626" y="34" rx="2" ry="2"/><rect class="c" x="626" y="50" rx="2" ry="2"/><rect class="c" x="626" y="66" rx="2" ry="2"/><rect class="c" x="626" y="82" rx="2" ry="2"/><rect class="c" x="626" y="98" rx="2" ry="2"/><rect class="c" x="642" y="2" rx="2" ry="2"/><rect class="c" x="642" y="18" rx="2" ry="2"/><rect class="c" x="642" y="34" rx="2" ry="2"/><rect class="c" x="642" y="50" rx="2" ry="2"/><rect class="c" x="642" y="66" rx="2" ry="2"/><rect class="c" x="642" y="82" rx="2" ry="2"/><rect class="c" x="642" y="98" rx="2" ry="2"/><rect class="c" x="658" y="2" rx="2" ry="2"/><rect class="c" x="658" y="18" rx="2" ry="2"/><rect class="c" x="658" y="34" rx="2" ry="2"/><rect class="c" x="658" y="50" rx="2" ry="2"/><rect class="c c7" x="658" y="66" rx="2" ry="2"/><rect class="c" x="658" y="82" rx="2" ry="2"/><rect class="c c8" x="658" y="98" rx="2" ry="2"/><rect class="c c9" x="674" y="2" rx="2" ry="2"/><rect class="c" x="674" y="18" rx="2" ry="2"/><rect class="c" x="674" y="34" rx="2" ry="2"/><rect class="c ca" x="674" y="50" rx="2" ry="2"/><rect class="c" x="674" y="66" rx="2" ry="2"/><rect class="c" x="674" y="82" rx="2" ry="2"/><rect class="c" x="674" y="98" rx="2" ry="2"/><rect class="c" x="690" y="2" rx="2" ry="2"/><rect class="c cb" x="690" y="18" rx="2" ry="2"/><rect class="c" x="690" y="34" rx="2" ry="2"/><rect class="c" x="690" y="50" rx="2" ry="2"/><rect class="c" x="690" y="66" rx="2" ry="2"/><rect class="c cc" x="690" y="82" rx="2" ry="2"/><rect class="c cd" x="690" y="98" rx="2" ry="2"/><rect class="c" x="706" y="2" rx="2" ry="2"/><rect class="c" x="706" y="18" rx="2" ry="2"/><rect class="c" x="706" y="34" rx="2" ry="2"/><rect class="c" x="706" y="50" rx="2" ry="2"/><rect class="c" x="706" y="66" rx="2" ry="2"/><rect class="c" x="706" y="82" rx="2" ry="2"/><rect class="c" x="706" y="98" rx="2" ry="2"/><rect class="c" x="722" y="2" rx="2" ry="2"/><rect class="c" x="722" y="18" rx="2" ry="2"/><rect class="c ce" x="722" y="34" rx="2" ry="2"/><rect class="c cf" x="722" y="50" rx="2" ry="2"/><rect class="c cg" x="722" y="66" rx="2" ry="2"/><rect class="c ch" x="722" y="82" rx="2" ry="2"/><rect class="c ci" x="722" y="98" rx="2" ry="2"/><rect class="c cj" x="738" y="2" rx="2" ry="2"/><rect class="c ck" x="738" y="18" rx="2" ry="2"/><rect class="c cl" x="738" y="34" rx="2" ry="2"/><rect class="c cm" x="738" y="50" rx="2" ry="2"/><rect class="c cn" x="738" y="66" rx="2" ry="2"/><rect class="c co" x="738" y="82" rx="2" ry="2"/><rect class="c cp" x="738" y="98" rx="2" ry="2"/><rect class="c cq" x="754" y="2" rx="2" ry="2"/><rect class="c cr" x="754" y="18" rx="2" ry="2"/><rect class="c cs" x="754" y="34" rx="2" ry="2"/><rect class="c ct" x="754" y="50" rx="2" ry="2"/><rect class="c cu" x="754" y="66" rx="2" ry="2"/><rect class="c cv" x="754" y="82" rx="2" ry="2"/><rect class="c cw" x="754" y="98" rx="2" ry="2"/><rect class="c cx" x="770" y="2" rx="2" ry="2"/><rect class="c cy" x="770" y="18" rx="2" ry="2"/><rect class="c cz" x="770" y="34" rx="2" ry="2"/><rect class="c c10" x="770" y="50" rx="2" ry="2"/><rect class="c c11" x="770" y="66" rx="2" ry="2"/><rect class="c c12" x="770" y="82" rx="2" ry="2"/><rect class="c c13" x="770" y="98" rx="2" ry="2"/><rect class="c c14" x="786" y="2" rx="2" ry="2"/><rect class="c c15" x="786" y="18" rx="2" ry="2"/><rect class="c c16" x="786" y="34" rx="2" ry="2"/><rect class="c c17" x="786" y="50" rx="2" ry="2"/><rect class="c c18" x="786" y="66" rx="2" ry="2"/><rect class="c c19" x="786" y="82" rx="2" ry="2"/><rect class="c c1a" x="786" y="98" rx="2" ry="2"/><rect class="c c1b" x="802" y="2" rx="2" ry="2"/><rect class="c c1c" x="802" y="18" rx="2" ry="2"/><rect class="c c1d" x="802" y="34" rx="2" ry="2"/><rect class="c c1e" x="802" y="50" rx="2" ry="2"/><rect class="c c1f" x="802" y="66" rx="2" ry="2"/><rect class="c c1g" x="802" y="82" rx="2" ry="2"/><rect class="c c1h" x="802" y="98" rx="2" ry="2"/><rect class="c c1i" x="818" y="2" rx="2" ry="2"/><rect class="c c1j" x="818" y="18" rx="2" ry="2"/><rect class="c c1k" x="818" y="34" rx="2" ry="2"/><rect class="c c1l" x="818" y="50" rx="2" ry="2"/><rect class="c c1m" x="818" y="66" rx="2" ry="2"/><rect class="c c1n" x="818" y="82" rx="2" ry="2"/><rect class="c c1o" x="818" y="98" rx="2" ry="2"/><rect class="c c1p" x="834" y="2" rx="2" ry="2"/><rect class="c c1q" x="834" y="18" rx="2" ry="2"/><rect class="c c1r" x="834" y="34" rx="2" ry="2"/><rect class="c c1s" x="834" y="50" rx="2" ry="2"/><rect class="c c1t" x="834" y="66" rx="2" ry="2"/><rect class="c c1u" x="834" y="82" rx="2" ry="2"/><rect class="c c1v" x="834" y="98" rx="2" ry="2"/><rect class="u u0" height="12" width="773.8" x="0.0" y="144"/><rect class="u u1" height="12" width="25.5" x="773.2" y="144"/><rect class="u u2" height="12" width="38.0" x="798.1" y="144"/><rect class="u u3" height="12" width="13.1" x="835.5" y="144"/><rect class="s s0" x="0.8" y="0.8" width="14.4" height="14.4" rx="4.5" ry="4.5"/><rect class="s s1" x="1.8" y="1.8" width="12.3" height="12.3" rx="4.1" ry="4.1"/><rect class="s s2" x="2.6" y="2.6" width="10.8" height="10.8" rx="3.6" ry="3.6"/><rect class="s s3" x="3.0" y="3.0" width="9.9" height="9.9" rx="3.3" ry="3.3"/></svg>