<svg viewBox="-16 -32 880 192" width="880" height="192" xmlns="http://www.w3.org/2000/svg"><desc>Generated with https://github.com/Platane/snk</desc><style>:root{--cb:#1b1f230a;--cs:purple;--ce:#161b22;--c0:#161b22;--c1:#01311f;--c2:#034525;--c3:#0f6d31;--c4:#00c647}.c{shape-rendering:geometricPrecision;fill:var(--ce);stroke-width:1px;stroke:var(--cb);animation:none 30900ms linear infinite;width:12px;height:12px}@keyframes c0{6.79%{fill:var(--c1)}6.81%,100%{fill:var(--ce)}}.c.c0{fill:var(--c1);animation-name:c0}@keyframes c1{59.54%{fill:var(--c2)}59.56%,100%{fill:var(--ce)}}.c.c1{fill:var(--c2);animation-name:c1}@keyframes c2{4.52%{fill:var(--c1)}4.54%,100%{fill:var(--ce)}}.c.c2{fill:var(--c1);animation-name:c2}@keyframes c3{4.84%{fill:var(--c1)}4.86%,100%{fill:var(--ce)}}.c.c3{fill:var(--c1);animation-name:c3}@keyframes c4{56.62%{fill:var(--c2)}56.64%,100%{fill:var(--ce)}}.c.c4{fill:var(--c2);animation-name:c4}@keyframes c5{65.04%{fill:var(--c4)}65.06%,100%{fill:var(--ce)}}.c.c5{fill:var(--c4);animation-name:c5}@keyframes c6{12.61%{fill:var(--c1)}12.63%,100%{fill:var(--ce)}}.c.c6{fill:var(--c1);animation-name:c6}@keyframes c7{16.82%{fill:var(--c1)}16.84%,100%{fill:var(--ce)}}.c.c7{fill:var(--c1);animation-name:c7}@keyframes c8{49.83%{fill:var(--c2)}49.85%,100%{fill:var(--ce)}}.c.c8{fill:var(--c2);animation-name:c8}@keyframes c9{87.05%{fill:var(--c4)}87.07%,100%{fill:var(--ce)}}.c.c9{fill:var(--c4);animation-name:c9}@keyframes ca{16.17%{fill:var(--c1)}16.19%,100%{fill:var(--ce)}}.c.ca{fill:var(--c1);animation-name:ca}@keyframes cb{20.38%{fill:var(--c1)}20.4%,100%{fill:var(--ce)}}.c.cb{fill:var(--c1);animation-name:cb}@keyframes cc{17.79%{fill:var(--c1)}17.81%,100%{fill:var(--ce)}}.c.cc{fill:var(--c1);animation-name:cc}@keyframes cd{18.11%{fill:var(--c1)}18.13%,100%{fill:var(--ce)}}.c.cd{fill:var(--c1);animation-name:cd}@keyframes ce{70.54%{fill:var(--c4)}70.56%,100%{fill:var(--ce)}}.c.ce{fill:var(--c4);animation-name:ce}@keyframes cf{70.22%{fill:var(--c4)}70.24%,100%{fill:var(--ce)}}.c.cf{fill:var(--c4);animation-name:cf}@keyframes cg{45.3%{fill:var(--c2)}45.32%,100%{fill:var(--ce)}}.c.cg{fill:var(--c2);animation-name:cg}@keyframes ch{45.62%{fill:var(--c2)}45.64%,100%{fill:var(--ce)}}.c.ch{fill:var(--c2);animation-name:ch}@keyframes ci{48.53%{fill:var(--c2)}48.55%,100%{fill:var(--ce)}}.c.ci{fill:var(--c2);animation-name:ci}@keyframes cj{35.27%{fill:var(--c2)}35.29%,100%{fill:var(--ce)}}.c.cj{fill:var(--c2);animation-name:cj}@keyframes ck{35.59%{fill:var(--c2)}35.61%,100%{fill:var(--ce)}}.c.ck{fill:var(--c2);animation-name:ck}@keyframes cl{35.91%{fill:var(--c2)}35.93%,100%{fill:var(--ce)}}.c.cl{fill:var(--c2);animation-name:cl}@keyframes cm{44.65%{fill:var(--c2)}44.67%,100%{fill:var(--ce)}}.c.cm{fill:var(--c2);animation-name:cm}@keyframes cn{44.97%{fill:var(--c2)}44.99%,100%{fill:var(--ce)}}.c.cn{fill:var(--c2);animation-name:cn}@keyframes co{45.94%{fill:var(--c2)}45.96%,100%{fill:var(--ce)}}.c.co{fill:var(--c2);animation-name:co}@keyframes cp{48.21%{fill:var(--c2)}48.23%,100%{fill:var(--ce)}}.c.cp{fill:var(--c2);animation-name:cp}@keyframes cq{34.94%{fill:var(--c2)}34.96%,100%{fill:var(--ce)}}.c.cq{fill:var(--c2);animation-name:cq}@keyframes cr{71.51%{fill:var(--c4)}71.53%,100%{fill:var(--ce)}}.c.cr{fill:var(--c4);animation-name:cr}@keyframes cs{36.24%{fill:var(--c2)}36.26%,100%{fill:var(--ce)}}.c.cs{fill:var(--c2);animation-name:cs}@keyframes ct{44.33%{fill:var(--c2)}44.35%,100%{fill:var(--ce)}}.c.ct{fill:var(--c2);animation-name:ct}@keyframes cu{44%{fill:var(--c2)}44.02%,100%{fill:var(--ce)}}.c.cu{fill:var(--c2);animation-name:cu}@keyframes cv{46.27%{fill:var(--c2)}46.29%,100%{fill:var(--ce)}}.c.cv{fill:var(--c2);animation-name:cv}@keyframes cw{46.59%{fill:var(--c2)}46.61%,100%{fill:var(--ce)}}.c.cw{fill:var(--c2);animation-name:cw}@keyframes cx{34.62%{fill:var(--c2)}34.64%,100%{fill:var(--ce)}}.c.cx{fill:var(--c2);animation-name:cx}@keyframes cy{38.82%{fill:var(--c2)}38.84%,100%{fill:var(--ce)}}.c.cy{fill:var(--c2);animation-name:cy}@keyframes cz{36.56%{fill:var(--c2)}36.58%,100%{fill:var(--ce)}}.c.cz{fill:var(--c2);animation-name:cz}@keyframes c10{39.47%{fill:var(--c2)}39.49%,100%{fill:var(--ce)}}.c.c10{fill:var(--c2);animation-name:c10}@keyframes c11{43.68%{fill:var(--c2)}43.7%,100%{fill:var(--ce)}}.c.c11{fill:var(--c2);animation-name:c11}@keyframes c12{43.36%{fill:var(--c2)}43.38%,100%{fill:var(--ce)}}.c.c12{fill:var(--c2);animation-name:c12}@keyframes c13{46.92%{fill:var(--c2)}46.94%,100%{fill:var(--ce)}}.c.c13{fill:var(--c2);animation-name:c13}@keyframes c14{34.29%{fill:var(--c2)}34.31%,100%{fill:var(--ce)}}.c.c14{fill:var(--c2);animation-name:c14}@keyframes c15{38.5%{fill:var(--c2)}38.52%,100%{fill:var(--ce)}}.c.c15{fill:var(--c2);animation-name:c15}@keyframes c16{36.88%{fill:var(--c2)}36.9%,100%{fill:var(--ce)}}.c.c16{fill:var(--c2);animation-name:c16}@keyframes c17{39.8%{fill:var(--c2)}39.82%,100%{fill:var(--ce)}}.c.c17{fill:var(--c2);animation-name:c17}@keyframes c18{73.13%{fill:var(--c4)}73.15%,100%{fill:var(--ce)}}.c.c18{fill:var(--c4);animation-name:c18}@keyframes c19{43.03%{fill:var(--c2)}43.05%,100%{fill:var(--ce)}}.c.c19{fill:var(--c2);animation-name:c19}@keyframes c1a{42.71%{fill:var(--c2)}42.73%,100%{fill:var(--ce)}}.c.c1a{fill:var(--c2);animation-name:c1a}@keyframes c1b{33.97%{fill:var(--c2)}33.99%,100%{fill:var(--ce)}}.c.c1b{fill:var(--c2);animation-name:c1b}@keyframes c1c{38.18%{fill:var(--c2)}38.2%,100%{fill:var(--ce)}}.c.c1c{fill:var(--c2);animation-name:c1c}@keyframes c1d{37.21%{fill:var(--c2)}37.23%,100%{fill:var(--ce)}}.c.c1d{fill:var(--c2);animation-name:c1d}@keyframes c1e{40.12%{fill:var(--c2)}40.14%,100%{fill:var(--ce)}}.c.c1e{fill:var(--c2);animation-name:c1e}@keyframes c1f{41.09%{fill:var(--c2)}41.11%,100%{fill:var(--ce)}}.c.c1f{fill:var(--c2);animation-name:c1f}@keyframes c1g{41.41%{fill:var(--c2)}41.43%,100%{fill:var(--ce)}}.c.c1g{fill:var(--c2);animation-name:c1g}@keyframes c1h{42.38%{fill:var(--c2)}42.4%,100%{fill:var(--ce)}}.c.c1h{fill:var(--c2);animation-name:c1h}@keyframes c1i{33.65%{fill:var(--c2)}33.67%,100%{fill:var(--ce)}}.c.c1i{fill:var(--c2);animation-name:c1i}@keyframes c1j{37.85%{fill:var(--c2)}37.87%,100%{fill:var(--ce)}}.c.c1j{fill:var(--c2);animation-name:c1j}@keyframes c1k{37.53%{fill:var(--c2)}37.55%,100%{fill:var(--ce)}}.c.c1k{fill:var(--c2);animation-name:c1k}@keyframes c1l{40.44%{fill:var(--c2)}40.46%,100%{fill:var(--ce)}}.c.c1l{fill:var(--c2);animation-name:c1l}@keyframes c1m{40.77%{fill:var(--c2)}40.79%,100%{fill:var(--ce)}}.c.c1m{fill:var(--c2);animation-name:c1m}@keyframes c1n{41.74%{fill:var(--c2)}41.76%,100%{fill:var(--ce)}}.c.c1n{fill:var(--c2);animation-name:c1n}@keyframes c1o{42.06%{fill:var(--c2)}42.08%,100%{fill:var(--ce)}}.c.c1o{fill:var(--c2);animation-name:c1o}@keyframes c1p{32.03%{fill:var(--c2)}32.05%,100%{fill:var(--ce)}}.c.c1p{fill:var(--c2);animation-name:c1p}@keyframes c1q{31.71%{fill:var(--c2)}31.73%,100%{fill:var(--ce)}}.c.c1q{fill:var(--c2);animation-name:c1q}@keyframes c1r{31.38%{fill:var(--c2)}31.4%,100%{fill:var(--ce)}}.c.c1r{fill:var(--c2);animation-name:c1r}@keyframes c1s{31.06%{fill:var(--c2)}31.08%,100%{fill:var(--ce)}}.c.c1s{fill:var(--c2);animation-name:c1s}@keyframes c1t{30.73%{fill:var(--c2)}30.75%,100%{fill:var(--ce)}}.c.c1t{fill:var(--c2);animation-name:c1t}@keyframes c1u{30.41%{fill:var(--c2)}30.43%,100%{fill:var(--ce)}}.c.c1u{fill:var(--c2);animation-name:c1u}@keyframes c1v{30.09%{fill:var(--c2)}30.11%,100%{fill:var(--ce)}}.c.c1v{fill:var(--c2);animation-name:c1v}@keyframes c1w{32.35%{fill:var(--c2)}32.37%,100%{fill:var(--ce)}}.c.c1w{fill:var(--c2);animation-name:c1w}@keyframes c1x{77.98%{fill:var(--c4)}78%,100%{fill:var(--ce)}}.c.c1x{fill:var(--c4);animation-name:c1x}@keyframes c1y{78.31%{fill:var(--c4)}78.33%,100%{fill:var(--ce)}}.c.c1y{fill:var(--c4);animation-name:c1y}@keyframes c1z{79.28%{fill:var(--c4)}79.3%,100%{fill:var(--ce)}}.c.c1z{fill:var(--c4);animation-name:c1z}@keyframes c20{74.42%{fill:var(--c4)}74.44%,100%{fill:var(--ce)}}.c.c20{fill:var(--c4);animation-name:c20}@keyframes c21{79.93%{fill:var(--c4)}79.95%,100%{fill:var(--ce)}}.c.c21{fill:var(--c4);animation-name:c21}@keyframes c22{81.54%{fill:var(--c4)}81.56%,100%{fill:var(--ce)}}.c.c22{fill:var(--c4);animation-name:c22}@keyframes c23{77.34%{fill:var(--c4)}77.36%,100%{fill:var(--ce)}}.c.c23{fill:var(--c4);animation-name:c23}@keyframes c24{77.66%{fill:var(--c4)}77.68%,100%{fill:var(--ce)}}.c.c24{fill:var(--c4);animation-name:c24}@keyframes c25{78.63%{fill:var(--c4)}78.65%,100%{fill:var(--ce)}}.c.c25{fill:var(--c4);animation-name:c25}@keyframes c26{78.95%{fill:var(--c4)}78.97%,100%{fill:var(--ce)}}.c.c26{fill:var(--c4);animation-name:c26}@keyframes c27{74.75%{fill:var(--c4)}74.77%,100%{fill:var(--ce)}}.c.c27{fill:var(--c4);animation-name:c27}@keyframes c28{80.25%{fill:var(--c4)}80.27%,100%{fill:var(--ce)}}.c.c28{fill:var(--c4);animation-name:c28}@keyframes c29{81.22%{fill:var(--c4)}81.24%,100%{fill:var(--ce)}}.c.c29{fill:var(--c4);animation-name:c29}@keyframes c2a{77.01%{fill:var(--c4)}77.03%,100%{fill:var(--ce)}}.c.c2a{fill:var(--c4);animation-name:c2a}@keyframes c2b{76.04%{fill:var(--c4)}76.06%,100%{fill:var(--ce)}}.c.c2b{fill:var(--c4);animation-name:c2b}@keyframes c2c{75.72%{fill:var(--c4)}75.74%,100%{fill:var(--ce)}}.c.c2c{fill:var(--c4);animation-name:c2c}@keyframes c2d{75.39%{fill:var(--c4)}75.41%,100%{fill:var(--ce)}}.c.c2d{fill:var(--c4);animation-name:c2d}@keyframes c2e{75.07%{fill:var(--c4)}75.09%,100%{fill:var(--ce)}}.c.c2e{fill:var(--c4);animation-name:c2e}@keyframes c2f{80.57%{fill:var(--c4)}80.59%,100%{fill:var(--ce)}}.c.c2f{fill:var(--c4);animation-name:c2f}@keyframes c2g{80.9%{fill:var(--c4)}80.92%,100%{fill:var(--ce)}}.c.c2g{fill:var(--c4);animation-name:c2g}@keyframes c2h{76.69%{fill:var(--c4)}76.71%,100%{fill:var(--ce)}}.c.c2h{fill:var(--c4);animation-name:c2h}@keyframes c2i{76.37%{fill:var(--c4)}76.39%,100%{fill:var(--ce)}}.c.c2i{fill:var(--c4);animation-name:c2i}@keyframes c2j{26.85%{fill:var(--c1)}26.87%,100%{fill:var(--ce)}}.c.c2j{fill:var(--c1);animation-name:c2j}.u{transform-origin:0 0;transform:scale(0,1);animation:none linear 30900ms infinite}@keyframes u0{4.52%{transform:scale(0.000,1)}4.54%,4.84%{transform:scale(0.100,1)}4.86%,6.79%{transform:scale(0.200,1)}6.81%,12.61%{transform:scale(0.300,1)}12.63%,16.17%{transform:scale(0.400,1)}16.19%,16.82%{transform:scale(0.500,1)}16.84%,17.79%{transform:scale(0.600,1)}17.81%,18.11%{transform:scale(0.700,1)}18.13%,20.38%{transform:scale(0.800,1)}20.4%,26.85%{transform:scale(0.900,1)}26.87%,100%{transform:scale(1.000,1)}}.u.u0{fill:var(--c1);animation-name:u0;transform-origin:0.0px 0}@keyframes u1{30.09%{transform:scale(0.000,1)}30.11%,30.41%{transform:scale(0.019,1)}30.43%,30.73%{transform:scale(0.037,1)}30.75%,31.06%{transform:scale(0.056,1)}31.08%,31.38%{transform:scale(0.074,1)}31.4%,31.71%{transform:scale(0.093,1)}31.73%,32.03%{transform:scale(0.111,1)}32.05%,32.35%{transform:scale(0.130,1)}32.37%,33.65%{transform:scale(0.148,1)}33.67%,33.97%{transform:scale(0.167,1)}33.99%,34.29%{transform:scale(0.185,1)}34.31%,34.62%{transform:scale(0.204,1)}34.64%,34.94%{transform:scale(0.222,1)}34.96%,35.27%{transform:scale(0.241,1)}35.29%,35.59%{transform:scale(0.259,1)}35.61%,35.91%{transform:scale(0.278,1)}35.93%,36.24%{transform:scale(0.296,1)}36.26%,36.56%{transform:scale(0.315,1)}36.58%,36.88%{transform:scale(0.333,1)}36.9%,37.21%{transform:scale(0.352,1)}37.23%,37.53%{transform:scale(0.370,1)}37.55%,37.85%{transform:scale(0.389,1)}37.87%,38.18%{transform:scale(0.407,1)}38.2%,38.5%{transform:scale(0.426,1)}38.52%,38.82%{transform:scale(0.444,1)}38.84%,39.47%{transform:scale(0.463,1)}39.49%,39.8%{transform:scale(0.481,1)}39.82%,40.12%{transform:scale(0.500,1)}40.14%,40.44%{transform:scale(0.519,1)}40.46%,40.77%{transform:scale(0.537,1)}40.79%,41.09%{transform:scale(0.556,1)}41.11%,41.41%{transform:scale(0.574,1)}41.43%,41.74%{transform:scale(0.593,1)}41.76%,42.06%{transform:scale(0.611,1)}42.08%,42.38%{transform:scale(0.630,1)}42.4%,42.71%{transform:scale(0.648,1)}42.73%,43.03%{transform:scale(0.667,1)}43.05%,43.36%{transform:scale(0.685,1)}43.38%,43.68%{transform:scale(0.704,1)}43.7%,44%{transform:scale(0.722,1)}44.02%,44.33%{transform:scale(0.741,1)}44.35%,44.65%{transform:scale(0.759,1)}44.67%,44.97%{transform:scale(0.778,1)}44.99%,45.3%{transform:scale(0.796,1)}45.32%,45.62%{transform:scale(0.815,1)}45.64%,45.94%{transform:scale(0.833,1)}45.96%,46.27%{transform:scale(0.852,1)}46.29%,46.59%{transform:scale(0.870,1)}46.61%,46.92%{transform:scale(0.889,1)}46.94%,48.21%{transform:scale(0.907,1)}48.23%,48.53%{transform:scale(0.926,1)}48.55%,49.83%{transform:scale(0.944,1)}49.85%,56.62%{transform:scale(0.963,1)}56.64%,59.54%{transform:scale(0.981,1)}59.56%,100%{transform:scale(1.000,1)}}.u.u1{fill:var(--c2);animation-name:u1;transform-origin:92.2px 0}@keyframes u2{65.04%{transform:scale(0.000,1)}65.06%,70.22%{transform:scale(0.036,1)}70.24%,70.54%{transform:scale(0.071,1)}70.56%,71.51%{transform:scale(0.107,1)}71.53%,73.13%{transform:scale(0.143,1)}73.15%,74.42%{transform:scale(0.179,1)}74.44%,74.75%{transform:scale(0.214,1)}74.77%,75.07%{transform:scale(0.250,1)}75.09%,75.39%{transform:scale(0.286,1)}75.41%,75.72%{transform:scale(0.321,1)}75.74%,76.04%{transform:scale(0.357,1)}76.06%,76.37%{transform:scale(0.393,1)}76.39%,76.69%{transform:scale(0.429,1)}76.71%,77.01%{transform:scale(0.464,1)}77.03%,77.34%{transform:scale(0.500,1)}77.36%,77.66%{transform:scale(0.536,1)}77.68%,77.98%{transform:scale(0.571,1)}78%,78.31%{transform:scale(0.607,1)}78.33%,78.63%{transform:scale(0.643,1)}78.65%,78.95%{transform:scale(0.679,1)}78.97%,79.28%{transform:scale(0.714,1)}79.3%,79.93%{transform:scale(0.750,1)}79.95%,80.25%{transform:scale(0.786,1)}80.27%,80.57%{transform:scale(0.821,1)}80.59%,80.9%{transform:scale(0.857,1)}80.92%,81.22%{transform:scale(0.893,1)}81.24%,81.54%{transform:scale(0.929,1)}81.56%,87.05%{transform:scale(0.964,1)}87.07%,100%{transform:scale(1.000,1)}}.u.u2{fill:var(--c4);animation-name:u2;transform-origin:589.9px 0}.s{shape-rendering:geometricPrecision;fill:var(--cs);animation:none linear 30900ms infinite}@keyframes s0{0%,99.68%{transform:translate(0px,-16px)}0.32%{transform:translate(0px,0px)}4.53%{transform:translate(208px,0px)}4.85%{transform:translate(208px,16px)}5.5%{transform:translate(176px,16px)}6.8%{transform:translate(176px,80px)}11.97%{transform:translate(432px,80px)}12.62%{transform:translate(432px,48px)}16.18%{transform:translate(608px,48px)}16.5%{transform:translate(608px,64px)}16.83%{transform:translate(592px,64px)}17.15%,50.16%{transform:translate(592px,80px)}17.8%{transform:translate(624px,80px)}18.12%{transform:translate(624px,96px)}18.45%{transform:translate(640px,96px)}20.06%{transform:translate(640px,16px)}20.39%{transform:translate(624px,16px)}20.71%{transform:translate(624px,0px)}21.36%{transform:translate(656px,0px)}21.68%{transform:translate(656px,-16px)}25.57%{transform:translate(848px,-16px)}26.54%{transform:translate(848px,32px)}26.86%{transform:translate(832px,32px)}28.48%{transform:translate(832px,112px)}29.77%{transform:translate(768px,112px)}32.04%{transform:translate(768px,0px)}32.36%,83.5%{transform:translate(784px,0px)}32.69%{transform:translate(784px,-16px)}33.33%{transform:translate(752px,-16px)}33.66%{transform:translate(752px,0px)}35.28%{transform:translate(672px,0px)}35.92%{transform:translate(672px,32px)}37.54%{transform:translate(752px,32px)}37.86%{transform:translate(752px,16px)}38.83%{transform:translate(704px,16px)}39.48%{transform:translate(704px,48px)}40.45%{transform:translate(752px,48px)}40.78%{transform:translate(752px,64px)}41.1%{transform:translate(736px,64px)}41.42%{transform:translate(736px,80px)}41.75%{transform:translate(752px,80px)}42.07%{transform:translate(752px,96px)}42.72%{transform:translate(720px,96px)}43.04%{transform:translate(720px,80px)}43.37%,47.25%{transform:translate(704px,80px)}43.69%{transform:translate(704px,64px)}44.01%{transform:translate(688px,64px)}44.34%{transform:translate(688px,48px)}44.66%{transform:translate(672px,48px)}44.98%{transform:translate(672px,64px)}45.31%,69.9%{transform:translate(656px,64px)}45.63%{transform:translate(656px,80px)}46.28%{transform:translate(688px,80px)}46.6%{transform:translate(688px,96px)}46.93%{transform:translate(704px,96px)}47.9%{transform:translate(672px,80px)}48.22%{transform:translate(672px,96px)}49.84%{transform:translate(592px,96px)}54.05%{transform:translate(400px,80px)}54.37%{transform:translate(400px,64px)}58.9%{transform:translate(176px,64px)}59.55%{transform:translate(176px,96px)}64.4%{transform:translate(416px,96px)}65.05%{transform:translate(416px,64px)}70.55%{transform:translate(656px,32px)}71.2%{transform:translate(688px,32px)}71.52%{transform:translate(688px,16px)}72.17%{transform:translate(720px,16px)}73.14%{transform:translate(720px,64px)}75.08%{transform:translate(816px,64px)}76.05%{transform:translate(816px,16px)}76.38%{transform:translate(832px,16px)}76.7%{transform:translate(832px,0px)}77.35%{transform:translate(800px,0px)}77.67%{transform:translate(800px,16px)}77.99%{transform:translate(784px,16px)}78.32%{transform:translate(784px,32px)}78.64%{transform:translate(800px,32px)}78.96%{transform:translate(800px,48px)}79.29%{transform:translate(784px,48px)}79.94%{transform:translate(784px,80px)}80.58%{transform:translate(816px,80px)}80.91%{transform:translate(816px,96px)}81.55%{transform:translate(784px,96px)}98.06%{transform:translate(64px,0px)}98.38%{transform:translate(64px,-16px)}}.s.s0{transform:translate(0px,-16px);animation-name:s0}@keyframes s1{0%,99.68%{transform:translate(16px,-16px)}0.32%{transform:translate(0px,-16px)}0.65%{transform:translate(0px,0px)}4.85%{transform:translate(208px,0px)}5.18%{transform:translate(208px,16px)}5.83%{transform:translate(176px,16px)}7.12%{transform:translate(176px,80px)}12.3%{transform:translate(432px,80px)}12.94%{transform:translate(432px,48px)}16.5%{transform:translate(608px,48px)}16.83%{transform:translate(608px,64px)}17.15%{transform:translate(592px,64px)}17.48%,50.49%{transform:translate(592px,80px)}18.12%{transform:translate(624px,80px)}18.45%{transform:translate(624px,96px)}18.77%{transform:translate(640px,96px)}20.39%{transform:translate(640px,16px)}20.71%{transform:translate(624px,16px)}21.04%{transform:translate(624px,0px)}21.68%{transform:translate(656px,0px)}22.01%{transform:translate(656px,-16px)}25.89%{transform:translate(848px,-16px)}26.86%{transform:translate(848px,32px)}27.18%{transform:translate(832px,32px)}28.8%{transform:translate(832px,112px)}30.1%{transform:translate(768px,112px)}32.36%{transform:translate(768px,0px)}32.69%,83.82%{transform:translate(784px,0px)}33.01%{transform:translate(784px,-16px)}33.66%{transform:translate(752px,-16px)}33.98%{transform:translate(752px,0px)}35.6%{transform:translate(672px,0px)}36.25%{transform:translate(672px,32px)}37.86%{transform:translate(752px,32px)}38.19%{transform:translate(752px,16px)}39.16%{transform:translate(704px,16px)}39.81%{transform:translate(704px,48px)}40.78%{transform:translate(752px,48px)}41.1%{transform:translate(752px,64px)}41.42%{transform:translate(736px,64px)}41.75%{transform:translate(736px,80px)}42.07%{transform:translate(752px,80px)}42.39%{transform:translate(752px,96px)}43.04%{transform:translate(720px,96px)}43.37%{transform:translate(720px,80px)}43.69%,47.57%{transform:translate(704px,80px)}44.01%{transform:translate(704px,64px)}44.34%{transform:translate(688px,64px)}44.66%{transform:translate(688px,48px)}44.98%{transform:translate(672px,48px)}45.31%{transform:translate(672px,64px)}45.63%,70.23%{transform:translate(656px,64px)}45.95%{transform:translate(656px,80px)}46.6%{transform:translate(688px,80px)}46.93%{transform:translate(688px,96px)}47.25%{transform:translate(704px,96px)}48.22%{transform:translate(672px,80px)}48.54%{transform:translate(672px,96px)}50.16%{transform:translate(592px,96px)}54.37%{transform:translate(400px,80px)}54.69%{transform:translate(400px,64px)}59.22%{transform:translate(176px,64px)}59.87%{transform:translate(176px,96px)}64.72%{transform:translate(416px,96px)}65.37%{transform:translate(416px,64px)}70.87%{transform:translate(656px,32px)}71.52%{transform:translate(688px,32px)}71.84%{transform:translate(688px,16px)}72.49%{transform:translate(720px,16px)}73.46%{transform:translate(720px,64px)}75.4%{transform:translate(816px,64px)}76.38%{transform:translate(816px,16px)}76.7%{transform:translate(832px,16px)}77.02%{transform:translate(832px,0px)}77.67%{transform:translate(800px,0px)}77.99%{transform:translate(800px,16px)}78.32%{transform:translate(784px,16px)}78.64%{transform:translate(784px,32px)}78.96%{transform:translate(800px,32px)}79.29%{transform:translate(800px,48px)}79.61%{transform:translate(784px,48px)}80.26%{transform:translate(784px,80px)}80.91%{transform:translate(816px,80px)}81.23%{transform:translate(816px,96px)}81.88%{transform:translate(784px,96px)}98.38%{transform:translate(64px,0px)}98.71%{transform:translate(64px,-16px)}}.s.s1{transform:translate(16px,-16px);animation-name:s1}@keyframes s2{0%,99.68%{transform:translate(32px,-16px)}0.65%{transform:translate(0px,-16px)}0.97%{transform:translate(0px,0px)}5.18%{transform:translate(208px,0px)}5.5%{transform:translate(208px,16px)}6.15%{transform:translate(176px,16px)}7.44%{transform:translate(176px,80px)}12.62%{transform:translate(432px,80px)}13.27%{transform:translate(432px,48px)}16.83%{transform:translate(608px,48px)}17.15%{transform:translate(608px,64px)}17.48%{transform:translate(592px,64px)}17.8%,50.81%{transform:translate(592px,80px)}18.45%{transform:translate(624px,80px)}18.77%{transform:translate(624px,96px)}19.09%{transform:translate(640px,96px)}20.71%{transform:translate(640px,16px)}21.04%{transform:translate(624px,16px)}21.36%{transform:translate(624px,0px)}22.01%{transform:translate(656px,0px)}22.33%{transform:translate(656px,-16px)}26.21%{transform:translate(848px,-16px)}27.18%{transform:translate(848px,32px)}27.51%{transform:translate(832px,32px)}29.13%{transform:translate(832px,112px)}30.42%{transform:translate(768px,112px)}32.69%{transform:translate(768px,0px)}33.01%,84.14%{transform:translate(784px,0px)}33.33%{transform:translate(784px,-16px)}33.98%{transform:translate(752px,-16px)}34.3%{transform:translate(752px,0px)}35.92%{transform:translate(672px,0px)}36.57%{transform:translate(672px,32px)}38.19%{transform:translate(752px,32px)}38.51%{transform:translate(752px,16px)}39.48%{transform:translate(704px,16px)}40.13%{transform:translate(704px,48px)}41.1%{transform:translate(752px,48px)}41.42%{transform:translate(752px,64px)}41.75%{transform:translate(736px,64px)}42.07%{transform:translate(736px,80px)}42.39%{transform:translate(752px,80px)}42.72%{transform:translate(752px,96px)}43.37%{transform:translate(720px,96px)}43.69%{transform:translate(720px,80px)}44.01%,47.9%{transform:translate(704px,80px)}44.34%{transform:translate(704px,64px)}44.66%{transform:translate(688px,64px)}44.98%{transform:translate(688px,48px)}45.31%{transform:translate(672px,48px)}45.63%{transform:translate(672px,64px)}45.95%,70.55%{transform:translate(656px,64px)}46.28%{transform:translate(656px,80px)}46.93%{transform:translate(688px,80px)}47.25%{transform:translate(688px,96px)}47.57%{transform:translate(704px,96px)}48.54%{transform:translate(672px,80px)}48.87%{transform:translate(672px,96px)}50.49%{transform:translate(592px,96px)}54.69%{transform:translate(400px,80px)}55.02%{transform:translate(400px,64px)}59.55%{transform:translate(176px,64px)}60.19%{transform:translate(176px,96px)}65.05%{transform:translate(416px,96px)}65.7%{transform:translate(416px,64px)}71.2%{transform:translate(656px,32px)}71.84%{transform:translate(688px,32px)}72.17%{transform:translate(688px,16px)}72.82%{transform:translate(720px,16px)}73.79%{transform:translate(720px,64px)}75.73%{transform:translate(816px,64px)}76.7%{transform:translate(816px,16px)}77.02%{transform:translate(832px,16px)}77.35%{transform:translate(832px,0px)}77.99%{transform:translate(800px,0px)}78.32%{transform:translate(800px,16px)}78.64%{transform:translate(784px,16px)}78.96%{transform:translate(784px,32px)}79.29%{transform:translate(800px,32px)}79.61%{transform:translate(800px,48px)}79.94%{transform:translate(784px,48px)}80.58%{transform:translate(784px,80px)}81.23%{transform:translate(816px,80px)}81.55%{transform:translate(816px,96px)}82.2%{transform:translate(784px,96px)}98.71%{transform:translate(64px,0px)}99.03%{transform:translate(64px,-16px)}}.s.s2{transform:translate(32px,-16px);animation-name:s2}@keyframes s3{0%,99.68%{transform:translate(48px,-16px)}0.97%{transform:translate(0px,-16px)}1.29%{transform:translate(0px,0px)}5.5%{transform:translate(208px,0px)}5.83%{transform:translate(208px,16px)}6.47%{transform:translate(176px,16px)}7.77%{transform:translate(176px,80px)}12.94%{transform:translate(432px,80px)}13.59%{transform:translate(432px,48px)}17.15%{transform:translate(608px,48px)}17.48%{transform:translate(608px,64px)}17.8%{transform:translate(592px,64px)}18.12%,51.13%{transform:translate(592px,80px)}18.77%{transform:translate(624px,80px)}19.09%{transform:translate(624px,96px)}19.42%{transform:translate(640px,96px)}21.04%{transform:translate(640px,16px)}21.36%{transform:translate(624px,16px)}21.68%{transform:translate(624px,0px)}22.33%{transform:translate(656px,0px)}22.65%{transform:translate(656px,-16px)}26.54%{transform:translate(848px,-16px)}27.51%{transform:translate(848px,32px)}27.83%{transform:translate(832px,32px)}29.45%{transform:translate(832px,112px)}30.74%{transform:translate(768px,112px)}33.01%{transform:translate(768px,0px)}33.33%,84.47%{transform:translate(784px,0px)}33.66%{transform:translate(784px,-16px)}34.3%{transform:translate(752px,-16px)}34.63%{transform:translate(752px,0px)}36.25%{transform:translate(672px,0px)}36.89%{transform:translate(672px,32px)}38.51%{transform:translate(752px,32px)}38.83%{transform:translate(752px,16px)}39.81%{transform:translate(704px,16px)}40.45%{transform:translate(704px,48px)}41.42%{transform:translate(752px,48px)}41.75%{transform:translate(752px,64px)}42.07%{transform:translate(736px,64px)}42.39%{transform:translate(736px,80px)}42.72%{transform:translate(752px,80px)}43.04%{transform:translate(752px,96px)}43.69%{transform:translate(720px,96px)}44.01%{transform:translate(720px,80px)}44.34%,48.22%{transform:translate(704px,80px)}44.66%{transform:translate(704px,64px)}44.98%{transform:translate(688px,64px)}45.31%{transform:translate(688px,48px)}45.63%{transform:translate(672px,48px)}45.95%{transform:translate(672px,64px)}46.28%,70.87%{transform:translate(656px,64px)}46.6%{transform:translate(656px,80px)}47.25%{transform:translate(688px,80px)}47.57%{transform:translate(688px,96px)}47.9%{transform:translate(704px,96px)}48.87%{transform:translate(672px,80px)}49.19%{transform:translate(672px,96px)}50.81%{transform:translate(592px,96px)}55.02%{transform:translate(400px,80px)}55.34%{transform:translate(400px,64px)}59.87%{transform:translate(176px,64px)}60.52%{transform:translate(176px,96px)}65.37%{transform:translate(416px,96px)}66.02%{transform:translate(416px,64px)}71.52%{transform:translate(656px,32px)}72.17%{transform:translate(688px,32px)}72.49%{transform:translate(688px,16px)}73.14%{transform:translate(720px,16px)}74.11%{transform:translate(720px,64px)}76.05%{transform:translate(816px,64px)}77.02%{transform:translate(816px,16px)}77.35%{transform:translate(832px,16px)}77.67%{transform:translate(832px,0px)}78.32%{transform:translate(800px,0px)}78.64%{transform:translate(800px,16px)}78.96%{transform:translate(784px,16px)}79.29%{transform:translate(784px,32px)}79.61%{transform:translate(800px,32px)}79.94%{transform:translate(800px,48px)}80.26%{transform:translate(784px,48px)}80.91%{transform:translate(784px,80px)}81.55%{transform:translate(816px,80px)}81.88%{transform:translate(816px,96px)}82.52%{transform:translate(784px,96px)}99.03%{transform:translate(64px,0px)}99.35%{transform:translate(64px,-16px)}}.s.s3{transform:translate(48px,-16px);animation-name:s3}</style><rect class="c" x="2" y="2" rx="2" ry="2"/><rect class="c" x="2" y="18" rx="2" ry="2"/><rect class="c" x="2" y="34" rx="2" ry="2"/><rect class="c" x="2" y="50" rx="2" ry="2"/><rect class="c" x="2" y="66" rx="2" ry="2"/><rect class="c" x="2" y="82" rx="2" ry="2"/><rect class="c" x="2" y="98" rx="2" ry="2"/><rect class="c" x="18" y="2" rx="2" ry="2"/><rect class="c" x="18" y="18" rx="2" ry="2"/><rect class="c" x="18" y="34" rx="2" ry="2"/><rect class="c" x="18" y="50" rx="2" ry="2"/><rect class="c" x="18" y="66" rx="2" ry="2"/><rect class="c" x="18" y="82" rx="2" ry="2"/><rect class="c" x="18" y="98" rx="2" ry="2"/><rect class="c" x="34" y="2" rx="2" ry="2"/><rect class="c" x="34" y="18" rx="2" ry="2"/><rect class="c" x="34" y="34" rx="2" ry="2"/><rect class="c" x="34" y="50" rx="2" ry="2"/><rect class="c" x="34" y="66" rx="2" ry="2"/><rect class="c" x="34" y="82" rx="2" ry="2"/><rect class="c" x="34" y="98" rx="2" ry="2"/><rect class="c" x="50" y="2" rx="2" ry="2"/><rect class="c" x="50" y="18" rx="2" ry="2"/><rect class="c" x="50" y="34" rx="2" ry="2"/><rect class="c" x="50" y="50" rx="2" ry="2"/><rect class="c" x="50" y="66" rx="2" ry="2"/><rect class="c" x="50" y="82" rx="2" ry="2"/><rect class="c" x="50" y="98" rx="2" ry="2"/><rect class="c" x="66" y="2" rx="2" ry="2"/><rect class="c" x="66" y="18" rx="2" ry="2"/><rect class="c" x="66" y="34" rx="2" ry="2"/><rect class="c" x="66" y="50" rx="2" ry="2"/><rect class="c" x="66" y="66" rx="2" ry="2"/><rect class="c" x="66" y="82" rx="2" ry="2"/><rect class="c" x="66" y="98" rx="2" ry="2"/><rect class="c" x="82" y="2" rx="2" ry="2"/><rect class="c" x="82" y="18" rx="2" ry="2"/><rect class="c" x="82" y="34" rx="2" ry="2"/><rect class="c" x="82" y="50" rx="2" ry="2"/><rect class="c" x="82" y="66" rx="2" ry="2"/><rect class="c" x="82" y="82" rx="2" ry="2"/><rect class="c" x="82" y="98" rx="2" ry="2"/><rect class="c" x="98" y="2" rx="2" ry="2"/><rect class="c" x="98" y="18" rx="2" ry="2"/><rect class="c" x="98" y="34" rx="2" ry="2"/><rect class="c" x="98" y="50" rx="2" ry="2"/><rect class="c" x="98" y="66" rx="2" ry="2"/><rect class="c" x="98" y="82" rx="2" ry="2"/><rect class="c" x="98" y="98" rx="2" ry="2"/><rect class="c" x="114" y="2" rx="2" ry="2"/><rect class="c" x="114" y="18" rx="2" ry="2"/><rect class="c" x="114" y="34" rx="2" ry="2"/><rect class="c" x="114" y="50" rx="2" ry="2"/><rect class="c" x="114" y="66" rx="2" ry="2"/><rect class="c" x="114" y="82" rx="2" ry="2"/><rect class="c" x="114" y="98" rx="2" ry="2"/><rect class="c" x="130" y="2" rx="2" ry="2"/><rect class="c" x="130" y="18" rx="2" ry="2"/><rect class="c" x="130" y="34" rx="2" ry="2"/><rect class="c" x="130" y="50" rx="2" ry="2"/><rect class="c" x="130" y="66" rx="2" ry="2"/><rect class="c" x="130" y="82" rx="2" ry="2"/><rect class="c" x="130" y="98" rx="2" ry="2"/><rect class="c" x="146" y="2" rx="2" ry="2"/><rect class="c" x="146" y="18" rx="2" ry="2"/><rect class="c" x="146" y="34" rx="2" ry="2"/><rect class="c" x="146" y="50" rx="2" ry="2"/><rect class="c" x="146" y="66" rx="2" ry="2"/><rect class="c" x="146" y="82" rx="2" ry="2"/><rect class="c" x="146" y="98" rx="2" ry="2"/><rect class="c" x="162" y="2" rx="2" ry="2"/><rect class="c" x="162" y="18" rx="2" ry="2"/><rect class="c" x="162" y="34" rx="2" ry="2"/><rect class="c" x="162" y="50" rx="2" ry="2"/><rect class="c" x="162" y="66" rx="2" ry="2"/><rect class="c" x="162" y="82" rx="2" ry="2"/><rect class="c" x="162" y="98" rx="2" ry="2"/><rect class="c" x="178" y="2" rx="2" ry="2"/><rect class="c" x="178" y="18" rx="2" ry="2"/><rect class="c" x="178" y="34" rx="2" ry="2"/><rect class="c" x="178" y="50" rx="2" ry="2"/><rect class="c" x="178" y="66" rx="2" ry="2"/><rect class="c c0" x="178" y="82" rx="2" ry="2"/><rect class="c c1" x="178" y="98" rx="2" ry="2"/><rect class="c" x="194" y="2" rx="2" ry="2"/><rect class="c" x="194" y="18" rx="2" ry="2"/><rect class="c" x="194" y="34" rx="2" ry="2"/><rect class="c" x="194" y="50" rx="2" ry="2"/><rect class="c" x="194" y="66" rx="2" ry="2"/><rect class="c" x="194" y="82" rx="2" ry="2"/><rect class="c" x="194" y="98" rx="2" ry="2"/><rect class="c c2" x="210" y="2" rx="2" ry="2"/><rect class="c c3" x="210" y="18" rx="2" ry="2"/><rect class="c" x="210" y="34" rx="2" ry="2"/><rect class="c" x="210" y="50" rx="2" ry="2"/><rect class="c" x="210" y="66" rx="2" ry="2"/><rect class="c" x="210" y="82" rx="2" ry="2"/><rect class="c" x="210" y="98" rx="2" ry="2"/><rect class="c" x="226" y="2" rx="2" ry="2"/><rect class="c" x="226" y="18" rx="2" ry="2"/><rect class="c" x="226" y="34" rx="2" ry="2"/><rect class="c" x="226" y="50" rx="2" ry="2"/><rect class="c" x="226" y="66" rx="2" ry="2"/><rect class="c" x="226" y="82" rx="2" ry="2"/><rect class="c" x="226" y="98" rx="2" ry="2"/><rect class="c" x="242" y="2" rx="2" ry="2"/><rect class="c" x="242" y="18" rx="2" ry="2"/><rect class="c" x="242" y="34" rx="2" ry="2"/><rect class="c" x="242" y="50" rx="2" ry="2"/><rect class="c" x="242" y="66" rx="2" ry="2"/><rect class="c" x="242" y="82" rx="2" ry="2"/><rect class="c" x="242" y="98" rx="2" ry="2"/><rect class="c" x="258" y="2" rx="2" ry="2"/><rect class="c" x="258" y="18" rx="2" ry="2"/><rect class="c" x="258" y="34" rx="2" ry="2"/><rect class="c" x="258" y="50" rx="2" ry="2"/><rect class="c" x="258" y="66" rx="2" ry="2"/><rect class="c" x="258" y="82" rx="2" ry="2"/><rect class="c" x="258" y="98" rx="2" ry="2"/><rect class="c" x="274" y="2" rx="2" ry="2"/><rect class="c" x="274" y="18" rx="2" ry="2"/><rect class="c" x="274" y="34" rx="2" ry="2"/><rect class="c" x="274" y="50" rx="2" ry="2"/><rect class="c" x="274" y="66" rx="2" ry="2"/><rect class="c" x="274" y="82" rx="2" ry="2"/><rect class="c" x="274" y="98" rx="2" ry="2"/><rect class="c" x="290" y="2" rx="2" ry="2"/><rect class="c" x="290" y="18" rx="2" ry="2"/><rect class="c" x="290" y="34" rx="2" ry="2"/><rect class="c" x="290" y="50" rx="2" ry="2"/><rect class="c c4" x="290" y="66" rx="2" ry="2"/><rect class="c" x="290" y="82" rx="2" ry="2"/><rect class="c" x="290" y="98" rx="2" ry="2"/><rect class="c" x="306" y="2" rx="2" ry="2"/><rect class="c" x="306" y="18" rx="2" ry="2"/><rect class="c" x="306" y="34" rx="2" ry="2"/><rect class="c" x="306" y="50" rx="2" ry="2"/><rect class="c" x="306" y="66" rx="2" ry="2"/><rect class="c" x="306" y="82" rx="2" ry="2"/><rect class="c" x="306" y="98" rx="2" ry="2"/><rect class="c" x="322" y="2" rx="2" ry="2"/><rect class="c" x="322" y="18" rx="2" ry="2"/><rect class="c" x="322" y="34" rx="2" ry="2"/><rect class="c" x="322" y="50" rx="2" ry="2"/><rect class="c" x="322" y="66" rx="2" ry="2"/><rect class="c" x="322" y="82" rx="2" ry="2"/><rect class="c" x="322" y="98" rx="2" ry="2"/><rect class="c" x="338" y="2" rx="2" ry="2"/><rect class="c" x="338" y="18" rx="2" ry="2"/><rect class="c" x="338" y="34" rx="2" ry="2"/><rect class="c" x="338" y="50" rx="2" ry="2"/><rect class="c" x="338" y="66" rx="2" ry="2"/><rect class="c" x="338" y="82" rx="2" ry="2"/><rect class="c" x="338" y="98" rx="2" ry="2"/><rect class="c" x="354" y="2" rx="2" ry="2"/><rect class="c" x="354" y="18" rx="2" ry="2"/><rect class="c" x="354" y="34" rx="2" ry="2"/><rect class="c" x="354" y="50" rx="2" ry="2"/><rect class="c" x="354" y="66" rx="2" ry="2"/><rect class="c" x="354" y="82" rx="2" ry="2"/><rect class="c" x="354" y="98" rx="2" ry="2"/><rect class="c" x="370" y="2" rx="2" ry="2"/><rect class="c" x="370" y="18" rx="2" ry="2"/><rect class="c" x="370" y="34" rx="2" ry="2"/><rect class="c" x="370" y="50" rx="2" ry="2"/><rect class="c" x="370" y="66" rx="2" ry="2"/><rect class="c" x="370" y="82" rx="2" ry="2"/><rect class="c" x="370" y="98" rx="2" ry="2"/><rect class="c" x="386" y="2" rx="2" ry="2"/><rect class="c" x="386" y="18" rx="2" ry="2"/><rect class="c" x="386" y="34" rx="2" ry="2"/><rect class="c" x="386" y="50" rx="2" ry="2"/><rect class="c" x="386" y="66" rx="2" ry="2"/><rect class="c" x="386" y="82" rx="2" ry="2"/><rect class="c" x="386" y="98" rx="2" ry="2"/><rect class="c" x="402" y="2" rx="2" ry="2"/><rect class="c" x="402" y="18" rx="2" ry="2"/><rect class="c" x="402" y="34" rx="2" ry="2"/><rect class="c" x="402" y="50" rx="2" ry="2"/><rect class="c" x="402" y="66" rx="2" ry="2"/><rect class="c" x="402" y="82" rx="2" ry="2"/><rect class="c" x="402" y="98" rx="2" ry="2"/><rect class="c" x="418" y="2" rx="2" ry="2"/><rect class="c" x="418" y="18" rx="2" ry="2"/><rect class="c" x="418" y="34" rx="2" ry="2"/><rect class="c" x="418" y="50" rx="2" ry="2"/><rect class="c c5" x="418" y="66" rx="2" ry="2"/><rect class="c" x="418" y="82" rx="2" ry="2"/><rect class="c" x="418" y="98" rx="2" ry="2"/><rect class="c" x="434" y="2" rx="2" ry="2"/><rect class="c" x="434" y="18" rx="2" ry="2"/><rect class="c" x="434" y="34" rx="2" ry="2"/><rect class="c c6" x="434" y="50" rx="2" ry="2"/><rect class="c" x="434" y="66" rx="2" ry="2"/><rect class="c" x="434" y="82" rx="2" ry="2"/><rect class="c" x="434" y="98" rx="2" ry="2"/><rect class="c" x="450" y="2" rx="2" ry="2"/><rect class="c" x="450" y="18" rx="2" ry="2"/><rect class="c" x="450" y="34" rx="2" ry="2"/><rect class="c" x="450" y="50" rx="2" ry="2"/><rect class="c" x="450" y="66" rx="2" ry="2"/><rect class="c" x="450" y="82" rx="2" ry="2"/><rect class="c" x="450" y="98" rx="2" ry="2"/><rect class="c" x="466" y="2" rx="2" ry="2"/><rect class="c" x="466" y="18" rx="2" ry="2"/><rect class="c" x="466" y="34" rx="2" ry="2"/><rect class="c" x="466" y="50" rx="2" ry="2"/><rect class="c" x="466" y="66" rx="2" ry="2"/><rect class="c" x="466" y="82" rx="2" ry="2"/><rect class="c" x="466" y="98" rx="2" ry="2"/><rect class="c" x="482" y="2" rx="2" ry="2"/><rect class="c" x="482" y="18" rx="2" ry="2"/><rect class="c" x="482" y="34" rx="2" ry="2"/><rect class="c" x="482" y="50" rx="2" ry="2"/><rect class="c" x="482" y="66" rx="2" ry="2"/><rect class="c" x="482" y="82" rx="2" ry="2"/><rect class="c" x="482" y="98" rx="2" ry="2"/><rect class="c" x="498" y="2" rx="2" ry="2"/><rect class="c" x="498" y="18" rx="2" ry="2"/><rect class="c" x="498" y="34" rx="2" ry="2"/><rect class="c" x="498" y="50" rx="2" ry="2"/><rect class="c" x="498" y="66" rx="2" ry="2"/><rect class="c" x="498" y="82" rx="2" ry="2"/><rect class="c" x="498" y="98" rx="2" ry="2"/><rect class="c" x="514" y="2" rx="2" ry="2"/><rect class="c" x="514" y="18" rx="2" ry="2"/><rect class="c" x="514" y="34" rx="2" ry="2"/><rect class="c" x="514" y="50" rx="2" ry="2"/><rect class="c" x="514" y="66" rx="2" ry="2"/><rect class="c" x="514" y="82" rx="2" ry="2"/><rect class="c" x="514" y="98" rx="2" ry="2"/><rect class="c" x="530" y="2" rx="2" ry="2"/><rect class="c" x="530" y="18" rx="2" ry="2"/><rect class="c" x="530" y="34" rx="2" ry="2"/><rect class="c" x="530" y="50" rx="2" ry="2"/><rect class="c" x="530" y="66" rx="2" ry="2"/><rect class="c" x="530" y="82" rx="2" ry="2"/><rect class="c" x="530" y="98" rx="2" ry="2"/><rect class="c" x="546" y="2" rx="2" ry="2"/><rect class="c" x="546" y="18" rx="2" ry="2"/><rect class="c" x="546" y="34" rx="2" ry="2"/><rect class="c" x="546" y="50" rx="2" ry="2"/><rect class="c" x="546" y="66" rx="2" ry="2"/><rect class="c" x="546" y="82" rx="2" ry="2"/><rect class="c" x="546" y="98" rx="2" ry="2"/><rect class="c" x="562" y="2" rx="2" ry="2"/><rect class="c" x="562" y="18" rx="2" ry="2"/><rect class="c" x="562" y="34" rx="2" ry="2"/><rect class="c" x="562" y="50" rx="2" ry="2"/><rect class="c" x="562" y="66" rx="2" ry="2"/><rect class="c" x="562" y="82" rx="2" ry="2"/><rect class="c" x="562" y="98" rx="2" ry="2"/><rect class="c" x="578" y="2" rx="2" ry="2"/><rect class="c" x="578" y="18" rx="2" ry="2"/><rect class="c" x="578" y="34" rx="2" ry="2"/><rect class="c" x="578" y="50" rx="2" ry="2"/><rect class="c" x="578" y="66" rx="2" ry="2"/><rect class="c" x="578" y="82" rx="2" ry="2"/><rect class="c" x="578" y="98" rx="2" ry="2"/><rect class="c" x="594" y="2" rx="2" ry="2"/><rect class="c" x="594" y="18" rx="2" ry="2"/><rect class="c" x="594" y="34" rx="2" ry="2"/><rect class="c" x="594" y="50" rx="2" ry="2"/><rect class="c c7" x="594" y="66" rx="2" ry="2"/><rect class="c" x="594" y="82" rx="2" ry="2"/><rect class="c c8" x="594" y="98" rx="2" ry="2"/><rect class="c c9" x="610" y="2" rx="2" ry="2"/><rect class="c" x="610" y="18" rx="2" ry="2"/><rect class="c" x="610" y="34" rx="2" ry="2"/><rect class="c ca" x="610" y="50" rx="2" ry="2"/><rect class="c" x="610" y="66" rx="2" ry="2"/><rect class="c" x="610" y="82" rx="2" ry="2"/><rect class="c" x="610" y="98" rx="2" ry="2"/><rect class="c" x="626" y="2" rx="2" ry="2"/><rect class="c cb" x="626" y="18" rx="2" ry="2"/><rect class="c" x="626" y="34" rx="2" ry="2"/><rect class="c" x="626" y="50" rx="2" ry="2"/><rect class="c" x="626" y="66" rx="2" ry="2"/><rect class="c cc" x="626" y="82" rx="2" ry="2"/><rect class="c cd" x="626" y="98" rx="2" ry="2"/><rect class="c" x="642" y="2" rx="2" ry="2"/><rect class="c" x="642" y="18" rx="2" ry="2"/><rect class="c" x="642" y="34" rx="2" ry="2"/><rect class="c" x="642" y="50" rx="2" ry="2"/><rect class="c" x="642" y="66" rx="2" ry="2"/><rect class="c" x="642" y="82" rx="2" ry="2"/><rect class="c" x="642" y="98" rx="2" ry="2"/><rect class="c" x="658" y="2" rx="2" ry="2"/><rect class="c" x="658" y="18" rx="2" ry="2"/><rect class="c ce" x="658" y="34" rx="2" ry="2"/><rect class="c cf" x="658" y="50" rx="2" ry="2"/><rect class="c cg" x="658" y="66" rx="2" ry="2"/><rect class="c ch" x="658" y="82" rx="2" ry="2"/><rect class="c ci" x="658" y="98" rx="2" ry="2"/><rect class="c cj" x="674" y="2" rx="2" ry="2"/><rect class="c ck" x="674" y="18" rx="2" ry="2"/><rect class="c cl" x="674" y="34" rx="2" ry="2"/><rect class="c cm" x="674" y="50" rx="2" ry="2"/><rect class="c cn" x="674" y="66" rx="2" ry="2"/><rect class="c co" x="674" y="82" rx="2" ry="2"/><rect class="c cp" x="674" y="98" rx="2" ry="2"/><rect class="c cq" x="690" y="2" rx="2" ry="2"/><rect class="c cr" x="690" y="18" rx="2" ry="2"/><rect class="c cs" x="690" y="34" rx="2" ry="2"/><rect class="c ct" x="690" y="50" rx="2" ry="2"/><rect class="c cu" x="690" y="66" rx="2" ry="2"/><rect class="c cv" x="690" y="82" rx="2" ry="2"/><rect class="c cw" x="690" y="98" rx="2" ry="2"/><rect class="c cx" x="706" y="2" rx="2" ry="2"/><rect class="c cy" x="706" y="18" rx="2" ry="2"/><rect class="c cz" x="706" y="34" rx="2" ry="2"/><rect class="c c10" x="706" y="50" rx="2" ry="2"/><rect class="c c11" x="706" y="66" rx="2" ry="2"/><rect class="c c12" x="706" y="82" rx="2" ry="2"/><rect class="c c13" x="706" y="98" rx="2" ry="2"/><rect class="c c14" x="722" y="2" rx="2" ry="2"/><rect class="c c15" x="722" y="18" rx="2" ry="2"/><rect class="c c16" x="722" y="34" rx="2" ry="2"/><rect class="c c17" x="722" y="50" rx="2" ry="2"/><rect class="c c18" x="722" y="66" rx="2" ry="2"/><rect class="c c19" x="722" y="82" rx="2" ry="2"/><rect class="c c1a" x="722" y="98" rx="2" ry="2"/><rect class="c c1b" x="738" y="2" rx="2" ry="2"/><rect class="c c1c" x="738" y="18" rx="2" ry="2"/><rect class="c c1d" x="738" y="34" rx="2" ry="2"/><rect class="c c1e" x="738" y="50" rx="2" ry="2"/><rect class="c c1f" x="738" y="66" rx="2" ry="2"/><rect class="c c1g" x="738" y="82" rx="2" ry="2"/><rect class="c c1h" x="738" y="98" rx="2" ry="2"/><rect class="c c1i" x="754" y="2" rx="2" ry="2"/><rect class="c c1j" x="754" y="18" rx="2" ry="2"/><rect class="c c1k" x="754" y="34" rx="2" ry="2"/><rect class="c c1l" x="754" y="50" rx="2" ry="2"/><rect class="c c1m" x="754" y="66" rx="2" ry="2"/><rect class="c c1n" x="754" y="82" rx="2" ry="2"/><rect class="c c1o" x="754" y="98" rx="2" ry="2"/><rect class="c c1p" x="770" y="2" rx="2" ry="2"/><rect class="c c1q" x="770" y="18" rx="2" ry="2"/><rect class="c c1r" x="770" y="34" rx="2" ry="2"/><rect class="c c1s" x="770" y="50" rx="2" ry="2"/><rect class="c c1t" x="770" y="66" rx="2" ry="2"/><rect class="c c1u" x="770" y="82" rx="2" ry="2"/><rect class="c c1v" x="770" y="98" rx="2" ry="2"/><rect class="c c1w" x="786" y="2" rx="2" ry="2"/><rect class="c c1x" x="786" y="18" rx="2" ry="2"/><rect class="c c1y" x="786" y="34" rx="2" ry="2"/><rect class="c c1z" x="786" y="50" rx="2" ry="2"/><rect class="c c20" x="786" y="66" rx="2" ry="2"/><rect class="c c21" x="786" y="82" rx="2" ry="2"/><rect class="c c22" x="786" y="98" rx="2" ry="2"/><rect class="c c23" x="802" y="2" rx="2" ry="2"/><rect class="c c24" x="802" y="18" rx="2" ry="2"/><rect class="c c25" x="802" y="34" rx="2" ry="2"/><rect class="c c26" x="802" y="50" rx="2" ry="2"/><rect class="c c27" x="802" y="66" rx="2" ry="2"/><rect class="c c28" x="802" y="82" rx="2" ry="2"/><rect class="c c29" x="802" y="98" rx="2" ry="2"/><rect class="c c2a" x="818" y="2" rx="2" ry="2"/><rect class="c c2b" x="818" y="18" rx="2" ry="2"/><rect class="c c2c" x="818" y="34" rx="2" ry="2"/><rect class="c c2d" x="818" y="50" rx="2" ry="2"/><rect class="c c2e" x="818" y="66" rx="2" ry="2"/><rect class="c c2f" x="818" y="82" rx="2" ry="2"/><rect class="c c2g" x="818" y="98" rx="2" ry="2"/><rect class="c c2h" x="834" y="2" rx="2" ry="2"/><rect class="c c2i" x="834" y="18" rx="2" ry="2"/><rect class="c c2j" x="834" y="34" rx="2" ry="2"/><rect class="u u0" height="12" width="92.8" x="0.0" y="144"/><rect class="u u1" height="12" width="498.3" x="92.2" y="144"/><rect class="u u2" height="12" width="258.7" x="589.9" y="144"/><rect class="s s0" x="0.8" y="0.8" width="14.4" height="14.4" rx="4.5" ry="4.5"/><rect class="s s1" x="1.8" y="1.8" width="12.3" height="12.3" rx="4.1" ry="4.1"/><rect class="s s2" x="2.6" y="2.6" width="10.8" height="10.8" rx="3.6" ry="3.6"/><rect class="s s3" x="3.0" y="3.0" width="9.9" height="9.9" rx="3.3" ry="3.3"/></svg>