<svg viewBox="-16 -32 880 192" width="880" height="192" xmlns="http://www.w3.org/2000/svg"><desc>Generated with https://github.com/Platane/snk</desc><style>:root{--cb:#1b1f230a;--cs:purple;--ce:#161b22;--c0:#161b22;--c1:#01311f;--c2:#034525;--c3:#0f6d31;--c4:#00c647}.c{shape-rendering:geometricPrecision;fill:var(--ce);stroke-width:1px;stroke:var(--cb);animation:none 33100ms linear infinite;width:12px;height:12px}@keyframes c0{5.73%{fill:var(--c1)}5.75%,100%{fill:var(--ce)}}.c.c0{fill:var(--c1);animation-name:c0}@keyframes c1{56.18%{fill:var(--c2)}56.2%,100%{fill:var(--ce)}}.c.c1{fill:var(--c2);animation-name:c1}@keyframes c2{3.62%{fill:var(--c1)}3.64%,100%{fill:var(--ce)}}.c.c2{fill:var(--c1);animation-name:c2}@keyframes c3{3.92%{fill:var(--c1)}3.94%,100%{fill:var(--ce)}}.c.c3{fill:var(--c1);animation-name:c3}@keyframes c4{53.46%{fill:var(--c2)}53.48%,100%{fill:var(--ce)}}.c.c4{fill:var(--c2);animation-name:c4}@keyframes c5{61.32%{fill:var(--c4)}61.34%,100%{fill:var(--ce)}}.c.c5{fill:var(--c4);animation-name:c5}@keyframes c6{11.17%{fill:var(--c1)}11.19%,100%{fill:var(--ce)}}.c.c6{fill:var(--c1);animation-name:c6}@keyframes c7{15.1%{fill:var(--c1)}15.12%,100%{fill:var(--ce)}}.c.c7{fill:var(--c1);animation-name:c7}@keyframes c8{47.12%{fill:var(--c2)}47.14%,100%{fill:var(--ce)}}.c.c8{fill:var(--c2);animation-name:c8}@keyframes c9{88.51%{fill:var(--c4)}88.53%,100%{fill:var(--ce)}}.c.c9{fill:var(--c4);animation-name:c9}@keyframes ca{14.49%{fill:var(--c1)}14.51%,100%{fill:var(--ce)}}.c.ca{fill:var(--c1);animation-name:ca}@keyframes cb{18.42%{fill:var(--c1)}18.44%,100%{fill:var(--ce)}}.c.cb{fill:var(--c1);animation-name:cb}@keyframes cc{16%{fill:var(--c1)}16.02%,100%{fill:var(--ce)}}.c.cc{fill:var(--c1);animation-name:cc}@keyframes cd{16.3%{fill:var(--c1)}16.32%,100%{fill:var(--ce)}}.c.cd{fill:var(--c1);animation-name:cd}@keyframes ce{66.46%{fill:var(--c4)}66.48%,100%{fill:var(--ce)}}.c.ce{fill:var(--c4);animation-name:ce}@keyframes cf{66.15%{fill:var(--c4)}66.17%,100%{fill:var(--ce)}}.c.cf{fill:var(--c4);animation-name:cf}@keyframes cg{42.89%{fill:var(--c2)}42.91%,100%{fill:var(--ce)}}.c.cg{fill:var(--c2);animation-name:cg}@keyframes ch{43.19%{fill:var(--c2)}43.21%,100%{fill:var(--ce)}}.c.ch{fill:var(--c2);animation-name:ch}@keyframes ci{45.91%{fill:var(--c2)}45.93%,100%{fill:var(--ce)}}.c.ci{fill:var(--c2);animation-name:ci}@keyframes cj{33.52%{fill:var(--c2)}33.54%,100%{fill:var(--ce)}}.c.cj{fill:var(--c2);animation-name:cj}@keyframes ck{33.83%{fill:var(--c2)}33.85%,100%{fill:var(--ce)}}.c.ck{fill:var(--c2);animation-name:ck}@keyframes cl{34.13%{fill:var(--c2)}34.15%,100%{fill:var(--ce)}}.c.cl{fill:var(--c2);animation-name:cl}@keyframes cm{42.29%{fill:var(--c2)}42.31%,100%{fill:var(--ce)}}.c.cm{fill:var(--c2);animation-name:cm}@keyframes cn{42.59%{fill:var(--c2)}42.61%,100%{fill:var(--ce)}}.c.cn{fill:var(--c2);animation-name:cn}@keyframes co{43.49%{fill:var(--c2)}43.51%,100%{fill:var(--ce)}}.c.co{fill:var(--c2);animation-name:co}@keyframes cp{45.61%{fill:var(--c2)}45.63%,100%{fill:var(--ce)}}.c.cp{fill:var(--c2);animation-name:cp}@keyframes cq{33.22%{fill:var(--c2)}33.24%,100%{fill:var(--ce)}}.c.cq{fill:var(--c2);animation-name:cq}@keyframes cr{67.36%{fill:var(--c4)}67.38%,100%{fill:var(--ce)}}.c.cr{fill:var(--c4);animation-name:cr}@keyframes cs{34.43%{fill:var(--c2)}34.45%,100%{fill:var(--ce)}}.c.cs{fill:var(--c2);animation-name:cs}@keyframes ct{41.98%{fill:var(--c2)}42%,100%{fill:var(--ce)}}.c.ct{fill:var(--c2);animation-name:ct}@keyframes cu{41.68%{fill:var(--c2)}41.7%,100%{fill:var(--ce)}}.c.cu{fill:var(--c2);animation-name:cu}@keyframes cv{43.8%{fill:var(--c2)}43.82%,100%{fill:var(--ce)}}.c.cv{fill:var(--c2);animation-name:cv}@keyframes cw{44.1%{fill:var(--c2)}44.12%,100%{fill:var(--ce)}}.c.cw{fill:var(--c2);animation-name:cw}@keyframes cx{32.92%{fill:var(--c2)}32.94%,100%{fill:var(--ce)}}.c.cx{fill:var(--c2);animation-name:cx}@keyframes cy{36.85%{fill:var(--c2)}36.87%,100%{fill:var(--ce)}}.c.cy{fill:var(--c2);animation-name:cy}@keyframes cz{34.73%{fill:var(--c2)}34.75%,100%{fill:var(--ce)}}.c.cz{fill:var(--c2);animation-name:cz}@keyframes c10{37.45%{fill:var(--c2)}37.47%,100%{fill:var(--ce)}}.c.c10{fill:var(--c2);animation-name:c10}@keyframes c11{41.38%{fill:var(--c2)}41.4%,100%{fill:var(--ce)}}.c.c11{fill:var(--c2);animation-name:c11}@keyframes c12{41.08%{fill:var(--c2)}41.1%,100%{fill:var(--ce)}}.c.c12{fill:var(--c2);animation-name:c12}@keyframes c13{44.4%{fill:var(--c2)}44.42%,100%{fill:var(--ce)}}.c.c13{fill:var(--c2);animation-name:c13}@keyframes c14{32.62%{fill:var(--c2)}32.64%,100%{fill:var(--ce)}}.c.c14{fill:var(--c2);animation-name:c14}@keyframes c15{36.55%{fill:var(--c2)}36.57%,100%{fill:var(--ce)}}.c.c15{fill:var(--c2);animation-name:c15}@keyframes c16{35.04%{fill:var(--c2)}35.06%,100%{fill:var(--ce)}}.c.c16{fill:var(--c2);animation-name:c16}@keyframes c17{37.75%{fill:var(--c2)}37.77%,100%{fill:var(--ce)}}.c.c17{fill:var(--c2);animation-name:c17}@keyframes c18{68.87%{fill:var(--c4)}68.89%,100%{fill:var(--ce)}}.c.c18{fill:var(--c4);animation-name:c18}@keyframes c19{40.78%{fill:var(--c2)}40.8%,100%{fill:var(--ce)}}.c.c19{fill:var(--c2);animation-name:c19}@keyframes c1a{40.47%{fill:var(--c2)}40.49%,100%{fill:var(--ce)}}.c.c1a{fill:var(--c2);animation-name:c1a}@keyframes c1b{32.32%{fill:var(--c2)}32.34%,100%{fill:var(--ce)}}.c.c1b{fill:var(--c2);animation-name:c1b}@keyframes c1c{36.24%{fill:var(--c2)}36.26%,100%{fill:var(--ce)}}.c.c1c{fill:var(--c2);animation-name:c1c}@keyframes c1d{35.34%{fill:var(--c2)}35.36%,100%{fill:var(--ce)}}.c.c1d{fill:var(--c2);animation-name:c1d}@keyframes c1e{38.06%{fill:var(--c2)}38.08%,100%{fill:var(--ce)}}.c.c1e{fill:var(--c2);animation-name:c1e}@keyframes c1f{38.96%{fill:var(--c2)}38.98%,100%{fill:var(--ce)}}.c.c1f{fill:var(--c2);animation-name:c1f}@keyframes c1g{39.26%{fill:var(--c2)}39.28%,100%{fill:var(--ce)}}.c.c1g{fill:var(--c2);animation-name:c1g}@keyframes c1h{40.17%{fill:var(--c2)}40.19%,100%{fill:var(--ce)}}.c.c1h{fill:var(--c2);animation-name:c1h}@keyframes c1i{32.01%{fill:var(--c2)}32.03%,100%{fill:var(--ce)}}.c.c1i{fill:var(--c2);animation-name:c1i}@keyframes c1j{35.94%{fill:var(--c2)}35.96%,100%{fill:var(--ce)}}.c.c1j{fill:var(--c2);animation-name:c1j}@keyframes c1k{35.64%{fill:var(--c2)}35.66%,100%{fill:var(--ce)}}.c.c1k{fill:var(--c2);animation-name:c1k}@keyframes c1l{38.36%{fill:var(--c2)}38.38%,100%{fill:var(--ce)}}.c.c1l{fill:var(--c2);animation-name:c1l}@keyframes c1m{38.66%{fill:var(--c2)}38.68%,100%{fill:var(--ce)}}.c.c1m{fill:var(--c2);animation-name:c1m}@keyframes c1n{39.57%{fill:var(--c2)}39.59%,100%{fill:var(--ce)}}.c.c1n{fill:var(--c2);animation-name:c1n}@keyframes c1o{39.87%{fill:var(--c2)}39.89%,100%{fill:var(--ce)}}.c.c1o{fill:var(--c2);animation-name:c1o}@keyframes c1p{30.5%{fill:var(--c2)}30.52%,100%{fill:var(--ce)}}.c.c1p{fill:var(--c2);animation-name:c1p}@keyframes c1q{30.2%{fill:var(--c2)}30.22%,100%{fill:var(--ce)}}.c.c1q{fill:var(--c2);animation-name:c1q}@keyframes c1r{29.9%{fill:var(--c2)}29.92%,100%{fill:var(--ce)}}.c.c1r{fill:var(--c2);animation-name:c1r}@keyframes c1s{29.6%{fill:var(--c2)}29.62%,100%{fill:var(--ce)}}.c.c1s{fill:var(--c2);animation-name:c1s}@keyframes c1t{29.3%{fill:var(--c2)}29.32%,100%{fill:var(--ce)}}.c.c1t{fill:var(--c2);animation-name:c1t}@keyframes c1u{28.99%{fill:var(--c2)}29.01%,100%{fill:var(--ce)}}.c.c1u{fill:var(--c2);animation-name:c1u}@keyframes c1v{28.69%{fill:var(--c2)}28.71%,100%{fill:var(--ce)}}.c.c1v{fill:var(--c2);animation-name:c1v}@keyframes c1w{30.81%{fill:var(--c2)}30.83%,100%{fill:var(--ce)}}.c.c1w{fill:var(--c2);animation-name:c1w}@keyframes c1x{77.03%{fill:var(--c4)}77.05%,100%{fill:var(--ce)}}.c.c1x{fill:var(--c4);animation-name:c1x}@keyframes c1y{76.73%{fill:var(--c4)}76.75%,100%{fill:var(--ce)}}.c.c1y{fill:var(--c4);animation-name:c1y}@keyframes c1z{84.28%{fill:var(--c4)}84.3%,100%{fill:var(--ce)}}.c.c1z{fill:var(--c4);animation-name:c1z}@keyframes c20{70.08%{fill:var(--c4)}70.1%,100%{fill:var(--ce)}}.c.c20{fill:var(--c4);animation-name:c20}@keyframes c21{80.65%{fill:var(--c4)}80.67%,100%{fill:var(--ce)}}.c.c21{fill:var(--c4);animation-name:c21}@keyframes c22{80.96%{fill:var(--c4)}80.98%,100%{fill:var(--ce)}}.c.c22{fill:var(--c4);animation-name:c22}@keyframes c23{74.01%{fill:var(--c4)}74.03%,100%{fill:var(--ce)}}.c.c23{fill:var(--c4);animation-name:c23}@keyframes c24{74.31%{fill:var(--c4)}74.33%,100%{fill:var(--ce)}}.c.c24{fill:var(--c4);animation-name:c24}@keyframes c25{76.43%{fill:var(--c4)}76.45%,100%{fill:var(--ce)}}.c.c25{fill:var(--c4);animation-name:c25}@keyframes c26{77.94%{fill:var(--c4)}77.96%,100%{fill:var(--ce)}}.c.c26{fill:var(--c4);animation-name:c26}@keyframes c27{70.38%{fill:var(--c4)}70.4%,100%{fill:var(--ce)}}.c.c27{fill:var(--c4);animation-name:c27}@keyframes c28{80.35%{fill:var(--c4)}80.37%,100%{fill:var(--ce)}}.c.c28{fill:var(--c4);animation-name:c28}@keyframes c29{81.26%{fill:var(--c4)}81.28%,100%{fill:var(--ce)}}.c.c29{fill:var(--c4);animation-name:c29}@keyframes c2a{73.71%{fill:var(--c4)}73.73%,100%{fill:var(--ce)}}.c.c2a{fill:var(--c4);animation-name:c2a}@keyframes c2b{74.61%{fill:var(--c4)}74.63%,100%{fill:var(--ce)}}.c.c2b{fill:var(--c4);animation-name:c2b}@keyframes c2c{76.12%{fill:var(--c4)}76.14%,100%{fill:var(--ce)}}.c.c2c{fill:var(--c4);animation-name:c2c}@keyframes c2d{78.24%{fill:var(--c4)}78.26%,100%{fill:var(--ce)}}.c.c2d{fill:var(--c4);animation-name:c2d}@keyframes c2e{70.68%{fill:var(--c4)}70.7%,100%{fill:var(--ce)}}.c.c2e{fill:var(--c4);animation-name:c2e}@keyframes c2f{80.05%{fill:var(--c4)}80.07%,100%{fill:var(--ce)}}.c.c2f{fill:var(--c4);animation-name:c2f}@keyframes c2g{81.56%{fill:var(--c4)}81.58%,100%{fill:var(--ce)}}.c.c2g{fill:var(--c4);animation-name:c2g}@keyframes c2h{73.4%{fill:var(--c4)}73.42%,100%{fill:var(--ce)}}.c.c2h{fill:var(--c4);animation-name:c2h}@keyframes c2i{74.91%{fill:var(--c4)}74.93%,100%{fill:var(--ce)}}.c.c2i{fill:var(--c4);animation-name:c2i}@keyframes c2j{75.82%{fill:var(--c4)}75.84%,100%{fill:var(--ce)}}.c.c2j{fill:var(--c4);animation-name:c2j}@keyframes c2k{78.54%{fill:var(--c4)}78.56%,100%{fill:var(--ce)}}.c.c2k{fill:var(--c4);animation-name:c2k}@keyframes c2l{70.99%{fill:var(--c4)}71.01%,100%{fill:var(--ce)}}.c.c2l{fill:var(--c4);animation-name:c2l}@keyframes c2m{79.75%{fill:var(--c4)}79.77%,100%{fill:var(--ce)}}.c.c2m{fill:var(--c4);animation-name:c2m}@keyframes c2n{81.86%{fill:var(--c4)}81.88%,100%{fill:var(--ce)}}.c.c2n{fill:var(--c4);animation-name:c2n}@keyframes c2o{73.1%{fill:var(--c4)}73.12%,100%{fill:var(--ce)}}.c.c2o{fill:var(--c4);animation-name:c2o}@keyframes c2p{75.22%{fill:var(--c4)}75.24%,100%{fill:var(--ce)}}.c.c2p{fill:var(--c4);animation-name:c2p}@keyframes c2q{75.52%{fill:var(--c4)}75.54%,100%{fill:var(--ce)}}.c.c2q{fill:var(--c4);animation-name:c2q}@keyframes c2r{78.84%{fill:var(--c4)}78.86%,100%{fill:var(--ce)}}.c.c2r{fill:var(--c4);animation-name:c2r}@keyframes c2s{71.29%{fill:var(--c4)}71.31%,100%{fill:var(--ce)}}.c.c2s{fill:var(--c4);animation-name:c2s}@keyframes c2t{79.45%{fill:var(--c4)}79.47%,100%{fill:var(--ce)}}.c.c2t{fill:var(--c4);animation-name:c2t}@keyframes c2u{82.17%{fill:var(--c4)}82.19%,100%{fill:var(--ce)}}.c.c2u{fill:var(--c4);animation-name:c2u}@keyframes c2v{72.8%{fill:var(--c4)}72.82%,100%{fill:var(--ce)}}.c.c2v{fill:var(--c4);animation-name:c2v}@keyframes c2w{72.5%{fill:var(--c4)}72.52%,100%{fill:var(--ce)}}.c.c2w{fill:var(--c4);animation-name:c2w}@keyframes c2x{72.2%{fill:var(--c4)}72.22%,100%{fill:var(--ce)}}.c.c2x{fill:var(--c4);animation-name:c2x}@keyframes c2y{71.89%{fill:var(--c4)}71.91%,100%{fill:var(--ce)}}.c.c2y{fill:var(--c4);animation-name:c2y}@keyframes c2z{71.59%{fill:var(--c4)}71.61%,100%{fill:var(--ce)}}.c.c2z{fill:var(--c4);animation-name:c2z}@keyframes c30{25.37%{fill:var(--c1)}25.39%,100%{fill:var(--ce)}}.c.c30{fill:var(--c1);animation-name:c30}.u{transform-origin:0 0;transform:scale(0,1);animation:none linear 33100ms infinite}@keyframes u0{3.62%{transform:scale(0.000,1)}3.64%,3.92%{transform:scale(0.100,1)}3.94%,5.73%{transform:scale(0.200,1)}5.75%,11.17%{transform:scale(0.300,1)}11.19%,14.49%{transform:scale(0.400,1)}14.51%,15.1%{transform:scale(0.500,1)}15.12%,16%{transform:scale(0.600,1)}16.02%,16.3%{transform:scale(0.700,1)}16.32%,18.42%{transform:scale(0.800,1)}18.44%,25.37%{transform:scale(0.900,1)}25.39%,100%{transform:scale(1.000,1)}}.u.u0{fill:var(--c1);animation-name:u0;transform-origin:0.0px 0}@keyframes u1{28.69%{transform:scale(0.000,1)}28.71%,28.99%{transform:scale(0.019,1)}29.01%,29.3%{transform:scale(0.037,1)}29.32%,29.6%{transform:scale(0.056,1)}29.62%,29.9%{transform:scale(0.074,1)}29.92%,30.2%{transform:scale(0.093,1)}30.22%,30.5%{transform:scale(0.111,1)}30.52%,30.81%{transform:scale(0.130,1)}30.83%,32.01%{transform:scale(0.148,1)}32.03%,32.32%{transform:scale(0.167,1)}32.34%,32.62%{transform:scale(0.185,1)}32.64%,32.92%{transform:scale(0.204,1)}32.94%,33.22%{transform:scale(0.222,1)}33.24%,33.52%{transform:scale(0.241,1)}33.54%,33.83%{transform:scale(0.259,1)}33.85%,34.13%{transform:scale(0.278,1)}34.15%,34.43%{transform:scale(0.296,1)}34.45%,34.73%{transform:scale(0.315,1)}34.75%,35.04%{transform:scale(0.333,1)}35.06%,35.34%{transform:scale(0.352,1)}35.36%,35.64%{transform:scale(0.370,1)}35.66%,35.94%{transform:scale(0.389,1)}35.96%,36.24%{transform:scale(0.407,1)}36.26%,36.55%{transform:scale(0.426,1)}36.57%,36.85%{transform:scale(0.444,1)}36.87%,37.45%{transform:scale(0.463,1)}37.47%,37.75%{transform:scale(0.481,1)}37.77%,38.06%{transform:scale(0.500,1)}38.08%,38.36%{transform:scale(0.519,1)}38.38%,38.66%{transform:scale(0.537,1)}38.68%,38.96%{transform:scale(0.556,1)}38.98%,39.26%{transform:scale(0.574,1)}39.28%,39.57%{transform:scale(0.593,1)}39.59%,39.87%{transform:scale(0.611,1)}39.89%,40.17%{transform:scale(0.630,1)}40.19%,40.47%{transform:scale(0.648,1)}40.49%,40.78%{transform:scale(0.667,1)}40.8%,41.08%{transform:scale(0.685,1)}41.1%,41.38%{transform:scale(0.704,1)}41.4%,41.68%{transform:scale(0.722,1)}41.7%,41.98%{transform:scale(0.741,1)}42%,42.29%{transform:scale(0.759,1)}42.31%,42.59%{transform:scale(0.778,1)}42.61%,42.89%{transform:scale(0.796,1)}42.91%,43.19%{transform:scale(0.815,1)}43.21%,43.49%{transform:scale(0.833,1)}43.51%,43.8%{transform:scale(0.852,1)}43.82%,44.1%{transform:scale(0.870,1)}44.12%,44.4%{transform:scale(0.889,1)}44.42%,45.61%{transform:scale(0.907,1)}45.63%,45.91%{transform:scale(0.926,1)}45.93%,47.12%{transform:scale(0.944,1)}47.14%,53.46%{transform:scale(0.963,1)}53.48%,56.18%{transform:scale(0.981,1)}56.2%,100%{transform:scale(1.000,1)}}.u.u1{fill:var(--c2);animation-name:u1;transform-origin:77.8px 0}@keyframes u2{61.32%{transform:scale(0.000,1)}61.34%,66.15%{transform:scale(0.022,1)}66.17%,66.46%{transform:scale(0.044,1)}66.48%,67.36%{transform:scale(0.067,1)}67.38%,68.87%{transform:scale(0.089,1)}68.89%,70.08%{transform:scale(0.111,1)}70.1%,70.38%{transform:scale(0.133,1)}70.4%,70.68%{transform:scale(0.156,1)}70.7%,70.99%{transform:scale(0.178,1)}71.01%,71.29%{transform:scale(0.200,1)}71.31%,71.59%{transform:scale(0.222,1)}71.61%,71.89%{transform:scale(0.244,1)}71.91%,72.2%{transform:scale(0.267,1)}72.22%,72.5%{transform:scale(0.289,1)}72.52%,72.8%{transform:scale(0.311,1)}72.82%,73.1%{transform:scale(0.333,1)}73.12%,73.4%{transform:scale(0.356,1)}73.42%,73.71%{transform:scale(0.378,1)}73.73%,74.01%{transform:scale(0.400,1)}74.03%,74.31%{transform:scale(0.422,1)}74.33%,74.61%{transform:scale(0.444,1)}74.63%,74.91%{transform:scale(0.467,1)}74.93%,75.22%{transform:scale(0.489,1)}75.24%,75.52%{transform:scale(0.511,1)}75.54%,75.82%{transform:scale(0.533,1)}75.84%,76.12%{transform:scale(0.556,1)}76.14%,76.43%{transform:scale(0.578,1)}76.45%,76.73%{transform:scale(0.600,1)}76.75%,77.03%{transform:scale(0.622,1)}77.05%,77.94%{transform:scale(0.644,1)}77.96%,78.24%{transform:scale(0.667,1)}78.26%,78.54%{transform:scale(0.689,1)}78.56%,78.84%{transform:scale(0.711,1)}78.86%,79.45%{transform:scale(0.733,1)}79.47%,79.75%{transform:scale(0.756,1)}79.77%,80.05%{transform:scale(0.778,1)}80.07%,80.35%{transform:scale(0.800,1)}80.37%,80.65%{transform:scale(0.822,1)}80.67%,80.96%{transform:scale(0.844,1)}80.98%,81.26%{transform:scale(0.867,1)}81.28%,81.56%{transform:scale(0.889,1)}81.58%,81.86%{transform:scale(0.911,1)}81.88%,82.17%{transform:scale(0.933,1)}82.19%,84.28%{transform:scale(0.956,1)}84.3%,88.51%{transform:scale(0.978,1)}88.53%,100%{transform:scale(1.000,1)}}.u.u2{fill:var(--c4);animation-name:u2;transform-origin:497.9px 0}.s{shape-rendering:geometricPrecision;fill:var(--cs);animation:none linear 33100ms infinite}@keyframes s0{0%,99.7%{transform:translate(0px,-16px)}0.3%{transform:translate(0px,0px)}3.63%{transform:translate(176px,0px)}3.93%{transform:translate(176px,16px)}4.53%{transform:translate(144px,16px)}5.74%{transform:translate(144px,80px)}10.57%{transform:translate(400px,80px)}11.18%{transform:translate(400px,48px)}14.5%{transform:translate(576px,48px)}14.8%{transform:translate(576px,64px)}15.11%{transform:translate(560px,64px)}15.41%,47.43%{transform:translate(560px,80px)}16.01%{transform:translate(592px,80px)}16.31%{transform:translate(592px,96px)}16.62%{transform:translate(608px,96px)}18.13%{transform:translate(608px,16px)}18.43%{transform:translate(592px,16px)}18.73%{transform:translate(592px,32px)}19.03%{transform:translate(608px,32px)}20.54%{transform:translate(608px,112px)}24.77%,26.59%{transform:translate(832px,112px)}25.38%{transform:translate(832px,80px)}25.68%{transform:translate(848px,80px)}25.98%{transform:translate(848px,96px)}26.28%{transform:translate(832px,96px)}28.4%{transform:translate(736px,112px)}30.51%{transform:translate(736px,0px)}30.82%,85.2%{transform:translate(752px,0px)}31.12%{transform:translate(752px,-16px)}31.72%{transform:translate(720px,-16px)}32.02%{transform:translate(720px,0px)}33.53%{transform:translate(640px,0px)}34.14%{transform:translate(640px,32px)}35.65%{transform:translate(720px,32px)}35.95%{transform:translate(720px,16px)}36.86%{transform:translate(672px,16px)}37.46%{transform:translate(672px,48px)}38.37%{transform:translate(720px,48px)}38.67%{transform:translate(720px,64px)}38.97%{transform:translate(704px,64px)}39.27%{transform:translate(704px,80px)}39.58%{transform:translate(720px,80px)}39.88%{transform:translate(720px,96px)}40.48%{transform:translate(688px,96px)}40.79%{transform:translate(688px,80px)}41.09%,44.71%{transform:translate(672px,80px)}41.39%{transform:translate(672px,64px)}41.69%{transform:translate(656px,64px)}41.99%{transform:translate(656px,48px)}42.3%{transform:translate(640px,48px)}42.6%{transform:translate(640px,64px)}42.9%,65.86%{transform:translate(624px,64px)}43.2%{transform:translate(624px,80px)}43.81%{transform:translate(656px,80px)}44.11%{transform:translate(656px,96px)}44.41%{transform:translate(672px,96px)}45.32%{transform:translate(640px,80px)}45.62%{transform:translate(640px,96px)}47.13%{transform:translate(560px,96px)}51.06%{transform:translate(368px,80px)}51.36%{transform:translate(368px,64px)}55.59%{transform:translate(144px,64px)}56.19%{transform:translate(144px,96px)}60.73%{transform:translate(384px,96px)}61.33%{transform:translate(384px,64px)}66.47%{transform:translate(624px,32px)}67.07%{transform:translate(656px,32px)}67.37%{transform:translate(656px,16px)}67.98%{transform:translate(688px,16px)}68.88%{transform:translate(688px,64px)}71.6%{transform:translate(832px,64px)}72.81%{transform:translate(832px,0px)}74.02%{transform:translate(768px,0px)}74.32%,77.34%{transform:translate(768px,16px)}75.23%{transform:translate(816px,16px)}75.53%{transform:translate(816px,32px)}76.74%{transform:translate(752px,32px)}77.04%{transform:translate(752px,16px)}77.95%{transform:translate(768px,48px)}78.85%,83.08%{transform:translate(816px,48px)}79.46%{transform:translate(816px,80px)}80.66%{transform:translate(752px,80px)}80.97%{transform:translate(752px,96px)}82.18%{transform:translate(816px,96px)}84.29%{transform:translate(752px,48px)}98.19%{transform:translate(64px,0px)}98.49%{transform:translate(64px,-16px)}}.s.s0{transform:translate(0px,-16px);animation-name:s0}@keyframes s1{0%,99.7%{transform:translate(16px,-16px)}0.3%{transform:translate(0px,-16px)}0.6%{transform:translate(0px,0px)}3.93%{transform:translate(176px,0px)}4.23%{transform:translate(176px,16px)}4.83%{transform:translate(144px,16px)}6.04%{transform:translate(144px,80px)}10.88%{transform:translate(400px,80px)}11.48%{transform:translate(400px,48px)}14.8%{transform:translate(576px,48px)}15.11%{transform:translate(576px,64px)}15.41%{transform:translate(560px,64px)}15.71%,47.73%{transform:translate(560px,80px)}16.31%{transform:translate(592px,80px)}16.62%{transform:translate(592px,96px)}16.92%{transform:translate(608px,96px)}18.43%{transform:translate(608px,16px)}18.73%{transform:translate(592px,16px)}19.03%{transform:translate(592px,32px)}19.34%{transform:translate(608px,32px)}20.85%{transform:translate(608px,112px)}25.08%,26.89%{transform:translate(832px,112px)}25.68%{transform:translate(832px,80px)}25.98%{transform:translate(848px,80px)}26.28%{transform:translate(848px,96px)}26.59%{transform:translate(832px,96px)}28.7%{transform:translate(736px,112px)}30.82%{transform:translate(736px,0px)}31.12%,85.5%{transform:translate(752px,0px)}31.42%{transform:translate(752px,-16px)}32.02%{transform:translate(720px,-16px)}32.33%{transform:translate(720px,0px)}33.84%{transform:translate(640px,0px)}34.44%{transform:translate(640px,32px)}35.95%{transform:translate(720px,32px)}36.25%{transform:translate(720px,16px)}37.16%{transform:translate(672px,16px)}37.76%{transform:translate(672px,48px)}38.67%{transform:translate(720px,48px)}38.97%{transform:translate(720px,64px)}39.27%{transform:translate(704px,64px)}39.58%{transform:translate(704px,80px)}39.88%{transform:translate(720px,80px)}40.18%{transform:translate(720px,96px)}40.79%{transform:translate(688px,96px)}41.09%{transform:translate(688px,80px)}41.39%,45.02%{transform:translate(672px,80px)}41.69%{transform:translate(672px,64px)}41.99%{transform:translate(656px,64px)}42.3%{transform:translate(656px,48px)}42.6%{transform:translate(640px,48px)}42.9%{transform:translate(640px,64px)}43.2%,66.16%{transform:translate(624px,64px)}43.5%{transform:translate(624px,80px)}44.11%{transform:translate(656px,80px)}44.41%{transform:translate(656px,96px)}44.71%{transform:translate(672px,96px)}45.62%{transform:translate(640px,80px)}45.92%{transform:translate(640px,96px)}47.43%{transform:translate(560px,96px)}51.36%{transform:translate(368px,80px)}51.66%{transform:translate(368px,64px)}55.89%{transform:translate(144px,64px)}56.5%{transform:translate(144px,96px)}61.03%{transform:translate(384px,96px)}61.63%{transform:translate(384px,64px)}66.77%{transform:translate(624px,32px)}67.37%{transform:translate(656px,32px)}67.67%{transform:translate(656px,16px)}68.28%{transform:translate(688px,16px)}69.18%{transform:translate(688px,64px)}71.9%{transform:translate(832px,64px)}73.11%{transform:translate(832px,0px)}74.32%{transform:translate(768px,0px)}74.62%,77.64%{transform:translate(768px,16px)}75.53%{transform:translate(816px,16px)}75.83%{transform:translate(816px,32px)}77.04%{transform:translate(752px,32px)}77.34%{transform:translate(752px,16px)}78.25%{transform:translate(768px,48px)}79.15%,83.38%{transform:translate(816px,48px)}79.76%{transform:translate(816px,80px)}80.97%{transform:translate(752px,80px)}81.27%{transform:translate(752px,96px)}82.48%{transform:translate(816px,96px)}84.59%{transform:translate(752px,48px)}98.49%{transform:translate(64px,0px)}98.79%{transform:translate(64px,-16px)}}.s.s1{transform:translate(16px,-16px);animation-name:s1}@keyframes s2{0%,99.7%{transform:translate(32px,-16px)}0.6%{transform:translate(0px,-16px)}0.91%{transform:translate(0px,0px)}4.23%{transform:translate(176px,0px)}4.53%{transform:translate(176px,16px)}5.14%{transform:translate(144px,16px)}6.34%{transform:translate(144px,80px)}11.18%{transform:translate(400px,80px)}11.78%{transform:translate(400px,48px)}15.11%{transform:translate(576px,48px)}15.41%{transform:translate(576px,64px)}15.71%{transform:translate(560px,64px)}16.01%,48.04%{transform:translate(560px,80px)}16.62%{transform:translate(592px,80px)}16.92%{transform:translate(592px,96px)}17.22%{transform:translate(608px,96px)}18.73%{transform:translate(608px,16px)}19.03%{transform:translate(592px,16px)}19.34%{transform:translate(592px,32px)}19.64%{transform:translate(608px,32px)}21.15%{transform:translate(608px,112px)}25.38%,27.19%{transform:translate(832px,112px)}25.98%{transform:translate(832px,80px)}26.28%{transform:translate(848px,80px)}26.59%{transform:translate(848px,96px)}26.89%{transform:translate(832px,96px)}29%{transform:translate(736px,112px)}31.12%{transform:translate(736px,0px)}31.42%,85.8%{transform:translate(752px,0px)}31.72%{transform:translate(752px,-16px)}32.33%{transform:translate(720px,-16px)}32.63%{transform:translate(720px,0px)}34.14%{transform:translate(640px,0px)}34.74%{transform:translate(640px,32px)}36.25%{transform:translate(720px,32px)}36.56%{transform:translate(720px,16px)}37.46%{transform:translate(672px,16px)}38.07%{transform:translate(672px,48px)}38.97%{transform:translate(720px,48px)}39.27%{transform:translate(720px,64px)}39.58%{transform:translate(704px,64px)}39.88%{transform:translate(704px,80px)}40.18%{transform:translate(720px,80px)}40.48%{transform:translate(720px,96px)}41.09%{transform:translate(688px,96px)}41.39%{transform:translate(688px,80px)}41.69%,45.32%{transform:translate(672px,80px)}41.99%{transform:translate(672px,64px)}42.3%{transform:translate(656px,64px)}42.6%{transform:translate(656px,48px)}42.9%{transform:translate(640px,48px)}43.2%{transform:translate(640px,64px)}43.5%,66.47%{transform:translate(624px,64px)}43.81%{transform:translate(624px,80px)}44.41%{transform:translate(656px,80px)}44.71%{transform:translate(656px,96px)}45.02%{transform:translate(672px,96px)}45.92%{transform:translate(640px,80px)}46.22%{transform:translate(640px,96px)}47.73%{transform:translate(560px,96px)}51.66%{transform:translate(368px,80px)}51.96%{transform:translate(368px,64px)}56.19%{transform:translate(144px,64px)}56.8%{transform:translate(144px,96px)}61.33%{transform:translate(384px,96px)}61.93%{transform:translate(384px,64px)}67.07%{transform:translate(624px,32px)}67.67%{transform:translate(656px,32px)}67.98%{transform:translate(656px,16px)}68.58%{transform:translate(688px,16px)}69.49%{transform:translate(688px,64px)}72.21%{transform:translate(832px,64px)}73.41%{transform:translate(832px,0px)}74.62%{transform:translate(768px,0px)}74.92%,77.95%{transform:translate(768px,16px)}75.83%{transform:translate(816px,16px)}76.13%{transform:translate(816px,32px)}77.34%{transform:translate(752px,32px)}77.64%{transform:translate(752px,16px)}78.55%{transform:translate(768px,48px)}79.46%,83.69%{transform:translate(816px,48px)}80.06%{transform:translate(816px,80px)}81.27%{transform:translate(752px,80px)}81.57%{transform:translate(752px,96px)}82.78%{transform:translate(816px,96px)}84.89%{transform:translate(752px,48px)}98.79%{transform:translate(64px,0px)}99.09%{transform:translate(64px,-16px)}}.s.s2{transform:translate(32px,-16px);animation-name:s2}@keyframes s3{0%,99.7%{transform:translate(48px,-16px)}0.91%{transform:translate(0px,-16px)}1.21%{transform:translate(0px,0px)}4.53%{transform:translate(176px,0px)}4.83%{transform:translate(176px,16px)}5.44%{transform:translate(144px,16px)}6.65%{transform:translate(144px,80px)}11.48%{transform:translate(400px,80px)}12.08%{transform:translate(400px,48px)}15.41%{transform:translate(576px,48px)}15.71%{transform:translate(576px,64px)}16.01%{transform:translate(560px,64px)}16.31%,48.34%{transform:translate(560px,80px)}16.92%{transform:translate(592px,80px)}17.22%{transform:translate(592px,96px)}17.52%{transform:translate(608px,96px)}19.03%{transform:translate(608px,16px)}19.34%{transform:translate(592px,16px)}19.64%{transform:translate(592px,32px)}19.94%{transform:translate(608px,32px)}21.45%{transform:translate(608px,112px)}25.68%,27.49%{transform:translate(832px,112px)}26.28%{transform:translate(832px,80px)}26.59%{transform:translate(848px,80px)}26.89%{transform:translate(848px,96px)}27.19%{transform:translate(832px,96px)}29.31%{transform:translate(736px,112px)}31.42%{transform:translate(736px,0px)}31.72%,86.1%{transform:translate(752px,0px)}32.02%{transform:translate(752px,-16px)}32.63%{transform:translate(720px,-16px)}32.93%{transform:translate(720px,0px)}34.44%{transform:translate(640px,0px)}35.05%{transform:translate(640px,32px)}36.56%{transform:translate(720px,32px)}36.86%{transform:translate(720px,16px)}37.76%{transform:translate(672px,16px)}38.37%{transform:translate(672px,48px)}39.27%{transform:translate(720px,48px)}39.58%{transform:translate(720px,64px)}39.88%{transform:translate(704px,64px)}40.18%{transform:translate(704px,80px)}40.48%{transform:translate(720px,80px)}40.79%{transform:translate(720px,96px)}41.39%{transform:translate(688px,96px)}41.69%{transform:translate(688px,80px)}41.99%,45.62%{transform:translate(672px,80px)}42.3%{transform:translate(672px,64px)}42.6%{transform:translate(656px,64px)}42.9%{transform:translate(656px,48px)}43.2%{transform:translate(640px,48px)}43.5%{transform:translate(640px,64px)}43.81%,66.77%{transform:translate(624px,64px)}44.11%{transform:translate(624px,80px)}44.71%{transform:translate(656px,80px)}45.02%{transform:translate(656px,96px)}45.32%{transform:translate(672px,96px)}46.22%{transform:translate(640px,80px)}46.53%{transform:translate(640px,96px)}48.04%{transform:translate(560px,96px)}51.96%{transform:translate(368px,80px)}52.27%{transform:translate(368px,64px)}56.5%{transform:translate(144px,64px)}57.1%{transform:translate(144px,96px)}61.63%{transform:translate(384px,96px)}62.24%{transform:translate(384px,64px)}67.37%{transform:translate(624px,32px)}67.98%{transform:translate(656px,32px)}68.28%{transform:translate(656px,16px)}68.88%{transform:translate(688px,16px)}69.79%{transform:translate(688px,64px)}72.51%{transform:translate(832px,64px)}73.72%{transform:translate(832px,0px)}74.92%{transform:translate(768px,0px)}75.23%,78.25%{transform:translate(768px,16px)}76.13%{transform:translate(816px,16px)}76.44%{transform:translate(816px,32px)}77.64%{transform:translate(752px,32px)}77.95%{transform:translate(752px,16px)}78.85%{transform:translate(768px,48px)}79.76%,83.99%{transform:translate(816px,48px)}80.36%{transform:translate(816px,80px)}81.57%{transform:translate(752px,80px)}81.87%{transform:translate(752px,96px)}83.08%{transform:translate(816px,96px)}85.2%{transform:translate(752px,48px)}99.09%{transform:translate(64px,0px)}99.4%{transform:translate(64px,-16px)}}.s.s3{transform:translate(48px,-16px);animation-name:s3}</style><rect class="c" x="2" y="2" rx="2" ry="2"/><rect class="c" x="2" y="18" rx="2" ry="2"/><rect class="c" x="2" y="34" rx="2" ry="2"/><rect class="c" x="2" y="50" rx="2" ry="2"/><rect class="c" x="2" y="66" rx="2" ry="2"/><rect class="c" x="2" y="82" rx="2" ry="2"/><rect class="c" x="2" y="98" rx="2" ry="2"/><rect class="c" x="18" y="2" rx="2" ry="2"/><rect class="c" x="18" y="18" rx="2" ry="2"/><rect class="c" x="18" y="34" rx="2" ry="2"/><rect class="c" x="18" y="50" rx="2" ry="2"/><rect class="c" x="18" y="66" rx="2" ry="2"/><rect class="c" x="18" y="82" rx="2" ry="2"/><rect class="c" x="18" y="98" rx="2" ry="2"/><rect class="c" x="34" y="2" rx="2" ry="2"/><rect class="c" x="34" y="18" rx="2" ry="2"/><rect class="c" x="34" y="34" rx="2" ry="2"/><rect class="c" x="34" y="50" rx="2" ry="2"/><rect class="c" x="34" y="66" rx="2" ry="2"/><rect class="c" x="34" y="82" rx="2" ry="2"/><rect class="c" x="34" y="98" rx="2" ry="2"/><rect class="c" x="50" y="2" rx="2" ry="2"/><rect class="c" x="50" y="18" rx="2" ry="2"/><rect class="c" x="50" y="34" rx="2" ry="2"/><rect class="c" x="50" y="50" rx="2" ry="2"/><rect class="c" x="50" y="66" rx="2" ry="2"/><rect class="c" x="50" y="82" rx="2" ry="2"/><rect class="c" x="50" y="98" rx="2" ry="2"/><rect class="c" x="66" y="2" rx="2" ry="2"/><rect class="c" x="66" y="18" rx="2" ry="2"/><rect class="c" x="66" y="34" rx="2" ry="2"/><rect class="c" x="66" y="50" rx="2" ry="2"/><rect class="c" x="66" y="66" rx="2" ry="2"/><rect class="c" x="66" y="82" rx="2" ry="2"/><rect class="c" x="66" y="98" rx="2" ry="2"/><rect class="c" x="82" y="2" rx="2" ry="2"/><rect class="c" x="82" y="18" rx="2" ry="2"/><rect class="c" x="82" y="34" rx="2" ry="2"/><rect class="c" x="82" y="50" rx="2" ry="2"/><rect class="c" x="82" y="66" rx="2" ry="2"/><rect class="c" x="82" y="82" rx="2" ry="2"/><rect class="c" x="82" y="98" rx="2" ry="2"/><rect class="c" x="98" y="2" rx="2" ry="2"/><rect class="c" x="98" y="18" rx="2" ry="2"/><rect class="c" x="98" y="34" rx="2" ry="2"/><rect class="c" x="98" y="50" rx="2" ry="2"/><rect class="c" x="98" y="66" rx="2" ry="2"/><rect class="c" x="98" y="82" rx="2" ry="2"/><rect class="c" x="98" y="98" rx="2" ry="2"/><rect class="c" x="114" y="2" rx="2" ry="2"/><rect class="c" x="114" y="18" rx="2" ry="2"/><rect class="c" x="114" y="34" rx="2" ry="2"/><rect class="c" x="114" y="50" rx="2" ry="2"/><rect class="c" x="114" y="66" rx="2" ry="2"/><rect class="c" x="114" y="82" rx="2" ry="2"/><rect class="c" x="114" y="98" rx="2" ry="2"/><rect class="c" x="130" y="2" rx="2" ry="2"/><rect class="c" x="130" y="18" rx="2" ry="2"/><rect class="c" x="130" y="34" rx="2" ry="2"/><rect class="c" x="130" y="50" rx="2" ry="2"/><rect class="c" x="130" y="66" rx="2" ry="2"/><rect class="c" x="130" y="82" rx="2" ry="2"/><rect class="c" x="130" y="98" rx="2" ry="2"/><rect class="c" x="146" y="2" rx="2" ry="2"/><rect class="c" x="146" y="18" rx="2" ry="2"/><rect class="c" x="146" y="34" rx="2" ry="2"/><rect class="c" x="146" y="50" rx="2" ry="2"/><rect class="c" x="146" y="66" rx="2" ry="2"/><rect class="c c0" x="146" y="82" rx="2" ry="2"/><rect class="c c1" x="146" y="98" rx="2" ry="2"/><rect class="c" x="162" y="2" rx="2" ry="2"/><rect class="c" x="162" y="18" rx="2" ry="2"/><rect class="c" x="162" y="34" rx="2" ry="2"/><rect class="c" x="162" y="50" rx="2" ry="2"/><rect class="c" x="162" y="66" rx="2" ry="2"/><rect class="c" x="162" y="82" rx="2" ry="2"/><rect class="c" x="162" y="98" rx="2" ry="2"/><rect class="c c2" x="178" y="2" rx="2" ry="2"/><rect class="c c3" x="178" y="18" rx="2" ry="2"/><rect class="c" x="178" y="34" rx="2" ry="2"/><rect class="c" x="178" y="50" rx="2" ry="2"/><rect class="c" x="178" y="66" rx="2" ry="2"/><rect class="c" x="178" y="82" rx="2" ry="2"/><rect class="c" x="178" y="98" rx="2" ry="2"/><rect class="c" x="194" y="2" rx="2" ry="2"/><rect class="c" x="194" y="18" rx="2" ry="2"/><rect class="c" x="194" y="34" rx="2" ry="2"/><rect class="c" x="194" y="50" rx="2" ry="2"/><rect class="c" x="194" y="66" rx="2" ry="2"/><rect class="c" x="194" y="82" rx="2" ry="2"/><rect class="c" x="194" y="98" rx="2" ry="2"/><rect class="c" x="210" y="2" rx="2" ry="2"/><rect class="c" x="210" y="18" rx="2" ry="2"/><rect class="c" x="210" y="34" rx="2" ry="2"/><rect class="c" x="210" y="50" rx="2" ry="2"/><rect class="c" x="210" y="66" rx="2" ry="2"/><rect class="c" x="210" y="82" rx="2" ry="2"/><rect class="c" x="210" y="98" rx="2" ry="2"/><rect class="c" x="226" y="2" rx="2" ry="2"/><rect class="c" x="226" y="18" rx="2" ry="2"/><rect class="c" x="226" y="34" rx="2" ry="2"/><rect class="c" x="226" y="50" rx="2" ry="2"/><rect class="c" x="226" y="66" rx="2" ry="2"/><rect class="c" x="226" y="82" rx="2" ry="2"/><rect class="c" x="226" y="98" rx="2" ry="2"/><rect class="c" x="242" y="2" rx="2" ry="2"/><rect class="c" x="242" y="18" rx="2" ry="2"/><rect class="c" x="242" y="34" rx="2" ry="2"/><rect class="c" x="242" y="50" rx="2" ry="2"/><rect class="c" x="242" y="66" rx="2" ry="2"/><rect class="c" x="242" y="82" rx="2" ry="2"/><rect class="c" x="242" y="98" rx="2" ry="2"/><rect class="c" x="258" y="2" rx="2" ry="2"/><rect class="c" x="258" y="18" rx="2" ry="2"/><rect class="c" x="258" y="34" rx="2" ry="2"/><rect class="c" x="258" y="50" rx="2" ry="2"/><rect class="c c4" x="258" y="66" rx="2" ry="2"/><rect class="c" x="258" y="82" rx="2" ry="2"/><rect class="c" x="258" y="98" rx="2" ry="2"/><rect class="c" x="274" y="2" rx="2" ry="2"/><rect class="c" x="274" y="18" rx="2" ry="2"/><rect class="c" x="274" y="34" rx="2" ry="2"/><rect class="c" x="274" y="50" rx="2" ry="2"/><rect class="c" x="274" y="66" rx="2" ry="2"/><rect class="c" x="274" y="82" rx="2" ry="2"/><rect class="c" x="274" y="98" rx="2" ry="2"/><rect class="c" x="290" y="2" rx="2" ry="2"/><rect class="c" x="290" y="18" rx="2" ry="2"/><rect class="c" x="290" y="34" rx="2" ry="2"/><rect class="c" x="290" y="50" rx="2" ry="2"/><rect class="c" x="290" y="66" rx="2" ry="2"/><rect class="c" x="290" y="82" rx="2" ry="2"/><rect class="c" x="290" y="98" rx="2" ry="2"/><rect class="c" x="306" y="2" rx="2" ry="2"/><rect class="c" x="306" y="18" rx="2" ry="2"/><rect class="c" x="306" y="34" rx="2" ry="2"/><rect class="c" x="306" y="50" rx="2" ry="2"/><rect class="c" x="306" y="66" rx="2" ry="2"/><rect class="c" x="306" y="82" rx="2" ry="2"/><rect class="c" x="306" y="98" rx="2" ry="2"/><rect class="c" x="322" y="2" rx="2" ry="2"/><rect class="c" x="322" y="18" rx="2" ry="2"/><rect class="c" x="322" y="34" rx="2" ry="2"/><rect class="c" x="322" y="50" rx="2" ry="2"/><rect class="c" x="322" y="66" rx="2" ry="2"/><rect class="c" x="322" y="82" rx="2" ry="2"/><rect class="c" x="322" y="98" rx="2" ry="2"/><rect class="c" x="338" y="2" rx="2" ry="2"/><rect class="c" x="338" y="18" rx="2" ry="2"/><rect class="c" x="338" y="34" rx="2" ry="2"/><rect class="c" x="338" y="50" rx="2" ry="2"/><rect class="c" x="338" y="66" rx="2" ry="2"/><rect class="c" x="338" y="82" rx="2" ry="2"/><rect class="c" x="338" y="98" rx="2" ry="2"/><rect class="c" x="354" y="2" rx="2" ry="2"/><rect class="c" x="354" y="18" rx="2" ry="2"/><rect class="c" x="354" y="34" rx="2" ry="2"/><rect class="c" x="354" y="50" rx="2" ry="2"/><rect class="c" x="354" y="66" rx="2" ry="2"/><rect class="c" x="354" y="82" rx="2" ry="2"/><rect class="c" x="354" y="98" rx="2" ry="2"/><rect class="c" x="370" y="2" rx="2" ry="2"/><rect class="c" x="370" y="18" rx="2" ry="2"/><rect class="c" x="370" y="34" rx="2" ry="2"/><rect class="c" x="370" y="50" rx="2" ry="2"/><rect class="c" x="370" y="66" rx="2" ry="2"/><rect class="c" x="370" y="82" rx="2" ry="2"/><rect class="c" x="370" y="98" rx="2" ry="2"/><rect class="c" x="386" y="2" rx="2" ry="2"/><rect class="c" x="386" y="18" rx="2" ry="2"/><rect class="c" x="386" y="34" rx="2" ry="2"/><rect class="c" x="386" y="50" rx="2" ry="2"/><rect class="c c5" x="386" y="66" rx="2" ry="2"/><rect class="c" x="386" y="82" rx="2" ry="2"/><rect class="c" x="386" y="98" rx="2" ry="2"/><rect class="c" x="402" y="2" rx="2" ry="2"/><rect class="c" x="402" y="18" rx="2" ry="2"/><rect class="c" x="402" y="34" rx="2" ry="2"/><rect class="c c6" x="402" y="50" rx="2" ry="2"/><rect class="c" x="402" y="66" rx="2" ry="2"/><rect class="c" x="402" y="82" rx="2" ry="2"/><rect class="c" x="402" y="98" rx="2" ry="2"/><rect class="c" x="418" y="2" rx="2" ry="2"/><rect class="c" x="418" y="18" rx="2" ry="2"/><rect class="c" x="418" y="34" rx="2" ry="2"/><rect class="c" x="418" y="50" rx="2" ry="2"/><rect class="c" x="418" y="66" rx="2" ry="2"/><rect class="c" x="418" y="82" rx="2" ry="2"/><rect class="c" x="418" y="98" rx="2" ry="2"/><rect class="c" x="434" y="2" rx="2" ry="2"/><rect class="c" x="434" y="18" rx="2" ry="2"/><rect class="c" x="434" y="34" rx="2" ry="2"/><rect class="c" x="434" y="50" rx="2" ry="2"/><rect class="c" x="434" y="66" rx="2" ry="2"/><rect class="c" x="434" y="82" rx="2" ry="2"/><rect class="c" x="434" y="98" rx="2" ry="2"/><rect class="c" x="450" y="2" rx="2" ry="2"/><rect class="c" x="450" y="18" rx="2" ry="2"/><rect class="c" x="450" y="34" rx="2" ry="2"/><rect class="c" x="450" y="50" rx="2" ry="2"/><rect class="c" x="450" y="66" rx="2" ry="2"/><rect class="c" x="450" y="82" rx="2" ry="2"/><rect class="c" x="450" y="98" rx="2" ry="2"/><rect class="c" x="466" y="2" rx="2" ry="2"/><rect class="c" x="466" y="18" rx="2" ry="2"/><rect class="c" x="466" y="34" rx="2" ry="2"/><rect class="c" x="466" y="50" rx="2" ry="2"/><rect class="c" x="466" y="66" rx="2" ry="2"/><rect class="c" x="466" y="82" rx="2" ry="2"/><rect class="c" x="466" y="98" rx="2" ry="2"/><rect class="c" x="482" y="2" rx="2" ry="2"/><rect class="c" x="482" y="18" rx="2" ry="2"/><rect class="c" x="482" y="34" rx="2" ry="2"/><rect class="c" x="482" y="50" rx="2" ry="2"/><rect class="c" x="482" y="66" rx="2" ry="2"/><rect class="c" x="482" y="82" rx="2" ry="2"/><rect class="c" x="482" y="98" rx="2" ry="2"/><rect class="c" x="498" y="2" rx="2" ry="2"/><rect class="c" x="498" y="18" rx="2" ry="2"/><rect class="c" x="498" y="34" rx="2" ry="2"/><rect class="c" x="498" y="50" rx="2" ry="2"/><rect class="c" x="498" y="66" rx="2" ry="2"/><rect class="c" x="498" y="82" rx="2" ry="2"/><rect class="c" x="498" y="98" rx="2" ry="2"/><rect class="c" x="514" y="2" rx="2" ry="2"/><rect class="c" x="514" y="18" rx="2" ry="2"/><rect class="c" x="514" y="34" rx="2" ry="2"/><rect class="c" x="514" y="50" rx="2" ry="2"/><rect class="c" x="514" y="66" rx="2" ry="2"/><rect class="c" x="514" y="82" rx="2" ry="2"/><rect class="c" x="514" y="98" rx="2" ry="2"/><rect class="c" x="530" y="2" rx="2" ry="2"/><rect class="c" x="530" y="18" rx="2" ry="2"/><rect class="c" x="530" y="34" rx="2" ry="2"/><rect class="c" x="530" y="50" rx="2" ry="2"/><rect class="c" x="530" y="66" rx="2" ry="2"/><rect class="c" x="530" y="82" rx="2" ry="2"/><rect class="c" x="530" y="98" rx="2" ry="2"/><rect class="c" x="546" y="2" rx="2" ry="2"/><rect class="c" x="546" y="18" rx="2" ry="2"/><rect class="c" x="546" y="34" rx="2" ry="2"/><rect class="c" x="546" y="50" rx="2" ry="2"/><rect class="c" x="546" y="66" rx="2" ry="2"/><rect class="c" x="546" y="82" rx="2" ry="2"/><rect class="c" x="546" y="98" rx="2" ry="2"/><rect class="c" x="562" y="2" rx="2" ry="2"/><rect class="c" x="562" y="18" rx="2" ry="2"/><rect class="c" x="562" y="34" rx="2" ry="2"/><rect class="c" x="562" y="50" rx="2" ry="2"/><rect class="c c7" x="562" y="66" rx="2" ry="2"/><rect class="c" x="562" y="82" rx="2" ry="2"/><rect class="c c8" x="562" y="98" rx="2" ry="2"/><rect class="c c9" x="578" y="2" rx="2" ry="2"/><rect class="c" x="578" y="18" rx="2" ry="2"/><rect class="c" x="578" y="34" rx="2" ry="2"/><rect class="c ca" x="578" y="50" rx="2" ry="2"/><rect class="c" x="578" y="66" rx="2" ry="2"/><rect class="c" x="578" y="82" rx="2" ry="2"/><rect class="c" x="578" y="98" rx="2" ry="2"/><rect class="c" x="594" y="2" rx="2" ry="2"/><rect class="c cb" x="594" y="18" rx="2" ry="2"/><rect class="c" x="594" y="34" rx="2" ry="2"/><rect class="c" x="594" y="50" rx="2" ry="2"/><rect class="c" x="594" y="66" rx="2" ry="2"/><rect class="c cc" x="594" y="82" rx="2" ry="2"/><rect class="c cd" x="594" y="98" rx="2" ry="2"/><rect class="c" x="610" y="2" rx="2" ry="2"/><rect class="c" x="610" y="18" rx="2" ry="2"/><rect class="c" x="610" y="34" rx="2" ry="2"/><rect class="c" x="610" y="50" rx="2" ry="2"/><rect class="c" x="610" y="66" rx="2" ry="2"/><rect class="c" x="610" y="82" rx="2" ry="2"/><rect class="c" x="610" y="98" rx="2" ry="2"/><rect class="c" x="626" y="2" rx="2" ry="2"/><rect class="c" x="626" y="18" rx="2" ry="2"/><rect class="c ce" x="626" y="34" rx="2" ry="2"/><rect class="c cf" x="626" y="50" rx="2" ry="2"/><rect class="c cg" x="626" y="66" rx="2" ry="2"/><rect class="c ch" x="626" y="82" rx="2" ry="2"/><rect class="c ci" x="626" y="98" rx="2" ry="2"/><rect class="c cj" x="642" y="2" rx="2" ry="2"/><rect class="c ck" x="642" y="18" rx="2" ry="2"/><rect class="c cl" x="642" y="34" rx="2" ry="2"/><rect class="c cm" x="642" y="50" rx="2" ry="2"/><rect class="c cn" x="642" y="66" rx="2" ry="2"/><rect class="c co" x="642" y="82" rx="2" ry="2"/><rect class="c cp" x="642" y="98" rx="2" ry="2"/><rect class="c cq" x="658" y="2" rx="2" ry="2"/><rect class="c cr" x="658" y="18" rx="2" ry="2"/><rect class="c cs" x="658" y="34" rx="2" ry="2"/><rect class="c ct" x="658" y="50" rx="2" ry="2"/><rect class="c cu" x="658" y="66" rx="2" ry="2"/><rect class="c cv" x="658" y="82" rx="2" ry="2"/><rect class="c cw" x="658" y="98" rx="2" ry="2"/><rect class="c cx" x="674" y="2" rx="2" ry="2"/><rect class="c cy" x="674" y="18" rx="2" ry="2"/><rect class="c cz" x="674" y="34" rx="2" ry="2"/><rect class="c c10" x="674" y="50" rx="2" ry="2"/><rect class="c c11" x="674" y="66" rx="2" ry="2"/><rect class="c c12" x="674" y="82" rx="2" ry="2"/><rect class="c c13" x="674" y="98" rx="2" ry="2"/><rect class="c c14" x="690" y="2" rx="2" ry="2"/><rect class="c c15" x="690" y="18" rx="2" ry="2"/><rect class="c c16" x="690" y="34" rx="2" ry="2"/><rect class="c c17" x="690" y="50" rx="2" ry="2"/><rect class="c c18" x="690" y="66" rx="2" ry="2"/><rect class="c c19" x="690" y="82" rx="2" ry="2"/><rect class="c c1a" x="690" y="98" rx="2" ry="2"/><rect class="c c1b" x="706" y="2" rx="2" ry="2"/><rect class="c c1c" x="706" y="18" rx="2" ry="2"/><rect class="c c1d" x="706" y="34" rx="2" ry="2"/><rect class="c c1e" x="706" y="50" rx="2" ry="2"/><rect class="c c1f" x="706" y="66" rx="2" ry="2"/><rect class="c c1g" x="706" y="82" rx="2" ry="2"/><rect class="c c1h" x="706" y="98" rx="2" ry="2"/><rect class="c c1i" x="722" y="2" rx="2" ry="2"/><rect class="c c1j" x="722" y="18" rx="2" ry="2"/><rect class="c c1k" x="722" y="34" rx="2" ry="2"/><rect class="c c1l" x="722" y="50" rx="2" ry="2"/><rect class="c c1m" x="722" y="66" rx="2" ry="2"/><rect class="c c1n" x="722" y="82" rx="2" ry="2"/><rect class="c c1o" x="722" y="98" rx="2" ry="2"/><rect class="c c1p" x="738" y="2" rx="2" ry="2"/><rect class="c c1q" x="738" y="18" rx="2" ry="2"/><rect class="c c1r" x="738" y="34" rx="2" ry="2"/><rect class="c c1s" x="738" y="50" rx="2" ry="2"/><rect class="c c1t" x="738" y="66" rx="2" ry="2"/><rect class="c c1u" x="738" y="82" rx="2" ry="2"/><rect class="c c1v" x="738" y="98" rx="2" ry="2"/><rect class="c c1w" x="754" y="2" rx="2" ry="2"/><rect class="c c1x" x="754" y="18" rx="2" ry="2"/><rect class="c c1y" x="754" y="34" rx="2" ry="2"/><rect class="c c1z" x="754" y="50" rx="2" ry="2"/><rect class="c c20" x="754" y="66" rx="2" ry="2"/><rect class="c c21" x="754" y="82" rx="2" ry="2"/><rect class="c c22" x="754" y="98" rx="2" ry="2"/><rect class="c c23" x="770" y="2" rx="2" ry="2"/><rect class="c c24" x="770" y="18" rx="2" ry="2"/><rect class="c c25" x="770" y="34" rx="2" ry="2"/><rect class="c c26" x="770" y="50" rx="2" ry="2"/><rect class="c c27" x="770" y="66" rx="2" ry="2"/><rect class="c c28" x="770" y="82" rx="2" ry="2"/><rect class="c c29" x="770" y="98" rx="2" ry="2"/><rect class="c c2a" x="786" y="2" rx="2" ry="2"/><rect class="c c2b" x="786" y="18" rx="2" ry="2"/><rect class="c c2c" x="786" y="34" rx="2" ry="2"/><rect class="c c2d" x="786" y="50" rx="2" ry="2"/><rect class="c c2e" x="786" y="66" rx="2" ry="2"/><rect class="c c2f" x="786" y="82" rx="2" ry="2"/><rect class="c c2g" x="786" y="98" rx="2" ry="2"/><rect class="c c2h" x="802" y="2" rx="2" ry="2"/><rect class="c c2i" x="802" y="18" rx="2" ry="2"/><rect class="c c2j" x="802" y="34" rx="2" ry="2"/><rect class="c c2k" x="802" y="50" rx="2" ry="2"/><rect class="c c2l" x="802" y="66" rx="2" ry="2"/><rect class="c c2m" x="802" y="82" rx="2" ry="2"/><rect class="c c2n" x="802" y="98" rx="2" ry="2"/><rect class="c c2o" x="818" y="2" rx="2" ry="2"/><rect class="c c2p" x="818" y="18" rx="2" ry="2"/><rect class="c c2q" x="818" y="34" rx="2" ry="2"/><rect class="c c2r" x="818" y="50" rx="2" ry="2"/><rect class="c c2s" x="818" y="66" rx="2" ry="2"/><rect class="c c2t" x="818" y="82" rx="2" ry="2"/><rect class="c c2u" x="818" y="98" rx="2" ry="2"/><rect class="c c2v" x="834" y="2" rx="2" ry="2"/><rect class="c c2w" x="834" y="18" rx="2" ry="2"/><rect class="c c2x" x="834" y="34" rx="2" ry="2"/><rect class="c c2y" x="834" y="50" rx="2" ry="2"/><rect class="c c2z" x="834" y="66" rx="2" ry="2"/><rect class="c c30" x="834" y="82" rx="2" ry="2"/><rect class="u u0" height="12" width="78.4" x="0.0" y="144"/><rect class="u u1" height="12" width="420.7" x="77.8" y="144"/><rect class="u u2" height="12" width="350.7" x="497.9" y="144"/><rect class="s s0" x="0.8" y="0.8" width="14.4" height="14.4" rx="4.5" ry="4.5"/><rect class="s s1" x="1.8" y="1.8" width="12.3" height="12.3" rx="4.1" ry="4.1"/><rect class="s s2" x="2.6" y="2.6" width="10.8" height="10.8" rx="3.6" ry="3.6"/><rect class="s s3" x="3.0" y="3.0" width="9.9" height="9.9" rx="3.3" ry="3.3"/></svg>