<svg viewBox="-16 -32 880 192" width="880" height="192" xmlns="http://www.w3.org/2000/svg"><desc>Generated with https://github.com/Platane/snk</desc><style>:root{--cb:#1b1f230a;--cs:purple;--ce:#161b22;--c0:#161b22;--c1:#01311f;--c2:#034525;--c3:#0f6d31;--c4:#00c647}.c{shape-rendering:geometricPrecision;fill:var(--ce);stroke-width:1px;stroke:var(--cb);animation:none 27900ms linear infinite;width:12px;height:12px}@keyframes c0{8.59%{fill:var(--c1)}8.61%,100%{fill:var(--ce)}}.c.c0{fill:var(--c1);animation-name:c0}@keyframes c1{62.71%{fill:var(--c2)}62.73%,100%{fill:var(--ce)}}.c.c1{fill:var(--c2);animation-name:c1}@keyframes c2{6.08%{fill:var(--c1)}6.1%,100%{fill:var(--ce)}}.c.c2{fill:var(--c1);animation-name:c2}@keyframes c3{6.44%{fill:var(--c1)}6.46%,100%{fill:var(--ce)}}.c.c3{fill:var(--c1);animation-name:c3}@keyframes c4{59.49%{fill:var(--c2)}59.51%,100%{fill:var(--ce)}}.c.c4{fill:var(--c2);animation-name:c4}@keyframes c5{68.81%{fill:var(--c4)}68.83%,100%{fill:var(--ce)}}.c.c5{fill:var(--c4);animation-name:c5}@keyframes c6{15.04%{fill:var(--c1)}15.06%,100%{fill:var(--ce)}}.c.c6{fill:var(--c1);animation-name:c6}@keyframes c7{19.7%{fill:var(--c1)}19.72%,100%{fill:var(--ce)}}.c.c7{fill:var(--c1);animation-name:c7}@keyframes c8{51.96%{fill:var(--c2)}51.98%,100%{fill:var(--ce)}}.c.c8{fill:var(--c2);animation-name:c8}@keyframes c9{84.58%{fill:var(--c4)}84.6%,100%{fill:var(--ce)}}.c.c9{fill:var(--c4);animation-name:c9}@keyframes ca{18.99%{fill:var(--c1)}19.01%,100%{fill:var(--ce)}}.c.ca{fill:var(--c1);animation-name:ca}@keyframes cb{23.65%{fill:var(--c1)}23.67%,100%{fill:var(--ce)}}.c.cb{fill:var(--c1);animation-name:cb}@keyframes cc{20.78%{fill:var(--c1)}20.8%,100%{fill:var(--ce)}}.c.cc{fill:var(--c1);animation-name:cc}@keyframes cd{21.14%{fill:var(--c1)}21.16%,100%{fill:var(--ce)}}.c.cd{fill:var(--c1);animation-name:cd}@keyframes ce{74.9%{fill:var(--c4)}74.92%,100%{fill:var(--ce)}}.c.ce{fill:var(--c4);animation-name:ce}@keyframes cf{74.54%{fill:var(--c4)}74.56%,100%{fill:var(--ce)}}.c.cf{fill:var(--c4);animation-name:cf}@keyframes cg{46.94%{fill:var(--c2)}46.96%,100%{fill:var(--ce)}}.c.cg{fill:var(--c2);animation-name:cg}@keyframes ch{47.3%{fill:var(--c2)}47.32%,100%{fill:var(--ce)}}.c.ch{fill:var(--c2);animation-name:ch}@keyframes ci{50.53%{fill:var(--c2)}50.55%,100%{fill:var(--ce)}}.c.ci{fill:var(--c2);animation-name:ci}@keyframes cj{34.4%{fill:var(--c2)}34.42%,100%{fill:var(--ce)}}.c.cj{fill:var(--c2);animation-name:cj}@keyframes ck{34.76%{fill:var(--c2)}34.78%,100%{fill:var(--ce)}}.c.ck{fill:var(--c2);animation-name:ck}@keyframes cl{35.12%{fill:var(--c2)}35.14%,100%{fill:var(--ce)}}.c.cl{fill:var(--c2);animation-name:cl}@keyframes cm{46.23%{fill:var(--c2)}46.25%,100%{fill:var(--ce)}}.c.cm{fill:var(--c2);animation-name:cm}@keyframes cn{46.58%{fill:var(--c2)}46.6%,100%{fill:var(--ce)}}.c.cn{fill:var(--c2);animation-name:cn}@keyframes co{47.66%{fill:var(--c2)}47.68%,100%{fill:var(--ce)}}.c.co{fill:var(--c2);animation-name:co}@keyframes cp{50.17%{fill:var(--c2)}50.19%,100%{fill:var(--ce)}}.c.cp{fill:var(--c2);animation-name:cp}@keyframes cq{34.04%{fill:var(--c2)}34.06%,100%{fill:var(--ce)}}.c.cq{fill:var(--c2);animation-name:cq}@keyframes cr{75.98%{fill:var(--c4)}76%,100%{fill:var(--ce)}}.c.cr{fill:var(--c4);animation-name:cr}@keyframes cs{35.47%{fill:var(--c2)}35.49%,100%{fill:var(--ce)}}.c.cs{fill:var(--c2);animation-name:cs}@keyframes ct{45.87%{fill:var(--c2)}45.89%,100%{fill:var(--ce)}}.c.ct{fill:var(--c2);animation-name:ct}@keyframes cu{45.51%{fill:var(--c2)}45.53%,100%{fill:var(--ce)}}.c.cu{fill:var(--c2);animation-name:cu}@keyframes cv{48.02%{fill:var(--c2)}48.04%,100%{fill:var(--ce)}}.c.cv{fill:var(--c2);animation-name:cv}@keyframes cw{48.38%{fill:var(--c2)}48.4%,100%{fill:var(--ce)}}.c.cw{fill:var(--c2);animation-name:cw}@keyframes cx{33.68%{fill:var(--c2)}33.7%,100%{fill:var(--ce)}}.c.cx{fill:var(--c2);animation-name:cx}@keyframes cy{38.34%{fill:var(--c2)}38.36%,100%{fill:var(--ce)}}.c.cy{fill:var(--c2);animation-name:cy}@keyframes cz{35.83%{fill:var(--c2)}35.85%,100%{fill:var(--ce)}}.c.cz{fill:var(--c2);animation-name:cz}@keyframes c10{39.06%{fill:var(--c2)}39.08%,100%{fill:var(--ce)}}.c.c10{fill:var(--c2);animation-name:c10}@keyframes c11{45.15%{fill:var(--c2)}45.17%,100%{fill:var(--ce)}}.c.c11{fill:var(--c2);animation-name:c11}@keyframes c12{44.79%{fill:var(--c2)}44.81%,100%{fill:var(--ce)}}.c.c12{fill:var(--c2);animation-name:c12}@keyframes c13{48.74%{fill:var(--c2)}48.76%,100%{fill:var(--ce)}}.c.c13{fill:var(--c2);animation-name:c13}@keyframes c14{33.32%{fill:var(--c2)}33.34%,100%{fill:var(--ce)}}.c.c14{fill:var(--c2);animation-name:c14}@keyframes c15{37.98%{fill:var(--c2)}38%,100%{fill:var(--ce)}}.c.c15{fill:var(--c2);animation-name:c15}@keyframes c16{36.19%{fill:var(--c2)}36.21%,100%{fill:var(--ce)}}.c.c16{fill:var(--c2);animation-name:c16}@keyframes c17{39.42%{fill:var(--c2)}39.44%,100%{fill:var(--ce)}}.c.c17{fill:var(--c2);animation-name:c17}@keyframes c18{77.77%{fill:var(--c4)}77.79%,100%{fill:var(--ce)}}.c.c18{fill:var(--c4);animation-name:c18}@keyframes c19{44.43%{fill:var(--c2)}44.45%,100%{fill:var(--ce)}}.c.c19{fill:var(--c2);animation-name:c19}@keyframes c1a{44.08%{fill:var(--c2)}44.1%,100%{fill:var(--ce)}}.c.c1a{fill:var(--c2);animation-name:c1a}@keyframes c1b{32.96%{fill:var(--c2)}32.98%,100%{fill:var(--ce)}}.c.c1b{fill:var(--c2);animation-name:c1b}@keyframes c1c{37.62%{fill:var(--c2)}37.64%,100%{fill:var(--ce)}}.c.c1c{fill:var(--c2);animation-name:c1c}@keyframes c1d{36.55%{fill:var(--c2)}36.57%,100%{fill:var(--ce)}}.c.c1d{fill:var(--c2);animation-name:c1d}@keyframes c1e{39.77%{fill:var(--c2)}39.79%,100%{fill:var(--ce)}}.c.c1e{fill:var(--c2);animation-name:c1e}@keyframes c1f{41.57%{fill:var(--c2)}41.59%,100%{fill:var(--ce)}}.c.c1f{fill:var(--c2);animation-name:c1f}@keyframes c1g{41.93%{fill:var(--c2)}41.95%,100%{fill:var(--ce)}}.c.c1g{fill:var(--c2);animation-name:c1g}@keyframes c1h{43.72%{fill:var(--c2)}43.74%,100%{fill:var(--ce)}}.c.c1h{fill:var(--c2);animation-name:c1h}@keyframes c1i{32.61%{fill:var(--c2)}32.63%,100%{fill:var(--ce)}}.c.c1i{fill:var(--c2);animation-name:c1i}@keyframes c1j{37.27%{fill:var(--c2)}37.29%,100%{fill:var(--ce)}}.c.c1j{fill:var(--c2);animation-name:c1j}@keyframes c1k{36.91%{fill:var(--c2)}36.93%,100%{fill:var(--ce)}}.c.c1k{fill:var(--c2);animation-name:c1k}@keyframes c1l{40.13%{fill:var(--c2)}40.15%,100%{fill:var(--ce)}}.c.c1l{fill:var(--c2);animation-name:c1l}@keyframes c1m{41.21%{fill:var(--c2)}41.23%,100%{fill:var(--ce)}}.c.c1m{fill:var(--c2);animation-name:c1m}@keyframes c1n{42.28%{fill:var(--c2)}42.3%,100%{fill:var(--ce)}}.c.c1n{fill:var(--c2);animation-name:c1n}@keyframes c1o{43.36%{fill:var(--c2)}43.38%,100%{fill:var(--ce)}}.c.c1o{fill:var(--c2);animation-name:c1o}@keyframes c1p{30.81%{fill:var(--c2)}30.83%,100%{fill:var(--ce)}}.c.c1p{fill:var(--c2);animation-name:c1p}@keyframes c1q{30.46%{fill:var(--c2)}30.48%,100%{fill:var(--ce)}}.c.c1q{fill:var(--c2);animation-name:c1q}@keyframes c1r{30.1%{fill:var(--c2)}30.12%,100%{fill:var(--ce)}}.c.c1r{fill:var(--c2);animation-name:c1r}@keyframes c1s{40.49%{fill:var(--c2)}40.51%,100%{fill:var(--ce)}}.c.c1s{fill:var(--c2);animation-name:c1s}@keyframes c1t{40.85%{fill:var(--c2)}40.87%,100%{fill:var(--ce)}}.c.c1t{fill:var(--c2);animation-name:c1t}@keyframes c1u{42.64%{fill:var(--c2)}42.66%,100%{fill:var(--ce)}}.c.c1u{fill:var(--c2);animation-name:c1u}@keyframes c1v{43%{fill:var(--c2)}43.02%,100%{fill:var(--ce)}}.c.c1v{fill:var(--c2);animation-name:c1v}@keyframes c1w{31.17%{fill:var(--c2)}31.19%,100%{fill:var(--ce)}}.c.c1w{fill:var(--c2);animation-name:c1w}@keyframes c1x{80.28%{fill:var(--c4)}80.3%,100%{fill:var(--ce)}}.c.c1x{fill:var(--c4);animation-name:c1x}@keyframes c1y{29.74%{fill:var(--c1)}29.76%,100%{fill:var(--ce)}}.c.c1y{fill:var(--c1);animation-name:c1y}.u{transform-origin:0 0;transform:scale(0,1);animation:none linear 27900ms infinite}@keyframes u0{6.08%{transform:scale(0.000,1)}6.1%,6.44%{transform:scale(0.100,1)}6.46%,8.59%{transform:scale(0.200,1)}8.61%,15.04%{transform:scale(0.300,1)}15.06%,18.99%{transform:scale(0.400,1)}19.01%,19.7%{transform:scale(0.500,1)}19.72%,20.78%{transform:scale(0.600,1)}20.8%,21.14%{transform:scale(0.700,1)}21.16%,23.65%{transform:scale(0.800,1)}23.67%,29.74%{transform:scale(0.900,1)}29.76%,100%{transform:scale(1.000,1)}}.u.u0{fill:var(--c1);animation-name:u0;transform-origin:0.0px 0}@keyframes u1{30.1%{transform:scale(0.000,1)}30.12%,30.46%{transform:scale(0.019,1)}30.48%,30.81%{transform:scale(0.037,1)}30.83%,31.17%{transform:scale(0.056,1)}31.19%,32.61%{transform:scale(0.074,1)}32.63%,32.96%{transform:scale(0.093,1)}32.98%,33.32%{transform:scale(0.111,1)}33.34%,33.68%{transform:scale(0.130,1)}33.7%,34.04%{transform:scale(0.148,1)}34.06%,34.4%{transform:scale(0.167,1)}34.42%,34.76%{transform:scale(0.185,1)}34.78%,35.12%{transform:scale(0.204,1)}35.14%,35.47%{transform:scale(0.222,1)}35.49%,35.83%{transform:scale(0.241,1)}35.85%,36.19%{transform:scale(0.259,1)}36.21%,36.55%{transform:scale(0.278,1)}36.57%,36.91%{transform:scale(0.296,1)}36.93%,37.27%{transform:scale(0.315,1)}37.29%,37.62%{transform:scale(0.333,1)}37.64%,37.98%{transform:scale(0.352,1)}38%,38.34%{transform:scale(0.370,1)}38.36%,39.06%{transform:scale(0.389,1)}39.08%,39.42%{transform:scale(0.407,1)}39.44%,39.77%{transform:scale(0.426,1)}39.79%,40.13%{transform:scale(0.444,1)}40.15%,40.49%{transform:scale(0.463,1)}40.51%,40.85%{transform:scale(0.481,1)}40.87%,41.21%{transform:scale(0.500,1)}41.23%,41.57%{transform:scale(0.519,1)}41.59%,41.93%{transform:scale(0.537,1)}41.95%,42.28%{transform:scale(0.556,1)}42.3%,42.64%{transform:scale(0.574,1)}42.66%,43%{transform:scale(0.593,1)}43.02%,43.36%{transform:scale(0.611,1)}43.38%,43.72%{transform:scale(0.630,1)}43.74%,44.08%{transform:scale(0.648,1)}44.1%,44.43%{transform:scale(0.667,1)}44.45%,44.79%{transform:scale(0.685,1)}44.81%,45.15%{transform:scale(0.704,1)}45.17%,45.51%{transform:scale(0.722,1)}45.53%,45.87%{transform:scale(0.741,1)}45.89%,46.23%{transform:scale(0.759,1)}46.25%,46.58%{transform:scale(0.778,1)}46.6%,46.94%{transform:scale(0.796,1)}46.96%,47.3%{transform:scale(0.815,1)}47.32%,47.66%{transform:scale(0.833,1)}47.68%,48.02%{transform:scale(0.852,1)}48.04%,48.38%{transform:scale(0.870,1)}48.4%,48.74%{transform:scale(0.889,1)}48.76%,50.17%{transform:scale(0.907,1)}50.19%,50.53%{transform:scale(0.926,1)}50.55%,51.96%{transform:scale(0.944,1)}51.98%,59.49%{transform:scale(0.963,1)}59.51%,62.71%{transform:scale(0.981,1)}62.73%,100%{transform:scale(1.000,1)}}.u.u1{fill:var(--c2);animation-name:u1;transform-origin:119.4px 0}@keyframes u2{68.81%{transform:scale(0.000,1)}68.83%,74.54%{transform:scale(0.143,1)}74.56%,74.9%{transform:scale(0.286,1)}74.92%,75.98%{transform:scale(0.429,1)}76%,77.77%{transform:scale(0.571,1)}77.79%,80.28%{transform:scale(0.714,1)}80.3%,84.58%{transform:scale(0.857,1)}84.6%,100%{transform:scale(1.000,1)}}.u.u2{fill:var(--c4);animation-name:u2;transform-origin:764.4px 0}.s{shape-rendering:geometricPrecision;fill:var(--cs);animation:none linear 27900ms infinite}@keyframes s0{0%,99.64%{transform:translate(0px,-16px)}0.36%{transform:translate(0px,0px)}6.09%{transform:translate(256px,0px)}6.45%{transform:translate(256px,16px)}7.17%{transform:translate(224px,16px)}8.6%{transform:translate(224px,80px)}14.34%{transform:translate(480px,80px)}15.05%{transform:translate(480px,48px)}19%{transform:translate(656px,48px)}19.35%{transform:translate(656px,64px)}19.71%{transform:translate(640px,64px)}20.07%,52.33%{transform:translate(640px,80px)}20.79%{transform:translate(672px,80px)}21.15%{transform:translate(672px,96px)}21.51%{transform:translate(688px,96px)}23.3%{transform:translate(688px,16px)}23.66%{transform:translate(672px,16px)}24.01%{transform:translate(672px,0px)}24.73%{transform:translate(704px,0px)}25.09%{transform:translate(704px,-16px)}28.32%{transform:translate(848px,-16px)}29.39%{transform:translate(848px,32px)}30.11%{transform:translate(816px,32px)}30.82%{transform:translate(816px,0px)}31.18%,80.65%{transform:translate(832px,0px)}31.54%{transform:translate(832px,-16px)}32.26%{transform:translate(800px,-16px)}32.62%{transform:translate(800px,0px)}34.41%{transform:translate(720px,0px)}35.13%{transform:translate(720px,32px)}36.92%{transform:translate(800px,32px)}37.28%{transform:translate(800px,16px)}38.35%{transform:translate(752px,16px)}39.07%{transform:translate(752px,48px)}40.5%{transform:translate(816px,48px)}40.86%{transform:translate(816px,64px)}41.58%{transform:translate(784px,64px)}41.94%{transform:translate(784px,80px)}42.65%{transform:translate(816px,80px)}43.01%{transform:translate(816px,96px)}44.09%{transform:translate(768px,96px)}44.44%{transform:translate(768px,80px)}44.8%,49.1%{transform:translate(752px,80px)}45.16%{transform:translate(752px,64px)}45.52%{transform:translate(736px,64px)}45.88%{transform:translate(736px,48px)}46.24%{transform:translate(720px,48px)}46.59%{transform:translate(720px,64px)}46.95%,74.19%{transform:translate(704px,64px)}47.31%{transform:translate(704px,80px)}48.03%{transform:translate(736px,80px)}48.39%{transform:translate(736px,96px)}48.75%{transform:translate(752px,96px)}49.82%{transform:translate(720px,80px)}50.18%{transform:translate(720px,96px)}51.97%{transform:translate(640px,96px)}56.63%{transform:translate(448px,80px)}56.99%{transform:translate(448px,64px)}62.01%{transform:translate(224px,64px)}62.72%{transform:translate(224px,96px)}68.1%{transform:translate(464px,96px)}68.82%{transform:translate(464px,64px)}74.91%{transform:translate(704px,32px)}75.63%{transform:translate(736px,32px)}75.99%{transform:translate(736px,16px)}76.7%{transform:translate(768px,16px)}77.78%{transform:translate(768px,64px)}79.21%{transform:translate(832px,64px)}97.85%{transform:translate(64px,0px)}98.21%{transform:translate(64px,-16px)}}.s.s0{transform:translate(0px,-16px);animation-name:s0}@keyframes s1{0%,99.64%{transform:translate(16px,-16px)}0.36%{transform:translate(0px,-16px)}0.72%{transform:translate(0px,0px)}6.45%{transform:translate(256px,0px)}6.81%{transform:translate(256px,16px)}7.53%{transform:translate(224px,16px)}8.96%{transform:translate(224px,80px)}14.7%{transform:translate(480px,80px)}15.41%{transform:translate(480px,48px)}19.35%{transform:translate(656px,48px)}19.71%{transform:translate(656px,64px)}20.07%{transform:translate(640px,64px)}20.43%,52.69%{transform:translate(640px,80px)}21.15%{transform:translate(672px,80px)}21.51%{transform:translate(672px,96px)}21.86%{transform:translate(688px,96px)}23.66%{transform:translate(688px,16px)}24.01%{transform:translate(672px,16px)}24.37%{transform:translate(672px,0px)}25.09%{transform:translate(704px,0px)}25.45%{transform:translate(704px,-16px)}28.67%{transform:translate(848px,-16px)}29.75%{transform:translate(848px,32px)}30.47%{transform:translate(816px,32px)}31.18%{transform:translate(816px,0px)}31.54%,81%{transform:translate(832px,0px)}31.9%{transform:translate(832px,-16px)}32.62%{transform:translate(800px,-16px)}32.97%{transform:translate(800px,0px)}34.77%{transform:translate(720px,0px)}35.48%{transform:translate(720px,32px)}37.28%{transform:translate(800px,32px)}37.63%{transform:translate(800px,16px)}38.71%{transform:translate(752px,16px)}39.43%{transform:translate(752px,48px)}40.86%{transform:translate(816px,48px)}41.22%{transform:translate(816px,64px)}41.94%{transform:translate(784px,64px)}42.29%{transform:translate(784px,80px)}43.01%{transform:translate(816px,80px)}43.37%{transform:translate(816px,96px)}44.44%{transform:translate(768px,96px)}44.8%{transform:translate(768px,80px)}45.16%,49.46%{transform:translate(752px,80px)}45.52%{transform:translate(752px,64px)}45.88%{transform:translate(736px,64px)}46.24%{transform:translate(736px,48px)}46.59%{transform:translate(720px,48px)}46.95%{transform:translate(720px,64px)}47.31%,74.55%{transform:translate(704px,64px)}47.67%{transform:translate(704px,80px)}48.39%{transform:translate(736px,80px)}48.75%{transform:translate(736px,96px)}49.1%{transform:translate(752px,96px)}50.18%{transform:translate(720px,80px)}50.54%{transform:translate(720px,96px)}52.33%{transform:translate(640px,96px)}56.99%{transform:translate(448px,80px)}57.35%{transform:translate(448px,64px)}62.37%{transform:translate(224px,64px)}63.08%{transform:translate(224px,96px)}68.46%{transform:translate(464px,96px)}69.18%{transform:translate(464px,64px)}75.27%{transform:translate(704px,32px)}75.99%{transform:translate(736px,32px)}76.34%{transform:translate(736px,16px)}77.06%{transform:translate(768px,16px)}78.14%{transform:translate(768px,64px)}79.57%{transform:translate(832px,64px)}98.21%{transform:translate(64px,0px)}98.57%{transform:translate(64px,-16px)}}.s.s1{transform:translate(16px,-16px);animation-name:s1}@keyframes s2{0%,99.64%{transform:translate(32px,-16px)}0.72%{transform:translate(0px,-16px)}1.08%{transform:translate(0px,0px)}6.81%{transform:translate(256px,0px)}7.17%{transform:translate(256px,16px)}7.89%{transform:translate(224px,16px)}9.32%{transform:translate(224px,80px)}15.05%{transform:translate(480px,80px)}15.77%{transform:translate(480px,48px)}19.71%{transform:translate(656px,48px)}20.07%{transform:translate(656px,64px)}20.43%{transform:translate(640px,64px)}20.79%,53.05%{transform:translate(640px,80px)}21.51%{transform:translate(672px,80px)}21.86%{transform:translate(672px,96px)}22.22%{transform:translate(688px,96px)}24.01%{transform:translate(688px,16px)}24.37%{transform:translate(672px,16px)}24.73%{transform:translate(672px,0px)}25.45%{transform:translate(704px,0px)}25.81%{transform:translate(704px,-16px)}29.03%{transform:translate(848px,-16px)}30.11%{transform:translate(848px,32px)}30.82%{transform:translate(816px,32px)}31.54%{transform:translate(816px,0px)}31.9%,81.36%{transform:translate(832px,0px)}32.26%{transform:translate(832px,-16px)}32.97%{transform:translate(800px,-16px)}33.33%{transform:translate(800px,0px)}35.13%{transform:translate(720px,0px)}35.84%{transform:translate(720px,32px)}37.63%{transform:translate(800px,32px)}37.99%{transform:translate(800px,16px)}39.07%{transform:translate(752px,16px)}39.78%{transform:translate(752px,48px)}41.22%{transform:translate(816px,48px)}41.58%{transform:translate(816px,64px)}42.29%{transform:translate(784px,64px)}42.65%{transform:translate(784px,80px)}43.37%{transform:translate(816px,80px)}43.73%{transform:translate(816px,96px)}44.8%{transform:translate(768px,96px)}45.16%{transform:translate(768px,80px)}45.52%,49.82%{transform:translate(752px,80px)}45.88%{transform:translate(752px,64px)}46.24%{transform:translate(736px,64px)}46.59%{transform:translate(736px,48px)}46.95%{transform:translate(720px,48px)}47.31%{transform:translate(720px,64px)}47.67%,74.91%{transform:translate(704px,64px)}48.03%{transform:translate(704px,80px)}48.75%{transform:translate(736px,80px)}49.1%{transform:translate(736px,96px)}49.46%{transform:translate(752px,96px)}50.54%{transform:translate(720px,80px)}50.9%{transform:translate(720px,96px)}52.69%{transform:translate(640px,96px)}57.35%{transform:translate(448px,80px)}57.71%{transform:translate(448px,64px)}62.72%{transform:translate(224px,64px)}63.44%{transform:translate(224px,96px)}68.82%{transform:translate(464px,96px)}69.53%{transform:translate(464px,64px)}75.63%{transform:translate(704px,32px)}76.34%{transform:translate(736px,32px)}76.7%{transform:translate(736px,16px)}77.42%{transform:translate(768px,16px)}78.49%{transform:translate(768px,64px)}79.93%{transform:translate(832px,64px)}98.57%{transform:translate(64px,0px)}98.92%{transform:translate(64px,-16px)}}.s.s2{transform:translate(32px,-16px);animation-name:s2}@keyframes s3{0%,99.64%{transform:translate(48px,-16px)}1.08%{transform:translate(0px,-16px)}1.43%{transform:translate(0px,0px)}7.17%{transform:translate(256px,0px)}7.53%{transform:translate(256px,16px)}8.24%{transform:translate(224px,16px)}9.68%{transform:translate(224px,80px)}15.41%{transform:translate(480px,80px)}16.13%{transform:translate(480px,48px)}20.07%{transform:translate(656px,48px)}20.43%{transform:translate(656px,64px)}20.79%{transform:translate(640px,64px)}21.15%,53.41%{transform:translate(640px,80px)}21.86%{transform:translate(672px,80px)}22.22%{transform:translate(672px,96px)}22.58%{transform:translate(688px,96px)}24.37%{transform:translate(688px,16px)}24.73%{transform:translate(672px,16px)}25.09%{transform:translate(672px,0px)}25.81%{transform:translate(704px,0px)}26.16%{transform:translate(704px,-16px)}29.39%{transform:translate(848px,-16px)}30.47%{transform:translate(848px,32px)}31.18%{transform:translate(816px,32px)}31.9%{transform:translate(816px,0px)}32.26%,81.72%{transform:translate(832px,0px)}32.62%{transform:translate(832px,-16px)}33.33%{transform:translate(800px,-16px)}33.69%{transform:translate(800px,0px)}35.48%{transform:translate(720px,0px)}36.2%{transform:translate(720px,32px)}37.99%{transform:translate(800px,32px)}38.35%{transform:translate(800px,16px)}39.43%{transform:translate(752px,16px)}40.14%{transform:translate(752px,48px)}41.58%{transform:translate(816px,48px)}41.94%{transform:translate(816px,64px)}42.65%{transform:translate(784px,64px)}43.01%{transform:translate(784px,80px)}43.73%{transform:translate(816px,80px)}44.09%{transform:translate(816px,96px)}45.16%{transform:translate(768px,96px)}45.52%{transform:translate(768px,80px)}45.88%,50.18%{transform:translate(752px,80px)}46.24%{transform:translate(752px,64px)}46.59%{transform:translate(736px,64px)}46.95%{transform:translate(736px,48px)}47.31%{transform:translate(720px,48px)}47.67%{transform:translate(720px,64px)}48.03%,75.27%{transform:translate(704px,64px)}48.39%{transform:translate(704px,80px)}49.1%{transform:translate(736px,80px)}49.46%{transform:translate(736px,96px)}49.82%{transform:translate(752px,96px)}50.9%{transform:translate(720px,80px)}51.25%{transform:translate(720px,96px)}53.05%{transform:translate(640px,96px)}57.71%{transform:translate(448px,80px)}58.06%{transform:translate(448px,64px)}63.08%{transform:translate(224px,64px)}63.8%{transform:translate(224px,96px)}69.18%{transform:translate(464px,96px)}69.89%{transform:translate(464px,64px)}75.99%{transform:translate(704px,32px)}76.7%{transform:translate(736px,32px)}77.06%{transform:translate(736px,16px)}77.78%{transform:translate(768px,16px)}78.85%{transform:translate(768px,64px)}80.29%{transform:translate(832px,64px)}98.92%{transform:translate(64px,0px)}99.28%{transform:translate(64px,-16px)}}.s.s3{transform:translate(48px,-16px);animation-name:s3}</style><rect class="c" x="2" y="2" rx="2" ry="2"/><rect class="c" x="2" y="18" rx="2" ry="2"/><rect class="c" x="2" y="34" rx="2" ry="2"/><rect class="c" x="2" y="50" rx="2" ry="2"/><rect class="c" x="2" y="66" rx="2" ry="2"/><rect class="c" x="2" y="82" rx="2" ry="2"/><rect class="c" x="2" y="98" rx="2" ry="2"/><rect class="c" x="18" y="2" rx="2" ry="2"/><rect class="c" x="18" y="18" rx="2" ry="2"/><rect class="c" x="18" y="34" rx="2" ry="2"/><rect class="c" x="18" y="50" rx="2" ry="2"/><rect class="c" x="18" y="66" rx="2" ry="2"/><rect class="c" x="18" y="82" rx="2" ry="2"/><rect class="c" x="18" y="98" rx="2" ry="2"/><rect class="c" x="34" y="2" rx="2" ry="2"/><rect class="c" x="34" y="18" rx="2" ry="2"/><rect class="c" x="34" y="34" rx="2" ry="2"/><rect class="c" x="34" y="50" rx="2" ry="2"/><rect class="c" x="34" y="66" rx="2" ry="2"/><rect class="c" x="34" y="82" rx="2" ry="2"/><rect class="c" x="34" y="98" rx="2" ry="2"/><rect class="c" x="50" y="2" rx="2" ry="2"/><rect class="c" x="50" y="18" rx="2" ry="2"/><rect class="c" x="50" y="34" rx="2" ry="2"/><rect class="c" x="50" y="50" rx="2" ry="2"/><rect class="c" x="50" y="66" rx="2" ry="2"/><rect class="c" x="50" y="82" rx="2" ry="2"/><rect class="c" x="50" y="98" rx="2" ry="2"/><rect class="c" x="66" y="2" rx="2" ry="2"/><rect class="c" x="66" y="18" rx="2" ry="2"/><rect class="c" x="66" y="34" rx="2" ry="2"/><rect class="c" x="66" y="50" rx="2" ry="2"/><rect class="c" x="66" y="66" rx="2" ry="2"/><rect class="c" x="66" y="82" rx="2" ry="2"/><rect class="c" x="66" y="98" rx="2" ry="2"/><rect class="c" x="82" y="2" rx="2" ry="2"/><rect class="c" x="82" y="18" rx="2" ry="2"/><rect class="c" x="82" y="34" rx="2" ry="2"/><rect class="c" x="82" y="50" rx="2" ry="2"/><rect class="c" x="82" y="66" rx="2" ry="2"/><rect class="c" x="82" y="82" rx="2" ry="2"/><rect class="c" x="82" y="98" rx="2" ry="2"/><rect class="c" x="98" y="2" rx="2" ry="2"/><rect class="c" x="98" y="18" rx="2" ry="2"/><rect class="c" x="98" y="34" rx="2" ry="2"/><rect class="c" x="98" y="50" rx="2" ry="2"/><rect class="c" x="98" y="66" rx="2" ry="2"/><rect class="c" x="98" y="82" rx="2" ry="2"/><rect class="c" x="98" y="98" rx="2" ry="2"/><rect class="c" x="114" y="2" rx="2" ry="2"/><rect class="c" x="114" y="18" rx="2" ry="2"/><rect class="c" x="114" y="34" rx="2" ry="2"/><rect class="c" x="114" y="50" rx="2" ry="2"/><rect class="c" x="114" y="66" rx="2" ry="2"/><rect class="c" x="114" y="82" rx="2" ry="2"/><rect class="c" x="114" y="98" rx="2" ry="2"/><rect class="c" x="130" y="2" rx="2" ry="2"/><rect class="c" x="130" y="18" rx="2" ry="2"/><rect class="c" x="130" y="34" rx="2" ry="2"/><rect class="c" x="130" y="50" rx="2" ry="2"/><rect class="c" x="130" y="66" rx="2" ry="2"/><rect class="c" x="130" y="82" rx="2" ry="2"/><rect class="c" x="130" y="98" rx="2" ry="2"/><rect class="c" x="146" y="2" rx="2" ry="2"/><rect class="c" x="146" y="18" rx="2" ry="2"/><rect class="c" x="146" y="34" rx="2" ry="2"/><rect class="c" x="146" y="50" rx="2" ry="2"/><rect class="c" x="146" y="66" rx="2" ry="2"/><rect class="c" x="146" y="82" rx="2" ry="2"/><rect class="c" x="146" y="98" rx="2" ry="2"/><rect class="c" x="162" y="2" rx="2" ry="2"/><rect class="c" x="162" y="18" rx="2" ry="2"/><rect class="c" x="162" y="34" rx="2" ry="2"/><rect class="c" x="162" y="50" rx="2" ry="2"/><rect class="c" x="162" y="66" rx="2" ry="2"/><rect class="c" x="162" y="82" rx="2" ry="2"/><rect class="c" x="162" y="98" rx="2" ry="2"/><rect class="c" x="178" y="2" rx="2" ry="2"/><rect class="c" x="178" y="18" rx="2" ry="2"/><rect class="c" x="178" y="34" rx="2" ry="2"/><rect class="c" x="178" y="50" rx="2" ry="2"/><rect class="c" x="178" y="66" rx="2" ry="2"/><rect class="c" x="178" y="82" rx="2" ry="2"/><rect class="c" x="178" y="98" rx="2" ry="2"/><rect class="c" x="194" y="2" rx="2" ry="2"/><rect class="c" x="194" y="18" rx="2" ry="2"/><rect class="c" x="194" y="34" rx="2" ry="2"/><rect class="c" x="194" y="50" rx="2" ry="2"/><rect class="c" x="194" y="66" rx="2" ry="2"/><rect class="c" x="194" y="82" rx="2" ry="2"/><rect class="c" x="194" y="98" rx="2" ry="2"/><rect class="c" x="210" y="2" rx="2" ry="2"/><rect class="c" x="210" y="18" rx="2" ry="2"/><rect class="c" x="210" y="34" rx="2" ry="2"/><rect class="c" x="210" y="50" rx="2" ry="2"/><rect class="c" x="210" y="66" rx="2" ry="2"/><rect class="c" x="210" y="82" rx="2" ry="2"/><rect class="c" x="210" y="98" rx="2" ry="2"/><rect class="c" x="226" y="2" rx="2" ry="2"/><rect class="c" x="226" y="18" rx="2" ry="2"/><rect class="c" x="226" y="34" rx="2" ry="2"/><rect class="c" x="226" y="50" rx="2" ry="2"/><rect class="c" x="226" y="66" rx="2" ry="2"/><rect class="c c0" x="226" y="82" rx="2" ry="2"/><rect class="c c1" x="226" y="98" rx="2" ry="2"/><rect class="c" x="242" y="2" rx="2" ry="2"/><rect class="c" x="242" y="18" rx="2" ry="2"/><rect class="c" x="242" y="34" rx="2" ry="2"/><rect class="c" x="242" y="50" rx="2" ry="2"/><rect class="c" x="242" y="66" rx="2" ry="2"/><rect class="c" x="242" y="82" rx="2" ry="2"/><rect class="c" x="242" y="98" rx="2" ry="2"/><rect class="c c2" x="258" y="2" rx="2" ry="2"/><rect class="c c3" x="258" y="18" rx="2" ry="2"/><rect class="c" x="258" y="34" rx="2" ry="2"/><rect class="c" x="258" y="50" rx="2" ry="2"/><rect class="c" x="258" y="66" rx="2" ry="2"/><rect class="c" x="258" y="82" rx="2" ry="2"/><rect class="c" x="258" y="98" rx="2" ry="2"/><rect class="c" x="274" y="2" rx="2" ry="2"/><rect class="c" x="274" y="18" rx="2" ry="2"/><rect class="c" x="274" y="34" rx="2" ry="2"/><rect class="c" x="274" y="50" rx="2" ry="2"/><rect class="c" x="274" y="66" rx="2" ry="2"/><rect class="c" x="274" y="82" rx="2" ry="2"/><rect class="c" x="274" y="98" rx="2" ry="2"/><rect class="c" x="290" y="2" rx="2" ry="2"/><rect class="c" x="290" y="18" rx="2" ry="2"/><rect class="c" x="290" y="34" rx="2" ry="2"/><rect class="c" x="290" y="50" rx="2" ry="2"/><rect class="c" x="290" y="66" rx="2" ry="2"/><rect class="c" x="290" y="82" rx="2" ry="2"/><rect class="c" x="290" y="98" rx="2" ry="2"/><rect class="c" x="306" y="2" rx="2" ry="2"/><rect class="c" x="306" y="18" rx="2" ry="2"/><rect class="c" x="306" y="34" rx="2" ry="2"/><rect class="c" x="306" y="50" rx="2" ry="2"/><rect class="c" x="306" y="66" rx="2" ry="2"/><rect class="c" x="306" y="82" rx="2" ry="2"/><rect class="c" x="306" y="98" rx="2" ry="2"/><rect class="c" x="322" y="2" rx="2" ry="2"/><rect class="c" x="322" y="18" rx="2" ry="2"/><rect class="c" x="322" y="34" rx="2" ry="2"/><rect class="c" x="322" y="50" rx="2" ry="2"/><rect class="c" x="322" y="66" rx="2" ry="2"/><rect class="c" x="322" y="82" rx="2" ry="2"/><rect class="c" x="322" y="98" rx="2" ry="2"/><rect class="c" x="338" y="2" rx="2" ry="2"/><rect class="c" x="338" y="18" rx="2" ry="2"/><rect class="c" x="338" y="34" rx="2" ry="2"/><rect class="c" x="338" y="50" rx="2" ry="2"/><rect class="c c4" x="338" y="66" rx="2" ry="2"/><rect class="c" x="338" y="82" rx="2" ry="2"/><rect class="c" x="338" y="98" rx="2" ry="2"/><rect class="c" x="354" y="2" rx="2" ry="2"/><rect class="c" x="354" y="18" rx="2" ry="2"/><rect class="c" x="354" y="34" rx="2" ry="2"/><rect class="c" x="354" y="50" rx="2" ry="2"/><rect class="c" x="354" y="66" rx="2" ry="2"/><rect class="c" x="354" y="82" rx="2" ry="2"/><rect class="c" x="354" y="98" rx="2" ry="2"/><rect class="c" x="370" y="2" rx="2" ry="2"/><rect class="c" x="370" y="18" rx="2" ry="2"/><rect class="c" x="370" y="34" rx="2" ry="2"/><rect class="c" x="370" y="50" rx="2" ry="2"/><rect class="c" x="370" y="66" rx="2" ry="2"/><rect class="c" x="370" y="82" rx="2" ry="2"/><rect class="c" x="370" y="98" rx="2" ry="2"/><rect class="c" x="386" y="2" rx="2" ry="2"/><rect class="c" x="386" y="18" rx="2" ry="2"/><rect class="c" x="386" y="34" rx="2" ry="2"/><rect class="c" x="386" y="50" rx="2" ry="2"/><rect class="c" x="386" y="66" rx="2" ry="2"/><rect class="c" x="386" y="82" rx="2" ry="2"/><rect class="c" x="386" y="98" rx="2" ry="2"/><rect class="c" x="402" y="2" rx="2" ry="2"/><rect class="c" x="402" y="18" rx="2" ry="2"/><rect class="c" x="402" y="34" rx="2" ry="2"/><rect class="c" x="402" y="50" rx="2" ry="2"/><rect class="c" x="402" y="66" rx="2" ry="2"/><rect class="c" x="402" y="82" rx="2" ry="2"/><rect class="c" x="402" y="98" rx="2" ry="2"/><rect class="c" x="418" y="2" rx="2" ry="2"/><rect class="c" x="418" y="18" rx="2" ry="2"/><rect class="c" x="418" y="34" rx="2" ry="2"/><rect class="c" x="418" y="50" rx="2" ry="2"/><rect class="c" x="418" y="66" rx="2" ry="2"/><rect class="c" x="418" y="82" rx="2" ry="2"/><rect class="c" x="418" y="98" rx="2" ry="2"/><rect class="c" x="434" y="2" rx="2" ry="2"/><rect class="c" x="434" y="18" rx="2" ry="2"/><rect class="c" x="434" y="34" rx="2" ry="2"/><rect class="c" x="434" y="50" rx="2" ry="2"/><rect class="c" x="434" y="66" rx="2" ry="2"/><rect class="c" x="434" y="82" rx="2" ry="2"/><rect class="c" x="434" y="98" rx="2" ry="2"/><rect class="c" x="450" y="2" rx="2" ry="2"/><rect class="c" x="450" y="18" rx="2" ry="2"/><rect class="c" x="450" y="34" rx="2" ry="2"/><rect class="c" x="450" y="50" rx="2" ry="2"/><rect class="c" x="450" y="66" rx="2" ry="2"/><rect class="c" x="450" y="82" rx="2" ry="2"/><rect class="c" x="450" y="98" rx="2" ry="2"/><rect class="c" x="466" y="2" rx="2" ry="2"/><rect class="c" x="466" y="18" rx="2" ry="2"/><rect class="c" x="466" y="34" rx="2" ry="2"/><rect class="c" x="466" y="50" rx="2" ry="2"/><rect class="c c5" x="466" y="66" rx="2" ry="2"/><rect class="c" x="466" y="82" rx="2" ry="2"/><rect class="c" x="466" y="98" rx="2" ry="2"/><rect class="c" x="482" y="2" rx="2" ry="2"/><rect class="c" x="482" y="18" rx="2" ry="2"/><rect class="c" x="482" y="34" rx="2" ry="2"/><rect class="c c6" x="482" y="50" rx="2" ry="2"/><rect class="c" x="482" y="66" rx="2" ry="2"/><rect class="c" x="482" y="82" rx="2" ry="2"/><rect class="c" x="482" y="98" rx="2" ry="2"/><rect class="c" x="498" y="2" rx="2" ry="2"/><rect class="c" x="498" y="18" rx="2" ry="2"/><rect class="c" x="498" y="34" rx="2" ry="2"/><rect class="c" x="498" y="50" rx="2" ry="2"/><rect class="c" x="498" y="66" rx="2" ry="2"/><rect class="c" x="498" y="82" rx="2" ry="2"/><rect class="c" x="498" y="98" rx="2" ry="2"/><rect class="c" x="514" y="2" rx="2" ry="2"/><rect class="c" x="514" y="18" rx="2" ry="2"/><rect class="c" x="514" y="34" rx="2" ry="2"/><rect class="c" x="514" y="50" rx="2" ry="2"/><rect class="c" x="514" y="66" rx="2" ry="2"/><rect class="c" x="514" y="82" rx="2" ry="2"/><rect class="c" x="514" y="98" rx="2" ry="2"/><rect class="c" x="530" y="2" rx="2" ry="2"/><rect class="c" x="530" y="18" rx="2" ry="2"/><rect class="c" x="530" y="34" rx="2" ry="2"/><rect class="c" x="530" y="50" rx="2" ry="2"/><rect class="c" x="530" y="66" rx="2" ry="2"/><rect class="c" x="530" y="82" rx="2" ry="2"/><rect class="c" x="530" y="98" rx="2" ry="2"/><rect class="c" x="546" y="2" rx="2" ry="2"/><rect class="c" x="546" y="18" rx="2" ry="2"/><rect class="c" x="546" y="34" rx="2" ry="2"/><rect class="c" x="546" y="50" rx="2" ry="2"/><rect class="c" x="546" y="66" rx="2" ry="2"/><rect class="c" x="546" y="82" rx="2" ry="2"/><rect class="c" x="546" y="98" rx="2" ry="2"/><rect class="c" x="562" y="2" rx="2" ry="2"/><rect class="c" x="562" y="18" rx="2" ry="2"/><rect class="c" x="562" y="34" rx="2" ry="2"/><rect class="c" x="562" y="50" rx="2" ry="2"/><rect class="c" x="562" y="66" rx="2" ry="2"/><rect class="c" x="562" y="82" rx="2" ry="2"/><rect class="c" x="562" y="98" rx="2" ry="2"/><rect class="c" x="578" y="2" rx="2" ry="2"/><rect class="c" x="578" y="18" rx="2" ry="2"/><rect class="c" x="578" y="34" rx="2" ry="2"/><rect class="c" x="578" y="50" rx="2" ry="2"/><rect class="c" x="578" y="66" rx="2" ry="2"/><rect class="c" x="578" y="82" rx="2" ry="2"/><rect class="c" x="578" y="98" rx="2" ry="2"/><rect class="c" x="594" y="2" rx="2" ry="2"/><rect class="c" x="594" y="18" rx="2" ry="2"/><rect class="c" x="594" y="34" rx="2" ry="2"/><rect class="c" x="594" y="50" rx="2" ry="2"/><rect class="c" x="594" y="66" rx="2" ry="2"/><rect class="c" x="594" y="82" rx="2" ry="2"/><rect class="c" x="594" y="98" rx="2" ry="2"/><rect class="c" x="610" y="2" rx="2" ry="2"/><rect class="c" x="610" y="18" rx="2" ry="2"/><rect class="c" x="610" y="34" rx="2" ry="2"/><rect class="c" x="610" y="50" rx="2" ry="2"/><rect class="c" x="610" y="66" rx="2" ry="2"/><rect class="c" x="610" y="82" rx="2" ry="2"/><rect class="c" x="610" y="98" rx="2" ry="2"/><rect class="c" x="626" y="2" rx="2" ry="2"/><rect class="c" x="626" y="18" rx="2" ry="2"/><rect class="c" x="626" y="34" rx="2" ry="2"/><rect class="c" x="626" y="50" rx="2" ry="2"/><rect class="c" x="626" y="66" rx="2" ry="2"/><rect class="c" x="626" y="82" rx="2" ry="2"/><rect class="c" x="626" y="98" rx="2" ry="2"/><rect class="c" x="642" y="2" rx="2" ry="2"/><rect class="c" x="642" y="18" rx="2" ry="2"/><rect class="c" x="642" y="34" rx="2" ry="2"/><rect class="c" x="642" y="50" rx="2" ry="2"/><rect class="c c7" x="642" y="66" rx="2" ry="2"/><rect class="c" x="642" y="82" rx="2" ry="2"/><rect class="c c8" x="642" y="98" rx="2" ry="2"/><rect class="c c9" x="658" y="2" rx="2" ry="2"/><rect class="c" x="658" y="18" rx="2" ry="2"/><rect class="c" x="658" y="34" rx="2" ry="2"/><rect class="c ca" x="658" y="50" rx="2" ry="2"/><rect class="c" x="658" y="66" rx="2" ry="2"/><rect class="c" x="658" y="82" rx="2" ry="2"/><rect class="c" x="658" y="98" rx="2" ry="2"/><rect class="c" x="674" y="2" rx="2" ry="2"/><rect class="c cb" x="674" y="18" rx="2" ry="2"/><rect class="c" x="674" y="34" rx="2" ry="2"/><rect class="c" x="674" y="50" rx="2" ry="2"/><rect class="c" x="674" y="66" rx="2" ry="2"/><rect class="c cc" x="674" y="82" rx="2" ry="2"/><rect class="c cd" x="674" y="98" rx="2" ry="2"/><rect class="c" x="690" y="2" rx="2" ry="2"/><rect class="c" x="690" y="18" rx="2" ry="2"/><rect class="c" x="690" y="34" rx="2" ry="2"/><rect class="c" x="690" y="50" rx="2" ry="2"/><rect class="c" x="690" y="66" rx="2" ry="2"/><rect class="c" x="690" y="82" rx="2" ry="2"/><rect class="c" x="690" y="98" rx="2" ry="2"/><rect class="c" x="706" y="2" rx="2" ry="2"/><rect class="c" x="706" y="18" rx="2" ry="2"/><rect class="c ce" x="706" y="34" rx="2" ry="2"/><rect class="c cf" x="706" y="50" rx="2" ry="2"/><rect class="c cg" x="706" y="66" rx="2" ry="2"/><rect class="c ch" x="706" y="82" rx="2" ry="2"/><rect class="c ci" x="706" y="98" rx="2" ry="2"/><rect class="c cj" x="722" y="2" rx="2" ry="2"/><rect class="c ck" x="722" y="18" rx="2" ry="2"/><rect class="c cl" x="722" y="34" rx="2" ry="2"/><rect class="c cm" x="722" y="50" rx="2" ry="2"/><rect class="c cn" x="722" y="66" rx="2" ry="2"/><rect class="c co" x="722" y="82" rx="2" ry="2"/><rect class="c cp" x="722" y="98" rx="2" ry="2"/><rect class="c cq" x="738" y="2" rx="2" ry="2"/><rect class="c cr" x="738" y="18" rx="2" ry="2"/><rect class="c cs" x="738" y="34" rx="2" ry="2"/><rect class="c ct" x="738" y="50" rx="2" ry="2"/><rect class="c cu" x="738" y="66" rx="2" ry="2"/><rect class="c cv" x="738" y="82" rx="2" ry="2"/><rect class="c cw" x="738" y="98" rx="2" ry="2"/><rect class="c cx" x="754" y="2" rx="2" ry="2"/><rect class="c cy" x="754" y="18" rx="2" ry="2"/><rect class="c cz" x="754" y="34" rx="2" ry="2"/><rect class="c c10" x="754" y="50" rx="2" ry="2"/><rect class="c c11" x="754" y="66" rx="2" ry="2"/><rect class="c c12" x="754" y="82" rx="2" ry="2"/><rect class="c c13" x="754" y="98" rx="2" ry="2"/><rect class="c c14" x="770" y="2" rx="2" ry="2"/><rect class="c c15" x="770" y="18" rx="2" ry="2"/><rect class="c c16" x="770" y="34" rx="2" ry="2"/><rect class="c c17" x="770" y="50" rx="2" ry="2"/><rect class="c c18" x="770" y="66" rx="2" ry="2"/><rect class="c c19" x="770" y="82" rx="2" ry="2"/><rect class="c c1a" x="770" y="98" rx="2" ry="2"/><rect class="c c1b" x="786" y="2" rx="2" ry="2"/><rect class="c c1c" x="786" y="18" rx="2" ry="2"/><rect class="c c1d" x="786" y="34" rx="2" ry="2"/><rect class="c c1e" x="786" y="50" rx="2" ry="2"/><rect class="c c1f" x="786" y="66" rx="2" ry="2"/><rect class="c c1g" x="786" y="82" rx="2" ry="2"/><rect class="c c1h" x="786" y="98" rx="2" ry="2"/><rect class="c c1i" x="802" y="2" rx="2" ry="2"/><rect class="c c1j" x="802" y="18" rx="2" ry="2"/><rect class="c c1k" x="802" y="34" rx="2" ry="2"/><rect class="c c1l" x="802" y="50" rx="2" ry="2"/><rect class="c c1m" x="802" y="66" rx="2" ry="2"/><rect class="c c1n" x="802" y="82" rx="2" ry="2"/><rect class="c c1o" x="802" y="98" rx="2" ry="2"/><rect class="c c1p" x="818" y="2" rx="2" ry="2"/><rect class="c c1q" x="818" y="18" rx="2" ry="2"/><rect class="c c1r" x="818" y="34" rx="2" ry="2"/><rect class="c c1s" x="818" y="50" rx="2" ry="2"/><rect class="c c1t" x="818" y="66" rx="2" ry="2"/><rect class="c c1u" x="818" y="82" rx="2" ry="2"/><rect class="c c1v" x="818" y="98" rx="2" ry="2"/><rect class="c c1w" x="834" y="2" rx="2" ry="2"/><rect class="c c1x" x="834" y="18" rx="2" ry="2"/><rect class="c c1y" x="834" y="34" rx="2" ry="2"/><rect class="u u0" height="12" width="120.0" x="0.0" y="144"/><rect class="u u1" height="12" width="645.6" x="119.4" y="144"/><rect class="u u2" height="12" width="84.2" x="764.4" y="144"/><rect class="s s0" x="0.8" y="0.8" width="14.4" height="14.4" rx="4.5" ry="4.5"/><rect class="s s1" x="1.8" y="1.8" width="12.3" height="12.3" rx="4.1" ry="4.1"/><rect class="s s2" x="2.6" y="2.6" width="10.8" height="10.8" rx="3.6" ry="3.6"/><rect class="s s3" x="3.0" y="3.0" width="9.9" height="9.9" rx="3.3" ry="3.3"/></svg>