<svg viewBox="-16 -32 880 192" width="880" height="192" xmlns="http://www.w3.org/2000/svg"><desc>Generated with https://github.com/Platane/snk</desc><style>:root{--cb:#1b1f230a;--cs:purple;--ce:#161b22;--c0:#161b22;--c1:#01311f;--c2:#034525;--c3:#0f6d31;--c4:#00c647}.c{shape-rendering:geometricPrecision;fill:var(--ce);stroke-width:1px;stroke:var(--cb);animation:none 31500ms linear infinite;width:12px;height:12px}@keyframes c0{5.7%{fill:var(--c1)}5.72%,100%{fill:var(--ce)}}.c.c0{fill:var(--c1);animation-name:c0}@keyframes c1{51.74%{fill:var(--c2)}51.76%,100%{fill:var(--ce)}}.c.c1{fill:var(--c2);animation-name:c1}@keyframes c2{3.48%{fill:var(--c1)}3.5%,100%{fill:var(--ce)}}.c.c2{fill:var(--c1);animation-name:c2}@keyframes c3{3.8%{fill:var(--c1)}3.82%,100%{fill:var(--ce)}}.c.c3{fill:var(--c1);animation-name:c3}@keyframes c4{48.88%{fill:var(--c2)}48.9%,100%{fill:var(--ce)}}.c.c4{fill:var(--c2);animation-name:c4}@keyframes c5{57.13%{fill:var(--c4)}57.15%,100%{fill:var(--ce)}}.c.c5{fill:var(--c4);animation-name:c5}@keyframes c6{11.42%{fill:var(--c1)}11.44%,100%{fill:var(--ce)}}.c.c6{fill:var(--c1);animation-name:c6}@keyframes c7{15.55%{fill:var(--c1)}15.57%,100%{fill:var(--ce)}}.c.c7{fill:var(--c1);animation-name:c7}@keyframes c8{42.21%{fill:var(--c2)}42.23%,100%{fill:var(--ce)}}.c.c8{fill:var(--c2);animation-name:c8}@keyframes c9{88.24%{fill:var(--c4)}88.26%,100%{fill:var(--ce)}}.c.c9{fill:var(--c4);animation-name:c9}@keyframes ca{14.91%{fill:var(--c1)}14.93%,100%{fill:var(--ce)}}.c.ca{fill:var(--c1);animation-name:ca}@keyframes cb{19.04%{fill:var(--c1)}19.06%,100%{fill:var(--ce)}}.c.cb{fill:var(--c1);animation-name:cb}@keyframes cc{16.5%{fill:var(--c1)}16.52%,100%{fill:var(--ce)}}.c.cc{fill:var(--c1);animation-name:cc}@keyframes cd{16.82%{fill:var(--c1)}16.84%,100%{fill:var(--ce)}}.c.cd{fill:var(--c1);animation-name:cd}@keyframes ce{62.53%{fill:var(--c4)}62.55%,100%{fill:var(--ce)}}.c.ce{fill:var(--c4);animation-name:ce}@keyframes cf{62.21%{fill:var(--c4)}62.23%,100%{fill:var(--ce)}}.c.cf{fill:var(--c4);animation-name:cf}@keyframes cg{39.67%{fill:var(--c2)}39.69%,100%{fill:var(--ce)}}.c.cg{fill:var(--c2);animation-name:cg}@keyframes ch{39.36%{fill:var(--c2)}39.38%,100%{fill:var(--ce)}}.c.ch{fill:var(--c2);animation-name:ch}@keyframes ci{40.94%{fill:var(--c2)}40.96%,100%{fill:var(--ce)}}.c.ci{fill:var(--c2);animation-name:ci}@keyframes cj{20.31%{fill:var(--c2)}20.33%,100%{fill:var(--ce)}}.c.cj{fill:var(--c2);animation-name:cj}@keyframes ck{29.51%{fill:var(--c2)}29.53%,100%{fill:var(--ce)}}.c.ck{fill:var(--c2);animation-name:ck}@keyframes cl{29.2%{fill:var(--c2)}29.22%,100%{fill:var(--ce)}}.c.cl{fill:var(--c2);animation-name:cl}@keyframes cm{31.42%{fill:var(--c2)}31.44%,100%{fill:var(--ce)}}.c.cm{fill:var(--c2);animation-name:cm}@keyframes cn{31.74%{fill:var(--c2)}31.76%,100%{fill:var(--ce)}}.c.cn{fill:var(--c2);animation-name:cn}@keyframes co{39.04%{fill:var(--c2)}39.06%,100%{fill:var(--ce)}}.c.co{fill:var(--c2);animation-name:co}@keyframes cp{40.62%{fill:var(--c2)}40.64%,100%{fill:var(--ce)}}.c.cp{fill:var(--c2);animation-name:cp}@keyframes cq{20.62%{fill:var(--c2)}20.64%,100%{fill:var(--ce)}}.c.cq{fill:var(--c2);animation-name:cq}@keyframes cr{63.48%{fill:var(--c4)}63.5%,100%{fill:var(--ce)}}.c.cr{fill:var(--c4);animation-name:cr}@keyframes cs{28.88%{fill:var(--c2)}28.9%,100%{fill:var(--ce)}}.c.cs{fill:var(--c2);animation-name:cs}@keyframes ct{28.56%{fill:var(--c2)}28.58%,100%{fill:var(--ce)}}.c.ct{fill:var(--c2);animation-name:ct}@keyframes cu{32.05%{fill:var(--c2)}32.07%,100%{fill:var(--ce)}}.c.cu{fill:var(--c2);animation-name:cu}@keyframes cv{38.72%{fill:var(--c2)}38.74%,100%{fill:var(--ce)}}.c.cv{fill:var(--c2);animation-name:cv}@keyframes cw{38.4%{fill:var(--c2)}38.42%,100%{fill:var(--ce)}}.c.cw{fill:var(--c2);animation-name:cw}@keyframes cx{20.94%{fill:var(--c2)}20.96%,100%{fill:var(--ce)}}.c.cx{fill:var(--c2);animation-name:cx}@keyframes cy{25.07%{fill:var(--c2)}25.09%,100%{fill:var(--ce)}}.c.cy{fill:var(--c2);animation-name:cy}@keyframes cz{25.39%{fill:var(--c2)}25.41%,100%{fill:var(--ce)}}.c.cz{fill:var(--c2);animation-name:cz}@keyframes c10{28.24%{fill:var(--c2)}28.26%,100%{fill:var(--ce)}}.c.c10{fill:var(--c2);animation-name:c10}@keyframes c11{32.37%{fill:var(--c2)}32.39%,100%{fill:var(--ce)}}.c.c11{fill:var(--c2);animation-name:c11}@keyframes c12{32.69%{fill:var(--c2)}32.71%,100%{fill:var(--ce)}}.c.c12{fill:var(--c2);animation-name:c12}@keyframes c13{38.09%{fill:var(--c2)}38.11%,100%{fill:var(--ce)}}.c.c13{fill:var(--c2);animation-name:c13}@keyframes c14{21.26%{fill:var(--c2)}21.28%,100%{fill:var(--ce)}}.c.c14{fill:var(--c2);animation-name:c14}@keyframes c15{24.75%{fill:var(--c2)}24.77%,100%{fill:var(--ce)}}.c.c15{fill:var(--c2);animation-name:c15}@keyframes c16{25.7%{fill:var(--c2)}25.72%,100%{fill:var(--ce)}}.c.c16{fill:var(--c2);animation-name:c16}@keyframes c17{27.93%{fill:var(--c2)}27.95%,100%{fill:var(--ce)}}.c.c17{fill:var(--c2);animation-name:c17}@keyframes c18{65.07%{fill:var(--c4)}65.09%,100%{fill:var(--ce)}}.c.c18{fill:var(--c4);animation-name:c18}@keyframes c19{33.01%{fill:var(--c2)}33.03%,100%{fill:var(--ce)}}.c.c19{fill:var(--c2);animation-name:c19}@keyframes c1a{37.77%{fill:var(--c2)}37.79%,100%{fill:var(--ce)}}.c.c1a{fill:var(--c2);animation-name:c1a}@keyframes c1b{21.58%{fill:var(--c2)}21.6%,100%{fill:var(--ce)}}.c.c1b{fill:var(--c2);animation-name:c1b}@keyframes c1c{24.43%{fill:var(--c2)}24.45%,100%{fill:var(--ce)}}.c.c1c{fill:var(--c2);animation-name:c1c}@keyframes c1d{26.02%{fill:var(--c2)}26.04%,100%{fill:var(--ce)}}.c.c1d{fill:var(--c2);animation-name:c1d}@keyframes c1e{27.61%{fill:var(--c2)}27.63%,100%{fill:var(--ce)}}.c.c1e{fill:var(--c2);animation-name:c1e}@keyframes c1f{34.91%{fill:var(--c2)}34.93%,100%{fill:var(--ce)}}.c.c1f{fill:var(--c2);animation-name:c1f}@keyframes c1g{33.32%{fill:var(--c2)}33.34%,100%{fill:var(--ce)}}.c.c1g{fill:var(--c2);animation-name:c1g}@keyframes c1h{35.55%{fill:var(--c2)}35.57%,100%{fill:var(--ce)}}.c.c1h{fill:var(--c2);animation-name:c1h}@keyframes c1i{21.89%{fill:var(--c2)}21.91%,100%{fill:var(--ce)}}.c.c1i{fill:var(--c2);animation-name:c1i}@keyframes c1j{24.12%{fill:var(--c2)}24.14%,100%{fill:var(--ce)}}.c.c1j{fill:var(--c2);animation-name:c1j}@keyframes c1k{26.34%{fill:var(--c2)}26.36%,100%{fill:var(--ce)}}.c.c1k{fill:var(--c2);animation-name:c1k}@keyframes c1l{27.29%{fill:var(--c2)}27.31%,100%{fill:var(--ce)}}.c.c1l{fill:var(--c2);animation-name:c1l}@keyframes c1m{34.59%{fill:var(--c2)}34.61%,100%{fill:var(--ce)}}.c.c1m{fill:var(--c2);animation-name:c1m}@keyframes c1n{33.64%{fill:var(--c2)}33.66%,100%{fill:var(--ce)}}.c.c1n{fill:var(--c2);animation-name:c1n}@keyframes c1o{35.86%{fill:var(--c2)}35.88%,100%{fill:var(--ce)}}.c.c1o{fill:var(--c2);animation-name:c1o}@keyframes c1p{22.21%{fill:var(--c2)}22.23%,100%{fill:var(--ce)}}.c.c1p{fill:var(--c2);animation-name:c1p}@keyframes c1q{23.8%{fill:var(--c2)}23.82%,100%{fill:var(--ce)}}.c.c1q{fill:var(--c2);animation-name:c1q}@keyframes c1r{26.66%{fill:var(--c2)}26.68%,100%{fill:var(--ce)}}.c.c1r{fill:var(--c2);animation-name:c1r}@keyframes c1s{26.97%{fill:var(--c2)}26.99%,100%{fill:var(--ce)}}.c.c1s{fill:var(--c2);animation-name:c1s}@keyframes c1t{34.28%{fill:var(--c2)}34.3%,100%{fill:var(--ce)}}.c.c1t{fill:var(--c2);animation-name:c1t}@keyframes c1u{33.96%{fill:var(--c2)}33.98%,100%{fill:var(--ce)}}.c.c1u{fill:var(--c2);animation-name:c1u}@keyframes c1v{36.18%{fill:var(--c2)}36.2%,100%{fill:var(--ce)}}.c.c1v{fill:var(--c2);animation-name:c1v}@keyframes c1w{22.53%{fill:var(--c2)}22.55%,100%{fill:var(--ce)}}.c.c1w{fill:var(--c2);animation-name:c1w}@keyframes c1x{74.91%{fill:var(--c4)}74.93%,100%{fill:var(--ce)}}.c.c1x{fill:var(--c4);animation-name:c1x}@keyframes c1y{74.59%{fill:var(--c4)}74.61%,100%{fill:var(--ce)}}.c.c1y{fill:var(--c4);animation-name:c1y}@keyframes c1z{83.8%{fill:var(--c4)}83.82%,100%{fill:var(--ce)}}.c.c1z{fill:var(--c4);animation-name:c1z}@keyframes c20{66.34%{fill:var(--c4)}66.36%,100%{fill:var(--ce)}}.c.c20{fill:var(--c4);animation-name:c20}@keyframes c21{79.36%{fill:var(--c4)}79.38%,100%{fill:var(--ce)}}.c.c21{fill:var(--c4);animation-name:c21}@keyframes c22{79.67%{fill:var(--c4)}79.69%,100%{fill:var(--ce)}}.c.c22{fill:var(--c4);animation-name:c22}@keyframes c23{71.1%{fill:var(--c4)}71.12%,100%{fill:var(--ce)}}.c.c23{fill:var(--c4);animation-name:c23}@keyframes c24{71.42%{fill:var(--c4)}71.44%,100%{fill:var(--ce)}}.c.c24{fill:var(--c4);animation-name:c24}@keyframes c25{74.28%{fill:var(--c4)}74.3%,100%{fill:var(--ce)}}.c.c25{fill:var(--c4);animation-name:c25}@keyframes c26{75.86%{fill:var(--c4)}75.88%,100%{fill:var(--ce)}}.c.c26{fill:var(--c4);animation-name:c26}@keyframes c27{66.66%{fill:var(--c4)}66.68%,100%{fill:var(--ce)}}.c.c27{fill:var(--c4);animation-name:c27}@keyframes c28{79.04%{fill:var(--c4)}79.06%,100%{fill:var(--ce)}}.c.c28{fill:var(--c4);animation-name:c28}@keyframes c29{79.99%{fill:var(--c4)}80.01%,100%{fill:var(--ce)}}.c.c29{fill:var(--c4);animation-name:c29}@keyframes c2a{70.78%{fill:var(--c4)}70.8%,100%{fill:var(--ce)}}.c.c2a{fill:var(--c4);animation-name:c2a}@keyframes c2b{71.74%{fill:var(--c4)}71.76%,100%{fill:var(--ce)}}.c.c2b{fill:var(--c4);animation-name:c2b}@keyframes c2c{73.96%{fill:var(--c4)}73.98%,100%{fill:var(--ce)}}.c.c2c{fill:var(--c4);animation-name:c2c}@keyframes c2d{76.18%{fill:var(--c4)}76.2%,100%{fill:var(--ce)}}.c.c2d{fill:var(--c4);animation-name:c2d}@keyframes c2e{66.97%{fill:var(--c4)}66.99%,100%{fill:var(--ce)}}.c.c2e{fill:var(--c4);animation-name:c2e}@keyframes c2f{78.72%{fill:var(--c4)}78.74%,100%{fill:var(--ce)}}.c.c2f{fill:var(--c4);animation-name:c2f}@keyframes c2g{80.31%{fill:var(--c4)}80.33%,100%{fill:var(--ce)}}.c.c2g{fill:var(--c4);animation-name:c2g}@keyframes c2h{70.47%{fill:var(--c4)}70.49%,100%{fill:var(--ce)}}.c.c2h{fill:var(--c4);animation-name:c2h}@keyframes c2i{72.05%{fill:var(--c4)}72.07%,100%{fill:var(--ce)}}.c.c2i{fill:var(--c4);animation-name:c2i}@keyframes c2j{73.64%{fill:var(--c4)}73.66%,100%{fill:var(--ce)}}.c.c2j{fill:var(--c4);animation-name:c2j}@keyframes c2k{76.5%{fill:var(--c4)}76.52%,100%{fill:var(--ce)}}.c.c2k{fill:var(--c4);animation-name:c2k}@keyframes c2l{67.29%{fill:var(--c4)}67.31%,100%{fill:var(--ce)}}.c.c2l{fill:var(--c4);animation-name:c2l}@keyframes c2m{78.4%{fill:var(--c4)}78.42%,100%{fill:var(--ce)}}.c.c2m{fill:var(--c4);animation-name:c2m}@keyframes c2n{80.62%{fill:var(--c4)}80.64%,100%{fill:var(--ce)}}.c.c2n{fill:var(--c4);animation-name:c2n}@keyframes c2o{70.15%{fill:var(--c4)}70.17%,100%{fill:var(--ce)}}.c.c2o{fill:var(--c4);animation-name:c2o}@keyframes c2p{72.37%{fill:var(--c4)}72.39%,100%{fill:var(--ce)}}.c.c2p{fill:var(--c4);animation-name:c2p}@keyframes c2q{73.32%{fill:var(--c4)}73.34%,100%{fill:var(--ce)}}.c.c2q{fill:var(--c4);animation-name:c2q}@keyframes c2r{76.82%{fill:var(--c4)}76.84%,100%{fill:var(--ce)}}.c.c2r{fill:var(--c4);animation-name:c2r}@keyframes c2s{67.61%{fill:var(--c4)}67.63%,100%{fill:var(--ce)}}.c.c2s{fill:var(--c4);animation-name:c2s}@keyframes c2t{78.09%{fill:var(--c4)}78.11%,100%{fill:var(--ce)}}.c.c2t{fill:var(--c4);animation-name:c2t}@keyframes c2u{80.94%{fill:var(--c4)}80.96%,100%{fill:var(--ce)}}.c.c2u{fill:var(--c4);animation-name:c2u}@keyframes c2v{69.83%{fill:var(--c4)}69.85%,100%{fill:var(--ce)}}.c.c2v{fill:var(--c4);animation-name:c2v}@keyframes c2w{72.69%{fill:var(--c4)}72.71%,100%{fill:var(--ce)}}.c.c2w{fill:var(--c4);animation-name:c2w}@keyframes c2x{73.01%{fill:var(--c4)}73.03%,100%{fill:var(--ce)}}.c.c2x{fill:var(--c4);animation-name:c2x}@keyframes c2y{77.13%{fill:var(--c4)}77.15%,100%{fill:var(--ce)}}.c.c2y{fill:var(--c4);animation-name:c2y}@keyframes c2z{67.93%{fill:var(--c4)}67.95%,100%{fill:var(--ce)}}.c.c2z{fill:var(--c4);animation-name:c2z}@keyframes c30{77.77%{fill:var(--c4)}77.79%,100%{fill:var(--ce)}}.c.c30{fill:var(--c4);animation-name:c30}@keyframes c31{81.26%{fill:var(--c4)}81.28%,100%{fill:var(--ce)}}.c.c31{fill:var(--c4);animation-name:c31}@keyframes c32{69.51%{fill:var(--c4)}69.53%,100%{fill:var(--ce)}}.c.c32{fill:var(--c4);animation-name:c32}@keyframes c33{69.2%{fill:var(--c4)}69.22%,100%{fill:var(--ce)}}.c.c33{fill:var(--c4);animation-name:c33}@keyframes c34{68.88%{fill:var(--c4)}68.9%,100%{fill:var(--ce)}}.c.c34{fill:var(--c4);animation-name:c34}@keyframes c35{68.56%{fill:var(--c4)}68.58%,100%{fill:var(--ce)}}.c.c35{fill:var(--c4);animation-name:c35}@keyframes c36{68.24%{fill:var(--c4)}68.26%,100%{fill:var(--ce)}}.c.c36{fill:var(--c4);animation-name:c36}.u{transform-origin:0 0;transform:scale(0,1);animation:none linear 31500ms infinite}@keyframes u0{3.48%{transform:scale(0.000,1)}3.5%,3.8%{transform:scale(0.111,1)}3.82%,5.7%{transform:scale(0.222,1)}5.72%,11.42%{transform:scale(0.333,1)}11.44%,14.91%{transform:scale(0.444,1)}14.93%,15.55%{transform:scale(0.556,1)}15.57%,16.5%{transform:scale(0.667,1)}16.52%,16.82%{transform:scale(0.778,1)}16.84%,19.04%{transform:scale(0.889,1)}19.06%,100%{transform:scale(1.000,1)}}.u.u0{fill:var(--c1);animation-name:u0;transform-origin:0.0px 0}@keyframes u1{20.31%{transform:scale(0.000,1)}20.33%,20.62%{transform:scale(0.019,1)}20.64%,20.94%{transform:scale(0.037,1)}20.96%,21.26%{transform:scale(0.056,1)}21.28%,21.58%{transform:scale(0.074,1)}21.6%,21.89%{transform:scale(0.093,1)}21.91%,22.21%{transform:scale(0.111,1)}22.23%,22.53%{transform:scale(0.130,1)}22.55%,23.8%{transform:scale(0.148,1)}23.82%,24.12%{transform:scale(0.167,1)}24.14%,24.43%{transform:scale(0.185,1)}24.45%,24.75%{transform:scale(0.204,1)}24.77%,25.07%{transform:scale(0.222,1)}25.09%,25.39%{transform:scale(0.241,1)}25.41%,25.7%{transform:scale(0.259,1)}25.72%,26.02%{transform:scale(0.278,1)}26.04%,26.34%{transform:scale(0.296,1)}26.36%,26.66%{transform:scale(0.315,1)}26.68%,26.97%{transform:scale(0.333,1)}26.99%,27.29%{transform:scale(0.352,1)}27.31%,27.61%{transform:scale(0.370,1)}27.63%,27.93%{transform:scale(0.389,1)}27.95%,28.24%{transform:scale(0.407,1)}28.26%,28.56%{transform:scale(0.426,1)}28.58%,28.88%{transform:scale(0.444,1)}28.9%,29.2%{transform:scale(0.463,1)}29.22%,29.51%{transform:scale(0.481,1)}29.53%,31.42%{transform:scale(0.500,1)}31.44%,31.74%{transform:scale(0.519,1)}31.76%,32.05%{transform:scale(0.537,1)}32.07%,32.37%{transform:scale(0.556,1)}32.39%,32.69%{transform:scale(0.574,1)}32.71%,33.01%{transform:scale(0.593,1)}33.03%,33.32%{transform:scale(0.611,1)}33.34%,33.64%{transform:scale(0.630,1)}33.66%,33.96%{transform:scale(0.648,1)}33.98%,34.28%{transform:scale(0.667,1)}34.3%,34.59%{transform:scale(0.685,1)}34.61%,34.91%{transform:scale(0.704,1)}34.93%,35.55%{transform:scale(0.722,1)}35.57%,35.86%{transform:scale(0.741,1)}35.88%,36.18%{transform:scale(0.759,1)}36.2%,37.77%{transform:scale(0.778,1)}37.79%,38.09%{transform:scale(0.796,1)}38.11%,38.4%{transform:scale(0.815,1)}38.42%,38.72%{transform:scale(0.833,1)}38.74%,39.04%{transform:scale(0.852,1)}39.06%,39.36%{transform:scale(0.870,1)}39.38%,39.67%{transform:scale(0.889,1)}39.69%,40.62%{transform:scale(0.907,1)}40.64%,40.94%{transform:scale(0.926,1)}40.96%,42.21%{transform:scale(0.944,1)}42.23%,48.88%{transform:scale(0.963,1)}48.9%,51.74%{transform:scale(0.981,1)}51.76%,100%{transform:scale(1.000,1)}}.u.u1{fill:var(--c2);animation-name:u1;transform-origin:66.4px 0}@keyframes u2{57.13%{transform:scale(0.000,1)}57.15%,62.21%{transform:scale(0.019,1)}62.23%,62.53%{transform:scale(0.038,1)}62.55%,63.48%{transform:scale(0.058,1)}63.5%,65.07%{transform:scale(0.077,1)}65.09%,66.34%{transform:scale(0.096,1)}66.36%,66.66%{transform:scale(0.115,1)}66.68%,66.97%{transform:scale(0.135,1)}66.99%,67.29%{transform:scale(0.154,1)}67.31%,67.61%{transform:scale(0.173,1)}67.63%,67.93%{transform:scale(0.192,1)}67.95%,68.24%{transform:scale(0.212,1)}68.26%,68.56%{transform:scale(0.231,1)}68.58%,68.88%{transform:scale(0.250,1)}68.9%,69.2%{transform:scale(0.269,1)}69.22%,69.51%{transform:scale(0.288,1)}69.53%,69.83%{transform:scale(0.308,1)}69.85%,70.15%{transform:scale(0.327,1)}70.17%,70.47%{transform:scale(0.346,1)}70.49%,70.78%{transform:scale(0.365,1)}70.8%,71.1%{transform:scale(0.385,1)}71.12%,71.42%{transform:scale(0.404,1)}71.44%,71.74%{transform:scale(0.423,1)}71.76%,72.05%{transform:scale(0.442,1)}72.07%,72.37%{transform:scale(0.462,1)}72.39%,72.69%{transform:scale(0.481,1)}72.71%,73.01%{transform:scale(0.500,1)}73.03%,73.32%{transform:scale(0.519,1)}73.34%,73.64%{transform:scale(0.538,1)}73.66%,73.96%{transform:scale(0.558,1)}73.98%,74.28%{transform:scale(0.577,1)}74.3%,74.59%{transform:scale(0.596,1)}74.61%,74.91%{transform:scale(0.615,1)}74.93%,75.86%{transform:scale(0.635,1)}75.88%,76.18%{transform:scale(0.654,1)}76.2%,76.5%{transform:scale(0.673,1)}76.52%,76.82%{transform:scale(0.692,1)}76.84%,77.13%{transform:scale(0.712,1)}77.15%,77.77%{transform:scale(0.731,1)}77.79%,78.09%{transform:scale(0.750,1)}78.11%,78.4%{transform:scale(0.769,1)}78.42%,78.72%{transform:scale(0.788,1)}78.74%,79.04%{transform:scale(0.808,1)}79.06%,79.36%{transform:scale(0.827,1)}79.38%,79.67%{transform:scale(0.846,1)}79.69%,79.99%{transform:scale(0.865,1)}80.01%,80.31%{transform:scale(0.885,1)}80.33%,80.62%{transform:scale(0.904,1)}80.64%,80.94%{transform:scale(0.923,1)}80.96%,81.26%{transform:scale(0.942,1)}81.28%,83.8%{transform:scale(0.962,1)}83.82%,88.24%{transform:scale(0.981,1)}88.26%,100%{transform:scale(1.000,1)}}.u.u2{fill:var(--c4);animation-name:u2;transform-origin:464.6px 0}.s{shape-rendering:geometricPrecision;fill:var(--cs);animation:none linear 31500ms infinite}@keyframes s0{0%,99.68%{transform:translate(0px,-16px)}0.32%{transform:translate(0px,0px)}3.49%{transform:translate(160px,0px)}3.81%{transform:translate(160px,16px)}4.44%{transform:translate(128px,16px)}5.71%{transform:translate(128px,80px)}10.79%{transform:translate(384px,80px)}11.43%{transform:translate(384px,48px)}14.92%{transform:translate(560px,48px)}15.24%{transform:translate(560px,64px)}15.56%{transform:translate(544px,64px)}15.87%,42.54%{transform:translate(544px,80px)}16.51%{transform:translate(576px,80px)}16.83%{transform:translate(576px,96px)}17.14%{transform:translate(592px,96px)}18.73%{transform:translate(592px,16px)}19.05%{transform:translate(576px,16px)}19.37%{transform:translate(576px,0px)}22.54%,84.76%{transform:translate(736px,0px)}22.86%{transform:translate(736px,-16px)}23.17%{transform:translate(720px,-16px)}23.81%{transform:translate(720px,16px)}25.08%{transform:translate(656px,16px)}25.4%{transform:translate(656px,32px)}26.67%{transform:translate(720px,32px)}26.98%{transform:translate(720px,48px)}28.57%{transform:translate(640px,48px)}28.89%,63.17%{transform:translate(640px,32px)}29.21%{transform:translate(624px,32px)}29.84%{transform:translate(624px,0px)}30.16%{transform:translate(608px,0px)}30.48%{transform:translate(608px,16px)}30.79%{transform:translate(624px,16px)}31.75%,40%{transform:translate(624px,64px)}32.38%{transform:translate(656px,64px)}32.7%{transform:translate(656px,80px)}33.97%,36.51%{transform:translate(720px,80px)}34.29%{transform:translate(720px,64px)}34.92%{transform:translate(688px,64px)}35.56%{transform:translate(688px,96px)}36.19%{transform:translate(720px,96px)}37.46%{transform:translate(672px,80px)}37.78%{transform:translate(672px,96px)}38.41%{transform:translate(640px,96px)}38.73%{transform:translate(640px,80px)}39.37%{transform:translate(608px,80px)}39.68%,61.9%{transform:translate(608px,64px)}40.63%{transform:translate(624px,96px)}42.22%{transform:translate(544px,96px)}46.35%{transform:translate(352px,80px)}46.67%{transform:translate(352px,64px)}51.11%{transform:translate(128px,64px)}51.75%{transform:translate(128px,96px)}56.51%{transform:translate(368px,96px)}57.14%{transform:translate(368px,64px)}62.54%{transform:translate(608px,32px)}63.49%{transform:translate(640px,16px)}64.13%{transform:translate(672px,16px)}65.08%{transform:translate(672px,64px)}68.25%{transform:translate(832px,64px)}69.52%{transform:translate(832px,0px)}71.11%{transform:translate(752px,0px)}71.43%,75.24%{transform:translate(752px,16px)}72.7%{transform:translate(816px,16px)}73.02%{transform:translate(816px,32px)}74.6%{transform:translate(736px,32px)}74.92%{transform:translate(736px,16px)}75.87%{transform:translate(752px,48px)}77.14%,82.22%{transform:translate(816px,48px)}77.78%{transform:translate(816px,80px)}79.37%{transform:translate(736px,80px)}79.68%{transform:translate(736px,96px)}81.27%{transform:translate(816px,96px)}83.81%{transform:translate(736px,48px)}97.46%{transform:translate(96px,0px)}97.78%{transform:translate(96px,-16px)}}.s.s0{transform:translate(0px,-16px);animation-name:s0}@keyframes s1{0%,99.68%{transform:translate(16px,-16px)}0.32%{transform:translate(0px,-16px)}0.63%{transform:translate(0px,0px)}3.81%{transform:translate(160px,0px)}4.13%{transform:translate(160px,16px)}4.76%{transform:translate(128px,16px)}6.03%{transform:translate(128px,80px)}11.11%{transform:translate(384px,80px)}11.75%{transform:translate(384px,48px)}15.24%{transform:translate(560px,48px)}15.56%{transform:translate(560px,64px)}15.87%{transform:translate(544px,64px)}16.19%,42.86%{transform:translate(544px,80px)}16.83%{transform:translate(576px,80px)}17.14%{transform:translate(576px,96px)}17.46%{transform:translate(592px,96px)}19.05%{transform:translate(592px,16px)}19.37%{transform:translate(576px,16px)}19.68%{transform:translate(576px,0px)}22.86%,85.08%{transform:translate(736px,0px)}23.17%{transform:translate(736px,-16px)}23.49%{transform:translate(720px,-16px)}24.13%{transform:translate(720px,16px)}25.4%{transform:translate(656px,16px)}25.71%{transform:translate(656px,32px)}26.98%{transform:translate(720px,32px)}27.3%{transform:translate(720px,48px)}28.89%{transform:translate(640px,48px)}29.21%,63.49%{transform:translate(640px,32px)}29.52%{transform:translate(624px,32px)}30.16%{transform:translate(624px,0px)}30.48%{transform:translate(608px,0px)}30.79%{transform:translate(608px,16px)}31.11%{transform:translate(624px,16px)}32.06%,40.32%{transform:translate(624px,64px)}32.7%{transform:translate(656px,64px)}33.02%{transform:translate(656px,80px)}34.29%,36.83%{transform:translate(720px,80px)}34.6%{transform:translate(720px,64px)}35.24%{transform:translate(688px,64px)}35.87%{transform:translate(688px,96px)}36.51%{transform:translate(720px,96px)}37.78%{transform:translate(672px,80px)}38.1%{transform:translate(672px,96px)}38.73%{transform:translate(640px,96px)}39.05%{transform:translate(640px,80px)}39.68%{transform:translate(608px,80px)}40%,62.22%{transform:translate(608px,64px)}40.95%{transform:translate(624px,96px)}42.54%{transform:translate(544px,96px)}46.67%{transform:translate(352px,80px)}46.98%{transform:translate(352px,64px)}51.43%{transform:translate(128px,64px)}52.06%{transform:translate(128px,96px)}56.83%{transform:translate(368px,96px)}57.46%{transform:translate(368px,64px)}62.86%{transform:translate(608px,32px)}63.81%{transform:translate(640px,16px)}64.44%{transform:translate(672px,16px)}65.4%{transform:translate(672px,64px)}68.57%{transform:translate(832px,64px)}69.84%{transform:translate(832px,0px)}71.43%{transform:translate(752px,0px)}71.75%,75.56%{transform:translate(752px,16px)}73.02%{transform:translate(816px,16px)}73.33%{transform:translate(816px,32px)}74.92%{transform:translate(736px,32px)}75.24%{transform:translate(736px,16px)}76.19%{transform:translate(752px,48px)}77.46%,82.54%{transform:translate(816px,48px)}78.1%{transform:translate(816px,80px)}79.68%{transform:translate(736px,80px)}80%{transform:translate(736px,96px)}81.59%{transform:translate(816px,96px)}84.13%{transform:translate(736px,48px)}97.78%{transform:translate(96px,0px)}98.1%{transform:translate(96px,-16px)}}.s.s1{transform:translate(16px,-16px);animation-name:s1}@keyframes s2{0%,99.68%{transform:translate(32px,-16px)}0.63%{transform:translate(0px,-16px)}0.95%{transform:translate(0px,0px)}4.13%{transform:translate(160px,0px)}4.44%{transform:translate(160px,16px)}5.08%{transform:translate(128px,16px)}6.35%{transform:translate(128px,80px)}11.43%{transform:translate(384px,80px)}12.06%{transform:translate(384px,48px)}15.56%{transform:translate(560px,48px)}15.87%{transform:translate(560px,64px)}16.19%{transform:translate(544px,64px)}16.51%,43.17%{transform:translate(544px,80px)}17.14%{transform:translate(576px,80px)}17.46%{transform:translate(576px,96px)}17.78%{transform:translate(592px,96px)}19.37%{transform:translate(592px,16px)}19.68%{transform:translate(576px,16px)}20%{transform:translate(576px,0px)}23.17%,85.4%{transform:translate(736px,0px)}23.49%{transform:translate(736px,-16px)}23.81%{transform:translate(720px,-16px)}24.44%{transform:translate(720px,16px)}25.71%{transform:translate(656px,16px)}26.03%{transform:translate(656px,32px)}27.3%{transform:translate(720px,32px)}27.62%{transform:translate(720px,48px)}29.21%{transform:translate(640px,48px)}29.52%,63.81%{transform:translate(640px,32px)}29.84%{transform:translate(624px,32px)}30.48%{transform:translate(624px,0px)}30.79%{transform:translate(608px,0px)}31.11%{transform:translate(608px,16px)}31.43%{transform:translate(624px,16px)}32.38%,40.63%{transform:translate(624px,64px)}33.02%{transform:translate(656px,64px)}33.33%{transform:translate(656px,80px)}34.6%,37.14%{transform:translate(720px,80px)}34.92%{transform:translate(720px,64px)}35.56%{transform:translate(688px,64px)}36.19%{transform:translate(688px,96px)}36.83%{transform:translate(720px,96px)}38.1%{transform:translate(672px,80px)}38.41%{transform:translate(672px,96px)}39.05%{transform:translate(640px,96px)}39.37%{transform:translate(640px,80px)}40%{transform:translate(608px,80px)}40.32%,62.54%{transform:translate(608px,64px)}41.27%{transform:translate(624px,96px)}42.86%{transform:translate(544px,96px)}46.98%{transform:translate(352px,80px)}47.3%{transform:translate(352px,64px)}51.75%{transform:translate(128px,64px)}52.38%{transform:translate(128px,96px)}57.14%{transform:translate(368px,96px)}57.78%{transform:translate(368px,64px)}63.17%{transform:translate(608px,32px)}64.13%{transform:translate(640px,16px)}64.76%{transform:translate(672px,16px)}65.71%{transform:translate(672px,64px)}68.89%{transform:translate(832px,64px)}70.16%{transform:translate(832px,0px)}71.75%{transform:translate(752px,0px)}72.06%,75.87%{transform:translate(752px,16px)}73.33%{transform:translate(816px,16px)}73.65%{transform:translate(816px,32px)}75.24%{transform:translate(736px,32px)}75.56%{transform:translate(736px,16px)}76.51%{transform:translate(752px,48px)}77.78%,82.86%{transform:translate(816px,48px)}78.41%{transform:translate(816px,80px)}80%{transform:translate(736px,80px)}80.32%{transform:translate(736px,96px)}81.9%{transform:translate(816px,96px)}84.44%{transform:translate(736px,48px)}98.1%{transform:translate(96px,0px)}98.41%{transform:translate(96px,-16px)}}.s.s2{transform:translate(32px,-16px);animation-name:s2}@keyframes s3{0%,99.68%{transform:translate(48px,-16px)}0.95%{transform:translate(0px,-16px)}1.27%{transform:translate(0px,0px)}4.44%{transform:translate(160px,0px)}4.76%{transform:translate(160px,16px)}5.4%{transform:translate(128px,16px)}6.67%{transform:translate(128px,80px)}11.75%{transform:translate(384px,80px)}12.38%{transform:translate(384px,48px)}15.87%{transform:translate(560px,48px)}16.19%{transform:translate(560px,64px)}16.51%{transform:translate(544px,64px)}16.83%,43.49%{transform:translate(544px,80px)}17.46%{transform:translate(576px,80px)}17.78%{transform:translate(576px,96px)}18.1%{transform:translate(592px,96px)}19.68%{transform:translate(592px,16px)}20%{transform:translate(576px,16px)}20.32%{transform:translate(576px,0px)}23.49%,85.71%{transform:translate(736px,0px)}23.81%{transform:translate(736px,-16px)}24.13%{transform:translate(720px,-16px)}24.76%{transform:translate(720px,16px)}26.03%{transform:translate(656px,16px)}26.35%{transform:translate(656px,32px)}27.62%{transform:translate(720px,32px)}27.94%{transform:translate(720px,48px)}29.52%{transform:translate(640px,48px)}29.84%,64.13%{transform:translate(640px,32px)}30.16%{transform:translate(624px,32px)}30.79%{transform:translate(624px,0px)}31.11%{transform:translate(608px,0px)}31.43%{transform:translate(608px,16px)}31.75%{transform:translate(624px,16px)}32.7%,40.95%{transform:translate(624px,64px)}33.33%{transform:translate(656px,64px)}33.65%{transform:translate(656px,80px)}34.92%,37.46%{transform:translate(720px,80px)}35.24%{transform:translate(720px,64px)}35.87%{transform:translate(688px,64px)}36.51%{transform:translate(688px,96px)}37.14%{transform:translate(720px,96px)}38.41%{transform:translate(672px,80px)}38.73%{transform:translate(672px,96px)}39.37%{transform:translate(640px,96px)}39.68%{transform:translate(640px,80px)}40.32%{transform:translate(608px,80px)}40.63%,62.86%{transform:translate(608px,64px)}41.59%{transform:translate(624px,96px)}43.17%{transform:translate(544px,96px)}47.3%{transform:translate(352px,80px)}47.62%{transform:translate(352px,64px)}52.06%{transform:translate(128px,64px)}52.7%{transform:translate(128px,96px)}57.46%{transform:translate(368px,96px)}58.1%{transform:translate(368px,64px)}63.49%{transform:translate(608px,32px)}64.44%{transform:translate(640px,16px)}65.08%{transform:translate(672px,16px)}66.03%{transform:translate(672px,64px)}69.21%{transform:translate(832px,64px)}70.48%{transform:translate(832px,0px)}72.06%{transform:translate(752px,0px)}72.38%,76.19%{transform:translate(752px,16px)}73.65%{transform:translate(816px,16px)}73.97%{transform:translate(816px,32px)}75.56%{transform:translate(736px,32px)}75.87%{transform:translate(736px,16px)}76.83%{transform:translate(752px,48px)}78.1%,83.17%{transform:translate(816px,48px)}78.73%{transform:translate(816px,80px)}80.32%{transform:translate(736px,80px)}80.63%{transform:translate(736px,96px)}82.22%{transform:translate(816px,96px)}84.76%{transform:translate(736px,48px)}98.41%{transform:translate(96px,0px)}98.73%{transform:translate(96px,-16px)}}.s.s3{transform:translate(48px,-16px);animation-name:s3}</style><rect class="c" x="2" y="2" rx="2" ry="2"/><rect class="c" x="2" y="18" rx="2" ry="2"/><rect class="c" x="2" y="34" rx="2" ry="2"/><rect class="c" x="2" y="50" rx="2" ry="2"/><rect class="c" x="2" y="66" rx="2" ry="2"/><rect class="c" x="2" y="82" rx="2" ry="2"/><rect class="c" x="2" y="98" rx="2" ry="2"/><rect class="c" x="18" y="2" rx="2" ry="2"/><rect class="c" x="18" y="18" rx="2" ry="2"/><rect class="c" x="18" y="34" rx="2" ry="2"/><rect class="c" x="18" y="50" rx="2" ry="2"/><rect class="c" x="18" y="66" rx="2" ry="2"/><rect class="c" x="18" y="82" rx="2" ry="2"/><rect class="c" x="18" y="98" rx="2" ry="2"/><rect class="c" x="34" y="2" rx="2" ry="2"/><rect class="c" x="34" y="18" rx="2" ry="2"/><rect class="c" x="34" y="34" rx="2" ry="2"/><rect class="c" x="34" y="50" rx="2" ry="2"/><rect class="c" x="34" y="66" rx="2" ry="2"/><rect class="c" x="34" y="82" rx="2" ry="2"/><rect class="c" x="34" y="98" rx="2" ry="2"/><rect class="c" x="50" y="2" rx="2" ry="2"/><rect class="c" x="50" y="18" rx="2" ry="2"/><rect class="c" x="50" y="34" rx="2" ry="2"/><rect class="c" x="50" y="50" rx="2" ry="2"/><rect class="c" x="50" y="66" rx="2" ry="2"/><rect class="c" x="50" y="82" rx="2" ry="2"/><rect class="c" x="50" y="98" rx="2" ry="2"/><rect class="c" x="66" y="2" rx="2" ry="2"/><rect class="c" x="66" y="18" rx="2" ry="2"/><rect class="c" x="66" y="34" rx="2" ry="2"/><rect class="c" x="66" y="50" rx="2" ry="2"/><rect class="c" x="66" y="66" rx="2" ry="2"/><rect class="c" x="66" y="82" rx="2" ry="2"/><rect class="c" x="66" y="98" rx="2" ry="2"/><rect class="c" x="82" y="2" rx="2" ry="2"/><rect class="c" x="82" y="18" rx="2" ry="2"/><rect class="c" x="82" y="34" rx="2" ry="2"/><rect class="c" x="82" y="50" rx="2" ry="2"/><rect class="c" x="82" y="66" rx="2" ry="2"/><rect class="c" x="82" y="82" rx="2" ry="2"/><rect class="c" x="82" y="98" rx="2" ry="2"/><rect class="c" x="98" y="2" rx="2" ry="2"/><rect class="c" x="98" y="18" rx="2" ry="2"/><rect class="c" x="98" y="34" rx="2" ry="2"/><rect class="c" x="98" y="50" rx="2" ry="2"/><rect class="c" x="98" y="66" rx="2" ry="2"/><rect class="c" x="98" y="82" rx="2" ry="2"/><rect class="c" x="98" y="98" rx="2" ry="2"/><rect class="c" x="114" y="2" rx="2" ry="2"/><rect class="c" x="114" y="18" rx="2" ry="2"/><rect class="c" x="114" y="34" rx="2" ry="2"/><rect class="c" x="114" y="50" rx="2" ry="2"/><rect class="c" x="114" y="66" rx="2" ry="2"/><rect class="c" x="114" y="82" rx="2" ry="2"/><rect class="c" x="114" y="98" rx="2" ry="2"/><rect class="c" x="130" y="2" rx="2" ry="2"/><rect class="c" x="130" y="18" rx="2" ry="2"/><rect class="c" x="130" y="34" rx="2" ry="2"/><rect class="c" x="130" y="50" rx="2" ry="2"/><rect class="c" x="130" y="66" rx="2" ry="2"/><rect class="c c0" x="130" y="82" rx="2" ry="2"/><rect class="c c1" x="130" y="98" rx="2" ry="2"/><rect class="c" x="146" y="2" rx="2" ry="2"/><rect class="c" x="146" y="18" rx="2" ry="2"/><rect class="c" x="146" y="34" rx="2" ry="2"/><rect class="c" x="146" y="50" rx="2" ry="2"/><rect class="c" x="146" y="66" rx="2" ry="2"/><rect class="c" x="146" y="82" rx="2" ry="2"/><rect class="c" x="146" y="98" rx="2" ry="2"/><rect class="c c2" x="162" y="2" rx="2" ry="2"/><rect class="c c3" x="162" y="18" rx="2" ry="2"/><rect class="c" x="162" y="34" rx="2" ry="2"/><rect class="c" x="162" y="50" rx="2" ry="2"/><rect class="c" x="162" y="66" rx="2" ry="2"/><rect class="c" x="162" y="82" rx="2" ry="2"/><rect class="c" x="162" y="98" rx="2" ry="2"/><rect class="c" x="178" y="2" rx="2" ry="2"/><rect class="c" x="178" y="18" rx="2" ry="2"/><rect class="c" x="178" y="34" rx="2" ry="2"/><rect class="c" x="178" y="50" rx="2" ry="2"/><rect class="c" x="178" y="66" rx="2" ry="2"/><rect class="c" x="178" y="82" rx="2" ry="2"/><rect class="c" x="178" y="98" rx="2" ry="2"/><rect class="c" x="194" y="2" rx="2" ry="2"/><rect class="c" x="194" y="18" rx="2" ry="2"/><rect class="c" x="194" y="34" rx="2" ry="2"/><rect class="c" x="194" y="50" rx="2" ry="2"/><rect class="c" x="194" y="66" rx="2" ry="2"/><rect class="c" x="194" y="82" rx="2" ry="2"/><rect class="c" x="194" y="98" rx="2" ry="2"/><rect class="c" x="210" y="2" rx="2" ry="2"/><rect class="c" x="210" y="18" rx="2" ry="2"/><rect class="c" x="210" y="34" rx="2" ry="2"/><rect class="c" x="210" y="50" rx="2" ry="2"/><rect class="c" x="210" y="66" rx="2" ry="2"/><rect class="c" x="210" y="82" rx="2" ry="2"/><rect class="c" x="210" y="98" rx="2" ry="2"/><rect class="c" x="226" y="2" rx="2" ry="2"/><rect class="c" x="226" y="18" rx="2" ry="2"/><rect class="c" x="226" y="34" rx="2" ry="2"/><rect class="c" x="226" y="50" rx="2" ry="2"/><rect class="c" x="226" y="66" rx="2" ry="2"/><rect class="c" x="226" y="82" rx="2" ry="2"/><rect class="c" x="226" y="98" rx="2" ry="2"/><rect class="c" x="242" y="2" rx="2" ry="2"/><rect class="c" x="242" y="18" rx="2" ry="2"/><rect class="c" x="242" y="34" rx="2" ry="2"/><rect class="c" x="242" y="50" rx="2" ry="2"/><rect class="c c4" x="242" y="66" rx="2" ry="2"/><rect class="c" x="242" y="82" rx="2" ry="2"/><rect class="c" x="242" y="98" rx="2" ry="2"/><rect class="c" x="258" y="2" rx="2" ry="2"/><rect class="c" x="258" y="18" rx="2" ry="2"/><rect class="c" x="258" y="34" rx="2" ry="2"/><rect class="c" x="258" y="50" rx="2" ry="2"/><rect class="c" x="258" y="66" rx="2" ry="2"/><rect class="c" x="258" y="82" rx="2" ry="2"/><rect class="c" x="258" y="98" rx="2" ry="2"/><rect class="c" x="274" y="2" rx="2" ry="2"/><rect class="c" x="274" y="18" rx="2" ry="2"/><rect class="c" x="274" y="34" rx="2" ry="2"/><rect class="c" x="274" y="50" rx="2" ry="2"/><rect class="c" x="274" y="66" rx="2" ry="2"/><rect class="c" x="274" y="82" rx="2" ry="2"/><rect class="c" x="274" y="98" rx="2" ry="2"/><rect class="c" x="290" y="2" rx="2" ry="2"/><rect class="c" x="290" y="18" rx="2" ry="2"/><rect class="c" x="290" y="34" rx="2" ry="2"/><rect class="c" x="290" y="50" rx="2" ry="2"/><rect class="c" x="290" y="66" rx="2" ry="2"/><rect class="c" x="290" y="82" rx="2" ry="2"/><rect class="c" x="290" y="98" rx="2" ry="2"/><rect class="c" x="306" y="2" rx="2" ry="2"/><rect class="c" x="306" y="18" rx="2" ry="2"/><rect class="c" x="306" y="34" rx="2" ry="2"/><rect class="c" x="306" y="50" rx="2" ry="2"/><rect class="c" x="306" y="66" rx="2" ry="2"/><rect class="c" x="306" y="82" rx="2" ry="2"/><rect class="c" x="306" y="98" rx="2" ry="2"/><rect class="c" x="322" y="2" rx="2" ry="2"/><rect class="c" x="322" y="18" rx="2" ry="2"/><rect class="c" x="322" y="34" rx="2" ry="2"/><rect class="c" x="322" y="50" rx="2" ry="2"/><rect class="c" x="322" y="66" rx="2" ry="2"/><rect class="c" x="322" y="82" rx="2" ry="2"/><rect class="c" x="322" y="98" rx="2" ry="2"/><rect class="c" x="338" y="2" rx="2" ry="2"/><rect class="c" x="338" y="18" rx="2" ry="2"/><rect class="c" x="338" y="34" rx="2" ry="2"/><rect class="c" x="338" y="50" rx="2" ry="2"/><rect class="c" x="338" y="66" rx="2" ry="2"/><rect class="c" x="338" y="82" rx="2" ry="2"/><rect class="c" x="338" y="98" rx="2" ry="2"/><rect class="c" x="354" y="2" rx="2" ry="2"/><rect class="c" x="354" y="18" rx="2" ry="2"/><rect class="c" x="354" y="34" rx="2" ry="2"/><rect class="c" x="354" y="50" rx="2" ry="2"/><rect class="c" x="354" y="66" rx="2" ry="2"/><rect class="c" x="354" y="82" rx="2" ry="2"/><rect class="c" x="354" y="98" rx="2" ry="2"/><rect class="c" x="370" y="2" rx="2" ry="2"/><rect class="c" x="370" y="18" rx="2" ry="2"/><rect class="c" x="370" y="34" rx="2" ry="2"/><rect class="c" x="370" y="50" rx="2" ry="2"/><rect class="c c5" x="370" y="66" rx="2" ry="2"/><rect class="c" x="370" y="82" rx="2" ry="2"/><rect class="c" x="370" y="98" rx="2" ry="2"/><rect class="c" x="386" y="2" rx="2" ry="2"/><rect class="c" x="386" y="18" rx="2" ry="2"/><rect class="c" x="386" y="34" rx="2" ry="2"/><rect class="c c6" x="386" y="50" rx="2" ry="2"/><rect class="c" x="386" y="66" rx="2" ry="2"/><rect class="c" x="386" y="82" rx="2" ry="2"/><rect class="c" x="386" y="98" rx="2" ry="2"/><rect class="c" x="402" y="2" rx="2" ry="2"/><rect class="c" x="402" y="18" rx="2" ry="2"/><rect class="c" x="402" y="34" rx="2" ry="2"/><rect class="c" x="402" y="50" rx="2" ry="2"/><rect class="c" x="402" y="66" rx="2" ry="2"/><rect class="c" x="402" y="82" rx="2" ry="2"/><rect class="c" x="402" y="98" rx="2" ry="2"/><rect class="c" x="418" y="2" rx="2" ry="2"/><rect class="c" x="418" y="18" rx="2" ry="2"/><rect class="c" x="418" y="34" rx="2" ry="2"/><rect class="c" x="418" y="50" rx="2" ry="2"/><rect class="c" x="418" y="66" rx="2" ry="2"/><rect class="c" x="418" y="82" rx="2" ry="2"/><rect class="c" x="418" y="98" rx="2" ry="2"/><rect class="c" x="434" y="2" rx="2" ry="2"/><rect class="c" x="434" y="18" rx="2" ry="2"/><rect class="c" x="434" y="34" rx="2" ry="2"/><rect class="c" x="434" y="50" rx="2" ry="2"/><rect class="c" x="434" y="66" rx="2" ry="2"/><rect class="c" x="434" y="82" rx="2" ry="2"/><rect class="c" x="434" y="98" rx="2" ry="2"/><rect class="c" x="450" y="2" rx="2" ry="2"/><rect class="c" x="450" y="18" rx="2" ry="2"/><rect class="c" x="450" y="34" rx="2" ry="2"/><rect class="c" x="450" y="50" rx="2" ry="2"/><rect class="c" x="450" y="66" rx="2" ry="2"/><rect class="c" x="450" y="82" rx="2" ry="2"/><rect class="c" x="450" y="98" rx="2" ry="2"/><rect class="c" x="466" y="2" rx="2" ry="2"/><rect class="c" x="466" y="18" rx="2" ry="2"/><rect class="c" x="466" y="34" rx="2" ry="2"/><rect class="c" x="466" y="50" rx="2" ry="2"/><rect class="c" x="466" y="66" rx="2" ry="2"/><rect class="c" x="466" y="82" rx="2" ry="2"/><rect class="c" x="466" y="98" rx="2" ry="2"/><rect class="c" x="482" y="2" rx="2" ry="2"/><rect class="c" x="482" y="18" rx="2" ry="2"/><rect class="c" x="482" y="34" rx="2" ry="2"/><rect class="c" x="482" y="50" rx="2" ry="2"/><rect class="c" x="482" y="66" rx="2" ry="2"/><rect class="c" x="482" y="82" rx="2" ry="2"/><rect class="c" x="482" y="98" rx="2" ry="2"/><rect class="c" x="498" y="2" rx="2" ry="2"/><rect class="c" x="498" y="18" rx="2" ry="2"/><rect class="c" x="498" y="34" rx="2" ry="2"/><rect class="c" x="498" y="50" rx="2" ry="2"/><rect class="c" x="498" y="66" rx="2" ry="2"/><rect class="c" x="498" y="82" rx="2" ry="2"/><rect class="c" x="498" y="98" rx="2" ry="2"/><rect class="c" x="514" y="2" rx="2" ry="2"/><rect class="c" x="514" y="18" rx="2" ry="2"/><rect class="c" x="514" y="34" rx="2" ry="2"/><rect class="c" x="514" y="50" rx="2" ry="2"/><rect class="c" x="514" y="66" rx="2" ry="2"/><rect class="c" x="514" y="82" rx="2" ry="2"/><rect class="c" x="514" y="98" rx="2" ry="2"/><rect class="c" x="530" y="2" rx="2" ry="2"/><rect class="c" x="530" y="18" rx="2" ry="2"/><rect class="c" x="530" y="34" rx="2" ry="2"/><rect class="c" x="530" y="50" rx="2" ry="2"/><rect class="c" x="530" y="66" rx="2" ry="2"/><rect class="c" x="530" y="82" rx="2" ry="2"/><rect class="c" x="530" y="98" rx="2" ry="2"/><rect class="c" x="546" y="2" rx="2" ry="2"/><rect class="c" x="546" y="18" rx="2" ry="2"/><rect class="c" x="546" y="34" rx="2" ry="2"/><rect class="c" x="546" y="50" rx="2" ry="2"/><rect class="c c7" x="546" y="66" rx="2" ry="2"/><rect class="c" x="546" y="82" rx="2" ry="2"/><rect class="c c8" x="546" y="98" rx="2" ry="2"/><rect class="c c9" x="562" y="2" rx="2" ry="2"/><rect class="c" x="562" y="18" rx="2" ry="2"/><rect class="c" x="562" y="34" rx="2" ry="2"/><rect class="c ca" x="562" y="50" rx="2" ry="2"/><rect class="c" x="562" y="66" rx="2" ry="2"/><rect class="c" x="562" y="82" rx="2" ry="2"/><rect class="c" x="562" y="98" rx="2" ry="2"/><rect class="c" x="578" y="2" rx="2" ry="2"/><rect class="c cb" x="578" y="18" rx="2" ry="2"/><rect class="c" x="578" y="34" rx="2" ry="2"/><rect class="c" x="578" y="50" rx="2" ry="2"/><rect class="c" x="578" y="66" rx="2" ry="2"/><rect class="c cc" x="578" y="82" rx="2" ry="2"/><rect class="c cd" x="578" y="98" rx="2" ry="2"/><rect class="c" x="594" y="2" rx="2" ry="2"/><rect class="c" x="594" y="18" rx="2" ry="2"/><rect class="c" x="594" y="34" rx="2" ry="2"/><rect class="c" x="594" y="50" rx="2" ry="2"/><rect class="c" x="594" y="66" rx="2" ry="2"/><rect class="c" x="594" y="82" rx="2" ry="2"/><rect class="c" x="594" y="98" rx="2" ry="2"/><rect class="c" x="610" y="2" rx="2" ry="2"/><rect class="c" x="610" y="18" rx="2" ry="2"/><rect class="c ce" x="610" y="34" rx="2" ry="2"/><rect class="c cf" x="610" y="50" rx="2" ry="2"/><rect class="c cg" x="610" y="66" rx="2" ry="2"/><rect class="c ch" x="610" y="82" rx="2" ry="2"/><rect class="c ci" x="610" y="98" rx="2" ry="2"/><rect class="c cj" x="626" y="2" rx="2" ry="2"/><rect class="c ck" x="626" y="18" rx="2" ry="2"/><rect class="c cl" x="626" y="34" rx="2" ry="2"/><rect class="c cm" x="626" y="50" rx="2" ry="2"/><rect class="c cn" x="626" y="66" rx="2" ry="2"/><rect class="c co" x="626" y="82" rx="2" ry="2"/><rect class="c cp" x="626" y="98" rx="2" ry="2"/><rect class="c cq" x="642" y="2" rx="2" ry="2"/><rect class="c cr" x="642" y="18" rx="2" ry="2"/><rect class="c cs" x="642" y="34" rx="2" ry="2"/><rect class="c ct" x="642" y="50" rx="2" ry="2"/><rect class="c cu" x="642" y="66" rx="2" ry="2"/><rect class="c cv" x="642" y="82" rx="2" ry="2"/><rect class="c cw" x="642" y="98" rx="2" ry="2"/><rect class="c cx" x="658" y="2" rx="2" ry="2"/><rect class="c cy" x="658" y="18" rx="2" ry="2"/><rect class="c cz" x="658" y="34" rx="2" ry="2"/><rect class="c c10" x="658" y="50" rx="2" ry="2"/><rect class="c c11" x="658" y="66" rx="2" ry="2"/><rect class="c c12" x="658" y="82" rx="2" ry="2"/><rect class="c c13" x="658" y="98" rx="2" ry="2"/><rect class="c c14" x="674" y="2" rx="2" ry="2"/><rect class="c c15" x="674" y="18" rx="2" ry="2"/><rect class="c c16" x="674" y="34" rx="2" ry="2"/><rect class="c c17" x="674" y="50" rx="2" ry="2"/><rect class="c c18" x="674" y="66" rx="2" ry="2"/><rect class="c c19" x="674" y="82" rx="2" ry="2"/><rect class="c c1a" x="674" y="98" rx="2" ry="2"/><rect class="c c1b" x="690" y="2" rx="2" ry="2"/><rect class="c c1c" x="690" y="18" rx="2" ry="2"/><rect class="c c1d" x="690" y="34" rx="2" ry="2"/><rect class="c c1e" x="690" y="50" rx="2" ry="2"/><rect class="c c1f" x="690" y="66" rx="2" ry="2"/><rect class="c c1g" x="690" y="82" rx="2" ry="2"/><rect class="c c1h" x="690" y="98" rx="2" ry="2"/><rect class="c c1i" x="706" y="2" rx="2" ry="2"/><rect class="c c1j" x="706" y="18" rx="2" ry="2"/><rect class="c c1k" x="706" y="34" rx="2" ry="2"/><rect class="c c1l" x="706" y="50" rx="2" ry="2"/><rect class="c c1m" x="706" y="66" rx="2" ry="2"/><rect class="c c1n" x="706" y="82" rx="2" ry="2"/><rect class="c c1o" x="706" y="98" rx="2" ry="2"/><rect class="c c1p" x="722" y="2" rx="2" ry="2"/><rect class="c c1q" x="722" y="18" rx="2" ry="2"/><rect class="c c1r" x="722" y="34" rx="2" ry="2"/><rect class="c c1s" x="722" y="50" rx="2" ry="2"/><rect class="c c1t" x="722" y="66" rx="2" ry="2"/><rect class="c c1u" x="722" y="82" rx="2" ry="2"/><rect class="c c1v" x="722" y="98" rx="2" ry="2"/><rect class="c c1w" x="738" y="2" rx="2" ry="2"/><rect class="c c1x" x="738" y="18" rx="2" ry="2"/><rect class="c c1y" x="738" y="34" rx="2" ry="2"/><rect class="c c1z" x="738" y="50" rx="2" ry="2"/><rect class="c c20" x="738" y="66" rx="2" ry="2"/><rect class="c c21" x="738" y="82" rx="2" ry="2"/><rect class="c c22" x="738" y="98" rx="2" ry="2"/><rect class="c c23" x="754" y="2" rx="2" ry="2"/><rect class="c c24" x="754" y="18" rx="2" ry="2"/><rect class="c c25" x="754" y="34" rx="2" ry="2"/><rect class="c c26" x="754" y="50" rx="2" ry="2"/><rect class="c c27" x="754" y="66" rx="2" ry="2"/><rect class="c c28" x="754" y="82" rx="2" ry="2"/><rect class="c c29" x="754" y="98" rx="2" ry="2"/><rect class="c c2a" x="770" y="2" rx="2" ry="2"/><rect class="c c2b" x="770" y="18" rx="2" ry="2"/><rect class="c c2c" x="770" y="34" rx="2" ry="2"/><rect class="c c2d" x="770" y="50" rx="2" ry="2"/><rect class="c c2e" x="770" y="66" rx="2" ry="2"/><rect class="c c2f" x="770" y="82" rx="2" ry="2"/><rect class="c c2g" x="770" y="98" rx="2" ry="2"/><rect class="c c2h" x="786" y="2" rx="2" ry="2"/><rect class="c c2i" x="786" y="18" rx="2" ry="2"/><rect class="c c2j" x="786" y="34" rx="2" ry="2"/><rect class="c c2k" x="786" y="50" rx="2" ry="2"/><rect class="c c2l" x="786" y="66" rx="2" ry="2"/><rect class="c c2m" x="786" y="82" rx="2" ry="2"/><rect class="c c2n" x="786" y="98" rx="2" ry="2"/><rect class="c c2o" x="802" y="2" rx="2" ry="2"/><rect class="c c2p" x="802" y="18" rx="2" ry="2"/><rect class="c c2q" x="802" y="34" rx="2" ry="2"/><rect class="c c2r" x="802" y="50" rx="2" ry="2"/><rect class="c c2s" x="802" y="66" rx="2" ry="2"/><rect class="c c2t" x="802" y="82" rx="2" ry="2"/><rect class="c c2u" x="802" y="98" rx="2" ry="2"/><rect class="c c2v" x="818" y="2" rx="2" ry="2"/><rect class="c c2w" x="818" y="18" rx="2" ry="2"/><rect class="c c2x" x="818" y="34" rx="2" ry="2"/><rect class="c c2y" x="818" y="50" rx="2" ry="2"/><rect class="c c2z" x="818" y="66" rx="2" ry="2"/><rect class="c c30" x="818" y="82" rx="2" ry="2"/><rect class="c c31" x="818" y="98" rx="2" ry="2"/><rect class="c c32" x="834" y="2" rx="2" ry="2"/><rect class="c c33" x="834" y="18" rx="2" ry="2"/><rect class="c c34" x="834" y="34" rx="2" ry="2"/><rect class="c c35" x="834" y="50" rx="2" ry="2"/><rect class="c c36" x="834" y="66" rx="2" ry="2"/><rect class="u u0" height="12" width="67.0" x="0.0" y="144"/><rect class="u u1" height="12" width="398.8" x="66.4" y="144"/><rect class="u u2" height="12" width="384.0" x="464.6" y="144"/><rect class="s s0" x="0.8" y="0.8" width="14.4" height="14.4" rx="4.5" ry="4.5"/><rect class="s s1" x="1.8" y="1.8" width="12.3" height="12.3" rx="4.1" ry="4.1"/><rect class="s s2" x="2.6" y="2.6" width="10.8" height="10.8" rx="3.6" ry="3.6"/><rect class="s s3" x="3.0" y="3.0" width="9.9" height="9.9" rx="3.3" ry="3.3"/></svg>