<svg viewBox="-16 -32 880 192" width="880" height="192" xmlns="http://www.w3.org/2000/svg"><desc>Generated with https://github.com/Platane/snk</desc><style>:root{--cb:#1b1f230a;--cs:purple;--ce:#161b22;--c0:#161b22;--c1:#01311f;--c2:#034525;--c3:#0f6d31;--c4:#00c647}.c{shape-rendering:geometricPrecision;fill:var(--ce);stroke-width:1px;stroke:var(--cb);animation:none 35100ms linear infinite;width:12px;height:12px}@keyframes c0{5.4%{fill:var(--c1)}5.42%,100%{fill:var(--ce)}}.c.c0{fill:var(--c1);animation-name:c0}@keyframes c1{58.68%{fill:var(--c2)}58.7%,100%{fill:var(--ce)}}.c.c1{fill:var(--c2);animation-name:c1}@keyframes c2{3.41%{fill:var(--c1)}3.43%,100%{fill:var(--ce)}}.c.c2{fill:var(--c1);animation-name:c2}@keyframes c3{3.69%{fill:var(--c1)}3.71%,100%{fill:var(--ce)}}.c.c3{fill:var(--c1);animation-name:c3}@keyframes c4{56.12%{fill:var(--c2)}56.14%,100%{fill:var(--ce)}}.c.c4{fill:var(--c2);animation-name:c4}@keyframes c5{63.52%{fill:var(--c4)}63.54%,100%{fill:var(--ce)}}.c.c5{fill:var(--c4);animation-name:c5}@keyframes c6{10.53%{fill:var(--c1)}10.55%,100%{fill:var(--ce)}}.c.c6{fill:var(--c1);animation-name:c6}@keyframes c7{14.24%{fill:var(--c1)}14.26%,100%{fill:var(--ce)}}.c.c7{fill:var(--c1);animation-name:c7}@keyframes c8{38.17%{fill:var(--c2)}38.19%,100%{fill:var(--ce)}}.c.c8{fill:var(--c2);animation-name:c8}@keyframes c9{89.16%{fill:var(--c4)}89.18%,100%{fill:var(--ce)}}.c.c9{fill:var(--c4);animation-name:c9}@keyframes ca{13.67%{fill:var(--c1)}13.69%,100%{fill:var(--ce)}}.c.ca{fill:var(--c1);animation-name:ca}@keyframes cb{17.37%{fill:var(--c1)}17.39%,100%{fill:var(--ce)}}.c.cb{fill:var(--c1);animation-name:cb}@keyframes cc{15.09%{fill:var(--c1)}15.11%,100%{fill:var(--ce)}}.c.cc{fill:var(--c1);animation-name:cc}@keyframes cd{15.37%{fill:var(--c1)}15.39%,100%{fill:var(--ce)}}.c.cd{fill:var(--c1);animation-name:cd}@keyframes ce{68.37%{fill:var(--c4)}68.39%,100%{fill:var(--ce)}}.c.ce{fill:var(--c4);animation-name:ce}@keyframes cf{68.08%{fill:var(--c4)}68.1%,100%{fill:var(--ce)}}.c.cf{fill:var(--c4);animation-name:cf}@keyframes cg{35.89%{fill:var(--c2)}35.91%,100%{fill:var(--ce)}}.c.cg{fill:var(--c2);animation-name:cg}@keyframes ch{35.6%{fill:var(--c2)}35.62%,100%{fill:var(--ce)}}.c.ch{fill:var(--c2);animation-name:ch}@keyframes ci{37.03%{fill:var(--c2)}37.05%,100%{fill:var(--ce)}}.c.ci{fill:var(--c2);animation-name:ci}@keyframes cj{18.51%{fill:var(--c2)}18.53%,100%{fill:var(--ce)}}.c.cj{fill:var(--c2);animation-name:cj}@keyframes ck{26.77%{fill:var(--c2)}26.79%,100%{fill:var(--ce)}}.c.ck{fill:var(--c2);animation-name:ck}@keyframes cl{26.49%{fill:var(--c2)}26.51%,100%{fill:var(--ce)}}.c.cl{fill:var(--c2);animation-name:cl}@keyframes cm{28.48%{fill:var(--c2)}28.5%,100%{fill:var(--ce)}}.c.cm{fill:var(--c2);animation-name:cm}@keyframes cn{28.76%{fill:var(--c2)}28.78%,100%{fill:var(--ce)}}.c.cn{fill:var(--c2);animation-name:cn}@keyframes co{35.32%{fill:var(--c2)}35.34%,100%{fill:var(--ce)}}.c.co{fill:var(--c2);animation-name:co}@keyframes cp{36.74%{fill:var(--c2)}36.76%,100%{fill:var(--ce)}}.c.cp{fill:var(--c2);animation-name:cp}@keyframes cq{18.79%{fill:var(--c2)}18.81%,100%{fill:var(--ce)}}.c.cq{fill:var(--c2);animation-name:cq}@keyframes cr{69.22%{fill:var(--c4)}69.24%,100%{fill:var(--ce)}}.c.cr{fill:var(--c4);animation-name:cr}@keyframes cs{26.2%{fill:var(--c2)}26.22%,100%{fill:var(--ce)}}.c.cs{fill:var(--c2);animation-name:cs}@keyframes ct{25.92%{fill:var(--c2)}25.94%,100%{fill:var(--ce)}}.c.ct{fill:var(--c2);animation-name:ct}@keyframes cu{29.05%{fill:var(--c2)}29.07%,100%{fill:var(--ce)}}.c.cu{fill:var(--c2);animation-name:cu}@keyframes cv{35.03%{fill:var(--c2)}35.05%,100%{fill:var(--ce)}}.c.cv{fill:var(--c2);animation-name:cv}@keyframes cw{34.75%{fill:var(--c2)}34.77%,100%{fill:var(--ce)}}.c.cw{fill:var(--c2);animation-name:cw}@keyframes cx{19.08%{fill:var(--c2)}19.1%,100%{fill:var(--ce)}}.c.cx{fill:var(--c2);animation-name:cx}@keyframes cy{22.78%{fill:var(--c2)}22.8%,100%{fill:var(--ce)}}.c.cy{fill:var(--c2);animation-name:cy}@keyframes cz{23.07%{fill:var(--c2)}23.09%,100%{fill:var(--ce)}}.c.cz{fill:var(--c2);animation-name:cz}@keyframes c10{25.63%{fill:var(--c2)}25.65%,100%{fill:var(--ce)}}.c.c10{fill:var(--c2);animation-name:c10}@keyframes c11{29.33%{fill:var(--c2)}29.35%,100%{fill:var(--ce)}}.c.c11{fill:var(--c2);animation-name:c11}@keyframes c12{29.62%{fill:var(--c2)}29.64%,100%{fill:var(--ce)}}.c.c12{fill:var(--c2);animation-name:c12}@keyframes c13{34.46%{fill:var(--c2)}34.48%,100%{fill:var(--ce)}}.c.c13{fill:var(--c2);animation-name:c13}@keyframes c14{19.36%{fill:var(--c2)}19.38%,100%{fill:var(--ce)}}.c.c14{fill:var(--c2);animation-name:c14}@keyframes c15{22.5%{fill:var(--c2)}22.52%,100%{fill:var(--ce)}}.c.c15{fill:var(--c2);animation-name:c15}@keyframes c16{23.35%{fill:var(--c2)}23.37%,100%{fill:var(--ce)}}.c.c16{fill:var(--c2);animation-name:c16}@keyframes c17{25.35%{fill:var(--c2)}25.37%,100%{fill:var(--ce)}}.c.c17{fill:var(--c2);animation-name:c17}@keyframes c18{70.65%{fill:var(--c4)}70.67%,100%{fill:var(--ce)}}.c.c18{fill:var(--c4);animation-name:c18}@keyframes c19{29.9%{fill:var(--c2)}29.92%,100%{fill:var(--ce)}}.c.c19{fill:var(--c2);animation-name:c19}@keyframes c1a{34.18%{fill:var(--c2)}34.2%,100%{fill:var(--ce)}}.c.c1a{fill:var(--c2);animation-name:c1a}@keyframes c1b{19.65%{fill:var(--c2)}19.67%,100%{fill:var(--ce)}}.c.c1b{fill:var(--c2);animation-name:c1b}@keyframes c1c{22.21%{fill:var(--c2)}22.23%,100%{fill:var(--ce)}}.c.c1c{fill:var(--c2);animation-name:c1c}@keyframes c1d{23.64%{fill:var(--c2)}23.66%,100%{fill:var(--ce)}}.c.c1d{fill:var(--c2);animation-name:c1d}@keyframes c1e{25.06%{fill:var(--c2)}25.08%,100%{fill:var(--ce)}}.c.c1e{fill:var(--c2);animation-name:c1e}@keyframes c1f{31.61%{fill:var(--c2)}31.63%,100%{fill:var(--ce)}}.c.c1f{fill:var(--c2);animation-name:c1f}@keyframes c1g{30.19%{fill:var(--c2)}30.21%,100%{fill:var(--ce)}}.c.c1g{fill:var(--c2);animation-name:c1g}@keyframes c1h{32.18%{fill:var(--c2)}32.2%,100%{fill:var(--ce)}}.c.c1h{fill:var(--c2);animation-name:c1h}@keyframes c1i{19.93%{fill:var(--c2)}19.95%,100%{fill:var(--ce)}}.c.c1i{fill:var(--c2);animation-name:c1i}@keyframes c1j{21.93%{fill:var(--c2)}21.95%,100%{fill:var(--ce)}}.c.c1j{fill:var(--c2);animation-name:c1j}@keyframes c1k{23.92%{fill:var(--c2)}23.94%,100%{fill:var(--ce)}}.c.c1k{fill:var(--c2);animation-name:c1k}@keyframes c1l{24.78%{fill:var(--c2)}24.8%,100%{fill:var(--ce)}}.c.c1l{fill:var(--c2);animation-name:c1l}@keyframes c1m{31.33%{fill:var(--c2)}31.35%,100%{fill:var(--ce)}}.c.c1m{fill:var(--c2);animation-name:c1m}@keyframes c1n{30.47%{fill:var(--c2)}30.49%,100%{fill:var(--ce)}}.c.c1n{fill:var(--c2);animation-name:c1n}@keyframes c1o{32.47%{fill:var(--c2)}32.49%,100%{fill:var(--ce)}}.c.c1o{fill:var(--c2);animation-name:c1o}@keyframes c1p{20.22%{fill:var(--c2)}20.24%,100%{fill:var(--ce)}}.c.c1p{fill:var(--c2);animation-name:c1p}@keyframes c1q{21.64%{fill:var(--c2)}21.66%,100%{fill:var(--ce)}}.c.c1q{fill:var(--c2);animation-name:c1q}@keyframes c1r{24.21%{fill:var(--c2)}24.23%,100%{fill:var(--ce)}}.c.c1r{fill:var(--c2);animation-name:c1r}@keyframes c1s{24.49%{fill:var(--c2)}24.51%,100%{fill:var(--ce)}}.c.c1s{fill:var(--c2);animation-name:c1s}@keyframes c1t{31.04%{fill:var(--c2)}31.06%,100%{fill:var(--ce)}}.c.c1t{fill:var(--c2);animation-name:c1t}@keyframes c1u{30.76%{fill:var(--c2)}30.78%,100%{fill:var(--ce)}}.c.c1u{fill:var(--c2);animation-name:c1u}@keyframes c1v{32.75%{fill:var(--c2)}32.77%,100%{fill:var(--ce)}}.c.c1v{fill:var(--c2);animation-name:c1v}@keyframes c1w{20.5%{fill:var(--c2)}20.52%,100%{fill:var(--ce)}}.c.c1w{fill:var(--c2);animation-name:c1w}@keyframes c1x{78.34%{fill:var(--c4)}78.36%,100%{fill:var(--ce)}}.c.c1x{fill:var(--c4);animation-name:c1x}@keyframes c1y{78.05%{fill:var(--c4)}78.07%,100%{fill:var(--ce)}}.c.c1y{fill:var(--c4);animation-name:c1y}@keyframes c1z{85.18%{fill:var(--c4)}85.2%,100%{fill:var(--ce)}}.c.c1z{fill:var(--c4);animation-name:c1z}@keyframes c20{71.78%{fill:var(--c4)}71.8%,100%{fill:var(--ce)}}.c.c20{fill:var(--c4);animation-name:c20}@keyframes c21{81.76%{fill:var(--c4)}81.78%,100%{fill:var(--ce)}}.c.c21{fill:var(--c4);animation-name:c21}@keyframes c22{82.04%{fill:var(--c4)}82.06%,100%{fill:var(--ce)}}.c.c22{fill:var(--c4);animation-name:c22}@keyframes c23{75.49%{fill:var(--c4)}75.51%,100%{fill:var(--ce)}}.c.c23{fill:var(--c4);animation-name:c23}@keyframes c24{75.77%{fill:var(--c4)}75.79%,100%{fill:var(--ce)}}.c.c24{fill:var(--c4);animation-name:c24}@keyframes c25{77.77%{fill:var(--c4)}77.79%,100%{fill:var(--ce)}}.c.c25{fill:var(--c4);animation-name:c25}@keyframes c26{79.19%{fill:var(--c4)}79.21%,100%{fill:var(--ce)}}.c.c26{fill:var(--c4);animation-name:c26}@keyframes c27{72.07%{fill:var(--c4)}72.09%,100%{fill:var(--ce)}}.c.c27{fill:var(--c4);animation-name:c27}@keyframes c28{81.47%{fill:var(--c4)}81.49%,100%{fill:var(--ce)}}.c.c28{fill:var(--c4);animation-name:c28}@keyframes c29{82.33%{fill:var(--c4)}82.35%,100%{fill:var(--ce)}}.c.c29{fill:var(--c4);animation-name:c29}@keyframes c2a{75.2%{fill:var(--c4)}75.22%,100%{fill:var(--ce)}}.c.c2a{fill:var(--c4);animation-name:c2a}@keyframes c2b{76.06%{fill:var(--c4)}76.08%,100%{fill:var(--ce)}}.c.c2b{fill:var(--c4);animation-name:c2b}@keyframes c2c{77.48%{fill:var(--c4)}77.5%,100%{fill:var(--ce)}}.c.c2c{fill:var(--c4);animation-name:c2c}@keyframes c2d{79.48%{fill:var(--c4)}79.5%,100%{fill:var(--ce)}}.c.c2d{fill:var(--c4);animation-name:c2d}@keyframes c2e{72.35%{fill:var(--c4)}72.37%,100%{fill:var(--ce)}}.c.c2e{fill:var(--c4);animation-name:c2e}@keyframes c2f{81.19%{fill:var(--c4)}81.21%,100%{fill:var(--ce)}}.c.c2f{fill:var(--c4);animation-name:c2f}@keyframes c2g{82.61%{fill:var(--c4)}82.63%,100%{fill:var(--ce)}}.c.c2g{fill:var(--c4);animation-name:c2g}@keyframes c2h{74.92%{fill:var(--c4)}74.94%,100%{fill:var(--ce)}}.c.c2h{fill:var(--c4);animation-name:c2h}@keyframes c2i{76.34%{fill:var(--c4)}76.36%,100%{fill:var(--ce)}}.c.c2i{fill:var(--c4);animation-name:c2i}@keyframes c2j{77.2%{fill:var(--c4)}77.22%,100%{fill:var(--ce)}}.c.c2j{fill:var(--c4);animation-name:c2j}@keyframes c2k{79.76%{fill:var(--c4)}79.78%,100%{fill:var(--ce)}}.c.c2k{fill:var(--c4);animation-name:c2k}@keyframes c2l{72.64%{fill:var(--c4)}72.66%,100%{fill:var(--ce)}}.c.c2l{fill:var(--c4);animation-name:c2l}@keyframes c2m{80.9%{fill:var(--c4)}80.92%,100%{fill:var(--ce)}}.c.c2m{fill:var(--c4);animation-name:c2m}@keyframes c2n{82.9%{fill:var(--c4)}82.92%,100%{fill:var(--ce)}}.c.c2n{fill:var(--c4);animation-name:c2n}@keyframes c2o{74.63%{fill:var(--c4)}74.65%,100%{fill:var(--ce)}}.c.c2o{fill:var(--c4);animation-name:c2o}@keyframes c2p{76.63%{fill:var(--c4)}76.65%,100%{fill:var(--ce)}}.c.c2p{fill:var(--c4);animation-name:c2p}@keyframes c2q{76.91%{fill:var(--c4)}76.93%,100%{fill:var(--ce)}}.c.c2q{fill:var(--c4);animation-name:c2q}@keyframes c2r{80.05%{fill:var(--c4)}80.07%,100%{fill:var(--ce)}}.c.c2r{fill:var(--c4);animation-name:c2r}@keyframes c2s{72.92%{fill:var(--c4)}72.94%,100%{fill:var(--ce)}}.c.c2s{fill:var(--c4);animation-name:c2s}@keyframes c2t{80.62%{fill:var(--c4)}80.64%,100%{fill:var(--ce)}}.c.c2t{fill:var(--c4);animation-name:c2t}@keyframes c2u{83.18%{fill:var(--c4)}83.2%,100%{fill:var(--ce)}}.c.c2u{fill:var(--c4);animation-name:c2u}@keyframes c2v{74.35%{fill:var(--c4)}74.37%,100%{fill:var(--ce)}}.c.c2v{fill:var(--c4);animation-name:c2v}@keyframes c2w{74.06%{fill:var(--c4)}74.08%,100%{fill:var(--ce)}}.c.c2w{fill:var(--c4);animation-name:c2w}@keyframes c2x{73.78%{fill:var(--c4)}73.8%,100%{fill:var(--ce)}}.c.c2x{fill:var(--c4);animation-name:c2x}@keyframes c2y{73.49%{fill:var(--c4)}73.51%,100%{fill:var(--ce)}}.c.c2y{fill:var(--c4);animation-name:c2y}@keyframes c2z{73.21%{fill:var(--c4)}73.23%,100%{fill:var(--ce)}}.c.c2z{fill:var(--c4);animation-name:c2z}@keyframes c30{43.86%{fill:var(--c2)}43.88%,100%{fill:var(--ce)}}.c.c30{fill:var(--c2);animation-name:c30}.u{transform-origin:0 0;transform:scale(0,1);animation:none linear 35100ms infinite}@keyframes u0{3.41%{transform:scale(0.000,1)}3.43%,3.69%{transform:scale(0.111,1)}3.71%,5.4%{transform:scale(0.222,1)}5.42%,10.53%{transform:scale(0.333,1)}10.55%,13.67%{transform:scale(0.444,1)}13.69%,14.24%{transform:scale(0.556,1)}14.26%,15.09%{transform:scale(0.667,1)}15.11%,15.37%{transform:scale(0.778,1)}15.39%,17.37%{transform:scale(0.889,1)}17.39%,100%{transform:scale(1.000,1)}}.u.u0{fill:var(--c1);animation-name:u0;transform-origin:0.0px 0}@keyframes u1{18.51%{transform:scale(0.000,1)}18.53%,18.79%{transform:scale(0.018,1)}18.81%,19.08%{transform:scale(0.036,1)}19.1%,19.36%{transform:scale(0.055,1)}19.38%,19.65%{transform:scale(0.073,1)}19.67%,19.93%{transform:scale(0.091,1)}19.95%,20.22%{transform:scale(0.109,1)}20.24%,20.5%{transform:scale(0.127,1)}20.52%,21.64%{transform:scale(0.145,1)}21.66%,21.93%{transform:scale(0.164,1)}21.95%,22.21%{transform:scale(0.182,1)}22.23%,22.5%{transform:scale(0.200,1)}22.52%,22.78%{transform:scale(0.218,1)}22.8%,23.07%{transform:scale(0.236,1)}23.09%,23.35%{transform:scale(0.255,1)}23.37%,23.64%{transform:scale(0.273,1)}23.66%,23.92%{transform:scale(0.291,1)}23.94%,24.21%{transform:scale(0.309,1)}24.23%,24.49%{transform:scale(0.327,1)}24.51%,24.78%{transform:scale(0.345,1)}24.8%,25.06%{transform:scale(0.364,1)}25.08%,25.35%{transform:scale(0.382,1)}25.37%,25.63%{transform:scale(0.400,1)}25.65%,25.92%{transform:scale(0.418,1)}25.94%,26.2%{transform:scale(0.436,1)}26.22%,26.49%{transform:scale(0.455,1)}26.51%,26.77%{transform:scale(0.473,1)}26.79%,28.48%{transform:scale(0.491,1)}28.5%,28.76%{transform:scale(0.509,1)}28.78%,29.05%{transform:scale(0.527,1)}29.07%,29.33%{transform:scale(0.545,1)}29.35%,29.62%{transform:scale(0.564,1)}29.64%,29.9%{transform:scale(0.582,1)}29.92%,30.19%{transform:scale(0.600,1)}30.21%,30.47%{transform:scale(0.618,1)}30.49%,30.76%{transform:scale(0.636,1)}30.78%,31.04%{transform:scale(0.655,1)}31.06%,31.33%{transform:scale(0.673,1)}31.35%,31.61%{transform:scale(0.691,1)}31.63%,32.18%{transform:scale(0.709,1)}32.2%,32.47%{transform:scale(0.727,1)}32.49%,32.75%{transform:scale(0.745,1)}32.77%,34.18%{transform:scale(0.764,1)}34.2%,34.46%{transform:scale(0.782,1)}34.48%,34.75%{transform:scale(0.800,1)}34.77%,35.03%{transform:scale(0.818,1)}35.05%,35.32%{transform:scale(0.836,1)}35.34%,35.6%{transform:scale(0.855,1)}35.62%,35.89%{transform:scale(0.873,1)}35.91%,36.74%{transform:scale(0.891,1)}36.76%,37.03%{transform:scale(0.909,1)}37.05%,38.17%{transform:scale(0.927,1)}38.19%,43.86%{transform:scale(0.945,1)}43.88%,56.12%{transform:scale(0.964,1)}56.14%,58.68%{transform:scale(0.982,1)}58.7%,100%{transform:scale(1.000,1)}}.u.u1{fill:var(--c2);animation-name:u1;transform-origin:70.0px 0}@keyframes u2{63.52%{transform:scale(0.000,1)}63.54%,68.08%{transform:scale(0.022,1)}68.1%,68.37%{transform:scale(0.044,1)}68.39%,69.22%{transform:scale(0.067,1)}69.24%,70.65%{transform:scale(0.089,1)}70.67%,71.78%{transform:scale(0.111,1)}71.8%,72.07%{transform:scale(0.133,1)}72.09%,72.35%{transform:scale(0.156,1)}72.37%,72.64%{transform:scale(0.178,1)}72.66%,72.92%{transform:scale(0.200,1)}72.94%,73.21%{transform:scale(0.222,1)}73.23%,73.49%{transform:scale(0.244,1)}73.51%,73.78%{transform:scale(0.267,1)}73.8%,74.06%{transform:scale(0.289,1)}74.08%,74.35%{transform:scale(0.311,1)}74.37%,74.63%{transform:scale(0.333,1)}74.65%,74.92%{transform:scale(0.356,1)}74.94%,75.2%{transform:scale(0.378,1)}75.22%,75.49%{transform:scale(0.400,1)}75.51%,75.77%{transform:scale(0.422,1)}75.79%,76.06%{transform:scale(0.444,1)}76.08%,76.34%{transform:scale(0.467,1)}76.36%,76.63%{transform:scale(0.489,1)}76.65%,76.91%{transform:scale(0.511,1)}76.93%,77.2%{transform:scale(0.533,1)}77.22%,77.48%{transform:scale(0.556,1)}77.5%,77.77%{transform:scale(0.578,1)}77.79%,78.05%{transform:scale(0.600,1)}78.07%,78.34%{transform:scale(0.622,1)}78.36%,79.19%{transform:scale(0.644,1)}79.21%,79.48%{transform:scale(0.667,1)}79.5%,79.76%{transform:scale(0.689,1)}79.78%,80.05%{transform:scale(0.711,1)}80.07%,80.62%{transform:scale(0.733,1)}80.64%,80.9%{transform:scale(0.756,1)}80.92%,81.19%{transform:scale(0.778,1)}81.21%,81.47%{transform:scale(0.800,1)}81.49%,81.76%{transform:scale(0.822,1)}81.78%,82.04%{transform:scale(0.844,1)}82.06%,82.33%{transform:scale(0.867,1)}82.35%,82.61%{transform:scale(0.889,1)}82.63%,82.9%{transform:scale(0.911,1)}82.92%,83.18%{transform:scale(0.933,1)}83.2%,85.18%{transform:scale(0.956,1)}85.2%,89.16%{transform:scale(0.978,1)}89.18%,100%{transform:scale(1.000,1)}}.u.u2{fill:var(--c4);animation-name:u2;transform-origin:497.9px 0}.s{shape-rendering:geometricPrecision;fill:var(--cs);animation:none linear 35100ms infinite}@keyframes s0{0%,99.72%{transform:translate(0px,-16px)}0.28%{transform:translate(0px,0px)}3.42%{transform:translate(176px,0px)}3.7%{transform:translate(176px,16px)}4.27%{transform:translate(144px,16px)}5.41%{transform:translate(144px,80px)}9.97%{transform:translate(400px,80px)}10.54%{transform:translate(400px,48px)}13.68%{transform:translate(576px,48px)}13.96%{transform:translate(576px,64px)}14.25%{transform:translate(560px,64px)}14.53%{transform:translate(560px,80px)}15.1%{transform:translate(592px,80px)}15.38%{transform:translate(592px,96px)}15.67%{transform:translate(608px,96px)}17.09%{transform:translate(608px,16px)}17.38%{transform:translate(592px,16px)}17.66%{transform:translate(592px,0px)}20.51%,86.04%{transform:translate(752px,0px)}20.8%{transform:translate(752px,-16px)}21.08%{transform:translate(736px,-16px)}21.65%{transform:translate(736px,16px)}22.79%{transform:translate(672px,16px)}23.08%{transform:translate(672px,32px)}24.22%{transform:translate(736px,32px)}24.5%{transform:translate(736px,48px)}25.93%{transform:translate(656px,48px)}26.21%,68.95%{transform:translate(656px,32px)}26.5%{transform:translate(640px,32px)}27.07%{transform:translate(640px,0px)}27.35%{transform:translate(624px,0px)}27.64%{transform:translate(624px,16px)}27.92%{transform:translate(640px,16px)}28.77%,36.18%{transform:translate(640px,64px)}29.34%{transform:translate(672px,64px)}29.63%{transform:translate(672px,80px)}30.77%,33.05%,47.29%{transform:translate(736px,80px)}31.05%{transform:translate(736px,64px)}31.62%{transform:translate(704px,64px)}32.19%{transform:translate(704px,96px)}32.76%{transform:translate(736px,96px)}33.9%{transform:translate(688px,80px)}34.19%{transform:translate(688px,96px)}34.76%{transform:translate(656px,96px)}35.04%{transform:translate(656px,80px)}35.61%{transform:translate(624px,80px)}35.9%,67.81%{transform:translate(624px,64px)}36.75%{transform:translate(640px,96px)}38.18%{transform:translate(560px,96px)}38.46%{transform:translate(560px,112px)}43.3%,45.01%{transform:translate(832px,112px)}43.87%{transform:translate(832px,80px)}44.16%{transform:translate(848px,80px)}44.44%{transform:translate(848px,96px)}44.73%{transform:translate(832px,96px)}46.72%{transform:translate(736px,112px)}53.85%{transform:translate(368px,80px)}54.13%{transform:translate(368px,64px)}58.12%{transform:translate(144px,64px)}58.69%{transform:translate(144px,96px)}62.96%{transform:translate(384px,96px)}63.53%{transform:translate(384px,64px)}68.38%{transform:translate(624px,32px)}69.23%{transform:translate(656px,16px)}69.8%{transform:translate(688px,16px)}70.66%{transform:translate(688px,64px)}73.22%{transform:translate(832px,64px)}74.36%{transform:translate(832px,0px)}75.5%{transform:translate(768px,0px)}75.78%,78.63%{transform:translate(768px,16px)}76.64%{transform:translate(816px,16px)}76.92%{transform:translate(816px,32px)}78.06%{transform:translate(752px,32px)}78.35%{transform:translate(752px,16px)}79.2%{transform:translate(768px,48px)}80.06%,84.05%{transform:translate(816px,48px)}80.63%{transform:translate(816px,80px)}81.77%{transform:translate(752px,80px)}82.05%{transform:translate(752px,96px)}83.19%{transform:translate(816px,96px)}85.19%{transform:translate(752px,48px)}98.29%{transform:translate(64px,0px)}98.58%{transform:translate(64px,-16px)}}.s.s0{transform:translate(0px,-16px);animation-name:s0}@keyframes s1{0%,99.72%{transform:translate(16px,-16px)}0.28%{transform:translate(0px,-16px)}0.57%{transform:translate(0px,0px)}3.7%{transform:translate(176px,0px)}3.99%{transform:translate(176px,16px)}4.56%{transform:translate(144px,16px)}5.7%{transform:translate(144px,80px)}10.26%{transform:translate(400px,80px)}10.83%{transform:translate(400px,48px)}13.96%{transform:translate(576px,48px)}14.25%{transform:translate(576px,64px)}14.53%{transform:translate(560px,64px)}14.81%{transform:translate(560px,80px)}15.38%{transform:translate(592px,80px)}15.67%{transform:translate(592px,96px)}15.95%{transform:translate(608px,96px)}17.38%{transform:translate(608px,16px)}17.66%{transform:translate(592px,16px)}17.95%{transform:translate(592px,0px)}20.8%,86.32%{transform:translate(752px,0px)}21.08%{transform:translate(752px,-16px)}21.37%{transform:translate(736px,-16px)}21.94%{transform:translate(736px,16px)}23.08%{transform:translate(672px,16px)}23.36%{transform:translate(672px,32px)}24.5%{transform:translate(736px,32px)}24.79%{transform:translate(736px,48px)}26.21%{transform:translate(656px,48px)}26.5%,69.23%{transform:translate(656px,32px)}26.78%{transform:translate(640px,32px)}27.35%{transform:translate(640px,0px)}27.64%{transform:translate(624px,0px)}27.92%{transform:translate(624px,16px)}28.21%{transform:translate(640px,16px)}29.06%,36.47%{transform:translate(640px,64px)}29.63%{transform:translate(672px,64px)}29.91%{transform:translate(672px,80px)}31.05%,33.33%,47.58%{transform:translate(736px,80px)}31.34%{transform:translate(736px,64px)}31.91%{transform:translate(704px,64px)}32.48%{transform:translate(704px,96px)}33.05%{transform:translate(736px,96px)}34.19%{transform:translate(688px,80px)}34.47%{transform:translate(688px,96px)}35.04%{transform:translate(656px,96px)}35.33%{transform:translate(656px,80px)}35.9%{transform:translate(624px,80px)}36.18%,68.09%{transform:translate(624px,64px)}37.04%{transform:translate(640px,96px)}38.46%{transform:translate(560px,96px)}38.75%{transform:translate(560px,112px)}43.59%,45.3%{transform:translate(832px,112px)}44.16%{transform:translate(832px,80px)}44.44%{transform:translate(848px,80px)}44.73%{transform:translate(848px,96px)}45.01%{transform:translate(832px,96px)}47.01%{transform:translate(736px,112px)}54.13%{transform:translate(368px,80px)}54.42%{transform:translate(368px,64px)}58.4%{transform:translate(144px,64px)}58.97%{transform:translate(144px,96px)}63.25%{transform:translate(384px,96px)}63.82%{transform:translate(384px,64px)}68.66%{transform:translate(624px,32px)}69.52%{transform:translate(656px,16px)}70.09%{transform:translate(688px,16px)}70.94%{transform:translate(688px,64px)}73.5%{transform:translate(832px,64px)}74.64%{transform:translate(832px,0px)}75.78%{transform:translate(768px,0px)}76.07%,78.92%{transform:translate(768px,16px)}76.92%{transform:translate(816px,16px)}77.21%{transform:translate(816px,32px)}78.35%{transform:translate(752px,32px)}78.63%{transform:translate(752px,16px)}79.49%{transform:translate(768px,48px)}80.34%,84.33%{transform:translate(816px,48px)}80.91%{transform:translate(816px,80px)}82.05%{transform:translate(752px,80px)}82.34%{transform:translate(752px,96px)}83.48%{transform:translate(816px,96px)}85.47%{transform:translate(752px,48px)}98.58%{transform:translate(64px,0px)}98.86%{transform:translate(64px,-16px)}}.s.s1{transform:translate(16px,-16px);animation-name:s1}@keyframes s2{0%,99.72%{transform:translate(32px,-16px)}0.57%{transform:translate(0px,-16px)}0.85%{transform:translate(0px,0px)}3.99%{transform:translate(176px,0px)}4.27%{transform:translate(176px,16px)}4.84%{transform:translate(144px,16px)}5.98%{transform:translate(144px,80px)}10.54%{transform:translate(400px,80px)}11.11%{transform:translate(400px,48px)}14.25%{transform:translate(576px,48px)}14.53%{transform:translate(576px,64px)}14.81%{transform:translate(560px,64px)}15.1%{transform:translate(560px,80px)}15.67%{transform:translate(592px,80px)}15.95%{transform:translate(592px,96px)}16.24%{transform:translate(608px,96px)}17.66%{transform:translate(608px,16px)}17.95%{transform:translate(592px,16px)}18.23%{transform:translate(592px,0px)}21.08%,86.61%{transform:translate(752px,0px)}21.37%{transform:translate(752px,-16px)}21.65%{transform:translate(736px,-16px)}22.22%{transform:translate(736px,16px)}23.36%{transform:translate(672px,16px)}23.65%{transform:translate(672px,32px)}24.79%{transform:translate(736px,32px)}25.07%{transform:translate(736px,48px)}26.5%{transform:translate(656px,48px)}26.78%,69.52%{transform:translate(656px,32px)}27.07%{transform:translate(640px,32px)}27.64%{transform:translate(640px,0px)}27.92%{transform:translate(624px,0px)}28.21%{transform:translate(624px,16px)}28.49%{transform:translate(640px,16px)}29.34%,36.75%{transform:translate(640px,64px)}29.91%{transform:translate(672px,64px)}30.2%{transform:translate(672px,80px)}31.34%,33.62%,47.86%{transform:translate(736px,80px)}31.62%{transform:translate(736px,64px)}32.19%{transform:translate(704px,64px)}32.76%{transform:translate(704px,96px)}33.33%{transform:translate(736px,96px)}34.47%{transform:translate(688px,80px)}34.76%{transform:translate(688px,96px)}35.33%{transform:translate(656px,96px)}35.61%{transform:translate(656px,80px)}36.18%{transform:translate(624px,80px)}36.47%,68.38%{transform:translate(624px,64px)}37.32%{transform:translate(640px,96px)}38.75%{transform:translate(560px,96px)}39.03%{transform:translate(560px,112px)}43.87%,45.58%{transform:translate(832px,112px)}44.44%{transform:translate(832px,80px)}44.73%{transform:translate(848px,80px)}45.01%{transform:translate(848px,96px)}45.3%{transform:translate(832px,96px)}47.29%{transform:translate(736px,112px)}54.42%{transform:translate(368px,80px)}54.7%{transform:translate(368px,64px)}58.69%{transform:translate(144px,64px)}59.26%{transform:translate(144px,96px)}63.53%{transform:translate(384px,96px)}64.1%{transform:translate(384px,64px)}68.95%{transform:translate(624px,32px)}69.8%{transform:translate(656px,16px)}70.37%{transform:translate(688px,16px)}71.23%{transform:translate(688px,64px)}73.79%{transform:translate(832px,64px)}74.93%{transform:translate(832px,0px)}76.07%{transform:translate(768px,0px)}76.35%,79.2%{transform:translate(768px,16px)}77.21%{transform:translate(816px,16px)}77.49%{transform:translate(816px,32px)}78.63%{transform:translate(752px,32px)}78.92%{transform:translate(752px,16px)}79.77%{transform:translate(768px,48px)}80.63%,84.62%{transform:translate(816px,48px)}81.2%{transform:translate(816px,80px)}82.34%{transform:translate(752px,80px)}82.62%{transform:translate(752px,96px)}83.76%{transform:translate(816px,96px)}85.75%{transform:translate(752px,48px)}98.86%{transform:translate(64px,0px)}99.15%{transform:translate(64px,-16px)}}.s.s2{transform:translate(32px,-16px);animation-name:s2}@keyframes s3{0%,99.72%{transform:translate(48px,-16px)}0.85%{transform:translate(0px,-16px)}1.14%{transform:translate(0px,0px)}4.27%{transform:translate(176px,0px)}4.56%{transform:translate(176px,16px)}5.13%{transform:translate(144px,16px)}6.27%{transform:translate(144px,80px)}10.83%{transform:translate(400px,80px)}11.4%{transform:translate(400px,48px)}14.53%{transform:translate(576px,48px)}14.81%{transform:translate(576px,64px)}15.1%{transform:translate(560px,64px)}15.38%{transform:translate(560px,80px)}15.95%{transform:translate(592px,80px)}16.24%{transform:translate(592px,96px)}16.52%{transform:translate(608px,96px)}17.95%{transform:translate(608px,16px)}18.23%{transform:translate(592px,16px)}18.52%{transform:translate(592px,0px)}21.37%,86.89%{transform:translate(752px,0px)}21.65%{transform:translate(752px,-16px)}21.94%{transform:translate(736px,-16px)}22.51%{transform:translate(736px,16px)}23.65%{transform:translate(672px,16px)}23.93%{transform:translate(672px,32px)}25.07%{transform:translate(736px,32px)}25.36%{transform:translate(736px,48px)}26.78%{transform:translate(656px,48px)}27.07%,69.8%{transform:translate(656px,32px)}27.35%{transform:translate(640px,32px)}27.92%{transform:translate(640px,0px)}28.21%{transform:translate(624px,0px)}28.49%{transform:translate(624px,16px)}28.77%{transform:translate(640px,16px)}29.63%,37.04%{transform:translate(640px,64px)}30.2%{transform:translate(672px,64px)}30.48%{transform:translate(672px,80px)}31.62%,33.9%,48.15%{transform:translate(736px,80px)}31.91%{transform:translate(736px,64px)}32.48%{transform:translate(704px,64px)}33.05%{transform:translate(704px,96px)}33.62%{transform:translate(736px,96px)}34.76%{transform:translate(688px,80px)}35.04%{transform:translate(688px,96px)}35.61%{transform:translate(656px,96px)}35.9%{transform:translate(656px,80px)}36.47%{transform:translate(624px,80px)}36.75%,68.66%{transform:translate(624px,64px)}37.61%{transform:translate(640px,96px)}39.03%{transform:translate(560px,96px)}39.32%{transform:translate(560px,112px)}44.16%,45.87%{transform:translate(832px,112px)}44.73%{transform:translate(832px,80px)}45.01%{transform:translate(848px,80px)}45.3%{transform:translate(848px,96px)}45.58%{transform:translate(832px,96px)}47.58%{transform:translate(736px,112px)}54.7%{transform:translate(368px,80px)}54.99%{transform:translate(368px,64px)}58.97%{transform:translate(144px,64px)}59.54%{transform:translate(144px,96px)}63.82%{transform:translate(384px,96px)}64.39%{transform:translate(384px,64px)}69.23%{transform:translate(624px,32px)}70.09%{transform:translate(656px,16px)}70.66%{transform:translate(688px,16px)}71.51%{transform:translate(688px,64px)}74.07%{transform:translate(832px,64px)}75.21%{transform:translate(832px,0px)}76.35%{transform:translate(768px,0px)}76.64%,79.49%{transform:translate(768px,16px)}77.49%{transform:translate(816px,16px)}77.78%{transform:translate(816px,32px)}78.92%{transform:translate(752px,32px)}79.2%{transform:translate(752px,16px)}80.06%{transform:translate(768px,48px)}80.91%,84.9%{transform:translate(816px,48px)}81.48%{transform:translate(816px,80px)}82.62%{transform:translate(752px,80px)}82.91%{transform:translate(752px,96px)}84.05%{transform:translate(816px,96px)}86.04%{transform:translate(752px,48px)}99.15%{transform:translate(64px,0px)}99.43%{transform:translate(64px,-16px)}}.s.s3{transform:translate(48px,-16px);animation-name:s3}</style><rect class="c" x="2" y="2" rx="2" ry="2"/><rect class="c" x="2" y="18" rx="2" ry="2"/><rect class="c" x="2" y="34" rx="2" ry="2"/><rect class="c" x="2" y="50" rx="2" ry="2"/><rect class="c" x="2" y="66" rx="2" ry="2"/><rect class="c" x="2" y="82" rx="2" ry="2"/><rect class="c" x="2" y="98" rx="2" ry="2"/><rect class="c" x="18" y="2" rx="2" ry="2"/><rect class="c" x="18" y="18" rx="2" ry="2"/><rect class="c" x="18" y="34" rx="2" ry="2"/><rect class="c" x="18" y="50" rx="2" ry="2"/><rect class="c" x="18" y="66" rx="2" ry="2"/><rect class="c" x="18" y="82" rx="2" ry="2"/><rect class="c" x="18" y="98" rx="2" ry="2"/><rect class="c" x="34" y="2" rx="2" ry="2"/><rect class="c" x="34" y="18" rx="2" ry="2"/><rect class="c" x="34" y="34" rx="2" ry="2"/><rect class="c" x="34" y="50" rx="2" ry="2"/><rect class="c" x="34" y="66" rx="2" ry="2"/><rect class="c" x="34" y="82" rx="2" ry="2"/><rect class="c" x="34" y="98" rx="2" ry="2"/><rect class="c" x="50" y="2" rx="2" ry="2"/><rect class="c" x="50" y="18" rx="2" ry="2"/><rect class="c" x="50" y="34" rx="2" ry="2"/><rect class="c" x="50" y="50" rx="2" ry="2"/><rect class="c" x="50" y="66" rx="2" ry="2"/><rect class="c" x="50" y="82" rx="2" ry="2"/><rect class="c" x="50" y="98" rx="2" ry="2"/><rect class="c" x="66" y="2" rx="2" ry="2"/><rect class="c" x="66" y="18" rx="2" ry="2"/><rect class="c" x="66" y="34" rx="2" ry="2"/><rect class="c" x="66" y="50" rx="2" ry="2"/><rect class="c" x="66" y="66" rx="2" ry="2"/><rect class="c" x="66" y="82" rx="2" ry="2"/><rect class="c" x="66" y="98" rx="2" ry="2"/><rect class="c" x="82" y="2" rx="2" ry="2"/><rect class="c" x="82" y="18" rx="2" ry="2"/><rect class="c" x="82" y="34" rx="2" ry="2"/><rect class="c" x="82" y="50" rx="2" ry="2"/><rect class="c" x="82" y="66" rx="2" ry="2"/><rect class="c" x="82" y="82" rx="2" ry="2"/><rect class="c" x="82" y="98" rx="2" ry="2"/><rect class="c" x="98" y="2" rx="2" ry="2"/><rect class="c" x="98" y="18" rx="2" ry="2"/><rect class="c" x="98" y="34" rx="2" ry="2"/><rect class="c" x="98" y="50" rx="2" ry="2"/><rect class="c" x="98" y="66" rx="2" ry="2"/><rect class="c" x="98" y="82" rx="2" ry="2"/><rect class="c" x="98" y="98" rx="2" ry="2"/><rect class="c" x="114" y="2" rx="2" ry="2"/><rect class="c" x="114" y="18" rx="2" ry="2"/><rect class="c" x="114" y="34" rx="2" ry="2"/><rect class="c" x="114" y="50" rx="2" ry="2"/><rect class="c" x="114" y="66" rx="2" ry="2"/><rect class="c" x="114" y="82" rx="2" ry="2"/><rect class="c" x="114" y="98" rx="2" ry="2"/><rect class="c" x="130" y="2" rx="2" ry="2"/><rect class="c" x="130" y="18" rx="2" ry="2"/><rect class="c" x="130" y="34" rx="2" ry="2"/><rect class="c" x="130" y="50" rx="2" ry="2"/><rect class="c" x="130" y="66" rx="2" ry="2"/><rect class="c" x="130" y="82" rx="2" ry="2"/><rect class="c" x="130" y="98" rx="2" ry="2"/><rect class="c" x="146" y="2" rx="2" ry="2"/><rect class="c" x="146" y="18" rx="2" ry="2"/><rect class="c" x="146" y="34" rx="2" ry="2"/><rect class="c" x="146" y="50" rx="2" ry="2"/><rect class="c" x="146" y="66" rx="2" ry="2"/><rect class="c c0" x="146" y="82" rx="2" ry="2"/><rect class="c c1" x="146" y="98" rx="2" ry="2"/><rect class="c" x="162" y="2" rx="2" ry="2"/><rect class="c" x="162" y="18" rx="2" ry="2"/><rect class="c" x="162" y="34" rx="2" ry="2"/><rect class="c" x="162" y="50" rx="2" ry="2"/><rect class="c" x="162" y="66" rx="2" ry="2"/><rect class="c" x="162" y="82" rx="2" ry="2"/><rect class="c" x="162" y="98" rx="2" ry="2"/><rect class="c c2" x="178" y="2" rx="2" ry="2"/><rect class="c c3" x="178" y="18" rx="2" ry="2"/><rect class="c" x="178" y="34" rx="2" ry="2"/><rect class="c" x="178" y="50" rx="2" ry="2"/><rect class="c" x="178" y="66" rx="2" ry="2"/><rect class="c" x="178" y="82" rx="2" ry="2"/><rect class="c" x="178" y="98" rx="2" ry="2"/><rect class="c" x="194" y="2" rx="2" ry="2"/><rect class="c" x="194" y="18" rx="2" ry="2"/><rect class="c" x="194" y="34" rx="2" ry="2"/><rect class="c" x="194" y="50" rx="2" ry="2"/><rect class="c" x="194" y="66" rx="2" ry="2"/><rect class="c" x="194" y="82" rx="2" ry="2"/><rect class="c" x="194" y="98" rx="2" ry="2"/><rect class="c" x="210" y="2" rx="2" ry="2"/><rect class="c" x="210" y="18" rx="2" ry="2"/><rect class="c" x="210" y="34" rx="2" ry="2"/><rect class="c" x="210" y="50" rx="2" ry="2"/><rect class="c" x="210" y="66" rx="2" ry="2"/><rect class="c" x="210" y="82" rx="2" ry="2"/><rect class="c" x="210" y="98" rx="2" ry="2"/><rect class="c" x="226" y="2" rx="2" ry="2"/><rect class="c" x="226" y="18" rx="2" ry="2"/><rect class="c" x="226" y="34" rx="2" ry="2"/><rect class="c" x="226" y="50" rx="2" ry="2"/><rect class="c" x="226" y="66" rx="2" ry="2"/><rect class="c" x="226" y="82" rx="2" ry="2"/><rect class="c" x="226" y="98" rx="2" ry="2"/><rect class="c" x="242" y="2" rx="2" ry="2"/><rect class="c" x="242" y="18" rx="2" ry="2"/><rect class="c" x="242" y="34" rx="2" ry="2"/><rect class="c" x="242" y="50" rx="2" ry="2"/><rect class="c" x="242" y="66" rx="2" ry="2"/><rect class="c" x="242" y="82" rx="2" ry="2"/><rect class="c" x="242" y="98" rx="2" ry="2"/><rect class="c" x="258" y="2" rx="2" ry="2"/><rect class="c" x="258" y="18" rx="2" ry="2"/><rect class="c" x="258" y="34" rx="2" ry="2"/><rect class="c" x="258" y="50" rx="2" ry="2"/><rect class="c c4" x="258" y="66" rx="2" ry="2"/><rect class="c" x="258" y="82" rx="2" ry="2"/><rect class="c" x="258" y="98" rx="2" ry="2"/><rect class="c" x="274" y="2" rx="2" ry="2"/><rect class="c" x="274" y="18" rx="2" ry="2"/><rect class="c" x="274" y="34" rx="2" ry="2"/><rect class="c" x="274" y="50" rx="2" ry="2"/><rect class="c" x="274" y="66" rx="2" ry="2"/><rect class="c" x="274" y="82" rx="2" ry="2"/><rect class="c" x="274" y="98" rx="2" ry="2"/><rect class="c" x="290" y="2" rx="2" ry="2"/><rect class="c" x="290" y="18" rx="2" ry="2"/><rect class="c" x="290" y="34" rx="2" ry="2"/><rect class="c" x="290" y="50" rx="2" ry="2"/><rect class="c" x="290" y="66" rx="2" ry="2"/><rect class="c" x="290" y="82" rx="2" ry="2"/><rect class="c" x="290" y="98" rx="2" ry="2"/><rect class="c" x="306" y="2" rx="2" ry="2"/><rect class="c" x="306" y="18" rx="2" ry="2"/><rect class="c" x="306" y="34" rx="2" ry="2"/><rect class="c" x="306" y="50" rx="2" ry="2"/><rect class="c" x="306" y="66" rx="2" ry="2"/><rect class="c" x="306" y="82" rx="2" ry="2"/><rect class="c" x="306" y="98" rx="2" ry="2"/><rect class="c" x="322" y="2" rx="2" ry="2"/><rect class="c" x="322" y="18" rx="2" ry="2"/><rect class="c" x="322" y="34" rx="2" ry="2"/><rect class="c" x="322" y="50" rx="2" ry="2"/><rect class="c" x="322" y="66" rx="2" ry="2"/><rect class="c" x="322" y="82" rx="2" ry="2"/><rect class="c" x="322" y="98" rx="2" ry="2"/><rect class="c" x="338" y="2" rx="2" ry="2"/><rect class="c" x="338" y="18" rx="2" ry="2"/><rect class="c" x="338" y="34" rx="2" ry="2"/><rect class="c" x="338" y="50" rx="2" ry="2"/><rect class="c" x="338" y="66" rx="2" ry="2"/><rect class="c" x="338" y="82" rx="2" ry="2"/><rect class="c" x="338" y="98" rx="2" ry="2"/><rect class="c" x="354" y="2" rx="2" ry="2"/><rect class="c" x="354" y="18" rx="2" ry="2"/><rect class="c" x="354" y="34" rx="2" ry="2"/><rect class="c" x="354" y="50" rx="2" ry="2"/><rect class="c" x="354" y="66" rx="2" ry="2"/><rect class="c" x="354" y="82" rx="2" ry="2"/><rect class="c" x="354" y="98" rx="2" ry="2"/><rect class="c" x="370" y="2" rx="2" ry="2"/><rect class="c" x="370" y="18" rx="2" ry="2"/><rect class="c" x="370" y="34" rx="2" ry="2"/><rect class="c" x="370" y="50" rx="2" ry="2"/><rect class="c" x="370" y="66" rx="2" ry="2"/><rect class="c" x="370" y="82" rx="2" ry="2"/><rect class="c" x="370" y="98" rx="2" ry="2"/><rect class="c" x="386" y="2" rx="2" ry="2"/><rect class="c" x="386" y="18" rx="2" ry="2"/><rect class="c" x="386" y="34" rx="2" ry="2"/><rect class="c" x="386" y="50" rx="2" ry="2"/><rect class="c c5" x="386" y="66" rx="2" ry="2"/><rect class="c" x="386" y="82" rx="2" ry="2"/><rect class="c" x="386" y="98" rx="2" ry="2"/><rect class="c" x="402" y="2" rx="2" ry="2"/><rect class="c" x="402" y="18" rx="2" ry="2"/><rect class="c" x="402" y="34" rx="2" ry="2"/><rect class="c c6" x="402" y="50" rx="2" ry="2"/><rect class="c" x="402" y="66" rx="2" ry="2"/><rect class="c" x="402" y="82" rx="2" ry="2"/><rect class="c" x="402" y="98" rx="2" ry="2"/><rect class="c" x="418" y="2" rx="2" ry="2"/><rect class="c" x="418" y="18" rx="2" ry="2"/><rect class="c" x="418" y="34" rx="2" ry="2"/><rect class="c" x="418" y="50" rx="2" ry="2"/><rect class="c" x="418" y="66" rx="2" ry="2"/><rect class="c" x="418" y="82" rx="2" ry="2"/><rect class="c" x="418" y="98" rx="2" ry="2"/><rect class="c" x="434" y="2" rx="2" ry="2"/><rect class="c" x="434" y="18" rx="2" ry="2"/><rect class="c" x="434" y="34" rx="2" ry="2"/><rect class="c" x="434" y="50" rx="2" ry="2"/><rect class="c" x="434" y="66" rx="2" ry="2"/><rect class="c" x="434" y="82" rx="2" ry="2"/><rect class="c" x="434" y="98" rx="2" ry="2"/><rect class="c" x="450" y="2" rx="2" ry="2"/><rect class="c" x="450" y="18" rx="2" ry="2"/><rect class="c" x="450" y="34" rx="2" ry="2"/><rect class="c" x="450" y="50" rx="2" ry="2"/><rect class="c" x="450" y="66" rx="2" ry="2"/><rect class="c" x="450" y="82" rx="2" ry="2"/><rect class="c" x="450" y="98" rx="2" ry="2"/><rect class="c" x="466" y="2" rx="2" ry="2"/><rect class="c" x="466" y="18" rx="2" ry="2"/><rect class="c" x="466" y="34" rx="2" ry="2"/><rect class="c" x="466" y="50" rx="2" ry="2"/><rect class="c" x="466" y="66" rx="2" ry="2"/><rect class="c" x="466" y="82" rx="2" ry="2"/><rect class="c" x="466" y="98" rx="2" ry="2"/><rect class="c" x="482" y="2" rx="2" ry="2"/><rect class="c" x="482" y="18" rx="2" ry="2"/><rect class="c" x="482" y="34" rx="2" ry="2"/><rect class="c" x="482" y="50" rx="2" ry="2"/><rect class="c" x="482" y="66" rx="2" ry="2"/><rect class="c" x="482" y="82" rx="2" ry="2"/><rect class="c" x="482" y="98" rx="2" ry="2"/><rect class="c" x="498" y="2" rx="2" ry="2"/><rect class="c" x="498" y="18" rx="2" ry="2"/><rect class="c" x="498" y="34" rx="2" ry="2"/><rect class="c" x="498" y="50" rx="2" ry="2"/><rect class="c" x="498" y="66" rx="2" ry="2"/><rect class="c" x="498" y="82" rx="2" ry="2"/><rect class="c" x="498" y="98" rx="2" ry="2"/><rect class="c" x="514" y="2" rx="2" ry="2"/><rect class="c" x="514" y="18" rx="2" ry="2"/><rect class="c" x="514" y="34" rx="2" ry="2"/><rect class="c" x="514" y="50" rx="2" ry="2"/><rect class="c" x="514" y="66" rx="2" ry="2"/><rect class="c" x="514" y="82" rx="2" ry="2"/><rect class="c" x="514" y="98" rx="2" ry="2"/><rect class="c" x="530" y="2" rx="2" ry="2"/><rect class="c" x="530" y="18" rx="2" ry="2"/><rect class="c" x="530" y="34" rx="2" ry="2"/><rect class="c" x="530" y="50" rx="2" ry="2"/><rect class="c" x="530" y="66" rx="2" ry="2"/><rect class="c" x="530" y="82" rx="2" ry="2"/><rect class="c" x="530" y="98" rx="2" ry="2"/><rect class="c" x="546" y="2" rx="2" ry="2"/><rect class="c" x="546" y="18" rx="2" ry="2"/><rect class="c" x="546" y="34" rx="2" ry="2"/><rect class="c" x="546" y="50" rx="2" ry="2"/><rect class="c" x="546" y="66" rx="2" ry="2"/><rect class="c" x="546" y="82" rx="2" ry="2"/><rect class="c" x="546" y="98" rx="2" ry="2"/><rect class="c" x="562" y="2" rx="2" ry="2"/><rect class="c" x="562" y="18" rx="2" ry="2"/><rect class="c" x="562" y="34" rx="2" ry="2"/><rect class="c" x="562" y="50" rx="2" ry="2"/><rect class="c c7" x="562" y="66" rx="2" ry="2"/><rect class="c" x="562" y="82" rx="2" ry="2"/><rect class="c c8" x="562" y="98" rx="2" ry="2"/><rect class="c c9" x="578" y="2" rx="2" ry="2"/><rect class="c" x="578" y="18" rx="2" ry="2"/><rect class="c" x="578" y="34" rx="2" ry="2"/><rect class="c ca" x="578" y="50" rx="2" ry="2"/><rect class="c" x="578" y="66" rx="2" ry="2"/><rect class="c" x="578" y="82" rx="2" ry="2"/><rect class="c" x="578" y="98" rx="2" ry="2"/><rect class="c" x="594" y="2" rx="2" ry="2"/><rect class="c cb" x="594" y="18" rx="2" ry="2"/><rect class="c" x="594" y="34" rx="2" ry="2"/><rect class="c" x="594" y="50" rx="2" ry="2"/><rect class="c" x="594" y="66" rx="2" ry="2"/><rect class="c cc" x="594" y="82" rx="2" ry="2"/><rect class="c cd" x="594" y="98" rx="2" ry="2"/><rect class="c" x="610" y="2" rx="2" ry="2"/><rect class="c" x="610" y="18" rx="2" ry="2"/><rect class="c" x="610" y="34" rx="2" ry="2"/><rect class="c" x="610" y="50" rx="2" ry="2"/><rect class="c" x="610" y="66" rx="2" ry="2"/><rect class="c" x="610" y="82" rx="2" ry="2"/><rect class="c" x="610" y="98" rx="2" ry="2"/><rect class="c" x="626" y="2" rx="2" ry="2"/><rect class="c" x="626" y="18" rx="2" ry="2"/><rect class="c ce" x="626" y="34" rx="2" ry="2"/><rect class="c cf" x="626" y="50" rx="2" ry="2"/><rect class="c cg" x="626" y="66" rx="2" ry="2"/><rect class="c ch" x="626" y="82" rx="2" ry="2"/><rect class="c ci" x="626" y="98" rx="2" ry="2"/><rect class="c cj" x="642" y="2" rx="2" ry="2"/><rect class="c ck" x="642" y="18" rx="2" ry="2"/><rect class="c cl" x="642" y="34" rx="2" ry="2"/><rect class="c cm" x="642" y="50" rx="2" ry="2"/><rect class="c cn" x="642" y="66" rx="2" ry="2"/><rect class="c co" x="642" y="82" rx="2" ry="2"/><rect class="c cp" x="642" y="98" rx="2" ry="2"/><rect class="c cq" x="658" y="2" rx="2" ry="2"/><rect class="c cr" x="658" y="18" rx="2" ry="2"/><rect class="c cs" x="658" y="34" rx="2" ry="2"/><rect class="c ct" x="658" y="50" rx="2" ry="2"/><rect class="c cu" x="658" y="66" rx="2" ry="2"/><rect class="c cv" x="658" y="82" rx="2" ry="2"/><rect class="c cw" x="658" y="98" rx="2" ry="2"/><rect class="c cx" x="674" y="2" rx="2" ry="2"/><rect class="c cy" x="674" y="18" rx="2" ry="2"/><rect class="c cz" x="674" y="34" rx="2" ry="2"/><rect class="c c10" x="674" y="50" rx="2" ry="2"/><rect class="c c11" x="674" y="66" rx="2" ry="2"/><rect class="c c12" x="674" y="82" rx="2" ry="2"/><rect class="c c13" x="674" y="98" rx="2" ry="2"/><rect class="c c14" x="690" y="2" rx="2" ry="2"/><rect class="c c15" x="690" y="18" rx="2" ry="2"/><rect class="c c16" x="690" y="34" rx="2" ry="2"/><rect class="c c17" x="690" y="50" rx="2" ry="2"/><rect class="c c18" x="690" y="66" rx="2" ry="2"/><rect class="c c19" x="690" y="82" rx="2" ry="2"/><rect class="c c1a" x="690" y="98" rx="2" ry="2"/><rect class="c c1b" x="706" y="2" rx="2" ry="2"/><rect class="c c1c" x="706" y="18" rx="2" ry="2"/><rect class="c c1d" x="706" y="34" rx="2" ry="2"/><rect class="c c1e" x="706" y="50" rx="2" ry="2"/><rect class="c c1f" x="706" y="66" rx="2" ry="2"/><rect class="c c1g" x="706" y="82" rx="2" ry="2"/><rect class="c c1h" x="706" y="98" rx="2" ry="2"/><rect class="c c1i" x="722" y="2" rx="2" ry="2"/><rect class="c c1j" x="722" y="18" rx="2" ry="2"/><rect class="c c1k" x="722" y="34" rx="2" ry="2"/><rect class="c c1l" x="722" y="50" rx="2" ry="2"/><rect class="c c1m" x="722" y="66" rx="2" ry="2"/><rect class="c c1n" x="722" y="82" rx="2" ry="2"/><rect class="c c1o" x="722" y="98" rx="2" ry="2"/><rect class="c c1p" x="738" y="2" rx="2" ry="2"/><rect class="c c1q" x="738" y="18" rx="2" ry="2"/><rect class="c c1r" x="738" y="34" rx="2" ry="2"/><rect class="c c1s" x="738" y="50" rx="2" ry="2"/><rect class="c c1t" x="738" y="66" rx="2" ry="2"/><rect class="c c1u" x="738" y="82" rx="2" ry="2"/><rect class="c c1v" x="738" y="98" rx="2" ry="2"/><rect class="c c1w" x="754" y="2" rx="2" ry="2"/><rect class="c c1x" x="754" y="18" rx="2" ry="2"/><rect class="c c1y" x="754" y="34" rx="2" ry="2"/><rect class="c c1z" x="754" y="50" rx="2" ry="2"/><rect class="c c20" x="754" y="66" rx="2" ry="2"/><rect class="c c21" x="754" y="82" rx="2" ry="2"/><rect class="c c22" x="754" y="98" rx="2" ry="2"/><rect class="c c23" x="770" y="2" rx="2" ry="2"/><rect class="c c24" x="770" y="18" rx="2" ry="2"/><rect class="c c25" x="770" y="34" rx="2" ry="2"/><rect class="c c26" x="770" y="50" rx="2" ry="2"/><rect class="c c27" x="770" y="66" rx="2" ry="2"/><rect class="c c28" x="770" y="82" rx="2" ry="2"/><rect class="c c29" x="770" y="98" rx="2" ry="2"/><rect class="c c2a" x="786" y="2" rx="2" ry="2"/><rect class="c c2b" x="786" y="18" rx="2" ry="2"/><rect class="c c2c" x="786" y="34" rx="2" ry="2"/><rect class="c c2d" x="786" y="50" rx="2" ry="2"/><rect class="c c2e" x="786" y="66" rx="2" ry="2"/><rect class="c c2f" x="786" y="82" rx="2" ry="2"/><rect class="c c2g" x="786" y="98" rx="2" ry="2"/><rect class="c c2h" x="802" y="2" rx="2" ry="2"/><rect class="c c2i" x="802" y="18" rx="2" ry="2"/><rect class="c c2j" x="802" y="34" rx="2" ry="2"/><rect class="c c2k" x="802" y="50" rx="2" ry="2"/><rect class="c c2l" x="802" y="66" rx="2" ry="2"/><rect class="c c2m" x="802" y="82" rx="2" ry="2"/><rect class="c c2n" x="802" y="98" rx="2" ry="2"/><rect class="c c2o" x="818" y="2" rx="2" ry="2"/><rect class="c c2p" x="818" y="18" rx="2" ry="2"/><rect class="c c2q" x="818" y="34" rx="2" ry="2"/><rect class="c c2r" x="818" y="50" rx="2" ry="2"/><rect class="c c2s" x="818" y="66" rx="2" ry="2"/><rect class="c c2t" x="818" y="82" rx="2" ry="2"/><rect class="c c2u" x="818" y="98" rx="2" ry="2"/><rect class="c c2v" x="834" y="2" rx="2" ry="2"/><rect class="c c2w" x="834" y="18" rx="2" ry="2"/><rect class="c c2x" x="834" y="34" rx="2" ry="2"/><rect class="c c2y" x="834" y="50" rx="2" ry="2"/><rect class="c c2z" x="834" y="66" rx="2" ry="2"/><rect class="c c30" x="834" y="82" rx="2" ry="2"/><rect class="u u0" height="12" width="70.6" x="0.0" y="144"/><rect class="u u1" height="12" width="428.5" x="70.0" y="144"/><rect class="u u2" height="12" width="350.7" x="497.9" y="144"/><rect class="s s0" x="0.8" y="0.8" width="14.4" height="14.4" rx="4.5" ry="4.5"/><rect class="s s1" x="1.8" y="1.8" width="12.3" height="12.3" rx="4.1" ry="4.1"/><rect class="s s2" x="2.6" y="2.6" width="10.8" height="10.8" rx="3.6" ry="3.6"/><rect class="s s3" x="3.0" y="3.0" width="9.9" height="9.9" rx="3.3" ry="3.3"/></svg>