<svg viewBox="-16 -32 880 192" width="880" height="192" xmlns="http://www.w3.org/2000/svg"><desc>Generated with https://github.com/Platane/snk</desc><style>:root{--cb:#1b1f230a;--cs:purple;--ce:#161b22;--c0:#161b22;--c1:#01311f;--c2:#034525;--c3:#0f6d31;--c4:#00c647}.c{shape-rendering:geometricPrecision;fill:var(--ce);stroke-width:1px;stroke:var(--cb);animation:none 23900ms linear infinite;width:12px;height:12px}@keyframes c0{10.03%{fill:var(--c1)}10.05%,100%{fill:var(--ce)}}.c.c0{fill:var(--c1);animation-name:c0}@keyframes c1{10.45%{fill:var(--c1)}10.47%,100%{fill:var(--ce)}}.c.c1{fill:var(--c1);animation-name:c1}@keyframes c2{7.1%{fill:var(--c1)}7.12%,100%{fill:var(--ce)}}.c.c2{fill:var(--c1);animation-name:c2}@keyframes c3{7.52%{fill:var(--c1)}7.54%,100%{fill:var(--ce)}}.c.c3{fill:var(--c1);animation-name:c3}@keyframes c4{14.22%{fill:var(--c1)}14.24%,100%{fill:var(--ce)}}.c.c4{fill:var(--c1);animation-name:c4}@keyframes c5{72.79%{fill:var(--c3)}72.81%,100%{fill:var(--ce)}}.c.c5{fill:var(--c3);animation-name:c5}@keyframes c6{18.4%{fill:var(--c1)}18.42%,100%{fill:var(--ce)}}.c.c6{fill:var(--c1);animation-name:c6}@keyframes c7{23.84%{fill:var(--c1)}23.86%,100%{fill:var(--ce)}}.c.c7{fill:var(--c1);animation-name:c7}@keyframes c8{24.68%{fill:var(--c1)}24.7%,100%{fill:var(--ce)}}.c.c8{fill:var(--c1);animation-name:c8}@keyframes c9{66.1%{fill:var(--c3)}66.12%,100%{fill:var(--ce)}}.c.c9{fill:var(--c3);animation-name:c9}@keyframes ca{23%{fill:var(--c1)}23.02%,100%{fill:var(--ce)}}.c.ca{fill:var(--c1);animation-name:ca}@keyframes cb{56.89%{fill:var(--c1)}56.91%,100%{fill:var(--ce)}}.c.cb{fill:var(--c1);animation-name:cb}@keyframes cc{25.93%{fill:var(--c1)}25.95%,100%{fill:var(--ce)}}.c.cc{fill:var(--c1);animation-name:cc}@keyframes cd{25.51%{fill:var(--c1)}25.53%,100%{fill:var(--ce)}}.c.cd{fill:var(--c1);animation-name:cd}@keyframes ce{64.01%{fill:var(--c3)}64.03%,100%{fill:var(--ce)}}.c.ce{fill:var(--c3);animation-name:ce}@keyframes cf{79.49%{fill:var(--c4)}79.51%,100%{fill:var(--ce)}}.c.cf{fill:var(--c4);animation-name:cf}@keyframes cg{51.45%{fill:var(--c1)}51.47%,100%{fill:var(--ce)}}.c.cg{fill:var(--c1);animation-name:cg}@keyframes ch{26.77%{fill:var(--c1)}26.79%,100%{fill:var(--ce)}}.c.ch{fill:var(--c1);animation-name:ch}@keyframes ci{52.29%{fill:var(--c1)}52.31%,100%{fill:var(--ce)}}.c.ci{fill:var(--c1);animation-name:ci}@keyframes cj{35.97%{fill:var(--c1)}35.99%,100%{fill:var(--ce)}}.c.cj{fill:var(--c1);animation-name:cj}@keyframes ck{36.39%{fill:var(--c1)}36.41%,100%{fill:var(--ce)}}.c.ck{fill:var(--c1);animation-name:ck}@keyframes cl{36.81%{fill:var(--c1)}36.83%,100%{fill:var(--ce)}}.c.cl{fill:var(--c1);animation-name:cl}@keyframes cm{41.41%{fill:var(--c1)}41.43%,100%{fill:var(--ce)}}.c.cm{fill:var(--c1);animation-name:cm}@keyframes cn{41.83%{fill:var(--c1)}41.85%,100%{fill:var(--ce)}}.c.cn{fill:var(--c1);animation-name:cn}@keyframes co{27.19%{fill:var(--c1)}27.21%,100%{fill:var(--ce)}}.c.co{fill:var(--c1);animation-name:co}@keyframes cp{52.71%{fill:var(--c1)}52.73%,100%{fill:var(--ce)}}.c.cp{fill:var(--c1);animation-name:cp}@keyframes cq{35.55%{fill:var(--c1)}35.57%,100%{fill:var(--ce)}}.c.cq{fill:var(--c1);animation-name:cq}@keyframes cr{59.4%{fill:var(--c2)}59.42%,100%{fill:var(--ce)}}.c.cr{fill:var(--c2);animation-name:cr}@keyframes cs{37.23%{fill:var(--c1)}37.25%,100%{fill:var(--ce)}}.c.cs{fill:var(--c1);animation-name:cs}@keyframes ct{40.99%{fill:var(--c1)}41.01%,100%{fill:var(--ce)}}.c.ct{fill:var(--c1);animation-name:ct}@keyframes cu{42.25%{fill:var(--c1)}42.27%,100%{fill:var(--ce)}}.c.cu{fill:var(--c1);animation-name:cu}@keyframes cv{27.61%{fill:var(--c1)}27.63%,100%{fill:var(--ce)}}.c.cv{fill:var(--c1);animation-name:cv}@keyframes cw{53.13%{fill:var(--c1)}53.15%,100%{fill:var(--ce)}}.c.cw{fill:var(--c1);animation-name:cw}@keyframes cx{35.14%{fill:var(--c1)}35.16%,100%{fill:var(--ce)}}.c.cx{fill:var(--c1);animation-name:cx}@keyframes cy{48.94%{fill:var(--c1)}48.96%,100%{fill:var(--ce)}}.c.cy{fill:var(--c1);animation-name:cy}@keyframes cz{37.65%{fill:var(--c1)}37.67%,100%{fill:var(--ce)}}.c.cz{fill:var(--c1);animation-name:cz}@keyframes c10{40.58%{fill:var(--c1)}40.6%,100%{fill:var(--ce)}}.c.c10{fill:var(--c1);animation-name:c10}@keyframes c11{42.67%{fill:var(--c1)}42.69%,100%{fill:var(--ce)}}.c.c11{fill:var(--c1);animation-name:c11}@keyframes c12{28.02%{fill:var(--c1)}28.04%,100%{fill:var(--ce)}}.c.c12{fill:var(--c1);animation-name:c12}@keyframes c13{43.5%{fill:var(--c1)}43.52%,100%{fill:var(--ce)}}.c.c13{fill:var(--c1);animation-name:c13}@keyframes c14{34.72%{fill:var(--c1)}34.74%,100%{fill:var(--ce)}}.c.c14{fill:var(--c1);animation-name:c14}@keyframes c15{48.53%{fill:var(--c1)}48.55%,100%{fill:var(--ce)}}.c.c15{fill:var(--c1);animation-name:c15}@keyframes c16{38.07%{fill:var(--c1)}38.09%,100%{fill:var(--ce)}}.c.c16{fill:var(--c1);animation-name:c16}@keyframes c17{40.16%{fill:var(--c1)}40.18%,100%{fill:var(--ce)}}.c.c17{fill:var(--c1);animation-name:c17}@keyframes c18{61.5%{fill:var(--c2)}61.52%,100%{fill:var(--ce)}}.c.c18{fill:var(--c2);animation-name:c18}@keyframes c19{28.44%{fill:var(--c1)}28.46%,100%{fill:var(--ce)}}.c.c19{fill:var(--c1);animation-name:c19}@keyframes c1a{43.92%{fill:var(--c1)}43.94%,100%{fill:var(--ce)}}.c.c1a{fill:var(--c1);animation-name:c1a}@keyframes c1b{34.3%{fill:var(--c1)}34.32%,100%{fill:var(--ce)}}.c.c1b{fill:var(--c1);animation-name:c1b}@keyframes c1c{48.11%{fill:var(--c1)}48.13%,100%{fill:var(--ce)}}.c.c1c{fill:var(--c1);animation-name:c1c}@keyframes c1d{38.48%{fill:var(--c1)}38.5%,100%{fill:var(--ce)}}.c.c1d{fill:var(--c1);animation-name:c1d}@keyframes c1e{39.74%{fill:var(--c1)}39.76%,100%{fill:var(--ce)}}.c.c1e{fill:var(--c1);animation-name:c1e}@keyframes c1f{46.85%{fill:var(--c1)}46.87%,100%{fill:var(--ce)}}.c.c1f{fill:var(--c1);animation-name:c1f}@keyframes c1g{28.86%{fill:var(--c1)}28.88%,100%{fill:var(--ce)}}.c.c1g{fill:var(--c1);animation-name:c1g}@keyframes c1h{44.34%{fill:var(--c1)}44.36%,100%{fill:var(--ce)}}.c.c1h{fill:var(--c1);animation-name:c1h}@keyframes c1i{33.88%{fill:var(--c1)}33.9%,100%{fill:var(--ce)}}.c.c1i{fill:var(--c1);animation-name:c1i}@keyframes c1j{33.46%{fill:var(--c1)}33.48%,100%{fill:var(--ce)}}.c.c1j{fill:var(--c1);animation-name:c1j}@keyframes c1k{38.9%{fill:var(--c1)}38.92%,100%{fill:var(--ce)}}.c.c1k{fill:var(--c1);animation-name:c1k}@keyframes c1l{39.32%{fill:var(--c1)}39.34%,100%{fill:var(--ce)}}.c.c1l{fill:var(--c1);animation-name:c1l}@keyframes c1m{46.43%{fill:var(--c1)}46.45%,100%{fill:var(--ce)}}.c.c1m{fill:var(--c1);animation-name:c1m}@keyframes c1n{29.28%{fill:var(--c1)}29.3%,100%{fill:var(--ce)}}.c.c1n{fill:var(--c1);animation-name:c1n}@keyframes c1o{44.76%{fill:var(--c1)}44.78%,100%{fill:var(--ce)}}.c.c1o{fill:var(--c1);animation-name:c1o}@keyframes c1p{31.79%{fill:var(--c1)}31.81%,100%{fill:var(--ce)}}.c.c1p{fill:var(--c1);animation-name:c1p}@keyframes c1q{31.37%{fill:var(--c1)}31.39%,100%{fill:var(--ce)}}.c.c1q{fill:var(--c1);animation-name:c1q}@keyframes c1r{30.95%{fill:var(--c1)}30.97%,100%{fill:var(--ce)}}.c.c1r{fill:var(--c1);animation-name:c1r}@keyframes c1s{30.53%{fill:var(--c1)}30.55%,100%{fill:var(--ce)}}.c.c1s{fill:var(--c1);animation-name:c1s}@keyframes c1t{30.12%{fill:var(--c1)}30.14%,100%{fill:var(--ce)}}.c.c1t{fill:var(--c1);animation-name:c1t}@keyframes c1u{29.7%{fill:var(--c1)}29.72%,100%{fill:var(--ce)}}.c.c1u{fill:var(--c1);animation-name:c1u}@keyframes c1v{45.18%{fill:var(--c1)}45.2%,100%{fill:var(--ce)}}.c.c1v{fill:var(--c1);animation-name:c1v}@keyframes c1w{32.21%{fill:var(--c1)}32.23%,100%{fill:var(--ce)}}.c.c1w{fill:var(--c1);animation-name:c1w}.u{transform-origin:0 0;transform:scale(0,1);animation:none linear 23900ms infinite}@keyframes u0{7.1%{transform:scale(0.000,1)}7.12%,7.52%{transform:scale(0.016,1)}7.54%,10.03%{transform:scale(0.032,1)}10.05%,10.45%{transform:scale(0.048,1)}10.47%,14.22%{transform:scale(0.063,1)}14.24%,18.4%{transform:scale(0.079,1)}18.42%,23%{transform:scale(0.095,1)}23.02%,23.84%{transform:scale(0.111,1)}23.86%,24.68%{transform:scale(0.127,1)}24.7%,25.51%{transform:scale(0.143,1)}25.53%,25.93%{transform:scale(0.159,1)}25.95%,26.77%{transform:scale(0.175,1)}26.79%,27.19%{transform:scale(0.190,1)}27.21%,27.61%{transform:scale(0.206,1)}27.63%,28.02%{transform:scale(0.222,1)}28.04%,28.44%{transform:scale(0.238,1)}28.46%,28.86%{transform:scale(0.254,1)}28.88%,29.28%{transform:scale(0.270,1)}29.3%,29.7%{transform:scale(0.286,1)}29.72%,30.12%{transform:scale(0.302,1)}30.14%,30.53%{transform:scale(0.317,1)}30.55%,30.95%{transform:scale(0.333,1)}30.97%,31.37%{transform:scale(0.349,1)}31.39%,31.79%{transform:scale(0.365,1)}31.81%,32.21%{transform:scale(0.381,1)}32.23%,33.46%{transform:scale(0.397,1)}33.48%,33.88%{transform:scale(0.413,1)}33.9%,34.3%{transform:scale(0.429,1)}34.32%,34.72%{transform:scale(0.444,1)}34.74%,35.14%{transform:scale(0.460,1)}35.16%,35.55%{transform:scale(0.476,1)}35.57%,35.97%{transform:scale(0.492,1)}35.99%,36.39%{transform:scale(0.508,1)}36.41%,36.81%{transform:scale(0.524,1)}36.83%,37.23%{transform:scale(0.540,1)}37.25%,37.65%{transform:scale(0.556,1)}37.67%,38.07%{transform:scale(0.571,1)}38.09%,38.48%{transform:scale(0.587,1)}38.5%,38.9%{transform:scale(0.603,1)}38.92%,39.32%{transform:scale(0.619,1)}39.34%,39.74%{transform:scale(0.635,1)}39.76%,40.16%{transform:scale(0.651,1)}40.18%,40.58%{transform:scale(0.667,1)}40.6%,40.99%{transform:scale(0.683,1)}41.01%,41.41%{transform:scale(0.698,1)}41.43%,41.83%{transform:scale(0.714,1)}41.85%,42.25%{transform:scale(0.730,1)}42.27%,42.67%{transform:scale(0.746,1)}42.69%,43.5%{transform:scale(0.762,1)}43.52%,43.92%{transform:scale(0.778,1)}43.94%,44.34%{transform:scale(0.794,1)}44.36%,44.76%{transform:scale(0.810,1)}44.78%,45.18%{transform:scale(0.825,1)}45.2%,46.43%{transform:scale(0.841,1)}46.45%,46.85%{transform:scale(0.857,1)}46.87%,48.11%{transform:scale(0.873,1)}48.13%,48.53%{transform:scale(0.889,1)}48.55%,48.94%{transform:scale(0.905,1)}48.96%,51.45%{transform:scale(0.921,1)}51.47%,52.29%{transform:scale(0.937,1)}52.31%,52.71%{transform:scale(0.952,1)}52.73%,53.13%{transform:scale(0.968,1)}53.15%,56.89%{transform:scale(0.984,1)}56.91%,100%{transform:scale(1.000,1)}}.u.u0{fill:var(--c1);animation-name:u0;transform-origin:0.0px 0}@keyframes u1{59.4%{transform:scale(0.000,1)}59.42%,61.5%{transform:scale(0.500,1)}61.52%,100%{transform:scale(1.000,1)}}.u.u1{fill:var(--c2);animation-name:u1;transform-origin:774.3px 0}@keyframes u2{64.01%{transform:scale(0.000,1)}64.03%,66.1%{transform:scale(0.333,1)}66.12%,72.79%{transform:scale(0.667,1)}72.81%,100%{transform:scale(1.000,1)}}.u.u2{fill:var(--c3);animation-name:u2;transform-origin:798.8px 0}@keyframes u3{79.49%{transform:scale(0.000,1)}79.51%,100%{transform:scale(1.000,1)}}.u.u3{fill:var(--c4);animation-name:u3;transform-origin:835.7px 0}.s{shape-rendering:geometricPrecision;fill:var(--cs);animation:none linear 23900ms infinite}@keyframes s0{0%,99.58%{transform:translate(0px,-16px)}0.42%{transform:translate(0px,0px)}7.11%{transform:translate(256px,0px)}7.53%{transform:translate(256px,16px)}8.37%{transform:translate(224px,16px)}10.46%{transform:translate(224px,96px)}13.39%{transform:translate(336px,96px)}14.23%{transform:translate(336px,64px)}17.15%{transform:translate(448px,64px)}17.57%{transform:translate(448px,48px)}23.01%{transform:translate(656px,48px)}23.43%{transform:translate(656px,64px)}23.85%{transform:translate(640px,64px)}24.69%{transform:translate(640px,96px)}25.52%{transform:translate(672px,96px)}25.94%{transform:translate(672px,80px)}29.71%{transform:translate(816px,80px)}31.8%{transform:translate(816px,0px)}32.22%{transform:translate(832px,0px)}32.64%{transform:translate(832px,16px)}33.47%{transform:translate(800px,16px)}33.89%{transform:translate(800px,0px)}35.98%{transform:translate(720px,0px)}36.82%,50.21%,55.23%{transform:translate(720px,32px)}38.91%{transform:translate(800px,32px)}39.33%{transform:translate(800px,48px)}41.42%{transform:translate(720px,48px)}41.84%,51.05%{transform:translate(720px,64px)}42.68%,61.92%{transform:translate(752px,64px)}43.51%{transform:translate(752px,96px)}45.19%{transform:translate(816px,96px)}46.03%{transform:translate(816px,64px)}46.86%{transform:translate(784px,64px)}48.12%{transform:translate(784px,16px)}48.95%{transform:translate(752px,16px)}49.37%,62.76%{transform:translate(752px,32px)}51.46%,79.08%{transform:translate(704px,64px)}52.3%{transform:translate(704px,96px)}53.14%{transform:translate(736px,96px)}54.81%{transform:translate(736px,32px)}55.65%{transform:translate(720px,16px)}56.9%{transform:translate(672px,16px)}57.32%{transform:translate(672px,0px)}59%{transform:translate(736px,0px)}59.41%{transform:translate(736px,16px)}60.25%{transform:translate(768px,16px)}61.51%{transform:translate(768px,64px)}64.02%{transform:translate(704px,32px)}64.85%{transform:translate(704px,0px)}71.13%{transform:translate(464px,0px)}72.8%{transform:translate(464px,64px)}79.5%{transform:translate(704px,48px)}95.82%{transform:translate(80px,48px)}97.49%{transform:translate(80px,-16px)}}.s.s0{transform:translate(0px,-16px);animation-name:s0}@keyframes s1{0%,99.58%{transform:translate(16px,-16px)}0.42%{transform:translate(0px,-16px)}0.84%{transform:translate(0px,0px)}7.53%{transform:translate(256px,0px)}7.95%{transform:translate(256px,16px)}8.79%{transform:translate(224px,16px)}10.88%{transform:translate(224px,96px)}13.81%{transform:translate(336px,96px)}14.64%{transform:translate(336px,64px)}17.57%{transform:translate(448px,64px)}17.99%{transform:translate(448px,48px)}23.43%{transform:translate(656px,48px)}23.85%{transform:translate(656px,64px)}24.27%{transform:translate(640px,64px)}25.1%{transform:translate(640px,96px)}25.94%{transform:translate(672px,96px)}26.36%{transform:translate(672px,80px)}30.13%{transform:translate(816px,80px)}32.22%{transform:translate(816px,0px)}32.64%{transform:translate(832px,0px)}33.05%{transform:translate(832px,16px)}33.89%{transform:translate(800px,16px)}34.31%{transform:translate(800px,0px)}36.4%{transform:translate(720px,0px)}37.24%,50.63%,55.65%{transform:translate(720px,32px)}39.33%{transform:translate(800px,32px)}39.75%{transform:translate(800px,48px)}41.84%{transform:translate(720px,48px)}42.26%,51.46%{transform:translate(720px,64px)}43.1%,62.34%{transform:translate(752px,64px)}43.93%{transform:translate(752px,96px)}45.61%{transform:translate(816px,96px)}46.44%{transform:translate(816px,64px)}47.28%{transform:translate(784px,64px)}48.54%{transform:translate(784px,16px)}49.37%{transform:translate(752px,16px)}49.79%,63.18%{transform:translate(752px,32px)}51.88%,79.5%{transform:translate(704px,64px)}52.72%{transform:translate(704px,96px)}53.56%{transform:translate(736px,96px)}55.23%{transform:translate(736px,32px)}56.07%{transform:translate(720px,16px)}57.32%{transform:translate(672px,16px)}57.74%{transform:translate(672px,0px)}59.41%{transform:translate(736px,0px)}59.83%{transform:translate(736px,16px)}60.67%{transform:translate(768px,16px)}61.92%{transform:translate(768px,64px)}64.44%{transform:translate(704px,32px)}65.27%{transform:translate(704px,0px)}71.55%{transform:translate(464px,0px)}73.22%{transform:translate(464px,64px)}79.92%{transform:translate(704px,48px)}96.23%{transform:translate(80px,48px)}97.91%{transform:translate(80px,-16px)}}.s.s1{transform:translate(16px,-16px);animation-name:s1}@keyframes s2{0%,99.58%{transform:translate(32px,-16px)}0.84%{transform:translate(0px,-16px)}1.26%{transform:translate(0px,0px)}7.95%{transform:translate(256px,0px)}8.37%{transform:translate(256px,16px)}9.21%{transform:translate(224px,16px)}11.3%{transform:translate(224px,96px)}14.23%{transform:translate(336px,96px)}15.06%{transform:translate(336px,64px)}17.99%{transform:translate(448px,64px)}18.41%{transform:translate(448px,48px)}23.85%{transform:translate(656px,48px)}24.27%{transform:translate(656px,64px)}24.69%{transform:translate(640px,64px)}25.52%{transform:translate(640px,96px)}26.36%{transform:translate(672px,96px)}26.78%{transform:translate(672px,80px)}30.54%{transform:translate(816px,80px)}32.64%{transform:translate(816px,0px)}33.05%{transform:translate(832px,0px)}33.47%{transform:translate(832px,16px)}34.31%{transform:translate(800px,16px)}34.73%{transform:translate(800px,0px)}36.82%{transform:translate(720px,0px)}37.66%,51.05%,56.07%{transform:translate(720px,32px)}39.75%{transform:translate(800px,32px)}40.17%{transform:translate(800px,48px)}42.26%{transform:translate(720px,48px)}42.68%,51.88%{transform:translate(720px,64px)}43.51%,62.76%{transform:translate(752px,64px)}44.35%{transform:translate(752px,96px)}46.03%{transform:translate(816px,96px)}46.86%{transform:translate(816px,64px)}47.7%{transform:translate(784px,64px)}48.95%{transform:translate(784px,16px)}49.79%{transform:translate(752px,16px)}50.21%,63.6%{transform:translate(752px,32px)}52.3%,79.92%{transform:translate(704px,64px)}53.14%{transform:translate(704px,96px)}53.97%{transform:translate(736px,96px)}55.65%{transform:translate(736px,32px)}56.49%{transform:translate(720px,16px)}57.74%{transform:translate(672px,16px)}58.16%{transform:translate(672px,0px)}59.83%{transform:translate(736px,0px)}60.25%{transform:translate(736px,16px)}61.09%{transform:translate(768px,16px)}62.34%{transform:translate(768px,64px)}64.85%{transform:translate(704px,32px)}65.69%{transform:translate(704px,0px)}71.97%{transform:translate(464px,0px)}73.64%{transform:translate(464px,64px)}80.33%{transform:translate(704px,48px)}96.65%{transform:translate(80px,48px)}98.33%{transform:translate(80px,-16px)}}.s.s2{transform:translate(32px,-16px);animation-name:s2}@keyframes s3{0%,99.58%{transform:translate(48px,-16px)}1.26%{transform:translate(0px,-16px)}1.67%{transform:translate(0px,0px)}8.37%{transform:translate(256px,0px)}8.79%{transform:translate(256px,16px)}9.62%{transform:translate(224px,16px)}11.72%{transform:translate(224px,96px)}14.64%{transform:translate(336px,96px)}15.48%{transform:translate(336px,64px)}18.41%{transform:translate(448px,64px)}18.83%{transform:translate(448px,48px)}24.27%{transform:translate(656px,48px)}24.69%{transform:translate(656px,64px)}25.1%{transform:translate(640px,64px)}25.94%{transform:translate(640px,96px)}26.78%{transform:translate(672px,96px)}27.2%{transform:translate(672px,80px)}30.96%{transform:translate(816px,80px)}33.05%{transform:translate(816px,0px)}33.47%{transform:translate(832px,0px)}33.89%{transform:translate(832px,16px)}34.73%{transform:translate(800px,16px)}35.15%{transform:translate(800px,0px)}37.24%{transform:translate(720px,0px)}38.08%,51.46%,56.49%{transform:translate(720px,32px)}40.17%{transform:translate(800px,32px)}40.59%{transform:translate(800px,48px)}42.68%{transform:translate(720px,48px)}43.1%,52.3%{transform:translate(720px,64px)}43.93%,63.18%{transform:translate(752px,64px)}44.77%{transform:translate(752px,96px)}46.44%{transform:translate(816px,96px)}47.28%{transform:translate(816px,64px)}48.12%{transform:translate(784px,64px)}49.37%{transform:translate(784px,16px)}50.21%{transform:translate(752px,16px)}50.63%,64.02%{transform:translate(752px,32px)}52.72%,80.33%{transform:translate(704px,64px)}53.56%{transform:translate(704px,96px)}54.39%{transform:translate(736px,96px)}56.07%{transform:translate(736px,32px)}56.9%{transform:translate(720px,16px)}58.16%{transform:translate(672px,16px)}58.58%{transform:translate(672px,0px)}60.25%{transform:translate(736px,0px)}60.67%{transform:translate(736px,16px)}61.51%{transform:translate(768px,16px)}62.76%{transform:translate(768px,64px)}65.27%{transform:translate(704px,32px)}66.11%{transform:translate(704px,0px)}72.38%{transform:translate(464px,0px)}74.06%{transform:translate(464px,64px)}80.75%{transform:translate(704px,48px)}97.07%{transform:translate(80px,48px)}98.74%{transform:translate(80px,-16px)}}.s.s3{transform:translate(48px,-16px);animation-name:s3}</style><rect class="c" x="2" y="2" rx="2" ry="2"/><rect class="c" x="2" y="18" rx="2" ry="2"/><rect class="c" x="2" y="34" rx="2" ry="2"/><rect class="c" x="2" y="50" rx="2" ry="2"/><rect class="c" x="2" y="66" rx="2" ry="2"/><rect class="c" x="2" y="82" rx="2" ry="2"/><rect class="c" x="2" y="98" rx="2" ry="2"/><rect class="c" x="18" y="2" rx="2" ry="2"/><rect class="c" x="18" y="18" rx="2" ry="2"/><rect class="c" x="18" y="34" rx="2" ry="2"/><rect class="c" x="18" y="50" rx="2" ry="2"/><rect class="c" x="18" y="66" rx="2" ry="2"/><rect class="c" x="18" y="82" rx="2" ry="2"/><rect class="c" x="18" y="98" rx="2" ry="2"/><rect class="c" x="34" y="2" rx="2" ry="2"/><rect class="c" x="34" y="18" rx="2" ry="2"/><rect class="c" x="34" y="34" rx="2" ry="2"/><rect class="c" x="34" y="50" rx="2" ry="2"/><rect class="c" x="34" y="66" rx="2" ry="2"/><rect class="c" x="34" y="82" rx="2" ry="2"/><rect class="c" x="34" y="98" rx="2" ry="2"/><rect class="c" x="50" y="2" rx="2" ry="2"/><rect class="c" x="50" y="18" rx="2" ry="2"/><rect class="c" x="50" y="34" rx="2" ry="2"/><rect class="c" x="50" y="50" rx="2" ry="2"/><rect class="c" x="50" y="66" rx="2" ry="2"/><rect class="c" x="50" y="82" rx="2" ry="2"/><rect class="c" x="50" y="98" rx="2" ry="2"/><rect class="c" x="66" y="2" rx="2" ry="2"/><rect class="c" x="66" y="18" rx="2" ry="2"/><rect class="c" x="66" y="34" rx="2" ry="2"/><rect class="c" x="66" y="50" rx="2" ry="2"/><rect class="c" x="66" y="66" rx="2" ry="2"/><rect class="c" x="66" y="82" rx="2" ry="2"/><rect class="c" x="66" y="98" rx="2" ry="2"/><rect class="c" x="82" y="2" rx="2" ry="2"/><rect class="c" x="82" y="18" rx="2" ry="2"/><rect class="c" x="82" y="34" rx="2" ry="2"/><rect class="c" x="82" y="50" rx="2" ry="2"/><rect class="c" x="82" y="66" rx="2" ry="2"/><rect class="c" x="82" y="82" rx="2" ry="2"/><rect class="c" x="82" y="98" rx="2" ry="2"/><rect class="c" x="98" y="2" rx="2" ry="2"/><rect class="c" x="98" y="18" rx="2" ry="2"/><rect class="c" x="98" y="34" rx="2" ry="2"/><rect class="c" x="98" y="50" rx="2" ry="2"/><rect class="c" x="98" y="66" rx="2" ry="2"/><rect class="c" x="98" y="82" rx="2" ry="2"/><rect class="c" x="98" y="98" rx="2" ry="2"/><rect class="c" x="114" y="2" rx="2" ry="2"/><rect class="c" x="114" y="18" rx="2" ry="2"/><rect class="c" x="114" y="34" rx="2" ry="2"/><rect class="c" x="114" y="50" rx="2" ry="2"/><rect class="c" x="114" y="66" rx="2" ry="2"/><rect class="c" x="114" y="82" rx="2" ry="2"/><rect class="c" x="114" y="98" rx="2" ry="2"/><rect class="c" x="130" y="2" rx="2" ry="2"/><rect class="c" x="130" y="18" rx="2" ry="2"/><rect class="c" x="130" y="34" rx="2" ry="2"/><rect class="c" x="130" y="50" rx="2" ry="2"/><rect class="c" x="130" y="66" rx="2" ry="2"/><rect class="c" x="130" y="82" rx="2" ry="2"/><rect class="c" x="130" y="98" rx="2" ry="2"/><rect class="c" x="146" y="2" rx="2" ry="2"/><rect class="c" x="146" y="18" rx="2" ry="2"/><rect class="c" x="146" y="34" rx="2" ry="2"/><rect class="c" x="146" y="50" rx="2" ry="2"/><rect class="c" x="146" y="66" rx="2" ry="2"/><rect class="c" x="146" y="82" rx="2" ry="2"/><rect class="c" x="146" y="98" rx="2" ry="2"/><rect class="c" x="162" y="2" rx="2" ry="2"/><rect class="c" x="162" y="18" rx="2" ry="2"/><rect class="c" x="162" y="34" rx="2" ry="2"/><rect class="c" x="162" y="50" rx="2" ry="2"/><rect class="c" x="162" y="66" rx="2" ry="2"/><rect class="c" x="162" y="82" rx="2" ry="2"/><rect class="c" x="162" y="98" rx="2" ry="2"/><rect class="c" x="178" y="2" rx="2" ry="2"/><rect class="c" x="178" y="18" rx="2" ry="2"/><rect class="c" x="178" y="34" rx="2" ry="2"/><rect class="c" x="178" y="50" rx="2" ry="2"/><rect class="c" x="178" y="66" rx="2" ry="2"/><rect class="c" x="178" y="82" rx="2" ry="2"/><rect class="c" x="178" y="98" rx="2" ry="2"/><rect class="c" x="194" y="2" rx="2" ry="2"/><rect class="c" x="194" y="18" rx="2" ry="2"/><rect class="c" x="194" y="34" rx="2" ry="2"/><rect class="c" x="194" y="50" rx="2" ry="2"/><rect class="c" x="194" y="66" rx="2" ry="2"/><rect class="c" x="194" y="82" rx="2" ry="2"/><rect class="c" x="194" y="98" rx="2" ry="2"/><rect class="c" x="210" y="2" rx="2" ry="2"/><rect class="c" x="210" y="18" rx="2" ry="2"/><rect class="c" x="210" y="34" rx="2" ry="2"/><rect class="c" x="210" y="50" rx="2" ry="2"/><rect class="c" x="210" y="66" rx="2" ry="2"/><rect class="c" x="210" y="82" rx="2" ry="2"/><rect class="c" x="210" y="98" rx="2" ry="2"/><rect class="c" x="226" y="2" rx="2" ry="2"/><rect class="c" x="226" y="18" rx="2" ry="2"/><rect class="c" x="226" y="34" rx="2" ry="2"/><rect class="c" x="226" y="50" rx="2" ry="2"/><rect class="c" x="226" y="66" rx="2" ry="2"/><rect class="c c0" x="226" y="82" rx="2" ry="2"/><rect class="c c1" x="226" y="98" rx="2" ry="2"/><rect class="c" x="242" y="2" rx="2" ry="2"/><rect class="c" x="242" y="18" rx="2" ry="2"/><rect class="c" x="242" y="34" rx="2" ry="2"/><rect class="c" x="242" y="50" rx="2" ry="2"/><rect class="c" x="242" y="66" rx="2" ry="2"/><rect class="c" x="242" y="82" rx="2" ry="2"/><rect class="c" x="242" y="98" rx="2" ry="2"/><rect class="c c2" x="258" y="2" rx="2" ry="2"/><rect class="c c3" x="258" y="18" rx="2" ry="2"/><rect class="c" x="258" y="34" rx="2" ry="2"/><rect class="c" x="258" y="50" rx="2" ry="2"/><rect class="c" x="258" y="66" rx="2" ry="2"/><rect class="c" x="258" y="82" rx="2" ry="2"/><rect class="c" x="258" y="98" rx="2" ry="2"/><rect class="c" x="274" y="2" rx="2" ry="2"/><rect class="c" x="274" y="18" rx="2" ry="2"/><rect class="c" x="274" y="34" rx="2" ry="2"/><rect class="c" x="274" y="50" rx="2" ry="2"/><rect class="c" x="274" y="66" rx="2" ry="2"/><rect class="c" x="274" y="82" rx="2" ry="2"/><rect class="c" x="274" y="98" rx="2" ry="2"/><rect class="c" x="290" y="2" rx="2" ry="2"/><rect class="c" x="290" y="18" rx="2" ry="2"/><rect class="c" x="290" y="34" rx="2" ry="2"/><rect class="c" x="290" y="50" rx="2" ry="2"/><rect class="c" x="290" y="66" rx="2" ry="2"/><rect class="c" x="290" y="82" rx="2" ry="2"/><rect class="c" x="290" y="98" rx="2" ry="2"/><rect class="c" x="306" y="2" rx="2" ry="2"/><rect class="c" x="306" y="18" rx="2" ry="2"/><rect class="c" x="306" y="34" rx="2" ry="2"/><rect class="c" x="306" y="50" rx="2" ry="2"/><rect class="c" x="306" y="66" rx="2" ry="2"/><rect class="c" x="306" y="82" rx="2" ry="2"/><rect class="c" x="306" y="98" rx="2" ry="2"/><rect class="c" x="322" y="2" rx="2" ry="2"/><rect class="c" x="322" y="18" rx="2" ry="2"/><rect class="c" x="322" y="34" rx="2" ry="2"/><rect class="c" x="322" y="50" rx="2" ry="2"/><rect class="c" x="322" y="66" rx="2" ry="2"/><rect class="c" x="322" y="82" rx="2" ry="2"/><rect class="c" x="322" y="98" rx="2" ry="2"/><rect class="c" x="338" y="2" rx="2" ry="2"/><rect class="c" x="338" y="18" rx="2" ry="2"/><rect class="c" x="338" y="34" rx="2" ry="2"/><rect class="c" x="338" y="50" rx="2" ry="2"/><rect class="c c4" x="338" y="66" rx="2" ry="2"/><rect class="c" x="338" y="82" rx="2" ry="2"/><rect class="c" x="338" y="98" rx="2" ry="2"/><rect class="c" x="354" y="2" rx="2" ry="2"/><rect class="c" x="354" y="18" rx="2" ry="2"/><rect class="c" x="354" y="34" rx="2" ry="2"/><rect class="c" x="354" y="50" rx="2" ry="2"/><rect class="c" x="354" y="66" rx="2" ry="2"/><rect class="c" x="354" y="82" rx="2" ry="2"/><rect class="c" x="354" y="98" rx="2" ry="2"/><rect class="c" x="370" y="2" rx="2" ry="2"/><rect class="c" x="370" y="18" rx="2" ry="2"/><rect class="c" x="370" y="34" rx="2" ry="2"/><rect class="c" x="370" y="50" rx="2" ry="2"/><rect class="c" x="370" y="66" rx="2" ry="2"/><rect class="c" x="370" y="82" rx="2" ry="2"/><rect class="c" x="370" y="98" rx="2" ry="2"/><rect class="c" x="386" y="2" rx="2" ry="2"/><rect class="c" x="386" y="18" rx="2" ry="2"/><rect class="c" x="386" y="34" rx="2" ry="2"/><rect class="c" x="386" y="50" rx="2" ry="2"/><rect class="c" x="386" y="66" rx="2" ry="2"/><rect class="c" x="386" y="82" rx="2" ry="2"/><rect class="c" x="386" y="98" rx="2" ry="2"/><rect class="c" x="402" y="2" rx="2" ry="2"/><rect class="c" x="402" y="18" rx="2" ry="2"/><rect class="c" x="402" y="34" rx="2" ry="2"/><rect class="c" x="402" y="50" rx="2" ry="2"/><rect class="c" x="402" y="66" rx="2" ry="2"/><rect class="c" x="402" y="82" rx="2" ry="2"/><rect class="c" x="402" y="98" rx="2" ry="2"/><rect class="c" x="418" y="2" rx="2" ry="2"/><rect class="c" x="418" y="18" rx="2" ry="2"/><rect class="c" x="418" y="34" rx="2" ry="2"/><rect class="c" x="418" y="50" rx="2" ry="2"/><rect class="c" x="418" y="66" rx="2" ry="2"/><rect class="c" x="418" y="82" rx="2" ry="2"/><rect class="c" x="418" y="98" rx="2" ry="2"/><rect class="c" x="434" y="2" rx="2" ry="2"/><rect class="c" x="434" y="18" rx="2" ry="2"/><rect class="c" x="434" y="34" rx="2" ry="2"/><rect class="c" x="434" y="50" rx="2" ry="2"/><rect class="c" x="434" y="66" rx="2" ry="2"/><rect class="c" x="434" y="82" rx="2" ry="2"/><rect class="c" x="434" y="98" rx="2" ry="2"/><rect class="c" x="450" y="2" rx="2" ry="2"/><rect class="c" x="450" y="18" rx="2" ry="2"/><rect class="c" x="450" y="34" rx="2" ry="2"/><rect class="c" x="450" y="50" rx="2" ry="2"/><rect class="c" x="450" y="66" rx="2" ry="2"/><rect class="c" x="450" y="82" rx="2" ry="2"/><rect class="c" x="450" y="98" rx="2" ry="2"/><rect class="c" x="466" y="2" rx="2" ry="2"/><rect class="c" x="466" y="18" rx="2" ry="2"/><rect class="c" x="466" y="34" rx="2" ry="2"/><rect class="c" x="466" y="50" rx="2" ry="2"/><rect class="c c5" x="466" y="66" rx="2" ry="2"/><rect class="c" x="466" y="82" rx="2" ry="2"/><rect class="c" x="466" y="98" rx="2" ry="2"/><rect class="c" x="482" y="2" rx="2" ry="2"/><rect class="c" x="482" y="18" rx="2" ry="2"/><rect class="c" x="482" y="34" rx="2" ry="2"/><rect class="c c6" x="482" y="50" rx="2" ry="2"/><rect class="c" x="482" y="66" rx="2" ry="2"/><rect class="c" x="482" y="82" rx="2" ry="2"/><rect class="c" x="482" y="98" rx="2" ry="2"/><rect class="c" x="498" y="2" rx="2" ry="2"/><rect class="c" x="498" y="18" rx="2" ry="2"/><rect class="c" x="498" y="34" rx="2" ry="2"/><rect class="c" x="498" y="50" rx="2" ry="2"/><rect class="c" x="498" y="66" rx="2" ry="2"/><rect class="c" x="498" y="82" rx="2" ry="2"/><rect class="c" x="498" y="98" rx="2" ry="2"/><rect class="c" x="514" y="2" rx="2" ry="2"/><rect class="c" x="514" y="18" rx="2" ry="2"/><rect class="c" x="514" y="34" rx="2" ry="2"/><rect class="c" x="514" y="50" rx="2" ry="2"/><rect class="c" x="514" y="66" rx="2" ry="2"/><rect class="c" x="514" y="82" rx="2" ry="2"/><rect class="c" x="514" y="98" rx="2" ry="2"/><rect class="c" x="530" y="2" rx="2" ry="2"/><rect class="c" x="530" y="18" rx="2" ry="2"/><rect class="c" x="530" y="34" rx="2" ry="2"/><rect class="c" x="530" y="50" rx="2" ry="2"/><rect class="c" x="530" y="66" rx="2" ry="2"/><rect class="c" x="530" y="82" rx="2" ry="2"/><rect class="c" x="530" y="98" rx="2" ry="2"/><rect class="c" x="546" y="2" rx="2" ry="2"/><rect class="c" x="546" y="18" rx="2" ry="2"/><rect class="c" x="546" y="34" rx="2" ry="2"/><rect class="c" x="546" y="50" rx="2" ry="2"/><rect class="c" x="546" y="66" rx="2" ry="2"/><rect class="c" x="546" y="82" rx="2" ry="2"/><rect class="c" x="546" y="98" rx="2" ry="2"/><rect class="c" x="562" y="2" rx="2" ry="2"/><rect class="c" x="562" y="18" rx="2" ry="2"/><rect class="c" x="562" y="34" rx="2" ry="2"/><rect class="c" x="562" y="50" rx="2" ry="2"/><rect class="c" x="562" y="66" rx="2" ry="2"/><rect class="c" x="562" y="82" rx="2" ry="2"/><rect class="c" x="562" y="98" rx="2" ry="2"/><rect class="c" x="578" y="2" rx="2" ry="2"/><rect class="c" x="578" y="18" rx="2" ry="2"/><rect class="c" x="578" y="34" rx="2" ry="2"/><rect class="c" x="578" y="50" rx="2" ry="2"/><rect class="c" x="578" y="66" rx="2" ry="2"/><rect class="c" x="578" y="82" rx="2" ry="2"/><rect class="c" x="578" y="98" rx="2" ry="2"/><rect class="c" x="594" y="2" rx="2" ry="2"/><rect class="c" x="594" y="18" rx="2" ry="2"/><rect class="c" x="594" y="34" rx="2" ry="2"/><rect class="c" x="594" y="50" rx="2" ry="2"/><rect class="c" x="594" y="66" rx="2" ry="2"/><rect class="c" x="594" y="82" rx="2" ry="2"/><rect class="c" x="594" y="98" rx="2" ry="2"/><rect class="c" x="610" y="2" rx="2" ry="2"/><rect class="c" x="610" y="18" rx="2" ry="2"/><rect class="c" x="610" y="34" rx="2" ry="2"/><rect class="c" x="610" y="50" rx="2" ry="2"/><rect class="c" x="610" y="66" rx="2" ry="2"/><rect class="c" x="610" y="82" rx="2" ry="2"/><rect class="c" x="610" y="98" rx="2" ry="2"/><rect class="c" x="626" y="2" rx="2" ry="2"/><rect class="c" x="626" y="18" rx="2" ry="2"/><rect class="c" x="626" y="34" rx="2" ry="2"/><rect class="c" x="626" y="50" rx="2" ry="2"/><rect class="c" x="626" y="66" rx="2" ry="2"/><rect class="c" x="626" y="82" rx="2" ry="2"/><rect class="c" x="626" y="98" rx="2" ry="2"/><rect class="c" x="642" y="2" rx="2" ry="2"/><rect class="c" x="642" y="18" rx="2" ry="2"/><rect class="c" x="642" y="34" rx="2" ry="2"/><rect class="c" x="642" y="50" rx="2" ry="2"/><rect class="c c7" x="642" y="66" rx="2" ry="2"/><rect class="c" x="642" y="82" rx="2" ry="2"/><rect class="c c8" x="642" y="98" rx="2" ry="2"/><rect class="c c9" x="658" y="2" rx="2" ry="2"/><rect class="c" x="658" y="18" rx="2" ry="2"/><rect class="c" x="658" y="34" rx="2" ry="2"/><rect class="c ca" x="658" y="50" rx="2" ry="2"/><rect class="c" x="658" y="66" rx="2" ry="2"/><rect class="c" x="658" y="82" rx="2" ry="2"/><rect class="c" x="658" y="98" rx="2" ry="2"/><rect class="c" x="674" y="2" rx="2" ry="2"/><rect class="c cb" x="674" y="18" rx="2" ry="2"/><rect class="c" x="674" y="34" rx="2" ry="2"/><rect class="c" x="674" y="50" rx="2" ry="2"/><rect class="c" x="674" y="66" rx="2" ry="2"/><rect class="c cc" x="674" y="82" rx="2" ry="2"/><rect class="c cd" x="674" y="98" rx="2" ry="2"/><rect class="c" x="690" y="2" rx="2" ry="2"/><rect class="c" x="690" y="18" rx="2" ry="2"/><rect class="c" x="690" y="34" rx="2" ry="2"/><rect class="c" x="690" y="50" rx="2" ry="2"/><rect class="c" x="690" y="66" rx="2" ry="2"/><rect class="c" x="690" y="82" rx="2" ry="2"/><rect class="c" x="690" y="98" rx="2" ry="2"/><rect class="c" x="706" y="2" rx="2" ry="2"/><rect class="c" x="706" y="18" rx="2" ry="2"/><rect class="c ce" x="706" y="34" rx="2" ry="2"/><rect class="c cf" x="706" y="50" rx="2" ry="2"/><rect class="c cg" x="706" y="66" rx="2" ry="2"/><rect class="c ch" x="706" y="82" rx="2" ry="2"/><rect class="c ci" x="706" y="98" rx="2" ry="2"/><rect class="c cj" x="722" y="2" rx="2" ry="2"/><rect class="c ck" x="722" y="18" rx="2" ry="2"/><rect class="c cl" x="722" y="34" rx="2" ry="2"/><rect class="c cm" x="722" y="50" rx="2" ry="2"/><rect class="c cn" x="722" y="66" rx="2" ry="2"/><rect class="c co" x="722" y="82" rx="2" ry="2"/><rect class="c cp" x="722" y="98" rx="2" ry="2"/><rect class="c cq" x="738" y="2" rx="2" ry="2"/><rect class="c cr" x="738" y="18" rx="2" ry="2"/><rect class="c cs" x="738" y="34" rx="2" ry="2"/><rect class="c ct" x="738" y="50" rx="2" ry="2"/><rect class="c cu" x="738" y="66" rx="2" ry="2"/><rect class="c cv" x="738" y="82" rx="2" ry="2"/><rect class="c cw" x="738" y="98" rx="2" ry="2"/><rect class="c cx" x="754" y="2" rx="2" ry="2"/><rect class="c cy" x="754" y="18" rx="2" ry="2"/><rect class="c cz" x="754" y="34" rx="2" ry="2"/><rect class="c c10" x="754" y="50" rx="2" ry="2"/><rect class="c c11" x="754" y="66" rx="2" ry="2"/><rect class="c c12" x="754" y="82" rx="2" ry="2"/><rect class="c c13" x="754" y="98" rx="2" ry="2"/><rect class="c c14" x="770" y="2" rx="2" ry="2"/><rect class="c c15" x="770" y="18" rx="2" ry="2"/><rect class="c c16" x="770" y="34" rx="2" ry="2"/><rect class="c c17" x="770" y="50" rx="2" ry="2"/><rect class="c c18" x="770" y="66" rx="2" ry="2"/><rect class="c c19" x="770" y="82" rx="2" ry="2"/><rect class="c c1a" x="770" y="98" rx="2" ry="2"/><rect class="c c1b" x="786" y="2" rx="2" ry="2"/><rect class="c c1c" x="786" y="18" rx="2" ry="2"/><rect class="c c1d" x="786" y="34" rx="2" ry="2"/><rect class="c c1e" x="786" y="50" rx="2" ry="2"/><rect class="c c1f" x="786" y="66" rx="2" ry="2"/><rect class="c c1g" x="786" y="82" rx="2" ry="2"/><rect class="c c1h" x="786" y="98" rx="2" ry="2"/><rect class="c c1i" x="802" y="2" rx="2" ry="2"/><rect class="c c1j" x="802" y="18" rx="2" ry="2"/><rect class="c c1k" x="802" y="34" rx="2" ry="2"/><rect class="c c1l" x="802" y="50" rx="2" ry="2"/><rect class="c c1m" x="802" y="66" rx="2" ry="2"/><rect class="c c1n" x="802" y="82" rx="2" ry="2"/><rect class="c c1o" x="802" y="98" rx="2" ry="2"/><rect class="c c1p" x="818" y="2" rx="2" ry="2"/><rect class="c c1q" x="818" y="18" rx="2" ry="2"/><rect class="c c1r" x="818" y="34" rx="2" ry="2"/><rect class="c c1s" x="818" y="50" rx="2" ry="2"/><rect class="c c1t" x="818" y="66" rx="2" ry="2"/><rect class="c c1u" x="818" y="82" rx="2" ry="2"/><rect class="c c1v" x="818" y="98" rx="2" ry="2"/><rect class="c c1w" x="834" y="2" rx="2" ry="2"/><rect class="u u0" height="12" width="774.9" x="0.0" y="144"/><rect class="u u1" height="12" width="25.2" x="774.3" y="144"/><rect class="u u2" height="12" width="37.5" x="798.8" y="144"/><rect class="u u3" height="12" width="12.9" x="835.7" y="144"/><rect class="s s0" x="0.8" y="0.8" width="14.4" height="14.4" rx="4.5" ry="4.5"/><rect class="s s1" x="1.8" y="1.8" width="12.3" height="12.3" rx="4.1" ry="4.1"/><rect class="s s2" x="2.6" y="2.6" width="10.8" height="10.8" rx="3.6" ry="3.6"/><rect class="s s3" x="3.0" y="3.0" width="9.9" height="9.9" rx="3.3" ry="3.3"/></svg>