<svg viewBox="-16 -32 880 192" width="880" height="192" xmlns="http://www.w3.org/2000/svg"><desc>Generated with https://github.com/Platane/snk</desc><style>:root{--cb:#1b1f230a;--cs:purple;--ce:#161b22;--c0:#161b22;--c1:#01311f;--c2:#034525;--c3:#0f6d31;--c4:#00c647}.c{shape-rendering:geometricPrecision;fill:var(--ce);stroke-width:1px;stroke:var(--cb);animation:none 29700ms linear infinite;width:12px;height:12px}@keyframes c0{6.72%{fill:var(--c1)}6.74%,100%{fill:var(--ce)}}.c.c0{fill:var(--c1);animation-name:c0}@keyframes c1{55.55%{fill:var(--c2)}55.57%,100%{fill:var(--ce)}}.c.c1{fill:var(--c2);animation-name:c1}@keyframes c2{4.37%{fill:var(--c1)}4.39%,100%{fill:var(--ce)}}.c.c2{fill:var(--c1);animation-name:c2}@keyframes c3{4.7%{fill:var(--c1)}4.72%,100%{fill:var(--ce)}}.c.c3{fill:var(--c1);animation-name:c3}@keyframes c4{52.52%{fill:var(--c2)}52.54%,100%{fill:var(--ce)}}.c.c4{fill:var(--c2);animation-name:c4}@keyframes c5{61.27%{fill:var(--c4)}61.29%,100%{fill:var(--ce)}}.c.c5{fill:var(--c4);animation-name:c5}@keyframes c6{12.78%{fill:var(--c1)}12.8%,100%{fill:var(--ce)}}.c.c6{fill:var(--c1);animation-name:c6}@keyframes c7{17.16%{fill:var(--c1)}17.18%,100%{fill:var(--ce)}}.c.c7{fill:var(--c1);animation-name:c7}@keyframes c8{45.44%{fill:var(--c2)}45.46%,100%{fill:var(--ce)}}.c.c8{fill:var(--c2);animation-name:c8}@keyframes c9{86.86%{fill:var(--c4)}86.88%,100%{fill:var(--ce)}}.c.c9{fill:var(--c4);animation-name:c9}@keyframes ca{16.49%{fill:var(--c1)}16.51%,100%{fill:var(--ce)}}.c.ca{fill:var(--c1);animation-name:ca}@keyframes cb{20.87%{fill:var(--c1)}20.89%,100%{fill:var(--ce)}}.c.cb{fill:var(--c1);animation-name:cb}@keyframes cc{18.17%{fill:var(--c1)}18.19%,100%{fill:var(--ce)}}.c.cc{fill:var(--c1);animation-name:cc}@keyframes cd{18.51%{fill:var(--c1)}18.53%,100%{fill:var(--ce)}}.c.cd{fill:var(--c1);animation-name:cd}@keyframes ce{66.99%{fill:var(--c4)}67.01%,100%{fill:var(--ce)}}.c.ce{fill:var(--c4);animation-name:ce}@keyframes cf{66.66%{fill:var(--c4)}66.68%,100%{fill:var(--ce)}}.c.cf{fill:var(--c4);animation-name:cf}@keyframes cg{42.75%{fill:var(--c2)}42.77%,100%{fill:var(--ce)}}.c.cg{fill:var(--c2);animation-name:cg}@keyframes ch{42.41%{fill:var(--c2)}42.43%,100%{fill:var(--ce)}}.c.ch{fill:var(--c2);animation-name:ch}@keyframes ci{44.1%{fill:var(--c2)}44.12%,100%{fill:var(--ce)}}.c.ci{fill:var(--c2);animation-name:ci}@keyframes cj{22.21%{fill:var(--c2)}22.23%,100%{fill:var(--ce)}}.c.cj{fill:var(--c2);animation-name:cj}@keyframes ck{31.98%{fill:var(--c2)}32%,100%{fill:var(--ce)}}.c.ck{fill:var(--c2);animation-name:ck}@keyframes cl{31.64%{fill:var(--c2)}31.66%,100%{fill:var(--ce)}}.c.cl{fill:var(--c2);animation-name:cl}@keyframes cm{34%{fill:var(--c2)}34.02%,100%{fill:var(--ce)}}.c.cm{fill:var(--c2);animation-name:cm}@keyframes cn{34.33%{fill:var(--c2)}34.35%,100%{fill:var(--ce)}}.c.cn{fill:var(--c2);animation-name:cn}@keyframes co{42.08%{fill:var(--c2)}42.1%,100%{fill:var(--ce)}}.c.co{fill:var(--c2);animation-name:co}@keyframes cp{43.76%{fill:var(--c2)}43.78%,100%{fill:var(--ce)}}.c.cp{fill:var(--c2);animation-name:cp}@keyframes cq{22.55%{fill:var(--c2)}22.57%,100%{fill:var(--ce)}}.c.cq{fill:var(--c2);animation-name:cq}@keyframes cr{68%{fill:var(--c4)}68.02%,100%{fill:var(--ce)}}.c.cr{fill:var(--c4);animation-name:cr}@keyframes cs{31.3%{fill:var(--c2)}31.32%,100%{fill:var(--ce)}}.c.cs{fill:var(--c2);animation-name:cs}@keyframes ct{30.97%{fill:var(--c2)}30.99%,100%{fill:var(--ce)}}.c.ct{fill:var(--c2);animation-name:ct}@keyframes cu{34.67%{fill:var(--c2)}34.69%,100%{fill:var(--ce)}}.c.cu{fill:var(--c2);animation-name:cu}@keyframes cv{41.74%{fill:var(--c2)}41.76%,100%{fill:var(--ce)}}.c.cv{fill:var(--c2);animation-name:cv}@keyframes cw{41.4%{fill:var(--c2)}41.42%,100%{fill:var(--ce)}}.c.cw{fill:var(--c2);animation-name:cw}@keyframes cx{22.89%{fill:var(--c2)}22.91%,100%{fill:var(--ce)}}.c.cx{fill:var(--c2);animation-name:cx}@keyframes cy{27.26%{fill:var(--c2)}27.28%,100%{fill:var(--ce)}}.c.cy{fill:var(--c2);animation-name:cy}@keyframes cz{27.6%{fill:var(--c2)}27.62%,100%{fill:var(--ce)}}.c.cz{fill:var(--c2);animation-name:cz}@keyframes c10{30.63%{fill:var(--c2)}30.65%,100%{fill:var(--ce)}}.c.c10{fill:var(--c2);animation-name:c10}@keyframes c11{35.01%{fill:var(--c2)}35.03%,100%{fill:var(--ce)}}.c.c11{fill:var(--c2);animation-name:c11}@keyframes c12{35.34%{fill:var(--c2)}35.36%,100%{fill:var(--ce)}}.c.c12{fill:var(--c2);animation-name:c12}@keyframes c13{41.07%{fill:var(--c2)}41.09%,100%{fill:var(--ce)}}.c.c13{fill:var(--c2);animation-name:c13}@keyframes c14{23.22%{fill:var(--c2)}23.24%,100%{fill:var(--ce)}}.c.c14{fill:var(--c2);animation-name:c14}@keyframes c15{26.93%{fill:var(--c2)}26.95%,100%{fill:var(--ce)}}.c.c15{fill:var(--c2);animation-name:c15}@keyframes c16{27.94%{fill:var(--c2)}27.96%,100%{fill:var(--ce)}}.c.c16{fill:var(--c2);animation-name:c16}@keyframes c17{30.29%{fill:var(--c2)}30.31%,100%{fill:var(--ce)}}.c.c17{fill:var(--c2);animation-name:c17}@keyframes c18{69.69%{fill:var(--c4)}69.71%,100%{fill:var(--ce)}}.c.c18{fill:var(--c4);animation-name:c18}@keyframes c19{35.68%{fill:var(--c2)}35.7%,100%{fill:var(--ce)}}.c.c19{fill:var(--c2);animation-name:c19}@keyframes c1a{40.73%{fill:var(--c2)}40.75%,100%{fill:var(--ce)}}.c.c1a{fill:var(--c2);animation-name:c1a}@keyframes c1b{23.56%{fill:var(--c2)}23.58%,100%{fill:var(--ce)}}.c.c1b{fill:var(--c2);animation-name:c1b}@keyframes c1c{26.59%{fill:var(--c2)}26.61%,100%{fill:var(--ce)}}.c.c1c{fill:var(--c2);animation-name:c1c}@keyframes c1d{28.27%{fill:var(--c2)}28.29%,100%{fill:var(--ce)}}.c.c1d{fill:var(--c2);animation-name:c1d}@keyframes c1e{29.96%{fill:var(--c2)}29.98%,100%{fill:var(--ce)}}.c.c1e{fill:var(--c2);animation-name:c1e}@keyframes c1f{37.7%{fill:var(--c2)}37.72%,100%{fill:var(--ce)}}.c.c1f{fill:var(--c2);animation-name:c1f}@keyframes c1g{36.02%{fill:var(--c2)}36.04%,100%{fill:var(--ce)}}.c.c1g{fill:var(--c2);animation-name:c1g}@keyframes c1h{38.37%{fill:var(--c2)}38.39%,100%{fill:var(--ce)}}.c.c1h{fill:var(--c2);animation-name:c1h}@keyframes c1i{23.9%{fill:var(--c2)}23.92%,100%{fill:var(--ce)}}.c.c1i{fill:var(--c2);animation-name:c1i}@keyframes c1j{26.25%{fill:var(--c2)}26.27%,100%{fill:var(--ce)}}.c.c1j{fill:var(--c2);animation-name:c1j}@keyframes c1k{28.61%{fill:var(--c2)}28.63%,100%{fill:var(--ce)}}.c.c1k{fill:var(--c2);animation-name:c1k}@keyframes c1l{29.62%{fill:var(--c2)}29.64%,100%{fill:var(--ce)}}.c.c1l{fill:var(--c2);animation-name:c1l}@keyframes c1m{37.36%{fill:var(--c2)}37.38%,100%{fill:var(--ce)}}.c.c1m{fill:var(--c2);animation-name:c1m}@keyframes c1n{36.35%{fill:var(--c2)}36.37%,100%{fill:var(--ce)}}.c.c1n{fill:var(--c2);animation-name:c1n}@keyframes c1o{38.71%{fill:var(--c2)}38.73%,100%{fill:var(--ce)}}.c.c1o{fill:var(--c2);animation-name:c1o}@keyframes c1p{24.23%{fill:var(--c2)}24.25%,100%{fill:var(--ce)}}.c.c1p{fill:var(--c2);animation-name:c1p}@keyframes c1q{25.92%{fill:var(--c2)}25.94%,100%{fill:var(--ce)}}.c.c1q{fill:var(--c2);animation-name:c1q}@keyframes c1r{28.95%{fill:var(--c2)}28.97%,100%{fill:var(--ce)}}.c.c1r{fill:var(--c2);animation-name:c1r}@keyframes c1s{29.28%{fill:var(--c2)}29.3%,100%{fill:var(--ce)}}.c.c1s{fill:var(--c2);animation-name:c1s}@keyframes c1t{37.03%{fill:var(--c2)}37.05%,100%{fill:var(--ce)}}.c.c1t{fill:var(--c2);animation-name:c1t}@keyframes c1u{36.69%{fill:var(--c2)}36.71%,100%{fill:var(--ce)}}.c.c1u{fill:var(--c2);animation-name:c1u}@keyframes c1v{39.05%{fill:var(--c2)}39.07%,100%{fill:var(--ce)}}.c.c1v{fill:var(--c2);animation-name:c1v}@keyframes c1w{24.57%{fill:var(--c2)}24.59%,100%{fill:var(--ce)}}.c.c1w{fill:var(--c2);animation-name:c1w}@keyframes c1x{76.08%{fill:var(--c4)}76.1%,100%{fill:var(--ce)}}.c.c1x{fill:var(--c4);animation-name:c1x}@keyframes c1y{76.42%{fill:var(--c4)}76.44%,100%{fill:var(--ce)}}.c.c1y{fill:var(--c4);animation-name:c1y}@keyframes c1z{78.1%{fill:var(--c4)}78.12%,100%{fill:var(--ce)}}.c.c1z{fill:var(--c4);animation-name:c1z}@keyframes c20{71.03%{fill:var(--c4)}71.05%,100%{fill:var(--ce)}}.c.c20{fill:var(--c4);animation-name:c20}@keyframes c21{78.78%{fill:var(--c4)}78.8%,100%{fill:var(--ce)}}.c.c21{fill:var(--c4);animation-name:c21}@keyframes c22{81.13%{fill:var(--c4)}81.15%,100%{fill:var(--ce)}}.c.c22{fill:var(--c4);animation-name:c22}@keyframes c23{75.41%{fill:var(--c4)}75.43%,100%{fill:var(--ce)}}.c.c23{fill:var(--c4);animation-name:c23}@keyframes c24{75.75%{fill:var(--c4)}75.77%,100%{fill:var(--ce)}}.c.c24{fill:var(--c4);animation-name:c24}@keyframes c25{76.76%{fill:var(--c4)}76.78%,100%{fill:var(--ce)}}.c.c25{fill:var(--c4);animation-name:c25}@keyframes c26{77.77%{fill:var(--c4)}77.79%,100%{fill:var(--ce)}}.c.c26{fill:var(--c4);animation-name:c26}@keyframes c27{71.37%{fill:var(--c4)}71.39%,100%{fill:var(--ce)}}.c.c27{fill:var(--c4);animation-name:c27}@keyframes c28{79.11%{fill:var(--c4)}79.13%,100%{fill:var(--ce)}}.c.c28{fill:var(--c4);animation-name:c28}@keyframes c29{80.8%{fill:var(--c4)}80.82%,100%{fill:var(--ce)}}.c.c29{fill:var(--c4);animation-name:c29}@keyframes c2a{75.07%{fill:var(--c4)}75.09%,100%{fill:var(--ce)}}.c.c2a{fill:var(--c4);animation-name:c2a}@keyframes c2b{74.74%{fill:var(--c4)}74.76%,100%{fill:var(--ce)}}.c.c2b{fill:var(--c4);animation-name:c2b}@keyframes c2c{77.09%{fill:var(--c4)}77.11%,100%{fill:var(--ce)}}.c.c2c{fill:var(--c4);animation-name:c2c}@keyframes c2d{77.43%{fill:var(--c4)}77.45%,100%{fill:var(--ce)}}.c.c2d{fill:var(--c4);animation-name:c2d}@keyframes c2e{71.71%{fill:var(--c4)}71.73%,100%{fill:var(--ce)}}.c.c2e{fill:var(--c4);animation-name:c2e}@keyframes c2f{79.45%{fill:var(--c4)}79.47%,100%{fill:var(--ce)}}.c.c2f{fill:var(--c4);animation-name:c2f}@keyframes c2g{80.46%{fill:var(--c4)}80.48%,100%{fill:var(--ce)}}.c.c2g{fill:var(--c4);animation-name:c2g}@keyframes c2h{73.39%{fill:var(--c4)}73.41%,100%{fill:var(--ce)}}.c.c2h{fill:var(--c4);animation-name:c2h}@keyframes c2i{73.05%{fill:var(--c4)}73.07%,100%{fill:var(--ce)}}.c.c2i{fill:var(--c4);animation-name:c2i}@keyframes c2j{72.72%{fill:var(--c4)}72.74%,100%{fill:var(--ce)}}.c.c2j{fill:var(--c4);animation-name:c2j}@keyframes c2k{72.38%{fill:var(--c4)}72.4%,100%{fill:var(--ce)}}.c.c2k{fill:var(--c4);animation-name:c2k}@keyframes c2l{72.04%{fill:var(--c4)}72.06%,100%{fill:var(--ce)}}.c.c2l{fill:var(--c4);animation-name:c2l}@keyframes c2m{79.79%{fill:var(--c4)}79.81%,100%{fill:var(--ce)}}.c.c2m{fill:var(--c4);animation-name:c2m}@keyframes c2n{80.12%{fill:var(--c4)}80.14%,100%{fill:var(--ce)}}.c.c2n{fill:var(--c4);animation-name:c2n}@keyframes c2o{73.73%{fill:var(--c4)}73.75%,100%{fill:var(--ce)}}.c.c2o{fill:var(--c4);animation-name:c2o}.u{transform-origin:0 0;transform:scale(0,1);animation:none linear 29700ms infinite}@keyframes u0{4.37%{transform:scale(0.000,1)}4.39%,4.7%{transform:scale(0.111,1)}4.72%,6.72%{transform:scale(0.222,1)}6.74%,12.78%{transform:scale(0.333,1)}12.8%,16.49%{transform:scale(0.444,1)}16.51%,17.16%{transform:scale(0.556,1)}17.18%,18.17%{transform:scale(0.667,1)}18.19%,18.51%{transform:scale(0.778,1)}18.53%,20.87%{transform:scale(0.889,1)}20.89%,100%{transform:scale(1.000,1)}}.u.u0{fill:var(--c1);animation-name:u0;transform-origin:0.0px 0}@keyframes u1{22.21%{transform:scale(0.000,1)}22.23%,22.55%{transform:scale(0.019,1)}22.57%,22.89%{transform:scale(0.037,1)}22.91%,23.22%{transform:scale(0.056,1)}23.24%,23.56%{transform:scale(0.074,1)}23.58%,23.9%{transform:scale(0.093,1)}23.92%,24.23%{transform:scale(0.111,1)}24.25%,24.57%{transform:scale(0.130,1)}24.59%,25.92%{transform:scale(0.148,1)}25.94%,26.25%{transform:scale(0.167,1)}26.27%,26.59%{transform:scale(0.185,1)}26.61%,26.93%{transform:scale(0.204,1)}26.95%,27.26%{transform:scale(0.222,1)}27.28%,27.6%{transform:scale(0.241,1)}27.62%,27.94%{transform:scale(0.259,1)}27.96%,28.27%{transform:scale(0.278,1)}28.29%,28.61%{transform:scale(0.296,1)}28.63%,28.95%{transform:scale(0.315,1)}28.97%,29.28%{transform:scale(0.333,1)}29.3%,29.62%{transform:scale(0.352,1)}29.64%,29.96%{transform:scale(0.370,1)}29.98%,30.29%{transform:scale(0.389,1)}30.31%,30.63%{transform:scale(0.407,1)}30.65%,30.97%{transform:scale(0.426,1)}30.99%,31.3%{transform:scale(0.444,1)}31.32%,31.64%{transform:scale(0.463,1)}31.66%,31.98%{transform:scale(0.481,1)}32%,34%{transform:scale(0.500,1)}34.02%,34.33%{transform:scale(0.519,1)}34.35%,34.67%{transform:scale(0.537,1)}34.69%,35.01%{transform:scale(0.556,1)}35.03%,35.34%{transform:scale(0.574,1)}35.36%,35.68%{transform:scale(0.593,1)}35.7%,36.02%{transform:scale(0.611,1)}36.04%,36.35%{transform:scale(0.630,1)}36.37%,36.69%{transform:scale(0.648,1)}36.71%,37.03%{transform:scale(0.667,1)}37.05%,37.36%{transform:scale(0.685,1)}37.38%,37.7%{transform:scale(0.704,1)}37.72%,38.37%{transform:scale(0.722,1)}38.39%,38.71%{transform:scale(0.741,1)}38.73%,39.05%{transform:scale(0.759,1)}39.07%,40.73%{transform:scale(0.778,1)}40.75%,41.07%{transform:scale(0.796,1)}41.09%,41.4%{transform:scale(0.815,1)}41.42%,41.74%{transform:scale(0.833,1)}41.76%,42.08%{transform:scale(0.852,1)}42.1%,42.41%{transform:scale(0.870,1)}42.43%,42.75%{transform:scale(0.889,1)}42.77%,43.76%{transform:scale(0.907,1)}43.78%,44.1%{transform:scale(0.926,1)}44.12%,45.44%{transform:scale(0.944,1)}45.46%,52.52%{transform:scale(0.963,1)}52.54%,55.55%{transform:scale(0.981,1)}55.57%,100%{transform:scale(1.000,1)}}.u.u1{fill:var(--c2);animation-name:u1;transform-origin:78.7px 0}@keyframes u2{61.27%{transform:scale(0.000,1)}61.29%,66.66%{transform:scale(0.029,1)}66.68%,66.99%{transform:scale(0.059,1)}67.01%,68%{transform:scale(0.088,1)}68.02%,69.69%{transform:scale(0.118,1)}69.71%,71.03%{transform:scale(0.147,1)}71.05%,71.37%{transform:scale(0.176,1)}71.39%,71.71%{transform:scale(0.206,1)}71.73%,72.04%{transform:scale(0.235,1)}72.06%,72.38%{transform:scale(0.265,1)}72.4%,72.72%{transform:scale(0.294,1)}72.74%,73.05%{transform:scale(0.324,1)}73.07%,73.39%{transform:scale(0.353,1)}73.41%,73.73%{transform:scale(0.382,1)}73.75%,74.74%{transform:scale(0.412,1)}74.76%,75.07%{transform:scale(0.441,1)}75.09%,75.41%{transform:scale(0.471,1)}75.43%,75.75%{transform:scale(0.500,1)}75.77%,76.08%{transform:scale(0.529,1)}76.1%,76.42%{transform:scale(0.559,1)}76.44%,76.76%{transform:scale(0.588,1)}76.78%,77.09%{transform:scale(0.618,1)}77.11%,77.43%{transform:scale(0.647,1)}77.45%,77.77%{transform:scale(0.676,1)}77.79%,78.1%{transform:scale(0.706,1)}78.12%,78.78%{transform:scale(0.735,1)}78.8%,79.11%{transform:scale(0.765,1)}79.13%,79.45%{transform:scale(0.794,1)}79.47%,79.79%{transform:scale(0.824,1)}79.81%,80.12%{transform:scale(0.853,1)}80.14%,80.46%{transform:scale(0.882,1)}80.48%,80.8%{transform:scale(0.912,1)}80.82%,81.13%{transform:scale(0.941,1)}81.15%,86.86%{transform:scale(0.971,1)}86.88%,100%{transform:scale(1.000,1)}}.u.u2{fill:var(--c4);animation-name:u2;transform-origin:550.8px 0}.s{shape-rendering:geometricPrecision;fill:var(--cs);animation:none linear 29700ms infinite}@keyframes s0{0%,99.66%{transform:translate(0px,-16px)}0.34%{transform:translate(0px,0px)}4.38%{transform:translate(192px,0px)}4.71%{transform:translate(192px,16px)}5.39%{transform:translate(160px,16px)}6.73%{transform:translate(160px,80px)}12.12%{transform:translate(416px,80px)}12.79%{transform:translate(416px,48px)}16.5%{transform:translate(592px,48px)}16.84%{transform:translate(592px,64px)}17.17%{transform:translate(576px,64px)}17.51%,45.79%{transform:translate(576px,80px)}18.18%{transform:translate(608px,80px)}18.52%{transform:translate(608px,96px)}18.86%{transform:translate(624px,96px)}20.54%{transform:translate(624px,16px)}20.88%{transform:translate(608px,16px)}21.21%{transform:translate(608px,0px)}24.58%,83.16%{transform:translate(768px,0px)}24.92%{transform:translate(768px,-16px)}25.25%{transform:translate(752px,-16px)}25.93%{transform:translate(752px,16px)}27.27%{transform:translate(688px,16px)}27.61%{transform:translate(688px,32px)}28.96%{transform:translate(752px,32px)}29.29%{transform:translate(752px,48px)}30.98%{transform:translate(672px,48px)}31.31%,67.68%{transform:translate(672px,32px)}31.65%{transform:translate(656px,32px)}32.32%{transform:translate(656px,0px)}32.66%{transform:translate(640px,0px)}33%{transform:translate(640px,16px)}33.33%{transform:translate(656px,16px)}34.34%,43.1%{transform:translate(656px,64px)}35.02%{transform:translate(688px,64px)}35.35%{transform:translate(688px,80px)}36.7%,39.39%{transform:translate(752px,80px)}37.04%{transform:translate(752px,64px)}37.71%{transform:translate(720px,64px)}38.38%{transform:translate(720px,96px)}39.06%{transform:translate(752px,96px)}40.4%{transform:translate(704px,80px)}40.74%{transform:translate(704px,96px)}41.41%{transform:translate(672px,96px)}41.75%{transform:translate(672px,80px)}42.42%{transform:translate(640px,80px)}42.76%,66.33%{transform:translate(640px,64px)}43.77%{transform:translate(656px,96px)}45.45%{transform:translate(576px,96px)}49.83%{transform:translate(384px,80px)}50.17%{transform:translate(384px,64px)}54.88%{transform:translate(160px,64px)}55.56%{transform:translate(160px,96px)}60.61%{transform:translate(400px,96px)}61.28%{transform:translate(400px,64px)}67%{transform:translate(640px,32px)}68.01%{transform:translate(672px,16px)}68.69%{transform:translate(704px,16px)}69.7%{transform:translate(704px,64px)}72.05%{transform:translate(816px,64px)}73.4%{transform:translate(816px,0px)}73.74%{transform:translate(832px,0px)}74.07%{transform:translate(832px,16px)}74.75%{transform:translate(800px,16px)}75.08%{transform:translate(800px,0px)}75.42%{transform:translate(784px,0px)}75.76%{transform:translate(784px,16px)}76.09%{transform:translate(768px,16px)}76.43%{transform:translate(768px,32px)}77.1%{transform:translate(800px,32px)}77.44%{transform:translate(800px,48px)}78.11%{transform:translate(768px,48px)}78.79%{transform:translate(768px,80px)}79.8%{transform:translate(816px,80px)}80.13%{transform:translate(816px,96px)}81.14%{transform:translate(768px,96px)}97.31%{transform:translate(96px,0px)}97.64%{transform:translate(96px,-16px)}}.s.s0{transform:translate(0px,-16px);animation-name:s0}@keyframes s1{0%,99.66%{transform:translate(16px,-16px)}0.34%{transform:translate(0px,-16px)}0.67%{transform:translate(0px,0px)}4.71%{transform:translate(192px,0px)}5.05%{transform:translate(192px,16px)}5.72%{transform:translate(160px,16px)}7.07%{transform:translate(160px,80px)}12.46%{transform:translate(416px,80px)}13.13%{transform:translate(416px,48px)}16.84%{transform:translate(592px,48px)}17.17%{transform:translate(592px,64px)}17.51%{transform:translate(576px,64px)}17.85%,46.13%{transform:translate(576px,80px)}18.52%{transform:translate(608px,80px)}18.86%{transform:translate(608px,96px)}19.19%{transform:translate(624px,96px)}20.88%{transform:translate(624px,16px)}21.21%{transform:translate(608px,16px)}21.55%{transform:translate(608px,0px)}24.92%,83.5%{transform:translate(768px,0px)}25.25%{transform:translate(768px,-16px)}25.59%{transform:translate(752px,-16px)}26.26%{transform:translate(752px,16px)}27.61%{transform:translate(688px,16px)}27.95%{transform:translate(688px,32px)}29.29%{transform:translate(752px,32px)}29.63%{transform:translate(752px,48px)}31.31%{transform:translate(672px,48px)}31.65%,68.01%{transform:translate(672px,32px)}31.99%{transform:translate(656px,32px)}32.66%{transform:translate(656px,0px)}33%{transform:translate(640px,0px)}33.33%{transform:translate(640px,16px)}33.67%{transform:translate(656px,16px)}34.68%,43.43%{transform:translate(656px,64px)}35.35%{transform:translate(688px,64px)}35.69%{transform:translate(688px,80px)}37.04%,39.73%{transform:translate(752px,80px)}37.37%{transform:translate(752px,64px)}38.05%{transform:translate(720px,64px)}38.72%{transform:translate(720px,96px)}39.39%{transform:translate(752px,96px)}40.74%{transform:translate(704px,80px)}41.08%{transform:translate(704px,96px)}41.75%{transform:translate(672px,96px)}42.09%{transform:translate(672px,80px)}42.76%{transform:translate(640px,80px)}43.1%,66.67%{transform:translate(640px,64px)}44.11%{transform:translate(656px,96px)}45.79%{transform:translate(576px,96px)}50.17%{transform:translate(384px,80px)}50.51%{transform:translate(384px,64px)}55.22%{transform:translate(160px,64px)}55.89%{transform:translate(160px,96px)}60.94%{transform:translate(400px,96px)}61.62%{transform:translate(400px,64px)}67.34%{transform:translate(640px,32px)}68.35%{transform:translate(672px,16px)}69.02%{transform:translate(704px,16px)}70.03%{transform:translate(704px,64px)}72.39%{transform:translate(816px,64px)}73.74%{transform:translate(816px,0px)}74.07%{transform:translate(832px,0px)}74.41%{transform:translate(832px,16px)}75.08%{transform:translate(800px,16px)}75.42%{transform:translate(800px,0px)}75.76%{transform:translate(784px,0px)}76.09%{transform:translate(784px,16px)}76.43%{transform:translate(768px,16px)}76.77%{transform:translate(768px,32px)}77.44%{transform:translate(800px,32px)}77.78%{transform:translate(800px,48px)}78.45%{transform:translate(768px,48px)}79.12%{transform:translate(768px,80px)}80.13%{transform:translate(816px,80px)}80.47%{transform:translate(816px,96px)}81.48%{transform:translate(768px,96px)}97.64%{transform:translate(96px,0px)}97.98%{transform:translate(96px,-16px)}}.s.s1{transform:translate(16px,-16px);animation-name:s1}@keyframes s2{0%,99.66%{transform:translate(32px,-16px)}0.67%{transform:translate(0px,-16px)}1.01%{transform:translate(0px,0px)}5.05%{transform:translate(192px,0px)}5.39%{transform:translate(192px,16px)}6.06%{transform:translate(160px,16px)}7.41%{transform:translate(160px,80px)}12.79%{transform:translate(416px,80px)}13.47%{transform:translate(416px,48px)}17.17%{transform:translate(592px,48px)}17.51%{transform:translate(592px,64px)}17.85%{transform:translate(576px,64px)}18.18%,46.46%{transform:translate(576px,80px)}18.86%{transform:translate(608px,80px)}19.19%{transform:translate(608px,96px)}19.53%{transform:translate(624px,96px)}21.21%{transform:translate(624px,16px)}21.55%{transform:translate(608px,16px)}21.89%{transform:translate(608px,0px)}25.25%,83.84%{transform:translate(768px,0px)}25.59%{transform:translate(768px,-16px)}25.93%{transform:translate(752px,-16px)}26.6%{transform:translate(752px,16px)}27.95%{transform:translate(688px,16px)}28.28%{transform:translate(688px,32px)}29.63%{transform:translate(752px,32px)}29.97%{transform:translate(752px,48px)}31.65%{transform:translate(672px,48px)}31.99%,68.35%{transform:translate(672px,32px)}32.32%{transform:translate(656px,32px)}33%{transform:translate(656px,0px)}33.33%{transform:translate(640px,0px)}33.67%{transform:translate(640px,16px)}34.01%{transform:translate(656px,16px)}35.02%,43.77%{transform:translate(656px,64px)}35.69%{transform:translate(688px,64px)}36.03%{transform:translate(688px,80px)}37.37%,40.07%{transform:translate(752px,80px)}37.71%{transform:translate(752px,64px)}38.38%{transform:translate(720px,64px)}39.06%{transform:translate(720px,96px)}39.73%{transform:translate(752px,96px)}41.08%{transform:translate(704px,80px)}41.41%{transform:translate(704px,96px)}42.09%{transform:translate(672px,96px)}42.42%{transform:translate(672px,80px)}43.1%{transform:translate(640px,80px)}43.43%,67%{transform:translate(640px,64px)}44.44%{transform:translate(656px,96px)}46.13%{transform:translate(576px,96px)}50.51%{transform:translate(384px,80px)}50.84%{transform:translate(384px,64px)}55.56%{transform:translate(160px,64px)}56.23%{transform:translate(160px,96px)}61.28%{transform:translate(400px,96px)}61.95%{transform:translate(400px,64px)}67.68%{transform:translate(640px,32px)}68.69%{transform:translate(672px,16px)}69.36%{transform:translate(704px,16px)}70.37%{transform:translate(704px,64px)}72.73%{transform:translate(816px,64px)}74.07%{transform:translate(816px,0px)}74.41%{transform:translate(832px,0px)}74.75%{transform:translate(832px,16px)}75.42%{transform:translate(800px,16px)}75.76%{transform:translate(800px,0px)}76.09%{transform:translate(784px,0px)}76.43%{transform:translate(784px,16px)}76.77%{transform:translate(768px,16px)}77.1%{transform:translate(768px,32px)}77.78%{transform:translate(800px,32px)}78.11%{transform:translate(800px,48px)}78.79%{transform:translate(768px,48px)}79.46%{transform:translate(768px,80px)}80.47%{transform:translate(816px,80px)}80.81%{transform:translate(816px,96px)}81.82%{transform:translate(768px,96px)}97.98%{transform:translate(96px,0px)}98.32%{transform:translate(96px,-16px)}}.s.s2{transform:translate(32px,-16px);animation-name:s2}@keyframes s3{0%,99.66%{transform:translate(48px,-16px)}1.01%{transform:translate(0px,-16px)}1.35%{transform:translate(0px,0px)}5.39%{transform:translate(192px,0px)}5.72%{transform:translate(192px,16px)}6.4%{transform:translate(160px,16px)}7.74%{transform:translate(160px,80px)}13.13%{transform:translate(416px,80px)}13.8%{transform:translate(416px,48px)}17.51%{transform:translate(592px,48px)}17.85%{transform:translate(592px,64px)}18.18%{transform:translate(576px,64px)}18.52%,46.8%{transform:translate(576px,80px)}19.19%{transform:translate(608px,80px)}19.53%{transform:translate(608px,96px)}19.87%{transform:translate(624px,96px)}21.55%{transform:translate(624px,16px)}21.89%{transform:translate(608px,16px)}22.22%{transform:translate(608px,0px)}25.59%,84.18%{transform:translate(768px,0px)}25.93%{transform:translate(768px,-16px)}26.26%{transform:translate(752px,-16px)}26.94%{transform:translate(752px,16px)}28.28%{transform:translate(688px,16px)}28.62%{transform:translate(688px,32px)}29.97%{transform:translate(752px,32px)}30.3%{transform:translate(752px,48px)}31.99%{transform:translate(672px,48px)}32.32%,68.69%{transform:translate(672px,32px)}32.66%{transform:translate(656px,32px)}33.33%{transform:translate(656px,0px)}33.67%{transform:translate(640px,0px)}34.01%{transform:translate(640px,16px)}34.34%{transform:translate(656px,16px)}35.35%,44.11%{transform:translate(656px,64px)}36.03%{transform:translate(688px,64px)}36.36%{transform:translate(688px,80px)}37.71%,40.4%{transform:translate(752px,80px)}38.05%{transform:translate(752px,64px)}38.72%{transform:translate(720px,64px)}39.39%{transform:translate(720px,96px)}40.07%{transform:translate(752px,96px)}41.41%{transform:translate(704px,80px)}41.75%{transform:translate(704px,96px)}42.42%{transform:translate(672px,96px)}42.76%{transform:translate(672px,80px)}43.43%{transform:translate(640px,80px)}43.77%,67.34%{transform:translate(640px,64px)}44.78%{transform:translate(656px,96px)}46.46%{transform:translate(576px,96px)}50.84%{transform:translate(384px,80px)}51.18%{transform:translate(384px,64px)}55.89%{transform:translate(160px,64px)}56.57%{transform:translate(160px,96px)}61.62%{transform:translate(400px,96px)}62.29%{transform:translate(400px,64px)}68.01%{transform:translate(640px,32px)}69.02%{transform:translate(672px,16px)}69.7%{transform:translate(704px,16px)}70.71%{transform:translate(704px,64px)}73.06%{transform:translate(816px,64px)}74.41%{transform:translate(816px,0px)}74.75%{transform:translate(832px,0px)}75.08%{transform:translate(832px,16px)}75.76%{transform:translate(800px,16px)}76.09%{transform:translate(800px,0px)}76.43%{transform:translate(784px,0px)}76.77%{transform:translate(784px,16px)}77.1%{transform:translate(768px,16px)}77.44%{transform:translate(768px,32px)}78.11%{transform:translate(800px,32px)}78.45%{transform:translate(800px,48px)}79.12%{transform:translate(768px,48px)}79.8%{transform:translate(768px,80px)}80.81%{transform:translate(816px,80px)}81.14%{transform:translate(816px,96px)}82.15%{transform:translate(768px,96px)}98.32%{transform:translate(96px,0px)}98.65%{transform:translate(96px,-16px)}}.s.s3{transform:translate(48px,-16px);animation-name:s3}</style><rect class="c" x="2" y="2" rx="2" ry="2"/><rect class="c" x="2" y="18" rx="2" ry="2"/><rect class="c" x="2" y="34" rx="2" ry="2"/><rect class="c" x="2" y="50" rx="2" ry="2"/><rect class="c" x="2" y="66" rx="2" ry="2"/><rect class="c" x="2" y="82" rx="2" ry="2"/><rect class="c" x="2" y="98" rx="2" ry="2"/><rect class="c" x="18" y="2" rx="2" ry="2"/><rect class="c" x="18" y="18" rx="2" ry="2"/><rect class="c" x="18" y="34" rx="2" ry="2"/><rect class="c" x="18" y="50" rx="2" ry="2"/><rect class="c" x="18" y="66" rx="2" ry="2"/><rect class="c" x="18" y="82" rx="2" ry="2"/><rect class="c" x="18" y="98" rx="2" ry="2"/><rect class="c" x="34" y="2" rx="2" ry="2"/><rect class="c" x="34" y="18" rx="2" ry="2"/><rect class="c" x="34" y="34" rx="2" ry="2"/><rect class="c" x="34" y="50" rx="2" ry="2"/><rect class="c" x="34" y="66" rx="2" ry="2"/><rect class="c" x="34" y="82" rx="2" ry="2"/><rect class="c" x="34" y="98" rx="2" ry="2"/><rect class="c" x="50" y="2" rx="2" ry="2"/><rect class="c" x="50" y="18" rx="2" ry="2"/><rect class="c" x="50" y="34" rx="2" ry="2"/><rect class="c" x="50" y="50" rx="2" ry="2"/><rect class="c" x="50" y="66" rx="2" ry="2"/><rect class="c" x="50" y="82" rx="2" ry="2"/><rect class="c" x="50" y="98" rx="2" ry="2"/><rect class="c" x="66" y="2" rx="2" ry="2"/><rect class="c" x="66" y="18" rx="2" ry="2"/><rect class="c" x="66" y="34" rx="2" ry="2"/><rect class="c" x="66" y="50" rx="2" ry="2"/><rect class="c" x="66" y="66" rx="2" ry="2"/><rect class="c" x="66" y="82" rx="2" ry="2"/><rect class="c" x="66" y="98" rx="2" ry="2"/><rect class="c" x="82" y="2" rx="2" ry="2"/><rect class="c" x="82" y="18" rx="2" ry="2"/><rect class="c" x="82" y="34" rx="2" ry="2"/><rect class="c" x="82" y="50" rx="2" ry="2"/><rect class="c" x="82" y="66" rx="2" ry="2"/><rect class="c" x="82" y="82" rx="2" ry="2"/><rect class="c" x="82" y="98" rx="2" ry="2"/><rect class="c" x="98" y="2" rx="2" ry="2"/><rect class="c" x="98" y="18" rx="2" ry="2"/><rect class="c" x="98" y="34" rx="2" ry="2"/><rect class="c" x="98" y="50" rx="2" ry="2"/><rect class="c" x="98" y="66" rx="2" ry="2"/><rect class="c" x="98" y="82" rx="2" ry="2"/><rect class="c" x="98" y="98" rx="2" ry="2"/><rect class="c" x="114" y="2" rx="2" ry="2"/><rect class="c" x="114" y="18" rx="2" ry="2"/><rect class="c" x="114" y="34" rx="2" ry="2"/><rect class="c" x="114" y="50" rx="2" ry="2"/><rect class="c" x="114" y="66" rx="2" ry="2"/><rect class="c" x="114" y="82" rx="2" ry="2"/><rect class="c" x="114" y="98" rx="2" ry="2"/><rect class="c" x="130" y="2" rx="2" ry="2"/><rect class="c" x="130" y="18" rx="2" ry="2"/><rect class="c" x="130" y="34" rx="2" ry="2"/><rect class="c" x="130" y="50" rx="2" ry="2"/><rect class="c" x="130" y="66" rx="2" ry="2"/><rect class="c" x="130" y="82" rx="2" ry="2"/><rect class="c" x="130" y="98" rx="2" ry="2"/><rect class="c" x="146" y="2" rx="2" ry="2"/><rect class="c" x="146" y="18" rx="2" ry="2"/><rect class="c" x="146" y="34" rx="2" ry="2"/><rect class="c" x="146" y="50" rx="2" ry="2"/><rect class="c" x="146" y="66" rx="2" ry="2"/><rect class="c" x="146" y="82" rx="2" ry="2"/><rect class="c" x="146" y="98" rx="2" ry="2"/><rect class="c" x="162" y="2" rx="2" ry="2"/><rect class="c" x="162" y="18" rx="2" ry="2"/><rect class="c" x="162" y="34" rx="2" ry="2"/><rect class="c" x="162" y="50" rx="2" ry="2"/><rect class="c" x="162" y="66" rx="2" ry="2"/><rect class="c c0" x="162" y="82" rx="2" ry="2"/><rect class="c c1" x="162" y="98" rx="2" ry="2"/><rect class="c" x="178" y="2" rx="2" ry="2"/><rect class="c" x="178" y="18" rx="2" ry="2"/><rect class="c" x="178" y="34" rx="2" ry="2"/><rect class="c" x="178" y="50" rx="2" ry="2"/><rect class="c" x="178" y="66" rx="2" ry="2"/><rect class="c" x="178" y="82" rx="2" ry="2"/><rect class="c" x="178" y="98" rx="2" ry="2"/><rect class="c c2" x="194" y="2" rx="2" ry="2"/><rect class="c c3" x="194" y="18" rx="2" ry="2"/><rect class="c" x="194" y="34" rx="2" ry="2"/><rect class="c" x="194" y="50" rx="2" ry="2"/><rect class="c" x="194" y="66" rx="2" ry="2"/><rect class="c" x="194" y="82" rx="2" ry="2"/><rect class="c" x="194" y="98" rx="2" ry="2"/><rect class="c" x="210" y="2" rx="2" ry="2"/><rect class="c" x="210" y="18" rx="2" ry="2"/><rect class="c" x="210" y="34" rx="2" ry="2"/><rect class="c" x="210" y="50" rx="2" ry="2"/><rect class="c" x="210" y="66" rx="2" ry="2"/><rect class="c" x="210" y="82" rx="2" ry="2"/><rect class="c" x="210" y="98" rx="2" ry="2"/><rect class="c" x="226" y="2" rx="2" ry="2"/><rect class="c" x="226" y="18" rx="2" ry="2"/><rect class="c" x="226" y="34" rx="2" ry="2"/><rect class="c" x="226" y="50" rx="2" ry="2"/><rect class="c" x="226" y="66" rx="2" ry="2"/><rect class="c" x="226" y="82" rx="2" ry="2"/><rect class="c" x="226" y="98" rx="2" ry="2"/><rect class="c" x="242" y="2" rx="2" ry="2"/><rect class="c" x="242" y="18" rx="2" ry="2"/><rect class="c" x="242" y="34" rx="2" ry="2"/><rect class="c" x="242" y="50" rx="2" ry="2"/><rect class="c" x="242" y="66" rx="2" ry="2"/><rect class="c" x="242" y="82" rx="2" ry="2"/><rect class="c" x="242" y="98" rx="2" ry="2"/><rect class="c" x="258" y="2" rx="2" ry="2"/><rect class="c" x="258" y="18" rx="2" ry="2"/><rect class="c" x="258" y="34" rx="2" ry="2"/><rect class="c" x="258" y="50" rx="2" ry="2"/><rect class="c" x="258" y="66" rx="2" ry="2"/><rect class="c" x="258" y="82" rx="2" ry="2"/><rect class="c" x="258" y="98" rx="2" ry="2"/><rect class="c" x="274" y="2" rx="2" ry="2"/><rect class="c" x="274" y="18" rx="2" ry="2"/><rect class="c" x="274" y="34" rx="2" ry="2"/><rect class="c" x="274" y="50" rx="2" ry="2"/><rect class="c c4" x="274" y="66" rx="2" ry="2"/><rect class="c" x="274" y="82" rx="2" ry="2"/><rect class="c" x="274" y="98" rx="2" ry="2"/><rect class="c" x="290" y="2" rx="2" ry="2"/><rect class="c" x="290" y="18" rx="2" ry="2"/><rect class="c" x="290" y="34" rx="2" ry="2"/><rect class="c" x="290" y="50" rx="2" ry="2"/><rect class="c" x="290" y="66" rx="2" ry="2"/><rect class="c" x="290" y="82" rx="2" ry="2"/><rect class="c" x="290" y="98" rx="2" ry="2"/><rect class="c" x="306" y="2" rx="2" ry="2"/><rect class="c" x="306" y="18" rx="2" ry="2"/><rect class="c" x="306" y="34" rx="2" ry="2"/><rect class="c" x="306" y="50" rx="2" ry="2"/><rect class="c" x="306" y="66" rx="2" ry="2"/><rect class="c" x="306" y="82" rx="2" ry="2"/><rect class="c" x="306" y="98" rx="2" ry="2"/><rect class="c" x="322" y="2" rx="2" ry="2"/><rect class="c" x="322" y="18" rx="2" ry="2"/><rect class="c" x="322" y="34" rx="2" ry="2"/><rect class="c" x="322" y="50" rx="2" ry="2"/><rect class="c" x="322" y="66" rx="2" ry="2"/><rect class="c" x="322" y="82" rx="2" ry="2"/><rect class="c" x="322" y="98" rx="2" ry="2"/><rect class="c" x="338" y="2" rx="2" ry="2"/><rect class="c" x="338" y="18" rx="2" ry="2"/><rect class="c" x="338" y="34" rx="2" ry="2"/><rect class="c" x="338" y="50" rx="2" ry="2"/><rect class="c" x="338" y="66" rx="2" ry="2"/><rect class="c" x="338" y="82" rx="2" ry="2"/><rect class="c" x="338" y="98" rx="2" ry="2"/><rect class="c" x="354" y="2" rx="2" ry="2"/><rect class="c" x="354" y="18" rx="2" ry="2"/><rect class="c" x="354" y="34" rx="2" ry="2"/><rect class="c" x="354" y="50" rx="2" ry="2"/><rect class="c" x="354" y="66" rx="2" ry="2"/><rect class="c" x="354" y="82" rx="2" ry="2"/><rect class="c" x="354" y="98" rx="2" ry="2"/><rect class="c" x="370" y="2" rx="2" ry="2"/><rect class="c" x="370" y="18" rx="2" ry="2"/><rect class="c" x="370" y="34" rx="2" ry="2"/><rect class="c" x="370" y="50" rx="2" ry="2"/><rect class="c" x="370" y="66" rx="2" ry="2"/><rect class="c" x="370" y="82" rx="2" ry="2"/><rect class="c" x="370" y="98" rx="2" ry="2"/><rect class="c" x="386" y="2" rx="2" ry="2"/><rect class="c" x="386" y="18" rx="2" ry="2"/><rect class="c" x="386" y="34" rx="2" ry="2"/><rect class="c" x="386" y="50" rx="2" ry="2"/><rect class="c" x="386" y="66" rx="2" ry="2"/><rect class="c" x="386" y="82" rx="2" ry="2"/><rect class="c" x="386" y="98" rx="2" ry="2"/><rect class="c" x="402" y="2" rx="2" ry="2"/><rect class="c" x="402" y="18" rx="2" ry="2"/><rect class="c" x="402" y="34" rx="2" ry="2"/><rect class="c" x="402" y="50" rx="2" ry="2"/><rect class="c c5" x="402" y="66" rx="2" ry="2"/><rect class="c" x="402" y="82" rx="2" ry="2"/><rect class="c" x="402" y="98" rx="2" ry="2"/><rect class="c" x="418" y="2" rx="2" ry="2"/><rect class="c" x="418" y="18" rx="2" ry="2"/><rect class="c" x="418" y="34" rx="2" ry="2"/><rect class="c c6" x="418" y="50" rx="2" ry="2"/><rect class="c" x="418" y="66" rx="2" ry="2"/><rect class="c" x="418" y="82" rx="2" ry="2"/><rect class="c" x="418" y="98" rx="2" ry="2"/><rect class="c" x="434" y="2" rx="2" ry="2"/><rect class="c" x="434" y="18" rx="2" ry="2"/><rect class="c" x="434" y="34" rx="2" ry="2"/><rect class="c" x="434" y="50" rx="2" ry="2"/><rect class="c" x="434" y="66" rx="2" ry="2"/><rect class="c" x="434" y="82" rx="2" ry="2"/><rect class="c" x="434" y="98" rx="2" ry="2"/><rect class="c" x="450" y="2" rx="2" ry="2"/><rect class="c" x="450" y="18" rx="2" ry="2"/><rect class="c" x="450" y="34" rx="2" ry="2"/><rect class="c" x="450" y="50" rx="2" ry="2"/><rect class="c" x="450" y="66" rx="2" ry="2"/><rect class="c" x="450" y="82" rx="2" ry="2"/><rect class="c" x="450" y="98" rx="2" ry="2"/><rect class="c" x="466" y="2" rx="2" ry="2"/><rect class="c" x="466" y="18" rx="2" ry="2"/><rect class="c" x="466" y="34" rx="2" ry="2"/><rect class="c" x="466" y="50" rx="2" ry="2"/><rect class="c" x="466" y="66" rx="2" ry="2"/><rect class="c" x="466" y="82" rx="2" ry="2"/><rect class="c" x="466" y="98" rx="2" ry="2"/><rect class="c" x="482" y="2" rx="2" ry="2"/><rect class="c" x="482" y="18" rx="2" ry="2"/><rect class="c" x="482" y="34" rx="2" ry="2"/><rect class="c" x="482" y="50" rx="2" ry="2"/><rect class="c" x="482" y="66" rx="2" ry="2"/><rect class="c" x="482" y="82" rx="2" ry="2"/><rect class="c" x="482" y="98" rx="2" ry="2"/><rect class="c" x="498" y="2" rx="2" ry="2"/><rect class="c" x="498" y="18" rx="2" ry="2"/><rect class="c" x="498" y="34" rx="2" ry="2"/><rect class="c" x="498" y="50" rx="2" ry="2"/><rect class="c" x="498" y="66" rx="2" ry="2"/><rect class="c" x="498" y="82" rx="2" ry="2"/><rect class="c" x="498" y="98" rx="2" ry="2"/><rect class="c" x="514" y="2" rx="2" ry="2"/><rect class="c" x="514" y="18" rx="2" ry="2"/><rect class="c" x="514" y="34" rx="2" ry="2"/><rect class="c" x="514" y="50" rx="2" ry="2"/><rect class="c" x="514" y="66" rx="2" ry="2"/><rect class="c" x="514" y="82" rx="2" ry="2"/><rect class="c" x="514" y="98" rx="2" ry="2"/><rect class="c" x="530" y="2" rx="2" ry="2"/><rect class="c" x="530" y="18" rx="2" ry="2"/><rect class="c" x="530" y="34" rx="2" ry="2"/><rect class="c" x="530" y="50" rx="2" ry="2"/><rect class="c" x="530" y="66" rx="2" ry="2"/><rect class="c" x="530" y="82" rx="2" ry="2"/><rect class="c" x="530" y="98" rx="2" ry="2"/><rect class="c" x="546" y="2" rx="2" ry="2"/><rect class="c" x="546" y="18" rx="2" ry="2"/><rect class="c" x="546" y="34" rx="2" ry="2"/><rect class="c" x="546" y="50" rx="2" ry="2"/><rect class="c" x="546" y="66" rx="2" ry="2"/><rect class="c" x="546" y="82" rx="2" ry="2"/><rect class="c" x="546" y="98" rx="2" ry="2"/><rect class="c" x="562" y="2" rx="2" ry="2"/><rect class="c" x="562" y="18" rx="2" ry="2"/><rect class="c" x="562" y="34" rx="2" ry="2"/><rect class="c" x="562" y="50" rx="2" ry="2"/><rect class="c" x="562" y="66" rx="2" ry="2"/><rect class="c" x="562" y="82" rx="2" ry="2"/><rect class="c" x="562" y="98" rx="2" ry="2"/><rect class="c" x="578" y="2" rx="2" ry="2"/><rect class="c" x="578" y="18" rx="2" ry="2"/><rect class="c" x="578" y="34" rx="2" ry="2"/><rect class="c" x="578" y="50" rx="2" ry="2"/><rect class="c c7" x="578" y="66" rx="2" ry="2"/><rect class="c" x="578" y="82" rx="2" ry="2"/><rect class="c c8" x="578" y="98" rx="2" ry="2"/><rect class="c c9" x="594" y="2" rx="2" ry="2"/><rect class="c" x="594" y="18" rx="2" ry="2"/><rect class="c" x="594" y="34" rx="2" ry="2"/><rect class="c ca" x="594" y="50" rx="2" ry="2"/><rect class="c" x="594" y="66" rx="2" ry="2"/><rect class="c" x="594" y="82" rx="2" ry="2"/><rect class="c" x="594" y="98" rx="2" ry="2"/><rect class="c" x="610" y="2" rx="2" ry="2"/><rect class="c cb" x="610" y="18" rx="2" ry="2"/><rect class="c" x="610" y="34" rx="2" ry="2"/><rect class="c" x="610" y="50" rx="2" ry="2"/><rect class="c" x="610" y="66" rx="2" ry="2"/><rect class="c cc" x="610" y="82" rx="2" ry="2"/><rect class="c cd" x="610" y="98" rx="2" ry="2"/><rect class="c" x="626" y="2" rx="2" ry="2"/><rect class="c" x="626" y="18" rx="2" ry="2"/><rect class="c" x="626" y="34" rx="2" ry="2"/><rect class="c" x="626" y="50" rx="2" ry="2"/><rect class="c" x="626" y="66" rx="2" ry="2"/><rect class="c" x="626" y="82" rx="2" ry="2"/><rect class="c" x="626" y="98" rx="2" ry="2"/><rect class="c" x="642" y="2" rx="2" ry="2"/><rect class="c" x="642" y="18" rx="2" ry="2"/><rect class="c ce" x="642" y="34" rx="2" ry="2"/><rect class="c cf" x="642" y="50" rx="2" ry="2"/><rect class="c cg" x="642" y="66" rx="2" ry="2"/><rect class="c ch" x="642" y="82" rx="2" ry="2"/><rect class="c ci" x="642" y="98" rx="2" ry="2"/><rect class="c cj" x="658" y="2" rx="2" ry="2"/><rect class="c ck" x="658" y="18" rx="2" ry="2"/><rect class="c cl" x="658" y="34" rx="2" ry="2"/><rect class="c cm" x="658" y="50" rx="2" ry="2"/><rect class="c cn" x="658" y="66" rx="2" ry="2"/><rect class="c co" x="658" y="82" rx="2" ry="2"/><rect class="c cp" x="658" y="98" rx="2" ry="2"/><rect class="c cq" x="674" y="2" rx="2" ry="2"/><rect class="c cr" x="674" y="18" rx="2" ry="2"/><rect class="c cs" x="674" y="34" rx="2" ry="2"/><rect class="c ct" x="674" y="50" rx="2" ry="2"/><rect class="c cu" x="674" y="66" rx="2" ry="2"/><rect class="c cv" x="674" y="82" rx="2" ry="2"/><rect class="c cw" x="674" y="98" rx="2" ry="2"/><rect class="c cx" x="690" y="2" rx="2" ry="2"/><rect class="c cy" x="690" y="18" rx="2" ry="2"/><rect class="c cz" x="690" y="34" rx="2" ry="2"/><rect class="c c10" x="690" y="50" rx="2" ry="2"/><rect class="c c11" x="690" y="66" rx="2" ry="2"/><rect class="c c12" x="690" y="82" rx="2" ry="2"/><rect class="c c13" x="690" y="98" rx="2" ry="2"/><rect class="c c14" x="706" y="2" rx="2" ry="2"/><rect class="c c15" x="706" y="18" rx="2" ry="2"/><rect class="c c16" x="706" y="34" rx="2" ry="2"/><rect class="c c17" x="706" y="50" rx="2" ry="2"/><rect class="c c18" x="706" y="66" rx="2" ry="2"/><rect class="c c19" x="706" y="82" rx="2" ry="2"/><rect class="c c1a" x="706" y="98" rx="2" ry="2"/><rect class="c c1b" x="722" y="2" rx="2" ry="2"/><rect class="c c1c" x="722" y="18" rx="2" ry="2"/><rect class="c c1d" x="722" y="34" rx="2" ry="2"/><rect class="c c1e" x="722" y="50" rx="2" ry="2"/><rect class="c c1f" x="722" y="66" rx="2" ry="2"/><rect class="c c1g" x="722" y="82" rx="2" ry="2"/><rect class="c c1h" x="722" y="98" rx="2" ry="2"/><rect class="c c1i" x="738" y="2" rx="2" ry="2"/><rect class="c c1j" x="738" y="18" rx="2" ry="2"/><rect class="c c1k" x="738" y="34" rx="2" ry="2"/><rect class="c c1l" x="738" y="50" rx="2" ry="2"/><rect class="c c1m" x="738" y="66" rx="2" ry="2"/><rect class="c c1n" x="738" y="82" rx="2" ry="2"/><rect class="c c1o" x="738" y="98" rx="2" ry="2"/><rect class="c c1p" x="754" y="2" rx="2" ry="2"/><rect class="c c1q" x="754" y="18" rx="2" ry="2"/><rect class="c c1r" x="754" y="34" rx="2" ry="2"/><rect class="c c1s" x="754" y="50" rx="2" ry="2"/><rect class="c c1t" x="754" y="66" rx="2" ry="2"/><rect class="c c1u" x="754" y="82" rx="2" ry="2"/><rect class="c c1v" x="754" y="98" rx="2" ry="2"/><rect class="c c1w" x="770" y="2" rx="2" ry="2"/><rect class="c c1x" x="770" y="18" rx="2" ry="2"/><rect class="c c1y" x="770" y="34" rx="2" ry="2"/><rect class="c c1z" x="770" y="50" rx="2" ry="2"/><rect class="c c20" x="770" y="66" rx="2" ry="2"/><rect class="c c21" x="770" y="82" rx="2" ry="2"/><rect class="c c22" x="770" y="98" rx="2" ry="2"/><rect class="c c23" x="786" y="2" rx="2" ry="2"/><rect class="c c24" x="786" y="18" rx="2" ry="2"/><rect class="c c25" x="786" y="34" rx="2" ry="2"/><rect class="c c26" x="786" y="50" rx="2" ry="2"/><rect class="c c27" x="786" y="66" rx="2" ry="2"/><rect class="c c28" x="786" y="82" rx="2" ry="2"/><rect class="c c29" x="786" y="98" rx="2" ry="2"/><rect class="c c2a" x="802" y="2" rx="2" ry="2"/><rect class="c c2b" x="802" y="18" rx="2" ry="2"/><rect class="c c2c" x="802" y="34" rx="2" ry="2"/><rect class="c c2d" x="802" y="50" rx="2" ry="2"/><rect class="c c2e" x="802" y="66" rx="2" ry="2"/><rect class="c c2f" x="802" y="82" rx="2" ry="2"/><rect class="c c2g" x="802" y="98" rx="2" ry="2"/><rect class="c c2h" x="818" y="2" rx="2" ry="2"/><rect class="c c2i" x="818" y="18" rx="2" ry="2"/><rect class="c c2j" x="818" y="34" rx="2" ry="2"/><rect class="c c2k" x="818" y="50" rx="2" ry="2"/><rect class="c c2l" x="818" y="66" rx="2" ry="2"/><rect class="c c2m" x="818" y="82" rx="2" ry="2"/><rect class="c c2n" x="818" y="98" rx="2" ry="2"/><rect class="c c2o" x="834" y="2" rx="2" ry="2"/><rect class="c" x="834" y="18" rx="2" ry="2"/><rect class="u u0" height="12" width="79.3" x="0.0" y="144"/><rect class="u u1" height="12" width="472.7" x="78.7" y="144"/><rect class="u u2" height="12" width="297.8" x="550.8" y="144"/><rect class="s s0" x="0.8" y="0.8" width="14.4" height="14.4" rx="4.5" ry="4.5"/><rect class="s s1" x="1.8" y="1.8" width="12.3" height="12.3" rx="4.1" ry="4.1"/><rect class="s s2" x="2.6" y="2.6" width="10.8" height="10.8" rx="3.6" ry="3.6"/><rect class="s s3" x="3.0" y="3.0" width="9.9" height="9.9" rx="3.3" ry="3.3"/></svg>