<svg viewBox="-16 -32 880 192" width="880" height="192" xmlns="http://www.w3.org/2000/svg"><desc>Generated with https://github.com/Platane/snk</desc><style>:root{--cb:#1b1f230a;--cs:purple;--ce:#161b22;--c0:#161b22;--c1:#01311f;--c2:#034525;--c3:#0f6d31;--c4:#00c647}.c{shape-rendering:geometricPrecision;fill:var(--ce);stroke-width:1px;stroke:var(--cb);animation:none 30500ms linear infinite;width:12px;height:12px}@keyframes c0{6.22%{fill:var(--c1)}6.24%,100%{fill:var(--ce)}}.c.c0{fill:var(--c1);animation-name:c0}@keyframes c1{53.76%{fill:var(--c2)}53.78%,100%{fill:var(--ce)}}.c.c1{fill:var(--c2);animation-name:c1}@keyframes c2{3.92%{fill:var(--c1)}3.94%,100%{fill:var(--ce)}}.c.c2{fill:var(--c1);animation-name:c2}@keyframes c3{4.25%{fill:var(--c1)}4.27%,100%{fill:var(--ce)}}.c.c3{fill:var(--c1);animation-name:c3}@keyframes c4{50.81%{fill:var(--c2)}50.83%,100%{fill:var(--ce)}}.c.c4{fill:var(--c2);animation-name:c4}@keyframes c5{59.33%{fill:var(--c4)}59.35%,100%{fill:var(--ce)}}.c.c5{fill:var(--c4);animation-name:c5}@keyframes c6{12.12%{fill:var(--c1)}12.14%,100%{fill:var(--ce)}}.c.c6{fill:var(--c1);animation-name:c6}@keyframes c7{16.38%{fill:var(--c1)}16.4%,100%{fill:var(--ce)}}.c.c7{fill:var(--c1);animation-name:c7}@keyframes c8{43.92%{fill:var(--c2)}43.94%,100%{fill:var(--ce)}}.c.c8{fill:var(--c2);animation-name:c8}@keyframes c9{87.53%{fill:var(--c4)}87.55%,100%{fill:var(--ce)}}.c.c9{fill:var(--c4);animation-name:c9}@keyframes ca{15.73%{fill:var(--c1)}15.75%,100%{fill:var(--ce)}}.c.ca{fill:var(--c1);animation-name:ca}@keyframes cb{19.99%{fill:var(--c1)}20.01%,100%{fill:var(--ce)}}.c.cb{fill:var(--c1);animation-name:cb}@keyframes cc{17.37%{fill:var(--c1)}17.39%,100%{fill:var(--ce)}}.c.cc{fill:var(--c1);animation-name:cc}@keyframes cd{17.69%{fill:var(--c1)}17.71%,100%{fill:var(--ce)}}.c.cd{fill:var(--c1);animation-name:cd}@keyframes ce{64.91%{fill:var(--c4)}64.93%,100%{fill:var(--ce)}}.c.ce{fill:var(--c4);animation-name:ce}@keyframes cf{64.58%{fill:var(--c4)}64.6%,100%{fill:var(--ce)}}.c.cf{fill:var(--c4);animation-name:cf}@keyframes cg{41.3%{fill:var(--c2)}41.32%,100%{fill:var(--ce)}}.c.cg{fill:var(--c2);animation-name:cg}@keyframes ch{40.97%{fill:var(--c2)}40.99%,100%{fill:var(--ce)}}.c.ch{fill:var(--c2);animation-name:ch}@keyframes ci{42.61%{fill:var(--c2)}42.63%,100%{fill:var(--ce)}}.c.ci{fill:var(--c2);animation-name:ci}@keyframes cj{21.3%{fill:var(--c2)}21.32%,100%{fill:var(--ce)}}.c.cj{fill:var(--c2);animation-name:cj}@keyframes ck{30.81%{fill:var(--c2)}30.83%,100%{fill:var(--ce)}}.c.ck{fill:var(--c2);animation-name:ck}@keyframes cl{30.48%{fill:var(--c2)}30.5%,100%{fill:var(--ce)}}.c.cl{fill:var(--c2);animation-name:cl}@keyframes cm{32.78%{fill:var(--c2)}32.8%,100%{fill:var(--ce)}}.c.cm{fill:var(--c2);animation-name:cm}@keyframes cn{33.1%{fill:var(--c2)}33.12%,100%{fill:var(--ce)}}.c.cn{fill:var(--c2);animation-name:cn}@keyframes co{40.65%{fill:var(--c2)}40.67%,100%{fill:var(--ce)}}.c.co{fill:var(--c2);animation-name:co}@keyframes cp{42.29%{fill:var(--c2)}42.31%,100%{fill:var(--ce)}}.c.cp{fill:var(--c2);animation-name:cp}@keyframes cq{21.63%{fill:var(--c2)}21.65%,100%{fill:var(--ce)}}.c.cq{fill:var(--c2);animation-name:cq}@keyframes cr{65.89%{fill:var(--c4)}65.91%,100%{fill:var(--ce)}}.c.cr{fill:var(--c4);animation-name:cr}@keyframes cs{30.15%{fill:var(--c2)}30.17%,100%{fill:var(--ce)}}.c.cs{fill:var(--c2);animation-name:cs}@keyframes ct{29.83%{fill:var(--c2)}29.85%,100%{fill:var(--ce)}}.c.ct{fill:var(--c2);animation-name:ct}@keyframes cu{33.43%{fill:var(--c2)}33.45%,100%{fill:var(--ce)}}.c.cu{fill:var(--c2);animation-name:cu}@keyframes cv{40.32%{fill:var(--c2)}40.34%,100%{fill:var(--ce)}}.c.cv{fill:var(--c2);animation-name:cv}@keyframes cw{39.99%{fill:var(--c2)}40.01%,100%{fill:var(--ce)}}.c.cw{fill:var(--c2);animation-name:cw}@keyframes cx{21.96%{fill:var(--c2)}21.98%,100%{fill:var(--ce)}}.c.cx{fill:var(--c2);animation-name:cx}@keyframes cy{26.22%{fill:var(--c2)}26.24%,100%{fill:var(--ce)}}.c.cy{fill:var(--c2);animation-name:cy}@keyframes cz{26.55%{fill:var(--c2)}26.57%,100%{fill:var(--ce)}}.c.cz{fill:var(--c2);animation-name:cz}@keyframes c10{29.5%{fill:var(--c2)}29.52%,100%{fill:var(--ce)}}.c.c10{fill:var(--c2);animation-name:c10}@keyframes c11{33.76%{fill:var(--c2)}33.78%,100%{fill:var(--ce)}}.c.c11{fill:var(--c2);animation-name:c11}@keyframes c12{34.09%{fill:var(--c2)}34.11%,100%{fill:var(--ce)}}.c.c12{fill:var(--c2);animation-name:c12}@keyframes c13{39.66%{fill:var(--c2)}39.68%,100%{fill:var(--ce)}}.c.c13{fill:var(--c2);animation-name:c13}@keyframes c14{22.29%{fill:var(--c2)}22.31%,100%{fill:var(--ce)}}.c.c14{fill:var(--c2);animation-name:c14}@keyframes c15{25.89%{fill:var(--c2)}25.91%,100%{fill:var(--ce)}}.c.c15{fill:var(--c2);animation-name:c15}@keyframes c16{26.88%{fill:var(--c2)}26.9%,100%{fill:var(--ce)}}.c.c16{fill:var(--c2);animation-name:c16}@keyframes c17{29.17%{fill:var(--c2)}29.19%,100%{fill:var(--ce)}}.c.c17{fill:var(--c2);animation-name:c17}@keyframes c18{67.53%{fill:var(--c4)}67.55%,100%{fill:var(--ce)}}.c.c18{fill:var(--c4);animation-name:c18}@keyframes c19{34.42%{fill:var(--c2)}34.44%,100%{fill:var(--ce)}}.c.c19{fill:var(--c2);animation-name:c19}@keyframes c1a{39.33%{fill:var(--c2)}39.35%,100%{fill:var(--ce)}}.c.c1a{fill:var(--c2);animation-name:c1a}@keyframes c1b{22.61%{fill:var(--c2)}22.63%,100%{fill:var(--ce)}}.c.c1b{fill:var(--c2);animation-name:c1b}@keyframes c1c{25.56%{fill:var(--c2)}25.58%,100%{fill:var(--ce)}}.c.c1c{fill:var(--c2);animation-name:c1c}@keyframes c1d{27.2%{fill:var(--c2)}27.22%,100%{fill:var(--ce)}}.c.c1d{fill:var(--c2);animation-name:c1d}@keyframes c1e{28.84%{fill:var(--c2)}28.86%,100%{fill:var(--ce)}}.c.c1e{fill:var(--c2);animation-name:c1e}@keyframes c1f{36.38%{fill:var(--c2)}36.4%,100%{fill:var(--ce)}}.c.c1f{fill:var(--c2);animation-name:c1f}@keyframes c1g{34.74%{fill:var(--c2)}34.76%,100%{fill:var(--ce)}}.c.c1g{fill:var(--c2);animation-name:c1g}@keyframes c1h{37.04%{fill:var(--c2)}37.06%,100%{fill:var(--ce)}}.c.c1h{fill:var(--c2);animation-name:c1h}@keyframes c1i{22.94%{fill:var(--c2)}22.96%,100%{fill:var(--ce)}}.c.c1i{fill:var(--c2);animation-name:c1i}@keyframes c1j{25.24%{fill:var(--c2)}25.26%,100%{fill:var(--ce)}}.c.c1j{fill:var(--c2);animation-name:c1j}@keyframes c1k{27.53%{fill:var(--c2)}27.55%,100%{fill:var(--ce)}}.c.c1k{fill:var(--c2);animation-name:c1k}@keyframes c1l{28.51%{fill:var(--c2)}28.53%,100%{fill:var(--ce)}}.c.c1l{fill:var(--c2);animation-name:c1l}@keyframes c1m{36.06%{fill:var(--c2)}36.08%,100%{fill:var(--ce)}}.c.c1m{fill:var(--c2);animation-name:c1m}@keyframes c1n{35.07%{fill:var(--c2)}35.09%,100%{fill:var(--ce)}}.c.c1n{fill:var(--c2);animation-name:c1n}@keyframes c1o{37.37%{fill:var(--c2)}37.39%,100%{fill:var(--ce)}}.c.c1o{fill:var(--c2);animation-name:c1o}@keyframes c1p{23.27%{fill:var(--c2)}23.29%,100%{fill:var(--ce)}}.c.c1p{fill:var(--c2);animation-name:c1p}@keyframes c1q{24.91%{fill:var(--c2)}24.93%,100%{fill:var(--ce)}}.c.c1q{fill:var(--c2);animation-name:c1q}@keyframes c1r{27.86%{fill:var(--c2)}27.88%,100%{fill:var(--ce)}}.c.c1r{fill:var(--c2);animation-name:c1r}@keyframes c1s{28.19%{fill:var(--c2)}28.21%,100%{fill:var(--ce)}}.c.c1s{fill:var(--c2);animation-name:c1s}@keyframes c1t{35.73%{fill:var(--c2)}35.75%,100%{fill:var(--ce)}}.c.c1t{fill:var(--c2);animation-name:c1t}@keyframes c1u{35.4%{fill:var(--c2)}35.42%,100%{fill:var(--ce)}}.c.c1u{fill:var(--c2);animation-name:c1u}@keyframes c1v{37.69%{fill:var(--c2)}37.71%,100%{fill:var(--ce)}}.c.c1v{fill:var(--c2);animation-name:c1v}@keyframes c1w{23.6%{fill:var(--c2)}23.62%,100%{fill:var(--ce)}}.c.c1w{fill:var(--c2);animation-name:c1w}@keyframes c1x{76.38%{fill:var(--c4)}76.4%,100%{fill:var(--ce)}}.c.c1x{fill:var(--c4);animation-name:c1x}@keyframes c1y{76.06%{fill:var(--c4)}76.08%,100%{fill:var(--ce)}}.c.c1y{fill:var(--c4);animation-name:c1y}@keyframes c1z{82.94%{fill:var(--c4)}82.96%,100%{fill:var(--ce)}}.c.c1z{fill:var(--c4);animation-name:c1z}@keyframes c20{68.84%{fill:var(--c4)}68.86%,100%{fill:var(--ce)}}.c.c20{fill:var(--c4);animation-name:c20}@keyframes c21{80.97%{fill:var(--c4)}80.99%,100%{fill:var(--ce)}}.c.c21{fill:var(--c4);animation-name:c21}@keyframes c22{81.3%{fill:var(--c4)}81.32%,100%{fill:var(--ce)}}.c.c22{fill:var(--c4);animation-name:c22}@keyframes c23{73.1%{fill:var(--c4)}73.12%,100%{fill:var(--ce)}}.c.c23{fill:var(--c4);animation-name:c23}@keyframes c24{73.43%{fill:var(--c4)}73.45%,100%{fill:var(--ce)}}.c.c24{fill:var(--c4);animation-name:c24}@keyframes c25{75.73%{fill:var(--c4)}75.75%,100%{fill:var(--ce)}}.c.c25{fill:var(--c4);animation-name:c25}@keyframes c26{77.37%{fill:var(--c4)}77.39%,100%{fill:var(--ce)}}.c.c26{fill:var(--c4);animation-name:c26}@keyframes c27{69.17%{fill:var(--c4)}69.19%,100%{fill:var(--ce)}}.c.c27{fill:var(--c4);animation-name:c27}@keyframes c28{80.65%{fill:var(--c4)}80.67%,100%{fill:var(--ce)}}.c.c28{fill:var(--c4);animation-name:c28}@keyframes c29{81.63%{fill:var(--c4)}81.65%,100%{fill:var(--ce)}}.c.c29{fill:var(--c4);animation-name:c29}@keyframes c2a{72.78%{fill:var(--c4)}72.8%,100%{fill:var(--ce)}}.c.c2a{fill:var(--c4);animation-name:c2a}@keyframes c2b{73.76%{fill:var(--c4)}73.78%,100%{fill:var(--ce)}}.c.c2b{fill:var(--c4);animation-name:c2b}@keyframes c2c{75.4%{fill:var(--c4)}75.42%,100%{fill:var(--ce)}}.c.c2c{fill:var(--c4);animation-name:c2c}@keyframes c2d{77.69%{fill:var(--c4)}77.71%,100%{fill:var(--ce)}}.c.c2d{fill:var(--c4);animation-name:c2d}@keyframes c2e{69.5%{fill:var(--c4)}69.52%,100%{fill:var(--ce)}}.c.c2e{fill:var(--c4);animation-name:c2e}@keyframes c2f{80.32%{fill:var(--c4)}80.34%,100%{fill:var(--ce)}}.c.c2f{fill:var(--c4);animation-name:c2f}@keyframes c2g{79.99%{fill:var(--c4)}80.01%,100%{fill:var(--ce)}}.c.c2g{fill:var(--c4);animation-name:c2g}@keyframes c2h{72.45%{fill:var(--c4)}72.47%,100%{fill:var(--ce)}}.c.c2h{fill:var(--c4);animation-name:c2h}@keyframes c2i{74.09%{fill:var(--c4)}74.11%,100%{fill:var(--ce)}}.c.c2i{fill:var(--c4);animation-name:c2i}@keyframes c2j{75.07%{fill:var(--c4)}75.09%,100%{fill:var(--ce)}}.c.c2j{fill:var(--c4);animation-name:c2j}@keyframes c2k{78.02%{fill:var(--c4)}78.04%,100%{fill:var(--ce)}}.c.c2k{fill:var(--c4);animation-name:c2k}@keyframes c2l{69.83%{fill:var(--c4)}69.85%,100%{fill:var(--ce)}}.c.c2l{fill:var(--c4);animation-name:c2l}@keyframes c2m{78.68%{fill:var(--c4)}78.7%,100%{fill:var(--ce)}}.c.c2m{fill:var(--c4);animation-name:c2m}@keyframes c2n{79.66%{fill:var(--c4)}79.68%,100%{fill:var(--ce)}}.c.c2n{fill:var(--c4);animation-name:c2n}@keyframes c2o{72.12%{fill:var(--c4)}72.14%,100%{fill:var(--ce)}}.c.c2o{fill:var(--c4);animation-name:c2o}@keyframes c2p{74.42%{fill:var(--c4)}74.44%,100%{fill:var(--ce)}}.c.c2p{fill:var(--c4);animation-name:c2p}@keyframes c2q{74.74%{fill:var(--c4)}74.76%,100%{fill:var(--ce)}}.c.c2q{fill:var(--c4);animation-name:c2q}@keyframes c2r{70.48%{fill:var(--c4)}70.5%,100%{fill:var(--ce)}}.c.c2r{fill:var(--c4);animation-name:c2r}@keyframes c2s{70.15%{fill:var(--c4)}70.17%,100%{fill:var(--ce)}}.c.c2s{fill:var(--c4);animation-name:c2s}@keyframes c2t{79.01%{fill:var(--c4)}79.03%,100%{fill:var(--ce)}}.c.c2t{fill:var(--c4);animation-name:c2t}@keyframes c2u{79.33%{fill:var(--c4)}79.35%,100%{fill:var(--ce)}}.c.c2u{fill:var(--c4);animation-name:c2u}@keyframes c2v{71.79%{fill:var(--c4)}71.81%,100%{fill:var(--ce)}}.c.c2v{fill:var(--c4);animation-name:c2v}@keyframes c2w{71.47%{fill:var(--c4)}71.49%,100%{fill:var(--ce)}}.c.c2w{fill:var(--c4);animation-name:c2w}@keyframes c2x{71.14%{fill:var(--c4)}71.16%,100%{fill:var(--ce)}}.c.c2x{fill:var(--c4);animation-name:c2x}@keyframes c2y{70.81%{fill:var(--c4)}70.83%,100%{fill:var(--ce)}}.c.c2y{fill:var(--c4);animation-name:c2y}.u{transform-origin:0 0;transform:scale(0,1);animation:none linear 30500ms infinite}@keyframes u0{3.92%{transform:scale(0.000,1)}3.94%,4.25%{transform:scale(0.111,1)}4.27%,6.22%{transform:scale(0.222,1)}6.24%,12.12%{transform:scale(0.333,1)}12.14%,15.73%{transform:scale(0.444,1)}15.75%,16.38%{transform:scale(0.556,1)}16.4%,17.37%{transform:scale(0.667,1)}17.39%,17.69%{transform:scale(0.778,1)}17.71%,19.99%{transform:scale(0.889,1)}20.01%,100%{transform:scale(1.000,1)}}.u.u0{fill:var(--c1);animation-name:u0;transform-origin:0.0px 0}@keyframes u1{21.3%{transform:scale(0.000,1)}21.32%,21.63%{transform:scale(0.019,1)}21.65%,21.96%{transform:scale(0.037,1)}21.98%,22.29%{transform:scale(0.056,1)}22.31%,22.61%{transform:scale(0.074,1)}22.63%,22.94%{transform:scale(0.093,1)}22.96%,23.27%{transform:scale(0.111,1)}23.29%,23.6%{transform:scale(0.130,1)}23.62%,24.91%{transform:scale(0.148,1)}24.93%,25.24%{transform:scale(0.167,1)}25.26%,25.56%{transform:scale(0.185,1)}25.58%,25.89%{transform:scale(0.204,1)}25.91%,26.22%{transform:scale(0.222,1)}26.24%,26.55%{transform:scale(0.241,1)}26.57%,26.88%{transform:scale(0.259,1)}26.9%,27.2%{transform:scale(0.278,1)}27.22%,27.53%{transform:scale(0.296,1)}27.55%,27.86%{transform:scale(0.315,1)}27.88%,28.19%{transform:scale(0.333,1)}28.21%,28.51%{transform:scale(0.352,1)}28.53%,28.84%{transform:scale(0.370,1)}28.86%,29.17%{transform:scale(0.389,1)}29.19%,29.5%{transform:scale(0.407,1)}29.52%,29.83%{transform:scale(0.426,1)}29.85%,30.15%{transform:scale(0.444,1)}30.17%,30.48%{transform:scale(0.463,1)}30.5%,30.81%{transform:scale(0.481,1)}30.83%,32.78%{transform:scale(0.500,1)}32.8%,33.1%{transform:scale(0.519,1)}33.12%,33.43%{transform:scale(0.537,1)}33.45%,33.76%{transform:scale(0.556,1)}33.78%,34.09%{transform:scale(0.574,1)}34.11%,34.42%{transform:scale(0.593,1)}34.44%,34.74%{transform:scale(0.611,1)}34.76%,35.07%{transform:scale(0.630,1)}35.09%,35.4%{transform:scale(0.648,1)}35.42%,35.73%{transform:scale(0.667,1)}35.75%,36.06%{transform:scale(0.685,1)}36.08%,36.38%{transform:scale(0.704,1)}36.4%,37.04%{transform:scale(0.722,1)}37.06%,37.37%{transform:scale(0.741,1)}37.39%,37.69%{transform:scale(0.759,1)}37.71%,39.33%{transform:scale(0.778,1)}39.35%,39.66%{transform:scale(0.796,1)}39.68%,39.99%{transform:scale(0.815,1)}40.01%,40.32%{transform:scale(0.833,1)}40.34%,40.65%{transform:scale(0.852,1)}40.67%,40.97%{transform:scale(0.870,1)}40.99%,41.3%{transform:scale(0.889,1)}41.32%,42.29%{transform:scale(0.907,1)}42.31%,42.61%{transform:scale(0.926,1)}42.63%,43.92%{transform:scale(0.944,1)}43.94%,50.81%{transform:scale(0.963,1)}50.83%,53.76%{transform:scale(0.981,1)}53.78%,100%{transform:scale(1.000,1)}}.u.u1{fill:var(--c2);animation-name:u1;transform-origin:71.3px 0}@keyframes u2{59.33%{transform:scale(0.000,1)}59.35%,64.58%{transform:scale(0.023,1)}64.6%,64.91%{transform:scale(0.045,1)}64.93%,65.89%{transform:scale(0.068,1)}65.91%,67.53%{transform:scale(0.091,1)}67.55%,68.84%{transform:scale(0.114,1)}68.86%,69.17%{transform:scale(0.136,1)}69.19%,69.5%{transform:scale(0.159,1)}69.52%,69.83%{transform:scale(0.182,1)}69.85%,70.15%{transform:scale(0.205,1)}70.17%,70.48%{transform:scale(0.227,1)}70.5%,70.81%{transform:scale(0.250,1)}70.83%,71.14%{transform:scale(0.273,1)}71.16%,71.47%{transform:scale(0.295,1)}71.49%,71.79%{transform:scale(0.318,1)}71.81%,72.12%{transform:scale(0.341,1)}72.14%,72.45%{transform:scale(0.364,1)}72.47%,72.78%{transform:scale(0.386,1)}72.8%,73.1%{transform:scale(0.409,1)}73.12%,73.43%{transform:scale(0.432,1)}73.45%,73.76%{transform:scale(0.455,1)}73.78%,74.09%{transform:scale(0.477,1)}74.11%,74.42%{transform:scale(0.500,1)}74.44%,74.74%{transform:scale(0.523,1)}74.76%,75.07%{transform:scale(0.545,1)}75.09%,75.4%{transform:scale(0.568,1)}75.42%,75.73%{transform:scale(0.591,1)}75.75%,76.06%{transform:scale(0.614,1)}76.08%,76.38%{transform:scale(0.636,1)}76.4%,77.37%{transform:scale(0.659,1)}77.39%,77.69%{transform:scale(0.682,1)}77.71%,78.02%{transform:scale(0.705,1)}78.04%,78.68%{transform:scale(0.727,1)}78.7%,79.01%{transform:scale(0.750,1)}79.03%,79.33%{transform:scale(0.773,1)}79.35%,79.66%{transform:scale(0.795,1)}79.68%,79.99%{transform:scale(0.818,1)}80.01%,80.32%{transform:scale(0.841,1)}80.34%,80.65%{transform:scale(0.864,1)}80.67%,80.97%{transform:scale(0.886,1)}80.99%,81.3%{transform:scale(0.909,1)}81.32%,81.63%{transform:scale(0.932,1)}81.65%,82.94%{transform:scale(0.955,1)}82.96%,87.53%{transform:scale(0.977,1)}87.55%,100%{transform:scale(1.000,1)}}.u.u2{fill:var(--c4);animation-name:u2;transform-origin:499.3px 0}.s{shape-rendering:geometricPrecision;fill:var(--cs);animation:none linear 30500ms infinite}@keyframes s0{0%,99.67%{transform:translate(0px,-16px)}0.33%{transform:translate(0px,0px)}3.93%{transform:translate(176px,0px)}4.26%{transform:translate(176px,16px)}4.92%{transform:translate(144px,16px)}6.23%{transform:translate(144px,80px)}11.48%{transform:translate(400px,80px)}12.13%{transform:translate(400px,48px)}15.74%{transform:translate(576px,48px)}16.07%{transform:translate(576px,64px)}16.39%{transform:translate(560px,64px)}16.72%,44.26%{transform:translate(560px,80px)}17.38%{transform:translate(592px,80px)}17.7%{transform:translate(592px,96px)}18.03%{transform:translate(608px,96px)}19.67%{transform:translate(608px,16px)}20%{transform:translate(592px,16px)}20.33%{transform:translate(592px,0px)}23.61%,83.93%{transform:translate(752px,0px)}23.93%{transform:translate(752px,-16px)}24.26%{transform:translate(736px,-16px)}24.92%{transform:translate(736px,16px)}26.23%{transform:translate(672px,16px)}26.56%{transform:translate(672px,32px)}27.87%{transform:translate(736px,32px)}28.2%{transform:translate(736px,48px)}29.84%{transform:translate(656px,48px)}30.16%,65.57%{transform:translate(656px,32px)}30.49%{transform:translate(640px,32px)}31.15%{transform:translate(640px,0px)}31.48%{transform:translate(624px,0px)}31.8%{transform:translate(624px,16px)}32.13%{transform:translate(640px,16px)}33.11%,41.64%{transform:translate(640px,64px)}33.77%{transform:translate(672px,64px)}34.1%{transform:translate(672px,80px)}35.41%,38.03%{transform:translate(736px,80px)}35.74%{transform:translate(736px,64px)}36.39%{transform:translate(704px,64px)}37.05%{transform:translate(704px,96px)}37.7%{transform:translate(736px,96px)}39.02%{transform:translate(688px,80px)}39.34%{transform:translate(688px,96px)}40%{transform:translate(656px,96px)}40.33%{transform:translate(656px,80px)}40.98%{transform:translate(624px,80px)}41.31%,64.26%{transform:translate(624px,64px)}42.3%{transform:translate(640px,96px)}43.93%{transform:translate(560px,96px)}48.2%{transform:translate(368px,80px)}48.52%{transform:translate(368px,64px)}53.11%{transform:translate(144px,64px)}53.77%{transform:translate(144px,96px)}58.69%{transform:translate(384px,96px)}59.34%{transform:translate(384px,64px)}64.92%{transform:translate(624px,32px)}65.9%{transform:translate(656px,16px)}66.56%{transform:translate(688px,16px)}67.54%{transform:translate(688px,64px)}70.16%{transform:translate(816px,64px)}70.49%{transform:translate(816px,48px)}70.82%{transform:translate(832px,48px)}71.8%{transform:translate(832px,0px)}73.11%{transform:translate(768px,0px)}73.44%,76.72%{transform:translate(768px,16px)}74.43%{transform:translate(816px,16px)}74.75%{transform:translate(816px,32px)}76.07%{transform:translate(752px,32px)}76.39%{transform:translate(752px,16px)}77.38%,82.62%{transform:translate(768px,48px)}78.03%{transform:translate(800px,48px)}78.69%{transform:translate(800px,80px)}79.02%{transform:translate(816px,80px)}79.34%{transform:translate(816px,96px)}80%{transform:translate(784px,96px)}80.33%{transform:translate(784px,80px)}80.98%{transform:translate(752px,80px)}81.31%{transform:translate(752px,96px)}81.64%{transform:translate(768px,96px)}82.95%{transform:translate(752px,48px)}98.03%{transform:translate(64px,0px)}98.36%{transform:translate(64px,-16px)}}.s.s0{transform:translate(0px,-16px);animation-name:s0}@keyframes s1{0%,99.67%{transform:translate(16px,-16px)}0.33%{transform:translate(0px,-16px)}0.66%{transform:translate(0px,0px)}4.26%{transform:translate(176px,0px)}4.59%{transform:translate(176px,16px)}5.25%{transform:translate(144px,16px)}6.56%{transform:translate(144px,80px)}11.8%{transform:translate(400px,80px)}12.46%{transform:translate(400px,48px)}16.07%{transform:translate(576px,48px)}16.39%{transform:translate(576px,64px)}16.72%{transform:translate(560px,64px)}17.05%,44.59%{transform:translate(560px,80px)}17.7%{transform:translate(592px,80px)}18.03%{transform:translate(592px,96px)}18.36%{transform:translate(608px,96px)}20%{transform:translate(608px,16px)}20.33%{transform:translate(592px,16px)}20.66%{transform:translate(592px,0px)}23.93%,84.26%{transform:translate(752px,0px)}24.26%{transform:translate(752px,-16px)}24.59%{transform:translate(736px,-16px)}25.25%{transform:translate(736px,16px)}26.56%{transform:translate(672px,16px)}26.89%{transform:translate(672px,32px)}28.2%{transform:translate(736px,32px)}28.52%{transform:translate(736px,48px)}30.16%{transform:translate(656px,48px)}30.49%,65.9%{transform:translate(656px,32px)}30.82%{transform:translate(640px,32px)}31.48%{transform:translate(640px,0px)}31.8%{transform:translate(624px,0px)}32.13%{transform:translate(624px,16px)}32.46%{transform:translate(640px,16px)}33.44%,41.97%{transform:translate(640px,64px)}34.1%{transform:translate(672px,64px)}34.43%{transform:translate(672px,80px)}35.74%,38.36%{transform:translate(736px,80px)}36.07%{transform:translate(736px,64px)}36.72%{transform:translate(704px,64px)}37.38%{transform:translate(704px,96px)}38.03%{transform:translate(736px,96px)}39.34%{transform:translate(688px,80px)}39.67%{transform:translate(688px,96px)}40.33%{transform:translate(656px,96px)}40.66%{transform:translate(656px,80px)}41.31%{transform:translate(624px,80px)}41.64%,64.59%{transform:translate(624px,64px)}42.62%{transform:translate(640px,96px)}44.26%{transform:translate(560px,96px)}48.52%{transform:translate(368px,80px)}48.85%{transform:translate(368px,64px)}53.44%{transform:translate(144px,64px)}54.1%{transform:translate(144px,96px)}59.02%{transform:translate(384px,96px)}59.67%{transform:translate(384px,64px)}65.25%{transform:translate(624px,32px)}66.23%{transform:translate(656px,16px)}66.89%{transform:translate(688px,16px)}67.87%{transform:translate(688px,64px)}70.49%{transform:translate(816px,64px)}70.82%{transform:translate(816px,48px)}71.15%{transform:translate(832px,48px)}72.13%{transform:translate(832px,0px)}73.44%{transform:translate(768px,0px)}73.77%,77.05%{transform:translate(768px,16px)}74.75%{transform:translate(816px,16px)}75.08%{transform:translate(816px,32px)}76.39%{transform:translate(752px,32px)}76.72%{transform:translate(752px,16px)}77.7%,82.95%{transform:translate(768px,48px)}78.36%{transform:translate(800px,48px)}79.02%{transform:translate(800px,80px)}79.34%{transform:translate(816px,80px)}79.67%{transform:translate(816px,96px)}80.33%{transform:translate(784px,96px)}80.66%{transform:translate(784px,80px)}81.31%{transform:translate(752px,80px)}81.64%{transform:translate(752px,96px)}81.97%{transform:translate(768px,96px)}83.28%{transform:translate(752px,48px)}98.36%{transform:translate(64px,0px)}98.69%{transform:translate(64px,-16px)}}.s.s1{transform:translate(16px,-16px);animation-name:s1}@keyframes s2{0%,99.67%{transform:translate(32px,-16px)}0.66%{transform:translate(0px,-16px)}0.98%{transform:translate(0px,0px)}4.59%{transform:translate(176px,0px)}4.92%{transform:translate(176px,16px)}5.57%{transform:translate(144px,16px)}6.89%{transform:translate(144px,80px)}12.13%{transform:translate(400px,80px)}12.79%{transform:translate(400px,48px)}16.39%{transform:translate(576px,48px)}16.72%{transform:translate(576px,64px)}17.05%{transform:translate(560px,64px)}17.38%,44.92%{transform:translate(560px,80px)}18.03%{transform:translate(592px,80px)}18.36%{transform:translate(592px,96px)}18.69%{transform:translate(608px,96px)}20.33%{transform:translate(608px,16px)}20.66%{transform:translate(592px,16px)}20.98%{transform:translate(592px,0px)}24.26%,84.59%{transform:translate(752px,0px)}24.59%{transform:translate(752px,-16px)}24.92%{transform:translate(736px,-16px)}25.57%{transform:translate(736px,16px)}26.89%{transform:translate(672px,16px)}27.21%{transform:translate(672px,32px)}28.52%{transform:translate(736px,32px)}28.85%{transform:translate(736px,48px)}30.49%{transform:translate(656px,48px)}30.82%,66.23%{transform:translate(656px,32px)}31.15%{transform:translate(640px,32px)}31.8%{transform:translate(640px,0px)}32.13%{transform:translate(624px,0px)}32.46%{transform:translate(624px,16px)}32.79%{transform:translate(640px,16px)}33.77%,42.3%{transform:translate(640px,64px)}34.43%{transform:translate(672px,64px)}34.75%{transform:translate(672px,80px)}36.07%,38.69%{transform:translate(736px,80px)}36.39%{transform:translate(736px,64px)}37.05%{transform:translate(704px,64px)}37.7%{transform:translate(704px,96px)}38.36%{transform:translate(736px,96px)}39.67%{transform:translate(688px,80px)}40%{transform:translate(688px,96px)}40.66%{transform:translate(656px,96px)}40.98%{transform:translate(656px,80px)}41.64%{transform:translate(624px,80px)}41.97%,64.92%{transform:translate(624px,64px)}42.95%{transform:translate(640px,96px)}44.59%{transform:translate(560px,96px)}48.85%{transform:translate(368px,80px)}49.18%{transform:translate(368px,64px)}53.77%{transform:translate(144px,64px)}54.43%{transform:translate(144px,96px)}59.34%{transform:translate(384px,96px)}60%{transform:translate(384px,64px)}65.57%{transform:translate(624px,32px)}66.56%{transform:translate(656px,16px)}67.21%{transform:translate(688px,16px)}68.2%{transform:translate(688px,64px)}70.82%{transform:translate(816px,64px)}71.15%{transform:translate(816px,48px)}71.48%{transform:translate(832px,48px)}72.46%{transform:translate(832px,0px)}73.77%{transform:translate(768px,0px)}74.1%,77.38%{transform:translate(768px,16px)}75.08%{transform:translate(816px,16px)}75.41%{transform:translate(816px,32px)}76.72%{transform:translate(752px,32px)}77.05%{transform:translate(752px,16px)}78.03%,83.28%{transform:translate(768px,48px)}78.69%{transform:translate(800px,48px)}79.34%{transform:translate(800px,80px)}79.67%{transform:translate(816px,80px)}80%{transform:translate(816px,96px)}80.66%{transform:translate(784px,96px)}80.98%{transform:translate(784px,80px)}81.64%{transform:translate(752px,80px)}81.97%{transform:translate(752px,96px)}82.3%{transform:translate(768px,96px)}83.61%{transform:translate(752px,48px)}98.69%{transform:translate(64px,0px)}99.02%{transform:translate(64px,-16px)}}.s.s2{transform:translate(32px,-16px);animation-name:s2}@keyframes s3{0%,99.67%{transform:translate(48px,-16px)}0.98%{transform:translate(0px,-16px)}1.31%{transform:translate(0px,0px)}4.92%{transform:translate(176px,0px)}5.25%{transform:translate(176px,16px)}5.9%{transform:translate(144px,16px)}7.21%{transform:translate(144px,80px)}12.46%{transform:translate(400px,80px)}13.11%{transform:translate(400px,48px)}16.72%{transform:translate(576px,48px)}17.05%{transform:translate(576px,64px)}17.38%{transform:translate(560px,64px)}17.7%,45.25%{transform:translate(560px,80px)}18.36%{transform:translate(592px,80px)}18.69%{transform:translate(592px,96px)}19.02%{transform:translate(608px,96px)}20.66%{transform:translate(608px,16px)}20.98%{transform:translate(592px,16px)}21.31%{transform:translate(592px,0px)}24.59%,84.92%{transform:translate(752px,0px)}24.92%{transform:translate(752px,-16px)}25.25%{transform:translate(736px,-16px)}25.9%{transform:translate(736px,16px)}27.21%{transform:translate(672px,16px)}27.54%{transform:translate(672px,32px)}28.85%{transform:translate(736px,32px)}29.18%{transform:translate(736px,48px)}30.82%{transform:translate(656px,48px)}31.15%,66.56%{transform:translate(656px,32px)}31.48%{transform:translate(640px,32px)}32.13%{transform:translate(640px,0px)}32.46%{transform:translate(624px,0px)}32.79%{transform:translate(624px,16px)}33.11%{transform:translate(640px,16px)}34.1%,42.62%{transform:translate(640px,64px)}34.75%{transform:translate(672px,64px)}35.08%{transform:translate(672px,80px)}36.39%,39.02%{transform:translate(736px,80px)}36.72%{transform:translate(736px,64px)}37.38%{transform:translate(704px,64px)}38.03%{transform:translate(704px,96px)}38.69%{transform:translate(736px,96px)}40%{transform:translate(688px,80px)}40.33%{transform:translate(688px,96px)}40.98%{transform:translate(656px,96px)}41.31%{transform:translate(656px,80px)}41.97%{transform:translate(624px,80px)}42.3%,65.25%{transform:translate(624px,64px)}43.28%{transform:translate(640px,96px)}44.92%{transform:translate(560px,96px)}49.18%{transform:translate(368px,80px)}49.51%{transform:translate(368px,64px)}54.1%{transform:translate(144px,64px)}54.75%{transform:translate(144px,96px)}59.67%{transform:translate(384px,96px)}60.33%{transform:translate(384px,64px)}65.9%{transform:translate(624px,32px)}66.89%{transform:translate(656px,16px)}67.54%{transform:translate(688px,16px)}68.52%{transform:translate(688px,64px)}71.15%{transform:translate(816px,64px)}71.48%{transform:translate(816px,48px)}71.8%{transform:translate(832px,48px)}72.79%{transform:translate(832px,0px)}74.1%{transform:translate(768px,0px)}74.43%,77.7%{transform:translate(768px,16px)}75.41%{transform:translate(816px,16px)}75.74%{transform:translate(816px,32px)}77.05%{transform:translate(752px,32px)}77.38%{transform:translate(752px,16px)}78.36%,83.61%{transform:translate(768px,48px)}79.02%{transform:translate(800px,48px)}79.67%{transform:translate(800px,80px)}80%{transform:translate(816px,80px)}80.33%{transform:translate(816px,96px)}80.98%{transform:translate(784px,96px)}81.31%{transform:translate(784px,80px)}81.97%{transform:translate(752px,80px)}82.3%{transform:translate(752px,96px)}82.62%{transform:translate(768px,96px)}83.93%{transform:translate(752px,48px)}99.02%{transform:translate(64px,0px)}99.34%{transform:translate(64px,-16px)}}.s.s3{transform:translate(48px,-16px);animation-name:s3}</style><rect class="c" x="2" y="2" rx="2" ry="2"/><rect class="c" x="2" y="18" rx="2" ry="2"/><rect class="c" x="2" y="34" rx="2" ry="2"/><rect class="c" x="2" y="50" rx="2" ry="2"/><rect class="c" x="2" y="66" rx="2" ry="2"/><rect class="c" x="2" y="82" rx="2" ry="2"/><rect class="c" x="2" y="98" rx="2" ry="2"/><rect class="c" x="18" y="2" rx="2" ry="2"/><rect class="c" x="18" y="18" rx="2" ry="2"/><rect class="c" x="18" y="34" rx="2" ry="2"/><rect class="c" x="18" y="50" rx="2" ry="2"/><rect class="c" x="18" y="66" rx="2" ry="2"/><rect class="c" x="18" y="82" rx="2" ry="2"/><rect class="c" x="18" y="98" rx="2" ry="2"/><rect class="c" x="34" y="2" rx="2" ry="2"/><rect class="c" x="34" y="18" rx="2" ry="2"/><rect class="c" x="34" y="34" rx="2" ry="2"/><rect class="c" x="34" y="50" rx="2" ry="2"/><rect class="c" x="34" y="66" rx="2" ry="2"/><rect class="c" x="34" y="82" rx="2" ry="2"/><rect class="c" x="34" y="98" rx="2" ry="2"/><rect class="c" x="50" y="2" rx="2" ry="2"/><rect class="c" x="50" y="18" rx="2" ry="2"/><rect class="c" x="50" y="34" rx="2" ry="2"/><rect class="c" x="50" y="50" rx="2" ry="2"/><rect class="c" x="50" y="66" rx="2" ry="2"/><rect class="c" x="50" y="82" rx="2" ry="2"/><rect class="c" x="50" y="98" rx="2" ry="2"/><rect class="c" x="66" y="2" rx="2" ry="2"/><rect class="c" x="66" y="18" rx="2" ry="2"/><rect class="c" x="66" y="34" rx="2" ry="2"/><rect class="c" x="66" y="50" rx="2" ry="2"/><rect class="c" x="66" y="66" rx="2" ry="2"/><rect class="c" x="66" y="82" rx="2" ry="2"/><rect class="c" x="66" y="98" rx="2" ry="2"/><rect class="c" x="82" y="2" rx="2" ry="2"/><rect class="c" x="82" y="18" rx="2" ry="2"/><rect class="c" x="82" y="34" rx="2" ry="2"/><rect class="c" x="82" y="50" rx="2" ry="2"/><rect class="c" x="82" y="66" rx="2" ry="2"/><rect class="c" x="82" y="82" rx="2" ry="2"/><rect class="c" x="82" y="98" rx="2" ry="2"/><rect class="c" x="98" y="2" rx="2" ry="2"/><rect class="c" x="98" y="18" rx="2" ry="2"/><rect class="c" x="98" y="34" rx="2" ry="2"/><rect class="c" x="98" y="50" rx="2" ry="2"/><rect class="c" x="98" y="66" rx="2" ry="2"/><rect class="c" x="98" y="82" rx="2" ry="2"/><rect class="c" x="98" y="98" rx="2" ry="2"/><rect class="c" x="114" y="2" rx="2" ry="2"/><rect class="c" x="114" y="18" rx="2" ry="2"/><rect class="c" x="114" y="34" rx="2" ry="2"/><rect class="c" x="114" y="50" rx="2" ry="2"/><rect class="c" x="114" y="66" rx="2" ry="2"/><rect class="c" x="114" y="82" rx="2" ry="2"/><rect class="c" x="114" y="98" rx="2" ry="2"/><rect class="c" x="130" y="2" rx="2" ry="2"/><rect class="c" x="130" y="18" rx="2" ry="2"/><rect class="c" x="130" y="34" rx="2" ry="2"/><rect class="c" x="130" y="50" rx="2" ry="2"/><rect class="c" x="130" y="66" rx="2" ry="2"/><rect class="c" x="130" y="82" rx="2" ry="2"/><rect class="c" x="130" y="98" rx="2" ry="2"/><rect class="c" x="146" y="2" rx="2" ry="2"/><rect class="c" x="146" y="18" rx="2" ry="2"/><rect class="c" x="146" y="34" rx="2" ry="2"/><rect class="c" x="146" y="50" rx="2" ry="2"/><rect class="c" x="146" y="66" rx="2" ry="2"/><rect class="c c0" x="146" y="82" rx="2" ry="2"/><rect class="c c1" x="146" y="98" rx="2" ry="2"/><rect class="c" x="162" y="2" rx="2" ry="2"/><rect class="c" x="162" y="18" rx="2" ry="2"/><rect class="c" x="162" y="34" rx="2" ry="2"/><rect class="c" x="162" y="50" rx="2" ry="2"/><rect class="c" x="162" y="66" rx="2" ry="2"/><rect class="c" x="162" y="82" rx="2" ry="2"/><rect class="c" x="162" y="98" rx="2" ry="2"/><rect class="c c2" x="178" y="2" rx="2" ry="2"/><rect class="c c3" x="178" y="18" rx="2" ry="2"/><rect class="c" x="178" y="34" rx="2" ry="2"/><rect class="c" x="178" y="50" rx="2" ry="2"/><rect class="c" x="178" y="66" rx="2" ry="2"/><rect class="c" x="178" y="82" rx="2" ry="2"/><rect class="c" x="178" y="98" rx="2" ry="2"/><rect class="c" x="194" y="2" rx="2" ry="2"/><rect class="c" x="194" y="18" rx="2" ry="2"/><rect class="c" x="194" y="34" rx="2" ry="2"/><rect class="c" x="194" y="50" rx="2" ry="2"/><rect class="c" x="194" y="66" rx="2" ry="2"/><rect class="c" x="194" y="82" rx="2" ry="2"/><rect class="c" x="194" y="98" rx="2" ry="2"/><rect class="c" x="210" y="2" rx="2" ry="2"/><rect class="c" x="210" y="18" rx="2" ry="2"/><rect class="c" x="210" y="34" rx="2" ry="2"/><rect class="c" x="210" y="50" rx="2" ry="2"/><rect class="c" x="210" y="66" rx="2" ry="2"/><rect class="c" x="210" y="82" rx="2" ry="2"/><rect class="c" x="210" y="98" rx="2" ry="2"/><rect class="c" x="226" y="2" rx="2" ry="2"/><rect class="c" x="226" y="18" rx="2" ry="2"/><rect class="c" x="226" y="34" rx="2" ry="2"/><rect class="c" x="226" y="50" rx="2" ry="2"/><rect class="c" x="226" y="66" rx="2" ry="2"/><rect class="c" x="226" y="82" rx="2" ry="2"/><rect class="c" x="226" y="98" rx="2" ry="2"/><rect class="c" x="242" y="2" rx="2" ry="2"/><rect class="c" x="242" y="18" rx="2" ry="2"/><rect class="c" x="242" y="34" rx="2" ry="2"/><rect class="c" x="242" y="50" rx="2" ry="2"/><rect class="c" x="242" y="66" rx="2" ry="2"/><rect class="c" x="242" y="82" rx="2" ry="2"/><rect class="c" x="242" y="98" rx="2" ry="2"/><rect class="c" x="258" y="2" rx="2" ry="2"/><rect class="c" x="258" y="18" rx="2" ry="2"/><rect class="c" x="258" y="34" rx="2" ry="2"/><rect class="c" x="258" y="50" rx="2" ry="2"/><rect class="c c4" x="258" y="66" rx="2" ry="2"/><rect class="c" x="258" y="82" rx="2" ry="2"/><rect class="c" x="258" y="98" rx="2" ry="2"/><rect class="c" x="274" y="2" rx="2" ry="2"/><rect class="c" x="274" y="18" rx="2" ry="2"/><rect class="c" x="274" y="34" rx="2" ry="2"/><rect class="c" x="274" y="50" rx="2" ry="2"/><rect class="c" x="274" y="66" rx="2" ry="2"/><rect class="c" x="274" y="82" rx="2" ry="2"/><rect class="c" x="274" y="98" rx="2" ry="2"/><rect class="c" x="290" y="2" rx="2" ry="2"/><rect class="c" x="290" y="18" rx="2" ry="2"/><rect class="c" x="290" y="34" rx="2" ry="2"/><rect class="c" x="290" y="50" rx="2" ry="2"/><rect class="c" x="290" y="66" rx="2" ry="2"/><rect class="c" x="290" y="82" rx="2" ry="2"/><rect class="c" x="290" y="98" rx="2" ry="2"/><rect class="c" x="306" y="2" rx="2" ry="2"/><rect class="c" x="306" y="18" rx="2" ry="2"/><rect class="c" x="306" y="34" rx="2" ry="2"/><rect class="c" x="306" y="50" rx="2" ry="2"/><rect class="c" x="306" y="66" rx="2" ry="2"/><rect class="c" x="306" y="82" rx="2" ry="2"/><rect class="c" x="306" y="98" rx="2" ry="2"/><rect class="c" x="322" y="2" rx="2" ry="2"/><rect class="c" x="322" y="18" rx="2" ry="2"/><rect class="c" x="322" y="34" rx="2" ry="2"/><rect class="c" x="322" y="50" rx="2" ry="2"/><rect class="c" x="322" y="66" rx="2" ry="2"/><rect class="c" x="322" y="82" rx="2" ry="2"/><rect class="c" x="322" y="98" rx="2" ry="2"/><rect class="c" x="338" y="2" rx="2" ry="2"/><rect class="c" x="338" y="18" rx="2" ry="2"/><rect class="c" x="338" y="34" rx="2" ry="2"/><rect class="c" x="338" y="50" rx="2" ry="2"/><rect class="c" x="338" y="66" rx="2" ry="2"/><rect class="c" x="338" y="82" rx="2" ry="2"/><rect class="c" x="338" y="98" rx="2" ry="2"/><rect class="c" x="354" y="2" rx="2" ry="2"/><rect class="c" x="354" y="18" rx="2" ry="2"/><rect class="c" x="354" y="34" rx="2" ry="2"/><rect class="c" x="354" y="50" rx="2" ry="2"/><rect class="c" x="354" y="66" rx="2" ry="2"/><rect class="c" x="354" y="82" rx="2" ry="2"/><rect class="c" x="354" y="98" rx="2" ry="2"/><rect class="c" x="370" y="2" rx="2" ry="2"/><rect class="c" x="370" y="18" rx="2" ry="2"/><rect class="c" x="370" y="34" rx="2" ry="2"/><rect class="c" x="370" y="50" rx="2" ry="2"/><rect class="c" x="370" y="66" rx="2" ry="2"/><rect class="c" x="370" y="82" rx="2" ry="2"/><rect class="c" x="370" y="98" rx="2" ry="2"/><rect class="c" x="386" y="2" rx="2" ry="2"/><rect class="c" x="386" y="18" rx="2" ry="2"/><rect class="c" x="386" y="34" rx="2" ry="2"/><rect class="c" x="386" y="50" rx="2" ry="2"/><rect class="c c5" x="386" y="66" rx="2" ry="2"/><rect class="c" x="386" y="82" rx="2" ry="2"/><rect class="c" x="386" y="98" rx="2" ry="2"/><rect class="c" x="402" y="2" rx="2" ry="2"/><rect class="c" x="402" y="18" rx="2" ry="2"/><rect class="c" x="402" y="34" rx="2" ry="2"/><rect class="c c6" x="402" y="50" rx="2" ry="2"/><rect class="c" x="402" y="66" rx="2" ry="2"/><rect class="c" x="402" y="82" rx="2" ry="2"/><rect class="c" x="402" y="98" rx="2" ry="2"/><rect class="c" x="418" y="2" rx="2" ry="2"/><rect class="c" x="418" y="18" rx="2" ry="2"/><rect class="c" x="418" y="34" rx="2" ry="2"/><rect class="c" x="418" y="50" rx="2" ry="2"/><rect class="c" x="418" y="66" rx="2" ry="2"/><rect class="c" x="418" y="82" rx="2" ry="2"/><rect class="c" x="418" y="98" rx="2" ry="2"/><rect class="c" x="434" y="2" rx="2" ry="2"/><rect class="c" x="434" y="18" rx="2" ry="2"/><rect class="c" x="434" y="34" rx="2" ry="2"/><rect class="c" x="434" y="50" rx="2" ry="2"/><rect class="c" x="434" y="66" rx="2" ry="2"/><rect class="c" x="434" y="82" rx="2" ry="2"/><rect class="c" x="434" y="98" rx="2" ry="2"/><rect class="c" x="450" y="2" rx="2" ry="2"/><rect class="c" x="450" y="18" rx="2" ry="2"/><rect class="c" x="450" y="34" rx="2" ry="2"/><rect class="c" x="450" y="50" rx="2" ry="2"/><rect class="c" x="450" y="66" rx="2" ry="2"/><rect class="c" x="450" y="82" rx="2" ry="2"/><rect class="c" x="450" y="98" rx="2" ry="2"/><rect class="c" x="466" y="2" rx="2" ry="2"/><rect class="c" x="466" y="18" rx="2" ry="2"/><rect class="c" x="466" y="34" rx="2" ry="2"/><rect class="c" x="466" y="50" rx="2" ry="2"/><rect class="c" x="466" y="66" rx="2" ry="2"/><rect class="c" x="466" y="82" rx="2" ry="2"/><rect class="c" x="466" y="98" rx="2" ry="2"/><rect class="c" x="482" y="2" rx="2" ry="2"/><rect class="c" x="482" y="18" rx="2" ry="2"/><rect class="c" x="482" y="34" rx="2" ry="2"/><rect class="c" x="482" y="50" rx="2" ry="2"/><rect class="c" x="482" y="66" rx="2" ry="2"/><rect class="c" x="482" y="82" rx="2" ry="2"/><rect class="c" x="482" y="98" rx="2" ry="2"/><rect class="c" x="498" y="2" rx="2" ry="2"/><rect class="c" x="498" y="18" rx="2" ry="2"/><rect class="c" x="498" y="34" rx="2" ry="2"/><rect class="c" x="498" y="50" rx="2" ry="2"/><rect class="c" x="498" y="66" rx="2" ry="2"/><rect class="c" x="498" y="82" rx="2" ry="2"/><rect class="c" x="498" y="98" rx="2" ry="2"/><rect class="c" x="514" y="2" rx="2" ry="2"/><rect class="c" x="514" y="18" rx="2" ry="2"/><rect class="c" x="514" y="34" rx="2" ry="2"/><rect class="c" x="514" y="50" rx="2" ry="2"/><rect class="c" x="514" y="66" rx="2" ry="2"/><rect class="c" x="514" y="82" rx="2" ry="2"/><rect class="c" x="514" y="98" rx="2" ry="2"/><rect class="c" x="530" y="2" rx="2" ry="2"/><rect class="c" x="530" y="18" rx="2" ry="2"/><rect class="c" x="530" y="34" rx="2" ry="2"/><rect class="c" x="530" y="50" rx="2" ry="2"/><rect class="c" x="530" y="66" rx="2" ry="2"/><rect class="c" x="530" y="82" rx="2" ry="2"/><rect class="c" x="530" y="98" rx="2" ry="2"/><rect class="c" x="546" y="2" rx="2" ry="2"/><rect class="c" x="546" y="18" rx="2" ry="2"/><rect class="c" x="546" y="34" rx="2" ry="2"/><rect class="c" x="546" y="50" rx="2" ry="2"/><rect class="c" x="546" y="66" rx="2" ry="2"/><rect class="c" x="546" y="82" rx="2" ry="2"/><rect class="c" x="546" y="98" rx="2" ry="2"/><rect class="c" x="562" y="2" rx="2" ry="2"/><rect class="c" x="562" y="18" rx="2" ry="2"/><rect class="c" x="562" y="34" rx="2" ry="2"/><rect class="c" x="562" y="50" rx="2" ry="2"/><rect class="c c7" x="562" y="66" rx="2" ry="2"/><rect class="c" x="562" y="82" rx="2" ry="2"/><rect class="c c8" x="562" y="98" rx="2" ry="2"/><rect class="c c9" x="578" y="2" rx="2" ry="2"/><rect class="c" x="578" y="18" rx="2" ry="2"/><rect class="c" x="578" y="34" rx="2" ry="2"/><rect class="c ca" x="578" y="50" rx="2" ry="2"/><rect class="c" x="578" y="66" rx="2" ry="2"/><rect class="c" x="578" y="82" rx="2" ry="2"/><rect class="c" x="578" y="98" rx="2" ry="2"/><rect class="c" x="594" y="2" rx="2" ry="2"/><rect class="c cb" x="594" y="18" rx="2" ry="2"/><rect class="c" x="594" y="34" rx="2" ry="2"/><rect class="c" x="594" y="50" rx="2" ry="2"/><rect class="c" x="594" y="66" rx="2" ry="2"/><rect class="c cc" x="594" y="82" rx="2" ry="2"/><rect class="c cd" x="594" y="98" rx="2" ry="2"/><rect class="c" x="610" y="2" rx="2" ry="2"/><rect class="c" x="610" y="18" rx="2" ry="2"/><rect class="c" x="610" y="34" rx="2" ry="2"/><rect class="c" x="610" y="50" rx="2" ry="2"/><rect class="c" x="610" y="66" rx="2" ry="2"/><rect class="c" x="610" y="82" rx="2" ry="2"/><rect class="c" x="610" y="98" rx="2" ry="2"/><rect class="c" x="626" y="2" rx="2" ry="2"/><rect class="c" x="626" y="18" rx="2" ry="2"/><rect class="c ce" x="626" y="34" rx="2" ry="2"/><rect class="c cf" x="626" y="50" rx="2" ry="2"/><rect class="c cg" x="626" y="66" rx="2" ry="2"/><rect class="c ch" x="626" y="82" rx="2" ry="2"/><rect class="c ci" x="626" y="98" rx="2" ry="2"/><rect class="c cj" x="642" y="2" rx="2" ry="2"/><rect class="c ck" x="642" y="18" rx="2" ry="2"/><rect class="c cl" x="642" y="34" rx="2" ry="2"/><rect class="c cm" x="642" y="50" rx="2" ry="2"/><rect class="c cn" x="642" y="66" rx="2" ry="2"/><rect class="c co" x="642" y="82" rx="2" ry="2"/><rect class="c cp" x="642" y="98" rx="2" ry="2"/><rect class="c cq" x="658" y="2" rx="2" ry="2"/><rect class="c cr" x="658" y="18" rx="2" ry="2"/><rect class="c cs" x="658" y="34" rx="2" ry="2"/><rect class="c ct" x="658" y="50" rx="2" ry="2"/><rect class="c cu" x="658" y="66" rx="2" ry="2"/><rect class="c cv" x="658" y="82" rx="2" ry="2"/><rect class="c cw" x="658" y="98" rx="2" ry="2"/><rect class="c cx" x="674" y="2" rx="2" ry="2"/><rect class="c cy" x="674" y="18" rx="2" ry="2"/><rect class="c cz" x="674" y="34" rx="2" ry="2"/><rect class="c c10" x="674" y="50" rx="2" ry="2"/><rect class="c c11" x="674" y="66" rx="2" ry="2"/><rect class="c c12" x="674" y="82" rx="2" ry="2"/><rect class="c c13" x="674" y="98" rx="2" ry="2"/><rect class="c c14" x="690" y="2" rx="2" ry="2"/><rect class="c c15" x="690" y="18" rx="2" ry="2"/><rect class="c c16" x="690" y="34" rx="2" ry="2"/><rect class="c c17" x="690" y="50" rx="2" ry="2"/><rect class="c c18" x="690" y="66" rx="2" ry="2"/><rect class="c c19" x="690" y="82" rx="2" ry="2"/><rect class="c c1a" x="690" y="98" rx="2" ry="2"/><rect class="c c1b" x="706" y="2" rx="2" ry="2"/><rect class="c c1c" x="706" y="18" rx="2" ry="2"/><rect class="c c1d" x="706" y="34" rx="2" ry="2"/><rect class="c c1e" x="706" y="50" rx="2" ry="2"/><rect class="c c1f" x="706" y="66" rx="2" ry="2"/><rect class="c c1g" x="706" y="82" rx="2" ry="2"/><rect class="c c1h" x="706" y="98" rx="2" ry="2"/><rect class="c c1i" x="722" y="2" rx="2" ry="2"/><rect class="c c1j" x="722" y="18" rx="2" ry="2"/><rect class="c c1k" x="722" y="34" rx="2" ry="2"/><rect class="c c1l" x="722" y="50" rx="2" ry="2"/><rect class="c c1m" x="722" y="66" rx="2" ry="2"/><rect class="c c1n" x="722" y="82" rx="2" ry="2"/><rect class="c c1o" x="722" y="98" rx="2" ry="2"/><rect class="c c1p" x="738" y="2" rx="2" ry="2"/><rect class="c c1q" x="738" y="18" rx="2" ry="2"/><rect class="c c1r" x="738" y="34" rx="2" ry="2"/><rect class="c c1s" x="738" y="50" rx="2" ry="2"/><rect class="c c1t" x="738" y="66" rx="2" ry="2"/><rect class="c c1u" x="738" y="82" rx="2" ry="2"/><rect class="c c1v" x="738" y="98" rx="2" ry="2"/><rect class="c c1w" x="754" y="2" rx="2" ry="2"/><rect class="c c1x" x="754" y="18" rx="2" ry="2"/><rect class="c c1y" x="754" y="34" rx="2" ry="2"/><rect class="c c1z" x="754" y="50" rx="2" ry="2"/><rect class="c c20" x="754" y="66" rx="2" ry="2"/><rect class="c c21" x="754" y="82" rx="2" ry="2"/><rect class="c c22" x="754" y="98" rx="2" ry="2"/><rect class="c c23" x="770" y="2" rx="2" ry="2"/><rect class="c c24" x="770" y="18" rx="2" ry="2"/><rect class="c c25" x="770" y="34" rx="2" ry="2"/><rect class="c c26" x="770" y="50" rx="2" ry="2"/><rect class="c c27" x="770" y="66" rx="2" ry="2"/><rect class="c c28" x="770" y="82" rx="2" ry="2"/><rect class="c c29" x="770" y="98" rx="2" ry="2"/><rect class="c c2a" x="786" y="2" rx="2" ry="2"/><rect class="c c2b" x="786" y="18" rx="2" ry="2"/><rect class="c c2c" x="786" y="34" rx="2" ry="2"/><rect class="c c2d" x="786" y="50" rx="2" ry="2"/><rect class="c c2e" x="786" y="66" rx="2" ry="2"/><rect class="c c2f" x="786" y="82" rx="2" ry="2"/><rect class="c c2g" x="786" y="98" rx="2" ry="2"/><rect class="c c2h" x="802" y="2" rx="2" ry="2"/><rect class="c c2i" x="802" y="18" rx="2" ry="2"/><rect class="c c2j" x="802" y="34" rx="2" ry="2"/><rect class="c c2k" x="802" y="50" rx="2" ry="2"/><rect class="c c2l" x="802" y="66" rx="2" ry="2"/><rect class="c c2m" x="802" y="82" rx="2" ry="2"/><rect class="c c2n" x="802" y="98" rx="2" ry="2"/><rect class="c c2o" x="818" y="2" rx="2" ry="2"/><rect class="c c2p" x="818" y="18" rx="2" ry="2"/><rect class="c c2q" x="818" y="34" rx="2" ry="2"/><rect class="c c2r" x="818" y="50" rx="2" ry="2"/><rect class="c c2s" x="818" y="66" rx="2" ry="2"/><rect class="c c2t" x="818" y="82" rx="2" ry="2"/><rect class="c c2u" x="818" y="98" rx="2" ry="2"/><rect class="c c2v" x="834" y="2" rx="2" ry="2"/><rect class="c c2w" x="834" y="18" rx="2" ry="2"/><rect class="c c2x" x="834" y="34" rx="2" ry="2"/><rect class="c c2y" x="834" y="50" rx="2" ry="2"/><rect class="u u0" height="12" width="71.9" x="0.0" y="144"/><rect class="u u1" height="12" width="428.6" x="71.3" y="144"/><rect class="u u2" height="12" width="349.3" x="499.3" y="144"/><rect class="s s0" x="0.8" y="0.8" width="14.4" height="14.4" rx="4.5" ry="4.5"/><rect class="s s1" x="1.8" y="1.8" width="12.3" height="12.3" rx="4.1" ry="4.1"/><rect class="s s2" x="2.6" y="2.6" width="10.8" height="10.8" rx="3.6" ry="3.6"/><rect class="s s3" x="3.0" y="3.0" width="9.9" height="9.9" rx="3.3" ry="3.3"/></svg>