<svg viewBox="-16 -32 880 192" width="880" height="192" xmlns="http://www.w3.org/2000/svg"><desc>Generated with https://github.com/Platane/snk</desc><style>:root{--cb:#1b1f230a;--cs:purple;--ce:#161b22;--c0:#161b22;--c1:#01311f;--c2:#034525;--c3:#0f6d31;--c4:#00c647}.c{shape-rendering:geometricPrecision;fill:var(--ce);stroke-width:1px;stroke:var(--cb);animation:none 19700ms linear infinite;width:12px;height:12px}@keyframes c0{14.71%{fill:var(--c1)}14.73%,100%{fill:var(--ce)}}.c.c0{fill:var(--c1);animation-name:c0}@keyframes c1{15.22%{fill:var(--c1)}15.24%,100%{fill:var(--ce)}}.c.c1{fill:var(--c1);animation-name:c1}@keyframes c2{11.16%{fill:var(--c1)}11.18%,100%{fill:var(--ce)}}.c.c2{fill:var(--c1);animation-name:c2}@keyframes c3{11.67%{fill:var(--c1)}11.69%,100%{fill:var(--ce)}}.c.c3{fill:var(--c1);animation-name:c3}@keyframes c4{19.79%{fill:var(--c1)}19.81%,100%{fill:var(--ce)}}.c.c4{fill:var(--c1);animation-name:c4}@keyframes c5{64.46%{fill:var(--c3)}64.48%,100%{fill:var(--ce)}}.c.c5{fill:var(--c3);animation-name:c5}@keyframes c6{24.86%{fill:var(--c1)}24.88%,100%{fill:var(--ce)}}.c.c6{fill:var(--c1);animation-name:c6}@keyframes c7{31.46%{fill:var(--c1)}31.48%,100%{fill:var(--ce)}}.c.c7{fill:var(--c1);animation-name:c7}@keyframes c8{32.48%{fill:var(--c1)}32.5%,100%{fill:var(--ce)}}.c.c8{fill:var(--c1);animation-name:c8}@keyframes c9{56.34%{fill:var(--c3)}56.36%,100%{fill:var(--ce)}}.c.c9{fill:var(--c3);animation-name:c9}@keyframes ca{30.45%{fill:var(--c1)}30.47%,100%{fill:var(--ce)}}.c.ca{fill:var(--c1);animation-name:ca}@keyframes cb{49.23%{fill:var(--c1)}49.25%,100%{fill:var(--ce)}}.c.cb{fill:var(--c1);animation-name:cb}@keyframes cc{34%{fill:var(--c1)}34.02%,100%{fill:var(--ce)}}.c.cc{fill:var(--c1);animation-name:cc}@keyframes cd{33.49%{fill:var(--c1)}33.51%,100%{fill:var(--ce)}}.c.cd{fill:var(--c1);animation-name:cd}@keyframes ce{53.8%{fill:var(--c3)}53.82%,100%{fill:var(--ce)}}.c.ce{fill:var(--c3);animation-name:ce}@keyframes cf{72.58%{fill:var(--c4)}72.6%,100%{fill:var(--ce)}}.c.cf{fill:var(--c4);animation-name:cf}@keyframes cg{46.69%{fill:var(--c1)}46.71%,100%{fill:var(--ce)}}.c.cg{fill:var(--c1);animation-name:cg}@keyframes ch{35.02%{fill:var(--c1)}35.04%,100%{fill:var(--ce)}}.c.ch{fill:var(--c1);animation-name:ch}@keyframes ci{45.68%{fill:var(--c1)}45.7%,100%{fill:var(--ce)}}.c.ci{fill:var(--c1);animation-name:ci}@keyframes cj{40.09%{fill:var(--c1)}40.11%,100%{fill:var(--ce)}}.c.cj{fill:var(--c1);animation-name:cj}@keyframes ck{40.6%{fill:var(--c1)}40.62%,100%{fill:var(--ce)}}.c.ck{fill:var(--c1);animation-name:ck}@keyframes cl{41.11%{fill:var(--c1)}41.13%,100%{fill:var(--ce)}}.c.cl{fill:var(--c1);animation-name:cl}@keyframes cm{42.63%{fill:var(--c1)}42.65%,100%{fill:var(--ce)}}.c.cm{fill:var(--c1);animation-name:cm}@keyframes cn{43.14%{fill:var(--c1)}43.16%,100%{fill:var(--ce)}}.c.cn{fill:var(--c1);animation-name:cn}@keyframes co{35.52%{fill:var(--c1)}35.54%,100%{fill:var(--ce)}}.c.co{fill:var(--c1);animation-name:co}@keyframes cp{45.17%{fill:var(--c1)}45.19%,100%{fill:var(--ce)}}.c.cp{fill:var(--c1);animation-name:cp}@keyframes cq{39.58%{fill:var(--c1)}39.6%,100%{fill:var(--ce)}}.c.cq{fill:var(--c1);animation-name:cq}@keyframes cr{52.27%{fill:var(--c2)}52.29%,100%{fill:var(--ce)}}.c.cr{fill:var(--c2);animation-name:cr}@keyframes cs{41.61%{fill:var(--c1)}41.63%,100%{fill:var(--ce)}}.c.cs{fill:var(--c1);animation-name:cs}@keyframes ct{42.12%{fill:var(--c1)}42.14%,100%{fill:var(--ce)}}.c.ct{fill:var(--c1);animation-name:ct}@keyframes cu{43.64%{fill:var(--c1)}43.66%,100%{fill:var(--ce)}}.c.cu{fill:var(--c1);animation-name:cu}@keyframes cv{36.03%{fill:var(--c1)}36.05%,100%{fill:var(--ce)}}.c.cv{fill:var(--c1);animation-name:cv}@keyframes cw{44.66%{fill:var(--c1)}44.68%,100%{fill:var(--ce)}}.c.cw{fill:var(--c1);animation-name:cw}@keyframes cx{39.08%{fill:var(--c1)}39.1%,100%{fill:var(--ce)}}.c.cx{fill:var(--c1);animation-name:cx}@keyframes cy{38.57%{fill:var(--c1)}38.59%,100%{fill:var(--ce)}}.c.cy{fill:var(--c1);animation-name:cy}@keyframes cz{38.06%{fill:var(--c1)}38.08%,100%{fill:var(--ce)}}.c.cz{fill:var(--c1);animation-name:cz}@keyframes c10{37.55%{fill:var(--c1)}37.57%,100%{fill:var(--ce)}}.c.c10{fill:var(--c1);animation-name:c10}@keyframes c11{37.05%{fill:var(--c1)}37.07%,100%{fill:var(--ce)}}.c.c11{fill:var(--c1);animation-name:c11}@keyframes c12{36.54%{fill:var(--c1)}36.56%,100%{fill:var(--ce)}}.c.c12{fill:var(--c1);animation-name:c12}.u{transform-origin:0 0;transform:scale(0,1);animation:none linear 19700ms infinite}@keyframes u0{11.16%{transform:scale(0.000,1)}11.18%,11.67%{transform:scale(0.029,1)}11.69%,14.71%{transform:scale(0.059,1)}14.73%,15.22%{transform:scale(0.088,1)}15.24%,19.79%{transform:scale(0.118,1)}19.81%,24.86%{transform:scale(0.147,1)}24.88%,30.45%{transform:scale(0.176,1)}30.47%,31.46%{transform:scale(0.206,1)}31.48%,32.48%{transform:scale(0.235,1)}32.5%,33.49%{transform:scale(0.265,1)}33.51%,34%{transform:scale(0.294,1)}34.02%,35.02%{transform:scale(0.324,1)}35.04%,35.52%{transform:scale(0.353,1)}35.54%,36.03%{transform:scale(0.382,1)}36.05%,36.54%{transform:scale(0.412,1)}36.56%,37.05%{transform:scale(0.441,1)}37.07%,37.55%{transform:scale(0.471,1)}37.57%,38.06%{transform:scale(0.500,1)}38.08%,38.57%{transform:scale(0.529,1)}38.59%,39.08%{transform:scale(0.559,1)}39.1%,39.58%{transform:scale(0.588,1)}39.6%,40.09%{transform:scale(0.618,1)}40.11%,40.6%{transform:scale(0.647,1)}40.62%,41.11%{transform:scale(0.676,1)}41.13%,41.61%{transform:scale(0.706,1)}41.63%,42.12%{transform:scale(0.735,1)}42.14%,42.63%{transform:scale(0.765,1)}42.65%,43.14%{transform:scale(0.794,1)}43.16%,43.64%{transform:scale(0.824,1)}43.66%,44.66%{transform:scale(0.853,1)}44.68%,45.17%{transform:scale(0.882,1)}45.19%,45.68%{transform:scale(0.912,1)}45.7%,46.69%{transform:scale(0.941,1)}46.71%,49.23%{transform:scale(0.971,1)}49.25%,100%{transform:scale(1.000,1)}}.u.u0{fill:var(--c1);animation-name:u0;transform-origin:0.0px 0}@keyframes u1{52.27%{transform:scale(0.000,1)}52.29%,100%{transform:scale(1.000,1)}}.u.u1{fill:var(--c2);animation-name:u1;transform-origin:739.3px 0}@keyframes u2{53.8%{transform:scale(0.000,1)}53.82%,56.34%{transform:scale(0.333,1)}56.36%,64.46%{transform:scale(0.667,1)}64.48%,100%{transform:scale(1.000,1)}}.u.u2{fill:var(--c3);animation-name:u2;transform-origin:761.0px 0}@keyframes u3{72.58%{transform:scale(0.000,1)}72.6%,100%{transform:scale(1.000,1)}}.u.u3{fill:var(--c4);animation-name:u3;transform-origin:826.3px 0}.s{shape-rendering:geometricPrecision;fill:var(--cs);animation:none linear 19700ms infinite}@keyframes s0{0%,99.49%{transform:translate(0px,-16px)}0.51%{transform:translate(0px,0px)}11.17%{transform:translate(336px,0px)}11.68%{transform:translate(336px,16px)}12.69%{transform:translate(304px,16px)}15.23%{transform:translate(304px,96px)}18.78%{transform:translate(416px,96px)}19.8%{transform:translate(416px,64px)}23.35%{transform:translate(528px,64px)}23.86%{transform:translate(528px,48px)}30.46%{transform:translate(736px,48px)}30.96%{transform:translate(736px,64px)}31.47%{transform:translate(720px,64px)}32.49%{transform:translate(720px,96px)}33.5%{transform:translate(752px,96px)}34.01%{transform:translate(752px,80px)}36.55%{transform:translate(832px,80px)}39.09%{transform:translate(832px,0px)}40.1%{transform:translate(800px,0px)}41.12%{transform:translate(800px,32px)}41.62%{transform:translate(816px,32px)}42.13%{transform:translate(816px,48px)}42.64%{transform:translate(800px,48px)}43.15%{transform:translate(800px,64px)}43.65%{transform:translate(816px,64px)}44.67%{transform:translate(816px,96px)}45.69%{transform:translate(784px,96px)}46.7%,72.08%{transform:translate(784px,64px)}47.21%{transform:translate(768px,64px)}48.73%{transform:translate(768px,16px)}49.24%{transform:translate(752px,16px)}49.75%{transform:translate(752px,0px)}51.78%{transform:translate(816px,0px)}52.28%{transform:translate(816px,16px)}53.3%{transform:translate(784px,16px)}53.81%{transform:translate(784px,32px)}54.31%{transform:translate(768px,32px)}55.33%{transform:translate(768px,0px)}62.44%{transform:translate(544px,0px)}64.47%{transform:translate(544px,64px)}72.59%{transform:translate(784px,48px)}93.4%{transform:translate(128px,48px)}93.91%{transform:translate(128px,32px)}94.42%{transform:translate(112px,32px)}94.92%{transform:translate(112px,16px)}95.43%{transform:translate(96px,16px)}95.94%{transform:translate(96px,0px)}97.46%{transform:translate(48px,0px)}97.97%{transform:translate(48px,-16px)}}.s.s0{transform:translate(0px,-16px);animation-name:s0}@keyframes s1{0%,99.49%{transform:translate(16px,-16px)}0.51%{transform:translate(0px,-16px)}1.02%{transform:translate(0px,0px)}11.68%{transform:translate(336px,0px)}12.18%{transform:translate(336px,16px)}13.2%{transform:translate(304px,16px)}15.74%{transform:translate(304px,96px)}19.29%{transform:translate(416px,96px)}20.3%{transform:translate(416px,64px)}23.86%{transform:translate(528px,64px)}24.37%{transform:translate(528px,48px)}30.96%{transform:translate(736px,48px)}31.47%{transform:translate(736px,64px)}31.98%{transform:translate(720px,64px)}32.99%{transform:translate(720px,96px)}34.01%{transform:translate(752px,96px)}34.52%{transform:translate(752px,80px)}37.06%{transform:translate(832px,80px)}39.59%{transform:translate(832px,0px)}40.61%{transform:translate(800px,0px)}41.62%{transform:translate(800px,32px)}42.13%{transform:translate(816px,32px)}42.64%{transform:translate(816px,48px)}43.15%{transform:translate(800px,48px)}43.65%{transform:translate(800px,64px)}44.16%{transform:translate(816px,64px)}45.18%{transform:translate(816px,96px)}46.19%{transform:translate(784px,96px)}47.21%,72.59%{transform:translate(784px,64px)}47.72%{transform:translate(768px,64px)}49.24%{transform:translate(768px,16px)}49.75%{transform:translate(752px,16px)}50.25%{transform:translate(752px,0px)}52.28%{transform:translate(816px,0px)}52.79%{transform:translate(816px,16px)}53.81%{transform:translate(784px,16px)}54.31%{transform:translate(784px,32px)}54.82%{transform:translate(768px,32px)}55.84%{transform:translate(768px,0px)}62.94%{transform:translate(544px,0px)}64.97%{transform:translate(544px,64px)}73.1%{transform:translate(784px,48px)}93.91%{transform:translate(128px,48px)}94.42%{transform:translate(128px,32px)}94.92%{transform:translate(112px,32px)}95.43%{transform:translate(112px,16px)}95.94%{transform:translate(96px,16px)}96.45%{transform:translate(96px,0px)}97.97%{transform:translate(48px,0px)}98.48%{transform:translate(48px,-16px)}}.s.s1{transform:translate(16px,-16px);animation-name:s1}@keyframes s2{0%,99.49%{transform:translate(32px,-16px)}1.02%{transform:translate(0px,-16px)}1.52%{transform:translate(0px,0px)}12.18%{transform:translate(336px,0px)}12.69%{transform:translate(336px,16px)}13.71%{transform:translate(304px,16px)}16.24%{transform:translate(304px,96px)}19.8%{transform:translate(416px,96px)}20.81%{transform:translate(416px,64px)}24.37%{transform:translate(528px,64px)}24.87%{transform:translate(528px,48px)}31.47%{transform:translate(736px,48px)}31.98%{transform:translate(736px,64px)}32.49%{transform:translate(720px,64px)}33.5%{transform:translate(720px,96px)}34.52%{transform:translate(752px,96px)}35.03%{transform:translate(752px,80px)}37.56%{transform:translate(832px,80px)}40.1%{transform:translate(832px,0px)}41.12%{transform:translate(800px,0px)}42.13%{transform:translate(800px,32px)}42.64%{transform:translate(816px,32px)}43.15%{transform:translate(816px,48px)}43.65%{transform:translate(800px,48px)}44.16%{transform:translate(800px,64px)}44.67%{transform:translate(816px,64px)}45.69%{transform:translate(816px,96px)}46.7%{transform:translate(784px,96px)}47.72%,73.1%{transform:translate(784px,64px)}48.22%{transform:translate(768px,64px)}49.75%{transform:translate(768px,16px)}50.25%{transform:translate(752px,16px)}50.76%{transform:translate(752px,0px)}52.79%{transform:translate(816px,0px)}53.3%{transform:translate(816px,16px)}54.31%{transform:translate(784px,16px)}54.82%{transform:translate(784px,32px)}55.33%{transform:translate(768px,32px)}56.35%{transform:translate(768px,0px)}63.45%{transform:translate(544px,0px)}65.48%{transform:translate(544px,64px)}73.6%{transform:translate(784px,48px)}94.42%{transform:translate(128px,48px)}94.92%{transform:translate(128px,32px)}95.43%{transform:translate(112px,32px)}95.94%{transform:translate(112px,16px)}96.45%{transform:translate(96px,16px)}96.95%{transform:translate(96px,0px)}98.48%{transform:translate(48px,0px)}98.98%{transform:translate(48px,-16px)}}.s.s2{transform:translate(32px,-16px);animation-name:s2}@keyframes s3{0%,99.49%{transform:translate(48px,-16px)}1.52%{transform:translate(0px,-16px)}2.03%{transform:translate(0px,0px)}12.69%{transform:translate(336px,0px)}13.2%{transform:translate(336px,16px)}14.21%{transform:translate(304px,16px)}16.75%{transform:translate(304px,96px)}20.3%{transform:translate(416px,96px)}21.32%{transform:translate(416px,64px)}24.87%{transform:translate(528px,64px)}25.38%{transform:translate(528px,48px)}31.98%{transform:translate(736px,48px)}32.49%{transform:translate(736px,64px)}32.99%{transform:translate(720px,64px)}34.01%{transform:translate(720px,96px)}35.03%{transform:translate(752px,96px)}35.53%{transform:translate(752px,80px)}38.07%{transform:translate(832px,80px)}40.61%{transform:translate(832px,0px)}41.62%{transform:translate(800px,0px)}42.64%{transform:translate(800px,32px)}43.15%{transform:translate(816px,32px)}43.65%{transform:translate(816px,48px)}44.16%{transform:translate(800px,48px)}44.67%{transform:translate(800px,64px)}45.18%{transform:translate(816px,64px)}46.19%{transform:translate(816px,96px)}47.21%{transform:translate(784px,96px)}48.22%,73.6%{transform:translate(784px,64px)}48.73%{transform:translate(768px,64px)}50.25%{transform:translate(768px,16px)}50.76%{transform:translate(752px,16px)}51.27%{transform:translate(752px,0px)}53.3%{transform:translate(816px,0px)}53.81%{transform:translate(816px,16px)}54.82%{transform:translate(784px,16px)}55.33%{transform:translate(784px,32px)}55.84%{transform:translate(768px,32px)}56.85%{transform:translate(768px,0px)}63.96%{transform:translate(544px,0px)}65.99%{transform:translate(544px,64px)}74.11%{transform:translate(784px,48px)}94.92%{transform:translate(128px,48px)}95.43%{transform:translate(128px,32px)}95.94%{transform:translate(112px,32px)}96.45%{transform:translate(112px,16px)}96.95%{transform:translate(96px,16px)}97.46%{transform:translate(96px,0px)}98.98%{transform:translate(48px,0px)}}.s.s3{transform:translate(48px,-16px);animation-name:s3}</style><rect class="c" x="2" y="2" rx="2" ry="2"/><rect class="c" x="2" y="18" rx="2" ry="2"/><rect class="c" x="2" y="34" rx="2" ry="2"/><rect class="c" x="2" y="50" rx="2" ry="2"/><rect class="c" x="2" y="66" rx="2" ry="2"/><rect class="c" x="2" y="82" rx="2" ry="2"/><rect class="c" x="2" y="98" rx="2" ry="2"/><rect class="c" x="18" y="2" rx="2" ry="2"/><rect class="c" x="18" y="18" rx="2" ry="2"/><rect class="c" x="18" y="34" rx="2" ry="2"/><rect class="c" x="18" y="50" rx="2" ry="2"/><rect class="c" x="18" y="66" rx="2" ry="2"/><rect class="c" x="18" y="82" rx="2" ry="2"/><rect class="c" x="18" y="98" rx="2" ry="2"/><rect class="c" x="34" y="2" rx="2" ry="2"/><rect class="c" x="34" y="18" rx="2" ry="2"/><rect class="c" x="34" y="34" rx="2" ry="2"/><rect class="c" x="34" y="50" rx="2" ry="2"/><rect class="c" x="34" y="66" rx="2" ry="2"/><rect class="c" x="34" y="82" rx="2" ry="2"/><rect class="c" x="34" y="98" rx="2" ry="2"/><rect class="c" x="50" y="2" rx="2" ry="2"/><rect class="c" x="50" y="18" rx="2" ry="2"/><rect class="c" x="50" y="34" rx="2" ry="2"/><rect class="c" x="50" y="50" rx="2" ry="2"/><rect class="c" x="50" y="66" rx="2" ry="2"/><rect class="c" x="50" y="82" rx="2" ry="2"/><rect class="c" x="50" y="98" rx="2" ry="2"/><rect class="c" x="66" y="2" rx="2" ry="2"/><rect class="c" x="66" y="18" rx="2" ry="2"/><rect class="c" x="66" y="34" rx="2" ry="2"/><rect class="c" x="66" y="50" rx="2" ry="2"/><rect class="c" x="66" y="66" rx="2" ry="2"/><rect class="c" x="66" y="82" rx="2" ry="2"/><rect class="c" x="66" y="98" rx="2" ry="2"/><rect class="c" x="82" y="2" rx="2" ry="2"/><rect class="c" x="82" y="18" rx="2" ry="2"/><rect class="c" x="82" y="34" rx="2" ry="2"/><rect class="c" x="82" y="50" rx="2" ry="2"/><rect class="c" x="82" y="66" rx="2" ry="2"/><rect class="c" x="82" y="82" rx="2" ry="2"/><rect class="c" x="82" y="98" rx="2" ry="2"/><rect class="c" x="98" y="2" rx="2" ry="2"/><rect class="c" x="98" y="18" rx="2" ry="2"/><rect class="c" x="98" y="34" rx="2" ry="2"/><rect class="c" x="98" y="50" rx="2" ry="2"/><rect class="c" x="98" y="66" rx="2" ry="2"/><rect class="c" x="98" y="82" rx="2" ry="2"/><rect class="c" x="98" y="98" rx="2" ry="2"/><rect class="c" x="114" y="2" rx="2" ry="2"/><rect class="c" x="114" y="18" rx="2" ry="2"/><rect class="c" x="114" y="34" rx="2" ry="2"/><rect class="c" x="114" y="50" rx="2" ry="2"/><rect class="c" x="114" y="66" rx="2" ry="2"/><rect class="c" x="114" y="82" rx="2" ry="2"/><rect class="c" x="114" y="98" rx="2" ry="2"/><rect class="c" x="130" y="2" rx="2" ry="2"/><rect class="c" x="130" y="18" rx="2" ry="2"/><rect class="c" x="130" y="34" rx="2" ry="2"/><rect class="c" x="130" y="50" rx="2" ry="2"/><rect class="c" x="130" y="66" rx="2" ry="2"/><rect class="c" x="130" y="82" rx="2" ry="2"/><rect class="c" x="130" y="98" rx="2" ry="2"/><rect class="c" x="146" y="2" rx="2" ry="2"/><rect class="c" x="146" y="18" rx="2" ry="2"/><rect class="c" x="146" y="34" rx="2" ry="2"/><rect class="c" x="146" y="50" rx="2" ry="2"/><rect class="c" x="146" y="66" rx="2" ry="2"/><rect class="c" x="146" y="82" rx="2" ry="2"/><rect class="c" x="146" y="98" rx="2" ry="2"/><rect class="c" x="162" y="2" rx="2" ry="2"/><rect class="c" x="162" y="18" rx="2" ry="2"/><rect class="c" x="162" y="34" rx="2" ry="2"/><rect class="c" x="162" y="50" rx="2" ry="2"/><rect class="c" x="162" y="66" rx="2" ry="2"/><rect class="c" x="162" y="82" rx="2" ry="2"/><rect class="c" x="162" y="98" rx="2" ry="2"/><rect class="c" x="178" y="2" rx="2" ry="2"/><rect class="c" x="178" y="18" rx="2" ry="2"/><rect class="c" x="178" y="34" rx="2" ry="2"/><rect class="c" x="178" y="50" rx="2" ry="2"/><rect class="c" x="178" y="66" rx="2" ry="2"/><rect class="c" x="178" y="82" rx="2" ry="2"/><rect class="c" x="178" y="98" rx="2" ry="2"/><rect class="c" x="194" y="2" rx="2" ry="2"/><rect class="c" x="194" y="18" rx="2" ry="2"/><rect class="c" x="194" y="34" rx="2" ry="2"/><rect class="c" x="194" y="50" rx="2" ry="2"/><rect class="c" x="194" y="66" rx="2" ry="2"/><rect class="c" x="194" y="82" rx="2" ry="2"/><rect class="c" x="194" y="98" rx="2" ry="2"/><rect class="c" x="210" y="2" rx="2" ry="2"/><rect class="c" x="210" y="18" rx="2" ry="2"/><rect class="c" x="210" y="34" rx="2" ry="2"/><rect class="c" x="210" y="50" rx="2" ry="2"/><rect class="c" x="210" y="66" rx="2" ry="2"/><rect class="c" x="210" y="82" rx="2" ry="2"/><rect class="c" x="210" y="98" rx="2" ry="2"/><rect class="c" x="226" y="2" rx="2" ry="2"/><rect class="c" x="226" y="18" rx="2" ry="2"/><rect class="c" x="226" y="34" rx="2" ry="2"/><rect class="c" x="226" y="50" rx="2" ry="2"/><rect class="c" x="226" y="66" rx="2" ry="2"/><rect class="c" x="226" y="82" rx="2" ry="2"/><rect class="c" x="226" y="98" rx="2" ry="2"/><rect class="c" x="242" y="2" rx="2" ry="2"/><rect class="c" x="242" y="18" rx="2" ry="2"/><rect class="c" x="242" y="34" rx="2" ry="2"/><rect class="c" x="242" y="50" rx="2" ry="2"/><rect class="c" x="242" y="66" rx="2" ry="2"/><rect class="c" x="242" y="82" rx="2" ry="2"/><rect class="c" x="242" y="98" rx="2" ry="2"/><rect class="c" x="258" y="2" rx="2" ry="2"/><rect class="c" x="258" y="18" rx="2" ry="2"/><rect class="c" x="258" y="34" rx="2" ry="2"/><rect class="c" x="258" y="50" rx="2" ry="2"/><rect class="c" x="258" y="66" rx="2" ry="2"/><rect class="c" x="258" y="82" rx="2" ry="2"/><rect class="c" x="258" y="98" rx="2" ry="2"/><rect class="c" x="274" y="2" rx="2" ry="2"/><rect class="c" x="274" y="18" rx="2" ry="2"/><rect class="c" x="274" y="34" rx="2" ry="2"/><rect class="c" x="274" y="50" rx="2" ry="2"/><rect class="c" x="274" y="66" rx="2" ry="2"/><rect class="c" x="274" y="82" rx="2" ry="2"/><rect class="c" x="274" y="98" rx="2" ry="2"/><rect class="c" x="290" y="2" rx="2" ry="2"/><rect class="c" x="290" y="18" rx="2" ry="2"/><rect class="c" x="290" y="34" rx="2" ry="2"/><rect class="c" x="290" y="50" rx="2" ry="2"/><rect class="c" x="290" y="66" rx="2" ry="2"/><rect class="c" x="290" y="82" rx="2" ry="2"/><rect class="c" x="290" y="98" rx="2" ry="2"/><rect class="c" x="306" y="2" rx="2" ry="2"/><rect class="c" x="306" y="18" rx="2" ry="2"/><rect class="c" x="306" y="34" rx="2" ry="2"/><rect class="c" x="306" y="50" rx="2" ry="2"/><rect class="c" x="306" y="66" rx="2" ry="2"/><rect class="c c0" x="306" y="82" rx="2" ry="2"/><rect class="c c1" x="306" y="98" rx="2" ry="2"/><rect class="c" x="322" y="2" rx="2" ry="2"/><rect class="c" x="322" y="18" rx="2" ry="2"/><rect class="c" x="322" y="34" rx="2" ry="2"/><rect class="c" x="322" y="50" rx="2" ry="2"/><rect class="c" x="322" y="66" rx="2" ry="2"/><rect class="c" x="322" y="82" rx="2" ry="2"/><rect class="c" x="322" y="98" rx="2" ry="2"/><rect class="c c2" x="338" y="2" rx="2" ry="2"/><rect class="c c3" x="338" y="18" rx="2" ry="2"/><rect class="c" x="338" y="34" rx="2" ry="2"/><rect class="c" x="338" y="50" rx="2" ry="2"/><rect class="c" x="338" y="66" rx="2" ry="2"/><rect class="c" x="338" y="82" rx="2" ry="2"/><rect class="c" x="338" y="98" rx="2" ry="2"/><rect class="c" x="354" y="2" rx="2" ry="2"/><rect class="c" x="354" y="18" rx="2" ry="2"/><rect class="c" x="354" y="34" rx="2" ry="2"/><rect class="c" x="354" y="50" rx="2" ry="2"/><rect class="c" x="354" y="66" rx="2" ry="2"/><rect class="c" x="354" y="82" rx="2" ry="2"/><rect class="c" x="354" y="98" rx="2" ry="2"/><rect class="c" x="370" y="2" rx="2" ry="2"/><rect class="c" x="370" y="18" rx="2" ry="2"/><rect class="c" x="370" y="34" rx="2" ry="2"/><rect class="c" x="370" y="50" rx="2" ry="2"/><rect class="c" x="370" y="66" rx="2" ry="2"/><rect class="c" x="370" y="82" rx="2" ry="2"/><rect class="c" x="370" y="98" rx="2" ry="2"/><rect class="c" x="386" y="2" rx="2" ry="2"/><rect class="c" x="386" y="18" rx="2" ry="2"/><rect class="c" x="386" y="34" rx="2" ry="2"/><rect class="c" x="386" y="50" rx="2" ry="2"/><rect class="c" x="386" y="66" rx="2" ry="2"/><rect class="c" x="386" y="82" rx="2" ry="2"/><rect class="c" x="386" y="98" rx="2" ry="2"/><rect class="c" x="402" y="2" rx="2" ry="2"/><rect class="c" x="402" y="18" rx="2" ry="2"/><rect class="c" x="402" y="34" rx="2" ry="2"/><rect class="c" x="402" y="50" rx="2" ry="2"/><rect class="c" x="402" y="66" rx="2" ry="2"/><rect class="c" x="402" y="82" rx="2" ry="2"/><rect class="c" x="402" y="98" rx="2" ry="2"/><rect class="c" x="418" y="2" rx="2" ry="2"/><rect class="c" x="418" y="18" rx="2" ry="2"/><rect class="c" x="418" y="34" rx="2" ry="2"/><rect class="c" x="418" y="50" rx="2" ry="2"/><rect class="c c4" x="418" y="66" rx="2" ry="2"/><rect class="c" x="418" y="82" rx="2" ry="2"/><rect class="c" x="418" y="98" rx="2" ry="2"/><rect class="c" x="434" y="2" rx="2" ry="2"/><rect class="c" x="434" y="18" rx="2" ry="2"/><rect class="c" x="434" y="34" rx="2" ry="2"/><rect class="c" x="434" y="50" rx="2" ry="2"/><rect class="c" x="434" y="66" rx="2" ry="2"/><rect class="c" x="434" y="82" rx="2" ry="2"/><rect class="c" x="434" y="98" rx="2" ry="2"/><rect class="c" x="450" y="2" rx="2" ry="2"/><rect class="c" x="450" y="18" rx="2" ry="2"/><rect class="c" x="450" y="34" rx="2" ry="2"/><rect class="c" x="450" y="50" rx="2" ry="2"/><rect class="c" x="450" y="66" rx="2" ry="2"/><rect class="c" x="450" y="82" rx="2" ry="2"/><rect class="c" x="450" y="98" rx="2" ry="2"/><rect class="c" x="466" y="2" rx="2" ry="2"/><rect class="c" x="466" y="18" rx="2" ry="2"/><rect class="c" x="466" y="34" rx="2" ry="2"/><rect class="c" x="466" y="50" rx="2" ry="2"/><rect class="c" x="466" y="66" rx="2" ry="2"/><rect class="c" x="466" y="82" rx="2" ry="2"/><rect class="c" x="466" y="98" rx="2" ry="2"/><rect class="c" x="482" y="2" rx="2" ry="2"/><rect class="c" x="482" y="18" rx="2" ry="2"/><rect class="c" x="482" y="34" rx="2" ry="2"/><rect class="c" x="482" y="50" rx="2" ry="2"/><rect class="c" x="482" y="66" rx="2" ry="2"/><rect class="c" x="482" y="82" rx="2" ry="2"/><rect class="c" x="482" y="98" rx="2" ry="2"/><rect class="c" x="498" y="2" rx="2" ry="2"/><rect class="c" x="498" y="18" rx="2" ry="2"/><rect class="c" x="498" y="34" rx="2" ry="2"/><rect class="c" x="498" y="50" rx="2" ry="2"/><rect class="c" x="498" y="66" rx="2" ry="2"/><rect class="c" x="498" y="82" rx="2" ry="2"/><rect class="c" x="498" y="98" rx="2" ry="2"/><rect class="c" x="514" y="2" rx="2" ry="2"/><rect class="c" x="514" y="18" rx="2" ry="2"/><rect class="c" x="514" y="34" rx="2" ry="2"/><rect class="c" x="514" y="50" rx="2" ry="2"/><rect class="c" x="514" y="66" rx="2" ry="2"/><rect class="c" x="514" y="82" rx="2" ry="2"/><rect class="c" x="514" y="98" rx="2" ry="2"/><rect class="c" x="530" y="2" rx="2" ry="2"/><rect class="c" x="530" y="18" rx="2" ry="2"/><rect class="c" x="530" y="34" rx="2" ry="2"/><rect class="c" x="530" y="50" rx="2" ry="2"/><rect class="c" x="530" y="66" rx="2" ry="2"/><rect class="c" x="530" y="82" rx="2" ry="2"/><rect class="c" x="530" y="98" rx="2" ry="2"/><rect class="c" x="546" y="2" rx="2" ry="2"/><rect class="c" x="546" y="18" rx="2" ry="2"/><rect class="c" x="546" y="34" rx="2" ry="2"/><rect class="c" x="546" y="50" rx="2" ry="2"/><rect class="c c5" x="546" y="66" rx="2" ry="2"/><rect class="c" x="546" y="82" rx="2" ry="2"/><rect class="c" x="546" y="98" rx="2" ry="2"/><rect class="c" x="562" y="2" rx="2" ry="2"/><rect class="c" x="562" y="18" rx="2" ry="2"/><rect class="c" x="562" y="34" rx="2" ry="2"/><rect class="c c6" x="562" y="50" rx="2" ry="2"/><rect class="c" x="562" y="66" rx="2" ry="2"/><rect class="c" x="562" y="82" rx="2" ry="2"/><rect class="c" x="562" y="98" rx="2" ry="2"/><rect class="c" x="578" y="2" rx="2" ry="2"/><rect class="c" x="578" y="18" rx="2" ry="2"/><rect class="c" x="578" y="34" rx="2" ry="2"/><rect class="c" x="578" y="50" rx="2" ry="2"/><rect class="c" x="578" y="66" rx="2" ry="2"/><rect class="c" x="578" y="82" rx="2" ry="2"/><rect class="c" x="578" y="98" rx="2" ry="2"/><rect class="c" x="594" y="2" rx="2" ry="2"/><rect class="c" x="594" y="18" rx="2" ry="2"/><rect class="c" x="594" y="34" rx="2" ry="2"/><rect class="c" x="594" y="50" rx="2" ry="2"/><rect class="c" x="594" y="66" rx="2" ry="2"/><rect class="c" x="594" y="82" rx="2" ry="2"/><rect class="c" x="594" y="98" rx="2" ry="2"/><rect class="c" x="610" y="2" rx="2" ry="2"/><rect class="c" x="610" y="18" rx="2" ry="2"/><rect class="c" x="610" y="34" rx="2" ry="2"/><rect class="c" x="610" y="50" rx="2" ry="2"/><rect class="c" x="610" y="66" rx="2" ry="2"/><rect class="c" x="610" y="82" rx="2" ry="2"/><rect class="c" x="610" y="98" rx="2" ry="2"/><rect class="c" x="626" y="2" rx="2" ry="2"/><rect class="c" x="626" y="18" rx="2" ry="2"/><rect class="c" x="626" y="34" rx="2" ry="2"/><rect class="c" x="626" y="50" rx="2" ry="2"/><rect class="c" x="626" y="66" rx="2" ry="2"/><rect class="c" x="626" y="82" rx="2" ry="2"/><rect class="c" x="626" y="98" rx="2" ry="2"/><rect class="c" x="642" y="2" rx="2" ry="2"/><rect class="c" x="642" y="18" rx="2" ry="2"/><rect class="c" x="642" y="34" rx="2" ry="2"/><rect class="c" x="642" y="50" rx="2" ry="2"/><rect class="c" x="642" y="66" rx="2" ry="2"/><rect class="c" x="642" y="82" rx="2" ry="2"/><rect class="c" x="642" y="98" rx="2" ry="2"/><rect class="c" x="658" y="2" rx="2" ry="2"/><rect class="c" x="658" y="18" rx="2" ry="2"/><rect class="c" x="658" y="34" rx="2" ry="2"/><rect class="c" x="658" y="50" rx="2" ry="2"/><rect class="c" x="658" y="66" rx="2" ry="2"/><rect class="c" x="658" y="82" rx="2" ry="2"/><rect class="c" x="658" y="98" rx="2" ry="2"/><rect class="c" x="674" y="2" rx="2" ry="2"/><rect class="c" x="674" y="18" rx="2" ry="2"/><rect class="c" x="674" y="34" rx="2" ry="2"/><rect class="c" x="674" y="50" rx="2" ry="2"/><rect class="c" x="674" y="66" rx="2" ry="2"/><rect class="c" x="674" y="82" rx="2" ry="2"/><rect class="c" x="674" y="98" rx="2" ry="2"/><rect class="c" x="690" y="2" rx="2" ry="2"/><rect class="c" x="690" y="18" rx="2" ry="2"/><rect class="c" x="690" y="34" rx="2" ry="2"/><rect class="c" x="690" y="50" rx="2" ry="2"/><rect class="c" x="690" y="66" rx="2" ry="2"/><rect class="c" x="690" y="82" rx="2" ry="2"/><rect class="c" x="690" y="98" rx="2" ry="2"/><rect class="c" x="706" y="2" rx="2" ry="2"/><rect class="c" x="706" y="18" rx="2" ry="2"/><rect class="c" x="706" y="34" rx="2" ry="2"/><rect class="c" x="706" y="50" rx="2" ry="2"/><rect class="c" x="706" y="66" rx="2" ry="2"/><rect class="c" x="706" y="82" rx="2" ry="2"/><rect class="c" x="706" y="98" rx="2" ry="2"/><rect class="c" x="722" y="2" rx="2" ry="2"/><rect class="c" x="722" y="18" rx="2" ry="2"/><rect class="c" x="722" y="34" rx="2" ry="2"/><rect class="c" x="722" y="50" rx="2" ry="2"/><rect class="c c7" x="722" y="66" rx="2" ry="2"/><rect class="c" x="722" y="82" rx="2" ry="2"/><rect class="c c8" x="722" y="98" rx="2" ry="2"/><rect class="c c9" x="738" y="2" rx="2" ry="2"/><rect class="c" x="738" y="18" rx="2" ry="2"/><rect class="c" x="738" y="34" rx="2" ry="2"/><rect class="c ca" x="738" y="50" rx="2" ry="2"/><rect class="c" x="738" y="66" rx="2" ry="2"/><rect class="c" x="738" y="82" rx="2" ry="2"/><rect class="c" x="738" y="98" rx="2" ry="2"/><rect class="c" x="754" y="2" rx="2" ry="2"/><rect class="c cb" x="754" y="18" rx="2" ry="2"/><rect class="c" x="754" y="34" rx="2" ry="2"/><rect class="c" x="754" y="50" rx="2" ry="2"/><rect class="c" x="754" y="66" rx="2" ry="2"/><rect class="c cc" x="754" y="82" rx="2" ry="2"/><rect class="c cd" x="754" y="98" rx="2" ry="2"/><rect class="c" x="770" y="2" rx="2" ry="2"/><rect class="c" x="770" y="18" rx="2" ry="2"/><rect class="c" x="770" y="34" rx="2" ry="2"/><rect class="c" x="770" y="50" rx="2" ry="2"/><rect class="c" x="770" y="66" rx="2" ry="2"/><rect class="c" x="770" y="82" rx="2" ry="2"/><rect class="c" x="770" y="98" rx="2" ry="2"/><rect class="c" x="786" y="2" rx="2" ry="2"/><rect class="c" x="786" y="18" rx="2" ry="2"/><rect class="c ce" x="786" y="34" rx="2" ry="2"/><rect class="c cf" x="786" y="50" rx="2" ry="2"/><rect class="c cg" x="786" y="66" rx="2" ry="2"/><rect class="c ch" x="786" y="82" rx="2" ry="2"/><rect class="c ci" x="786" y="98" rx="2" ry="2"/><rect class="c cj" x="802" y="2" rx="2" ry="2"/><rect class="c ck" x="802" y="18" rx="2" ry="2"/><rect class="c cl" x="802" y="34" rx="2" ry="2"/><rect class="c cm" x="802" y="50" rx="2" ry="2"/><rect class="c cn" x="802" y="66" rx="2" ry="2"/><rect class="c co" x="802" y="82" rx="2" ry="2"/><rect class="c cp" x="802" y="98" rx="2" ry="2"/><rect class="c cq" x="818" y="2" rx="2" ry="2"/><rect class="c cr" x="818" y="18" rx="2" ry="2"/><rect class="c cs" x="818" y="34" rx="2" ry="2"/><rect class="c ct" x="818" y="50" rx="2" ry="2"/><rect class="c cu" x="818" y="66" rx="2" ry="2"/><rect class="c cv" x="818" y="82" rx="2" ry="2"/><rect class="c cw" x="818" y="98" rx="2" ry="2"/><rect class="c cx" x="834" y="2" rx="2" ry="2"/><rect class="c cy" x="834" y="18" rx="2" ry="2"/><rect class="c cz" x="834" y="34" rx="2" ry="2"/><rect class="c c10" x="834" y="50" rx="2" ry="2"/><rect class="c c11" x="834" y="66" rx="2" ry="2"/><rect class="c c12" x="834" y="82" rx="2" ry="2"/><rect class="c" x="834" y="98" rx="2" ry="2"/><rect class="u u0" height="12" width="739.9" x="0.0" y="144"/><rect class="u u1" height="12" width="22.3" x="739.3" y="144"/><rect class="u u2" height="12" width="65.8" x="761.0" y="144"/><rect class="u u3" height="12" width="22.3" x="826.3" y="144"/><rect class="s s0" x="0.8" y="0.8" width="14.4" height="14.4" rx="4.5" ry="4.5"/><rect class="s s1" x="1.8" y="1.8" width="12.3" height="12.3" rx="4.1" ry="4.1"/><rect class="s s2" x="2.6" y="2.6" width="10.8" height="10.8" rx="3.6" ry="3.6"/><rect class="s s3" x="3.0" y="3.0" width="9.9" height="9.9" rx="3.3" ry="3.3"/></svg>