<svg viewBox="-16 -32 880 192" width="880" height="192" xmlns="http://www.w3.org/2000/svg"><desc>Generated with https://github.com/Platane/snk</desc><style>:root{--cb:#1b1f230a;--cs:purple;--ce:#161b22;--c0:#161b22;--c1:#01311f;--c2:#034525;--c3:#0f6d31;--c4:#00c647}.c{shape-rendering:geometricPrecision;fill:var(--ce);stroke-width:1px;stroke:var(--cb);animation:none 30300ms linear infinite;width:12px;height:12px}@keyframes c0{7.25%{fill:var(--c1)}7.27%,100%{fill:var(--ce)}}.c.c0{fill:var(--c1);animation-name:c0}@keyframes c1{60.39%{fill:var(--c2)}60.41%,100%{fill:var(--ce)}}.c.c1{fill:var(--c2);animation-name:c1}@keyframes c2{4.94%{fill:var(--c1)}4.96%,100%{fill:var(--ce)}}.c.c2{fill:var(--c1);animation-name:c2}@keyframes c3{5.27%{fill:var(--c1)}5.29%,100%{fill:var(--ce)}}.c.c3{fill:var(--c1);animation-name:c3}@keyframes c4{57.42%{fill:var(--c2)}57.44%,100%{fill:var(--ce)}}.c.c4{fill:var(--c2);animation-name:c4}@keyframes c5{66%{fill:var(--c4)}66.02%,100%{fill:var(--ce)}}.c.c5{fill:var(--c4);animation-name:c5}@keyframes c6{13.19%{fill:var(--c1)}13.21%,100%{fill:var(--ce)}}.c.c6{fill:var(--c1);animation-name:c6}@keyframes c7{17.48%{fill:var(--c1)}17.5%,100%{fill:var(--ce)}}.c.c7{fill:var(--c1);animation-name:c7}@keyframes c8{50.49%{fill:var(--c2)}50.51%,100%{fill:var(--ce)}}.c.c8{fill:var(--c2);animation-name:c8}@keyframes c9{86.46%{fill:var(--c4)}86.48%,100%{fill:var(--ce)}}.c.c9{fill:var(--c4);animation-name:c9}@keyframes ca{16.82%{fill:var(--c1)}16.84%,100%{fill:var(--ce)}}.c.ca{fill:var(--c1);animation-name:ca}@keyframes cb{21.11%{fill:var(--c1)}21.13%,100%{fill:var(--ce)}}.c.cb{fill:var(--c1);animation-name:cb}@keyframes cc{18.47%{fill:var(--c1)}18.49%,100%{fill:var(--ce)}}.c.cc{fill:var(--c1);animation-name:cc}@keyframes cd{18.8%{fill:var(--c1)}18.82%,100%{fill:var(--ce)}}.c.cd{fill:var(--c1);animation-name:cd}@keyframes ce{71.61%{fill:var(--c4)}71.63%,100%{fill:var(--ce)}}.c.ce{fill:var(--c4);animation-name:ce}@keyframes cf{71.28%{fill:var(--c4)}71.3%,100%{fill:var(--ce)}}.c.cf{fill:var(--c4);animation-name:cf}@keyframes cg{45.86%{fill:var(--c2)}45.88%,100%{fill:var(--ce)}}.c.cg{fill:var(--c2);animation-name:cg}@keyframes ch{46.19%{fill:var(--c2)}46.21%,100%{fill:var(--ce)}}.c.ch{fill:var(--c2);animation-name:ch}@keyframes ci{49.16%{fill:var(--c2)}49.18%,100%{fill:var(--ce)}}.c.ci{fill:var(--c2);animation-name:ci}@keyframes cj{35.63%{fill:var(--c2)}35.65%,100%{fill:var(--ce)}}.c.cj{fill:var(--c2);animation-name:cj}@keyframes ck{35.96%{fill:var(--c2)}35.98%,100%{fill:var(--ce)}}.c.ck{fill:var(--c2);animation-name:ck}@keyframes cl{36.29%{fill:var(--c2)}36.31%,100%{fill:var(--ce)}}.c.cl{fill:var(--c2);animation-name:cl}@keyframes cm{45.2%{fill:var(--c2)}45.22%,100%{fill:var(--ce)}}.c.cm{fill:var(--c2);animation-name:cm}@keyframes cn{45.53%{fill:var(--c2)}45.55%,100%{fill:var(--ce)}}.c.cn{fill:var(--c2);animation-name:cn}@keyframes co{46.52%{fill:var(--c2)}46.54%,100%{fill:var(--ce)}}.c.co{fill:var(--c2);animation-name:co}@keyframes cp{48.83%{fill:var(--c2)}48.85%,100%{fill:var(--ce)}}.c.cp{fill:var(--c2);animation-name:cp}@keyframes cq{35.3%{fill:var(--c2)}35.32%,100%{fill:var(--ce)}}.c.cq{fill:var(--c2);animation-name:cq}@keyframes cr{72.6%{fill:var(--c4)}72.62%,100%{fill:var(--ce)}}.c.cr{fill:var(--c4);animation-name:cr}@keyframes cs{36.62%{fill:var(--c2)}36.64%,100%{fill:var(--ce)}}.c.cs{fill:var(--c2);animation-name:cs}@keyframes ct{44.87%{fill:var(--c2)}44.89%,100%{fill:var(--ce)}}.c.ct{fill:var(--c2);animation-name:ct}@keyframes cu{44.54%{fill:var(--c2)}44.56%,100%{fill:var(--ce)}}.c.cu{fill:var(--c2);animation-name:cu}@keyframes cv{46.85%{fill:var(--c2)}46.87%,100%{fill:var(--ce)}}.c.cv{fill:var(--c2);animation-name:cv}@keyframes cw{47.18%{fill:var(--c2)}47.2%,100%{fill:var(--ce)}}.c.cw{fill:var(--c2);animation-name:cw}@keyframes cx{34.97%{fill:var(--c2)}34.99%,100%{fill:var(--ce)}}.c.cx{fill:var(--c2);animation-name:cx}@keyframes cy{39.26%{fill:var(--c2)}39.28%,100%{fill:var(--ce)}}.c.cy{fill:var(--c2);animation-name:cy}@keyframes cz{36.95%{fill:var(--c2)}36.97%,100%{fill:var(--ce)}}.c.cz{fill:var(--c2);animation-name:cz}@keyframes c10{39.92%{fill:var(--c2)}39.94%,100%{fill:var(--ce)}}.c.c10{fill:var(--c2);animation-name:c10}@keyframes c11{44.21%{fill:var(--c2)}44.23%,100%{fill:var(--ce)}}.c.c11{fill:var(--c2);animation-name:c11}@keyframes c12{43.88%{fill:var(--c2)}43.9%,100%{fill:var(--ce)}}.c.c12{fill:var(--c2);animation-name:c12}@keyframes c13{47.51%{fill:var(--c2)}47.53%,100%{fill:var(--ce)}}.c.c13{fill:var(--c2);animation-name:c13}@keyframes c14{34.64%{fill:var(--c2)}34.66%,100%{fill:var(--ce)}}.c.c14{fill:var(--c2);animation-name:c14}@keyframes c15{38.93%{fill:var(--c2)}38.95%,100%{fill:var(--ce)}}.c.c15{fill:var(--c2);animation-name:c15}@keyframes c16{37.28%{fill:var(--c2)}37.3%,100%{fill:var(--ce)}}.c.c16{fill:var(--c2);animation-name:c16}@keyframes c17{40.25%{fill:var(--c2)}40.27%,100%{fill:var(--ce)}}.c.c17{fill:var(--c2);animation-name:c17}@keyframes c18{74.25%{fill:var(--c4)}74.27%,100%{fill:var(--ce)}}.c.c18{fill:var(--c4);animation-name:c18}@keyframes c19{43.55%{fill:var(--c2)}43.57%,100%{fill:var(--ce)}}.c.c19{fill:var(--c2);animation-name:c19}@keyframes c1a{43.22%{fill:var(--c2)}43.24%,100%{fill:var(--ce)}}.c.c1a{fill:var(--c2);animation-name:c1a}@keyframes c1b{34.31%{fill:var(--c2)}34.33%,100%{fill:var(--ce)}}.c.c1b{fill:var(--c2);animation-name:c1b}@keyframes c1c{38.6%{fill:var(--c2)}38.62%,100%{fill:var(--ce)}}.c.c1c{fill:var(--c2);animation-name:c1c}@keyframes c1d{37.61%{fill:var(--c2)}37.63%,100%{fill:var(--ce)}}.c.c1d{fill:var(--c2);animation-name:c1d}@keyframes c1e{40.58%{fill:var(--c2)}40.6%,100%{fill:var(--ce)}}.c.c1e{fill:var(--c2);animation-name:c1e}@keyframes c1f{41.57%{fill:var(--c2)}41.59%,100%{fill:var(--ce)}}.c.c1f{fill:var(--c2);animation-name:c1f}@keyframes c1g{41.9%{fill:var(--c2)}41.92%,100%{fill:var(--ce)}}.c.c1g{fill:var(--c2);animation-name:c1g}@keyframes c1h{42.89%{fill:var(--c2)}42.91%,100%{fill:var(--ce)}}.c.c1h{fill:var(--c2);animation-name:c1h}@keyframes c1i{33.98%{fill:var(--c2)}34%,100%{fill:var(--ce)}}.c.c1i{fill:var(--c2);animation-name:c1i}@keyframes c1j{38.27%{fill:var(--c2)}38.29%,100%{fill:var(--ce)}}.c.c1j{fill:var(--c2);animation-name:c1j}@keyframes c1k{37.94%{fill:var(--c2)}37.96%,100%{fill:var(--ce)}}.c.c1k{fill:var(--c2);animation-name:c1k}@keyframes c1l{40.91%{fill:var(--c2)}40.93%,100%{fill:var(--ce)}}.c.c1l{fill:var(--c2);animation-name:c1l}@keyframes c1m{41.24%{fill:var(--c2)}41.26%,100%{fill:var(--ce)}}.c.c1m{fill:var(--c2);animation-name:c1m}@keyframes c1n{42.23%{fill:var(--c2)}42.25%,100%{fill:var(--ce)}}.c.c1n{fill:var(--c2);animation-name:c1n}@keyframes c1o{42.56%{fill:var(--c2)}42.58%,100%{fill:var(--ce)}}.c.c1o{fill:var(--c2);animation-name:c1o}@keyframes c1p{32.33%{fill:var(--c2)}32.35%,100%{fill:var(--ce)}}.c.c1p{fill:var(--c2);animation-name:c1p}@keyframes c1q{32%{fill:var(--c2)}32.02%,100%{fill:var(--ce)}}.c.c1q{fill:var(--c2);animation-name:c1q}@keyframes c1r{31.67%{fill:var(--c2)}31.69%,100%{fill:var(--ce)}}.c.c1r{fill:var(--c2);animation-name:c1r}@keyframes c1s{31.34%{fill:var(--c2)}31.36%,100%{fill:var(--ce)}}.c.c1s{fill:var(--c2);animation-name:c1s}@keyframes c1t{31.01%{fill:var(--c2)}31.03%,100%{fill:var(--ce)}}.c.c1t{fill:var(--c2);animation-name:c1t}@keyframes c1u{30.68%{fill:var(--c2)}30.7%,100%{fill:var(--ce)}}.c.c1u{fill:var(--c2);animation-name:c1u}@keyframes c1v{30.35%{fill:var(--c2)}30.37%,100%{fill:var(--ce)}}.c.c1v{fill:var(--c2);animation-name:c1v}@keyframes c1w{32.66%{fill:var(--c2)}32.68%,100%{fill:var(--ce)}}.c.c1w{fill:var(--c2);animation-name:c1w}@keyframes c1x{78.54%{fill:var(--c4)}78.56%,100%{fill:var(--ce)}}.c.c1x{fill:var(--c4);animation-name:c1x}@keyframes c1y{78.87%{fill:var(--c4)}78.89%,100%{fill:var(--ce)}}.c.c1y{fill:var(--c4);animation-name:c1y}@keyframes c1z{79.2%{fill:var(--c4)}79.22%,100%{fill:var(--ce)}}.c.c1z{fill:var(--c4);animation-name:c1z}@keyframes c20{75.57%{fill:var(--c4)}75.59%,100%{fill:var(--ce)}}.c.c20{fill:var(--c4);animation-name:c20}@keyframes c21{79.86%{fill:var(--c4)}79.88%,100%{fill:var(--ce)}}.c.c21{fill:var(--c4);animation-name:c21}@keyframes c22{80.85%{fill:var(--c4)}80.87%,100%{fill:var(--ce)}}.c.c22{fill:var(--c4);animation-name:c22}@keyframes c23{77.88%{fill:var(--c4)}77.9%,100%{fill:var(--ce)}}.c.c23{fill:var(--c4);animation-name:c23}@keyframes c24{76.89%{fill:var(--c4)}76.91%,100%{fill:var(--ce)}}.c.c24{fill:var(--c4);animation-name:c24}@keyframes c25{76.56%{fill:var(--c4)}76.58%,100%{fill:var(--ce)}}.c.c25{fill:var(--c4);animation-name:c25}@keyframes c26{76.23%{fill:var(--c4)}76.25%,100%{fill:var(--ce)}}.c.c26{fill:var(--c4);animation-name:c26}@keyframes c27{75.9%{fill:var(--c4)}75.92%,100%{fill:var(--ce)}}.c.c27{fill:var(--c4);animation-name:c27}@keyframes c28{80.19%{fill:var(--c4)}80.21%,100%{fill:var(--ce)}}.c.c28{fill:var(--c4);animation-name:c28}@keyframes c29{80.52%{fill:var(--c4)}80.54%,100%{fill:var(--ce)}}.c.c29{fill:var(--c4);animation-name:c29}@keyframes c2a{77.55%{fill:var(--c4)}77.57%,100%{fill:var(--ce)}}.c.c2a{fill:var(--c4);animation-name:c2a}@keyframes c2b{77.22%{fill:var(--c4)}77.24%,100%{fill:var(--ce)}}.c.c2b{fill:var(--c4);animation-name:c2b}@keyframes c2c{27.38%{fill:var(--c1)}27.4%,100%{fill:var(--ce)}}.c.c2c{fill:var(--c1);animation-name:c2c}.u{transform-origin:0 0;transform:scale(0,1);animation:none linear 30300ms infinite}@keyframes u0{4.94%{transform:scale(0.000,1)}4.96%,5.27%{transform:scale(0.100,1)}5.29%,7.25%{transform:scale(0.200,1)}7.27%,13.19%{transform:scale(0.300,1)}13.21%,16.82%{transform:scale(0.400,1)}16.84%,17.48%{transform:scale(0.500,1)}17.5%,18.47%{transform:scale(0.600,1)}18.49%,18.8%{transform:scale(0.700,1)}18.82%,21.11%{transform:scale(0.800,1)}21.13%,27.38%{transform:scale(0.900,1)}27.4%,100%{transform:scale(1.000,1)}}.u.u0{fill:var(--c1);animation-name:u0;transform-origin:0.0px 0}@keyframes u1{30.35%{transform:scale(0.000,1)}30.37%,30.68%{transform:scale(0.019,1)}30.7%,31.01%{transform:scale(0.037,1)}31.03%,31.34%{transform:scale(0.056,1)}31.36%,31.67%{transform:scale(0.074,1)}31.69%,32%{transform:scale(0.093,1)}32.02%,32.33%{transform:scale(0.111,1)}32.35%,32.66%{transform:scale(0.130,1)}32.68%,33.98%{transform:scale(0.148,1)}34%,34.31%{transform:scale(0.167,1)}34.33%,34.64%{transform:scale(0.185,1)}34.66%,34.97%{transform:scale(0.204,1)}34.99%,35.3%{transform:scale(0.222,1)}35.32%,35.63%{transform:scale(0.241,1)}35.65%,35.96%{transform:scale(0.259,1)}35.98%,36.29%{transform:scale(0.278,1)}36.31%,36.62%{transform:scale(0.296,1)}36.64%,36.95%{transform:scale(0.315,1)}36.97%,37.28%{transform:scale(0.333,1)}37.3%,37.61%{transform:scale(0.352,1)}37.63%,37.94%{transform:scale(0.370,1)}37.96%,38.27%{transform:scale(0.389,1)}38.29%,38.6%{transform:scale(0.407,1)}38.62%,38.93%{transform:scale(0.426,1)}38.95%,39.26%{transform:scale(0.444,1)}39.28%,39.92%{transform:scale(0.463,1)}39.94%,40.25%{transform:scale(0.481,1)}40.27%,40.58%{transform:scale(0.500,1)}40.6%,40.91%{transform:scale(0.519,1)}40.93%,41.24%{transform:scale(0.537,1)}41.26%,41.57%{transform:scale(0.556,1)}41.59%,41.9%{transform:scale(0.574,1)}41.92%,42.23%{transform:scale(0.593,1)}42.25%,42.56%{transform:scale(0.611,1)}42.58%,42.89%{transform:scale(0.630,1)}42.91%,43.22%{transform:scale(0.648,1)}43.24%,43.55%{transform:scale(0.667,1)}43.57%,43.88%{transform:scale(0.685,1)}43.9%,44.21%{transform:scale(0.704,1)}44.23%,44.54%{transform:scale(0.722,1)}44.56%,44.87%{transform:scale(0.741,1)}44.89%,45.2%{transform:scale(0.759,1)}45.22%,45.53%{transform:scale(0.778,1)}45.55%,45.86%{transform:scale(0.796,1)}45.88%,46.19%{transform:scale(0.815,1)}46.21%,46.52%{transform:scale(0.833,1)}46.54%,46.85%{transform:scale(0.852,1)}46.87%,47.18%{transform:scale(0.870,1)}47.2%,47.51%{transform:scale(0.889,1)}47.53%,48.83%{transform:scale(0.907,1)}48.85%,49.16%{transform:scale(0.926,1)}49.18%,50.49%{transform:scale(0.944,1)}50.51%,57.42%{transform:scale(0.963,1)}57.44%,60.39%{transform:scale(0.981,1)}60.41%,100%{transform:scale(1.000,1)}}.u.u1{fill:var(--c2);animation-name:u1;transform-origin:99.8px 0}@keyframes u2{66%{transform:scale(0.000,1)}66.02%,71.28%{transform:scale(0.048,1)}71.3%,71.61%{transform:scale(0.095,1)}71.63%,72.6%{transform:scale(0.143,1)}72.62%,74.25%{transform:scale(0.190,1)}74.27%,75.57%{transform:scale(0.238,1)}75.59%,75.9%{transform:scale(0.286,1)}75.92%,76.23%{transform:scale(0.333,1)}76.25%,76.56%{transform:scale(0.381,1)}76.58%,76.89%{transform:scale(0.429,1)}76.91%,77.22%{transform:scale(0.476,1)}77.24%,77.55%{transform:scale(0.524,1)}77.57%,77.88%{transform:scale(0.571,1)}77.9%,78.54%{transform:scale(0.619,1)}78.56%,78.87%{transform:scale(0.667,1)}78.89%,79.2%{transform:scale(0.714,1)}79.22%,79.86%{transform:scale(0.762,1)}79.88%,80.19%{transform:scale(0.810,1)}80.21%,80.52%{transform:scale(0.857,1)}80.54%,80.85%{transform:scale(0.905,1)}80.87%,86.46%{transform:scale(0.952,1)}86.48%,100%{transform:scale(1.000,1)}}.u.u2{fill:var(--c4);animation-name:u2;transform-origin:638.5px 0}.s{shape-rendering:geometricPrecision;fill:var(--cs);animation:none linear 30300ms infinite}@keyframes s0{0%,99.67%{transform:translate(0px,-16px)}0.33%{transform:translate(0px,0px)}4.95%{transform:translate(224px,0px)}5.28%{transform:translate(224px,16px)}5.94%{transform:translate(192px,16px)}7.26%{transform:translate(192px,80px)}12.54%{transform:translate(448px,80px)}13.2%{transform:translate(448px,48px)}16.83%{transform:translate(624px,48px)}17.16%{transform:translate(624px,64px)}17.49%{transform:translate(608px,64px)}17.82%,50.83%{transform:translate(608px,80px)}18.48%{transform:translate(640px,80px)}18.81%{transform:translate(640px,96px)}19.14%{transform:translate(656px,96px)}20.79%{transform:translate(656px,16px)}21.12%{transform:translate(640px,16px)}21.45%{transform:translate(640px,0px)}22.11%{transform:translate(672px,0px)}22.44%{transform:translate(672px,-16px)}26.07%{transform:translate(848px,-16px)}27.06%{transform:translate(848px,32px)}27.39%{transform:translate(832px,32px)}29.04%{transform:translate(832px,112px)}30.03%{transform:translate(784px,112px)}32.34%{transform:translate(784px,0px)}32.67%,78.22%,82.84%{transform:translate(800px,0px)}33%{transform:translate(800px,-16px)}33.66%{transform:translate(768px,-16px)}33.99%{transform:translate(768px,0px)}35.64%{transform:translate(688px,0px)}36.3%{transform:translate(688px,32px)}37.95%{transform:translate(768px,32px)}38.28%{transform:translate(768px,16px)}39.27%{transform:translate(720px,16px)}39.93%{transform:translate(720px,48px)}40.92%{transform:translate(768px,48px)}41.25%{transform:translate(768px,64px)}41.58%{transform:translate(752px,64px)}41.91%{transform:translate(752px,80px)}42.24%{transform:translate(768px,80px)}42.57%{transform:translate(768px,96px)}43.23%{transform:translate(736px,96px)}43.56%{transform:translate(736px,80px)}43.89%,47.85%{transform:translate(720px,80px)}44.22%{transform:translate(720px,64px)}44.55%{transform:translate(704px,64px)}44.88%{transform:translate(704px,48px)}45.21%{transform:translate(688px,48px)}45.54%{transform:translate(688px,64px)}45.87%,70.96%{transform:translate(672px,64px)}46.2%{transform:translate(672px,80px)}46.86%{transform:translate(704px,80px)}47.19%{transform:translate(704px,96px)}47.52%{transform:translate(720px,96px)}48.51%{transform:translate(688px,80px)}48.84%{transform:translate(688px,96px)}50.5%{transform:translate(608px,96px)}54.79%{transform:translate(416px,80px)}55.12%{transform:translate(416px,64px)}59.74%{transform:translate(192px,64px)}60.4%{transform:translate(192px,96px)}65.35%{transform:translate(432px,96px)}66.01%{transform:translate(432px,64px)}71.62%{transform:translate(672px,32px)}72.28%{transform:translate(704px,32px)}72.61%{transform:translate(704px,16px)}73.27%{transform:translate(736px,16px)}74.26%{transform:translate(736px,64px)}75.91%{transform:translate(816px,64px)}76.9%{transform:translate(816px,16px)}77.23%{transform:translate(832px,16px)}77.56%{transform:translate(832px,0px)}79.87%{transform:translate(800px,80px)}80.2%{transform:translate(816px,80px)}80.53%{transform:translate(816px,96px)}80.86%{transform:translate(800px,96px)}97.36%{transform:translate(96px,0px)}97.69%{transform:translate(96px,-16px)}}.s.s0{transform:translate(0px,-16px);animation-name:s0}@keyframes s1{0%,99.67%{transform:translate(16px,-16px)}0.33%{transform:translate(0px,-16px)}0.66%{transform:translate(0px,0px)}5.28%{transform:translate(224px,0px)}5.61%{transform:translate(224px,16px)}6.27%{transform:translate(192px,16px)}7.59%{transform:translate(192px,80px)}12.87%{transform:translate(448px,80px)}13.53%{transform:translate(448px,48px)}17.16%{transform:translate(624px,48px)}17.49%{transform:translate(624px,64px)}17.82%{transform:translate(608px,64px)}18.15%,51.16%{transform:translate(608px,80px)}18.81%{transform:translate(640px,80px)}19.14%{transform:translate(640px,96px)}19.47%{transform:translate(656px,96px)}21.12%{transform:translate(656px,16px)}21.45%{transform:translate(640px,16px)}21.78%{transform:translate(640px,0px)}22.44%{transform:translate(672px,0px)}22.77%{transform:translate(672px,-16px)}26.4%{transform:translate(848px,-16px)}27.39%{transform:translate(848px,32px)}27.72%{transform:translate(832px,32px)}29.37%{transform:translate(832px,112px)}30.36%{transform:translate(784px,112px)}32.67%{transform:translate(784px,0px)}33%,78.55%,83.17%{transform:translate(800px,0px)}33.33%{transform:translate(800px,-16px)}33.99%{transform:translate(768px,-16px)}34.32%{transform:translate(768px,0px)}35.97%{transform:translate(688px,0px)}36.63%{transform:translate(688px,32px)}38.28%{transform:translate(768px,32px)}38.61%{transform:translate(768px,16px)}39.6%{transform:translate(720px,16px)}40.26%{transform:translate(720px,48px)}41.25%{transform:translate(768px,48px)}41.58%{transform:translate(768px,64px)}41.91%{transform:translate(752px,64px)}42.24%{transform:translate(752px,80px)}42.57%{transform:translate(768px,80px)}42.9%{transform:translate(768px,96px)}43.56%{transform:translate(736px,96px)}43.89%{transform:translate(736px,80px)}44.22%,48.18%{transform:translate(720px,80px)}44.55%{transform:translate(720px,64px)}44.88%{transform:translate(704px,64px)}45.21%{transform:translate(704px,48px)}45.54%{transform:translate(688px,48px)}45.87%{transform:translate(688px,64px)}46.2%,71.29%{transform:translate(672px,64px)}46.53%{transform:translate(672px,80px)}47.19%{transform:translate(704px,80px)}47.52%{transform:translate(704px,96px)}47.85%{transform:translate(720px,96px)}48.84%{transform:translate(688px,80px)}49.17%{transform:translate(688px,96px)}50.83%{transform:translate(608px,96px)}55.12%{transform:translate(416px,80px)}55.45%{transform:translate(416px,64px)}60.07%{transform:translate(192px,64px)}60.73%{transform:translate(192px,96px)}65.68%{transform:translate(432px,96px)}66.34%{transform:translate(432px,64px)}71.95%{transform:translate(672px,32px)}72.61%{transform:translate(704px,32px)}72.94%{transform:translate(704px,16px)}73.6%{transform:translate(736px,16px)}74.59%{transform:translate(736px,64px)}76.24%{transform:translate(816px,64px)}77.23%{transform:translate(816px,16px)}77.56%{transform:translate(832px,16px)}77.89%{transform:translate(832px,0px)}80.2%{transform:translate(800px,80px)}80.53%{transform:translate(816px,80px)}80.86%{transform:translate(816px,96px)}81.19%{transform:translate(800px,96px)}97.69%{transform:translate(96px,0px)}98.02%{transform:translate(96px,-16px)}}.s.s1{transform:translate(16px,-16px);animation-name:s1}@keyframes s2{0%,99.67%{transform:translate(32px,-16px)}0.66%{transform:translate(0px,-16px)}0.99%{transform:translate(0px,0px)}5.61%{transform:translate(224px,0px)}5.94%{transform:translate(224px,16px)}6.6%{transform:translate(192px,16px)}7.92%{transform:translate(192px,80px)}13.2%{transform:translate(448px,80px)}13.86%{transform:translate(448px,48px)}17.49%{transform:translate(624px,48px)}17.82%{transform:translate(624px,64px)}18.15%{transform:translate(608px,64px)}18.48%,51.49%{transform:translate(608px,80px)}19.14%{transform:translate(640px,80px)}19.47%{transform:translate(640px,96px)}19.8%{transform:translate(656px,96px)}21.45%{transform:translate(656px,16px)}21.78%{transform:translate(640px,16px)}22.11%{transform:translate(640px,0px)}22.77%{transform:translate(672px,0px)}23.1%{transform:translate(672px,-16px)}26.73%{transform:translate(848px,-16px)}27.72%{transform:translate(848px,32px)}28.05%{transform:translate(832px,32px)}29.7%{transform:translate(832px,112px)}30.69%{transform:translate(784px,112px)}33%{transform:translate(784px,0px)}33.33%,78.88%,83.5%{transform:translate(800px,0px)}33.66%{transform:translate(800px,-16px)}34.32%{transform:translate(768px,-16px)}34.65%{transform:translate(768px,0px)}36.3%{transform:translate(688px,0px)}36.96%{transform:translate(688px,32px)}38.61%{transform:translate(768px,32px)}38.94%{transform:translate(768px,16px)}39.93%{transform:translate(720px,16px)}40.59%{transform:translate(720px,48px)}41.58%{transform:translate(768px,48px)}41.91%{transform:translate(768px,64px)}42.24%{transform:translate(752px,64px)}42.57%{transform:translate(752px,80px)}42.9%{transform:translate(768px,80px)}43.23%{transform:translate(768px,96px)}43.89%{transform:translate(736px,96px)}44.22%{transform:translate(736px,80px)}44.55%,48.51%{transform:translate(720px,80px)}44.88%{transform:translate(720px,64px)}45.21%{transform:translate(704px,64px)}45.54%{transform:translate(704px,48px)}45.87%{transform:translate(688px,48px)}46.2%{transform:translate(688px,64px)}46.53%,71.62%{transform:translate(672px,64px)}46.86%{transform:translate(672px,80px)}47.52%{transform:translate(704px,80px)}47.85%{transform:translate(704px,96px)}48.18%{transform:translate(720px,96px)}49.17%{transform:translate(688px,80px)}49.5%{transform:translate(688px,96px)}51.16%{transform:translate(608px,96px)}55.45%{transform:translate(416px,80px)}55.78%{transform:translate(416px,64px)}60.4%{transform:translate(192px,64px)}61.06%{transform:translate(192px,96px)}66.01%{transform:translate(432px,96px)}66.67%{transform:translate(432px,64px)}72.28%{transform:translate(672px,32px)}72.94%{transform:translate(704px,32px)}73.27%{transform:translate(704px,16px)}73.93%{transform:translate(736px,16px)}74.92%{transform:translate(736px,64px)}76.57%{transform:translate(816px,64px)}77.56%{transform:translate(816px,16px)}77.89%{transform:translate(832px,16px)}78.22%{transform:translate(832px,0px)}80.53%{transform:translate(800px,80px)}80.86%{transform:translate(816px,80px)}81.19%{transform:translate(816px,96px)}81.52%{transform:translate(800px,96px)}98.02%{transform:translate(96px,0px)}98.35%{transform:translate(96px,-16px)}}.s.s2{transform:translate(32px,-16px);animation-name:s2}@keyframes s3{0%,99.67%{transform:translate(48px,-16px)}0.99%{transform:translate(0px,-16px)}1.32%{transform:translate(0px,0px)}5.94%{transform:translate(224px,0px)}6.27%{transform:translate(224px,16px)}6.93%{transform:translate(192px,16px)}8.25%{transform:translate(192px,80px)}13.53%{transform:translate(448px,80px)}14.19%{transform:translate(448px,48px)}17.82%{transform:translate(624px,48px)}18.15%{transform:translate(624px,64px)}18.48%{transform:translate(608px,64px)}18.81%,51.82%{transform:translate(608px,80px)}19.47%{transform:translate(640px,80px)}19.8%{transform:translate(640px,96px)}20.13%{transform:translate(656px,96px)}21.78%{transform:translate(656px,16px)}22.11%{transform:translate(640px,16px)}22.44%{transform:translate(640px,0px)}23.1%{transform:translate(672px,0px)}23.43%{transform:translate(672px,-16px)}27.06%{transform:translate(848px,-16px)}28.05%{transform:translate(848px,32px)}28.38%{transform:translate(832px,32px)}30.03%{transform:translate(832px,112px)}31.02%{transform:translate(784px,112px)}33.33%{transform:translate(784px,0px)}33.66%,79.21%,83.83%{transform:translate(800px,0px)}33.99%{transform:translate(800px,-16px)}34.65%{transform:translate(768px,-16px)}34.98%{transform:translate(768px,0px)}36.63%{transform:translate(688px,0px)}37.29%{transform:translate(688px,32px)}38.94%{transform:translate(768px,32px)}39.27%{transform:translate(768px,16px)}40.26%{transform:translate(720px,16px)}40.92%{transform:translate(720px,48px)}41.91%{transform:translate(768px,48px)}42.24%{transform:translate(768px,64px)}42.57%{transform:translate(752px,64px)}42.9%{transform:translate(752px,80px)}43.23%{transform:translate(768px,80px)}43.56%{transform:translate(768px,96px)}44.22%{transform:translate(736px,96px)}44.55%{transform:translate(736px,80px)}44.88%,48.84%{transform:translate(720px,80px)}45.21%{transform:translate(720px,64px)}45.54%{transform:translate(704px,64px)}45.87%{transform:translate(704px,48px)}46.2%{transform:translate(688px,48px)}46.53%{transform:translate(688px,64px)}46.86%,71.95%{transform:translate(672px,64px)}47.19%{transform:translate(672px,80px)}47.85%{transform:translate(704px,80px)}48.18%{transform:translate(704px,96px)}48.51%{transform:translate(720px,96px)}49.5%{transform:translate(688px,80px)}49.83%{transform:translate(688px,96px)}51.49%{transform:translate(608px,96px)}55.78%{transform:translate(416px,80px)}56.11%{transform:translate(416px,64px)}60.73%{transform:translate(192px,64px)}61.39%{transform:translate(192px,96px)}66.34%{transform:translate(432px,96px)}67%{transform:translate(432px,64px)}72.61%{transform:translate(672px,32px)}73.27%{transform:translate(704px,32px)}73.6%{transform:translate(704px,16px)}74.26%{transform:translate(736px,16px)}75.25%{transform:translate(736px,64px)}76.9%{transform:translate(816px,64px)}77.89%{transform:translate(816px,16px)}78.22%{transform:translate(832px,16px)}78.55%{transform:translate(832px,0px)}80.86%{transform:translate(800px,80px)}81.19%{transform:translate(816px,80px)}81.52%{transform:translate(816px,96px)}81.85%{transform:translate(800px,96px)}98.35%{transform:translate(96px,0px)}98.68%{transform:translate(96px,-16px)}}.s.s3{transform:translate(48px,-16px);animation-name:s3}</style><rect class="c" x="2" y="2" rx="2" ry="2"/><rect class="c" x="2" y="18" rx="2" ry="2"/><rect class="c" x="2" y="34" rx="2" ry="2"/><rect class="c" x="2" y="50" rx="2" ry="2"/><rect class="c" x="2" y="66" rx="2" ry="2"/><rect class="c" x="2" y="82" rx="2" ry="2"/><rect class="c" x="2" y="98" rx="2" ry="2"/><rect class="c" x="18" y="2" rx="2" ry="2"/><rect class="c" x="18" y="18" rx="2" ry="2"/><rect class="c" x="18" y="34" rx="2" ry="2"/><rect class="c" x="18" y="50" rx="2" ry="2"/><rect class="c" x="18" y="66" rx="2" ry="2"/><rect class="c" x="18" y="82" rx="2" ry="2"/><rect class="c" x="18" y="98" rx="2" ry="2"/><rect class="c" x="34" y="2" rx="2" ry="2"/><rect class="c" x="34" y="18" rx="2" ry="2"/><rect class="c" x="34" y="34" rx="2" ry="2"/><rect class="c" x="34" y="50" rx="2" ry="2"/><rect class="c" x="34" y="66" rx="2" ry="2"/><rect class="c" x="34" y="82" rx="2" ry="2"/><rect class="c" x="34" y="98" rx="2" ry="2"/><rect class="c" x="50" y="2" rx="2" ry="2"/><rect class="c" x="50" y="18" rx="2" ry="2"/><rect class="c" x="50" y="34" rx="2" ry="2"/><rect class="c" x="50" y="50" rx="2" ry="2"/><rect class="c" x="50" y="66" rx="2" ry="2"/><rect class="c" x="50" y="82" rx="2" ry="2"/><rect class="c" x="50" y="98" rx="2" ry="2"/><rect class="c" x="66" y="2" rx="2" ry="2"/><rect class="c" x="66" y="18" rx="2" ry="2"/><rect class="c" x="66" y="34" rx="2" ry="2"/><rect class="c" x="66" y="50" rx="2" ry="2"/><rect class="c" x="66" y="66" rx="2" ry="2"/><rect class="c" x="66" y="82" rx="2" ry="2"/><rect class="c" x="66" y="98" rx="2" ry="2"/><rect class="c" x="82" y="2" rx="2" ry="2"/><rect class="c" x="82" y="18" rx="2" ry="2"/><rect class="c" x="82" y="34" rx="2" ry="2"/><rect class="c" x="82" y="50" rx="2" ry="2"/><rect class="c" x="82" y="66" rx="2" ry="2"/><rect class="c" x="82" y="82" rx="2" ry="2"/><rect class="c" x="82" y="98" rx="2" ry="2"/><rect class="c" x="98" y="2" rx="2" ry="2"/><rect class="c" x="98" y="18" rx="2" ry="2"/><rect class="c" x="98" y="34" rx="2" ry="2"/><rect class="c" x="98" y="50" rx="2" ry="2"/><rect class="c" x="98" y="66" rx="2" ry="2"/><rect class="c" x="98" y="82" rx="2" ry="2"/><rect class="c" x="98" y="98" rx="2" ry="2"/><rect class="c" x="114" y="2" rx="2" ry="2"/><rect class="c" x="114" y="18" rx="2" ry="2"/><rect class="c" x="114" y="34" rx="2" ry="2"/><rect class="c" x="114" y="50" rx="2" ry="2"/><rect class="c" x="114" y="66" rx="2" ry="2"/><rect class="c" x="114" y="82" rx="2" ry="2"/><rect class="c" x="114" y="98" rx="2" ry="2"/><rect class="c" x="130" y="2" rx="2" ry="2"/><rect class="c" x="130" y="18" rx="2" ry="2"/><rect class="c" x="130" y="34" rx="2" ry="2"/><rect class="c" x="130" y="50" rx="2" ry="2"/><rect class="c" x="130" y="66" rx="2" ry="2"/><rect class="c" x="130" y="82" rx="2" ry="2"/><rect class="c" x="130" y="98" rx="2" ry="2"/><rect class="c" x="146" y="2" rx="2" ry="2"/><rect class="c" x="146" y="18" rx="2" ry="2"/><rect class="c" x="146" y="34" rx="2" ry="2"/><rect class="c" x="146" y="50" rx="2" ry="2"/><rect class="c" x="146" y="66" rx="2" ry="2"/><rect class="c" x="146" y="82" rx="2" ry="2"/><rect class="c" x="146" y="98" rx="2" ry="2"/><rect class="c" x="162" y="2" rx="2" ry="2"/><rect class="c" x="162" y="18" rx="2" ry="2"/><rect class="c" x="162" y="34" rx="2" ry="2"/><rect class="c" x="162" y="50" rx="2" ry="2"/><rect class="c" x="162" y="66" rx="2" ry="2"/><rect class="c" x="162" y="82" rx="2" ry="2"/><rect class="c" x="162" y="98" rx="2" ry="2"/><rect class="c" x="178" y="2" rx="2" ry="2"/><rect class="c" x="178" y="18" rx="2" ry="2"/><rect class="c" x="178" y="34" rx="2" ry="2"/><rect class="c" x="178" y="50" rx="2" ry="2"/><rect class="c" x="178" y="66" rx="2" ry="2"/><rect class="c" x="178" y="82" rx="2" ry="2"/><rect class="c" x="178" y="98" rx="2" ry="2"/><rect class="c" x="194" y="2" rx="2" ry="2"/><rect class="c" x="194" y="18" rx="2" ry="2"/><rect class="c" x="194" y="34" rx="2" ry="2"/><rect class="c" x="194" y="50" rx="2" ry="2"/><rect class="c" x="194" y="66" rx="2" ry="2"/><rect class="c c0" x="194" y="82" rx="2" ry="2"/><rect class="c c1" x="194" y="98" rx="2" ry="2"/><rect class="c" x="210" y="2" rx="2" ry="2"/><rect class="c" x="210" y="18" rx="2" ry="2"/><rect class="c" x="210" y="34" rx="2" ry="2"/><rect class="c" x="210" y="50" rx="2" ry="2"/><rect class="c" x="210" y="66" rx="2" ry="2"/><rect class="c" x="210" y="82" rx="2" ry="2"/><rect class="c" x="210" y="98" rx="2" ry="2"/><rect class="c c2" x="226" y="2" rx="2" ry="2"/><rect class="c c3" x="226" y="18" rx="2" ry="2"/><rect class="c" x="226" y="34" rx="2" ry="2"/><rect class="c" x="226" y="50" rx="2" ry="2"/><rect class="c" x="226" y="66" rx="2" ry="2"/><rect class="c" x="226" y="82" rx="2" ry="2"/><rect class="c" x="226" y="98" rx="2" ry="2"/><rect class="c" x="242" y="2" rx="2" ry="2"/><rect class="c" x="242" y="18" rx="2" ry="2"/><rect class="c" x="242" y="34" rx="2" ry="2"/><rect class="c" x="242" y="50" rx="2" ry="2"/><rect class="c" x="242" y="66" rx="2" ry="2"/><rect class="c" x="242" y="82" rx="2" ry="2"/><rect class="c" x="242" y="98" rx="2" ry="2"/><rect class="c" x="258" y="2" rx="2" ry="2"/><rect class="c" x="258" y="18" rx="2" ry="2"/><rect class="c" x="258" y="34" rx="2" ry="2"/><rect class="c" x="258" y="50" rx="2" ry="2"/><rect class="c" x="258" y="66" rx="2" ry="2"/><rect class="c" x="258" y="82" rx="2" ry="2"/><rect class="c" x="258" y="98" rx="2" ry="2"/><rect class="c" x="274" y="2" rx="2" ry="2"/><rect class="c" x="274" y="18" rx="2" ry="2"/><rect class="c" x="274" y="34" rx="2" ry="2"/><rect class="c" x="274" y="50" rx="2" ry="2"/><rect class="c" x="274" y="66" rx="2" ry="2"/><rect class="c" x="274" y="82" rx="2" ry="2"/><rect class="c" x="274" y="98" rx="2" ry="2"/><rect class="c" x="290" y="2" rx="2" ry="2"/><rect class="c" x="290" y="18" rx="2" ry="2"/><rect class="c" x="290" y="34" rx="2" ry="2"/><rect class="c" x="290" y="50" rx="2" ry="2"/><rect class="c" x="290" y="66" rx="2" ry="2"/><rect class="c" x="290" y="82" rx="2" ry="2"/><rect class="c" x="290" y="98" rx="2" ry="2"/><rect class="c" x="306" y="2" rx="2" ry="2"/><rect class="c" x="306" y="18" rx="2" ry="2"/><rect class="c" x="306" y="34" rx="2" ry="2"/><rect class="c" x="306" y="50" rx="2" ry="2"/><rect class="c c4" x="306" y="66" rx="2" ry="2"/><rect class="c" x="306" y="82" rx="2" ry="2"/><rect class="c" x="306" y="98" rx="2" ry="2"/><rect class="c" x="322" y="2" rx="2" ry="2"/><rect class="c" x="322" y="18" rx="2" ry="2"/><rect class="c" x="322" y="34" rx="2" ry="2"/><rect class="c" x="322" y="50" rx="2" ry="2"/><rect class="c" x="322" y="66" rx="2" ry="2"/><rect class="c" x="322" y="82" rx="2" ry="2"/><rect class="c" x="322" y="98" rx="2" ry="2"/><rect class="c" x="338" y="2" rx="2" ry="2"/><rect class="c" x="338" y="18" rx="2" ry="2"/><rect class="c" x="338" y="34" rx="2" ry="2"/><rect class="c" x="338" y="50" rx="2" ry="2"/><rect class="c" x="338" y="66" rx="2" ry="2"/><rect class="c" x="338" y="82" rx="2" ry="2"/><rect class="c" x="338" y="98" rx="2" ry="2"/><rect class="c" x="354" y="2" rx="2" ry="2"/><rect class="c" x="354" y="18" rx="2" ry="2"/><rect class="c" x="354" y="34" rx="2" ry="2"/><rect class="c" x="354" y="50" rx="2" ry="2"/><rect class="c" x="354" y="66" rx="2" ry="2"/><rect class="c" x="354" y="82" rx="2" ry="2"/><rect class="c" x="354" y="98" rx="2" ry="2"/><rect class="c" x="370" y="2" rx="2" ry="2"/><rect class="c" x="370" y="18" rx="2" ry="2"/><rect class="c" x="370" y="34" rx="2" ry="2"/><rect class="c" x="370" y="50" rx="2" ry="2"/><rect class="c" x="370" y="66" rx="2" ry="2"/><rect class="c" x="370" y="82" rx="2" ry="2"/><rect class="c" x="370" y="98" rx="2" ry="2"/><rect class="c" x="386" y="2" rx="2" ry="2"/><rect class="c" x="386" y="18" rx="2" ry="2"/><rect class="c" x="386" y="34" rx="2" ry="2"/><rect class="c" x="386" y="50" rx="2" ry="2"/><rect class="c" x="386" y="66" rx="2" ry="2"/><rect class="c" x="386" y="82" rx="2" ry="2"/><rect class="c" x="386" y="98" rx="2" ry="2"/><rect class="c" x="402" y="2" rx="2" ry="2"/><rect class="c" x="402" y="18" rx="2" ry="2"/><rect class="c" x="402" y="34" rx="2" ry="2"/><rect class="c" x="402" y="50" rx="2" ry="2"/><rect class="c" x="402" y="66" rx="2" ry="2"/><rect class="c" x="402" y="82" rx="2" ry="2"/><rect class="c" x="402" y="98" rx="2" ry="2"/><rect class="c" x="418" y="2" rx="2" ry="2"/><rect class="c" x="418" y="18" rx="2" ry="2"/><rect class="c" x="418" y="34" rx="2" ry="2"/><rect class="c" x="418" y="50" rx="2" ry="2"/><rect class="c" x="418" y="66" rx="2" ry="2"/><rect class="c" x="418" y="82" rx="2" ry="2"/><rect class="c" x="418" y="98" rx="2" ry="2"/><rect class="c" x="434" y="2" rx="2" ry="2"/><rect class="c" x="434" y="18" rx="2" ry="2"/><rect class="c" x="434" y="34" rx="2" ry="2"/><rect class="c" x="434" y="50" rx="2" ry="2"/><rect class="c c5" x="434" y="66" rx="2" ry="2"/><rect class="c" x="434" y="82" rx="2" ry="2"/><rect class="c" x="434" y="98" rx="2" ry="2"/><rect class="c" x="450" y="2" rx="2" ry="2"/><rect class="c" x="450" y="18" rx="2" ry="2"/><rect class="c" x="450" y="34" rx="2" ry="2"/><rect class="c c6" x="450" y="50" rx="2" ry="2"/><rect class="c" x="450" y="66" rx="2" ry="2"/><rect class="c" x="450" y="82" rx="2" ry="2"/><rect class="c" x="450" y="98" rx="2" ry="2"/><rect class="c" x="466" y="2" rx="2" ry="2"/><rect class="c" x="466" y="18" rx="2" ry="2"/><rect class="c" x="466" y="34" rx="2" ry="2"/><rect class="c" x="466" y="50" rx="2" ry="2"/><rect class="c" x="466" y="66" rx="2" ry="2"/><rect class="c" x="466" y="82" rx="2" ry="2"/><rect class="c" x="466" y="98" rx="2" ry="2"/><rect class="c" x="482" y="2" rx="2" ry="2"/><rect class="c" x="482" y="18" rx="2" ry="2"/><rect class="c" x="482" y="34" rx="2" ry="2"/><rect class="c" x="482" y="50" rx="2" ry="2"/><rect class="c" x="482" y="66" rx="2" ry="2"/><rect class="c" x="482" y="82" rx="2" ry="2"/><rect class="c" x="482" y="98" rx="2" ry="2"/><rect class="c" x="498" y="2" rx="2" ry="2"/><rect class="c" x="498" y="18" rx="2" ry="2"/><rect class="c" x="498" y="34" rx="2" ry="2"/><rect class="c" x="498" y="50" rx="2" ry="2"/><rect class="c" x="498" y="66" rx="2" ry="2"/><rect class="c" x="498" y="82" rx="2" ry="2"/><rect class="c" x="498" y="98" rx="2" ry="2"/><rect class="c" x="514" y="2" rx="2" ry="2"/><rect class="c" x="514" y="18" rx="2" ry="2"/><rect class="c" x="514" y="34" rx="2" ry="2"/><rect class="c" x="514" y="50" rx="2" ry="2"/><rect class="c" x="514" y="66" rx="2" ry="2"/><rect class="c" x="514" y="82" rx="2" ry="2"/><rect class="c" x="514" y="98" rx="2" ry="2"/><rect class="c" x="530" y="2" rx="2" ry="2"/><rect class="c" x="530" y="18" rx="2" ry="2"/><rect class="c" x="530" y="34" rx="2" ry="2"/><rect class="c" x="530" y="50" rx="2" ry="2"/><rect class="c" x="530" y="66" rx="2" ry="2"/><rect class="c" x="530" y="82" rx="2" ry="2"/><rect class="c" x="530" y="98" rx="2" ry="2"/><rect class="c" x="546" y="2" rx="2" ry="2"/><rect class="c" x="546" y="18" rx="2" ry="2"/><rect class="c" x="546" y="34" rx="2" ry="2"/><rect class="c" x="546" y="50" rx="2" ry="2"/><rect class="c" x="546" y="66" rx="2" ry="2"/><rect class="c" x="546" y="82" rx="2" ry="2"/><rect class="c" x="546" y="98" rx="2" ry="2"/><rect class="c" x="562" y="2" rx="2" ry="2"/><rect class="c" x="562" y="18" rx="2" ry="2"/><rect class="c" x="562" y="34" rx="2" ry="2"/><rect class="c" x="562" y="50" rx="2" ry="2"/><rect class="c" x="562" y="66" rx="2" ry="2"/><rect class="c" x="562" y="82" rx="2" ry="2"/><rect class="c" x="562" y="98" rx="2" ry="2"/><rect class="c" x="578" y="2" rx="2" ry="2"/><rect class="c" x="578" y="18" rx="2" ry="2"/><rect class="c" x="578" y="34" rx="2" ry="2"/><rect class="c" x="578" y="50" rx="2" ry="2"/><rect class="c" x="578" y="66" rx="2" ry="2"/><rect class="c" x="578" y="82" rx="2" ry="2"/><rect class="c" x="578" y="98" rx="2" ry="2"/><rect class="c" x="594" y="2" rx="2" ry="2"/><rect class="c" x="594" y="18" rx="2" ry="2"/><rect class="c" x="594" y="34" rx="2" ry="2"/><rect class="c" x="594" y="50" rx="2" ry="2"/><rect class="c" x="594" y="66" rx="2" ry="2"/><rect class="c" x="594" y="82" rx="2" ry="2"/><rect class="c" x="594" y="98" rx="2" ry="2"/><rect class="c" x="610" y="2" rx="2" ry="2"/><rect class="c" x="610" y="18" rx="2" ry="2"/><rect class="c" x="610" y="34" rx="2" ry="2"/><rect class="c" x="610" y="50" rx="2" ry="2"/><rect class="c c7" x="610" y="66" rx="2" ry="2"/><rect class="c" x="610" y="82" rx="2" ry="2"/><rect class="c c8" x="610" y="98" rx="2" ry="2"/><rect class="c c9" x="626" y="2" rx="2" ry="2"/><rect class="c" x="626" y="18" rx="2" ry="2"/><rect class="c" x="626" y="34" rx="2" ry="2"/><rect class="c ca" x="626" y="50" rx="2" ry="2"/><rect class="c" x="626" y="66" rx="2" ry="2"/><rect class="c" x="626" y="82" rx="2" ry="2"/><rect class="c" x="626" y="98" rx="2" ry="2"/><rect class="c" x="642" y="2" rx="2" ry="2"/><rect class="c cb" x="642" y="18" rx="2" ry="2"/><rect class="c" x="642" y="34" rx="2" ry="2"/><rect class="c" x="642" y="50" rx="2" ry="2"/><rect class="c" x="642" y="66" rx="2" ry="2"/><rect class="c cc" x="642" y="82" rx="2" ry="2"/><rect class="c cd" x="642" y="98" rx="2" ry="2"/><rect class="c" x="658" y="2" rx="2" ry="2"/><rect class="c" x="658" y="18" rx="2" ry="2"/><rect class="c" x="658" y="34" rx="2" ry="2"/><rect class="c" x="658" y="50" rx="2" ry="2"/><rect class="c" x="658" y="66" rx="2" ry="2"/><rect class="c" x="658" y="82" rx="2" ry="2"/><rect class="c" x="658" y="98" rx="2" ry="2"/><rect class="c" x="674" y="2" rx="2" ry="2"/><rect class="c" x="674" y="18" rx="2" ry="2"/><rect class="c ce" x="674" y="34" rx="2" ry="2"/><rect class="c cf" x="674" y="50" rx="2" ry="2"/><rect class="c cg" x="674" y="66" rx="2" ry="2"/><rect class="c ch" x="674" y="82" rx="2" ry="2"/><rect class="c ci" x="674" y="98" rx="2" ry="2"/><rect class="c cj" x="690" y="2" rx="2" ry="2"/><rect class="c ck" x="690" y="18" rx="2" ry="2"/><rect class="c cl" x="690" y="34" rx="2" ry="2"/><rect class="c cm" x="690" y="50" rx="2" ry="2"/><rect class="c cn" x="690" y="66" rx="2" ry="2"/><rect class="c co" x="690" y="82" rx="2" ry="2"/><rect class="c cp" x="690" y="98" rx="2" ry="2"/><rect class="c cq" x="706" y="2" rx="2" ry="2"/><rect class="c cr" x="706" y="18" rx="2" ry="2"/><rect class="c cs" x="706" y="34" rx="2" ry="2"/><rect class="c ct" x="706" y="50" rx="2" ry="2"/><rect class="c cu" x="706" y="66" rx="2" ry="2"/><rect class="c cv" x="706" y="82" rx="2" ry="2"/><rect class="c cw" x="706" y="98" rx="2" ry="2"/><rect class="c cx" x="722" y="2" rx="2" ry="2"/><rect class="c cy" x="722" y="18" rx="2" ry="2"/><rect class="c cz" x="722" y="34" rx="2" ry="2"/><rect class="c c10" x="722" y="50" rx="2" ry="2"/><rect class="c c11" x="722" y="66" rx="2" ry="2"/><rect class="c c12" x="722" y="82" rx="2" ry="2"/><rect class="c c13" x="722" y="98" rx="2" ry="2"/><rect class="c c14" x="738" y="2" rx="2" ry="2"/><rect class="c c15" x="738" y="18" rx="2" ry="2"/><rect class="c c16" x="738" y="34" rx="2" ry="2"/><rect class="c c17" x="738" y="50" rx="2" ry="2"/><rect class="c c18" x="738" y="66" rx="2" ry="2"/><rect class="c c19" x="738" y="82" rx="2" ry="2"/><rect class="c c1a" x="738" y="98" rx="2" ry="2"/><rect class="c c1b" x="754" y="2" rx="2" ry="2"/><rect class="c c1c" x="754" y="18" rx="2" ry="2"/><rect class="c c1d" x="754" y="34" rx="2" ry="2"/><rect class="c c1e" x="754" y="50" rx="2" ry="2"/><rect class="c c1f" x="754" y="66" rx="2" ry="2"/><rect class="c c1g" x="754" y="82" rx="2" ry="2"/><rect class="c c1h" x="754" y="98" rx="2" ry="2"/><rect class="c c1i" x="770" y="2" rx="2" ry="2"/><rect class="c c1j" x="770" y="18" rx="2" ry="2"/><rect class="c c1k" x="770" y="34" rx="2" ry="2"/><rect class="c c1l" x="770" y="50" rx="2" ry="2"/><rect class="c c1m" x="770" y="66" rx="2" ry="2"/><rect class="c c1n" x="770" y="82" rx="2" ry="2"/><rect class="c c1o" x="770" y="98" rx="2" ry="2"/><rect class="c c1p" x="786" y="2" rx="2" ry="2"/><rect class="c c1q" x="786" y="18" rx="2" ry="2"/><rect class="c c1r" x="786" y="34" rx="2" ry="2"/><rect class="c c1s" x="786" y="50" rx="2" ry="2"/><rect class="c c1t" x="786" y="66" rx="2" ry="2"/><rect class="c c1u" x="786" y="82" rx="2" ry="2"/><rect class="c c1v" x="786" y="98" rx="2" ry="2"/><rect class="c c1w" x="802" y="2" rx="2" ry="2"/><rect class="c c1x" x="802" y="18" rx="2" ry="2"/><rect class="c c1y" x="802" y="34" rx="2" ry="2"/><rect class="c c1z" x="802" y="50" rx="2" ry="2"/><rect class="c c20" x="802" y="66" rx="2" ry="2"/><rect class="c c21" x="802" y="82" rx="2" ry="2"/><rect class="c c22" x="802" y="98" rx="2" ry="2"/><rect class="c c23" x="818" y="2" rx="2" ry="2"/><rect class="c c24" x="818" y="18" rx="2" ry="2"/><rect class="c c25" x="818" y="34" rx="2" ry="2"/><rect class="c c26" x="818" y="50" rx="2" ry="2"/><rect class="c c27" x="818" y="66" rx="2" ry="2"/><rect class="c c28" x="818" y="82" rx="2" ry="2"/><rect class="c c29" x="818" y="98" rx="2" ry="2"/><rect class="c c2a" x="834" y="2" rx="2" ry="2"/><rect class="c c2b" x="834" y="18" rx="2" ry="2"/><rect class="c c2c" x="834" y="34" rx="2" ry="2"/><rect class="u u0" height="12" width="100.4" x="0.0" y="144"/><rect class="u u1" height="12" width="539.3" x="99.8" y="144"/><rect class="u u2" height="12" width="210.1" x="638.5" y="144"/><rect class="s s0" x="0.8" y="0.8" width="14.4" height="14.4" rx="4.5" ry="4.5"/><rect class="s s1" x="1.8" y="1.8" width="12.3" height="12.3" rx="4.1" ry="4.1"/><rect class="s s2" x="2.6" y="2.6" width="10.8" height="10.8" rx="3.6" ry="3.6"/><rect class="s s3" x="3.0" y="3.0" width="9.9" height="9.9" rx="3.3" ry="3.3"/></svg>