<svg viewBox="-16 -32 880 192" width="880" height="192" xmlns="http://www.w3.org/2000/svg"><desc>Generated with https://github.com/Platane/snk</desc><style>:root{--cb:#1b1f230a;--cs:purple;--ce:#161b22;--c0:#161b22;--c1:#01311f;--c2:#034525;--c3:#0f6d31;--c4:#00c647}.c{shape-rendering:geometricPrecision;fill:var(--ce);stroke-width:1px;stroke:var(--cb);animation:none 32700ms linear infinite;width:12px;height:12px}@keyframes c0{6.72%{fill:var(--c1)}6.74%,100%{fill:var(--ce)}}.c.c0{fill:var(--c1);animation-name:c0}@keyframes c1{63.29%{fill:var(--c2)}63.31%,100%{fill:var(--ce)}}.c.c1{fill:var(--c2);animation-name:c1}@keyframes c2{4.58%{fill:var(--c1)}4.6%,100%{fill:var(--ce)}}.c.c2{fill:var(--c1);animation-name:c2}@keyframes c3{4.88%{fill:var(--c1)}4.9%,100%{fill:var(--ce)}}.c.c3{fill:var(--c1);animation-name:c3}@keyframes c4{60.54%{fill:var(--c2)}60.56%,100%{fill:var(--ce)}}.c.c4{fill:var(--c2);animation-name:c4}@keyframes c5{68.49%{fill:var(--c4)}68.51%,100%{fill:var(--ce)}}.c.c5{fill:var(--c4);animation-name:c5}@keyframes c6{12.22%{fill:var(--c1)}12.24%,100%{fill:var(--ce)}}.c.c6{fill:var(--c1);animation-name:c6}@keyframes c7{16.2%{fill:var(--c1)}16.22%,100%{fill:var(--ce)}}.c.c7{fill:var(--c1);animation-name:c7}@keyframes c8{41.89%{fill:var(--c2)}41.91%,100%{fill:var(--ce)}}.c.c8{fill:var(--c2);animation-name:c8}@keyframes c9{87.45%{fill:var(--c4)}87.47%,100%{fill:var(--ce)}}.c.c9{fill:var(--c4);animation-name:c9}@keyframes ca{15.59%{fill:var(--c1)}15.61%,100%{fill:var(--ce)}}.c.ca{fill:var(--c1);animation-name:ca}@keyframes cb{19.56%{fill:var(--c1)}19.58%,100%{fill:var(--ce)}}.c.cb{fill:var(--c1);animation-name:cb}@keyframes cc{17.12%{fill:var(--c1)}17.14%,100%{fill:var(--ce)}}.c.cc{fill:var(--c1);animation-name:cc}@keyframes cd{17.42%{fill:var(--c1)}17.44%,100%{fill:var(--ce)}}.c.cd{fill:var(--c1);animation-name:cd}@keyframes ce{73.69%{fill:var(--c4)}73.71%,100%{fill:var(--ce)}}.c.ce{fill:var(--c4);animation-name:ce}@keyframes cf{73.38%{fill:var(--c4)}73.4%,100%{fill:var(--ce)}}.c.cf{fill:var(--c4);animation-name:cf}@keyframes cg{39.44%{fill:var(--c2)}39.46%,100%{fill:var(--ce)}}.c.cg{fill:var(--c2);animation-name:cg}@keyframes ch{39.13%{fill:var(--c2)}39.15%,100%{fill:var(--ce)}}.c.ch{fill:var(--c2);animation-name:ch}@keyframes ci{40.66%{fill:var(--c2)}40.68%,100%{fill:var(--ce)}}.c.ci{fill:var(--c2);animation-name:ci}@keyframes cj{20.79%{fill:var(--c2)}20.81%,100%{fill:var(--ce)}}.c.cj{fill:var(--c2);animation-name:cj}@keyframes ck{29.65%{fill:var(--c2)}29.67%,100%{fill:var(--ce)}}.c.ck{fill:var(--c2);animation-name:ck}@keyframes cl{29.35%{fill:var(--c2)}29.37%,100%{fill:var(--ce)}}.c.cl{fill:var(--c2);animation-name:cl}@keyframes cm{31.49%{fill:var(--c2)}31.51%,100%{fill:var(--ce)}}.c.cm{fill:var(--c2);animation-name:cm}@keyframes cn{31.79%{fill:var(--c2)}31.81%,100%{fill:var(--ce)}}.c.cn{fill:var(--c2);animation-name:cn}@keyframes co{38.83%{fill:var(--c2)}38.85%,100%{fill:var(--ce)}}.c.co{fill:var(--c2);animation-name:co}@keyframes cp{40.36%{fill:var(--c2)}40.38%,100%{fill:var(--ce)}}.c.cp{fill:var(--c2);animation-name:cp}@keyframes cq{21.09%{fill:var(--c2)}21.11%,100%{fill:var(--ce)}}.c.cq{fill:var(--c2);animation-name:cq}@keyframes cr{74.61%{fill:var(--c4)}74.63%,100%{fill:var(--ce)}}.c.cr{fill:var(--c4);animation-name:cr}@keyframes cs{29.04%{fill:var(--c2)}29.06%,100%{fill:var(--ce)}}.c.cs{fill:var(--c2);animation-name:cs}@keyframes ct{28.74%{fill:var(--c2)}28.76%,100%{fill:var(--ce)}}.c.ct{fill:var(--c2);animation-name:ct}@keyframes cu{32.1%{fill:var(--c2)}32.12%,100%{fill:var(--ce)}}.c.cu{fill:var(--c2);animation-name:cu}@keyframes cv{38.52%{fill:var(--c2)}38.54%,100%{fill:var(--ce)}}.c.cv{fill:var(--c2);animation-name:cv}@keyframes cw{38.22%{fill:var(--c2)}38.24%,100%{fill:var(--ce)}}.c.cw{fill:var(--c2);animation-name:cw}@keyframes cx{21.4%{fill:var(--c2)}21.42%,100%{fill:var(--ce)}}.c.cx{fill:var(--c2);animation-name:cx}@keyframes cy{25.37%{fill:var(--c2)}25.39%,100%{fill:var(--ce)}}.c.cy{fill:var(--c2);animation-name:cy}@keyframes cz{25.68%{fill:var(--c2)}25.7%,100%{fill:var(--ce)}}.c.cz{fill:var(--c2);animation-name:cz}@keyframes c10{28.43%{fill:var(--c2)}28.45%,100%{fill:var(--ce)}}.c.c10{fill:var(--c2);animation-name:c10}@keyframes c11{32.41%{fill:var(--c2)}32.43%,100%{fill:var(--ce)}}.c.c11{fill:var(--c2);animation-name:c11}@keyframes c12{32.71%{fill:var(--c2)}32.73%,100%{fill:var(--ce)}}.c.c12{fill:var(--c2);animation-name:c12}@keyframes c13{37.91%{fill:var(--c2)}37.93%,100%{fill:var(--ce)}}.c.c13{fill:var(--c2);animation-name:c13}@keyframes c14{21.7%{fill:var(--c2)}21.72%,100%{fill:var(--ce)}}.c.c14{fill:var(--c2);animation-name:c14}@keyframes c15{25.07%{fill:var(--c2)}25.09%,100%{fill:var(--ce)}}.c.c15{fill:var(--c2);animation-name:c15}@keyframes c16{25.98%{fill:var(--c2)}26%,100%{fill:var(--ce)}}.c.c16{fill:var(--c2);animation-name:c16}@keyframes c17{28.12%{fill:var(--c2)}28.14%,100%{fill:var(--ce)}}.c.c17{fill:var(--c2);animation-name:c17}@keyframes c18{76.14%{fill:var(--c4)}76.16%,100%{fill:var(--ce)}}.c.c18{fill:var(--c4);animation-name:c18}@keyframes c19{33.02%{fill:var(--c2)}33.04%,100%{fill:var(--ce)}}.c.c19{fill:var(--c2);animation-name:c19}@keyframes c1a{37.6%{fill:var(--c2)}37.62%,100%{fill:var(--ce)}}.c.c1a{fill:var(--c2);animation-name:c1a}@keyframes c1b{22.01%{fill:var(--c2)}22.03%,100%{fill:var(--ce)}}.c.c1b{fill:var(--c2);animation-name:c1b}@keyframes c1c{24.76%{fill:var(--c2)}24.78%,100%{fill:var(--ce)}}.c.c1c{fill:var(--c2);animation-name:c1c}@keyframes c1d{26.29%{fill:var(--c2)}26.31%,100%{fill:var(--ce)}}.c.c1d{fill:var(--c2);animation-name:c1d}@keyframes c1e{27.82%{fill:var(--c2)}27.84%,100%{fill:var(--ce)}}.c.c1e{fill:var(--c2);animation-name:c1e}@keyframes c1f{34.85%{fill:var(--c2)}34.87%,100%{fill:var(--ce)}}.c.c1f{fill:var(--c2);animation-name:c1f}@keyframes c1g{33.32%{fill:var(--c2)}33.34%,100%{fill:var(--ce)}}.c.c1g{fill:var(--c2);animation-name:c1g}@keyframes c1h{35.46%{fill:var(--c2)}35.48%,100%{fill:var(--ce)}}.c.c1h{fill:var(--c2);animation-name:c1h}@keyframes c1i{22.31%{fill:var(--c2)}22.33%,100%{fill:var(--ce)}}.c.c1i{fill:var(--c2);animation-name:c1i}@keyframes c1j{24.45%{fill:var(--c2)}24.47%,100%{fill:var(--ce)}}.c.c1j{fill:var(--c2);animation-name:c1j}@keyframes c1k{26.6%{fill:var(--c2)}26.62%,100%{fill:var(--ce)}}.c.c1k{fill:var(--c2);animation-name:c1k}@keyframes c1l{27.51%{fill:var(--c2)}27.53%,100%{fill:var(--ce)}}.c.c1l{fill:var(--c2);animation-name:c1l}@keyframes c1m{34.55%{fill:var(--c2)}34.57%,100%{fill:var(--ce)}}.c.c1m{fill:var(--c2);animation-name:c1m}@keyframes c1n{33.63%{fill:var(--c2)}33.65%,100%{fill:var(--ce)}}.c.c1n{fill:var(--c2);animation-name:c1n}@keyframes c1o{35.77%{fill:var(--c2)}35.79%,100%{fill:var(--ce)}}.c.c1o{fill:var(--c2);animation-name:c1o}@keyframes c1p{22.62%{fill:var(--c2)}22.64%,100%{fill:var(--ce)}}.c.c1p{fill:var(--c2);animation-name:c1p}@keyframes c1q{24.15%{fill:var(--c2)}24.17%,100%{fill:var(--ce)}}.c.c1q{fill:var(--c2);animation-name:c1q}@keyframes c1r{26.9%{fill:var(--c2)}26.92%,100%{fill:var(--ce)}}.c.c1r{fill:var(--c2);animation-name:c1r}@keyframes c1s{27.21%{fill:var(--c2)}27.23%,100%{fill:var(--ce)}}.c.c1s{fill:var(--c2);animation-name:c1s}@keyframes c1t{34.24%{fill:var(--c2)}34.26%,100%{fill:var(--ce)}}.c.c1t{fill:var(--c2);animation-name:c1t}@keyframes c1u{33.93%{fill:var(--c2)}33.95%,100%{fill:var(--ce)}}.c.c1u{fill:var(--c2);animation-name:c1u}@keyframes c1v{36.08%{fill:var(--c2)}36.1%,100%{fill:var(--ce)}}.c.c1v{fill:var(--c2);animation-name:c1v}@keyframes c1w{22.93%{fill:var(--c2)}22.95%,100%{fill:var(--ce)}}.c.c1w{fill:var(--c2);animation-name:c1w}@keyframes c1x{80.11%{fill:var(--c4)}80.13%,100%{fill:var(--ce)}}.c.c1x{fill:var(--c4);animation-name:c1x}@keyframes c1y{80.42%{fill:var(--c4)}80.44%,100%{fill:var(--ce)}}.c.c1y{fill:var(--c4);animation-name:c1y}@keyframes c1z{80.72%{fill:var(--c4)}80.74%,100%{fill:var(--ce)}}.c.c1z{fill:var(--c4);animation-name:c1z}@keyframes c20{77.36%{fill:var(--c4)}77.38%,100%{fill:var(--ce)}}.c.c20{fill:var(--c4);animation-name:c20}@keyframes c21{81.34%{fill:var(--c4)}81.36%,100%{fill:var(--ce)}}.c.c21{fill:var(--c4);animation-name:c21}@keyframes c22{82.25%{fill:var(--c4)}82.27%,100%{fill:var(--ce)}}.c.c22{fill:var(--c4);animation-name:c22}@keyframes c23{79.5%{fill:var(--c4)}79.52%,100%{fill:var(--ce)}}.c.c23{fill:var(--c4);animation-name:c23}@keyframes c24{79.81%{fill:var(--c4)}79.83%,100%{fill:var(--ce)}}.c.c24{fill:var(--c4);animation-name:c24}@keyframes c25{78.28%{fill:var(--c4)}78.3%,100%{fill:var(--ce)}}.c.c25{fill:var(--c4);animation-name:c25}@keyframes c26{77.97%{fill:var(--c4)}77.99%,100%{fill:var(--ce)}}.c.c26{fill:var(--c4);animation-name:c26}@keyframes c27{77.67%{fill:var(--c4)}77.69%,100%{fill:var(--ce)}}.c.c27{fill:var(--c4);animation-name:c27}@keyframes c28{81.64%{fill:var(--c4)}81.66%,100%{fill:var(--ce)}}.c.c28{fill:var(--c4);animation-name:c28}@keyframes c29{81.95%{fill:var(--c4)}81.97%,100%{fill:var(--ce)}}.c.c29{fill:var(--c4);animation-name:c29}@keyframes c2a{79.19%{fill:var(--c4)}79.21%,100%{fill:var(--ce)}}.c.c2a{fill:var(--c4);animation-name:c2a}@keyframes c2b{78.89%{fill:var(--c4)}78.91%,100%{fill:var(--ce)}}.c.c2b{fill:var(--c4);animation-name:c2b}@keyframes c2c{78.58%{fill:var(--c4)}78.6%,100%{fill:var(--ce)}}.c.c2c{fill:var(--c4);animation-name:c2c}@keyframes c2d{47.7%{fill:var(--c2)}47.72%,100%{fill:var(--ce)}}.c.c2d{fill:var(--c2);animation-name:c2d}.u{transform-origin:0 0;transform:scale(0,1);animation:none linear 32700ms infinite}@keyframes u0{4.58%{transform:scale(0.000,1)}4.6%,4.88%{transform:scale(0.111,1)}4.9%,6.72%{transform:scale(0.222,1)}6.74%,12.22%{transform:scale(0.333,1)}12.24%,15.59%{transform:scale(0.444,1)}15.61%,16.2%{transform:scale(0.556,1)}16.22%,17.12%{transform:scale(0.667,1)}17.14%,17.42%{transform:scale(0.778,1)}17.44%,19.56%{transform:scale(0.889,1)}19.58%,100%{transform:scale(1.000,1)}}.u.u0{fill:var(--c1);animation-name:u0;transform-origin:0.0px 0}@keyframes u1{20.79%{transform:scale(0.000,1)}20.81%,21.09%{transform:scale(0.018,1)}21.11%,21.4%{transform:scale(0.036,1)}21.42%,21.7%{transform:scale(0.055,1)}21.72%,22.01%{transform:scale(0.073,1)}22.03%,22.31%{transform:scale(0.091,1)}22.33%,22.62%{transform:scale(0.109,1)}22.64%,22.93%{transform:scale(0.127,1)}22.95%,24.15%{transform:scale(0.145,1)}24.17%,24.45%{transform:scale(0.164,1)}24.47%,24.76%{transform:scale(0.182,1)}24.78%,25.07%{transform:scale(0.200,1)}25.09%,25.37%{transform:scale(0.218,1)}25.39%,25.68%{transform:scale(0.236,1)}25.7%,25.98%{transform:scale(0.255,1)}26%,26.29%{transform:scale(0.273,1)}26.31%,26.6%{transform:scale(0.291,1)}26.62%,26.9%{transform:scale(0.309,1)}26.92%,27.21%{transform:scale(0.327,1)}27.23%,27.51%{transform:scale(0.345,1)}27.53%,27.82%{transform:scale(0.364,1)}27.84%,28.12%{transform:scale(0.382,1)}28.14%,28.43%{transform:scale(0.400,1)}28.45%,28.74%{transform:scale(0.418,1)}28.76%,29.04%{transform:scale(0.436,1)}29.06%,29.35%{transform:scale(0.455,1)}29.37%,29.65%{transform:scale(0.473,1)}29.67%,31.49%{transform:scale(0.491,1)}31.51%,31.79%{transform:scale(0.509,1)}31.81%,32.1%{transform:scale(0.527,1)}32.12%,32.41%{transform:scale(0.545,1)}32.43%,32.71%{transform:scale(0.564,1)}32.73%,33.02%{transform:scale(0.582,1)}33.04%,33.32%{transform:scale(0.600,1)}33.34%,33.63%{transform:scale(0.618,1)}33.65%,33.93%{transform:scale(0.636,1)}33.95%,34.24%{transform:scale(0.655,1)}34.26%,34.55%{transform:scale(0.673,1)}34.57%,34.85%{transform:scale(0.691,1)}34.87%,35.46%{transform:scale(0.709,1)}35.48%,35.77%{transform:scale(0.727,1)}35.79%,36.08%{transform:scale(0.745,1)}36.1%,37.6%{transform:scale(0.764,1)}37.62%,37.91%{transform:scale(0.782,1)}37.93%,38.22%{transform:scale(0.800,1)}38.24%,38.52%{transform:scale(0.818,1)}38.54%,38.83%{transform:scale(0.836,1)}38.85%,39.13%{transform:scale(0.855,1)}39.15%,39.44%{transform:scale(0.873,1)}39.46%,40.36%{transform:scale(0.891,1)}40.38%,40.66%{transform:scale(0.909,1)}40.68%,41.89%{transform:scale(0.927,1)}41.91%,47.7%{transform:scale(0.945,1)}47.72%,60.54%{transform:scale(0.964,1)}60.56%,63.29%{transform:scale(0.982,1)}63.31%,100%{transform:scale(1.000,1)}}.u.u1{fill:var(--c2);animation-name:u1;transform-origin:88.7px 0}@keyframes u2{68.49%{transform:scale(0.000,1)}68.51%,73.38%{transform:scale(0.045,1)}73.4%,73.69%{transform:scale(0.091,1)}73.71%,74.61%{transform:scale(0.136,1)}74.63%,76.14%{transform:scale(0.182,1)}76.16%,77.36%{transform:scale(0.227,1)}77.38%,77.67%{transform:scale(0.273,1)}77.69%,77.97%{transform:scale(0.318,1)}77.99%,78.28%{transform:scale(0.364,1)}78.3%,78.58%{transform:scale(0.409,1)}78.6%,78.89%{transform:scale(0.455,1)}78.91%,79.19%{transform:scale(0.500,1)}79.21%,79.5%{transform:scale(0.545,1)}79.52%,79.81%{transform:scale(0.591,1)}79.83%,80.11%{transform:scale(0.636,1)}80.13%,80.42%{transform:scale(0.682,1)}80.44%,80.72%{transform:scale(0.727,1)}80.74%,81.34%{transform:scale(0.773,1)}81.36%,81.64%{transform:scale(0.818,1)}81.66%,81.95%{transform:scale(0.864,1)}81.97%,82.25%{transform:scale(0.909,1)}82.27%,87.45%{transform:scale(0.955,1)}87.47%,100%{transform:scale(1.000,1)}}.u.u2{fill:var(--c4);animation-name:u2;transform-origin:631.1px 0}.s{shape-rendering:geometricPrecision;fill:var(--cs);animation:none linear 32700ms infinite}@keyframes s0{0%,99.69%{transform:translate(0px,-16px)}0.31%{transform:translate(0px,0px)}4.59%{transform:translate(224px,0px)}4.89%{transform:translate(224px,16px)}5.5%{transform:translate(192px,16px)}6.73%{transform:translate(192px,80px)}11.62%{transform:translate(448px,80px)}12.23%{transform:translate(448px,48px)}15.6%{transform:translate(624px,48px)}15.9%{transform:translate(624px,64px)}16.21%{transform:translate(608px,64px)}16.51%{transform:translate(608px,80px)}17.13%{transform:translate(640px,80px)}17.43%{transform:translate(640px,96px)}17.74%{transform:translate(656px,96px)}19.27%{transform:translate(656px,16px)}19.57%{transform:translate(640px,16px)}19.88%{transform:translate(640px,0px)}22.94%,84.1%{transform:translate(800px,0px)}23.24%{transform:translate(800px,-16px)}23.55%{transform:translate(784px,-16px)}24.16%{transform:translate(784px,16px)}25.38%{transform:translate(720px,16px)}25.69%{transform:translate(720px,32px)}26.91%{transform:translate(784px,32px)}27.22%{transform:translate(784px,48px)}28.75%{transform:translate(704px,48px)}29.05%,74.31%{transform:translate(704px,32px)}29.36%{transform:translate(688px,32px)}29.97%{transform:translate(688px,0px)}30.28%{transform:translate(672px,0px)}30.58%{transform:translate(672px,16px)}30.89%{transform:translate(688px,16px)}31.8%,39.76%{transform:translate(688px,64px)}32.42%{transform:translate(720px,64px)}32.72%{transform:translate(720px,80px)}33.94%,36.39%,51.07%{transform:translate(784px,80px)}34.25%{transform:translate(784px,64px)}34.86%{transform:translate(752px,64px)}35.47%{transform:translate(752px,96px)}36.09%{transform:translate(784px,96px)}37.31%{transform:translate(736px,80px)}37.61%{transform:translate(736px,96px)}38.23%{transform:translate(704px,96px)}38.53%{transform:translate(704px,80px)}39.14%{transform:translate(672px,80px)}39.45%,73.09%{transform:translate(672px,64px)}40.37%{transform:translate(688px,96px)}41.9%{transform:translate(608px,96px)}42.2%{transform:translate(608px,112px)}46.48%,49.54%{transform:translate(832px,112px)}47.71%{transform:translate(832px,48px)}48.01%{transform:translate(848px,48px)}48.32%{transform:translate(848px,64px)}48.62%{transform:translate(832px,64px)}50.46%{transform:translate(784px,112px)}58.1%{transform:translate(416px,80px)}58.41%{transform:translate(416px,64px)}62.69%{transform:translate(192px,64px)}63.3%{transform:translate(192px,96px)}67.89%{transform:translate(432px,96px)}68.5%{transform:translate(432px,64px)}73.7%{transform:translate(672px,32px)}74.62%{transform:translate(704px,16px)}75.23%{transform:translate(736px,16px)}76.15%{transform:translate(736px,64px)}77.68%{transform:translate(816px,64px)}78.29%{transform:translate(816px,32px)}78.59%{transform:translate(832px,32px)}79.2%{transform:translate(832px,0px)}79.51%{transform:translate(816px,0px)}79.82%{transform:translate(816px,16px)}80.12%{transform:translate(800px,16px)}81.35%{transform:translate(800px,80px)}81.65%{transform:translate(816px,80px)}81.96%{transform:translate(816px,96px)}82.26%{transform:translate(800px,96px)}97.55%{transform:translate(96px,0px)}97.86%{transform:translate(96px,-16px)}}.s.s0{transform:translate(0px,-16px);animation-name:s0}@keyframes s1{0%,99.69%{transform:translate(16px,-16px)}0.31%{transform:translate(0px,-16px)}0.61%{transform:translate(0px,0px)}4.89%{transform:translate(224px,0px)}5.2%{transform:translate(224px,16px)}5.81%{transform:translate(192px,16px)}7.03%{transform:translate(192px,80px)}11.93%{transform:translate(448px,80px)}12.54%{transform:translate(448px,48px)}15.9%{transform:translate(624px,48px)}16.21%{transform:translate(624px,64px)}16.51%{transform:translate(608px,64px)}16.82%{transform:translate(608px,80px)}17.43%{transform:translate(640px,80px)}17.74%{transform:translate(640px,96px)}18.04%{transform:translate(656px,96px)}19.57%{transform:translate(656px,16px)}19.88%{transform:translate(640px,16px)}20.18%{transform:translate(640px,0px)}23.24%,84.4%{transform:translate(800px,0px)}23.55%{transform:translate(800px,-16px)}23.85%{transform:translate(784px,-16px)}24.46%{transform:translate(784px,16px)}25.69%{transform:translate(720px,16px)}25.99%{transform:translate(720px,32px)}27.22%{transform:translate(784px,32px)}27.52%{transform:translate(784px,48px)}29.05%{transform:translate(704px,48px)}29.36%,74.62%{transform:translate(704px,32px)}29.66%{transform:translate(688px,32px)}30.28%{transform:translate(688px,0px)}30.58%{transform:translate(672px,0px)}30.89%{transform:translate(672px,16px)}31.19%{transform:translate(688px,16px)}32.11%,40.06%{transform:translate(688px,64px)}32.72%{transform:translate(720px,64px)}33.03%{transform:translate(720px,80px)}34.25%,36.7%,51.38%{transform:translate(784px,80px)}34.56%{transform:translate(784px,64px)}35.17%{transform:translate(752px,64px)}35.78%{transform:translate(752px,96px)}36.39%{transform:translate(784px,96px)}37.61%{transform:translate(736px,80px)}37.92%{transform:translate(736px,96px)}38.53%{transform:translate(704px,96px)}38.84%{transform:translate(704px,80px)}39.45%{transform:translate(672px,80px)}39.76%,73.39%{transform:translate(672px,64px)}40.67%{transform:translate(688px,96px)}42.2%{transform:translate(608px,96px)}42.51%{transform:translate(608px,112px)}46.79%,49.85%{transform:translate(832px,112px)}48.01%{transform:translate(832px,48px)}48.32%{transform:translate(848px,48px)}48.62%{transform:translate(848px,64px)}48.93%{transform:translate(832px,64px)}50.76%{transform:translate(784px,112px)}58.41%{transform:translate(416px,80px)}58.72%{transform:translate(416px,64px)}63%{transform:translate(192px,64px)}63.61%{transform:translate(192px,96px)}68.2%{transform:translate(432px,96px)}68.81%{transform:translate(432px,64px)}74.01%{transform:translate(672px,32px)}74.92%{transform:translate(704px,16px)}75.54%{transform:translate(736px,16px)}76.45%{transform:translate(736px,64px)}77.98%{transform:translate(816px,64px)}78.59%{transform:translate(816px,32px)}78.9%{transform:translate(832px,32px)}79.51%{transform:translate(832px,0px)}79.82%{transform:translate(816px,0px)}80.12%{transform:translate(816px,16px)}80.43%{transform:translate(800px,16px)}81.65%{transform:translate(800px,80px)}81.96%{transform:translate(816px,80px)}82.26%{transform:translate(816px,96px)}82.57%{transform:translate(800px,96px)}97.86%{transform:translate(96px,0px)}98.17%{transform:translate(96px,-16px)}}.s.s1{transform:translate(16px,-16px);animation-name:s1}@keyframes s2{0%,99.69%{transform:translate(32px,-16px)}0.61%{transform:translate(0px,-16px)}0.92%{transform:translate(0px,0px)}5.2%{transform:translate(224px,0px)}5.5%{transform:translate(224px,16px)}6.12%{transform:translate(192px,16px)}7.34%{transform:translate(192px,80px)}12.23%{transform:translate(448px,80px)}12.84%{transform:translate(448px,48px)}16.21%{transform:translate(624px,48px)}16.51%{transform:translate(624px,64px)}16.82%{transform:translate(608px,64px)}17.13%{transform:translate(608px,80px)}17.74%{transform:translate(640px,80px)}18.04%{transform:translate(640px,96px)}18.35%{transform:translate(656px,96px)}19.88%{transform:translate(656px,16px)}20.18%{transform:translate(640px,16px)}20.49%{transform:translate(640px,0px)}23.55%,84.71%{transform:translate(800px,0px)}23.85%{transform:translate(800px,-16px)}24.16%{transform:translate(784px,-16px)}24.77%{transform:translate(784px,16px)}25.99%{transform:translate(720px,16px)}26.3%{transform:translate(720px,32px)}27.52%{transform:translate(784px,32px)}27.83%{transform:translate(784px,48px)}29.36%{transform:translate(704px,48px)}29.66%,74.92%{transform:translate(704px,32px)}29.97%{transform:translate(688px,32px)}30.58%{transform:translate(688px,0px)}30.89%{transform:translate(672px,0px)}31.19%{transform:translate(672px,16px)}31.5%{transform:translate(688px,16px)}32.42%,40.37%{transform:translate(688px,64px)}33.03%{transform:translate(720px,64px)}33.33%{transform:translate(720px,80px)}34.56%,37%,51.68%{transform:translate(784px,80px)}34.86%{transform:translate(784px,64px)}35.47%{transform:translate(752px,64px)}36.09%{transform:translate(752px,96px)}36.7%{transform:translate(784px,96px)}37.92%{transform:translate(736px,80px)}38.23%{transform:translate(736px,96px)}38.84%{transform:translate(704px,96px)}39.14%{transform:translate(704px,80px)}39.76%{transform:translate(672px,80px)}40.06%,73.7%{transform:translate(672px,64px)}40.98%{transform:translate(688px,96px)}42.51%{transform:translate(608px,96px)}42.81%{transform:translate(608px,112px)}47.09%,50.15%{transform:translate(832px,112px)}48.32%{transform:translate(832px,48px)}48.62%{transform:translate(848px,48px)}48.93%{transform:translate(848px,64px)}49.24%{transform:translate(832px,64px)}51.07%{transform:translate(784px,112px)}58.72%{transform:translate(416px,80px)}59.02%{transform:translate(416px,64px)}63.3%{transform:translate(192px,64px)}63.91%{transform:translate(192px,96px)}68.5%{transform:translate(432px,96px)}69.11%{transform:translate(432px,64px)}74.31%{transform:translate(672px,32px)}75.23%{transform:translate(704px,16px)}75.84%{transform:translate(736px,16px)}76.76%{transform:translate(736px,64px)}78.29%{transform:translate(816px,64px)}78.9%{transform:translate(816px,32px)}79.2%{transform:translate(832px,32px)}79.82%{transform:translate(832px,0px)}80.12%{transform:translate(816px,0px)}80.43%{transform:translate(816px,16px)}80.73%{transform:translate(800px,16px)}81.96%{transform:translate(800px,80px)}82.26%{transform:translate(816px,80px)}82.57%{transform:translate(816px,96px)}82.87%{transform:translate(800px,96px)}98.17%{transform:translate(96px,0px)}98.47%{transform:translate(96px,-16px)}}.s.s2{transform:translate(32px,-16px);animation-name:s2}@keyframes s3{0%,99.69%{transform:translate(48px,-16px)}0.92%{transform:translate(0px,-16px)}1.22%{transform:translate(0px,0px)}5.5%{transform:translate(224px,0px)}5.81%{transform:translate(224px,16px)}6.42%{transform:translate(192px,16px)}7.65%{transform:translate(192px,80px)}12.54%{transform:translate(448px,80px)}13.15%{transform:translate(448px,48px)}16.51%{transform:translate(624px,48px)}16.82%{transform:translate(624px,64px)}17.13%{transform:translate(608px,64px)}17.43%{transform:translate(608px,80px)}18.04%{transform:translate(640px,80px)}18.35%{transform:translate(640px,96px)}18.65%{transform:translate(656px,96px)}20.18%{transform:translate(656px,16px)}20.49%{transform:translate(640px,16px)}20.8%{transform:translate(640px,0px)}23.85%,85.02%{transform:translate(800px,0px)}24.16%{transform:translate(800px,-16px)}24.46%{transform:translate(784px,-16px)}25.08%{transform:translate(784px,16px)}26.3%{transform:translate(720px,16px)}26.61%{transform:translate(720px,32px)}27.83%{transform:translate(784px,32px)}28.13%{transform:translate(784px,48px)}29.66%{transform:translate(704px,48px)}29.97%,75.23%{transform:translate(704px,32px)}30.28%{transform:translate(688px,32px)}30.89%{transform:translate(688px,0px)}31.19%{transform:translate(672px,0px)}31.5%{transform:translate(672px,16px)}31.8%{transform:translate(688px,16px)}32.72%,40.67%{transform:translate(688px,64px)}33.33%{transform:translate(720px,64px)}33.64%{transform:translate(720px,80px)}34.86%,37.31%,51.99%{transform:translate(784px,80px)}35.17%{transform:translate(784px,64px)}35.78%{transform:translate(752px,64px)}36.39%{transform:translate(752px,96px)}37%{transform:translate(784px,96px)}38.23%{transform:translate(736px,80px)}38.53%{transform:translate(736px,96px)}39.14%{transform:translate(704px,96px)}39.45%{transform:translate(704px,80px)}40.06%{transform:translate(672px,80px)}40.37%,74.01%{transform:translate(672px,64px)}41.28%{transform:translate(688px,96px)}42.81%{transform:translate(608px,96px)}43.12%{transform:translate(608px,112px)}47.4%,50.46%{transform:translate(832px,112px)}48.62%{transform:translate(832px,48px)}48.93%{transform:translate(848px,48px)}49.24%{transform:translate(848px,64px)}49.54%{transform:translate(832px,64px)}51.38%{transform:translate(784px,112px)}59.02%{transform:translate(416px,80px)}59.33%{transform:translate(416px,64px)}63.61%{transform:translate(192px,64px)}64.22%{transform:translate(192px,96px)}68.81%{transform:translate(432px,96px)}69.42%{transform:translate(432px,64px)}74.62%{transform:translate(672px,32px)}75.54%{transform:translate(704px,16px)}76.15%{transform:translate(736px,16px)}77.06%{transform:translate(736px,64px)}78.59%{transform:translate(816px,64px)}79.2%{transform:translate(816px,32px)}79.51%{transform:translate(832px,32px)}80.12%{transform:translate(832px,0px)}80.43%{transform:translate(816px,0px)}80.73%{transform:translate(816px,16px)}81.04%{transform:translate(800px,16px)}82.26%{transform:translate(800px,80px)}82.57%{transform:translate(816px,80px)}82.87%{transform:translate(816px,96px)}83.18%{transform:translate(800px,96px)}98.47%{transform:translate(96px,0px)}98.78%{transform:translate(96px,-16px)}}.s.s3{transform:translate(48px,-16px);animation-name:s3}</style><rect class="c" x="2" y="2" rx="2" ry="2"/><rect class="c" x="2" y="18" rx="2" ry="2"/><rect class="c" x="2" y="34" rx="2" ry="2"/><rect class="c" x="2" y="50" rx="2" ry="2"/><rect class="c" x="2" y="66" rx="2" ry="2"/><rect class="c" x="2" y="82" rx="2" ry="2"/><rect class="c" x="2" y="98" rx="2" ry="2"/><rect class="c" x="18" y="2" rx="2" ry="2"/><rect class="c" x="18" y="18" rx="2" ry="2"/><rect class="c" x="18" y="34" rx="2" ry="2"/><rect class="c" x="18" y="50" rx="2" ry="2"/><rect class="c" x="18" y="66" rx="2" ry="2"/><rect class="c" x="18" y="82" rx="2" ry="2"/><rect class="c" x="18" y="98" rx="2" ry="2"/><rect class="c" x="34" y="2" rx="2" ry="2"/><rect class="c" x="34" y="18" rx="2" ry="2"/><rect class="c" x="34" y="34" rx="2" ry="2"/><rect class="c" x="34" y="50" rx="2" ry="2"/><rect class="c" x="34" y="66" rx="2" ry="2"/><rect class="c" x="34" y="82" rx="2" ry="2"/><rect class="c" x="34" y="98" rx="2" ry="2"/><rect class="c" x="50" y="2" rx="2" ry="2"/><rect class="c" x="50" y="18" rx="2" ry="2"/><rect class="c" x="50" y="34" rx="2" ry="2"/><rect class="c" x="50" y="50" rx="2" ry="2"/><rect class="c" x="50" y="66" rx="2" ry="2"/><rect class="c" x="50" y="82" rx="2" ry="2"/><rect class="c" x="50" y="98" rx="2" ry="2"/><rect class="c" x="66" y="2" rx="2" ry="2"/><rect class="c" x="66" y="18" rx="2" ry="2"/><rect class="c" x="66" y="34" rx="2" ry="2"/><rect class="c" x="66" y="50" rx="2" ry="2"/><rect class="c" x="66" y="66" rx="2" ry="2"/><rect class="c" x="66" y="82" rx="2" ry="2"/><rect class="c" x="66" y="98" rx="2" ry="2"/><rect class="c" x="82" y="2" rx="2" ry="2"/><rect class="c" x="82" y="18" rx="2" ry="2"/><rect class="c" x="82" y="34" rx="2" ry="2"/><rect class="c" x="82" y="50" rx="2" ry="2"/><rect class="c" x="82" y="66" rx="2" ry="2"/><rect class="c" x="82" y="82" rx="2" ry="2"/><rect class="c" x="82" y="98" rx="2" ry="2"/><rect class="c" x="98" y="2" rx="2" ry="2"/><rect class="c" x="98" y="18" rx="2" ry="2"/><rect class="c" x="98" y="34" rx="2" ry="2"/><rect class="c" x="98" y="50" rx="2" ry="2"/><rect class="c" x="98" y="66" rx="2" ry="2"/><rect class="c" x="98" y="82" rx="2" ry="2"/><rect class="c" x="98" y="98" rx="2" ry="2"/><rect class="c" x="114" y="2" rx="2" ry="2"/><rect class="c" x="114" y="18" rx="2" ry="2"/><rect class="c" x="114" y="34" rx="2" ry="2"/><rect class="c" x="114" y="50" rx="2" ry="2"/><rect class="c" x="114" y="66" rx="2" ry="2"/><rect class="c" x="114" y="82" rx="2" ry="2"/><rect class="c" x="114" y="98" rx="2" ry="2"/><rect class="c" x="130" y="2" rx="2" ry="2"/><rect class="c" x="130" y="18" rx="2" ry="2"/><rect class="c" x="130" y="34" rx="2" ry="2"/><rect class="c" x="130" y="50" rx="2" ry="2"/><rect class="c" x="130" y="66" rx="2" ry="2"/><rect class="c" x="130" y="82" rx="2" ry="2"/><rect class="c" x="130" y="98" rx="2" ry="2"/><rect class="c" x="146" y="2" rx="2" ry="2"/><rect class="c" x="146" y="18" rx="2" ry="2"/><rect class="c" x="146" y="34" rx="2" ry="2"/><rect class="c" x="146" y="50" rx="2" ry="2"/><rect class="c" x="146" y="66" rx="2" ry="2"/><rect class="c" x="146" y="82" rx="2" ry="2"/><rect class="c" x="146" y="98" rx="2" ry="2"/><rect class="c" x="162" y="2" rx="2" ry="2"/><rect class="c" x="162" y="18" rx="2" ry="2"/><rect class="c" x="162" y="34" rx="2" ry="2"/><rect class="c" x="162" y="50" rx="2" ry="2"/><rect class="c" x="162" y="66" rx="2" ry="2"/><rect class="c" x="162" y="82" rx="2" ry="2"/><rect class="c" x="162" y="98" rx="2" ry="2"/><rect class="c" x="178" y="2" rx="2" ry="2"/><rect class="c" x="178" y="18" rx="2" ry="2"/><rect class="c" x="178" y="34" rx="2" ry="2"/><rect class="c" x="178" y="50" rx="2" ry="2"/><rect class="c" x="178" y="66" rx="2" ry="2"/><rect class="c" x="178" y="82" rx="2" ry="2"/><rect class="c" x="178" y="98" rx="2" ry="2"/><rect class="c" x="194" y="2" rx="2" ry="2"/><rect class="c" x="194" y="18" rx="2" ry="2"/><rect class="c" x="194" y="34" rx="2" ry="2"/><rect class="c" x="194" y="50" rx="2" ry="2"/><rect class="c" x="194" y="66" rx="2" ry="2"/><rect class="c c0" x="194" y="82" rx="2" ry="2"/><rect class="c c1" x="194" y="98" rx="2" ry="2"/><rect class="c" x="210" y="2" rx="2" ry="2"/><rect class="c" x="210" y="18" rx="2" ry="2"/><rect class="c" x="210" y="34" rx="2" ry="2"/><rect class="c" x="210" y="50" rx="2" ry="2"/><rect class="c" x="210" y="66" rx="2" ry="2"/><rect class="c" x="210" y="82" rx="2" ry="2"/><rect class="c" x="210" y="98" rx="2" ry="2"/><rect class="c c2" x="226" y="2" rx="2" ry="2"/><rect class="c c3" x="226" y="18" rx="2" ry="2"/><rect class="c" x="226" y="34" rx="2" ry="2"/><rect class="c" x="226" y="50" rx="2" ry="2"/><rect class="c" x="226" y="66" rx="2" ry="2"/><rect class="c" x="226" y="82" rx="2" ry="2"/><rect class="c" x="226" y="98" rx="2" ry="2"/><rect class="c" x="242" y="2" rx="2" ry="2"/><rect class="c" x="242" y="18" rx="2" ry="2"/><rect class="c" x="242" y="34" rx="2" ry="2"/><rect class="c" x="242" y="50" rx="2" ry="2"/><rect class="c" x="242" y="66" rx="2" ry="2"/><rect class="c" x="242" y="82" rx="2" ry="2"/><rect class="c" x="242" y="98" rx="2" ry="2"/><rect class="c" x="258" y="2" rx="2" ry="2"/><rect class="c" x="258" y="18" rx="2" ry="2"/><rect class="c" x="258" y="34" rx="2" ry="2"/><rect class="c" x="258" y="50" rx="2" ry="2"/><rect class="c" x="258" y="66" rx="2" ry="2"/><rect class="c" x="258" y="82" rx="2" ry="2"/><rect class="c" x="258" y="98" rx="2" ry="2"/><rect class="c" x="274" y="2" rx="2" ry="2"/><rect class="c" x="274" y="18" rx="2" ry="2"/><rect class="c" x="274" y="34" rx="2" ry="2"/><rect class="c" x="274" y="50" rx="2" ry="2"/><rect class="c" x="274" y="66" rx="2" ry="2"/><rect class="c" x="274" y="82" rx="2" ry="2"/><rect class="c" x="274" y="98" rx="2" ry="2"/><rect class="c" x="290" y="2" rx="2" ry="2"/><rect class="c" x="290" y="18" rx="2" ry="2"/><rect class="c" x="290" y="34" rx="2" ry="2"/><rect class="c" x="290" y="50" rx="2" ry="2"/><rect class="c" x="290" y="66" rx="2" ry="2"/><rect class="c" x="290" y="82" rx="2" ry="2"/><rect class="c" x="290" y="98" rx="2" ry="2"/><rect class="c" x="306" y="2" rx="2" ry="2"/><rect class="c" x="306" y="18" rx="2" ry="2"/><rect class="c" x="306" y="34" rx="2" ry="2"/><rect class="c" x="306" y="50" rx="2" ry="2"/><rect class="c c4" x="306" y="66" rx="2" ry="2"/><rect class="c" x="306" y="82" rx="2" ry="2"/><rect class="c" x="306" y="98" rx="2" ry="2"/><rect class="c" x="322" y="2" rx="2" ry="2"/><rect class="c" x="322" y="18" rx="2" ry="2"/><rect class="c" x="322" y="34" rx="2" ry="2"/><rect class="c" x="322" y="50" rx="2" ry="2"/><rect class="c" x="322" y="66" rx="2" ry="2"/><rect class="c" x="322" y="82" rx="2" ry="2"/><rect class="c" x="322" y="98" rx="2" ry="2"/><rect class="c" x="338" y="2" rx="2" ry="2"/><rect class="c" x="338" y="18" rx="2" ry="2"/><rect class="c" x="338" y="34" rx="2" ry="2"/><rect class="c" x="338" y="50" rx="2" ry="2"/><rect class="c" x="338" y="66" rx="2" ry="2"/><rect class="c" x="338" y="82" rx="2" ry="2"/><rect class="c" x="338" y="98" rx="2" ry="2"/><rect class="c" x="354" y="2" rx="2" ry="2"/><rect class="c" x="354" y="18" rx="2" ry="2"/><rect class="c" x="354" y="34" rx="2" ry="2"/><rect class="c" x="354" y="50" rx="2" ry="2"/><rect class="c" x="354" y="66" rx="2" ry="2"/><rect class="c" x="354" y="82" rx="2" ry="2"/><rect class="c" x="354" y="98" rx="2" ry="2"/><rect class="c" x="370" y="2" rx="2" ry="2"/><rect class="c" x="370" y="18" rx="2" ry="2"/><rect class="c" x="370" y="34" rx="2" ry="2"/><rect class="c" x="370" y="50" rx="2" ry="2"/><rect class="c" x="370" y="66" rx="2" ry="2"/><rect class="c" x="370" y="82" rx="2" ry="2"/><rect class="c" x="370" y="98" rx="2" ry="2"/><rect class="c" x="386" y="2" rx="2" ry="2"/><rect class="c" x="386" y="18" rx="2" ry="2"/><rect class="c" x="386" y="34" rx="2" ry="2"/><rect class="c" x="386" y="50" rx="2" ry="2"/><rect class="c" x="386" y="66" rx="2" ry="2"/><rect class="c" x="386" y="82" rx="2" ry="2"/><rect class="c" x="386" y="98" rx="2" ry="2"/><rect class="c" x="402" y="2" rx="2" ry="2"/><rect class="c" x="402" y="18" rx="2" ry="2"/><rect class="c" x="402" y="34" rx="2" ry="2"/><rect class="c" x="402" y="50" rx="2" ry="2"/><rect class="c" x="402" y="66" rx="2" ry="2"/><rect class="c" x="402" y="82" rx="2" ry="2"/><rect class="c" x="402" y="98" rx="2" ry="2"/><rect class="c" x="418" y="2" rx="2" ry="2"/><rect class="c" x="418" y="18" rx="2" ry="2"/><rect class="c" x="418" y="34" rx="2" ry="2"/><rect class="c" x="418" y="50" rx="2" ry="2"/><rect class="c" x="418" y="66" rx="2" ry="2"/><rect class="c" x="418" y="82" rx="2" ry="2"/><rect class="c" x="418" y="98" rx="2" ry="2"/><rect class="c" x="434" y="2" rx="2" ry="2"/><rect class="c" x="434" y="18" rx="2" ry="2"/><rect class="c" x="434" y="34" rx="2" ry="2"/><rect class="c" x="434" y="50" rx="2" ry="2"/><rect class="c c5" x="434" y="66" rx="2" ry="2"/><rect class="c" x="434" y="82" rx="2" ry="2"/><rect class="c" x="434" y="98" rx="2" ry="2"/><rect class="c" x="450" y="2" rx="2" ry="2"/><rect class="c" x="450" y="18" rx="2" ry="2"/><rect class="c" x="450" y="34" rx="2" ry="2"/><rect class="c c6" x="450" y="50" rx="2" ry="2"/><rect class="c" x="450" y="66" rx="2" ry="2"/><rect class="c" x="450" y="82" rx="2" ry="2"/><rect class="c" x="450" y="98" rx="2" ry="2"/><rect class="c" x="466" y="2" rx="2" ry="2"/><rect class="c" x="466" y="18" rx="2" ry="2"/><rect class="c" x="466" y="34" rx="2" ry="2"/><rect class="c" x="466" y="50" rx="2" ry="2"/><rect class="c" x="466" y="66" rx="2" ry="2"/><rect class="c" x="466" y="82" rx="2" ry="2"/><rect class="c" x="466" y="98" rx="2" ry="2"/><rect class="c" x="482" y="2" rx="2" ry="2"/><rect class="c" x="482" y="18" rx="2" ry="2"/><rect class="c" x="482" y="34" rx="2" ry="2"/><rect class="c" x="482" y="50" rx="2" ry="2"/><rect class="c" x="482" y="66" rx="2" ry="2"/><rect class="c" x="482" y="82" rx="2" ry="2"/><rect class="c" x="482" y="98" rx="2" ry="2"/><rect class="c" x="498" y="2" rx="2" ry="2"/><rect class="c" x="498" y="18" rx="2" ry="2"/><rect class="c" x="498" y="34" rx="2" ry="2"/><rect class="c" x="498" y="50" rx="2" ry="2"/><rect class="c" x="498" y="66" rx="2" ry="2"/><rect class="c" x="498" y="82" rx="2" ry="2"/><rect class="c" x="498" y="98" rx="2" ry="2"/><rect class="c" x="514" y="2" rx="2" ry="2"/><rect class="c" x="514" y="18" rx="2" ry="2"/><rect class="c" x="514" y="34" rx="2" ry="2"/><rect class="c" x="514" y="50" rx="2" ry="2"/><rect class="c" x="514" y="66" rx="2" ry="2"/><rect class="c" x="514" y="82" rx="2" ry="2"/><rect class="c" x="514" y="98" rx="2" ry="2"/><rect class="c" x="530" y="2" rx="2" ry="2"/><rect class="c" x="530" y="18" rx="2" ry="2"/><rect class="c" x="530" y="34" rx="2" ry="2"/><rect class="c" x="530" y="50" rx="2" ry="2"/><rect class="c" x="530" y="66" rx="2" ry="2"/><rect class="c" x="530" y="82" rx="2" ry="2"/><rect class="c" x="530" y="98" rx="2" ry="2"/><rect class="c" x="546" y="2" rx="2" ry="2"/><rect class="c" x="546" y="18" rx="2" ry="2"/><rect class="c" x="546" y="34" rx="2" ry="2"/><rect class="c" x="546" y="50" rx="2" ry="2"/><rect class="c" x="546" y="66" rx="2" ry="2"/><rect class="c" x="546" y="82" rx="2" ry="2"/><rect class="c" x="546" y="98" rx="2" ry="2"/><rect class="c" x="562" y="2" rx="2" ry="2"/><rect class="c" x="562" y="18" rx="2" ry="2"/><rect class="c" x="562" y="34" rx="2" ry="2"/><rect class="c" x="562" y="50" rx="2" ry="2"/><rect class="c" x="562" y="66" rx="2" ry="2"/><rect class="c" x="562" y="82" rx="2" ry="2"/><rect class="c" x="562" y="98" rx="2" ry="2"/><rect class="c" x="578" y="2" rx="2" ry="2"/><rect class="c" x="578" y="18" rx="2" ry="2"/><rect class="c" x="578" y="34" rx="2" ry="2"/><rect class="c" x="578" y="50" rx="2" ry="2"/><rect class="c" x="578" y="66" rx="2" ry="2"/><rect class="c" x="578" y="82" rx="2" ry="2"/><rect class="c" x="578" y="98" rx="2" ry="2"/><rect class="c" x="594" y="2" rx="2" ry="2"/><rect class="c" x="594" y="18" rx="2" ry="2"/><rect class="c" x="594" y="34" rx="2" ry="2"/><rect class="c" x="594" y="50" rx="2" ry="2"/><rect class="c" x="594" y="66" rx="2" ry="2"/><rect class="c" x="594" y="82" rx="2" ry="2"/><rect class="c" x="594" y="98" rx="2" ry="2"/><rect class="c" x="610" y="2" rx="2" ry="2"/><rect class="c" x="610" y="18" rx="2" ry="2"/><rect class="c" x="610" y="34" rx="2" ry="2"/><rect class="c" x="610" y="50" rx="2" ry="2"/><rect class="c c7" x="610" y="66" rx="2" ry="2"/><rect class="c" x="610" y="82" rx="2" ry="2"/><rect class="c c8" x="610" y="98" rx="2" ry="2"/><rect class="c c9" x="626" y="2" rx="2" ry="2"/><rect class="c" x="626" y="18" rx="2" ry="2"/><rect class="c" x="626" y="34" rx="2" ry="2"/><rect class="c ca" x="626" y="50" rx="2" ry="2"/><rect class="c" x="626" y="66" rx="2" ry="2"/><rect class="c" x="626" y="82" rx="2" ry="2"/><rect class="c" x="626" y="98" rx="2" ry="2"/><rect class="c" x="642" y="2" rx="2" ry="2"/><rect class="c cb" x="642" y="18" rx="2" ry="2"/><rect class="c" x="642" y="34" rx="2" ry="2"/><rect class="c" x="642" y="50" rx="2" ry="2"/><rect class="c" x="642" y="66" rx="2" ry="2"/><rect class="c cc" x="642" y="82" rx="2" ry="2"/><rect class="c cd" x="642" y="98" rx="2" ry="2"/><rect class="c" x="658" y="2" rx="2" ry="2"/><rect class="c" x="658" y="18" rx="2" ry="2"/><rect class="c" x="658" y="34" rx="2" ry="2"/><rect class="c" x="658" y="50" rx="2" ry="2"/><rect class="c" x="658" y="66" rx="2" ry="2"/><rect class="c" x="658" y="82" rx="2" ry="2"/><rect class="c" x="658" y="98" rx="2" ry="2"/><rect class="c" x="674" y="2" rx="2" ry="2"/><rect class="c" x="674" y="18" rx="2" ry="2"/><rect class="c ce" x="674" y="34" rx="2" ry="2"/><rect class="c cf" x="674" y="50" rx="2" ry="2"/><rect class="c cg" x="674" y="66" rx="2" ry="2"/><rect class="c ch" x="674" y="82" rx="2" ry="2"/><rect class="c ci" x="674" y="98" rx="2" ry="2"/><rect class="c cj" x="690" y="2" rx="2" ry="2"/><rect class="c ck" x="690" y="18" rx="2" ry="2"/><rect class="c cl" x="690" y="34" rx="2" ry="2"/><rect class="c cm" x="690" y="50" rx="2" ry="2"/><rect class="c cn" x="690" y="66" rx="2" ry="2"/><rect class="c co" x="690" y="82" rx="2" ry="2"/><rect class="c cp" x="690" y="98" rx="2" ry="2"/><rect class="c cq" x="706" y="2" rx="2" ry="2"/><rect class="c cr" x="706" y="18" rx="2" ry="2"/><rect class="c cs" x="706" y="34" rx="2" ry="2"/><rect class="c ct" x="706" y="50" rx="2" ry="2"/><rect class="c cu" x="706" y="66" rx="2" ry="2"/><rect class="c cv" x="706" y="82" rx="2" ry="2"/><rect class="c cw" x="706" y="98" rx="2" ry="2"/><rect class="c cx" x="722" y="2" rx="2" ry="2"/><rect class="c cy" x="722" y="18" rx="2" ry="2"/><rect class="c cz" x="722" y="34" rx="2" ry="2"/><rect class="c c10" x="722" y="50" rx="2" ry="2"/><rect class="c c11" x="722" y="66" rx="2" ry="2"/><rect class="c c12" x="722" y="82" rx="2" ry="2"/><rect class="c c13" x="722" y="98" rx="2" ry="2"/><rect class="c c14" x="738" y="2" rx="2" ry="2"/><rect class="c c15" x="738" y="18" rx="2" ry="2"/><rect class="c c16" x="738" y="34" rx="2" ry="2"/><rect class="c c17" x="738" y="50" rx="2" ry="2"/><rect class="c c18" x="738" y="66" rx="2" ry="2"/><rect class="c c19" x="738" y="82" rx="2" ry="2"/><rect class="c c1a" x="738" y="98" rx="2" ry="2"/><rect class="c c1b" x="754" y="2" rx="2" ry="2"/><rect class="c c1c" x="754" y="18" rx="2" ry="2"/><rect class="c c1d" x="754" y="34" rx="2" ry="2"/><rect class="c c1e" x="754" y="50" rx="2" ry="2"/><rect class="c c1f" x="754" y="66" rx="2" ry="2"/><rect class="c c1g" x="754" y="82" rx="2" ry="2"/><rect class="c c1h" x="754" y="98" rx="2" ry="2"/><rect class="c c1i" x="770" y="2" rx="2" ry="2"/><rect class="c c1j" x="770" y="18" rx="2" ry="2"/><rect class="c c1k" x="770" y="34" rx="2" ry="2"/><rect class="c c1l" x="770" y="50" rx="2" ry="2"/><rect class="c c1m" x="770" y="66" rx="2" ry="2"/><rect class="c c1n" x="770" y="82" rx="2" ry="2"/><rect class="c c1o" x="770" y="98" rx="2" ry="2"/><rect class="c c1p" x="786" y="2" rx="2" ry="2"/><rect class="c c1q" x="786" y="18" rx="2" ry="2"/><rect class="c c1r" x="786" y="34" rx="2" ry="2"/><rect class="c c1s" x="786" y="50" rx="2" ry="2"/><rect class="c c1t" x="786" y="66" rx="2" ry="2"/><rect class="c c1u" x="786" y="82" rx="2" ry="2"/><rect class="c c1v" x="786" y="98" rx="2" ry="2"/><rect class="c c1w" x="802" y="2" rx="2" ry="2"/><rect class="c c1x" x="802" y="18" rx="2" ry="2"/><rect class="c c1y" x="802" y="34" rx="2" ry="2"/><rect class="c c1z" x="802" y="50" rx="2" ry="2"/><rect class="c c20" x="802" y="66" rx="2" ry="2"/><rect class="c c21" x="802" y="82" rx="2" ry="2"/><rect class="c c22" x="802" y="98" rx="2" ry="2"/><rect class="c c23" x="818" y="2" rx="2" ry="2"/><rect class="c c24" x="818" y="18" rx="2" ry="2"/><rect class="c c25" x="818" y="34" rx="2" ry="2"/><rect class="c c26" x="818" y="50" rx="2" ry="2"/><rect class="c c27" x="818" y="66" rx="2" ry="2"/><rect class="c c28" x="818" y="82" rx="2" ry="2"/><rect class="c c29" x="818" y="98" rx="2" ry="2"/><rect class="c c2a" x="834" y="2" rx="2" ry="2"/><rect class="c c2b" x="834" y="18" rx="2" ry="2"/><rect class="c c2c" x="834" y="34" rx="2" ry="2"/><rect class="c c2d" x="834" y="50" rx="2" ry="2"/><rect class="u u0" height="12" width="89.3" x="0.0" y="144"/><rect class="u u1" height="12" width="542.9" x="88.7" y="144"/><rect class="u u2" height="12" width="217.5" x="631.1" y="144"/><rect class="s s0" x="0.8" y="0.8" width="14.4" height="14.4" rx="4.5" ry="4.5"/><rect class="s s1" x="1.8" y="1.8" width="12.3" height="12.3" rx="4.1" ry="4.1"/><rect class="s s2" x="2.6" y="2.6" width="10.8" height="10.8" rx="3.6" ry="3.6"/><rect class="s s3" x="3.0" y="3.0" width="9.9" height="9.9" rx="3.3" ry="3.3"/></svg>