<svg viewBox="-16 -32 880 192" width="880" height="192" xmlns="http://www.w3.org/2000/svg"><desc>Generated with https://github.com/Platane/snk</desc><style>:root{--cb:#1b1f230a;--cs:purple;--ce:#161b22;--c0:#161b22;--c1:#01311f;--c2:#034525;--c3:#0f6d31;--c4:#00c647}.c{shape-rendering:geometricPrecision;fill:var(--ce);stroke-width:1px;stroke:var(--cb);animation:none 35700ms linear infinite;width:12px;height:12px}@keyframes c0{5.03%{fill:var(--c1)}5.05%,100%{fill:var(--ce)}}.c.c0{fill:var(--c1);animation-name:c0}@keyframes c1{57.41%{fill:var(--c2)}57.43%,100%{fill:var(--ce)}}.c.c1{fill:var(--c2);animation-name:c1}@keyframes c2{3.07%{fill:var(--c1)}3.09%,100%{fill:var(--ce)}}.c.c2{fill:var(--c1);animation-name:c2}@keyframes c3{3.35%{fill:var(--c1)}3.37%,100%{fill:var(--ce)}}.c.c3{fill:var(--c1);animation-name:c3}@keyframes c4{54.89%{fill:var(--c2)}54.91%,100%{fill:var(--ce)}}.c.c4{fill:var(--c2);animation-name:c4}@keyframes c5{62.17%{fill:var(--c4)}62.19%,100%{fill:var(--ce)}}.c.c5{fill:var(--c4);animation-name:c5}@keyframes c6{10.07%{fill:var(--c1)}10.09%,100%{fill:var(--ce)}}.c.c6{fill:var(--c1);animation-name:c6}@keyframes c7{13.72%{fill:var(--c1)}13.74%,100%{fill:var(--ce)}}.c.c7{fill:var(--c1);animation-name:c7}@keyframes c8{37.24%{fill:var(--c2)}37.26%,100%{fill:var(--ce)}}.c.c8{fill:var(--c2);animation-name:c8}@keyframes c9{89.63%{fill:var(--c4)}89.65%,100%{fill:var(--ce)}}.c.c9{fill:var(--c4);animation-name:c9}@keyframes ca{13.16%{fill:var(--c1)}13.18%,100%{fill:var(--ce)}}.c.ca{fill:var(--c1);animation-name:ca}@keyframes cb{16.8%{fill:var(--c1)}16.82%,100%{fill:var(--ce)}}.c.cb{fill:var(--c1);animation-name:cb}@keyframes cc{14.56%{fill:var(--c1)}14.58%,100%{fill:var(--ce)}}.c.cc{fill:var(--c1);animation-name:cc}@keyframes cd{14.84%{fill:var(--c1)}14.86%,100%{fill:var(--ce)}}.c.cd{fill:var(--c1);animation-name:cd}@keyframes ce{66.94%{fill:var(--c4)}66.96%,100%{fill:var(--ce)}}.c.ce{fill:var(--c4);animation-name:ce}@keyframes cf{66.66%{fill:var(--c4)}66.68%,100%{fill:var(--ce)}}.c.cf{fill:var(--c4);animation-name:cf}@keyframes cg{35%{fill:var(--c2)}35.02%,100%{fill:var(--ce)}}.c.cg{fill:var(--c2);animation-name:cg}@keyframes ch{34.72%{fill:var(--c2)}34.74%,100%{fill:var(--ce)}}.c.ch{fill:var(--c2);animation-name:ch}@keyframes ci{36.12%{fill:var(--c2)}36.14%,100%{fill:var(--ce)}}.c.ci{fill:var(--c2);animation-name:ci}@keyframes cj{17.92%{fill:var(--c2)}17.94%,100%{fill:var(--ce)}}.c.cj{fill:var(--c2);animation-name:cj}@keyframes ck{26.04%{fill:var(--c2)}26.06%,100%{fill:var(--ce)}}.c.ck{fill:var(--c2);animation-name:ck}@keyframes cl{25.76%{fill:var(--c2)}25.78%,100%{fill:var(--ce)}}.c.cl{fill:var(--c2);animation-name:cl}@keyframes cm{27.72%{fill:var(--c2)}27.74%,100%{fill:var(--ce)}}.c.cm{fill:var(--c2);animation-name:cm}@keyframes cn{28%{fill:var(--c2)}28.02%,100%{fill:var(--ce)}}.c.cn{fill:var(--c2);animation-name:cn}@keyframes co{34.44%{fill:var(--c2)}34.46%,100%{fill:var(--ce)}}.c.co{fill:var(--c2);animation-name:co}@keyframes cp{35.84%{fill:var(--c2)}35.86%,100%{fill:var(--ce)}}.c.cp{fill:var(--c2);animation-name:cp}@keyframes cq{18.2%{fill:var(--c2)}18.22%,100%{fill:var(--ce)}}.c.cq{fill:var(--c2);animation-name:cq}@keyframes cr{67.78%{fill:var(--c4)}67.8%,100%{fill:var(--ce)}}.c.cr{fill:var(--c4);animation-name:cr}@keyframes cs{25.48%{fill:var(--c2)}25.5%,100%{fill:var(--ce)}}.c.cs{fill:var(--c2);animation-name:cs}@keyframes ct{25.2%{fill:var(--c2)}25.22%,100%{fill:var(--ce)}}.c.ct{fill:var(--c2);animation-name:ct}@keyframes cu{28.28%{fill:var(--c2)}28.3%,100%{fill:var(--ce)}}.c.cu{fill:var(--c2);animation-name:cu}@keyframes cv{34.16%{fill:var(--c2)}34.18%,100%{fill:var(--ce)}}.c.cv{fill:var(--c2);animation-name:cv}@keyframes cw{33.88%{fill:var(--c2)}33.9%,100%{fill:var(--ce)}}.c.cw{fill:var(--c2);animation-name:cw}@keyframes cx{18.48%{fill:var(--c2)}18.5%,100%{fill:var(--ce)}}.c.cx{fill:var(--c2);animation-name:cx}@keyframes cy{22.12%{fill:var(--c2)}22.14%,100%{fill:var(--ce)}}.c.cy{fill:var(--c2);animation-name:cy}@keyframes cz{22.4%{fill:var(--c2)}22.42%,100%{fill:var(--ce)}}.c.cz{fill:var(--c2);animation-name:cz}@keyframes c10{24.92%{fill:var(--c2)}24.94%,100%{fill:var(--ce)}}.c.c10{fill:var(--c2);animation-name:c10}@keyframes c11{28.56%{fill:var(--c2)}28.58%,100%{fill:var(--ce)}}.c.c11{fill:var(--c2);animation-name:c11}@keyframes c12{28.84%{fill:var(--c2)}28.86%,100%{fill:var(--ce)}}.c.c12{fill:var(--c2);animation-name:c12}@keyframes c13{33.6%{fill:var(--c2)}33.62%,100%{fill:var(--ce)}}.c.c13{fill:var(--c2);animation-name:c13}@keyframes c14{18.76%{fill:var(--c2)}18.78%,100%{fill:var(--ce)}}.c.c14{fill:var(--c2);animation-name:c14}@keyframes c15{21.84%{fill:var(--c2)}21.86%,100%{fill:var(--ce)}}.c.c15{fill:var(--c2);animation-name:c15}@keyframes c16{22.68%{fill:var(--c2)}22.7%,100%{fill:var(--ce)}}.c.c16{fill:var(--c2);animation-name:c16}@keyframes c17{24.64%{fill:var(--c2)}24.66%,100%{fill:var(--ce)}}.c.c17{fill:var(--c2);animation-name:c17}@keyframes c18{69.18%{fill:var(--c4)}69.2%,100%{fill:var(--ce)}}.c.c18{fill:var(--c4);animation-name:c18}@keyframes c19{29.12%{fill:var(--c2)}29.14%,100%{fill:var(--ce)}}.c.c19{fill:var(--c2);animation-name:c19}@keyframes c1a{33.32%{fill:var(--c2)}33.34%,100%{fill:var(--ce)}}.c.c1a{fill:var(--c2);animation-name:c1a}@keyframes c1b{19.04%{fill:var(--c2)}19.06%,100%{fill:var(--ce)}}.c.c1b{fill:var(--c2);animation-name:c1b}@keyframes c1c{21.56%{fill:var(--c2)}21.58%,100%{fill:var(--ce)}}.c.c1c{fill:var(--c2);animation-name:c1c}@keyframes c1d{22.96%{fill:var(--c2)}22.98%,100%{fill:var(--ce)}}.c.c1d{fill:var(--c2);animation-name:c1d}@keyframes c1e{24.36%{fill:var(--c2)}24.38%,100%{fill:var(--ce)}}.c.c1e{fill:var(--c2);animation-name:c1e}@keyframes c1f{30.8%{fill:var(--c2)}30.82%,100%{fill:var(--ce)}}.c.c1f{fill:var(--c2);animation-name:c1f}@keyframes c1g{29.4%{fill:var(--c2)}29.42%,100%{fill:var(--ce)}}.c.c1g{fill:var(--c2);animation-name:c1g}@keyframes c1h{31.36%{fill:var(--c2)}31.38%,100%{fill:var(--ce)}}.c.c1h{fill:var(--c2);animation-name:c1h}@keyframes c1i{19.32%{fill:var(--c2)}19.34%,100%{fill:var(--ce)}}.c.c1i{fill:var(--c2);animation-name:c1i}@keyframes c1j{21.28%{fill:var(--c2)}21.3%,100%{fill:var(--ce)}}.c.c1j{fill:var(--c2);animation-name:c1j}@keyframes c1k{23.24%{fill:var(--c2)}23.26%,100%{fill:var(--ce)}}.c.c1k{fill:var(--c2);animation-name:c1k}@keyframes c1l{24.08%{fill:var(--c2)}24.1%,100%{fill:var(--ce)}}.c.c1l{fill:var(--c2);animation-name:c1l}@keyframes c1m{30.52%{fill:var(--c2)}30.54%,100%{fill:var(--ce)}}.c.c1m{fill:var(--c2);animation-name:c1m}@keyframes c1n{29.68%{fill:var(--c2)}29.7%,100%{fill:var(--ce)}}.c.c1n{fill:var(--c2);animation-name:c1n}@keyframes c1o{31.64%{fill:var(--c2)}31.66%,100%{fill:var(--ce)}}.c.c1o{fill:var(--c2);animation-name:c1o}@keyframes c1p{19.6%{fill:var(--c2)}19.62%,100%{fill:var(--ce)}}.c.c1p{fill:var(--c2);animation-name:c1p}@keyframes c1q{21%{fill:var(--c2)}21.02%,100%{fill:var(--ce)}}.c.c1q{fill:var(--c2);animation-name:c1q}@keyframes c1r{23.52%{fill:var(--c2)}23.54%,100%{fill:var(--ce)}}.c.c1r{fill:var(--c2);animation-name:c1r}@keyframes c1s{23.8%{fill:var(--c2)}23.82%,100%{fill:var(--ce)}}.c.c1s{fill:var(--c2);animation-name:c1s}@keyframes c1t{30.24%{fill:var(--c2)}30.26%,100%{fill:var(--ce)}}.c.c1t{fill:var(--c2);animation-name:c1t}@keyframes c1u{29.96%{fill:var(--c2)}29.98%,100%{fill:var(--ce)}}.c.c1u{fill:var(--c2);animation-name:c1u}@keyframes c1v{31.92%{fill:var(--c2)}31.94%,100%{fill:var(--ce)}}.c.c1v{fill:var(--c2);animation-name:c1v}@keyframes c1w{19.88%{fill:var(--c2)}19.9%,100%{fill:var(--ce)}}.c.c1w{fill:var(--c2);animation-name:c1w}@keyframes c1x{77.86%{fill:var(--c4)}77.88%,100%{fill:var(--ce)}}.c.c1x{fill:var(--c4);animation-name:c1x}@keyframes c1y{77.58%{fill:var(--c4)}77.6%,100%{fill:var(--ce)}}.c.c1y{fill:var(--c4);animation-name:c1y}@keyframes c1z{85.7%{fill:var(--c4)}85.72%,100%{fill:var(--ce)}}.c.c1z{fill:var(--c4);animation-name:c1z}@keyframes c20{70.3%{fill:var(--c4)}70.32%,100%{fill:var(--ce)}}.c.c20{fill:var(--c4);animation-name:c20}@keyframes c21{82.9%{fill:var(--c4)}82.92%,100%{fill:var(--ce)}}.c.c21{fill:var(--c4);animation-name:c21}@keyframes c22{83.18%{fill:var(--c4)}83.2%,100%{fill:var(--ce)}}.c.c22{fill:var(--c4);animation-name:c22}@keyframes c23{74.5%{fill:var(--c4)}74.52%,100%{fill:var(--ce)}}.c.c23{fill:var(--c4);animation-name:c23}@keyframes c24{74.78%{fill:var(--c4)}74.8%,100%{fill:var(--ce)}}.c.c24{fill:var(--c4);animation-name:c24}@keyframes c25{77.3%{fill:var(--c4)}77.32%,100%{fill:var(--ce)}}.c.c25{fill:var(--c4);animation-name:c25}@keyframes c26{78.7%{fill:var(--c4)}78.72%,100%{fill:var(--ce)}}.c.c26{fill:var(--c4);animation-name:c26}@keyframes c27{70.58%{fill:var(--c4)}70.6%,100%{fill:var(--ce)}}.c.c27{fill:var(--c4);animation-name:c27}@keyframes c28{82.62%{fill:var(--c4)}82.64%,100%{fill:var(--ce)}}.c.c28{fill:var(--c4);animation-name:c28}@keyframes c29{83.46%{fill:var(--c4)}83.48%,100%{fill:var(--ce)}}.c.c29{fill:var(--c4);animation-name:c29}@keyframes c2a{74.22%{fill:var(--c4)}74.24%,100%{fill:var(--ce)}}.c.c2a{fill:var(--c4);animation-name:c2a}@keyframes c2b{75.06%{fill:var(--c4)}75.08%,100%{fill:var(--ce)}}.c.c2b{fill:var(--c4);animation-name:c2b}@keyframes c2c{77.02%{fill:var(--c4)}77.04%,100%{fill:var(--ce)}}.c.c2c{fill:var(--c4);animation-name:c2c}@keyframes c2d{78.98%{fill:var(--c4)}79%,100%{fill:var(--ce)}}.c.c2d{fill:var(--c4);animation-name:c2d}@keyframes c2e{70.86%{fill:var(--c4)}70.88%,100%{fill:var(--ce)}}.c.c2e{fill:var(--c4);animation-name:c2e}@keyframes c2f{82.34%{fill:var(--c4)}82.36%,100%{fill:var(--ce)}}.c.c2f{fill:var(--c4);animation-name:c2f}@keyframes c2g{83.74%{fill:var(--c4)}83.76%,100%{fill:var(--ce)}}.c.c2g{fill:var(--c4);animation-name:c2g}@keyframes c2h{73.94%{fill:var(--c4)}73.96%,100%{fill:var(--ce)}}.c.c2h{fill:var(--c4);animation-name:c2h}@keyframes c2i{75.34%{fill:var(--c4)}75.36%,100%{fill:var(--ce)}}.c.c2i{fill:var(--c4);animation-name:c2i}@keyframes c2j{76.74%{fill:var(--c4)}76.76%,100%{fill:var(--ce)}}.c.c2j{fill:var(--c4);animation-name:c2j}@keyframes c2k{79.26%{fill:var(--c4)}79.28%,100%{fill:var(--ce)}}.c.c2k{fill:var(--c4);animation-name:c2k}@keyframes c2l{71.14%{fill:var(--c4)}71.16%,100%{fill:var(--ce)}}.c.c2l{fill:var(--c4);animation-name:c2l}@keyframes c2m{82.06%{fill:var(--c4)}82.08%,100%{fill:var(--ce)}}.c.c2m{fill:var(--c4);animation-name:c2m}@keyframes c2n{84.02%{fill:var(--c4)}84.04%,100%{fill:var(--ce)}}.c.c2n{fill:var(--c4);animation-name:c2n}@keyframes c2o{73.66%{fill:var(--c4)}73.68%,100%{fill:var(--ce)}}.c.c2o{fill:var(--c4);animation-name:c2o}@keyframes c2p{75.62%{fill:var(--c4)}75.64%,100%{fill:var(--ce)}}.c.c2p{fill:var(--c4);animation-name:c2p}@keyframes c2q{76.46%{fill:var(--c4)}76.48%,100%{fill:var(--ce)}}.c.c2q{fill:var(--c4);animation-name:c2q}@keyframes c2r{79.54%{fill:var(--c4)}79.56%,100%{fill:var(--ce)}}.c.c2r{fill:var(--c4);animation-name:c2r}@keyframes c2s{71.42%{fill:var(--c4)}71.44%,100%{fill:var(--ce)}}.c.c2s{fill:var(--c4);animation-name:c2s}@keyframes c2t{81.78%{fill:var(--c4)}81.8%,100%{fill:var(--ce)}}.c.c2t{fill:var(--c4);animation-name:c2t}@keyframes c2u{81.5%{fill:var(--c4)}81.52%,100%{fill:var(--ce)}}.c.c2u{fill:var(--c4);animation-name:c2u}@keyframes c2v{73.38%{fill:var(--c4)}73.4%,100%{fill:var(--ce)}}.c.c2v{fill:var(--c4);animation-name:c2v}@keyframes c2w{75.9%{fill:var(--c4)}75.92%,100%{fill:var(--ce)}}.c.c2w{fill:var(--c4);animation-name:c2w}@keyframes c2x{76.18%{fill:var(--c4)}76.2%,100%{fill:var(--ce)}}.c.c2x{fill:var(--c4);animation-name:c2x}@keyframes c2y{79.82%{fill:var(--c4)}79.84%,100%{fill:var(--ce)}}.c.c2y{fill:var(--c4);animation-name:c2y}@keyframes c2z{71.7%{fill:var(--c4)}71.72%,100%{fill:var(--ce)}}.c.c2z{fill:var(--c4);animation-name:c2z}@keyframes c30{80.38%{fill:var(--c4)}80.4%,100%{fill:var(--ce)}}.c.c30{fill:var(--c4);animation-name:c30}@keyframes c31{81.22%{fill:var(--c4)}81.24%,100%{fill:var(--ce)}}.c.c31{fill:var(--c4);animation-name:c31}@keyframes c32{73.1%{fill:var(--c4)}73.12%,100%{fill:var(--ce)}}.c.c32{fill:var(--c4);animation-name:c32}@keyframes c33{72.82%{fill:var(--c4)}72.84%,100%{fill:var(--ce)}}.c.c33{fill:var(--c4);animation-name:c33}@keyframes c34{72.54%{fill:var(--c4)}72.56%,100%{fill:var(--ce)}}.c.c34{fill:var(--c4);animation-name:c34}@keyframes c35{72.26%{fill:var(--c4)}72.28%,100%{fill:var(--ce)}}.c.c35{fill:var(--c4);animation-name:c35}@keyframes c36{71.98%{fill:var(--c4)}72%,100%{fill:var(--ce)}}.c.c36{fill:var(--c4);animation-name:c36}@keyframes c37{80.66%{fill:var(--c4)}80.68%,100%{fill:var(--ce)}}.c.c37{fill:var(--c4);animation-name:c37}@keyframes c38{42.85%{fill:var(--c2)}42.87%,100%{fill:var(--ce)}}.c.c38{fill:var(--c2);animation-name:c38}.u{transform-origin:0 0;transform:scale(0,1);animation:none linear 35700ms infinite}@keyframes u0{3.07%{transform:scale(0.000,1)}3.09%,3.35%{transform:scale(0.111,1)}3.37%,5.03%{transform:scale(0.222,1)}5.05%,10.07%{transform:scale(0.333,1)}10.09%,13.16%{transform:scale(0.444,1)}13.18%,13.72%{transform:scale(0.556,1)}13.74%,14.56%{transform:scale(0.667,1)}14.58%,14.84%{transform:scale(0.778,1)}14.86%,16.8%{transform:scale(0.889,1)}16.82%,100%{transform:scale(1.000,1)}}.u.u0{fill:var(--c1);animation-name:u0;transform-origin:0.0px 0}@keyframes u1{17.92%{transform:scale(0.000,1)}17.94%,18.2%{transform:scale(0.018,1)}18.22%,18.48%{transform:scale(0.036,1)}18.5%,18.76%{transform:scale(0.055,1)}18.78%,19.04%{transform:scale(0.073,1)}19.06%,19.32%{transform:scale(0.091,1)}19.34%,19.6%{transform:scale(0.109,1)}19.62%,19.88%{transform:scale(0.127,1)}19.9%,21%{transform:scale(0.145,1)}21.02%,21.28%{transform:scale(0.164,1)}21.3%,21.56%{transform:scale(0.182,1)}21.58%,21.84%{transform:scale(0.200,1)}21.86%,22.12%{transform:scale(0.218,1)}22.14%,22.4%{transform:scale(0.236,1)}22.42%,22.68%{transform:scale(0.255,1)}22.7%,22.96%{transform:scale(0.273,1)}22.98%,23.24%{transform:scale(0.291,1)}23.26%,23.52%{transform:scale(0.309,1)}23.54%,23.8%{transform:scale(0.327,1)}23.82%,24.08%{transform:scale(0.345,1)}24.1%,24.36%{transform:scale(0.364,1)}24.38%,24.64%{transform:scale(0.382,1)}24.66%,24.92%{transform:scale(0.400,1)}24.94%,25.2%{transform:scale(0.418,1)}25.22%,25.48%{transform:scale(0.436,1)}25.5%,25.76%{transform:scale(0.455,1)}25.78%,26.04%{transform:scale(0.473,1)}26.06%,27.72%{transform:scale(0.491,1)}27.74%,28%{transform:scale(0.509,1)}28.02%,28.28%{transform:scale(0.527,1)}28.3%,28.56%{transform:scale(0.545,1)}28.58%,28.84%{transform:scale(0.564,1)}28.86%,29.12%{transform:scale(0.582,1)}29.14%,29.4%{transform:scale(0.600,1)}29.42%,29.68%{transform:scale(0.618,1)}29.7%,29.96%{transform:scale(0.636,1)}29.98%,30.24%{transform:scale(0.655,1)}30.26%,30.52%{transform:scale(0.673,1)}30.54%,30.8%{transform:scale(0.691,1)}30.82%,31.36%{transform:scale(0.709,1)}31.38%,31.64%{transform:scale(0.727,1)}31.66%,31.92%{transform:scale(0.745,1)}31.94%,33.32%{transform:scale(0.764,1)}33.34%,33.6%{transform:scale(0.782,1)}33.62%,33.88%{transform:scale(0.800,1)}33.9%,34.16%{transform:scale(0.818,1)}34.18%,34.44%{transform:scale(0.836,1)}34.46%,34.72%{transform:scale(0.855,1)}34.74%,35%{transform:scale(0.873,1)}35.02%,35.84%{transform:scale(0.891,1)}35.86%,36.12%{transform:scale(0.909,1)}36.14%,37.24%{transform:scale(0.927,1)}37.26%,42.85%{transform:scale(0.945,1)}42.87%,54.89%{transform:scale(0.964,1)}54.91%,57.41%{transform:scale(0.982,1)}57.43%,100%{transform:scale(1.000,1)}}.u.u1{fill:var(--c2);animation-name:u1;transform-origin:65.2px 0}@keyframes u2{62.17%{transform:scale(0.000,1)}62.19%,66.66%{transform:scale(0.019,1)}66.68%,66.94%{transform:scale(0.038,1)}66.96%,67.78%{transform:scale(0.057,1)}67.8%,69.18%{transform:scale(0.075,1)}69.2%,70.3%{transform:scale(0.094,1)}70.32%,70.58%{transform:scale(0.113,1)}70.6%,70.86%{transform:scale(0.132,1)}70.88%,71.14%{transform:scale(0.151,1)}71.16%,71.42%{transform:scale(0.170,1)}71.44%,71.7%{transform:scale(0.189,1)}71.72%,71.98%{transform:scale(0.208,1)}72%,72.26%{transform:scale(0.226,1)}72.28%,72.54%{transform:scale(0.245,1)}72.56%,72.82%{transform:scale(0.264,1)}72.84%,73.1%{transform:scale(0.283,1)}73.12%,73.38%{transform:scale(0.302,1)}73.4%,73.66%{transform:scale(0.321,1)}73.68%,73.94%{transform:scale(0.340,1)}73.96%,74.22%{transform:scale(0.358,1)}74.24%,74.5%{transform:scale(0.377,1)}74.52%,74.78%{transform:scale(0.396,1)}74.8%,75.06%{transform:scale(0.415,1)}75.08%,75.34%{transform:scale(0.434,1)}75.36%,75.62%{transform:scale(0.453,1)}75.64%,75.9%{transform:scale(0.472,1)}75.92%,76.18%{transform:scale(0.491,1)}76.2%,76.46%{transform:scale(0.509,1)}76.48%,76.74%{transform:scale(0.528,1)}76.76%,77.02%{transform:scale(0.547,1)}77.04%,77.3%{transform:scale(0.566,1)}77.32%,77.58%{transform:scale(0.585,1)}77.6%,77.86%{transform:scale(0.604,1)}77.88%,78.7%{transform:scale(0.623,1)}78.72%,78.98%{transform:scale(0.642,1)}79%,79.26%{transform:scale(0.660,1)}79.28%,79.54%{transform:scale(0.679,1)}79.56%,79.82%{transform:scale(0.698,1)}79.84%,80.38%{transform:scale(0.717,1)}80.4%,80.66%{transform:scale(0.736,1)}80.68%,81.22%{transform:scale(0.755,1)}81.24%,81.5%{transform:scale(0.774,1)}81.52%,81.78%{transform:scale(0.792,1)}81.8%,82.06%{transform:scale(0.811,1)}82.08%,82.34%{transform:scale(0.830,1)}82.36%,82.62%{transform:scale(0.849,1)}82.64%,82.9%{transform:scale(0.868,1)}82.92%,83.18%{transform:scale(0.887,1)}83.2%,83.46%{transform:scale(0.906,1)}83.48%,83.74%{transform:scale(0.925,1)}83.76%,84.02%{transform:scale(0.943,1)}84.04%,85.7%{transform:scale(0.962,1)}85.72%,89.63%{transform:scale(0.981,1)}89.65%,100%{transform:scale(1.000,1)}}.u.u2{fill:var(--c4);animation-name:u2;transform-origin:463.9px 0}.s{shape-rendering:geometricPrecision;fill:var(--cs);animation:none linear 35700ms infinite}@keyframes s0{0%,99.72%{transform:translate(0px,-16px)}0.28%{transform:translate(0px,0px)}3.08%{transform:translate(160px,0px)}3.36%{transform:translate(160px,16px)}3.92%{transform:translate(128px,16px)}5.04%{transform:translate(128px,80px)}9.52%{transform:translate(384px,80px)}10.08%{transform:translate(384px,48px)}13.17%{transform:translate(560px,48px)}13.45%{transform:translate(560px,64px)}13.73%{transform:translate(544px,64px)}14.01%{transform:translate(544px,80px)}14.57%{transform:translate(576px,80px)}14.85%{transform:translate(576px,96px)}15.13%{transform:translate(592px,96px)}16.53%{transform:translate(592px,16px)}16.81%{transform:translate(576px,16px)}17.09%{transform:translate(576px,0px)}19.89%,86.55%{transform:translate(736px,0px)}20.17%{transform:translate(736px,-16px)}20.45%{transform:translate(720px,-16px)}21.01%{transform:translate(720px,16px)}22.13%{transform:translate(656px,16px)}22.41%{transform:translate(656px,32px)}23.53%{transform:translate(720px,32px)}23.81%{transform:translate(720px,48px)}25.21%{transform:translate(640px,48px)}25.49%,67.51%{transform:translate(640px,32px)}25.77%{transform:translate(624px,32px)}26.33%{transform:translate(624px,0px)}26.61%{transform:translate(608px,0px)}26.89%{transform:translate(608px,16px)}27.17%{transform:translate(624px,16px)}28.01%,35.29%{transform:translate(624px,64px)}28.57%{transform:translate(656px,64px)}28.85%{transform:translate(656px,80px)}29.97%,32.21%,46.22%{transform:translate(720px,80px)}30.25%{transform:translate(720px,64px)}30.81%{transform:translate(688px,64px)}31.37%{transform:translate(688px,96px)}31.93%{transform:translate(720px,96px)}33.05%{transform:translate(672px,80px)}33.33%{transform:translate(672px,96px)}33.89%{transform:translate(640px,96px)}34.17%{transform:translate(640px,80px)}34.73%{transform:translate(608px,80px)}35.01%,66.39%{transform:translate(608px,64px)}35.85%{transform:translate(624px,96px)}37.25%{transform:translate(544px,96px)}37.54%{transform:translate(544px,112px)}42.58%{transform:translate(832px,112px)}42.86%,80.95%{transform:translate(832px,96px)}43.14%{transform:translate(848px,96px)}43.42%{transform:translate(848px,112px)}45.66%{transform:translate(720px,112px)}52.66%{transform:translate(352px,80px)}52.94%{transform:translate(352px,64px)}56.86%{transform:translate(128px,64px)}57.42%{transform:translate(128px,96px)}61.62%{transform:translate(368px,96px)}62.18%{transform:translate(368px,64px)}66.95%{transform:translate(608px,32px)}67.79%{transform:translate(640px,16px)}68.35%{transform:translate(672px,16px)}69.19%{transform:translate(672px,64px)}71.99%{transform:translate(832px,64px)}73.11%{transform:translate(832px,0px)}74.51%{transform:translate(752px,0px)}74.79%,78.15%{transform:translate(752px,16px)}75.91%{transform:translate(816px,16px)}76.19%{transform:translate(816px,32px)}77.59%{transform:translate(736px,32px)}77.87%{transform:translate(736px,16px)}78.71%{transform:translate(752px,48px)}79.83%{transform:translate(816px,48px)}80.39%{transform:translate(816px,80px)}80.67%{transform:translate(832px,80px)}81.51%{transform:translate(800px,96px)}81.79%{transform:translate(800px,80px)}82.91%{transform:translate(736px,80px)}83.19%{transform:translate(736px,96px)}84.03%{transform:translate(784px,96px)}84.87%{transform:translate(784px,48px)}85.71%{transform:translate(736px,48px)}97.76%{transform:translate(96px,0px)}98.04%{transform:translate(96px,-16px)}}.s.s0{transform:translate(0px,-16px);animation-name:s0}@keyframes s1{0%,99.72%{transform:translate(16px,-16px)}0.28%{transform:translate(0px,-16px)}0.56%{transform:translate(0px,0px)}3.36%{transform:translate(160px,0px)}3.64%{transform:translate(160px,16px)}4.2%{transform:translate(128px,16px)}5.32%{transform:translate(128px,80px)}9.8%{transform:translate(384px,80px)}10.36%{transform:translate(384px,48px)}13.45%{transform:translate(560px,48px)}13.73%{transform:translate(560px,64px)}14.01%{transform:translate(544px,64px)}14.29%{transform:translate(544px,80px)}14.85%{transform:translate(576px,80px)}15.13%{transform:translate(576px,96px)}15.41%{transform:translate(592px,96px)}16.81%{transform:translate(592px,16px)}17.09%{transform:translate(576px,16px)}17.37%{transform:translate(576px,0px)}20.17%,86.83%{transform:translate(736px,0px)}20.45%{transform:translate(736px,-16px)}20.73%{transform:translate(720px,-16px)}21.29%{transform:translate(720px,16px)}22.41%{transform:translate(656px,16px)}22.69%{transform:translate(656px,32px)}23.81%{transform:translate(720px,32px)}24.09%{transform:translate(720px,48px)}25.49%{transform:translate(640px,48px)}25.77%,67.79%{transform:translate(640px,32px)}26.05%{transform:translate(624px,32px)}26.61%{transform:translate(624px,0px)}26.89%{transform:translate(608px,0px)}27.17%{transform:translate(608px,16px)}27.45%{transform:translate(624px,16px)}28.29%,35.57%{transform:translate(624px,64px)}28.85%{transform:translate(656px,64px)}29.13%{transform:translate(656px,80px)}30.25%,32.49%,46.5%{transform:translate(720px,80px)}30.53%{transform:translate(720px,64px)}31.09%{transform:translate(688px,64px)}31.65%{transform:translate(688px,96px)}32.21%{transform:translate(720px,96px)}33.33%{transform:translate(672px,80px)}33.61%{transform:translate(672px,96px)}34.17%{transform:translate(640px,96px)}34.45%{transform:translate(640px,80px)}35.01%{transform:translate(608px,80px)}35.29%,66.67%{transform:translate(608px,64px)}36.13%{transform:translate(624px,96px)}37.54%{transform:translate(544px,96px)}37.82%{transform:translate(544px,112px)}42.86%{transform:translate(832px,112px)}43.14%,81.23%{transform:translate(832px,96px)}43.42%{transform:translate(848px,96px)}43.7%{transform:translate(848px,112px)}45.94%{transform:translate(720px,112px)}52.94%{transform:translate(352px,80px)}53.22%{transform:translate(352px,64px)}57.14%{transform:translate(128px,64px)}57.7%{transform:translate(128px,96px)}61.9%{transform:translate(368px,96px)}62.46%{transform:translate(368px,64px)}67.23%{transform:translate(608px,32px)}68.07%{transform:translate(640px,16px)}68.63%{transform:translate(672px,16px)}69.47%{transform:translate(672px,64px)}72.27%{transform:translate(832px,64px)}73.39%{transform:translate(832px,0px)}74.79%{transform:translate(752px,0px)}75.07%,78.43%{transform:translate(752px,16px)}76.19%{transform:translate(816px,16px)}76.47%{transform:translate(816px,32px)}77.87%{transform:translate(736px,32px)}78.15%{transform:translate(736px,16px)}78.99%{transform:translate(752px,48px)}80.11%{transform:translate(816px,48px)}80.67%{transform:translate(816px,80px)}80.95%{transform:translate(832px,80px)}81.79%{transform:translate(800px,96px)}82.07%{transform:translate(800px,80px)}83.19%{transform:translate(736px,80px)}83.47%{transform:translate(736px,96px)}84.31%{transform:translate(784px,96px)}85.15%{transform:translate(784px,48px)}85.99%{transform:translate(736px,48px)}98.04%{transform:translate(96px,0px)}98.32%{transform:translate(96px,-16px)}}.s.s1{transform:translate(16px,-16px);animation-name:s1}@keyframes s2{0%,99.72%{transform:translate(32px,-16px)}0.56%{transform:translate(0px,-16px)}0.84%{transform:translate(0px,0px)}3.64%{transform:translate(160px,0px)}3.92%{transform:translate(160px,16px)}4.48%{transform:translate(128px,16px)}5.6%{transform:translate(128px,80px)}10.08%{transform:translate(384px,80px)}10.64%{transform:translate(384px,48px)}13.73%{transform:translate(560px,48px)}14.01%{transform:translate(560px,64px)}14.29%{transform:translate(544px,64px)}14.57%{transform:translate(544px,80px)}15.13%{transform:translate(576px,80px)}15.41%{transform:translate(576px,96px)}15.69%{transform:translate(592px,96px)}17.09%{transform:translate(592px,16px)}17.37%{transform:translate(576px,16px)}17.65%{transform:translate(576px,0px)}20.45%,87.11%{transform:translate(736px,0px)}20.73%{transform:translate(736px,-16px)}21.01%{transform:translate(720px,-16px)}21.57%{transform:translate(720px,16px)}22.69%{transform:translate(656px,16px)}22.97%{transform:translate(656px,32px)}24.09%{transform:translate(720px,32px)}24.37%{transform:translate(720px,48px)}25.77%{transform:translate(640px,48px)}26.05%,68.07%{transform:translate(640px,32px)}26.33%{transform:translate(624px,32px)}26.89%{transform:translate(624px,0px)}27.17%{transform:translate(608px,0px)}27.45%{transform:translate(608px,16px)}27.73%{transform:translate(624px,16px)}28.57%,35.85%{transform:translate(624px,64px)}29.13%{transform:translate(656px,64px)}29.41%{transform:translate(656px,80px)}30.53%,32.77%,46.78%{transform:translate(720px,80px)}30.81%{transform:translate(720px,64px)}31.37%{transform:translate(688px,64px)}31.93%{transform:translate(688px,96px)}32.49%{transform:translate(720px,96px)}33.61%{transform:translate(672px,80px)}33.89%{transform:translate(672px,96px)}34.45%{transform:translate(640px,96px)}34.73%{transform:translate(640px,80px)}35.29%{transform:translate(608px,80px)}35.57%,66.95%{transform:translate(608px,64px)}36.41%{transform:translate(624px,96px)}37.82%{transform:translate(544px,96px)}38.1%{transform:translate(544px,112px)}43.14%{transform:translate(832px,112px)}43.42%,81.51%{transform:translate(832px,96px)}43.7%{transform:translate(848px,96px)}43.98%{transform:translate(848px,112px)}46.22%{transform:translate(720px,112px)}53.22%{transform:translate(352px,80px)}53.5%{transform:translate(352px,64px)}57.42%{transform:translate(128px,64px)}57.98%{transform:translate(128px,96px)}62.18%{transform:translate(368px,96px)}62.75%{transform:translate(368px,64px)}67.51%{transform:translate(608px,32px)}68.35%{transform:translate(640px,16px)}68.91%{transform:translate(672px,16px)}69.75%{transform:translate(672px,64px)}72.55%{transform:translate(832px,64px)}73.67%{transform:translate(832px,0px)}75.07%{transform:translate(752px,0px)}75.35%,78.71%{transform:translate(752px,16px)}76.47%{transform:translate(816px,16px)}76.75%{transform:translate(816px,32px)}78.15%{transform:translate(736px,32px)}78.43%{transform:translate(736px,16px)}79.27%{transform:translate(752px,48px)}80.39%{transform:translate(816px,48px)}80.95%{transform:translate(816px,80px)}81.23%{transform:translate(832px,80px)}82.07%{transform:translate(800px,96px)}82.35%{transform:translate(800px,80px)}83.47%{transform:translate(736px,80px)}83.75%{transform:translate(736px,96px)}84.59%{transform:translate(784px,96px)}85.43%{transform:translate(784px,48px)}86.27%{transform:translate(736px,48px)}98.32%{transform:translate(96px,0px)}98.6%{transform:translate(96px,-16px)}}.s.s2{transform:translate(32px,-16px);animation-name:s2}@keyframes s3{0%,99.72%{transform:translate(48px,-16px)}0.84%{transform:translate(0px,-16px)}1.12%{transform:translate(0px,0px)}3.92%{transform:translate(160px,0px)}4.2%{transform:translate(160px,16px)}4.76%{transform:translate(128px,16px)}5.88%{transform:translate(128px,80px)}10.36%{transform:translate(384px,80px)}10.92%{transform:translate(384px,48px)}14.01%{transform:translate(560px,48px)}14.29%{transform:translate(560px,64px)}14.57%{transform:translate(544px,64px)}14.85%{transform:translate(544px,80px)}15.41%{transform:translate(576px,80px)}15.69%{transform:translate(576px,96px)}15.97%{transform:translate(592px,96px)}17.37%{transform:translate(592px,16px)}17.65%{transform:translate(576px,16px)}17.93%{transform:translate(576px,0px)}20.73%,87.39%{transform:translate(736px,0px)}21.01%{transform:translate(736px,-16px)}21.29%{transform:translate(720px,-16px)}21.85%{transform:translate(720px,16px)}22.97%{transform:translate(656px,16px)}23.25%{transform:translate(656px,32px)}24.37%{transform:translate(720px,32px)}24.65%{transform:translate(720px,48px)}26.05%{transform:translate(640px,48px)}26.33%,68.35%{transform:translate(640px,32px)}26.61%{transform:translate(624px,32px)}27.17%{transform:translate(624px,0px)}27.45%{transform:translate(608px,0px)}27.73%{transform:translate(608px,16px)}28.01%{transform:translate(624px,16px)}28.85%,36.13%{transform:translate(624px,64px)}29.41%{transform:translate(656px,64px)}29.69%{transform:translate(656px,80px)}30.81%,33.05%,47.06%{transform:translate(720px,80px)}31.09%{transform:translate(720px,64px)}31.65%{transform:translate(688px,64px)}32.21%{transform:translate(688px,96px)}32.77%{transform:translate(720px,96px)}33.89%{transform:translate(672px,80px)}34.17%{transform:translate(672px,96px)}34.73%{transform:translate(640px,96px)}35.01%{transform:translate(640px,80px)}35.57%{transform:translate(608px,80px)}35.85%,67.23%{transform:translate(608px,64px)}36.69%{transform:translate(624px,96px)}38.1%{transform:translate(544px,96px)}38.38%{transform:translate(544px,112px)}43.42%{transform:translate(832px,112px)}43.7%,81.79%{transform:translate(832px,96px)}43.98%{transform:translate(848px,96px)}44.26%{transform:translate(848px,112px)}46.5%{transform:translate(720px,112px)}53.5%{transform:translate(352px,80px)}53.78%{transform:translate(352px,64px)}57.7%{transform:translate(128px,64px)}58.26%{transform:translate(128px,96px)}62.46%{transform:translate(368px,96px)}63.03%{transform:translate(368px,64px)}67.79%{transform:translate(608px,32px)}68.63%{transform:translate(640px,16px)}69.19%{transform:translate(672px,16px)}70.03%{transform:translate(672px,64px)}72.83%{transform:translate(832px,64px)}73.95%{transform:translate(832px,0px)}75.35%{transform:translate(752px,0px)}75.63%,78.99%{transform:translate(752px,16px)}76.75%{transform:translate(816px,16px)}77.03%{transform:translate(816px,32px)}78.43%{transform:translate(736px,32px)}78.71%{transform:translate(736px,16px)}79.55%{transform:translate(752px,48px)}80.67%{transform:translate(816px,48px)}81.23%{transform:translate(816px,80px)}81.51%{transform:translate(832px,80px)}82.35%{transform:translate(800px,96px)}82.63%{transform:translate(800px,80px)}83.75%{transform:translate(736px,80px)}84.03%{transform:translate(736px,96px)}84.87%{transform:translate(784px,96px)}85.71%{transform:translate(784px,48px)}86.55%{transform:translate(736px,48px)}98.6%{transform:translate(96px,0px)}98.88%{transform:translate(96px,-16px)}}.s.s3{transform:translate(48px,-16px);animation-name:s3}</style><rect class="c" x="2" y="2" rx="2" ry="2"/><rect class="c" x="2" y="18" rx="2" ry="2"/><rect class="c" x="2" y="34" rx="2" ry="2"/><rect class="c" x="2" y="50" rx="2" ry="2"/><rect class="c" x="2" y="66" rx="2" ry="2"/><rect class="c" x="2" y="82" rx="2" ry="2"/><rect class="c" x="2" y="98" rx="2" ry="2"/><rect class="c" x="18" y="2" rx="2" ry="2"/><rect class="c" x="18" y="18" rx="2" ry="2"/><rect class="c" x="18" y="34" rx="2" ry="2"/><rect class="c" x="18" y="50" rx="2" ry="2"/><rect class="c" x="18" y="66" rx="2" ry="2"/><rect class="c" x="18" y="82" rx="2" ry="2"/><rect class="c" x="18" y="98" rx="2" ry="2"/><rect class="c" x="34" y="2" rx="2" ry="2"/><rect class="c" x="34" y="18" rx="2" ry="2"/><rect class="c" x="34" y="34" rx="2" ry="2"/><rect class="c" x="34" y="50" rx="2" ry="2"/><rect class="c" x="34" y="66" rx="2" ry="2"/><rect class="c" x="34" y="82" rx="2" ry="2"/><rect class="c" x="34" y="98" rx="2" ry="2"/><rect class="c" x="50" y="2" rx="2" ry="2"/><rect class="c" x="50" y="18" rx="2" ry="2"/><rect class="c" x="50" y="34" rx="2" ry="2"/><rect class="c" x="50" y="50" rx="2" ry="2"/><rect class="c" x="50" y="66" rx="2" ry="2"/><rect class="c" x="50" y="82" rx="2" ry="2"/><rect class="c" x="50" y="98" rx="2" ry="2"/><rect class="c" x="66" y="2" rx="2" ry="2"/><rect class="c" x="66" y="18" rx="2" ry="2"/><rect class="c" x="66" y="34" rx="2" ry="2"/><rect class="c" x="66" y="50" rx="2" ry="2"/><rect class="c" x="66" y="66" rx="2" ry="2"/><rect class="c" x="66" y="82" rx="2" ry="2"/><rect class="c" x="66" y="98" rx="2" ry="2"/><rect class="c" x="82" y="2" rx="2" ry="2"/><rect class="c" x="82" y="18" rx="2" ry="2"/><rect class="c" x="82" y="34" rx="2" ry="2"/><rect class="c" x="82" y="50" rx="2" ry="2"/><rect class="c" x="82" y="66" rx="2" ry="2"/><rect class="c" x="82" y="82" rx="2" ry="2"/><rect class="c" x="82" y="98" rx="2" ry="2"/><rect class="c" x="98" y="2" rx="2" ry="2"/><rect class="c" x="98" y="18" rx="2" ry="2"/><rect class="c" x="98" y="34" rx="2" ry="2"/><rect class="c" x="98" y="50" rx="2" ry="2"/><rect class="c" x="98" y="66" rx="2" ry="2"/><rect class="c" x="98" y="82" rx="2" ry="2"/><rect class="c" x="98" y="98" rx="2" ry="2"/><rect class="c" x="114" y="2" rx="2" ry="2"/><rect class="c" x="114" y="18" rx="2" ry="2"/><rect class="c" x="114" y="34" rx="2" ry="2"/><rect class="c" x="114" y="50" rx="2" ry="2"/><rect class="c" x="114" y="66" rx="2" ry="2"/><rect class="c" x="114" y="82" rx="2" ry="2"/><rect class="c" x="114" y="98" rx="2" ry="2"/><rect class="c" x="130" y="2" rx="2" ry="2"/><rect class="c" x="130" y="18" rx="2" ry="2"/><rect class="c" x="130" y="34" rx="2" ry="2"/><rect class="c" x="130" y="50" rx="2" ry="2"/><rect class="c" x="130" y="66" rx="2" ry="2"/><rect class="c c0" x="130" y="82" rx="2" ry="2"/><rect class="c c1" x="130" y="98" rx="2" ry="2"/><rect class="c" x="146" y="2" rx="2" ry="2"/><rect class="c" x="146" y="18" rx="2" ry="2"/><rect class="c" x="146" y="34" rx="2" ry="2"/><rect class="c" x="146" y="50" rx="2" ry="2"/><rect class="c" x="146" y="66" rx="2" ry="2"/><rect class="c" x="146" y="82" rx="2" ry="2"/><rect class="c" x="146" y="98" rx="2" ry="2"/><rect class="c c2" x="162" y="2" rx="2" ry="2"/><rect class="c c3" x="162" y="18" rx="2" ry="2"/><rect class="c" x="162" y="34" rx="2" ry="2"/><rect class="c" x="162" y="50" rx="2" ry="2"/><rect class="c" x="162" y="66" rx="2" ry="2"/><rect class="c" x="162" y="82" rx="2" ry="2"/><rect class="c" x="162" y="98" rx="2" ry="2"/><rect class="c" x="178" y="2" rx="2" ry="2"/><rect class="c" x="178" y="18" rx="2" ry="2"/><rect class="c" x="178" y="34" rx="2" ry="2"/><rect class="c" x="178" y="50" rx="2" ry="2"/><rect class="c" x="178" y="66" rx="2" ry="2"/><rect class="c" x="178" y="82" rx="2" ry="2"/><rect class="c" x="178" y="98" rx="2" ry="2"/><rect class="c" x="194" y="2" rx="2" ry="2"/><rect class="c" x="194" y="18" rx="2" ry="2"/><rect class="c" x="194" y="34" rx="2" ry="2"/><rect class="c" x="194" y="50" rx="2" ry="2"/><rect class="c" x="194" y="66" rx="2" ry="2"/><rect class="c" x="194" y="82" rx="2" ry="2"/><rect class="c" x="194" y="98" rx="2" ry="2"/><rect class="c" x="210" y="2" rx="2" ry="2"/><rect class="c" x="210" y="18" rx="2" ry="2"/><rect class="c" x="210" y="34" rx="2" ry="2"/><rect class="c" x="210" y="50" rx="2" ry="2"/><rect class="c" x="210" y="66" rx="2" ry="2"/><rect class="c" x="210" y="82" rx="2" ry="2"/><rect class="c" x="210" y="98" rx="2" ry="2"/><rect class="c" x="226" y="2" rx="2" ry="2"/><rect class="c" x="226" y="18" rx="2" ry="2"/><rect class="c" x="226" y="34" rx="2" ry="2"/><rect class="c" x="226" y="50" rx="2" ry="2"/><rect class="c" x="226" y="66" rx="2" ry="2"/><rect class="c" x="226" y="82" rx="2" ry="2"/><rect class="c" x="226" y="98" rx="2" ry="2"/><rect class="c" x="242" y="2" rx="2" ry="2"/><rect class="c" x="242" y="18" rx="2" ry="2"/><rect class="c" x="242" y="34" rx="2" ry="2"/><rect class="c" x="242" y="50" rx="2" ry="2"/><rect class="c c4" x="242" y="66" rx="2" ry="2"/><rect class="c" x="242" y="82" rx="2" ry="2"/><rect class="c" x="242" y="98" rx="2" ry="2"/><rect class="c" x="258" y="2" rx="2" ry="2"/><rect class="c" x="258" y="18" rx="2" ry="2"/><rect class="c" x="258" y="34" rx="2" ry="2"/><rect class="c" x="258" y="50" rx="2" ry="2"/><rect class="c" x="258" y="66" rx="2" ry="2"/><rect class="c" x="258" y="82" rx="2" ry="2"/><rect class="c" x="258" y="98" rx="2" ry="2"/><rect class="c" x="274" y="2" rx="2" ry="2"/><rect class="c" x="274" y="18" rx="2" ry="2"/><rect class="c" x="274" y="34" rx="2" ry="2"/><rect class="c" x="274" y="50" rx="2" ry="2"/><rect class="c" x="274" y="66" rx="2" ry="2"/><rect class="c" x="274" y="82" rx="2" ry="2"/><rect class="c" x="274" y="98" rx="2" ry="2"/><rect class="c" x="290" y="2" rx="2" ry="2"/><rect class="c" x="290" y="18" rx="2" ry="2"/><rect class="c" x="290" y="34" rx="2" ry="2"/><rect class="c" x="290" y="50" rx="2" ry="2"/><rect class="c" x="290" y="66" rx="2" ry="2"/><rect class="c" x="290" y="82" rx="2" ry="2"/><rect class="c" x="290" y="98" rx="2" ry="2"/><rect class="c" x="306" y="2" rx="2" ry="2"/><rect class="c" x="306" y="18" rx="2" ry="2"/><rect class="c" x="306" y="34" rx="2" ry="2"/><rect class="c" x="306" y="50" rx="2" ry="2"/><rect class="c" x="306" y="66" rx="2" ry="2"/><rect class="c" x="306" y="82" rx="2" ry="2"/><rect class="c" x="306" y="98" rx="2" ry="2"/><rect class="c" x="322" y="2" rx="2" ry="2"/><rect class="c" x="322" y="18" rx="2" ry="2"/><rect class="c" x="322" y="34" rx="2" ry="2"/><rect class="c" x="322" y="50" rx="2" ry="2"/><rect class="c" x="322" y="66" rx="2" ry="2"/><rect class="c" x="322" y="82" rx="2" ry="2"/><rect class="c" x="322" y="98" rx="2" ry="2"/><rect class="c" x="338" y="2" rx="2" ry="2"/><rect class="c" x="338" y="18" rx="2" ry="2"/><rect class="c" x="338" y="34" rx="2" ry="2"/><rect class="c" x="338" y="50" rx="2" ry="2"/><rect class="c" x="338" y="66" rx="2" ry="2"/><rect class="c" x="338" y="82" rx="2" ry="2"/><rect class="c" x="338" y="98" rx="2" ry="2"/><rect class="c" x="354" y="2" rx="2" ry="2"/><rect class="c" x="354" y="18" rx="2" ry="2"/><rect class="c" x="354" y="34" rx="2" ry="2"/><rect class="c" x="354" y="50" rx="2" ry="2"/><rect class="c" x="354" y="66" rx="2" ry="2"/><rect class="c" x="354" y="82" rx="2" ry="2"/><rect class="c" x="354" y="98" rx="2" ry="2"/><rect class="c" x="370" y="2" rx="2" ry="2"/><rect class="c" x="370" y="18" rx="2" ry="2"/><rect class="c" x="370" y="34" rx="2" ry="2"/><rect class="c" x="370" y="50" rx="2" ry="2"/><rect class="c c5" x="370" y="66" rx="2" ry="2"/><rect class="c" x="370" y="82" rx="2" ry="2"/><rect class="c" x="370" y="98" rx="2" ry="2"/><rect class="c" x="386" y="2" rx="2" ry="2"/><rect class="c" x="386" y="18" rx="2" ry="2"/><rect class="c" x="386" y="34" rx="2" ry="2"/><rect class="c c6" x="386" y="50" rx="2" ry="2"/><rect class="c" x="386" y="66" rx="2" ry="2"/><rect class="c" x="386" y="82" rx="2" ry="2"/><rect class="c" x="386" y="98" rx="2" ry="2"/><rect class="c" x="402" y="2" rx="2" ry="2"/><rect class="c" x="402" y="18" rx="2" ry="2"/><rect class="c" x="402" y="34" rx="2" ry="2"/><rect class="c" x="402" y="50" rx="2" ry="2"/><rect class="c" x="402" y="66" rx="2" ry="2"/><rect class="c" x="402" y="82" rx="2" ry="2"/><rect class="c" x="402" y="98" rx="2" ry="2"/><rect class="c" x="418" y="2" rx="2" ry="2"/><rect class="c" x="418" y="18" rx="2" ry="2"/><rect class="c" x="418" y="34" rx="2" ry="2"/><rect class="c" x="418" y="50" rx="2" ry="2"/><rect class="c" x="418" y="66" rx="2" ry="2"/><rect class="c" x="418" y="82" rx="2" ry="2"/><rect class="c" x="418" y="98" rx="2" ry="2"/><rect class="c" x="434" y="2" rx="2" ry="2"/><rect class="c" x="434" y="18" rx="2" ry="2"/><rect class="c" x="434" y="34" rx="2" ry="2"/><rect class="c" x="434" y="50" rx="2" ry="2"/><rect class="c" x="434" y="66" rx="2" ry="2"/><rect class="c" x="434" y="82" rx="2" ry="2"/><rect class="c" x="434" y="98" rx="2" ry="2"/><rect class="c" x="450" y="2" rx="2" ry="2"/><rect class="c" x="450" y="18" rx="2" ry="2"/><rect class="c" x="450" y="34" rx="2" ry="2"/><rect class="c" x="450" y="50" rx="2" ry="2"/><rect class="c" x="450" y="66" rx="2" ry="2"/><rect class="c" x="450" y="82" rx="2" ry="2"/><rect class="c" x="450" y="98" rx="2" ry="2"/><rect class="c" x="466" y="2" rx="2" ry="2"/><rect class="c" x="466" y="18" rx="2" ry="2"/><rect class="c" x="466" y="34" rx="2" ry="2"/><rect class="c" x="466" y="50" rx="2" ry="2"/><rect class="c" x="466" y="66" rx="2" ry="2"/><rect class="c" x="466" y="82" rx="2" ry="2"/><rect class="c" x="466" y="98" rx="2" ry="2"/><rect class="c" x="482" y="2" rx="2" ry="2"/><rect class="c" x="482" y="18" rx="2" ry="2"/><rect class="c" x="482" y="34" rx="2" ry="2"/><rect class="c" x="482" y="50" rx="2" ry="2"/><rect class="c" x="482" y="66" rx="2" ry="2"/><rect class="c" x="482" y="82" rx="2" ry="2"/><rect class="c" x="482" y="98" rx="2" ry="2"/><rect class="c" x="498" y="2" rx="2" ry="2"/><rect class="c" x="498" y="18" rx="2" ry="2"/><rect class="c" x="498" y="34" rx="2" ry="2"/><rect class="c" x="498" y="50" rx="2" ry="2"/><rect class="c" x="498" y="66" rx="2" ry="2"/><rect class="c" x="498" y="82" rx="2" ry="2"/><rect class="c" x="498" y="98" rx="2" ry="2"/><rect class="c" x="514" y="2" rx="2" ry="2"/><rect class="c" x="514" y="18" rx="2" ry="2"/><rect class="c" x="514" y="34" rx="2" ry="2"/><rect class="c" x="514" y="50" rx="2" ry="2"/><rect class="c" x="514" y="66" rx="2" ry="2"/><rect class="c" x="514" y="82" rx="2" ry="2"/><rect class="c" x="514" y="98" rx="2" ry="2"/><rect class="c" x="530" y="2" rx="2" ry="2"/><rect class="c" x="530" y="18" rx="2" ry="2"/><rect class="c" x="530" y="34" rx="2" ry="2"/><rect class="c" x="530" y="50" rx="2" ry="2"/><rect class="c" x="530" y="66" rx="2" ry="2"/><rect class="c" x="530" y="82" rx="2" ry="2"/><rect class="c" x="530" y="98" rx="2" ry="2"/><rect class="c" x="546" y="2" rx="2" ry="2"/><rect class="c" x="546" y="18" rx="2" ry="2"/><rect class="c" x="546" y="34" rx="2" ry="2"/><rect class="c" x="546" y="50" rx="2" ry="2"/><rect class="c c7" x="546" y="66" rx="2" ry="2"/><rect class="c" x="546" y="82" rx="2" ry="2"/><rect class="c c8" x="546" y="98" rx="2" ry="2"/><rect class="c c9" x="562" y="2" rx="2" ry="2"/><rect class="c" x="562" y="18" rx="2" ry="2"/><rect class="c" x="562" y="34" rx="2" ry="2"/><rect class="c ca" x="562" y="50" rx="2" ry="2"/><rect class="c" x="562" y="66" rx="2" ry="2"/><rect class="c" x="562" y="82" rx="2" ry="2"/><rect class="c" x="562" y="98" rx="2" ry="2"/><rect class="c" x="578" y="2" rx="2" ry="2"/><rect class="c cb" x="578" y="18" rx="2" ry="2"/><rect class="c" x="578" y="34" rx="2" ry="2"/><rect class="c" x="578" y="50" rx="2" ry="2"/><rect class="c" x="578" y="66" rx="2" ry="2"/><rect class="c cc" x="578" y="82" rx="2" ry="2"/><rect class="c cd" x="578" y="98" rx="2" ry="2"/><rect class="c" x="594" y="2" rx="2" ry="2"/><rect class="c" x="594" y="18" rx="2" ry="2"/><rect class="c" x="594" y="34" rx="2" ry="2"/><rect class="c" x="594" y="50" rx="2" ry="2"/><rect class="c" x="594" y="66" rx="2" ry="2"/><rect class="c" x="594" y="82" rx="2" ry="2"/><rect class="c" x="594" y="98" rx="2" ry="2"/><rect class="c" x="610" y="2" rx="2" ry="2"/><rect class="c" x="610" y="18" rx="2" ry="2"/><rect class="c ce" x="610" y="34" rx="2" ry="2"/><rect class="c cf" x="610" y="50" rx="2" ry="2"/><rect class="c cg" x="610" y="66" rx="2" ry="2"/><rect class="c ch" x="610" y="82" rx="2" ry="2"/><rect class="c ci" x="610" y="98" rx="2" ry="2"/><rect class="c cj" x="626" y="2" rx="2" ry="2"/><rect class="c ck" x="626" y="18" rx="2" ry="2"/><rect class="c cl" x="626" y="34" rx="2" ry="2"/><rect class="c cm" x="626" y="50" rx="2" ry="2"/><rect class="c cn" x="626" y="66" rx="2" ry="2"/><rect class="c co" x="626" y="82" rx="2" ry="2"/><rect class="c cp" x="626" y="98" rx="2" ry="2"/><rect class="c cq" x="642" y="2" rx="2" ry="2"/><rect class="c cr" x="642" y="18" rx="2" ry="2"/><rect class="c cs" x="642" y="34" rx="2" ry="2"/><rect class="c ct" x="642" y="50" rx="2" ry="2"/><rect class="c cu" x="642" y="66" rx="2" ry="2"/><rect class="c cv" x="642" y="82" rx="2" ry="2"/><rect class="c cw" x="642" y="98" rx="2" ry="2"/><rect class="c cx" x="658" y="2" rx="2" ry="2"/><rect class="c cy" x="658" y="18" rx="2" ry="2"/><rect class="c cz" x="658" y="34" rx="2" ry="2"/><rect class="c c10" x="658" y="50" rx="2" ry="2"/><rect class="c c11" x="658" y="66" rx="2" ry="2"/><rect class="c c12" x="658" y="82" rx="2" ry="2"/><rect class="c c13" x="658" y="98" rx="2" ry="2"/><rect class="c c14" x="674" y="2" rx="2" ry="2"/><rect class="c c15" x="674" y="18" rx="2" ry="2"/><rect class="c c16" x="674" y="34" rx="2" ry="2"/><rect class="c c17" x="674" y="50" rx="2" ry="2"/><rect class="c c18" x="674" y="66" rx="2" ry="2"/><rect class="c c19" x="674" y="82" rx="2" ry="2"/><rect class="c c1a" x="674" y="98" rx="2" ry="2"/><rect class="c c1b" x="690" y="2" rx="2" ry="2"/><rect class="c c1c" x="690" y="18" rx="2" ry="2"/><rect class="c c1d" x="690" y="34" rx="2" ry="2"/><rect class="c c1e" x="690" y="50" rx="2" ry="2"/><rect class="c c1f" x="690" y="66" rx="2" ry="2"/><rect class="c c1g" x="690" y="82" rx="2" ry="2"/><rect class="c c1h" x="690" y="98" rx="2" ry="2"/><rect class="c c1i" x="706" y="2" rx="2" ry="2"/><rect class="c c1j" x="706" y="18" rx="2" ry="2"/><rect class="c c1k" x="706" y="34" rx="2" ry="2"/><rect class="c c1l" x="706" y="50" rx="2" ry="2"/><rect class="c c1m" x="706" y="66" rx="2" ry="2"/><rect class="c c1n" x="706" y="82" rx="2" ry="2"/><rect class="c c1o" x="706" y="98" rx="2" ry="2"/><rect class="c c1p" x="722" y="2" rx="2" ry="2"/><rect class="c c1q" x="722" y="18" rx="2" ry="2"/><rect class="c c1r" x="722" y="34" rx="2" ry="2"/><rect class="c c1s" x="722" y="50" rx="2" ry="2"/><rect class="c c1t" x="722" y="66" rx="2" ry="2"/><rect class="c c1u" x="722" y="82" rx="2" ry="2"/><rect class="c c1v" x="722" y="98" rx="2" ry="2"/><rect class="c c1w" x="738" y="2" rx="2" ry="2"/><rect class="c c1x" x="738" y="18" rx="2" ry="2"/><rect class="c c1y" x="738" y="34" rx="2" ry="2"/><rect class="c c1z" x="738" y="50" rx="2" ry="2"/><rect class="c c20" x="738" y="66" rx="2" ry="2"/><rect class="c c21" x="738" y="82" rx="2" ry="2"/><rect class="c c22" x="738" y="98" rx="2" ry="2"/><rect class="c c23" x="754" y="2" rx="2" ry="2"/><rect class="c c24" x="754" y="18" rx="2" ry="2"/><rect class="c c25" x="754" y="34" rx="2" ry="2"/><rect class="c c26" x="754" y="50" rx="2" ry="2"/><rect class="c c27" x="754" y="66" rx="2" ry="2"/><rect class="c c28" x="754" y="82" rx="2" ry="2"/><rect class="c c29" x="754" y="98" rx="2" ry="2"/><rect class="c c2a" x="770" y="2" rx="2" ry="2"/><rect class="c c2b" x="770" y="18" rx="2" ry="2"/><rect class="c c2c" x="770" y="34" rx="2" ry="2"/><rect class="c c2d" x="770" y="50" rx="2" ry="2"/><rect class="c c2e" x="770" y="66" rx="2" ry="2"/><rect class="c c2f" x="770" y="82" rx="2" ry="2"/><rect class="c c2g" x="770" y="98" rx="2" ry="2"/><rect class="c c2h" x="786" y="2" rx="2" ry="2"/><rect class="c c2i" x="786" y="18" rx="2" ry="2"/><rect class="c c2j" x="786" y="34" rx="2" ry="2"/><rect class="c c2k" x="786" y="50" rx="2" ry="2"/><rect class="c c2l" x="786" y="66" rx="2" ry="2"/><rect class="c c2m" x="786" y="82" rx="2" ry="2"/><rect class="c c2n" x="786" y="98" rx="2" ry="2"/><rect class="c c2o" x="802" y="2" rx="2" ry="2"/><rect class="c c2p" x="802" y="18" rx="2" ry="2"/><rect class="c c2q" x="802" y="34" rx="2" ry="2"/><rect class="c c2r" x="802" y="50" rx="2" ry="2"/><rect class="c c2s" x="802" y="66" rx="2" ry="2"/><rect class="c c2t" x="802" y="82" rx="2" ry="2"/><rect class="c c2u" x="802" y="98" rx="2" ry="2"/><rect class="c c2v" x="818" y="2" rx="2" ry="2"/><rect class="c c2w" x="818" y="18" rx="2" ry="2"/><rect class="c c2x" x="818" y="34" rx="2" ry="2"/><rect class="c c2y" x="818" y="50" rx="2" ry="2"/><rect class="c c2z" x="818" y="66" rx="2" ry="2"/><rect class="c c30" x="818" y="82" rx="2" ry="2"/><rect class="c c31" x="818" y="98" rx="2" ry="2"/><rect class="c c32" x="834" y="2" rx="2" ry="2"/><rect class="c c33" x="834" y="18" rx="2" ry="2"/><rect class="c c34" x="834" y="34" rx="2" ry="2"/><rect class="c c35" x="834" y="50" rx="2" ry="2"/><rect class="c c36" x="834" y="66" rx="2" ry="2"/><rect class="c c37" x="834" y="82" rx="2" ry="2"/><rect class="c c38" x="834" y="98" rx="2" ry="2"/><rect class="u u0" height="12" width="65.8" x="0.0" y="144"/><rect class="u u1" height="12" width="399.2" x="65.2" y="144"/><rect class="u u2" height="12" width="384.7" x="463.9" y="144"/><rect class="s s0" x="0.8" y="0.8" width="14.4" height="14.4" rx="4.5" ry="4.5"/><rect class="s s1" x="1.8" y="1.8" width="12.3" height="12.3" rx="4.1" ry="4.1"/><rect class="s s2" x="2.6" y="2.6" width="10.8" height="10.8" rx="3.6" ry="3.6"/><rect class="s s3" x="3.0" y="3.0" width="9.9" height="9.9" rx="3.3" ry="3.3"/></svg>