<svg viewBox="-16 -32 880 192" width="880" height="192" xmlns="http://www.w3.org/2000/svg"><desc>Generated with https://github.com/Platane/snk</desc><style>:root{--cb:#1b1f230a;--cs:purple;--ce:#ebedf0;--c0:#ebedf0;--c1:#9be9a8;--c2:#40c463;--c3:#30a14e;--c4:#216e39}.c{shape-rendering:geometricPrecision;fill:var(--ce);stroke-width:1px;stroke:var(--cb);animation:none 30700ms linear infinite;width:12px;height:12px}@keyframes c0{5.85%{fill:var(--c1)}5.87%,100%{fill:var(--ce)}}.c.c0{fill:var(--c1);animation-name:c0}@keyframes c1{53.08%{fill:var(--c2)}53.1%,100%{fill:var(--ce)}}.c.c1{fill:var(--c2);animation-name:c1}@keyframes c2{3.57%{fill:var(--c1)}3.59%,100%{fill:var(--ce)}}.c.c2{fill:var(--c1);animation-name:c2}@keyframes c3{3.9%{fill:var(--c1)}3.92%,100%{fill:var(--ce)}}.c.c3{fill:var(--c1);animation-name:c3}@keyframes c4{50.15%{fill:var(--c2)}50.17%,100%{fill:var(--ce)}}.c.c4{fill:var(--c2);animation-name:c4}@keyframes c5{58.62%{fill:var(--c4)}58.64%,100%{fill:var(--ce)}}.c.c5{fill:var(--c4);animation-name:c5}@keyframes c6{11.72%{fill:var(--c1)}11.74%,100%{fill:var(--ce)}}.c.c6{fill:var(--c1);animation-name:c6}@keyframes c7{15.95%{fill:var(--c1)}15.97%,100%{fill:var(--ce)}}.c.c7{fill:var(--c1);animation-name:c7}@keyframes c8{43.31%{fill:var(--c2)}43.33%,100%{fill:var(--ce)}}.c.c8{fill:var(--c2);animation-name:c8}@keyframes c9{87.94%{fill:var(--c4)}87.96%,100%{fill:var(--ce)}}.c.c9{fill:var(--c4);animation-name:c9}@keyframes ca{15.3%{fill:var(--c1)}15.32%,100%{fill:var(--ce)}}.c.ca{fill:var(--c1);animation-name:ca}@keyframes cb{19.53%{fill:var(--c1)}19.55%,100%{fill:var(--ce)}}.c.cb{fill:var(--c1);animation-name:cb}@keyframes cc{16.93%{fill:var(--c1)}16.95%,100%{fill:var(--ce)}}.c.cc{fill:var(--c1);animation-name:cc}@keyframes cd{17.25%{fill:var(--c1)}17.27%,100%{fill:var(--ce)}}.c.cd{fill:var(--c1);animation-name:cd}@keyframes ce{64.16%{fill:var(--c4)}64.18%,100%{fill:var(--ce)}}.c.ce{fill:var(--c4);animation-name:ce}@keyframes cf{63.83%{fill:var(--c4)}63.85%,100%{fill:var(--ce)}}.c.cf{fill:var(--c4);animation-name:cf}@keyframes cg{40.71%{fill:var(--c2)}40.73%,100%{fill:var(--ce)}}.c.cg{fill:var(--c2);animation-name:cg}@keyframes ch{40.38%{fill:var(--c2)}40.4%,100%{fill:var(--ce)}}.c.ch{fill:var(--c2);animation-name:ch}@keyframes ci{42.01%{fill:var(--c2)}42.03%,100%{fill:var(--ce)}}.c.ci{fill:var(--c2);animation-name:ci}@keyframes cj{20.84%{fill:var(--c2)}20.86%,100%{fill:var(--ce)}}.c.cj{fill:var(--c2);animation-name:cj}@keyframes ck{30.28%{fill:var(--c2)}30.3%,100%{fill:var(--ce)}}.c.ck{fill:var(--c2);animation-name:ck}@keyframes cl{29.96%{fill:var(--c2)}29.98%,100%{fill:var(--ce)}}.c.cl{fill:var(--c2);animation-name:cl}@keyframes cm{32.24%{fill:var(--c2)}32.26%,100%{fill:var(--ce)}}.c.cm{fill:var(--c2);animation-name:cm}@keyframes cn{32.56%{fill:var(--c2)}32.58%,100%{fill:var(--ce)}}.c.cn{fill:var(--c2);animation-name:cn}@keyframes co{40.06%{fill:var(--c2)}40.08%,100%{fill:var(--ce)}}.c.co{fill:var(--c2);animation-name:co}@keyframes cp{41.68%{fill:var(--c2)}41.7%,100%{fill:var(--ce)}}.c.cp{fill:var(--c2);animation-name:cp}@keyframes cq{21.16%{fill:var(--c2)}21.18%,100%{fill:var(--ce)}}.c.cq{fill:var(--c2);animation-name:cq}@keyframes cr{65.14%{fill:var(--c4)}65.16%,100%{fill:var(--ce)}}.c.cr{fill:var(--c4);animation-name:cr}@keyframes cs{29.63%{fill:var(--c2)}29.65%,100%{fill:var(--ce)}}.c.cs{fill:var(--c2);animation-name:cs}@keyframes ct{29.31%{fill:var(--c2)}29.33%,100%{fill:var(--ce)}}.c.ct{fill:var(--c2);animation-name:ct}@keyframes cu{32.89%{fill:var(--c2)}32.91%,100%{fill:var(--ce)}}.c.cu{fill:var(--c2);animation-name:cu}@keyframes cv{39.73%{fill:var(--c2)}39.75%,100%{fill:var(--ce)}}.c.cv{fill:var(--c2);animation-name:cv}@keyframes cw{39.4%{fill:var(--c2)}39.42%,100%{fill:var(--ce)}}.c.cw{fill:var(--c2);animation-name:cw}@keyframes cx{21.49%{fill:var(--c2)}21.51%,100%{fill:var(--ce)}}.c.cx{fill:var(--c2);animation-name:cx}@keyframes cy{25.72%{fill:var(--c2)}25.74%,100%{fill:var(--ce)}}.c.cy{fill:var(--c2);animation-name:cy}@keyframes cz{26.05%{fill:var(--c2)}26.07%,100%{fill:var(--ce)}}.c.cz{fill:var(--c2);animation-name:cz}@keyframes c10{28.98%{fill:var(--c2)}29%,100%{fill:var(--ce)}}.c.c10{fill:var(--c2);animation-name:c10}@keyframes c11{33.21%{fill:var(--c2)}33.23%,100%{fill:var(--ce)}}.c.c11{fill:var(--c2);animation-name:c11}@keyframes c12{33.54%{fill:var(--c2)}33.56%,100%{fill:var(--ce)}}.c.c12{fill:var(--c2);animation-name:c12}@keyframes c13{39.08%{fill:var(--c2)}39.1%,100%{fill:var(--ce)}}.c.c13{fill:var(--c2);animation-name:c13}@keyframes c14{21.81%{fill:var(--c2)}21.83%,100%{fill:var(--ce)}}.c.c14{fill:var(--c2);animation-name:c14}@keyframes c15{25.4%{fill:var(--c2)}25.42%,100%{fill:var(--ce)}}.c.c15{fill:var(--c2);animation-name:c15}@keyframes c16{26.37%{fill:var(--c2)}26.39%,100%{fill:var(--ce)}}.c.c16{fill:var(--c2);animation-name:c16}@keyframes c17{28.65%{fill:var(--c2)}28.67%,100%{fill:var(--ce)}}.c.c17{fill:var(--c2);animation-name:c17}@keyframes c18{66.77%{fill:var(--c4)}66.79%,100%{fill:var(--ce)}}.c.c18{fill:var(--c4);animation-name:c18}@keyframes c19{33.87%{fill:var(--c2)}33.89%,100%{fill:var(--ce)}}.c.c19{fill:var(--c2);animation-name:c19}@keyframes c1a{38.75%{fill:var(--c2)}38.77%,100%{fill:var(--ce)}}.c.c1a{fill:var(--c2);animation-name:c1a}@keyframes c1b{22.14%{fill:var(--c2)}22.16%,100%{fill:var(--ce)}}.c.c1b{fill:var(--c2);animation-name:c1b}@keyframes c1c{25.07%{fill:var(--c2)}25.09%,100%{fill:var(--ce)}}.c.c1c{fill:var(--c2);animation-name:c1c}@keyframes c1d{26.7%{fill:var(--c2)}26.72%,100%{fill:var(--ce)}}.c.c1d{fill:var(--c2);animation-name:c1d}@keyframes c1e{28.33%{fill:var(--c2)}28.35%,100%{fill:var(--ce)}}.c.c1e{fill:var(--c2);animation-name:c1e}@keyframes c1f{35.82%{fill:var(--c2)}35.84%,100%{fill:var(--ce)}}.c.c1f{fill:var(--c2);animation-name:c1f}@keyframes c1g{34.19%{fill:var(--c2)}34.21%,100%{fill:var(--ce)}}.c.c1g{fill:var(--c2);animation-name:c1g}@keyframes c1h{36.47%{fill:var(--c2)}36.49%,100%{fill:var(--ce)}}.c.c1h{fill:var(--c2);animation-name:c1h}@keyframes c1i{22.47%{fill:var(--c2)}22.49%,100%{fill:var(--ce)}}.c.c1i{fill:var(--c2);animation-name:c1i}@keyframes c1j{24.75%{fill:var(--c2)}24.77%,100%{fill:var(--ce)}}.c.c1j{fill:var(--c2);animation-name:c1j}@keyframes c1k{27.03%{fill:var(--c2)}27.05%,100%{fill:var(--ce)}}.c.c1k{fill:var(--c2);animation-name:c1k}@keyframes c1l{28%{fill:var(--c2)}28.02%,100%{fill:var(--ce)}}.c.c1l{fill:var(--c2);animation-name:c1l}@keyframes c1m{35.49%{fill:var(--c2)}35.51%,100%{fill:var(--ce)}}.c.c1m{fill:var(--c2);animation-name:c1m}@keyframes c1n{34.52%{fill:var(--c2)}34.54%,100%{fill:var(--ce)}}.c.c1n{fill:var(--c2);animation-name:c1n}@keyframes c1o{36.8%{fill:var(--c2)}36.82%,100%{fill:var(--ce)}}.c.c1o{fill:var(--c2);animation-name:c1o}@keyframes c1p{22.79%{fill:var(--c2)}22.81%,100%{fill:var(--ce)}}.c.c1p{fill:var(--c2);animation-name:c1p}@keyframes c1q{24.42%{fill:var(--c2)}24.44%,100%{fill:var(--ce)}}.c.c1q{fill:var(--c2);animation-name:c1q}@keyframes c1r{27.35%{fill:var(--c2)}27.37%,100%{fill:var(--ce)}}.c.c1r{fill:var(--c2);animation-name:c1r}@keyframes c1s{27.68%{fill:var(--c2)}27.7%,100%{fill:var(--ce)}}.c.c1s{fill:var(--c2);animation-name:c1s}@keyframes c1t{35.17%{fill:var(--c2)}35.19%,100%{fill:var(--ce)}}.c.c1t{fill:var(--c2);animation-name:c1t}@keyframes c1u{34.84%{fill:var(--c2)}34.86%,100%{fill:var(--ce)}}.c.c1u{fill:var(--c2);animation-name:c1u}@keyframes c1v{37.12%{fill:var(--c2)}37.14%,100%{fill:var(--ce)}}.c.c1v{fill:var(--c2);animation-name:c1v}@keyframes c1w{23.12%{fill:var(--c2)}23.14%,100%{fill:var(--ce)}}.c.c1w{fill:var(--c2);animation-name:c1w}@keyframes c1x{75.56%{fill:var(--c4)}75.58%,100%{fill:var(--ce)}}.c.c1x{fill:var(--c4);animation-name:c1x}@keyframes c1y{75.23%{fill:var(--c4)}75.25%,100%{fill:var(--ce)}}.c.c1y{fill:var(--c4);animation-name:c1y}@keyframes c1z{83.38%{fill:var(--c4)}83.4%,100%{fill:var(--ce)}}.c.c1z{fill:var(--c4);animation-name:c1z}@keyframes c20{68.07%{fill:var(--c4)}68.09%,100%{fill:var(--ce)}}.c.c20{fill:var(--c4);animation-name:c20}@keyframes c21{80.77%{fill:var(--c4)}80.79%,100%{fill:var(--ce)}}.c.c21{fill:var(--c4);animation-name:c21}@keyframes c22{81.1%{fill:var(--c4)}81.12%,100%{fill:var(--ce)}}.c.c22{fill:var(--c4);animation-name:c22}@keyframes c23{72.3%{fill:var(--c4)}72.32%,100%{fill:var(--ce)}}.c.c23{fill:var(--c4);animation-name:c23}@keyframes c24{72.63%{fill:var(--c4)}72.65%,100%{fill:var(--ce)}}.c.c24{fill:var(--c4);animation-name:c24}@keyframes c25{74.91%{fill:var(--c4)}74.93%,100%{fill:var(--ce)}}.c.c25{fill:var(--c4);animation-name:c25}@keyframes c26{76.54%{fill:var(--c4)}76.56%,100%{fill:var(--ce)}}.c.c26{fill:var(--c4);animation-name:c26}@keyframes c27{68.39%{fill:var(--c4)}68.41%,100%{fill:var(--ce)}}.c.c27{fill:var(--c4);animation-name:c27}@keyframes c28{80.45%{fill:var(--c4)}80.47%,100%{fill:var(--ce)}}.c.c28{fill:var(--c4);animation-name:c28}@keyframes c29{81.42%{fill:var(--c4)}81.44%,100%{fill:var(--ce)}}.c.c29{fill:var(--c4);animation-name:c29}@keyframes c2a{71.98%{fill:var(--c4)}72%,100%{fill:var(--ce)}}.c.c2a{fill:var(--c4);animation-name:c2a}@keyframes c2b{72.95%{fill:var(--c4)}72.97%,100%{fill:var(--ce)}}.c.c2b{fill:var(--c4);animation-name:c2b}@keyframes c2c{74.58%{fill:var(--c4)}74.6%,100%{fill:var(--ce)}}.c.c2c{fill:var(--c4);animation-name:c2c}@keyframes c2d{76.86%{fill:var(--c4)}76.88%,100%{fill:var(--ce)}}.c.c2d{fill:var(--c4);animation-name:c2d}@keyframes c2e{68.72%{fill:var(--c4)}68.74%,100%{fill:var(--ce)}}.c.c2e{fill:var(--c4);animation-name:c2e}@keyframes c2f{80.12%{fill:var(--c4)}80.14%,100%{fill:var(--ce)}}.c.c2f{fill:var(--c4);animation-name:c2f}@keyframes c2g{81.75%{fill:var(--c4)}81.77%,100%{fill:var(--ce)}}.c.c2g{fill:var(--c4);animation-name:c2g}@keyframes c2h{71.65%{fill:var(--c4)}71.67%,100%{fill:var(--ce)}}.c.c2h{fill:var(--c4);animation-name:c2h}@keyframes c2i{73.28%{fill:var(--c4)}73.3%,100%{fill:var(--ce)}}.c.c2i{fill:var(--c4);animation-name:c2i}@keyframes c2j{74.26%{fill:var(--c4)}74.28%,100%{fill:var(--ce)}}.c.c2j{fill:var(--c4);animation-name:c2j}@keyframes c2k{77.19%{fill:var(--c4)}77.21%,100%{fill:var(--ce)}}.c.c2k{fill:var(--c4);animation-name:c2k}@keyframes c2l{69.05%{fill:var(--c4)}69.07%,100%{fill:var(--ce)}}.c.c2l{fill:var(--c4);animation-name:c2l}@keyframes c2m{79.79%{fill:var(--c4)}79.81%,100%{fill:var(--ce)}}.c.c2m{fill:var(--c4);animation-name:c2m}@keyframes c2n{79.47%{fill:var(--c4)}79.49%,100%{fill:var(--ce)}}.c.c2n{fill:var(--c4);animation-name:c2n}@keyframes c2o{71.33%{fill:var(--c4)}71.35%,100%{fill:var(--ce)}}.c.c2o{fill:var(--c4);animation-name:c2o}@keyframes c2p{73.61%{fill:var(--c4)}73.63%,100%{fill:var(--ce)}}.c.c2p{fill:var(--c4);animation-name:c2p}@keyframes c2q{73.93%{fill:var(--c4)}73.95%,100%{fill:var(--ce)}}.c.c2q{fill:var(--c4);animation-name:c2q}@keyframes c2r{77.51%{fill:var(--c4)}77.53%,100%{fill:var(--ce)}}.c.c2r{fill:var(--c4);animation-name:c2r}@keyframes c2s{69.37%{fill:var(--c4)}69.39%,100%{fill:var(--ce)}}.c.c2s{fill:var(--c4);animation-name:c2s}@keyframes c2t{78.17%{fill:var(--c4)}78.19%,100%{fill:var(--ce)}}.c.c2t{fill:var(--c4);animation-name:c2t}@keyframes c2u{79.14%{fill:var(--c4)}79.16%,100%{fill:var(--ce)}}.c.c2u{fill:var(--c4);animation-name:c2u}@keyframes c2v{71%{fill:var(--c4)}71.02%,100%{fill:var(--ce)}}.c.c2v{fill:var(--c4);animation-name:c2v}@keyframes c2w{70.67%{fill:var(--c4)}70.69%,100%{fill:var(--ce)}}.c.c2w{fill:var(--c4);animation-name:c2w}@keyframes c2x{70.35%{fill:var(--c4)}70.37%,100%{fill:var(--ce)}}.c.c2x{fill:var(--c4);animation-name:c2x}@keyframes c2y{70.02%{fill:var(--c4)}70.04%,100%{fill:var(--ce)}}.c.c2y{fill:var(--c4);animation-name:c2y}@keyframes c2z{69.7%{fill:var(--c4)}69.72%,100%{fill:var(--ce)}}.c.c2z{fill:var(--c4);animation-name:c2z}@keyframes c30{78.49%{fill:var(--c4)}78.51%,100%{fill:var(--ce)}}.c.c30{fill:var(--c4);animation-name:c30}@keyframes c31{78.82%{fill:var(--c4)}78.84%,100%{fill:var(--ce)}}.c.c31{fill:var(--c4);animation-name:c31}.u{transform-origin:0 0;transform:scale(0,1);animation:none linear 30700ms infinite}@keyframes u0{3.57%{transform:scale(0.000,1)}3.59%,3.9%{transform:scale(0.111,1)}3.92%,5.85%{transform:scale(0.222,1)}5.87%,11.72%{transform:scale(0.333,1)}11.74%,15.3%{transform:scale(0.444,1)}15.32%,15.95%{transform:scale(0.556,1)}15.97%,16.93%{transform:scale(0.667,1)}16.95%,17.25%{transform:scale(0.778,1)}17.27%,19.53%{transform:scale(0.889,1)}19.55%,100%{transform:scale(1.000,1)}}.u.u0{fill:var(--c1);animation-name:u0;transform-origin:0.0px 0}@keyframes u1{20.84%{transform:scale(0.000,1)}20.86%,21.16%{transform:scale(0.019,1)}21.18%,21.49%{transform:scale(0.037,1)}21.51%,21.81%{transform:scale(0.056,1)}21.83%,22.14%{transform:scale(0.074,1)}22.16%,22.47%{transform:scale(0.093,1)}22.49%,22.79%{transform:scale(0.111,1)}22.81%,23.12%{transform:scale(0.130,1)}23.14%,24.42%{transform:scale(0.148,1)}24.44%,24.75%{transform:scale(0.167,1)}24.77%,25.07%{transform:scale(0.185,1)}25.09%,25.4%{transform:scale(0.204,1)}25.42%,25.72%{transform:scale(0.222,1)}25.74%,26.05%{transform:scale(0.241,1)}26.07%,26.37%{transform:scale(0.259,1)}26.39%,26.7%{transform:scale(0.278,1)}26.72%,27.03%{transform:scale(0.296,1)}27.05%,27.35%{transform:scale(0.315,1)}27.37%,27.68%{transform:scale(0.333,1)}27.7%,28%{transform:scale(0.352,1)}28.02%,28.33%{transform:scale(0.370,1)}28.35%,28.65%{transform:scale(0.389,1)}28.67%,28.98%{transform:scale(0.407,1)}29%,29.31%{transform:scale(0.426,1)}29.33%,29.63%{transform:scale(0.444,1)}29.65%,29.96%{transform:scale(0.463,1)}29.98%,30.28%{transform:scale(0.481,1)}30.3%,32.24%{transform:scale(0.500,1)}32.26%,32.56%{transform:scale(0.519,1)}32.58%,32.89%{transform:scale(0.537,1)}32.91%,33.21%{transform:scale(0.556,1)}33.23%,33.54%{transform:scale(0.574,1)}33.56%,33.87%{transform:scale(0.593,1)}33.89%,34.19%{transform:scale(0.611,1)}34.21%,34.52%{transform:scale(0.630,1)}34.54%,34.84%{transform:scale(0.648,1)}34.86%,35.17%{transform:scale(0.667,1)}35.19%,35.49%{transform:scale(0.685,1)}35.51%,35.82%{transform:scale(0.704,1)}35.84%,36.47%{transform:scale(0.722,1)}36.49%,36.8%{transform:scale(0.741,1)}36.82%,37.12%{transform:scale(0.759,1)}37.14%,38.75%{transform:scale(0.778,1)}38.77%,39.08%{transform:scale(0.796,1)}39.1%,39.4%{transform:scale(0.815,1)}39.42%,39.73%{transform:scale(0.833,1)}39.75%,40.06%{transform:scale(0.852,1)}40.08%,40.38%{transform:scale(0.870,1)}40.4%,40.71%{transform:scale(0.889,1)}40.73%,41.68%{transform:scale(0.907,1)}41.7%,42.01%{transform:scale(0.926,1)}42.03%,43.31%{transform:scale(0.944,1)}43.33%,50.15%{transform:scale(0.963,1)}50.17%,53.08%{transform:scale(0.981,1)}53.1%,100%{transform:scale(1.000,1)}}.u.u1{fill:var(--c2);animation-name:u1;transform-origin:69.4px 0}@keyframes u2{58.62%{transform:scale(0.000,1)}58.64%,63.83%{transform:scale(0.021,1)}63.85%,64.16%{transform:scale(0.043,1)}64.18%,65.14%{transform:scale(0.064,1)}65.16%,66.77%{transform:scale(0.085,1)}66.79%,68.07%{transform:scale(0.106,1)}68.09%,68.39%{transform:scale(0.128,1)}68.41%,68.72%{transform:scale(0.149,1)}68.74%,69.05%{transform:scale(0.170,1)}69.07%,69.37%{transform:scale(0.191,1)}69.39%,69.7%{transform:scale(0.213,1)}69.72%,70.02%{transform:scale(0.234,1)}70.04%,70.35%{transform:scale(0.255,1)}70.37%,70.67%{transform:scale(0.277,1)}70.69%,71%{transform:scale(0.298,1)}71.02%,71.33%{transform:scale(0.319,1)}71.35%,71.65%{transform:scale(0.340,1)}71.67%,71.98%{transform:scale(0.362,1)}72%,72.3%{transform:scale(0.383,1)}72.32%,72.63%{transform:scale(0.404,1)}72.65%,72.95%{transform:scale(0.426,1)}72.97%,73.28%{transform:scale(0.447,1)}73.3%,73.61%{transform:scale(0.468,1)}73.63%,73.93%{transform:scale(0.489,1)}73.95%,74.26%{transform:scale(0.511,1)}74.28%,74.58%{transform:scale(0.532,1)}74.6%,74.91%{transform:scale(0.553,1)}74.93%,75.23%{transform:scale(0.574,1)}75.25%,75.56%{transform:scale(0.596,1)}75.58%,76.54%{transform:scale(0.617,1)}76.56%,76.86%{transform:scale(0.638,1)}76.88%,77.19%{transform:scale(0.660,1)}77.21%,77.51%{transform:scale(0.681,1)}77.53%,78.17%{transform:scale(0.702,1)}78.19%,78.49%{transform:scale(0.723,1)}78.51%,78.82%{transform:scale(0.745,1)}78.84%,79.14%{transform:scale(0.766,1)}79.16%,79.47%{transform:scale(0.787,1)}79.49%,79.79%{transform:scale(0.809,1)}79.81%,80.12%{transform:scale(0.830,1)}80.14%,80.45%{transform:scale(0.851,1)}80.47%,80.77%{transform:scale(0.872,1)}80.79%,81.1%{transform:scale(0.894,1)}81.12%,81.42%{transform:scale(0.915,1)}81.44%,81.75%{transform:scale(0.936,1)}81.77%,83.38%{transform:scale(0.957,1)}83.4%,87.94%{transform:scale(0.979,1)}87.96%,100%{transform:scale(1.000,1)}}.u.u2{fill:var(--c4);animation-name:u2;transform-origin:485.7px 0}.s{shape-rendering:geometricPrecision;fill:var(--cs);animation:none linear 30700ms infinite}@keyframes s0{0%,99.67%{transform:translate(0px,-16px)}0.33%{transform:translate(0px,0px)}3.58%{transform:translate(160px,0px)}3.91%{transform:translate(160px,16px)}4.56%{transform:translate(128px,16px)}5.86%{transform:translate(128px,80px)}11.07%{transform:translate(384px,80px)}11.73%{transform:translate(384px,48px)}15.31%{transform:translate(560px,48px)}15.64%{transform:translate(560px,64px)}15.96%{transform:translate(544px,64px)}16.29%,43.65%{transform:translate(544px,80px)}16.94%{transform:translate(576px,80px)}17.26%{transform:translate(576px,96px)}17.59%{transform:translate(592px,96px)}19.22%{transform:translate(592px,16px)}19.54%{transform:translate(576px,16px)}19.87%{transform:translate(576px,0px)}23.13%,84.36%{transform:translate(736px,0px)}23.45%{transform:translate(736px,-16px)}23.78%{transform:translate(720px,-16px)}24.43%{transform:translate(720px,16px)}25.73%{transform:translate(656px,16px)}26.06%{transform:translate(656px,32px)}27.36%{transform:translate(720px,32px)}27.69%{transform:translate(720px,48px)}29.32%{transform:translate(640px,48px)}29.64%,64.82%{transform:translate(640px,32px)}29.97%{transform:translate(624px,32px)}30.62%{transform:translate(624px,0px)}30.94%{transform:translate(608px,0px)}31.27%{transform:translate(608px,16px)}31.6%{transform:translate(624px,16px)}32.57%,41.04%{transform:translate(624px,64px)}33.22%{transform:translate(656px,64px)}33.55%{transform:translate(656px,80px)}34.85%,37.46%{transform:translate(720px,80px)}35.18%{transform:translate(720px,64px)}35.83%{transform:translate(688px,64px)}36.48%{transform:translate(688px,96px)}37.13%{transform:translate(720px,96px)}38.44%{transform:translate(672px,80px)}38.76%{transform:translate(672px,96px)}39.41%{transform:translate(640px,96px)}39.74%{transform:translate(640px,80px)}40.39%{transform:translate(608px,80px)}40.72%,63.52%{transform:translate(608px,64px)}41.69%{transform:translate(624px,96px)}43.32%{transform:translate(544px,96px)}47.56%{transform:translate(352px,80px)}47.88%{transform:translate(352px,64px)}52.44%{transform:translate(128px,64px)}53.09%{transform:translate(128px,96px)}57.98%{transform:translate(368px,96px)}58.63%{transform:translate(368px,64px)}64.17%{transform:translate(608px,32px)}65.15%{transform:translate(640px,16px)}65.8%{transform:translate(672px,16px)}66.78%{transform:translate(672px,64px)}69.71%{transform:translate(816px,64px)}71.01%{transform:translate(816px,0px)}72.31%{transform:translate(752px,0px)}72.64%,75.9%{transform:translate(752px,16px)}73.62%{transform:translate(800px,16px)}73.94%{transform:translate(800px,32px)}75.24%{transform:translate(736px,32px)}75.57%{transform:translate(736px,16px)}76.55%{transform:translate(752px,48px)}77.52%{transform:translate(800px,48px)}78.18%{transform:translate(800px,80px)}78.5%{transform:translate(816px,80px)}78.83%{transform:translate(816px,96px)}79.48%{transform:translate(784px,96px)}79.8%{transform:translate(784px,80px)}80.78%{transform:translate(736px,80px)}81.11%{transform:translate(736px,96px)}81.76%{transform:translate(768px,96px)}82.74%{transform:translate(768px,48px)}83.39%{transform:translate(736px,48px)}97.39%{transform:translate(96px,0px)}97.72%{transform:translate(96px,-16px)}}.s.s0{transform:translate(0px,-16px);animation-name:s0}@keyframes s1{0%,99.67%{transform:translate(16px,-16px)}0.33%{transform:translate(0px,-16px)}0.65%{transform:translate(0px,0px)}3.91%{transform:translate(160px,0px)}4.23%{transform:translate(160px,16px)}4.89%{transform:translate(128px,16px)}6.19%{transform:translate(128px,80px)}11.4%{transform:translate(384px,80px)}12.05%{transform:translate(384px,48px)}15.64%{transform:translate(560px,48px)}15.96%{transform:translate(560px,64px)}16.29%{transform:translate(544px,64px)}16.61%,43.97%{transform:translate(544px,80px)}17.26%{transform:translate(576px,80px)}17.59%{transform:translate(576px,96px)}17.92%{transform:translate(592px,96px)}19.54%{transform:translate(592px,16px)}19.87%{transform:translate(576px,16px)}20.2%{transform:translate(576px,0px)}23.45%,84.69%{transform:translate(736px,0px)}23.78%{transform:translate(736px,-16px)}24.1%{transform:translate(720px,-16px)}24.76%{transform:translate(720px,16px)}26.06%{transform:translate(656px,16px)}26.38%{transform:translate(656px,32px)}27.69%{transform:translate(720px,32px)}28.01%{transform:translate(720px,48px)}29.64%{transform:translate(640px,48px)}29.97%,65.15%{transform:translate(640px,32px)}30.29%{transform:translate(624px,32px)}30.94%{transform:translate(624px,0px)}31.27%{transform:translate(608px,0px)}31.6%{transform:translate(608px,16px)}31.92%{transform:translate(624px,16px)}32.9%,41.37%{transform:translate(624px,64px)}33.55%{transform:translate(656px,64px)}33.88%{transform:translate(656px,80px)}35.18%,37.79%{transform:translate(720px,80px)}35.5%{transform:translate(720px,64px)}36.16%{transform:translate(688px,64px)}36.81%{transform:translate(688px,96px)}37.46%{transform:translate(720px,96px)}38.76%{transform:translate(672px,80px)}39.09%{transform:translate(672px,96px)}39.74%{transform:translate(640px,96px)}40.07%{transform:translate(640px,80px)}40.72%{transform:translate(608px,80px)}41.04%,63.84%{transform:translate(608px,64px)}42.02%{transform:translate(624px,96px)}43.65%{transform:translate(544px,96px)}47.88%{transform:translate(352px,80px)}48.21%{transform:translate(352px,64px)}52.77%{transform:translate(128px,64px)}53.42%{transform:translate(128px,96px)}58.31%{transform:translate(368px,96px)}58.96%{transform:translate(368px,64px)}64.5%{transform:translate(608px,32px)}65.47%{transform:translate(640px,16px)}66.12%{transform:translate(672px,16px)}67.1%{transform:translate(672px,64px)}70.03%{transform:translate(816px,64px)}71.34%{transform:translate(816px,0px)}72.64%{transform:translate(752px,0px)}72.96%,76.22%{transform:translate(752px,16px)}73.94%{transform:translate(800px,16px)}74.27%{transform:translate(800px,32px)}75.57%{transform:translate(736px,32px)}75.9%{transform:translate(736px,16px)}76.87%{transform:translate(752px,48px)}77.85%{transform:translate(800px,48px)}78.5%{transform:translate(800px,80px)}78.83%{transform:translate(816px,80px)}79.15%{transform:translate(816px,96px)}79.8%{transform:translate(784px,96px)}80.13%{transform:translate(784px,80px)}81.11%{transform:translate(736px,80px)}81.43%{transform:translate(736px,96px)}82.08%{transform:translate(768px,96px)}83.06%{transform:translate(768px,48px)}83.71%{transform:translate(736px,48px)}97.72%{transform:translate(96px,0px)}98.05%{transform:translate(96px,-16px)}}.s.s1{transform:translate(16px,-16px);animation-name:s1}@keyframes s2{0%,99.67%{transform:translate(32px,-16px)}0.65%{transform:translate(0px,-16px)}0.98%{transform:translate(0px,0px)}4.23%{transform:translate(160px,0px)}4.56%{transform:translate(160px,16px)}5.21%{transform:translate(128px,16px)}6.51%{transform:translate(128px,80px)}11.73%{transform:translate(384px,80px)}12.38%{transform:translate(384px,48px)}15.96%{transform:translate(560px,48px)}16.29%{transform:translate(560px,64px)}16.61%{transform:translate(544px,64px)}16.94%,44.3%{transform:translate(544px,80px)}17.59%{transform:translate(576px,80px)}17.92%{transform:translate(576px,96px)}18.24%{transform:translate(592px,96px)}19.87%{transform:translate(592px,16px)}20.2%{transform:translate(576px,16px)}20.52%{transform:translate(576px,0px)}23.78%,85.02%{transform:translate(736px,0px)}24.1%{transform:translate(736px,-16px)}24.43%{transform:translate(720px,-16px)}25.08%{transform:translate(720px,16px)}26.38%{transform:translate(656px,16px)}26.71%{transform:translate(656px,32px)}28.01%{transform:translate(720px,32px)}28.34%{transform:translate(720px,48px)}29.97%{transform:translate(640px,48px)}30.29%,65.47%{transform:translate(640px,32px)}30.62%{transform:translate(624px,32px)}31.27%{transform:translate(624px,0px)}31.6%{transform:translate(608px,0px)}31.92%{transform:translate(608px,16px)}32.25%{transform:translate(624px,16px)}33.22%,41.69%{transform:translate(624px,64px)}33.88%{transform:translate(656px,64px)}34.2%{transform:translate(656px,80px)}35.5%,38.11%{transform:translate(720px,80px)}35.83%{transform:translate(720px,64px)}36.48%{transform:translate(688px,64px)}37.13%{transform:translate(688px,96px)}37.79%{transform:translate(720px,96px)}39.09%{transform:translate(672px,80px)}39.41%{transform:translate(672px,96px)}40.07%{transform:translate(640px,96px)}40.39%{transform:translate(640px,80px)}41.04%{transform:translate(608px,80px)}41.37%,64.17%{transform:translate(608px,64px)}42.35%{transform:translate(624px,96px)}43.97%{transform:translate(544px,96px)}48.21%{transform:translate(352px,80px)}48.53%{transform:translate(352px,64px)}53.09%{transform:translate(128px,64px)}53.75%{transform:translate(128px,96px)}58.63%{transform:translate(368px,96px)}59.28%{transform:translate(368px,64px)}64.82%{transform:translate(608px,32px)}65.8%{transform:translate(640px,16px)}66.45%{transform:translate(672px,16px)}67.43%{transform:translate(672px,64px)}70.36%{transform:translate(816px,64px)}71.66%{transform:translate(816px,0px)}72.96%{transform:translate(752px,0px)}73.29%,76.55%{transform:translate(752px,16px)}74.27%{transform:translate(800px,16px)}74.59%{transform:translate(800px,32px)}75.9%{transform:translate(736px,32px)}76.22%{transform:translate(736px,16px)}77.2%{transform:translate(752px,48px)}78.18%{transform:translate(800px,48px)}78.83%{transform:translate(800px,80px)}79.15%{transform:translate(816px,80px)}79.48%{transform:translate(816px,96px)}80.13%{transform:translate(784px,96px)}80.46%{transform:translate(784px,80px)}81.43%{transform:translate(736px,80px)}81.76%{transform:translate(736px,96px)}82.41%{transform:translate(768px,96px)}83.39%{transform:translate(768px,48px)}84.04%{transform:translate(736px,48px)}98.05%{transform:translate(96px,0px)}98.37%{transform:translate(96px,-16px)}}.s.s2{transform:translate(32px,-16px);animation-name:s2}@keyframes s3{0%,99.67%{transform:translate(48px,-16px)}0.98%{transform:translate(0px,-16px)}1.3%{transform:translate(0px,0px)}4.56%{transform:translate(160px,0px)}4.89%{transform:translate(160px,16px)}5.54%{transform:translate(128px,16px)}6.84%{transform:translate(128px,80px)}12.05%{transform:translate(384px,80px)}12.7%{transform:translate(384px,48px)}16.29%{transform:translate(560px,48px)}16.61%{transform:translate(560px,64px)}16.94%{transform:translate(544px,64px)}17.26%,44.63%{transform:translate(544px,80px)}17.92%{transform:translate(576px,80px)}18.24%{transform:translate(576px,96px)}18.57%{transform:translate(592px,96px)}20.2%{transform:translate(592px,16px)}20.52%{transform:translate(576px,16px)}20.85%{transform:translate(576px,0px)}24.1%,85.34%{transform:translate(736px,0px)}24.43%{transform:translate(736px,-16px)}24.76%{transform:translate(720px,-16px)}25.41%{transform:translate(720px,16px)}26.71%{transform:translate(656px,16px)}27.04%{transform:translate(656px,32px)}28.34%{transform:translate(720px,32px)}28.66%{transform:translate(720px,48px)}30.29%{transform:translate(640px,48px)}30.62%,65.8%{transform:translate(640px,32px)}30.94%{transform:translate(624px,32px)}31.6%{transform:translate(624px,0px)}31.92%{transform:translate(608px,0px)}32.25%{transform:translate(608px,16px)}32.57%{transform:translate(624px,16px)}33.55%,42.02%{transform:translate(624px,64px)}34.2%{transform:translate(656px,64px)}34.53%{transform:translate(656px,80px)}35.83%,38.44%{transform:translate(720px,80px)}36.16%{transform:translate(720px,64px)}36.81%{transform:translate(688px,64px)}37.46%{transform:translate(688px,96px)}38.11%{transform:translate(720px,96px)}39.41%{transform:translate(672px,80px)}39.74%{transform:translate(672px,96px)}40.39%{transform:translate(640px,96px)}40.72%{transform:translate(640px,80px)}41.37%{transform:translate(608px,80px)}41.69%,64.5%{transform:translate(608px,64px)}42.67%{transform:translate(624px,96px)}44.3%{transform:translate(544px,96px)}48.53%{transform:translate(352px,80px)}48.86%{transform:translate(352px,64px)}53.42%{transform:translate(128px,64px)}54.07%{transform:translate(128px,96px)}58.96%{transform:translate(368px,96px)}59.61%{transform:translate(368px,64px)}65.15%{transform:translate(608px,32px)}66.12%{transform:translate(640px,16px)}66.78%{transform:translate(672px,16px)}67.75%{transform:translate(672px,64px)}70.68%{transform:translate(816px,64px)}71.99%{transform:translate(816px,0px)}73.29%{transform:translate(752px,0px)}73.62%,76.87%{transform:translate(752px,16px)}74.59%{transform:translate(800px,16px)}74.92%{transform:translate(800px,32px)}76.22%{transform:translate(736px,32px)}76.55%{transform:translate(736px,16px)}77.52%{transform:translate(752px,48px)}78.5%{transform:translate(800px,48px)}79.15%{transform:translate(800px,80px)}79.48%{transform:translate(816px,80px)}79.8%{transform:translate(816px,96px)}80.46%{transform:translate(784px,96px)}80.78%{transform:translate(784px,80px)}81.76%{transform:translate(736px,80px)}82.08%{transform:translate(736px,96px)}82.74%{transform:translate(768px,96px)}83.71%{transform:translate(768px,48px)}84.36%{transform:translate(736px,48px)}98.37%{transform:translate(96px,0px)}98.7%{transform:translate(96px,-16px)}}.s.s3{transform:translate(48px,-16px);animation-name:s3}</style><rect class="c" x="2" y="2" rx="2" ry="2"/><rect class="c" x="2" y="18" rx="2" ry="2"/><rect class="c" x="2" y="34" rx="2" ry="2"/><rect class="c" x="2" y="50" rx="2" ry="2"/><rect class="c" x="2" y="66" rx="2" ry="2"/><rect class="c" x="2" y="82" rx="2" ry="2"/><rect class="c" x="2" y="98" rx="2" ry="2"/><rect class="c" x="18" y="2" rx="2" ry="2"/><rect class="c" x="18" y="18" rx="2" ry="2"/><rect class="c" x="18" y="34" rx="2" ry="2"/><rect class="c" x="18" y="50" rx="2" ry="2"/><rect class="c" x="18" y="66" rx="2" ry="2"/><rect class="c" x="18" y="82" rx="2" ry="2"/><rect class="c" x="18" y="98" rx="2" ry="2"/><rect class="c" x="34" y="2" rx="2" ry="2"/><rect class="c" x="34" y="18" rx="2" ry="2"/><rect class="c" x="34" y="34" rx="2" ry="2"/><rect class="c" x="34" y="50" rx="2" ry="2"/><rect class="c" x="34" y="66" rx="2" ry="2"/><rect class="c" x="34" y="82" rx="2" ry="2"/><rect class="c" x="34" y="98" rx="2" ry="2"/><rect class="c" x="50" y="2" rx="2" ry="2"/><rect class="c" x="50" y="18" rx="2" ry="2"/><rect class="c" x="50" y="34" rx="2" ry="2"/><rect class="c" x="50" y="50" rx="2" ry="2"/><rect class="c" x="50" y="66" rx="2" ry="2"/><rect class="c" x="50" y="82" rx="2" ry="2"/><rect class="c" x="50" y="98" rx="2" ry="2"/><rect class="c" x="66" y="2" rx="2" ry="2"/><rect class="c" x="66" y="18" rx="2" ry="2"/><rect class="c" x="66" y="34" rx="2" ry="2"/><rect class="c" x="66" y="50" rx="2" ry="2"/><rect class="c" x="66" y="66" rx="2" ry="2"/><rect class="c" x="66" y="82" rx="2" ry="2"/><rect class="c" x="66" y="98" rx="2" ry="2"/><rect class="c" x="82" y="2" rx="2" ry="2"/><rect class="c" x="82" y="18" rx="2" ry="2"/><rect class="c" x="82" y="34" rx="2" ry="2"/><rect class="c" x="82" y="50" rx="2" ry="2"/><rect class="c" x="82" y="66" rx="2" ry="2"/><rect class="c" x="82" y="82" rx="2" ry="2"/><rect class="c" x="82" y="98" rx="2" ry="2"/><rect class="c" x="98" y="2" rx="2" ry="2"/><rect class="c" x="98" y="18" rx="2" ry="2"/><rect class="c" x="98" y="34" rx="2" ry="2"/><rect class="c" x="98" y="50" rx="2" ry="2"/><rect class="c" x="98" y="66" rx="2" ry="2"/><rect class="c" x="98" y="82" rx="2" ry="2"/><rect class="c" x="98" y="98" rx="2" ry="2"/><rect class="c" x="114" y="2" rx="2" ry="2"/><rect class="c" x="114" y="18" rx="2" ry="2"/><rect class="c" x="114" y="34" rx="2" ry="2"/><rect class="c" x="114" y="50" rx="2" ry="2"/><rect class="c" x="114" y="66" rx="2" ry="2"/><rect class="c" x="114" y="82" rx="2" ry="2"/><rect class="c" x="114" y="98" rx="2" ry="2"/><rect class="c" x="130" y="2" rx="2" ry="2"/><rect class="c" x="130" y="18" rx="2" ry="2"/><rect class="c" x="130" y="34" rx="2" ry="2"/><rect class="c" x="130" y="50" rx="2" ry="2"/><rect class="c" x="130" y="66" rx="2" ry="2"/><rect class="c c0" x="130" y="82" rx="2" ry="2"/><rect class="c c1" x="130" y="98" rx="2" ry="2"/><rect class="c" x="146" y="2" rx="2" ry="2"/><rect class="c" x="146" y="18" rx="2" ry="2"/><rect class="c" x="146" y="34" rx="2" ry="2"/><rect class="c" x="146" y="50" rx="2" ry="2"/><rect class="c" x="146" y="66" rx="2" ry="2"/><rect class="c" x="146" y="82" rx="2" ry="2"/><rect class="c" x="146" y="98" rx="2" ry="2"/><rect class="c c2" x="162" y="2" rx="2" ry="2"/><rect class="c c3" x="162" y="18" rx="2" ry="2"/><rect class="c" x="162" y="34" rx="2" ry="2"/><rect class="c" x="162" y="50" rx="2" ry="2"/><rect class="c" x="162" y="66" rx="2" ry="2"/><rect class="c" x="162" y="82" rx="2" ry="2"/><rect class="c" x="162" y="98" rx="2" ry="2"/><rect class="c" x="178" y="2" rx="2" ry="2"/><rect class="c" x="178" y="18" rx="2" ry="2"/><rect class="c" x="178" y="34" rx="2" ry="2"/><rect class="c" x="178" y="50" rx="2" ry="2"/><rect class="c" x="178" y="66" rx="2" ry="2"/><rect class="c" x="178" y="82" rx="2" ry="2"/><rect class="c" x="178" y="98" rx="2" ry="2"/><rect class="c" x="194" y="2" rx="2" ry="2"/><rect class="c" x="194" y="18" rx="2" ry="2"/><rect class="c" x="194" y="34" rx="2" ry="2"/><rect class="c" x="194" y="50" rx="2" ry="2"/><rect class="c" x="194" y="66" rx="2" ry="2"/><rect class="c" x="194" y="82" rx="2" ry="2"/><rect class="c" x="194" y="98" rx="2" ry="2"/><rect class="c" x="210" y="2" rx="2" ry="2"/><rect class="c" x="210" y="18" rx="2" ry="2"/><rect class="c" x="210" y="34" rx="2" ry="2"/><rect class="c" x="210" y="50" rx="2" ry="2"/><rect class="c" x="210" y="66" rx="2" ry="2"/><rect class="c" x="210" y="82" rx="2" ry="2"/><rect class="c" x="210" y="98" rx="2" ry="2"/><rect class="c" x="226" y="2" rx="2" ry="2"/><rect class="c" x="226" y="18" rx="2" ry="2"/><rect class="c" x="226" y="34" rx="2" ry="2"/><rect class="c" x="226" y="50" rx="2" ry="2"/><rect class="c" x="226" y="66" rx="2" ry="2"/><rect class="c" x="226" y="82" rx="2" ry="2"/><rect class="c" x="226" y="98" rx="2" ry="2"/><rect class="c" x="242" y="2" rx="2" ry="2"/><rect class="c" x="242" y="18" rx="2" ry="2"/><rect class="c" x="242" y="34" rx="2" ry="2"/><rect class="c" x="242" y="50" rx="2" ry="2"/><rect class="c c4" x="242" y="66" rx="2" ry="2"/><rect class="c" x="242" y="82" rx="2" ry="2"/><rect class="c" x="242" y="98" rx="2" ry="2"/><rect class="c" x="258" y="2" rx="2" ry="2"/><rect class="c" x="258" y="18" rx="2" ry="2"/><rect class="c" x="258" y="34" rx="2" ry="2"/><rect class="c" x="258" y="50" rx="2" ry="2"/><rect class="c" x="258" y="66" rx="2" ry="2"/><rect class="c" x="258" y="82" rx="2" ry="2"/><rect class="c" x="258" y="98" rx="2" ry="2"/><rect class="c" x="274" y="2" rx="2" ry="2"/><rect class="c" x="274" y="18" rx="2" ry="2"/><rect class="c" x="274" y="34" rx="2" ry="2"/><rect class="c" x="274" y="50" rx="2" ry="2"/><rect class="c" x="274" y="66" rx="2" ry="2"/><rect class="c" x="274" y="82" rx="2" ry="2"/><rect class="c" x="274" y="98" rx="2" ry="2"/><rect class="c" x="290" y="2" rx="2" ry="2"/><rect class="c" x="290" y="18" rx="2" ry="2"/><rect class="c" x="290" y="34" rx="2" ry="2"/><rect class="c" x="290" y="50" rx="2" ry="2"/><rect class="c" x="290" y="66" rx="2" ry="2"/><rect class="c" x="290" y="82" rx="2" ry="2"/><rect class="c" x="290" y="98" rx="2" ry="2"/><rect class="c" x="306" y="2" rx="2" ry="2"/><rect class="c" x="306" y="18" rx="2" ry="2"/><rect class="c" x="306" y="34" rx="2" ry="2"/><rect class="c" x="306" y="50" rx="2" ry="2"/><rect class="c" x="306" y="66" rx="2" ry="2"/><rect class="c" x="306" y="82" rx="2" ry="2"/><rect class="c" x="306" y="98" rx="2" ry="2"/><rect class="c" x="322" y="2" rx="2" ry="2"/><rect class="c" x="322" y="18" rx="2" ry="2"/><rect class="c" x="322" y="34" rx="2" ry="2"/><rect class="c" x="322" y="50" rx="2" ry="2"/><rect class="c" x="322" y="66" rx="2" ry="2"/><rect class="c" x="322" y="82" rx="2" ry="2"/><rect class="c" x="322" y="98" rx="2" ry="2"/><rect class="c" x="338" y="2" rx="2" ry="2"/><rect class="c" x="338" y="18" rx="2" ry="2"/><rect class="c" x="338" y="34" rx="2" ry="2"/><rect class="c" x="338" y="50" rx="2" ry="2"/><rect class="c" x="338" y="66" rx="2" ry="2"/><rect class="c" x="338" y="82" rx="2" ry="2"/><rect class="c" x="338" y="98" rx="2" ry="2"/><rect class="c" x="354" y="2" rx="2" ry="2"/><rect class="c" x="354" y="18" rx="2" ry="2"/><rect class="c" x="354" y="34" rx="2" ry="2"/><rect class="c" x="354" y="50" rx="2" ry="2"/><rect class="c" x="354" y="66" rx="2" ry="2"/><rect class="c" x="354" y="82" rx="2" ry="2"/><rect class="c" x="354" y="98" rx="2" ry="2"/><rect class="c" x="370" y="2" rx="2" ry="2"/><rect class="c" x="370" y="18" rx="2" ry="2"/><rect class="c" x="370" y="34" rx="2" ry="2"/><rect class="c" x="370" y="50" rx="2" ry="2"/><rect class="c c5" x="370" y="66" rx="2" ry="2"/><rect class="c" x="370" y="82" rx="2" ry="2"/><rect class="c" x="370" y="98" rx="2" ry="2"/><rect class="c" x="386" y="2" rx="2" ry="2"/><rect class="c" x="386" y="18" rx="2" ry="2"/><rect class="c" x="386" y="34" rx="2" ry="2"/><rect class="c c6" x="386" y="50" rx="2" ry="2"/><rect class="c" x="386" y="66" rx="2" ry="2"/><rect class="c" x="386" y="82" rx="2" ry="2"/><rect class="c" x="386" y="98" rx="2" ry="2"/><rect class="c" x="402" y="2" rx="2" ry="2"/><rect class="c" x="402" y="18" rx="2" ry="2"/><rect class="c" x="402" y="34" rx="2" ry="2"/><rect class="c" x="402" y="50" rx="2" ry="2"/><rect class="c" x="402" y="66" rx="2" ry="2"/><rect class="c" x="402" y="82" rx="2" ry="2"/><rect class="c" x="402" y="98" rx="2" ry="2"/><rect class="c" x="418" y="2" rx="2" ry="2"/><rect class="c" x="418" y="18" rx="2" ry="2"/><rect class="c" x="418" y="34" rx="2" ry="2"/><rect class="c" x="418" y="50" rx="2" ry="2"/><rect class="c" x="418" y="66" rx="2" ry="2"/><rect class="c" x="418" y="82" rx="2" ry="2"/><rect class="c" x="418" y="98" rx="2" ry="2"/><rect class="c" x="434" y="2" rx="2" ry="2"/><rect class="c" x="434" y="18" rx="2" ry="2"/><rect class="c" x="434" y="34" rx="2" ry="2"/><rect class="c" x="434" y="50" rx="2" ry="2"/><rect class="c" x="434" y="66" rx="2" ry="2"/><rect class="c" x="434" y="82" rx="2" ry="2"/><rect class="c" x="434" y="98" rx="2" ry="2"/><rect class="c" x="450" y="2" rx="2" ry="2"/><rect class="c" x="450" y="18" rx="2" ry="2"/><rect class="c" x="450" y="34" rx="2" ry="2"/><rect class="c" x="450" y="50" rx="2" ry="2"/><rect class="c" x="450" y="66" rx="2" ry="2"/><rect class="c" x="450" y="82" rx="2" ry="2"/><rect class="c" x="450" y="98" rx="2" ry="2"/><rect class="c" x="466" y="2" rx="2" ry="2"/><rect class="c" x="466" y="18" rx="2" ry="2"/><rect class="c" x="466" y="34" rx="2" ry="2"/><rect class="c" x="466" y="50" rx="2" ry="2"/><rect class="c" x="466" y="66" rx="2" ry="2"/><rect class="c" x="466" y="82" rx="2" ry="2"/><rect class="c" x="466" y="98" rx="2" ry="2"/><rect class="c" x="482" y="2" rx="2" ry="2"/><rect class="c" x="482" y="18" rx="2" ry="2"/><rect class="c" x="482" y="34" rx="2" ry="2"/><rect class="c" x="482" y="50" rx="2" ry="2"/><rect class="c" x="482" y="66" rx="2" ry="2"/><rect class="c" x="482" y="82" rx="2" ry="2"/><rect class="c" x="482" y="98" rx="2" ry="2"/><rect class="c" x="498" y="2" rx="2" ry="2"/><rect class="c" x="498" y="18" rx="2" ry="2"/><rect class="c" x="498" y="34" rx="2" ry="2"/><rect class="c" x="498" y="50" rx="2" ry="2"/><rect class="c" x="498" y="66" rx="2" ry="2"/><rect class="c" x="498" y="82" rx="2" ry="2"/><rect class="c" x="498" y="98" rx="2" ry="2"/><rect class="c" x="514" y="2" rx="2" ry="2"/><rect class="c" x="514" y="18" rx="2" ry="2"/><rect class="c" x="514" y="34" rx="2" ry="2"/><rect class="c" x="514" y="50" rx="2" ry="2"/><rect class="c" x="514" y="66" rx="2" ry="2"/><rect class="c" x="514" y="82" rx="2" ry="2"/><rect class="c" x="514" y="98" rx="2" ry="2"/><rect class="c" x="530" y="2" rx="2" ry="2"/><rect class="c" x="530" y="18" rx="2" ry="2"/><rect class="c" x="530" y="34" rx="2" ry="2"/><rect class="c" x="530" y="50" rx="2" ry="2"/><rect class="c" x="530" y="66" rx="2" ry="2"/><rect class="c" x="530" y="82" rx="2" ry="2"/><rect class="c" x="530" y="98" rx="2" ry="2"/><rect class="c" x="546" y="2" rx="2" ry="2"/><rect class="c" x="546" y="18" rx="2" ry="2"/><rect class="c" x="546" y="34" rx="2" ry="2"/><rect class="c" x="546" y="50" rx="2" ry="2"/><rect class="c c7" x="546" y="66" rx="2" ry="2"/><rect class="c" x="546" y="82" rx="2" ry="2"/><rect class="c c8" x="546" y="98" rx="2" ry="2"/><rect class="c c9" x="562" y="2" rx="2" ry="2"/><rect class="c" x="562" y="18" rx="2" ry="2"/><rect class="c" x="562" y="34" rx="2" ry="2"/><rect class="c ca" x="562" y="50" rx="2" ry="2"/><rect class="c" x="562" y="66" rx="2" ry="2"/><rect class="c" x="562" y="82" rx="2" ry="2"/><rect class="c" x="562" y="98" rx="2" ry="2"/><rect class="c" x="578" y="2" rx="2" ry="2"/><rect class="c cb" x="578" y="18" rx="2" ry="2"/><rect class="c" x="578" y="34" rx="2" ry="2"/><rect class="c" x="578" y="50" rx="2" ry="2"/><rect class="c" x="578" y="66" rx="2" ry="2"/><rect class="c cc" x="578" y="82" rx="2" ry="2"/><rect class="c cd" x="578" y="98" rx="2" ry="2"/><rect class="c" x="594" y="2" rx="2" ry="2"/><rect class="c" x="594" y="18" rx="2" ry="2"/><rect class="c" x="594" y="34" rx="2" ry="2"/><rect class="c" x="594" y="50" rx="2" ry="2"/><rect class="c" x="594" y="66" rx="2" ry="2"/><rect class="c" x="594" y="82" rx="2" ry="2"/><rect class="c" x="594" y="98" rx="2" ry="2"/><rect class="c" x="610" y="2" rx="2" ry="2"/><rect class="c" x="610" y="18" rx="2" ry="2"/><rect class="c ce" x="610" y="34" rx="2" ry="2"/><rect class="c cf" x="610" y="50" rx="2" ry="2"/><rect class="c cg" x="610" y="66" rx="2" ry="2"/><rect class="c ch" x="610" y="82" rx="2" ry="2"/><rect class="c ci" x="610" y="98" rx="2" ry="2"/><rect class="c cj" x="626" y="2" rx="2" ry="2"/><rect class="c ck" x="626" y="18" rx="2" ry="2"/><rect class="c cl" x="626" y="34" rx="2" ry="2"/><rect class="c cm" x="626" y="50" rx="2" ry="2"/><rect class="c cn" x="626" y="66" rx="2" ry="2"/><rect class="c co" x="626" y="82" rx="2" ry="2"/><rect class="c cp" x="626" y="98" rx="2" ry="2"/><rect class="c cq" x="642" y="2" rx="2" ry="2"/><rect class="c cr" x="642" y="18" rx="2" ry="2"/><rect class="c cs" x="642" y="34" rx="2" ry="2"/><rect class="c ct" x="642" y="50" rx="2" ry="2"/><rect class="c cu" x="642" y="66" rx="2" ry="2"/><rect class="c cv" x="642" y="82" rx="2" ry="2"/><rect class="c cw" x="642" y="98" rx="2" ry="2"/><rect class="c cx" x="658" y="2" rx="2" ry="2"/><rect class="c cy" x="658" y="18" rx="2" ry="2"/><rect class="c cz" x="658" y="34" rx="2" ry="2"/><rect class="c c10" x="658" y="50" rx="2" ry="2"/><rect class="c c11" x="658" y="66" rx="2" ry="2"/><rect class="c c12" x="658" y="82" rx="2" ry="2"/><rect class="c c13" x="658" y="98" rx="2" ry="2"/><rect class="c c14" x="674" y="2" rx="2" ry="2"/><rect class="c c15" x="674" y="18" rx="2" ry="2"/><rect class="c c16" x="674" y="34" rx="2" ry="2"/><rect class="c c17" x="674" y="50" rx="2" ry="2"/><rect class="c c18" x="674" y="66" rx="2" ry="2"/><rect class="c c19" x="674" y="82" rx="2" ry="2"/><rect class="c c1a" x="674" y="98" rx="2" ry="2"/><rect class="c c1b" x="690" y="2" rx="2" ry="2"/><rect class="c c1c" x="690" y="18" rx="2" ry="2"/><rect class="c c1d" x="690" y="34" rx="2" ry="2"/><rect class="c c1e" x="690" y="50" rx="2" ry="2"/><rect class="c c1f" x="690" y="66" rx="2" ry="2"/><rect class="c c1g" x="690" y="82" rx="2" ry="2"/><rect class="c c1h" x="690" y="98" rx="2" ry="2"/><rect class="c c1i" x="706" y="2" rx="2" ry="2"/><rect class="c c1j" x="706" y="18" rx="2" ry="2"/><rect class="c c1k" x="706" y="34" rx="2" ry="2"/><rect class="c c1l" x="706" y="50" rx="2" ry="2"/><rect class="c c1m" x="706" y="66" rx="2" ry="2"/><rect class="c c1n" x="706" y="82" rx="2" ry="2"/><rect class="c c1o" x="706" y="98" rx="2" ry="2"/><rect class="c c1p" x="722" y="2" rx="2" ry="2"/><rect class="c c1q" x="722" y="18" rx="2" ry="2"/><rect class="c c1r" x="722" y="34" rx="2" ry="2"/><rect class="c c1s" x="722" y="50" rx="2" ry="2"/><rect class="c c1t" x="722" y="66" rx="2" ry="2"/><rect class="c c1u" x="722" y="82" rx="2" ry="2"/><rect class="c c1v" x="722" y="98" rx="2" ry="2"/><rect class="c c1w" x="738" y="2" rx="2" ry="2"/><rect class="c c1x" x="738" y="18" rx="2" ry="2"/><rect class="c c1y" x="738" y="34" rx="2" ry="2"/><rect class="c c1z" x="738" y="50" rx="2" ry="2"/><rect class="c c20" x="738" y="66" rx="2" ry="2"/><rect class="c c21" x="738" y="82" rx="2" ry="2"/><rect class="c c22" x="738" y="98" rx="2" ry="2"/><rect class="c c23" x="754" y="2" rx="2" ry="2"/><rect class="c c24" x="754" y="18" rx="2" ry="2"/><rect class="c c25" x="754" y="34" rx="2" ry="2"/><rect class="c c26" x="754" y="50" rx="2" ry="2"/><rect class="c c27" x="754" y="66" rx="2" ry="2"/><rect class="c c28" x="754" y="82" rx="2" ry="2"/><rect class="c c29" x="754" y="98" rx="2" ry="2"/><rect class="c c2a" x="770" y="2" rx="2" ry="2"/><rect class="c c2b" x="770" y="18" rx="2" ry="2"/><rect class="c c2c" x="770" y="34" rx="2" ry="2"/><rect class="c c2d" x="770" y="50" rx="2" ry="2"/><rect class="c c2e" x="770" y="66" rx="2" ry="2"/><rect class="c c2f" x="770" y="82" rx="2" ry="2"/><rect class="c c2g" x="770" y="98" rx="2" ry="2"/><rect class="c c2h" x="786" y="2" rx="2" ry="2"/><rect class="c c2i" x="786" y="18" rx="2" ry="2"/><rect class="c c2j" x="786" y="34" rx="2" ry="2"/><rect class="c c2k" x="786" y="50" rx="2" ry="2"/><rect class="c c2l" x="786" y="66" rx="2" ry="2"/><rect class="c c2m" x="786" y="82" rx="2" ry="2"/><rect class="c c2n" x="786" y="98" rx="2" ry="2"/><rect class="c c2o" x="802" y="2" rx="2" ry="2"/><rect class="c c2p" x="802" y="18" rx="2" ry="2"/><rect class="c c2q" x="802" y="34" rx="2" ry="2"/><rect class="c c2r" x="802" y="50" rx="2" ry="2"/><rect class="c c2s" x="802" y="66" rx="2" ry="2"/><rect class="c c2t" x="802" y="82" rx="2" ry="2"/><rect class="c c2u" x="802" y="98" rx="2" ry="2"/><rect class="c c2v" x="818" y="2" rx="2" ry="2"/><rect class="c c2w" x="818" y="18" rx="2" ry="2"/><rect class="c c2x" x="818" y="34" rx="2" ry="2"/><rect class="c c2y" x="818" y="50" rx="2" ry="2"/><rect class="c c2z" x="818" y="66" rx="2" ry="2"/><rect class="c c30" x="818" y="82" rx="2" ry="2"/><rect class="c c31" x="818" y="98" rx="2" ry="2"/><rect class="c" x="834" y="2" rx="2" ry="2"/><rect class="u u0" height="12" width="70.0" x="0.0" y="144"/><rect class="u u1" height="12" width="416.9" x="69.4" y="144"/><rect class="u u2" height="12" width="362.9" x="485.7" y="144"/><rect class="s s0" x="0.8" y="0.8" width="14.4" height="14.4" rx="4.5" ry="4.5"/><rect class="s s1" x="1.8" y="1.8" width="12.3" height="12.3" rx="4.1" ry="4.1"/><rect class="s s2" x="2.6" y="2.6" width="10.8" height="10.8" rx="3.6" ry="3.6"/><rect class="s s3" x="3.0" y="3.0" width="9.9" height="9.9" rx="3.3" ry="3.3"/></svg>