<svg viewBox="-16 -32 880 192" width="880" height="192" xmlns="http://www.w3.org/2000/svg"><desc>Generated with https://github.com/Platane/snk</desc><style>:root{--cb:#1b1f230a;--cs:purple;--ce:#ebedf0;--c0:#ebedf0;--c1:#9be9a8;--c2:#40c463;--c3:#30a14e;--c4:#216e39}.c{shape-rendering:geometricPrecision;fill:var(--ce);stroke-width:1px;stroke:var(--cb);animation:none 34900ms linear infinite;width:12px;height:12px}@keyframes c0{5.43%{fill:var(--c1)}5.45%,100%{fill:var(--ce)}}.c.c0{fill:var(--c1);animation-name:c0}@keyframes c1{58.44%{fill:var(--c2)}58.46%,100%{fill:var(--ce)}}.c.c1{fill:var(--c2);animation-name:c1}@keyframes c2{3.43%{fill:var(--c1)}3.45%,100%{fill:var(--ce)}}.c.c2{fill:var(--c1);animation-name:c2}@keyframes c3{3.71%{fill:var(--c1)}3.73%,100%{fill:var(--ce)}}.c.c3{fill:var(--c1);animation-name:c3}@keyframes c4{55.86%{fill:var(--c2)}55.88%,100%{fill:var(--ce)}}.c.c4{fill:var(--c2);animation-name:c4}@keyframes c5{63.31%{fill:var(--c4)}63.33%,100%{fill:var(--ce)}}.c.c5{fill:var(--c4);animation-name:c5}@keyframes c6{10.59%{fill:var(--c1)}10.61%,100%{fill:var(--ce)}}.c.c6{fill:var(--c1);animation-name:c6}@keyframes c7{14.32%{fill:var(--c1)}14.34%,100%{fill:var(--ce)}}.c.c7{fill:var(--c1);animation-name:c7}@keyframes c8{38.39%{fill:var(--c2)}38.41%,100%{fill:var(--ce)}}.c.c8{fill:var(--c2);animation-name:c8}@keyframes c9{89.1%{fill:var(--c4)}89.12%,100%{fill:var(--ce)}}.c.c9{fill:var(--c4);animation-name:c9}@keyframes ca{13.74%{fill:var(--c1)}13.76%,100%{fill:var(--ce)}}.c.ca{fill:var(--c1);animation-name:ca}@keyframes cb{17.47%{fill:var(--c1)}17.49%,100%{fill:var(--ce)}}.c.cb{fill:var(--c1);animation-name:cb}@keyframes cc{15.18%{fill:var(--c1)}15.2%,100%{fill:var(--ce)}}.c.cc{fill:var(--c1);animation-name:cc}@keyframes cd{15.46%{fill:var(--c1)}15.48%,100%{fill:var(--ce)}}.c.cd{fill:var(--c1);animation-name:cd}@keyframes ce{68.18%{fill:var(--c4)}68.2%,100%{fill:var(--ce)}}.c.ce{fill:var(--c4);animation-name:ce}@keyframes cf{67.9%{fill:var(--c4)}67.92%,100%{fill:var(--ce)}}.c.cf{fill:var(--c4);animation-name:cf}@keyframes cg{36.09%{fill:var(--c2)}36.11%,100%{fill:var(--ce)}}.c.cg{fill:var(--c2);animation-name:cg}@keyframes ch{35.81%{fill:var(--c2)}35.83%,100%{fill:var(--ce)}}.c.ch{fill:var(--c2);animation-name:ch}@keyframes ci{37.24%{fill:var(--c2)}37.26%,100%{fill:var(--ce)}}.c.ci{fill:var(--c2);animation-name:ci}@keyframes cj{18.61%{fill:var(--c2)}18.63%,100%{fill:var(--ce)}}.c.cj{fill:var(--c2);animation-name:cj}@keyframes ck{26.92%{fill:var(--c2)}26.94%,100%{fill:var(--ce)}}.c.ck{fill:var(--c2);animation-name:ck}@keyframes cl{26.64%{fill:var(--c2)}26.66%,100%{fill:var(--ce)}}.c.cl{fill:var(--c2);animation-name:cl}@keyframes cm{28.64%{fill:var(--c2)}28.66%,100%{fill:var(--ce)}}.c.cm{fill:var(--c2);animation-name:cm}@keyframes cn{28.93%{fill:var(--c2)}28.95%,100%{fill:var(--ce)}}.c.cn{fill:var(--c2);animation-name:cn}@keyframes co{35.52%{fill:var(--c2)}35.54%,100%{fill:var(--ce)}}.c.co{fill:var(--c2);animation-name:co}@keyframes cp{36.95%{fill:var(--c2)}36.97%,100%{fill:var(--ce)}}.c.cp{fill:var(--c2);animation-name:cp}@keyframes cq{18.9%{fill:var(--c2)}18.92%,100%{fill:var(--ce)}}.c.cq{fill:var(--c2);animation-name:cq}@keyframes cr{69.04%{fill:var(--c4)}69.06%,100%{fill:var(--ce)}}.c.cr{fill:var(--c4);animation-name:cr}@keyframes cs{26.35%{fill:var(--c2)}26.37%,100%{fill:var(--ce)}}.c.cs{fill:var(--c2);animation-name:cs}@keyframes ct{26.06%{fill:var(--c2)}26.08%,100%{fill:var(--ce)}}.c.ct{fill:var(--c2);animation-name:ct}@keyframes cu{29.22%{fill:var(--c2)}29.24%,100%{fill:var(--ce)}}.c.cu{fill:var(--c2);animation-name:cu}@keyframes cv{35.23%{fill:var(--c2)}35.25%,100%{fill:var(--ce)}}.c.cv{fill:var(--c2);animation-name:cv}@keyframes cw{34.95%{fill:var(--c2)}34.97%,100%{fill:var(--ce)}}.c.cw{fill:var(--c2);animation-name:cw}@keyframes cx{19.19%{fill:var(--c2)}19.21%,100%{fill:var(--ce)}}.c.cx{fill:var(--c2);animation-name:cx}@keyframes cy{22.91%{fill:var(--c2)}22.93%,100%{fill:var(--ce)}}.c.cy{fill:var(--c2);animation-name:cy}@keyframes cz{23.2%{fill:var(--c2)}23.22%,100%{fill:var(--ce)}}.c.cz{fill:var(--c2);animation-name:cz}@keyframes c10{25.78%{fill:var(--c2)}25.8%,100%{fill:var(--ce)}}.c.c10{fill:var(--c2);animation-name:c10}@keyframes c11{29.5%{fill:var(--c2)}29.52%,100%{fill:var(--ce)}}.c.c11{fill:var(--c2);animation-name:c11}@keyframes c12{29.79%{fill:var(--c2)}29.81%,100%{fill:var(--ce)}}.c.c12{fill:var(--c2);animation-name:c12}@keyframes c13{34.66%{fill:var(--c2)}34.68%,100%{fill:var(--ce)}}.c.c13{fill:var(--c2);animation-name:c13}@keyframes c14{19.47%{fill:var(--c2)}19.49%,100%{fill:var(--ce)}}.c.c14{fill:var(--c2);animation-name:c14}@keyframes c15{22.63%{fill:var(--c2)}22.65%,100%{fill:var(--ce)}}.c.c15{fill:var(--c2);animation-name:c15}@keyframes c16{23.49%{fill:var(--c2)}23.51%,100%{fill:var(--ce)}}.c.c16{fill:var(--c2);animation-name:c16}@keyframes c17{25.49%{fill:var(--c2)}25.51%,100%{fill:var(--ce)}}.c.c17{fill:var(--c2);animation-name:c17}@keyframes c18{70.48%{fill:var(--c4)}70.5%,100%{fill:var(--ce)}}.c.c18{fill:var(--c4);animation-name:c18}@keyframes c19{30.08%{fill:var(--c2)}30.1%,100%{fill:var(--ce)}}.c.c19{fill:var(--c2);animation-name:c19}@keyframes c1a{34.37%{fill:var(--c2)}34.39%,100%{fill:var(--ce)}}.c.c1a{fill:var(--c2);animation-name:c1a}@keyframes c1b{19.76%{fill:var(--c2)}19.78%,100%{fill:var(--ce)}}.c.c1b{fill:var(--c2);animation-name:c1b}@keyframes c1c{22.34%{fill:var(--c2)}22.36%,100%{fill:var(--ce)}}.c.c1c{fill:var(--c2);animation-name:c1c}@keyframes c1d{23.77%{fill:var(--c2)}23.79%,100%{fill:var(--ce)}}.c.c1d{fill:var(--c2);animation-name:c1d}@keyframes c1e{25.2%{fill:var(--c2)}25.22%,100%{fill:var(--ce)}}.c.c1e{fill:var(--c2);animation-name:c1e}@keyframes c1f{31.8%{fill:var(--c2)}31.82%,100%{fill:var(--ce)}}.c.c1f{fill:var(--c2);animation-name:c1f}@keyframes c1g{30.36%{fill:var(--c2)}30.38%,100%{fill:var(--ce)}}.c.c1g{fill:var(--c2);animation-name:c1g}@keyframes c1h{32.37%{fill:var(--c2)}32.39%,100%{fill:var(--ce)}}.c.c1h{fill:var(--c2);animation-name:c1h}@keyframes c1i{20.05%{fill:var(--c2)}20.07%,100%{fill:var(--ce)}}.c.c1i{fill:var(--c2);animation-name:c1i}@keyframes c1j{22.05%{fill:var(--c2)}22.07%,100%{fill:var(--ce)}}.c.c1j{fill:var(--c2);animation-name:c1j}@keyframes c1k{24.06%{fill:var(--c2)}24.08%,100%{fill:var(--ce)}}.c.c1k{fill:var(--c2);animation-name:c1k}@keyframes c1l{24.92%{fill:var(--c2)}24.94%,100%{fill:var(--ce)}}.c.c1l{fill:var(--c2);animation-name:c1l}@keyframes c1m{31.51%{fill:var(--c2)}31.53%,100%{fill:var(--ce)}}.c.c1m{fill:var(--c2);animation-name:c1m}@keyframes c1n{30.65%{fill:var(--c2)}30.67%,100%{fill:var(--ce)}}.c.c1n{fill:var(--c2);animation-name:c1n}@keyframes c1o{32.65%{fill:var(--c2)}32.67%,100%{fill:var(--ce)}}.c.c1o{fill:var(--c2);animation-name:c1o}@keyframes c1p{20.33%{fill:var(--c2)}20.35%,100%{fill:var(--ce)}}.c.c1p{fill:var(--c2);animation-name:c1p}@keyframes c1q{21.77%{fill:var(--c2)}21.79%,100%{fill:var(--ce)}}.c.c1q{fill:var(--c2);animation-name:c1q}@keyframes c1r{24.35%{fill:var(--c2)}24.37%,100%{fill:var(--ce)}}.c.c1r{fill:var(--c2);animation-name:c1r}@keyframes c1s{24.63%{fill:var(--c2)}24.65%,100%{fill:var(--ce)}}.c.c1s{fill:var(--c2);animation-name:c1s}@keyframes c1t{31.22%{fill:var(--c2)}31.24%,100%{fill:var(--ce)}}.c.c1t{fill:var(--c2);animation-name:c1t}@keyframes c1u{30.94%{fill:var(--c2)}30.96%,100%{fill:var(--ce)}}.c.c1u{fill:var(--c2);animation-name:c1u}@keyframes c1v{32.94%{fill:var(--c2)}32.96%,100%{fill:var(--ce)}}.c.c1v{fill:var(--c2);animation-name:c1v}@keyframes c1w{20.62%{fill:var(--c2)}20.64%,100%{fill:var(--ce)}}.c.c1w{fill:var(--c2);animation-name:c1w}@keyframes c1x{78.21%{fill:var(--c4)}78.23%,100%{fill:var(--ce)}}.c.c1x{fill:var(--c4);animation-name:c1x}@keyframes c1y{77.93%{fill:var(--c4)}77.95%,100%{fill:var(--ce)}}.c.c1y{fill:var(--c4);animation-name:c1y}@keyframes c1z{85.09%{fill:var(--c4)}85.11%,100%{fill:var(--ce)}}.c.c1z{fill:var(--c4);animation-name:c1z}@keyframes c20{71.62%{fill:var(--c4)}71.64%,100%{fill:var(--ce)}}.c.c20{fill:var(--c4);animation-name:c20}@keyframes c21{82.8%{fill:var(--c4)}82.82%,100%{fill:var(--ce)}}.c.c21{fill:var(--c4);animation-name:c21}@keyframes c22{83.08%{fill:var(--c4)}83.1%,100%{fill:var(--ce)}}.c.c22{fill:var(--c4);animation-name:c22}@keyframes c23{75.35%{fill:var(--c4)}75.37%,100%{fill:var(--ce)}}.c.c23{fill:var(--c4);animation-name:c23}@keyframes c24{75.63%{fill:var(--c4)}75.65%,100%{fill:var(--ce)}}.c.c24{fill:var(--c4);animation-name:c24}@keyframes c25{77.64%{fill:var(--c4)}77.66%,100%{fill:var(--ce)}}.c.c25{fill:var(--c4);animation-name:c25}@keyframes c26{79.07%{fill:var(--c4)}79.09%,100%{fill:var(--ce)}}.c.c26{fill:var(--c4);animation-name:c26}@keyframes c27{71.91%{fill:var(--c4)}71.93%,100%{fill:var(--ce)}}.c.c27{fill:var(--c4);animation-name:c27}@keyframes c28{82.51%{fill:var(--c4)}82.53%,100%{fill:var(--ce)}}.c.c28{fill:var(--c4);animation-name:c28}@keyframes c29{83.37%{fill:var(--c4)}83.39%,100%{fill:var(--ce)}}.c.c29{fill:var(--c4);animation-name:c29}@keyframes c2a{75.06%{fill:var(--c4)}75.08%,100%{fill:var(--ce)}}.c.c2a{fill:var(--c4);animation-name:c2a}@keyframes c2b{75.92%{fill:var(--c4)}75.94%,100%{fill:var(--ce)}}.c.c2b{fill:var(--c4);animation-name:c2b}@keyframes c2c{77.35%{fill:var(--c4)}77.37%,100%{fill:var(--ce)}}.c.c2c{fill:var(--c4);animation-name:c2c}@keyframes c2d{79.36%{fill:var(--c4)}79.38%,100%{fill:var(--ce)}}.c.c2d{fill:var(--c4);animation-name:c2d}@keyframes c2e{72.2%{fill:var(--c4)}72.22%,100%{fill:var(--ce)}}.c.c2e{fill:var(--c4);animation-name:c2e}@keyframes c2f{82.22%{fill:var(--c4)}82.24%,100%{fill:var(--ce)}}.c.c2f{fill:var(--c4);animation-name:c2f}@keyframes c2g{83.66%{fill:var(--c4)}83.68%,100%{fill:var(--ce)}}.c.c2g{fill:var(--c4);animation-name:c2g}@keyframes c2h{74.78%{fill:var(--c4)}74.8%,100%{fill:var(--ce)}}.c.c2h{fill:var(--c4);animation-name:c2h}@keyframes c2i{76.21%{fill:var(--c4)}76.23%,100%{fill:var(--ce)}}.c.c2i{fill:var(--c4);animation-name:c2i}@keyframes c2j{77.07%{fill:var(--c4)}77.09%,100%{fill:var(--ce)}}.c.c2j{fill:var(--c4);animation-name:c2j}@keyframes c2k{79.65%{fill:var(--c4)}79.67%,100%{fill:var(--ce)}}.c.c2k{fill:var(--c4);animation-name:c2k}@keyframes c2l{72.48%{fill:var(--c4)}72.5%,100%{fill:var(--ce)}}.c.c2l{fill:var(--c4);animation-name:c2l}@keyframes c2m{81.94%{fill:var(--c4)}81.96%,100%{fill:var(--ce)}}.c.c2m{fill:var(--c4);animation-name:c2m}@keyframes c2n{81.65%{fill:var(--c4)}81.67%,100%{fill:var(--ce)}}.c.c2n{fill:var(--c4);animation-name:c2n}@keyframes c2o{74.49%{fill:var(--c4)}74.51%,100%{fill:var(--ce)}}.c.c2o{fill:var(--c4);animation-name:c2o}@keyframes c2p{76.49%{fill:var(--c4)}76.51%,100%{fill:var(--ce)}}.c.c2p{fill:var(--c4);animation-name:c2p}@keyframes c2q{76.78%{fill:var(--c4)}76.8%,100%{fill:var(--ce)}}.c.c2q{fill:var(--c4);animation-name:c2q}@keyframes c2r{79.93%{fill:var(--c4)}79.95%,100%{fill:var(--ce)}}.c.c2r{fill:var(--c4);animation-name:c2r}@keyframes c2s{72.77%{fill:var(--c4)}72.79%,100%{fill:var(--ce)}}.c.c2s{fill:var(--c4);animation-name:c2s}@keyframes c2t{80.51%{fill:var(--c4)}80.53%,100%{fill:var(--ce)}}.c.c2t{fill:var(--c4);animation-name:c2t}@keyframes c2u{81.37%{fill:var(--c4)}81.39%,100%{fill:var(--ce)}}.c.c2u{fill:var(--c4);animation-name:c2u}@keyframes c2v{74.2%{fill:var(--c4)}74.22%,100%{fill:var(--ce)}}.c.c2v{fill:var(--c4);animation-name:c2v}@keyframes c2w{73.92%{fill:var(--c4)}73.94%,100%{fill:var(--ce)}}.c.c2w{fill:var(--c4);animation-name:c2w}@keyframes c2x{73.63%{fill:var(--c4)}73.65%,100%{fill:var(--ce)}}.c.c2x{fill:var(--c4);animation-name:c2x}@keyframes c2y{73.34%{fill:var(--c4)}73.36%,100%{fill:var(--ce)}}.c.c2y{fill:var(--c4);animation-name:c2y}@keyframes c2z{73.06%{fill:var(--c4)}73.08%,100%{fill:var(--ce)}}.c.c2z{fill:var(--c4);animation-name:c2z}@keyframes c30{80.79%{fill:var(--c4)}80.81%,100%{fill:var(--ce)}}.c.c30{fill:var(--c4);animation-name:c30}@keyframes c31{43.83%{fill:var(--c2)}43.85%,100%{fill:var(--ce)}}.c.c31{fill:var(--c2);animation-name:c31}.u{transform-origin:0 0;transform:scale(0,1);animation:none linear 34900ms infinite}@keyframes u0{3.43%{transform:scale(0.000,1)}3.45%,3.71%{transform:scale(0.111,1)}3.73%,5.43%{transform:scale(0.222,1)}5.45%,10.59%{transform:scale(0.333,1)}10.61%,13.74%{transform:scale(0.444,1)}13.76%,14.32%{transform:scale(0.556,1)}14.34%,15.18%{transform:scale(0.667,1)}15.2%,15.46%{transform:scale(0.778,1)}15.48%,17.47%{transform:scale(0.889,1)}17.49%,100%{transform:scale(1.000,1)}}.u.u0{fill:var(--c1);animation-name:u0;transform-origin:0.0px 0}@keyframes u1{18.61%{transform:scale(0.000,1)}18.63%,18.9%{transform:scale(0.018,1)}18.92%,19.19%{transform:scale(0.036,1)}19.21%,19.47%{transform:scale(0.055,1)}19.49%,19.76%{transform:scale(0.073,1)}19.78%,20.05%{transform:scale(0.091,1)}20.07%,20.33%{transform:scale(0.109,1)}20.35%,20.62%{transform:scale(0.127,1)}20.64%,21.77%{transform:scale(0.145,1)}21.79%,22.05%{transform:scale(0.164,1)}22.07%,22.34%{transform:scale(0.182,1)}22.36%,22.63%{transform:scale(0.200,1)}22.65%,22.91%{transform:scale(0.218,1)}22.93%,23.2%{transform:scale(0.236,1)}23.22%,23.49%{transform:scale(0.255,1)}23.51%,23.77%{transform:scale(0.273,1)}23.79%,24.06%{transform:scale(0.291,1)}24.08%,24.35%{transform:scale(0.309,1)}24.37%,24.63%{transform:scale(0.327,1)}24.65%,24.92%{transform:scale(0.345,1)}24.94%,25.2%{transform:scale(0.364,1)}25.22%,25.49%{transform:scale(0.382,1)}25.51%,25.78%{transform:scale(0.400,1)}25.8%,26.06%{transform:scale(0.418,1)}26.08%,26.35%{transform:scale(0.436,1)}26.37%,26.64%{transform:scale(0.455,1)}26.66%,26.92%{transform:scale(0.473,1)}26.94%,28.64%{transform:scale(0.491,1)}28.66%,28.93%{transform:scale(0.509,1)}28.95%,29.22%{transform:scale(0.527,1)}29.24%,29.5%{transform:scale(0.545,1)}29.52%,29.79%{transform:scale(0.564,1)}29.81%,30.08%{transform:scale(0.582,1)}30.1%,30.36%{transform:scale(0.600,1)}30.38%,30.65%{transform:scale(0.618,1)}30.67%,30.94%{transform:scale(0.636,1)}30.96%,31.22%{transform:scale(0.655,1)}31.24%,31.51%{transform:scale(0.673,1)}31.53%,31.8%{transform:scale(0.691,1)}31.82%,32.37%{transform:scale(0.709,1)}32.39%,32.65%{transform:scale(0.727,1)}32.67%,32.94%{transform:scale(0.745,1)}32.96%,34.37%{transform:scale(0.764,1)}34.39%,34.66%{transform:scale(0.782,1)}34.68%,34.95%{transform:scale(0.800,1)}34.97%,35.23%{transform:scale(0.818,1)}35.25%,35.52%{transform:scale(0.836,1)}35.54%,35.81%{transform:scale(0.855,1)}35.83%,36.09%{transform:scale(0.873,1)}36.11%,36.95%{transform:scale(0.891,1)}36.97%,37.24%{transform:scale(0.909,1)}37.26%,38.39%{transform:scale(0.927,1)}38.41%,43.83%{transform:scale(0.945,1)}43.85%,55.86%{transform:scale(0.964,1)}55.88%,58.44%{transform:scale(0.982,1)}58.46%,100%{transform:scale(1.000,1)}}.u.u1{fill:var(--c2);animation-name:u1;transform-origin:69.4px 0}@keyframes u2{63.31%{transform:scale(0.000,1)}63.33%,67.9%{transform:scale(0.022,1)}67.92%,68.18%{transform:scale(0.043,1)}68.2%,69.04%{transform:scale(0.065,1)}69.06%,70.48%{transform:scale(0.087,1)}70.5%,71.62%{transform:scale(0.109,1)}71.64%,71.91%{transform:scale(0.130,1)}71.93%,72.2%{transform:scale(0.152,1)}72.22%,72.48%{transform:scale(0.174,1)}72.5%,72.77%{transform:scale(0.196,1)}72.79%,73.06%{transform:scale(0.217,1)}73.08%,73.34%{transform:scale(0.239,1)}73.36%,73.63%{transform:scale(0.261,1)}73.65%,73.92%{transform:scale(0.283,1)}73.94%,74.2%{transform:scale(0.304,1)}74.22%,74.49%{transform:scale(0.326,1)}74.51%,74.78%{transform:scale(0.348,1)}74.8%,75.06%{transform:scale(0.370,1)}75.08%,75.35%{transform:scale(0.391,1)}75.37%,75.63%{transform:scale(0.413,1)}75.65%,75.92%{transform:scale(0.435,1)}75.94%,76.21%{transform:scale(0.457,1)}76.23%,76.49%{transform:scale(0.478,1)}76.51%,76.78%{transform:scale(0.500,1)}76.8%,77.07%{transform:scale(0.522,1)}77.09%,77.35%{transform:scale(0.543,1)}77.37%,77.64%{transform:scale(0.565,1)}77.66%,77.93%{transform:scale(0.587,1)}77.95%,78.21%{transform:scale(0.609,1)}78.23%,79.07%{transform:scale(0.630,1)}79.09%,79.36%{transform:scale(0.652,1)}79.38%,79.65%{transform:scale(0.674,1)}79.67%,79.93%{transform:scale(0.696,1)}79.95%,80.51%{transform:scale(0.717,1)}80.53%,80.79%{transform:scale(0.739,1)}80.81%,81.37%{transform:scale(0.761,1)}81.39%,81.65%{transform:scale(0.783,1)}81.67%,81.94%{transform:scale(0.804,1)}81.96%,82.22%{transform:scale(0.826,1)}82.24%,82.51%{transform:scale(0.848,1)}82.53%,82.8%{transform:scale(0.870,1)}82.82%,83.08%{transform:scale(0.891,1)}83.1%,83.37%{transform:scale(0.913,1)}83.39%,83.66%{transform:scale(0.935,1)}83.68%,85.09%{transform:scale(0.957,1)}85.11%,89.1%{transform:scale(0.978,1)}89.12%,100%{transform:scale(1.000,1)}}.u.u2{fill:var(--c4);animation-name:u2;transform-origin:493.4px 0}.s{shape-rendering:geometricPrecision;fill:var(--cs);animation:none linear 34900ms infinite}@keyframes s0{0%,99.71%{transform:translate(0px,-16px)}0.29%{transform:translate(0px,0px)}3.44%{transform:translate(176px,0px)}3.72%{transform:translate(176px,16px)}4.3%{transform:translate(144px,16px)}5.44%{transform:translate(144px,80px)}10.03%{transform:translate(400px,80px)}10.6%{transform:translate(400px,48px)}13.75%{transform:translate(576px,48px)}14.04%{transform:translate(576px,64px)}14.33%{transform:translate(560px,64px)}14.61%{transform:translate(560px,80px)}15.19%{transform:translate(592px,80px)}15.47%{transform:translate(592px,96px)}15.76%{transform:translate(608px,96px)}17.19%{transform:translate(608px,16px)}17.48%{transform:translate(592px,16px)}17.77%{transform:translate(592px,0px)}20.63%,85.96%{transform:translate(752px,0px)}20.92%{transform:translate(752px,-16px)}21.2%{transform:translate(736px,-16px)}21.78%{transform:translate(736px,16px)}22.92%{transform:translate(672px,16px)}23.21%{transform:translate(672px,32px)}24.36%{transform:translate(736px,32px)}24.64%{transform:translate(736px,48px)}26.07%{transform:translate(656px,48px)}26.36%,68.77%{transform:translate(656px,32px)}26.65%{transform:translate(640px,32px)}27.22%{transform:translate(640px,0px)}27.51%{transform:translate(624px,0px)}27.79%{transform:translate(624px,16px)}28.08%{transform:translate(640px,16px)}28.94%,36.39%{transform:translate(640px,64px)}29.51%{transform:translate(672px,64px)}29.8%{transform:translate(672px,80px)}30.95%,33.24%,46.99%{transform:translate(736px,80px)}31.23%{transform:translate(736px,64px)}31.81%{transform:translate(704px,64px)}32.38%{transform:translate(704px,96px)}32.95%{transform:translate(736px,96px)}34.1%{transform:translate(688px,80px)}34.38%{transform:translate(688px,96px)}34.96%{transform:translate(656px,96px)}35.24%{transform:translate(656px,80px)}35.82%{transform:translate(624px,80px)}36.1%,67.62%{transform:translate(624px,64px)}36.96%{transform:translate(640px,96px)}38.4%{transform:translate(560px,96px)}38.68%{transform:translate(560px,112px)}43.55%{transform:translate(832px,112px)}43.84%,81.09%{transform:translate(832px,96px)}44.13%{transform:translate(848px,96px)}44.41%{transform:translate(848px,112px)}46.42%{transform:translate(736px,112px)}53.58%{transform:translate(368px,80px)}53.87%{transform:translate(368px,64px)}57.88%{transform:translate(144px,64px)}58.45%{transform:translate(144px,96px)}62.75%{transform:translate(384px,96px)}63.32%{transform:translate(384px,64px)}68.19%{transform:translate(624px,32px)}69.05%{transform:translate(656px,16px)}69.63%{transform:translate(688px,16px)}70.49%{transform:translate(688px,64px)}73.07%{transform:translate(832px,64px)}74.21%{transform:translate(832px,0px)}75.36%{transform:translate(768px,0px)}75.64%,78.51%{transform:translate(768px,16px)}76.5%{transform:translate(816px,16px)}76.79%{transform:translate(816px,32px)}77.94%{transform:translate(752px,32px)}78.22%{transform:translate(752px,16px)}79.08%{transform:translate(768px,48px)}79.94%{transform:translate(816px,48px)}80.52%{transform:translate(816px,80px)}80.8%{transform:translate(832px,80px)}81.66%{transform:translate(800px,96px)}81.95%{transform:translate(800px,80px)}82.81%{transform:translate(752px,80px)}83.09%{transform:translate(752px,96px)}83.67%{transform:translate(784px,96px)}84.53%{transform:translate(784px,48px)}85.1%{transform:translate(752px,48px)}98.28%{transform:translate(64px,0px)}98.57%{transform:translate(64px,-16px)}}.s.s0{transform:translate(0px,-16px);animation-name:s0}@keyframes s1{0%,99.71%{transform:translate(16px,-16px)}0.29%{transform:translate(0px,-16px)}0.57%{transform:translate(0px,0px)}3.72%{transform:translate(176px,0px)}4.01%{transform:translate(176px,16px)}4.58%{transform:translate(144px,16px)}5.73%{transform:translate(144px,80px)}10.32%{transform:translate(400px,80px)}10.89%{transform:translate(400px,48px)}14.04%{transform:translate(576px,48px)}14.33%{transform:translate(576px,64px)}14.61%{transform:translate(560px,64px)}14.9%{transform:translate(560px,80px)}15.47%{transform:translate(592px,80px)}15.76%{transform:translate(592px,96px)}16.05%{transform:translate(608px,96px)}17.48%{transform:translate(608px,16px)}17.77%{transform:translate(592px,16px)}18.05%{transform:translate(592px,0px)}20.92%,86.25%{transform:translate(752px,0px)}21.2%{transform:translate(752px,-16px)}21.49%{transform:translate(736px,-16px)}22.06%{transform:translate(736px,16px)}23.21%{transform:translate(672px,16px)}23.5%{transform:translate(672px,32px)}24.64%{transform:translate(736px,32px)}24.93%{transform:translate(736px,48px)}26.36%{transform:translate(656px,48px)}26.65%,69.05%{transform:translate(656px,32px)}26.93%{transform:translate(640px,32px)}27.51%{transform:translate(640px,0px)}27.79%{transform:translate(624px,0px)}28.08%{transform:translate(624px,16px)}28.37%{transform:translate(640px,16px)}29.23%,36.68%{transform:translate(640px,64px)}29.8%{transform:translate(672px,64px)}30.09%{transform:translate(672px,80px)}31.23%,33.52%,47.28%{transform:translate(736px,80px)}31.52%{transform:translate(736px,64px)}32.09%{transform:translate(704px,64px)}32.66%{transform:translate(704px,96px)}33.24%{transform:translate(736px,96px)}34.38%{transform:translate(688px,80px)}34.67%{transform:translate(688px,96px)}35.24%{transform:translate(656px,96px)}35.53%{transform:translate(656px,80px)}36.1%{transform:translate(624px,80px)}36.39%,67.91%{transform:translate(624px,64px)}37.25%{transform:translate(640px,96px)}38.68%{transform:translate(560px,96px)}38.97%{transform:translate(560px,112px)}43.84%{transform:translate(832px,112px)}44.13%,81.38%{transform:translate(832px,96px)}44.41%{transform:translate(848px,96px)}44.7%{transform:translate(848px,112px)}46.7%{transform:translate(736px,112px)}53.87%{transform:translate(368px,80px)}54.15%{transform:translate(368px,64px)}58.17%{transform:translate(144px,64px)}58.74%{transform:translate(144px,96px)}63.04%{transform:translate(384px,96px)}63.61%{transform:translate(384px,64px)}68.48%{transform:translate(624px,32px)}69.34%{transform:translate(656px,16px)}69.91%{transform:translate(688px,16px)}70.77%{transform:translate(688px,64px)}73.35%{transform:translate(832px,64px)}74.5%{transform:translate(832px,0px)}75.64%{transform:translate(768px,0px)}75.93%,78.8%{transform:translate(768px,16px)}76.79%{transform:translate(816px,16px)}77.08%{transform:translate(816px,32px)}78.22%{transform:translate(752px,32px)}78.51%{transform:translate(752px,16px)}79.37%{transform:translate(768px,48px)}80.23%{transform:translate(816px,48px)}80.8%{transform:translate(816px,80px)}81.09%{transform:translate(832px,80px)}81.95%{transform:translate(800px,96px)}82.23%{transform:translate(800px,80px)}83.09%{transform:translate(752px,80px)}83.38%{transform:translate(752px,96px)}83.95%{transform:translate(784px,96px)}84.81%{transform:translate(784px,48px)}85.39%{transform:translate(752px,48px)}98.57%{transform:translate(64px,0px)}98.85%{transform:translate(64px,-16px)}}.s.s1{transform:translate(16px,-16px);animation-name:s1}@keyframes s2{0%,99.71%{transform:translate(32px,-16px)}0.57%{transform:translate(0px,-16px)}0.86%{transform:translate(0px,0px)}4.01%{transform:translate(176px,0px)}4.3%{transform:translate(176px,16px)}4.87%{transform:translate(144px,16px)}6.02%{transform:translate(144px,80px)}10.6%{transform:translate(400px,80px)}11.17%{transform:translate(400px,48px)}14.33%{transform:translate(576px,48px)}14.61%{transform:translate(576px,64px)}14.9%{transform:translate(560px,64px)}15.19%{transform:translate(560px,80px)}15.76%{transform:translate(592px,80px)}16.05%{transform:translate(592px,96px)}16.33%{transform:translate(608px,96px)}17.77%{transform:translate(608px,16px)}18.05%{transform:translate(592px,16px)}18.34%{transform:translate(592px,0px)}21.2%,86.53%{transform:translate(752px,0px)}21.49%{transform:translate(752px,-16px)}21.78%{transform:translate(736px,-16px)}22.35%{transform:translate(736px,16px)}23.5%{transform:translate(672px,16px)}23.78%{transform:translate(672px,32px)}24.93%{transform:translate(736px,32px)}25.21%{transform:translate(736px,48px)}26.65%{transform:translate(656px,48px)}26.93%,69.34%{transform:translate(656px,32px)}27.22%{transform:translate(640px,32px)}27.79%{transform:translate(640px,0px)}28.08%{transform:translate(624px,0px)}28.37%{transform:translate(624px,16px)}28.65%{transform:translate(640px,16px)}29.51%,36.96%{transform:translate(640px,64px)}30.09%{transform:translate(672px,64px)}30.37%{transform:translate(672px,80px)}31.52%,33.81%,47.56%{transform:translate(736px,80px)}31.81%{transform:translate(736px,64px)}32.38%{transform:translate(704px,64px)}32.95%{transform:translate(704px,96px)}33.52%{transform:translate(736px,96px)}34.67%{transform:translate(688px,80px)}34.96%{transform:translate(688px,96px)}35.53%{transform:translate(656px,96px)}35.82%{transform:translate(656px,80px)}36.39%{transform:translate(624px,80px)}36.68%,68.19%{transform:translate(624px,64px)}37.54%{transform:translate(640px,96px)}38.97%{transform:translate(560px,96px)}39.26%{transform:translate(560px,112px)}44.13%{transform:translate(832px,112px)}44.41%,81.66%{transform:translate(832px,96px)}44.7%{transform:translate(848px,96px)}44.99%{transform:translate(848px,112px)}46.99%{transform:translate(736px,112px)}54.15%{transform:translate(368px,80px)}54.44%{transform:translate(368px,64px)}58.45%{transform:translate(144px,64px)}59.03%{transform:translate(144px,96px)}63.32%{transform:translate(384px,96px)}63.9%{transform:translate(384px,64px)}68.77%{transform:translate(624px,32px)}69.63%{transform:translate(656px,16px)}70.2%{transform:translate(688px,16px)}71.06%{transform:translate(688px,64px)}73.64%{transform:translate(832px,64px)}74.79%{transform:translate(832px,0px)}75.93%{transform:translate(768px,0px)}76.22%,79.08%{transform:translate(768px,16px)}77.08%{transform:translate(816px,16px)}77.36%{transform:translate(816px,32px)}78.51%{transform:translate(752px,32px)}78.8%{transform:translate(752px,16px)}79.66%{transform:translate(768px,48px)}80.52%{transform:translate(816px,48px)}81.09%{transform:translate(816px,80px)}81.38%{transform:translate(832px,80px)}82.23%{transform:translate(800px,96px)}82.52%{transform:translate(800px,80px)}83.38%{transform:translate(752px,80px)}83.67%{transform:translate(752px,96px)}84.24%{transform:translate(784px,96px)}85.1%{transform:translate(784px,48px)}85.67%{transform:translate(752px,48px)}98.85%{transform:translate(64px,0px)}99.14%{transform:translate(64px,-16px)}}.s.s2{transform:translate(32px,-16px);animation-name:s2}@keyframes s3{0%,99.71%{transform:translate(48px,-16px)}0.86%{transform:translate(0px,-16px)}1.15%{transform:translate(0px,0px)}4.3%{transform:translate(176px,0px)}4.58%{transform:translate(176px,16px)}5.16%{transform:translate(144px,16px)}6.3%{transform:translate(144px,80px)}10.89%{transform:translate(400px,80px)}11.46%{transform:translate(400px,48px)}14.61%{transform:translate(576px,48px)}14.9%{transform:translate(576px,64px)}15.19%{transform:translate(560px,64px)}15.47%{transform:translate(560px,80px)}16.05%{transform:translate(592px,80px)}16.33%{transform:translate(592px,96px)}16.62%{transform:translate(608px,96px)}18.05%{transform:translate(608px,16px)}18.34%{transform:translate(592px,16px)}18.62%{transform:translate(592px,0px)}21.49%,86.82%{transform:translate(752px,0px)}21.78%{transform:translate(752px,-16px)}22.06%{transform:translate(736px,-16px)}22.64%{transform:translate(736px,16px)}23.78%{transform:translate(672px,16px)}24.07%{transform:translate(672px,32px)}25.21%{transform:translate(736px,32px)}25.5%{transform:translate(736px,48px)}26.93%{transform:translate(656px,48px)}27.22%,69.63%{transform:translate(656px,32px)}27.51%{transform:translate(640px,32px)}28.08%{transform:translate(640px,0px)}28.37%{transform:translate(624px,0px)}28.65%{transform:translate(624px,16px)}28.94%{transform:translate(640px,16px)}29.8%,37.25%{transform:translate(640px,64px)}30.37%{transform:translate(672px,64px)}30.66%{transform:translate(672px,80px)}31.81%,34.1%,47.85%{transform:translate(736px,80px)}32.09%{transform:translate(736px,64px)}32.66%{transform:translate(704px,64px)}33.24%{transform:translate(704px,96px)}33.81%{transform:translate(736px,96px)}34.96%{transform:translate(688px,80px)}35.24%{transform:translate(688px,96px)}35.82%{transform:translate(656px,96px)}36.1%{transform:translate(656px,80px)}36.68%{transform:translate(624px,80px)}36.96%,68.48%{transform:translate(624px,64px)}37.82%{transform:translate(640px,96px)}39.26%{transform:translate(560px,96px)}39.54%{transform:translate(560px,112px)}44.41%{transform:translate(832px,112px)}44.7%,81.95%{transform:translate(832px,96px)}44.99%{transform:translate(848px,96px)}45.27%{transform:translate(848px,112px)}47.28%{transform:translate(736px,112px)}54.44%{transform:translate(368px,80px)}54.73%{transform:translate(368px,64px)}58.74%{transform:translate(144px,64px)}59.31%{transform:translate(144px,96px)}63.61%{transform:translate(384px,96px)}64.18%{transform:translate(384px,64px)}69.05%{transform:translate(624px,32px)}69.91%{transform:translate(656px,16px)}70.49%{transform:translate(688px,16px)}71.35%{transform:translate(688px,64px)}73.93%{transform:translate(832px,64px)}75.07%{transform:translate(832px,0px)}76.22%{transform:translate(768px,0px)}76.5%,79.37%{transform:translate(768px,16px)}77.36%{transform:translate(816px,16px)}77.65%{transform:translate(816px,32px)}78.8%{transform:translate(752px,32px)}79.08%{transform:translate(752px,16px)}79.94%{transform:translate(768px,48px)}80.8%{transform:translate(816px,48px)}81.38%{transform:translate(816px,80px)}81.66%{transform:translate(832px,80px)}82.52%{transform:translate(800px,96px)}82.81%{transform:translate(800px,80px)}83.67%{transform:translate(752px,80px)}83.95%{transform:translate(752px,96px)}84.53%{transform:translate(784px,96px)}85.39%{transform:translate(784px,48px)}85.96%{transform:translate(752px,48px)}99.14%{transform:translate(64px,0px)}99.43%{transform:translate(64px,-16px)}}.s.s3{transform:translate(48px,-16px);animation-name:s3}</style><rect class="c" x="2" y="2" rx="2" ry="2"/><rect class="c" x="2" y="18" rx="2" ry="2"/><rect class="c" x="2" y="34" rx="2" ry="2"/><rect class="c" x="2" y="50" rx="2" ry="2"/><rect class="c" x="2" y="66" rx="2" ry="2"/><rect class="c" x="2" y="82" rx="2" ry="2"/><rect class="c" x="2" y="98" rx="2" ry="2"/><rect class="c" x="18" y="2" rx="2" ry="2"/><rect class="c" x="18" y="18" rx="2" ry="2"/><rect class="c" x="18" y="34" rx="2" ry="2"/><rect class="c" x="18" y="50" rx="2" ry="2"/><rect class="c" x="18" y="66" rx="2" ry="2"/><rect class="c" x="18" y="82" rx="2" ry="2"/><rect class="c" x="18" y="98" rx="2" ry="2"/><rect class="c" x="34" y="2" rx="2" ry="2"/><rect class="c" x="34" y="18" rx="2" ry="2"/><rect class="c" x="34" y="34" rx="2" ry="2"/><rect class="c" x="34" y="50" rx="2" ry="2"/><rect class="c" x="34" y="66" rx="2" ry="2"/><rect class="c" x="34" y="82" rx="2" ry="2"/><rect class="c" x="34" y="98" rx="2" ry="2"/><rect class="c" x="50" y="2" rx="2" ry="2"/><rect class="c" x="50" y="18" rx="2" ry="2"/><rect class="c" x="50" y="34" rx="2" ry="2"/><rect class="c" x="50" y="50" rx="2" ry="2"/><rect class="c" x="50" y="66" rx="2" ry="2"/><rect class="c" x="50" y="82" rx="2" ry="2"/><rect class="c" x="50" y="98" rx="2" ry="2"/><rect class="c" x="66" y="2" rx="2" ry="2"/><rect class="c" x="66" y="18" rx="2" ry="2"/><rect class="c" x="66" y="34" rx="2" ry="2"/><rect class="c" x="66" y="50" rx="2" ry="2"/><rect class="c" x="66" y="66" rx="2" ry="2"/><rect class="c" x="66" y="82" rx="2" ry="2"/><rect class="c" x="66" y="98" rx="2" ry="2"/><rect class="c" x="82" y="2" rx="2" ry="2"/><rect class="c" x="82" y="18" rx="2" ry="2"/><rect class="c" x="82" y="34" rx="2" ry="2"/><rect class="c" x="82" y="50" rx="2" ry="2"/><rect class="c" x="82" y="66" rx="2" ry="2"/><rect class="c" x="82" y="82" rx="2" ry="2"/><rect class="c" x="82" y="98" rx="2" ry="2"/><rect class="c" x="98" y="2" rx="2" ry="2"/><rect class="c" x="98" y="18" rx="2" ry="2"/><rect class="c" x="98" y="34" rx="2" ry="2"/><rect class="c" x="98" y="50" rx="2" ry="2"/><rect class="c" x="98" y="66" rx="2" ry="2"/><rect class="c" x="98" y="82" rx="2" ry="2"/><rect class="c" x="98" y="98" rx="2" ry="2"/><rect class="c" x="114" y="2" rx="2" ry="2"/><rect class="c" x="114" y="18" rx="2" ry="2"/><rect class="c" x="114" y="34" rx="2" ry="2"/><rect class="c" x="114" y="50" rx="2" ry="2"/><rect class="c" x="114" y="66" rx="2" ry="2"/><rect class="c" x="114" y="82" rx="2" ry="2"/><rect class="c" x="114" y="98" rx="2" ry="2"/><rect class="c" x="130" y="2" rx="2" ry="2"/><rect class="c" x="130" y="18" rx="2" ry="2"/><rect class="c" x="130" y="34" rx="2" ry="2"/><rect class="c" x="130" y="50" rx="2" ry="2"/><rect class="c" x="130" y="66" rx="2" ry="2"/><rect class="c" x="130" y="82" rx="2" ry="2"/><rect class="c" x="130" y="98" rx="2" ry="2"/><rect class="c" x="146" y="2" rx="2" ry="2"/><rect class="c" x="146" y="18" rx="2" ry="2"/><rect class="c" x="146" y="34" rx="2" ry="2"/><rect class="c" x="146" y="50" rx="2" ry="2"/><rect class="c" x="146" y="66" rx="2" ry="2"/><rect class="c c0" x="146" y="82" rx="2" ry="2"/><rect class="c c1" x="146" y="98" rx="2" ry="2"/><rect class="c" x="162" y="2" rx="2" ry="2"/><rect class="c" x="162" y="18" rx="2" ry="2"/><rect class="c" x="162" y="34" rx="2" ry="2"/><rect class="c" x="162" y="50" rx="2" ry="2"/><rect class="c" x="162" y="66" rx="2" ry="2"/><rect class="c" x="162" y="82" rx="2" ry="2"/><rect class="c" x="162" y="98" rx="2" ry="2"/><rect class="c c2" x="178" y="2" rx="2" ry="2"/><rect class="c c3" x="178" y="18" rx="2" ry="2"/><rect class="c" x="178" y="34" rx="2" ry="2"/><rect class="c" x="178" y="50" rx="2" ry="2"/><rect class="c" x="178" y="66" rx="2" ry="2"/><rect class="c" x="178" y="82" rx="2" ry="2"/><rect class="c" x="178" y="98" rx="2" ry="2"/><rect class="c" x="194" y="2" rx="2" ry="2"/><rect class="c" x="194" y="18" rx="2" ry="2"/><rect class="c" x="194" y="34" rx="2" ry="2"/><rect class="c" x="194" y="50" rx="2" ry="2"/><rect class="c" x="194" y="66" rx="2" ry="2"/><rect class="c" x="194" y="82" rx="2" ry="2"/><rect class="c" x="194" y="98" rx="2" ry="2"/><rect class="c" x="210" y="2" rx="2" ry="2"/><rect class="c" x="210" y="18" rx="2" ry="2"/><rect class="c" x="210" y="34" rx="2" ry="2"/><rect class="c" x="210" y="50" rx="2" ry="2"/><rect class="c" x="210" y="66" rx="2" ry="2"/><rect class="c" x="210" y="82" rx="2" ry="2"/><rect class="c" x="210" y="98" rx="2" ry="2"/><rect class="c" x="226" y="2" rx="2" ry="2"/><rect class="c" x="226" y="18" rx="2" ry="2"/><rect class="c" x="226" y="34" rx="2" ry="2"/><rect class="c" x="226" y="50" rx="2" ry="2"/><rect class="c" x="226" y="66" rx="2" ry="2"/><rect class="c" x="226" y="82" rx="2" ry="2"/><rect class="c" x="226" y="98" rx="2" ry="2"/><rect class="c" x="242" y="2" rx="2" ry="2"/><rect class="c" x="242" y="18" rx="2" ry="2"/><rect class="c" x="242" y="34" rx="2" ry="2"/><rect class="c" x="242" y="50" rx="2" ry="2"/><rect class="c" x="242" y="66" rx="2" ry="2"/><rect class="c" x="242" y="82" rx="2" ry="2"/><rect class="c" x="242" y="98" rx="2" ry="2"/><rect class="c" x="258" y="2" rx="2" ry="2"/><rect class="c" x="258" y="18" rx="2" ry="2"/><rect class="c" x="258" y="34" rx="2" ry="2"/><rect class="c" x="258" y="50" rx="2" ry="2"/><rect class="c c4" x="258" y="66" rx="2" ry="2"/><rect class="c" x="258" y="82" rx="2" ry="2"/><rect class="c" x="258" y="98" rx="2" ry="2"/><rect class="c" x="274" y="2" rx="2" ry="2"/><rect class="c" x="274" y="18" rx="2" ry="2"/><rect class="c" x="274" y="34" rx="2" ry="2"/><rect class="c" x="274" y="50" rx="2" ry="2"/><rect class="c" x="274" y="66" rx="2" ry="2"/><rect class="c" x="274" y="82" rx="2" ry="2"/><rect class="c" x="274" y="98" rx="2" ry="2"/><rect class="c" x="290" y="2" rx="2" ry="2"/><rect class="c" x="290" y="18" rx="2" ry="2"/><rect class="c" x="290" y="34" rx="2" ry="2"/><rect class="c" x="290" y="50" rx="2" ry="2"/><rect class="c" x="290" y="66" rx="2" ry="2"/><rect class="c" x="290" y="82" rx="2" ry="2"/><rect class="c" x="290" y="98" rx="2" ry="2"/><rect class="c" x="306" y="2" rx="2" ry="2"/><rect class="c" x="306" y="18" rx="2" ry="2"/><rect class="c" x="306" y="34" rx="2" ry="2"/><rect class="c" x="306" y="50" rx="2" ry="2"/><rect class="c" x="306" y="66" rx="2" ry="2"/><rect class="c" x="306" y="82" rx="2" ry="2"/><rect class="c" x="306" y="98" rx="2" ry="2"/><rect class="c" x="322" y="2" rx="2" ry="2"/><rect class="c" x="322" y="18" rx="2" ry="2"/><rect class="c" x="322" y="34" rx="2" ry="2"/><rect class="c" x="322" y="50" rx="2" ry="2"/><rect class="c" x="322" y="66" rx="2" ry="2"/><rect class="c" x="322" y="82" rx="2" ry="2"/><rect class="c" x="322" y="98" rx="2" ry="2"/><rect class="c" x="338" y="2" rx="2" ry="2"/><rect class="c" x="338" y="18" rx="2" ry="2"/><rect class="c" x="338" y="34" rx="2" ry="2"/><rect class="c" x="338" y="50" rx="2" ry="2"/><rect class="c" x="338" y="66" rx="2" ry="2"/><rect class="c" x="338" y="82" rx="2" ry="2"/><rect class="c" x="338" y="98" rx="2" ry="2"/><rect class="c" x="354" y="2" rx="2" ry="2"/><rect class="c" x="354" y="18" rx="2" ry="2"/><rect class="c" x="354" y="34" rx="2" ry="2"/><rect class="c" x="354" y="50" rx="2" ry="2"/><rect class="c" x="354" y="66" rx="2" ry="2"/><rect class="c" x="354" y="82" rx="2" ry="2"/><rect class="c" x="354" y="98" rx="2" ry="2"/><rect class="c" x="370" y="2" rx="2" ry="2"/><rect class="c" x="370" y="18" rx="2" ry="2"/><rect class="c" x="370" y="34" rx="2" ry="2"/><rect class="c" x="370" y="50" rx="2" ry="2"/><rect class="c" x="370" y="66" rx="2" ry="2"/><rect class="c" x="370" y="82" rx="2" ry="2"/><rect class="c" x="370" y="98" rx="2" ry="2"/><rect class="c" x="386" y="2" rx="2" ry="2"/><rect class="c" x="386" y="18" rx="2" ry="2"/><rect class="c" x="386" y="34" rx="2" ry="2"/><rect class="c" x="386" y="50" rx="2" ry="2"/><rect class="c c5" x="386" y="66" rx="2" ry="2"/><rect class="c" x="386" y="82" rx="2" ry="2"/><rect class="c" x="386" y="98" rx="2" ry="2"/><rect class="c" x="402" y="2" rx="2" ry="2"/><rect class="c" x="402" y="18" rx="2" ry="2"/><rect class="c" x="402" y="34" rx="2" ry="2"/><rect class="c c6" x="402" y="50" rx="2" ry="2"/><rect class="c" x="402" y="66" rx="2" ry="2"/><rect class="c" x="402" y="82" rx="2" ry="2"/><rect class="c" x="402" y="98" rx="2" ry="2"/><rect class="c" x="418" y="2" rx="2" ry="2"/><rect class="c" x="418" y="18" rx="2" ry="2"/><rect class="c" x="418" y="34" rx="2" ry="2"/><rect class="c" x="418" y="50" rx="2" ry="2"/><rect class="c" x="418" y="66" rx="2" ry="2"/><rect class="c" x="418" y="82" rx="2" ry="2"/><rect class="c" x="418" y="98" rx="2" ry="2"/><rect class="c" x="434" y="2" rx="2" ry="2"/><rect class="c" x="434" y="18" rx="2" ry="2"/><rect class="c" x="434" y="34" rx="2" ry="2"/><rect class="c" x="434" y="50" rx="2" ry="2"/><rect class="c" x="434" y="66" rx="2" ry="2"/><rect class="c" x="434" y="82" rx="2" ry="2"/><rect class="c" x="434" y="98" rx="2" ry="2"/><rect class="c" x="450" y="2" rx="2" ry="2"/><rect class="c" x="450" y="18" rx="2" ry="2"/><rect class="c" x="450" y="34" rx="2" ry="2"/><rect class="c" x="450" y="50" rx="2" ry="2"/><rect class="c" x="450" y="66" rx="2" ry="2"/><rect class="c" x="450" y="82" rx="2" ry="2"/><rect class="c" x="450" y="98" rx="2" ry="2"/><rect class="c" x="466" y="2" rx="2" ry="2"/><rect class="c" x="466" y="18" rx="2" ry="2"/><rect class="c" x="466" y="34" rx="2" ry="2"/><rect class="c" x="466" y="50" rx="2" ry="2"/><rect class="c" x="466" y="66" rx="2" ry="2"/><rect class="c" x="466" y="82" rx="2" ry="2"/><rect class="c" x="466" y="98" rx="2" ry="2"/><rect class="c" x="482" y="2" rx="2" ry="2"/><rect class="c" x="482" y="18" rx="2" ry="2"/><rect class="c" x="482" y="34" rx="2" ry="2"/><rect class="c" x="482" y="50" rx="2" ry="2"/><rect class="c" x="482" y="66" rx="2" ry="2"/><rect class="c" x="482" y="82" rx="2" ry="2"/><rect class="c" x="482" y="98" rx="2" ry="2"/><rect class="c" x="498" y="2" rx="2" ry="2"/><rect class="c" x="498" y="18" rx="2" ry="2"/><rect class="c" x="498" y="34" rx="2" ry="2"/><rect class="c" x="498" y="50" rx="2" ry="2"/><rect class="c" x="498" y="66" rx="2" ry="2"/><rect class="c" x="498" y="82" rx="2" ry="2"/><rect class="c" x="498" y="98" rx="2" ry="2"/><rect class="c" x="514" y="2" rx="2" ry="2"/><rect class="c" x="514" y="18" rx="2" ry="2"/><rect class="c" x="514" y="34" rx="2" ry="2"/><rect class="c" x="514" y="50" rx="2" ry="2"/><rect class="c" x="514" y="66" rx="2" ry="2"/><rect class="c" x="514" y="82" rx="2" ry="2"/><rect class="c" x="514" y="98" rx="2" ry="2"/><rect class="c" x="530" y="2" rx="2" ry="2"/><rect class="c" x="530" y="18" rx="2" ry="2"/><rect class="c" x="530" y="34" rx="2" ry="2"/><rect class="c" x="530" y="50" rx="2" ry="2"/><rect class="c" x="530" y="66" rx="2" ry="2"/><rect class="c" x="530" y="82" rx="2" ry="2"/><rect class="c" x="530" y="98" rx="2" ry="2"/><rect class="c" x="546" y="2" rx="2" ry="2"/><rect class="c" x="546" y="18" rx="2" ry="2"/><rect class="c" x="546" y="34" rx="2" ry="2"/><rect class="c" x="546" y="50" rx="2" ry="2"/><rect class="c" x="546" y="66" rx="2" ry="2"/><rect class="c" x="546" y="82" rx="2" ry="2"/><rect class="c" x="546" y="98" rx="2" ry="2"/><rect class="c" x="562" y="2" rx="2" ry="2"/><rect class="c" x="562" y="18" rx="2" ry="2"/><rect class="c" x="562" y="34" rx="2" ry="2"/><rect class="c" x="562" y="50" rx="2" ry="2"/><rect class="c c7" x="562" y="66" rx="2" ry="2"/><rect class="c" x="562" y="82" rx="2" ry="2"/><rect class="c c8" x="562" y="98" rx="2" ry="2"/><rect class="c c9" x="578" y="2" rx="2" ry="2"/><rect class="c" x="578" y="18" rx="2" ry="2"/><rect class="c" x="578" y="34" rx="2" ry="2"/><rect class="c ca" x="578" y="50" rx="2" ry="2"/><rect class="c" x="578" y="66" rx="2" ry="2"/><rect class="c" x="578" y="82" rx="2" ry="2"/><rect class="c" x="578" y="98" rx="2" ry="2"/><rect class="c" x="594" y="2" rx="2" ry="2"/><rect class="c cb" x="594" y="18" rx="2" ry="2"/><rect class="c" x="594" y="34" rx="2" ry="2"/><rect class="c" x="594" y="50" rx="2" ry="2"/><rect class="c" x="594" y="66" rx="2" ry="2"/><rect class="c cc" x="594" y="82" rx="2" ry="2"/><rect class="c cd" x="594" y="98" rx="2" ry="2"/><rect class="c" x="610" y="2" rx="2" ry="2"/><rect class="c" x="610" y="18" rx="2" ry="2"/><rect class="c" x="610" y="34" rx="2" ry="2"/><rect class="c" x="610" y="50" rx="2" ry="2"/><rect class="c" x="610" y="66" rx="2" ry="2"/><rect class="c" x="610" y="82" rx="2" ry="2"/><rect class="c" x="610" y="98" rx="2" ry="2"/><rect class="c" x="626" y="2" rx="2" ry="2"/><rect class="c" x="626" y="18" rx="2" ry="2"/><rect class="c ce" x="626" y="34" rx="2" ry="2"/><rect class="c cf" x="626" y="50" rx="2" ry="2"/><rect class="c cg" x="626" y="66" rx="2" ry="2"/><rect class="c ch" x="626" y="82" rx="2" ry="2"/><rect class="c ci" x="626" y="98" rx="2" ry="2"/><rect class="c cj" x="642" y="2" rx="2" ry="2"/><rect class="c ck" x="642" y="18" rx="2" ry="2"/><rect class="c cl" x="642" y="34" rx="2" ry="2"/><rect class="c cm" x="642" y="50" rx="2" ry="2"/><rect class="c cn" x="642" y="66" rx="2" ry="2"/><rect class="c co" x="642" y="82" rx="2" ry="2"/><rect class="c cp" x="642" y="98" rx="2" ry="2"/><rect class="c cq" x="658" y="2" rx="2" ry="2"/><rect class="c cr" x="658" y="18" rx="2" ry="2"/><rect class="c cs" x="658" y="34" rx="2" ry="2"/><rect class="c ct" x="658" y="50" rx="2" ry="2"/><rect class="c cu" x="658" y="66" rx="2" ry="2"/><rect class="c cv" x="658" y="82" rx="2" ry="2"/><rect class="c cw" x="658" y="98" rx="2" ry="2"/><rect class="c cx" x="674" y="2" rx="2" ry="2"/><rect class="c cy" x="674" y="18" rx="2" ry="2"/><rect class="c cz" x="674" y="34" rx="2" ry="2"/><rect class="c c10" x="674" y="50" rx="2" ry="2"/><rect class="c c11" x="674" y="66" rx="2" ry="2"/><rect class="c c12" x="674" y="82" rx="2" ry="2"/><rect class="c c13" x="674" y="98" rx="2" ry="2"/><rect class="c c14" x="690" y="2" rx="2" ry="2"/><rect class="c c15" x="690" y="18" rx="2" ry="2"/><rect class="c c16" x="690" y="34" rx="2" ry="2"/><rect class="c c17" x="690" y="50" rx="2" ry="2"/><rect class="c c18" x="690" y="66" rx="2" ry="2"/><rect class="c c19" x="690" y="82" rx="2" ry="2"/><rect class="c c1a" x="690" y="98" rx="2" ry="2"/><rect class="c c1b" x="706" y="2" rx="2" ry="2"/><rect class="c c1c" x="706" y="18" rx="2" ry="2"/><rect class="c c1d" x="706" y="34" rx="2" ry="2"/><rect class="c c1e" x="706" y="50" rx="2" ry="2"/><rect class="c c1f" x="706" y="66" rx="2" ry="2"/><rect class="c c1g" x="706" y="82" rx="2" ry="2"/><rect class="c c1h" x="706" y="98" rx="2" ry="2"/><rect class="c c1i" x="722" y="2" rx="2" ry="2"/><rect class="c c1j" x="722" y="18" rx="2" ry="2"/><rect class="c c1k" x="722" y="34" rx="2" ry="2"/><rect class="c c1l" x="722" y="50" rx="2" ry="2"/><rect class="c c1m" x="722" y="66" rx="2" ry="2"/><rect class="c c1n" x="722" y="82" rx="2" ry="2"/><rect class="c c1o" x="722" y="98" rx="2" ry="2"/><rect class="c c1p" x="738" y="2" rx="2" ry="2"/><rect class="c c1q" x="738" y="18" rx="2" ry="2"/><rect class="c c1r" x="738" y="34" rx="2" ry="2"/><rect class="c c1s" x="738" y="50" rx="2" ry="2"/><rect class="c c1t" x="738" y="66" rx="2" ry="2"/><rect class="c c1u" x="738" y="82" rx="2" ry="2"/><rect class="c c1v" x="738" y="98" rx="2" ry="2"/><rect class="c c1w" x="754" y="2" rx="2" ry="2"/><rect class="c c1x" x="754" y="18" rx="2" ry="2"/><rect class="c c1y" x="754" y="34" rx="2" ry="2"/><rect class="c c1z" x="754" y="50" rx="2" ry="2"/><rect class="c c20" x="754" y="66" rx="2" ry="2"/><rect class="c c21" x="754" y="82" rx="2" ry="2"/><rect class="c c22" x="754" y="98" rx="2" ry="2"/><rect class="c c23" x="770" y="2" rx="2" ry="2"/><rect class="c c24" x="770" y="18" rx="2" ry="2"/><rect class="c c25" x="770" y="34" rx="2" ry="2"/><rect class="c c26" x="770" y="50" rx="2" ry="2"/><rect class="c c27" x="770" y="66" rx="2" ry="2"/><rect class="c c28" x="770" y="82" rx="2" ry="2"/><rect class="c c29" x="770" y="98" rx="2" ry="2"/><rect class="c c2a" x="786" y="2" rx="2" ry="2"/><rect class="c c2b" x="786" y="18" rx="2" ry="2"/><rect class="c c2c" x="786" y="34" rx="2" ry="2"/><rect class="c c2d" x="786" y="50" rx="2" ry="2"/><rect class="c c2e" x="786" y="66" rx="2" ry="2"/><rect class="c c2f" x="786" y="82" rx="2" ry="2"/><rect class="c c2g" x="786" y="98" rx="2" ry="2"/><rect class="c c2h" x="802" y="2" rx="2" ry="2"/><rect class="c c2i" x="802" y="18" rx="2" ry="2"/><rect class="c c2j" x="802" y="34" rx="2" ry="2"/><rect class="c c2k" x="802" y="50" rx="2" ry="2"/><rect class="c c2l" x="802" y="66" rx="2" ry="2"/><rect class="c c2m" x="802" y="82" rx="2" ry="2"/><rect class="c c2n" x="802" y="98" rx="2" ry="2"/><rect class="c c2o" x="818" y="2" rx="2" ry="2"/><rect class="c c2p" x="818" y="18" rx="2" ry="2"/><rect class="c c2q" x="818" y="34" rx="2" ry="2"/><rect class="c c2r" x="818" y="50" rx="2" ry="2"/><rect class="c c2s" x="818" y="66" rx="2" ry="2"/><rect class="c c2t" x="818" y="82" rx="2" ry="2"/><rect class="c c2u" x="818" y="98" rx="2" ry="2"/><rect class="c c2v" x="834" y="2" rx="2" ry="2"/><rect class="c c2w" x="834" y="18" rx="2" ry="2"/><rect class="c c2x" x="834" y="34" rx="2" ry="2"/><rect class="c c2y" x="834" y="50" rx="2" ry="2"/><rect class="c c2z" x="834" y="66" rx="2" ry="2"/><rect class="c c30" x="834" y="82" rx="2" ry="2"/><rect class="c c31" x="834" y="98" rx="2" ry="2"/><rect class="u u0" height="12" width="70.0" x="0.0" y="144"/><rect class="u u1" height="12" width="424.6" x="69.4" y="144"/><rect class="u u2" height="12" width="355.2" x="493.4" y="144"/><rect class="s s0" x="0.8" y="0.8" width="14.4" height="14.4" rx="4.5" ry="4.5"/><rect class="s s1" x="1.8" y="1.8" width="12.3" height="12.3" rx="4.1" ry="4.1"/><rect class="s s2" x="2.6" y="2.6" width="10.8" height="10.8" rx="3.6" ry="3.6"/><rect class="s s3" x="3.0" y="3.0" width="9.9" height="9.9" rx="3.3" ry="3.3"/></svg>