<svg viewBox="-16 -32 880 192" width="880" height="192" xmlns="http://www.w3.org/2000/svg"><desc>Generated with https://github.com/Platane/snk</desc><style>:root{--cb:#1b1f230a;--cs:purple;--ce:#ebedf0;--c0:#ebedf0;--c1:#9be9a8;--c2:#40c463;--c3:#30a14e;--c4:#216e39}.c{shape-rendering:geometricPrecision;fill:var(--ce);stroke-width:1px;stroke:var(--cb);animation:none 34300ms linear infinite;width:12px;height:12px}@keyframes c0{5.82%{fill:var(--c1)}5.84%,100%{fill:var(--ce)}}.c.c0{fill:var(--c1);animation-name:c0}@keyframes c1{60.34%{fill:var(--c2)}60.36%,100%{fill:var(--ce)}}.c.c1{fill:var(--c2);animation-name:c1}@keyframes c2{3.78%{fill:var(--c1)}3.8%,100%{fill:var(--ce)}}.c.c2{fill:var(--c1);animation-name:c2}@keyframes c3{4.07%{fill:var(--c1)}4.09%,100%{fill:var(--ce)}}.c.c3{fill:var(--c1);animation-name:c3}@keyframes c4{57.72%{fill:var(--c2)}57.74%,100%{fill:var(--ce)}}.c.c4{fill:var(--c2);animation-name:c4}@keyframes c5{65.3%{fill:var(--c4)}65.32%,100%{fill:var(--ce)}}.c.c5{fill:var(--c4);animation-name:c5}@keyframes c6{11.07%{fill:var(--c1)}11.09%,100%{fill:var(--ce)}}.c.c6{fill:var(--c1);animation-name:c6}@keyframes c7{14.86%{fill:var(--c1)}14.88%,100%{fill:var(--ce)}}.c.c7{fill:var(--c1);animation-name:c7}@keyframes c8{39.35%{fill:var(--c2)}39.37%,100%{fill:var(--ce)}}.c.c8{fill:var(--c2);animation-name:c8}@keyframes c9{88.62%{fill:var(--c4)}88.64%,100%{fill:var(--ce)}}.c.c9{fill:var(--c4);animation-name:c9}@keyframes ca{14.28%{fill:var(--c1)}14.3%,100%{fill:var(--ce)}}.c.ca{fill:var(--c1);animation-name:ca}@keyframes cb{18.07%{fill:var(--c1)}18.09%,100%{fill:var(--ce)}}.c.cb{fill:var(--c1);animation-name:cb}@keyframes cc{15.73%{fill:var(--c1)}15.75%,100%{fill:var(--ce)}}.c.cc{fill:var(--c1);animation-name:cc}@keyframes cd{16.02%{fill:var(--c1)}16.04%,100%{fill:var(--ce)}}.c.cd{fill:var(--c1);animation-name:cd}@keyframes ce{70.25%{fill:var(--c4)}70.27%,100%{fill:var(--ce)}}.c.ce{fill:var(--c4);animation-name:ce}@keyframes cf{69.96%{fill:var(--c4)}69.98%,100%{fill:var(--ce)}}.c.cf{fill:var(--c4);animation-name:cf}@keyframes cg{37.02%{fill:var(--c2)}37.04%,100%{fill:var(--ce)}}.c.cg{fill:var(--c2);animation-name:cg}@keyframes ch{36.72%{fill:var(--c2)}36.74%,100%{fill:var(--ce)}}.c.ch{fill:var(--c2);animation-name:ch}@keyframes ci{38.18%{fill:var(--c2)}38.2%,100%{fill:var(--ce)}}.c.ci{fill:var(--c2);animation-name:ci}@keyframes cj{19.23%{fill:var(--c2)}19.25%,100%{fill:var(--ce)}}.c.cj{fill:var(--c2);animation-name:cj}@keyframes ck{27.69%{fill:var(--c2)}27.71%,100%{fill:var(--ce)}}.c.ck{fill:var(--c2);animation-name:ck}@keyframes cl{27.4%{fill:var(--c2)}27.42%,100%{fill:var(--ce)}}.c.cl{fill:var(--c2);animation-name:cl}@keyframes cm{29.44%{fill:var(--c2)}29.46%,100%{fill:var(--ce)}}.c.cm{fill:var(--c2);animation-name:cm}@keyframes cn{29.73%{fill:var(--c2)}29.75%,100%{fill:var(--ce)}}.c.cn{fill:var(--c2);animation-name:cn}@keyframes co{36.43%{fill:var(--c2)}36.45%,100%{fill:var(--ce)}}.c.co{fill:var(--c2);animation-name:co}@keyframes cp{37.89%{fill:var(--c2)}37.91%,100%{fill:var(--ce)}}.c.cp{fill:var(--c2);animation-name:cp}@keyframes cq{19.52%{fill:var(--c2)}19.54%,100%{fill:var(--ce)}}.c.cq{fill:var(--c2);animation-name:cq}@keyframes cr{71.13%{fill:var(--c4)}71.15%,100%{fill:var(--ce)}}.c.cr{fill:var(--c4);animation-name:cr}@keyframes cs{27.1%{fill:var(--c2)}27.12%,100%{fill:var(--ce)}}.c.cs{fill:var(--c2);animation-name:cs}@keyframes ct{26.81%{fill:var(--c2)}26.83%,100%{fill:var(--ce)}}.c.ct{fill:var(--c2);animation-name:ct}@keyframes cu{30.02%{fill:var(--c2)}30.04%,100%{fill:var(--ce)}}.c.cu{fill:var(--c2);animation-name:cu}@keyframes cv{36.14%{fill:var(--c2)}36.16%,100%{fill:var(--ce)}}.c.cv{fill:var(--c2);animation-name:cv}@keyframes cw{35.85%{fill:var(--c2)}35.87%,100%{fill:var(--ce)}}.c.cw{fill:var(--c2);animation-name:cw}@keyframes cx{19.82%{fill:var(--c2)}19.84%,100%{fill:var(--ce)}}.c.cx{fill:var(--c2);animation-name:cx}@keyframes cy{23.61%{fill:var(--c2)}23.63%,100%{fill:var(--ce)}}.c.cy{fill:var(--c2);animation-name:cy}@keyframes cz{23.9%{fill:var(--c2)}23.92%,100%{fill:var(--ce)}}.c.cz{fill:var(--c2);animation-name:cz}@keyframes c10{26.52%{fill:var(--c2)}26.54%,100%{fill:var(--ce)}}.c.c10{fill:var(--c2);animation-name:c10}@keyframes c11{30.31%{fill:var(--c2)}30.33%,100%{fill:var(--ce)}}.c.c11{fill:var(--c2);animation-name:c11}@keyframes c12{30.6%{fill:var(--c2)}30.62%,100%{fill:var(--ce)}}.c.c12{fill:var(--c2);animation-name:c12}@keyframes c13{35.56%{fill:var(--c2)}35.58%,100%{fill:var(--ce)}}.c.c13{fill:var(--c2);animation-name:c13}@keyframes c14{20.11%{fill:var(--c2)}20.13%,100%{fill:var(--ce)}}.c.c14{fill:var(--c2);animation-name:c14}@keyframes c15{23.31%{fill:var(--c2)}23.33%,100%{fill:var(--ce)}}.c.c15{fill:var(--c2);animation-name:c15}@keyframes c16{24.19%{fill:var(--c2)}24.21%,100%{fill:var(--ce)}}.c.c16{fill:var(--c2);animation-name:c16}@keyframes c17{26.23%{fill:var(--c2)}26.25%,100%{fill:var(--ce)}}.c.c17{fill:var(--c2);animation-name:c17}@keyframes c18{72.58%{fill:var(--c4)}72.6%,100%{fill:var(--ce)}}.c.c18{fill:var(--c4);animation-name:c18}@keyframes c19{30.89%{fill:var(--c2)}30.91%,100%{fill:var(--ce)}}.c.c19{fill:var(--c2);animation-name:c19}@keyframes c1a{35.27%{fill:var(--c2)}35.29%,100%{fill:var(--ce)}}.c.c1a{fill:var(--c2);animation-name:c1a}@keyframes c1b{20.4%{fill:var(--c2)}20.42%,100%{fill:var(--ce)}}.c.c1b{fill:var(--c2);animation-name:c1b}@keyframes c1c{23.02%{fill:var(--c2)}23.04%,100%{fill:var(--ce)}}.c.c1c{fill:var(--c2);animation-name:c1c}@keyframes c1d{24.48%{fill:var(--c2)}24.5%,100%{fill:var(--ce)}}.c.c1d{fill:var(--c2);animation-name:c1d}@keyframes c1e{25.94%{fill:var(--c2)}25.96%,100%{fill:var(--ce)}}.c.c1e{fill:var(--c2);animation-name:c1e}@keyframes c1f{32.64%{fill:var(--c2)}32.66%,100%{fill:var(--ce)}}.c.c1f{fill:var(--c2);animation-name:c1f}@keyframes c1g{31.19%{fill:var(--c2)}31.21%,100%{fill:var(--ce)}}.c.c1g{fill:var(--c2);animation-name:c1g}@keyframes c1h{33.23%{fill:var(--c2)}33.25%,100%{fill:var(--ce)}}.c.c1h{fill:var(--c2);animation-name:c1h}@keyframes c1i{20.69%{fill:var(--c2)}20.71%,100%{fill:var(--ce)}}.c.c1i{fill:var(--c2);animation-name:c1i}@keyframes c1j{22.73%{fill:var(--c2)}22.75%,100%{fill:var(--ce)}}.c.c1j{fill:var(--c2);animation-name:c1j}@keyframes c1k{24.77%{fill:var(--c2)}24.79%,100%{fill:var(--ce)}}.c.c1k{fill:var(--c2);animation-name:c1k}@keyframes c1l{25.65%{fill:var(--c2)}25.67%,100%{fill:var(--ce)}}.c.c1l{fill:var(--c2);animation-name:c1l}@keyframes c1m{32.35%{fill:var(--c2)}32.37%,100%{fill:var(--ce)}}.c.c1m{fill:var(--c2);animation-name:c1m}@keyframes c1n{31.48%{fill:var(--c2)}31.5%,100%{fill:var(--ce)}}.c.c1n{fill:var(--c2);animation-name:c1n}@keyframes c1o{33.52%{fill:var(--c2)}33.54%,100%{fill:var(--ce)}}.c.c1o{fill:var(--c2);animation-name:c1o}@keyframes c1p{20.98%{fill:var(--c2)}21%,100%{fill:var(--ce)}}.c.c1p{fill:var(--c2);animation-name:c1p}@keyframes c1q{22.44%{fill:var(--c2)}22.46%,100%{fill:var(--ce)}}.c.c1q{fill:var(--c2);animation-name:c1q}@keyframes c1r{25.06%{fill:var(--c2)}25.08%,100%{fill:var(--ce)}}.c.c1r{fill:var(--c2);animation-name:c1r}@keyframes c1s{25.35%{fill:var(--c2)}25.37%,100%{fill:var(--ce)}}.c.c1s{fill:var(--c2);animation-name:c1s}@keyframes c1t{32.06%{fill:var(--c2)}32.08%,100%{fill:var(--ce)}}.c.c1t{fill:var(--c2);animation-name:c1t}@keyframes c1u{31.77%{fill:var(--c2)}31.79%,100%{fill:var(--ce)}}.c.c1u{fill:var(--c2);animation-name:c1u}@keyframes c1v{33.81%{fill:var(--c2)}33.83%,100%{fill:var(--ce)}}.c.c1v{fill:var(--c2);animation-name:c1v}@keyframes c1w{21.27%{fill:var(--c2)}21.29%,100%{fill:var(--ce)}}.c.c1w{fill:var(--c2);animation-name:c1w}@keyframes c1x{79.29%{fill:var(--c4)}79.31%,100%{fill:var(--ce)}}.c.c1x{fill:var(--c4);animation-name:c1x}@keyframes c1y{79%{fill:var(--c4)}79.02%,100%{fill:var(--ce)}}.c.c1y{fill:var(--c4);animation-name:c1y}@keyframes c1z{84.54%{fill:var(--c4)}84.56%,100%{fill:var(--ce)}}.c.c1z{fill:var(--c4);animation-name:c1z}@keyframes c20{73.75%{fill:var(--c4)}73.77%,100%{fill:var(--ce)}}.c.c20{fill:var(--c4);animation-name:c20}@keyframes c21{82.79%{fill:var(--c4)}82.81%,100%{fill:var(--ce)}}.c.c21{fill:var(--c4);animation-name:c21}@keyframes c22{83.08%{fill:var(--c4)}83.1%,100%{fill:var(--ce)}}.c.c22{fill:var(--c4);animation-name:c22}@keyframes c23{76.96%{fill:var(--c4)}76.98%,100%{fill:var(--ce)}}.c.c23{fill:var(--c4);animation-name:c23}@keyframes c24{77.25%{fill:var(--c4)}77.27%,100%{fill:var(--ce)}}.c.c24{fill:var(--c4);animation-name:c24}@keyframes c25{78.71%{fill:var(--c4)}78.73%,100%{fill:var(--ce)}}.c.c25{fill:var(--c4);animation-name:c25}@keyframes c26{80.16%{fill:var(--c4)}80.18%,100%{fill:var(--ce)}}.c.c26{fill:var(--c4);animation-name:c26}@keyframes c27{74.04%{fill:var(--c4)}74.06%,100%{fill:var(--ce)}}.c.c27{fill:var(--c4);animation-name:c27}@keyframes c28{82.5%{fill:var(--c4)}82.52%,100%{fill:var(--ce)}}.c.c28{fill:var(--c4);animation-name:c28}@keyframes c29{82.21%{fill:var(--c4)}82.23%,100%{fill:var(--ce)}}.c.c29{fill:var(--c4);animation-name:c29}@keyframes c2a{76.67%{fill:var(--c4)}76.69%,100%{fill:var(--ce)}}.c.c2a{fill:var(--c4);animation-name:c2a}@keyframes c2b{77.54%{fill:var(--c4)}77.56%,100%{fill:var(--ce)}}.c.c2b{fill:var(--c4);animation-name:c2b}@keyframes c2c{78.42%{fill:var(--c4)}78.44%,100%{fill:var(--ce)}}.c.c2c{fill:var(--c4);animation-name:c2c}@keyframes c2d{80.46%{fill:var(--c4)}80.48%,100%{fill:var(--ce)}}.c.c2d{fill:var(--c4);animation-name:c2d}@keyframes c2e{74.33%{fill:var(--c4)}74.35%,100%{fill:var(--ce)}}.c.c2e{fill:var(--c4);animation-name:c2e}@keyframes c2f{81.04%{fill:var(--c4)}81.06%,100%{fill:var(--ce)}}.c.c2f{fill:var(--c4);animation-name:c2f}@keyframes c2g{81.91%{fill:var(--c4)}81.93%,100%{fill:var(--ce)}}.c.c2g{fill:var(--c4);animation-name:c2g}@keyframes c2h{76.37%{fill:var(--c4)}76.39%,100%{fill:var(--ce)}}.c.c2h{fill:var(--c4);animation-name:c2h}@keyframes c2i{77.83%{fill:var(--c4)}77.85%,100%{fill:var(--ce)}}.c.c2i{fill:var(--c4);animation-name:c2i}@keyframes c2j{78.12%{fill:var(--c4)}78.14%,100%{fill:var(--ce)}}.c.c2j{fill:var(--c4);animation-name:c2j}@keyframes c2k{74.92%{fill:var(--c4)}74.94%,100%{fill:var(--ce)}}.c.c2k{fill:var(--c4);animation-name:c2k}@keyframes c2l{74.63%{fill:var(--c4)}74.65%,100%{fill:var(--ce)}}.c.c2l{fill:var(--c4);animation-name:c2l}@keyframes c2m{81.33%{fill:var(--c4)}81.35%,100%{fill:var(--ce)}}.c.c2m{fill:var(--c4);animation-name:c2m}@keyframes c2n{81.62%{fill:var(--c4)}81.64%,100%{fill:var(--ce)}}.c.c2n{fill:var(--c4);animation-name:c2n}@keyframes c2o{76.08%{fill:var(--c4)}76.1%,100%{fill:var(--ce)}}.c.c2o{fill:var(--c4);animation-name:c2o}@keyframes c2p{75.79%{fill:var(--c4)}75.81%,100%{fill:var(--ce)}}.c.c2p{fill:var(--c4);animation-name:c2p}@keyframes c2q{75.5%{fill:var(--c4)}75.52%,100%{fill:var(--ce)}}.c.c2q{fill:var(--c4);animation-name:c2q}@keyframes c2r{75.21%{fill:var(--c4)}75.23%,100%{fill:var(--ce)}}.c.c2r{fill:var(--c4);animation-name:c2r}@keyframes c2s{45.18%{fill:var(--c2)}45.2%,100%{fill:var(--ce)}}.c.c2s{fill:var(--c2);animation-name:c2s}.u{transform-origin:0 0;transform:scale(0,1);animation:none linear 34300ms infinite}@keyframes u0{3.78%{transform:scale(0.000,1)}3.8%,4.07%{transform:scale(0.111,1)}4.09%,5.82%{transform:scale(0.222,1)}5.84%,11.07%{transform:scale(0.333,1)}11.09%,14.28%{transform:scale(0.444,1)}14.3%,14.86%{transform:scale(0.556,1)}14.88%,15.73%{transform:scale(0.667,1)}15.75%,16.02%{transform:scale(0.778,1)}16.04%,18.07%{transform:scale(0.889,1)}18.09%,100%{transform:scale(1.000,1)}}.u.u0{fill:var(--c1);animation-name:u0;transform-origin:0.0px 0}@keyframes u1{19.23%{transform:scale(0.000,1)}19.25%,19.52%{transform:scale(0.018,1)}19.54%,19.82%{transform:scale(0.036,1)}19.84%,20.11%{transform:scale(0.055,1)}20.13%,20.4%{transform:scale(0.073,1)}20.42%,20.69%{transform:scale(0.091,1)}20.71%,20.98%{transform:scale(0.109,1)}21%,21.27%{transform:scale(0.127,1)}21.29%,22.44%{transform:scale(0.145,1)}22.46%,22.73%{transform:scale(0.164,1)}22.75%,23.02%{transform:scale(0.182,1)}23.04%,23.31%{transform:scale(0.200,1)}23.33%,23.61%{transform:scale(0.218,1)}23.63%,23.9%{transform:scale(0.236,1)}23.92%,24.19%{transform:scale(0.255,1)}24.21%,24.48%{transform:scale(0.273,1)}24.5%,24.77%{transform:scale(0.291,1)}24.79%,25.06%{transform:scale(0.309,1)}25.08%,25.35%{transform:scale(0.327,1)}25.37%,25.65%{transform:scale(0.345,1)}25.67%,25.94%{transform:scale(0.364,1)}25.96%,26.23%{transform:scale(0.382,1)}26.25%,26.52%{transform:scale(0.400,1)}26.54%,26.81%{transform:scale(0.418,1)}26.83%,27.1%{transform:scale(0.436,1)}27.12%,27.4%{transform:scale(0.455,1)}27.42%,27.69%{transform:scale(0.473,1)}27.71%,29.44%{transform:scale(0.491,1)}29.46%,29.73%{transform:scale(0.509,1)}29.75%,30.02%{transform:scale(0.527,1)}30.04%,30.31%{transform:scale(0.545,1)}30.33%,30.6%{transform:scale(0.564,1)}30.62%,30.89%{transform:scale(0.582,1)}30.91%,31.19%{transform:scale(0.600,1)}31.21%,31.48%{transform:scale(0.618,1)}31.5%,31.77%{transform:scale(0.636,1)}31.79%,32.06%{transform:scale(0.655,1)}32.08%,32.35%{transform:scale(0.673,1)}32.37%,32.64%{transform:scale(0.691,1)}32.66%,33.23%{transform:scale(0.709,1)}33.25%,33.52%{transform:scale(0.727,1)}33.54%,33.81%{transform:scale(0.745,1)}33.83%,35.27%{transform:scale(0.764,1)}35.29%,35.56%{transform:scale(0.782,1)}35.58%,35.85%{transform:scale(0.800,1)}35.87%,36.14%{transform:scale(0.818,1)}36.16%,36.43%{transform:scale(0.836,1)}36.45%,36.72%{transform:scale(0.855,1)}36.74%,37.02%{transform:scale(0.873,1)}37.04%,37.89%{transform:scale(0.891,1)}37.91%,38.18%{transform:scale(0.909,1)}38.2%,39.35%{transform:scale(0.927,1)}39.37%,45.18%{transform:scale(0.945,1)}45.2%,57.72%{transform:scale(0.964,1)}57.74%,60.34%{transform:scale(0.982,1)}60.36%,100%{transform:scale(1.000,1)}}.u.u1{fill:var(--c2);animation-name:u1;transform-origin:75.6px 0}@keyframes u2{65.3%{transform:scale(0.000,1)}65.32%,69.96%{transform:scale(0.027,1)}69.98%,70.25%{transform:scale(0.054,1)}70.27%,71.13%{transform:scale(0.081,1)}71.15%,72.58%{transform:scale(0.108,1)}72.6%,73.75%{transform:scale(0.135,1)}73.77%,74.04%{transform:scale(0.162,1)}74.06%,74.33%{transform:scale(0.189,1)}74.35%,74.63%{transform:scale(0.216,1)}74.65%,74.92%{transform:scale(0.243,1)}74.94%,75.21%{transform:scale(0.270,1)}75.23%,75.5%{transform:scale(0.297,1)}75.52%,75.79%{transform:scale(0.324,1)}75.81%,76.08%{transform:scale(0.351,1)}76.1%,76.37%{transform:scale(0.378,1)}76.39%,76.67%{transform:scale(0.405,1)}76.69%,76.96%{transform:scale(0.432,1)}76.98%,77.25%{transform:scale(0.459,1)}77.27%,77.54%{transform:scale(0.486,1)}77.56%,77.83%{transform:scale(0.514,1)}77.85%,78.12%{transform:scale(0.541,1)}78.14%,78.42%{transform:scale(0.568,1)}78.44%,78.71%{transform:scale(0.595,1)}78.73%,79%{transform:scale(0.622,1)}79.02%,79.29%{transform:scale(0.649,1)}79.31%,80.16%{transform:scale(0.676,1)}80.18%,80.46%{transform:scale(0.703,1)}80.48%,81.04%{transform:scale(0.730,1)}81.06%,81.33%{transform:scale(0.757,1)}81.35%,81.62%{transform:scale(0.784,1)}81.64%,81.91%{transform:scale(0.811,1)}81.93%,82.21%{transform:scale(0.838,1)}82.23%,82.5%{transform:scale(0.865,1)}82.52%,82.79%{transform:scale(0.892,1)}82.81%,83.08%{transform:scale(0.919,1)}83.1%,84.54%{transform:scale(0.946,1)}84.56%,88.62%{transform:scale(0.973,1)}88.64%,100%{transform:scale(1.000,1)}}.u.u2{fill:var(--c4);animation-name:u2;transform-origin:537.3px 0}.s{shape-rendering:geometricPrecision;fill:var(--cs);animation:none linear 34300ms infinite}@keyframes s0{0%,99.71%{transform:translate(0px,-16px)}0.29%{transform:translate(0px,0px)}3.79%{transform:translate(192px,0px)}4.08%{transform:translate(192px,16px)}4.66%{transform:translate(160px,16px)}5.83%{transform:translate(160px,80px)}10.5%{transform:translate(416px,80px)}11.08%{transform:translate(416px,48px)}14.29%{transform:translate(592px,48px)}14.58%{transform:translate(592px,64px)}14.87%{transform:translate(576px,64px)}15.16%{transform:translate(576px,80px)}15.74%{transform:translate(608px,80px)}16.03%{transform:translate(608px,96px)}16.33%{transform:translate(624px,96px)}17.78%{transform:translate(624px,16px)}18.08%{transform:translate(608px,16px)}18.37%{transform:translate(608px,0px)}21.28%,85.42%{transform:translate(768px,0px)}21.57%{transform:translate(768px,-16px)}21.87%{transform:translate(752px,-16px)}22.45%{transform:translate(752px,16px)}23.62%{transform:translate(688px,16px)}23.91%{transform:translate(688px,32px)}25.07%{transform:translate(752px,32px)}25.36%{transform:translate(752px,48px)}26.82%{transform:translate(672px,48px)}27.11%,70.85%{transform:translate(672px,32px)}27.41%{transform:translate(656px,32px)}27.99%{transform:translate(656px,0px)}28.28%{transform:translate(640px,0px)}28.57%{transform:translate(640px,16px)}28.86%{transform:translate(656px,16px)}29.74%,37.32%{transform:translate(656px,64px)}30.32%{transform:translate(688px,64px)}30.61%{transform:translate(688px,80px)}31.78%,34.11%,48.69%{transform:translate(752px,80px)}32.07%{transform:translate(752px,64px)}32.65%{transform:translate(720px,64px)}33.24%{transform:translate(720px,96px)}33.82%{transform:translate(752px,96px)}34.99%{transform:translate(704px,80px)}35.28%{transform:translate(704px,96px)}35.86%{transform:translate(672px,96px)}36.15%{transform:translate(672px,80px)}36.73%{transform:translate(640px,80px)}37.03%,69.68%{transform:translate(640px,64px)}37.9%{transform:translate(656px,96px)}39.36%{transform:translate(576px,96px)}39.65%{transform:translate(576px,112px)}44.31%,46.65%{transform:translate(832px,112px)}45.19%{transform:translate(832px,64px)}45.48%{transform:translate(848px,64px)}45.77%{transform:translate(848px,80px)}46.06%{transform:translate(832px,80px)}48.1%{transform:translate(752px,112px)}55.39%{transform:translate(384px,80px)}55.69%{transform:translate(384px,64px)}59.77%{transform:translate(160px,64px)}60.35%{transform:translate(160px,96px)}64.72%{transform:translate(400px,96px)}65.31%{transform:translate(400px,64px)}70.26%{transform:translate(640px,32px)}71.14%{transform:translate(672px,16px)}71.72%{transform:translate(704px,16px)}72.59%{transform:translate(704px,64px)}74.64%{transform:translate(816px,64px)}74.93%{transform:translate(816px,48px)}75.22%{transform:translate(832px,48px)}76.09%{transform:translate(832px,0px)}76.97%{transform:translate(784px,0px)}77.26%,79.59%{transform:translate(784px,16px)}77.84%{transform:translate(816px,16px)}78.13%{transform:translate(816px,32px)}79.01%{transform:translate(768px,32px)}79.3%{transform:translate(768px,16px)}80.17%,84.26%{transform:translate(784px,48px)}80.47%{transform:translate(800px,48px)}81.05%{transform:translate(800px,80px)}81.34%{transform:translate(816px,80px)}81.63%{transform:translate(816px,96px)}82.22%,83.38%{transform:translate(784px,96px)}82.51%{transform:translate(784px,80px)}82.8%{transform:translate(768px,80px)}83.09%{transform:translate(768px,96px)}84.55%{transform:translate(768px,48px)}97.67%{transform:translate(96px,0px)}97.96%{transform:translate(96px,-16px)}}.s.s0{transform:translate(0px,-16px);animation-name:s0}@keyframes s1{0%,99.71%{transform:translate(16px,-16px)}0.29%{transform:translate(0px,-16px)}0.58%{transform:translate(0px,0px)}4.08%{transform:translate(192px,0px)}4.37%{transform:translate(192px,16px)}4.96%{transform:translate(160px,16px)}6.12%{transform:translate(160px,80px)}10.79%{transform:translate(416px,80px)}11.37%{transform:translate(416px,48px)}14.58%{transform:translate(592px,48px)}14.87%{transform:translate(592px,64px)}15.16%{transform:translate(576px,64px)}15.45%{transform:translate(576px,80px)}16.03%{transform:translate(608px,80px)}16.33%{transform:translate(608px,96px)}16.62%{transform:translate(624px,96px)}18.08%{transform:translate(624px,16px)}18.37%{transform:translate(608px,16px)}18.66%{transform:translate(608px,0px)}21.57%,85.71%{transform:translate(768px,0px)}21.87%{transform:translate(768px,-16px)}22.16%{transform:translate(752px,-16px)}22.74%{transform:translate(752px,16px)}23.91%{transform:translate(688px,16px)}24.2%{transform:translate(688px,32px)}25.36%{transform:translate(752px,32px)}25.66%{transform:translate(752px,48px)}27.11%{transform:translate(672px,48px)}27.41%,71.14%{transform:translate(672px,32px)}27.7%{transform:translate(656px,32px)}28.28%{transform:translate(656px,0px)}28.57%{transform:translate(640px,0px)}28.86%{transform:translate(640px,16px)}29.15%{transform:translate(656px,16px)}30.03%,37.61%{transform:translate(656px,64px)}30.61%{transform:translate(688px,64px)}30.9%{transform:translate(688px,80px)}32.07%,34.4%,48.98%{transform:translate(752px,80px)}32.36%{transform:translate(752px,64px)}32.94%{transform:translate(720px,64px)}33.53%{transform:translate(720px,96px)}34.11%{transform:translate(752px,96px)}35.28%{transform:translate(704px,80px)}35.57%{transform:translate(704px,96px)}36.15%{transform:translate(672px,96px)}36.44%{transform:translate(672px,80px)}37.03%{transform:translate(640px,80px)}37.32%,69.97%{transform:translate(640px,64px)}38.19%{transform:translate(656px,96px)}39.65%{transform:translate(576px,96px)}39.94%{transform:translate(576px,112px)}44.61%,46.94%{transform:translate(832px,112px)}45.48%{transform:translate(832px,64px)}45.77%{transform:translate(848px,64px)}46.06%{transform:translate(848px,80px)}46.36%{transform:translate(832px,80px)}48.4%{transform:translate(752px,112px)}55.69%{transform:translate(384px,80px)}55.98%{transform:translate(384px,64px)}60.06%{transform:translate(160px,64px)}60.64%{transform:translate(160px,96px)}65.01%{transform:translate(400px,96px)}65.6%{transform:translate(400px,64px)}70.55%{transform:translate(640px,32px)}71.43%{transform:translate(672px,16px)}72.01%{transform:translate(704px,16px)}72.89%{transform:translate(704px,64px)}74.93%{transform:translate(816px,64px)}75.22%{transform:translate(816px,48px)}75.51%{transform:translate(832px,48px)}76.38%{transform:translate(832px,0px)}77.26%{transform:translate(784px,0px)}77.55%,79.88%{transform:translate(784px,16px)}78.13%{transform:translate(816px,16px)}78.43%{transform:translate(816px,32px)}79.3%{transform:translate(768px,32px)}79.59%{transform:translate(768px,16px)}80.47%,84.55%{transform:translate(784px,48px)}80.76%{transform:translate(800px,48px)}81.34%{transform:translate(800px,80px)}81.63%{transform:translate(816px,80px)}81.92%{transform:translate(816px,96px)}82.51%,83.67%{transform:translate(784px,96px)}82.8%{transform:translate(784px,80px)}83.09%{transform:translate(768px,80px)}83.38%{transform:translate(768px,96px)}84.84%{transform:translate(768px,48px)}97.96%{transform:translate(96px,0px)}98.25%{transform:translate(96px,-16px)}}.s.s1{transform:translate(16px,-16px);animation-name:s1}@keyframes s2{0%,99.71%{transform:translate(32px,-16px)}0.58%{transform:translate(0px,-16px)}0.87%{transform:translate(0px,0px)}4.37%{transform:translate(192px,0px)}4.66%{transform:translate(192px,16px)}5.25%{transform:translate(160px,16px)}6.41%{transform:translate(160px,80px)}11.08%{transform:translate(416px,80px)}11.66%{transform:translate(416px,48px)}14.87%{transform:translate(592px,48px)}15.16%{transform:translate(592px,64px)}15.45%{transform:translate(576px,64px)}15.74%{transform:translate(576px,80px)}16.33%{transform:translate(608px,80px)}16.62%{transform:translate(608px,96px)}16.91%{transform:translate(624px,96px)}18.37%{transform:translate(624px,16px)}18.66%{transform:translate(608px,16px)}18.95%{transform:translate(608px,0px)}21.87%,86.01%{transform:translate(768px,0px)}22.16%{transform:translate(768px,-16px)}22.45%{transform:translate(752px,-16px)}23.03%{transform:translate(752px,16px)}24.2%{transform:translate(688px,16px)}24.49%{transform:translate(688px,32px)}25.66%{transform:translate(752px,32px)}25.95%{transform:translate(752px,48px)}27.41%{transform:translate(672px,48px)}27.7%,71.43%{transform:translate(672px,32px)}27.99%{transform:translate(656px,32px)}28.57%{transform:translate(656px,0px)}28.86%{transform:translate(640px,0px)}29.15%{transform:translate(640px,16px)}29.45%{transform:translate(656px,16px)}30.32%,37.9%{transform:translate(656px,64px)}30.9%{transform:translate(688px,64px)}31.2%{transform:translate(688px,80px)}32.36%,34.69%,49.27%{transform:translate(752px,80px)}32.65%{transform:translate(752px,64px)}33.24%{transform:translate(720px,64px)}33.82%{transform:translate(720px,96px)}34.4%{transform:translate(752px,96px)}35.57%{transform:translate(704px,80px)}35.86%{transform:translate(704px,96px)}36.44%{transform:translate(672px,96px)}36.73%{transform:translate(672px,80px)}37.32%{transform:translate(640px,80px)}37.61%,70.26%{transform:translate(640px,64px)}38.48%{transform:translate(656px,96px)}39.94%{transform:translate(576px,96px)}40.23%{transform:translate(576px,112px)}44.9%,47.23%{transform:translate(832px,112px)}45.77%{transform:translate(832px,64px)}46.06%{transform:translate(848px,64px)}46.36%{transform:translate(848px,80px)}46.65%{transform:translate(832px,80px)}48.69%{transform:translate(752px,112px)}55.98%{transform:translate(384px,80px)}56.27%{transform:translate(384px,64px)}60.35%{transform:translate(160px,64px)}60.93%{transform:translate(160px,96px)}65.31%{transform:translate(400px,96px)}65.89%{transform:translate(400px,64px)}70.85%{transform:translate(640px,32px)}71.72%{transform:translate(672px,16px)}72.3%{transform:translate(704px,16px)}73.18%{transform:translate(704px,64px)}75.22%{transform:translate(816px,64px)}75.51%{transform:translate(816px,48px)}75.8%{transform:translate(832px,48px)}76.68%{transform:translate(832px,0px)}77.55%{transform:translate(784px,0px)}77.84%,80.17%{transform:translate(784px,16px)}78.43%{transform:translate(816px,16px)}78.72%{transform:translate(816px,32px)}79.59%{transform:translate(768px,32px)}79.88%{transform:translate(768px,16px)}80.76%,84.84%{transform:translate(784px,48px)}81.05%{transform:translate(800px,48px)}81.63%{transform:translate(800px,80px)}81.92%{transform:translate(816px,80px)}82.22%{transform:translate(816px,96px)}82.8%,83.97%{transform:translate(784px,96px)}83.09%{transform:translate(784px,80px)}83.38%{transform:translate(768px,80px)}83.67%{transform:translate(768px,96px)}85.13%{transform:translate(768px,48px)}98.25%{transform:translate(96px,0px)}98.54%{transform:translate(96px,-16px)}}.s.s2{transform:translate(32px,-16px);animation-name:s2}@keyframes s3{0%,99.71%{transform:translate(48px,-16px)}0.87%{transform:translate(0px,-16px)}1.17%{transform:translate(0px,0px)}4.66%{transform:translate(192px,0px)}4.96%{transform:translate(192px,16px)}5.54%{transform:translate(160px,16px)}6.71%{transform:translate(160px,80px)}11.37%{transform:translate(416px,80px)}11.95%{transform:translate(416px,48px)}15.16%{transform:translate(592px,48px)}15.45%{transform:translate(592px,64px)}15.74%{transform:translate(576px,64px)}16.03%{transform:translate(576px,80px)}16.62%{transform:translate(608px,80px)}16.91%{transform:translate(608px,96px)}17.2%{transform:translate(624px,96px)}18.66%{transform:translate(624px,16px)}18.95%{transform:translate(608px,16px)}19.24%{transform:translate(608px,0px)}22.16%,86.3%{transform:translate(768px,0px)}22.45%{transform:translate(768px,-16px)}22.74%{transform:translate(752px,-16px)}23.32%{transform:translate(752px,16px)}24.49%{transform:translate(688px,16px)}24.78%{transform:translate(688px,32px)}25.95%{transform:translate(752px,32px)}26.24%{transform:translate(752px,48px)}27.7%{transform:translate(672px,48px)}27.99%,71.72%{transform:translate(672px,32px)}28.28%{transform:translate(656px,32px)}28.86%{transform:translate(656px,0px)}29.15%{transform:translate(640px,0px)}29.45%{transform:translate(640px,16px)}29.74%{transform:translate(656px,16px)}30.61%,38.19%{transform:translate(656px,64px)}31.2%{transform:translate(688px,64px)}31.49%{transform:translate(688px,80px)}32.65%,34.99%,49.56%{transform:translate(752px,80px)}32.94%{transform:translate(752px,64px)}33.53%{transform:translate(720px,64px)}34.11%{transform:translate(720px,96px)}34.69%{transform:translate(752px,96px)}35.86%{transform:translate(704px,80px)}36.15%{transform:translate(704px,96px)}36.73%{transform:translate(672px,96px)}37.03%{transform:translate(672px,80px)}37.61%{transform:translate(640px,80px)}37.9%,70.55%{transform:translate(640px,64px)}38.78%{transform:translate(656px,96px)}40.23%{transform:translate(576px,96px)}40.52%{transform:translate(576px,112px)}45.19%,47.52%{transform:translate(832px,112px)}46.06%{transform:translate(832px,64px)}46.36%{transform:translate(848px,64px)}46.65%{transform:translate(848px,80px)}46.94%{transform:translate(832px,80px)}48.98%{transform:translate(752px,112px)}56.27%{transform:translate(384px,80px)}56.56%{transform:translate(384px,64px)}60.64%{transform:translate(160px,64px)}61.22%{transform:translate(160px,96px)}65.6%{transform:translate(400px,96px)}66.18%{transform:translate(400px,64px)}71.14%{transform:translate(640px,32px)}72.01%{transform:translate(672px,16px)}72.59%{transform:translate(704px,16px)}73.47%{transform:translate(704px,64px)}75.51%{transform:translate(816px,64px)}75.8%{transform:translate(816px,48px)}76.09%{transform:translate(832px,48px)}76.97%{transform:translate(832px,0px)}77.84%{transform:translate(784px,0px)}78.13%,80.47%{transform:translate(784px,16px)}78.72%{transform:translate(816px,16px)}79.01%{transform:translate(816px,32px)}79.88%{transform:translate(768px,32px)}80.17%{transform:translate(768px,16px)}81.05%,85.13%{transform:translate(784px,48px)}81.34%{transform:translate(800px,48px)}81.92%{transform:translate(800px,80px)}82.22%{transform:translate(816px,80px)}82.51%{transform:translate(816px,96px)}83.09%,84.26%{transform:translate(784px,96px)}83.38%{transform:translate(784px,80px)}83.67%{transform:translate(768px,80px)}83.97%{transform:translate(768px,96px)}85.42%{transform:translate(768px,48px)}98.54%{transform:translate(96px,0px)}98.83%{transform:translate(96px,-16px)}}.s.s3{transform:translate(48px,-16px);animation-name:s3}</style><rect class="c" x="2" y="2" rx="2" ry="2"/><rect class="c" x="2" y="18" rx="2" ry="2"/><rect class="c" x="2" y="34" rx="2" ry="2"/><rect class="c" x="2" y="50" rx="2" ry="2"/><rect class="c" x="2" y="66" rx="2" ry="2"/><rect class="c" x="2" y="82" rx="2" ry="2"/><rect class="c" x="2" y="98" rx="2" ry="2"/><rect class="c" x="18" y="2" rx="2" ry="2"/><rect class="c" x="18" y="18" rx="2" ry="2"/><rect class="c" x="18" y="34" rx="2" ry="2"/><rect class="c" x="18" y="50" rx="2" ry="2"/><rect class="c" x="18" y="66" rx="2" ry="2"/><rect class="c" x="18" y="82" rx="2" ry="2"/><rect class="c" x="18" y="98" rx="2" ry="2"/><rect class="c" x="34" y="2" rx="2" ry="2"/><rect class="c" x="34" y="18" rx="2" ry="2"/><rect class="c" x="34" y="34" rx="2" ry="2"/><rect class="c" x="34" y="50" rx="2" ry="2"/><rect class="c" x="34" y="66" rx="2" ry="2"/><rect class="c" x="34" y="82" rx="2" ry="2"/><rect class="c" x="34" y="98" rx="2" ry="2"/><rect class="c" x="50" y="2" rx="2" ry="2"/><rect class="c" x="50" y="18" rx="2" ry="2"/><rect class="c" x="50" y="34" rx="2" ry="2"/><rect class="c" x="50" y="50" rx="2" ry="2"/><rect class="c" x="50" y="66" rx="2" ry="2"/><rect class="c" x="50" y="82" rx="2" ry="2"/><rect class="c" x="50" y="98" rx="2" ry="2"/><rect class="c" x="66" y="2" rx="2" ry="2"/><rect class="c" x="66" y="18" rx="2" ry="2"/><rect class="c" x="66" y="34" rx="2" ry="2"/><rect class="c" x="66" y="50" rx="2" ry="2"/><rect class="c" x="66" y="66" rx="2" ry="2"/><rect class="c" x="66" y="82" rx="2" ry="2"/><rect class="c" x="66" y="98" rx="2" ry="2"/><rect class="c" x="82" y="2" rx="2" ry="2"/><rect class="c" x="82" y="18" rx="2" ry="2"/><rect class="c" x="82" y="34" rx="2" ry="2"/><rect class="c" x="82" y="50" rx="2" ry="2"/><rect class="c" x="82" y="66" rx="2" ry="2"/><rect class="c" x="82" y="82" rx="2" ry="2"/><rect class="c" x="82" y="98" rx="2" ry="2"/><rect class="c" x="98" y="2" rx="2" ry="2"/><rect class="c" x="98" y="18" rx="2" ry="2"/><rect class="c" x="98" y="34" rx="2" ry="2"/><rect class="c" x="98" y="50" rx="2" ry="2"/><rect class="c" x="98" y="66" rx="2" ry="2"/><rect class="c" x="98" y="82" rx="2" ry="2"/><rect class="c" x="98" y="98" rx="2" ry="2"/><rect class="c" x="114" y="2" rx="2" ry="2"/><rect class="c" x="114" y="18" rx="2" ry="2"/><rect class="c" x="114" y="34" rx="2" ry="2"/><rect class="c" x="114" y="50" rx="2" ry="2"/><rect class="c" x="114" y="66" rx="2" ry="2"/><rect class="c" x="114" y="82" rx="2" ry="2"/><rect class="c" x="114" y="98" rx="2" ry="2"/><rect class="c" x="130" y="2" rx="2" ry="2"/><rect class="c" x="130" y="18" rx="2" ry="2"/><rect class="c" x="130" y="34" rx="2" ry="2"/><rect class="c" x="130" y="50" rx="2" ry="2"/><rect class="c" x="130" y="66" rx="2" ry="2"/><rect class="c" x="130" y="82" rx="2" ry="2"/><rect class="c" x="130" y="98" rx="2" ry="2"/><rect class="c" x="146" y="2" rx="2" ry="2"/><rect class="c" x="146" y="18" rx="2" ry="2"/><rect class="c" x="146" y="34" rx="2" ry="2"/><rect class="c" x="146" y="50" rx="2" ry="2"/><rect class="c" x="146" y="66" rx="2" ry="2"/><rect class="c" x="146" y="82" rx="2" ry="2"/><rect class="c" x="146" y="98" rx="2" ry="2"/><rect class="c" x="162" y="2" rx="2" ry="2"/><rect class="c" x="162" y="18" rx="2" ry="2"/><rect class="c" x="162" y="34" rx="2" ry="2"/><rect class="c" x="162" y="50" rx="2" ry="2"/><rect class="c" x="162" y="66" rx="2" ry="2"/><rect class="c c0" x="162" y="82" rx="2" ry="2"/><rect class="c c1" x="162" y="98" rx="2" ry="2"/><rect class="c" x="178" y="2" rx="2" ry="2"/><rect class="c" x="178" y="18" rx="2" ry="2"/><rect class="c" x="178" y="34" rx="2" ry="2"/><rect class="c" x="178" y="50" rx="2" ry="2"/><rect class="c" x="178" y="66" rx="2" ry="2"/><rect class="c" x="178" y="82" rx="2" ry="2"/><rect class="c" x="178" y="98" rx="2" ry="2"/><rect class="c c2" x="194" y="2" rx="2" ry="2"/><rect class="c c3" x="194" y="18" rx="2" ry="2"/><rect class="c" x="194" y="34" rx="2" ry="2"/><rect class="c" x="194" y="50" rx="2" ry="2"/><rect class="c" x="194" y="66" rx="2" ry="2"/><rect class="c" x="194" y="82" rx="2" ry="2"/><rect class="c" x="194" y="98" rx="2" ry="2"/><rect class="c" x="210" y="2" rx="2" ry="2"/><rect class="c" x="210" y="18" rx="2" ry="2"/><rect class="c" x="210" y="34" rx="2" ry="2"/><rect class="c" x="210" y="50" rx="2" ry="2"/><rect class="c" x="210" y="66" rx="2" ry="2"/><rect class="c" x="210" y="82" rx="2" ry="2"/><rect class="c" x="210" y="98" rx="2" ry="2"/><rect class="c" x="226" y="2" rx="2" ry="2"/><rect class="c" x="226" y="18" rx="2" ry="2"/><rect class="c" x="226" y="34" rx="2" ry="2"/><rect class="c" x="226" y="50" rx="2" ry="2"/><rect class="c" x="226" y="66" rx="2" ry="2"/><rect class="c" x="226" y="82" rx="2" ry="2"/><rect class="c" x="226" y="98" rx="2" ry="2"/><rect class="c" x="242" y="2" rx="2" ry="2"/><rect class="c" x="242" y="18" rx="2" ry="2"/><rect class="c" x="242" y="34" rx="2" ry="2"/><rect class="c" x="242" y="50" rx="2" ry="2"/><rect class="c" x="242" y="66" rx="2" ry="2"/><rect class="c" x="242" y="82" rx="2" ry="2"/><rect class="c" x="242" y="98" rx="2" ry="2"/><rect class="c" x="258" y="2" rx="2" ry="2"/><rect class="c" x="258" y="18" rx="2" ry="2"/><rect class="c" x="258" y="34" rx="2" ry="2"/><rect class="c" x="258" y="50" rx="2" ry="2"/><rect class="c" x="258" y="66" rx="2" ry="2"/><rect class="c" x="258" y="82" rx="2" ry="2"/><rect class="c" x="258" y="98" rx="2" ry="2"/><rect class="c" x="274" y="2" rx="2" ry="2"/><rect class="c" x="274" y="18" rx="2" ry="2"/><rect class="c" x="274" y="34" rx="2" ry="2"/><rect class="c" x="274" y="50" rx="2" ry="2"/><rect class="c c4" x="274" y="66" rx="2" ry="2"/><rect class="c" x="274" y="82" rx="2" ry="2"/><rect class="c" x="274" y="98" rx="2" ry="2"/><rect class="c" x="290" y="2" rx="2" ry="2"/><rect class="c" x="290" y="18" rx="2" ry="2"/><rect class="c" x="290" y="34" rx="2" ry="2"/><rect class="c" x="290" y="50" rx="2" ry="2"/><rect class="c" x="290" y="66" rx="2" ry="2"/><rect class="c" x="290" y="82" rx="2" ry="2"/><rect class="c" x="290" y="98" rx="2" ry="2"/><rect class="c" x="306" y="2" rx="2" ry="2"/><rect class="c" x="306" y="18" rx="2" ry="2"/><rect class="c" x="306" y="34" rx="2" ry="2"/><rect class="c" x="306" y="50" rx="2" ry="2"/><rect class="c" x="306" y="66" rx="2" ry="2"/><rect class="c" x="306" y="82" rx="2" ry="2"/><rect class="c" x="306" y="98" rx="2" ry="2"/><rect class="c" x="322" y="2" rx="2" ry="2"/><rect class="c" x="322" y="18" rx="2" ry="2"/><rect class="c" x="322" y="34" rx="2" ry="2"/><rect class="c" x="322" y="50" rx="2" ry="2"/><rect class="c" x="322" y="66" rx="2" ry="2"/><rect class="c" x="322" y="82" rx="2" ry="2"/><rect class="c" x="322" y="98" rx="2" ry="2"/><rect class="c" x="338" y="2" rx="2" ry="2"/><rect class="c" x="338" y="18" rx="2" ry="2"/><rect class="c" x="338" y="34" rx="2" ry="2"/><rect class="c" x="338" y="50" rx="2" ry="2"/><rect class="c" x="338" y="66" rx="2" ry="2"/><rect class="c" x="338" y="82" rx="2" ry="2"/><rect class="c" x="338" y="98" rx="2" ry="2"/><rect class="c" x="354" y="2" rx="2" ry="2"/><rect class="c" x="354" y="18" rx="2" ry="2"/><rect class="c" x="354" y="34" rx="2" ry="2"/><rect class="c" x="354" y="50" rx="2" ry="2"/><rect class="c" x="354" y="66" rx="2" ry="2"/><rect class="c" x="354" y="82" rx="2" ry="2"/><rect class="c" x="354" y="98" rx="2" ry="2"/><rect class="c" x="370" y="2" rx="2" ry="2"/><rect class="c" x="370" y="18" rx="2" ry="2"/><rect class="c" x="370" y="34" rx="2" ry="2"/><rect class="c" x="370" y="50" rx="2" ry="2"/><rect class="c" x="370" y="66" rx="2" ry="2"/><rect class="c" x="370" y="82" rx="2" ry="2"/><rect class="c" x="370" y="98" rx="2" ry="2"/><rect class="c" x="386" y="2" rx="2" ry="2"/><rect class="c" x="386" y="18" rx="2" ry="2"/><rect class="c" x="386" y="34" rx="2" ry="2"/><rect class="c" x="386" y="50" rx="2" ry="2"/><rect class="c" x="386" y="66" rx="2" ry="2"/><rect class="c" x="386" y="82" rx="2" ry="2"/><rect class="c" x="386" y="98" rx="2" ry="2"/><rect class="c" x="402" y="2" rx="2" ry="2"/><rect class="c" x="402" y="18" rx="2" ry="2"/><rect class="c" x="402" y="34" rx="2" ry="2"/><rect class="c" x="402" y="50" rx="2" ry="2"/><rect class="c c5" x="402" y="66" rx="2" ry="2"/><rect class="c" x="402" y="82" rx="2" ry="2"/><rect class="c" x="402" y="98" rx="2" ry="2"/><rect class="c" x="418" y="2" rx="2" ry="2"/><rect class="c" x="418" y="18" rx="2" ry="2"/><rect class="c" x="418" y="34" rx="2" ry="2"/><rect class="c c6" x="418" y="50" rx="2" ry="2"/><rect class="c" x="418" y="66" rx="2" ry="2"/><rect class="c" x="418" y="82" rx="2" ry="2"/><rect class="c" x="418" y="98" rx="2" ry="2"/><rect class="c" x="434" y="2" rx="2" ry="2"/><rect class="c" x="434" y="18" rx="2" ry="2"/><rect class="c" x="434" y="34" rx="2" ry="2"/><rect class="c" x="434" y="50" rx="2" ry="2"/><rect class="c" x="434" y="66" rx="2" ry="2"/><rect class="c" x="434" y="82" rx="2" ry="2"/><rect class="c" x="434" y="98" rx="2" ry="2"/><rect class="c" x="450" y="2" rx="2" ry="2"/><rect class="c" x="450" y="18" rx="2" ry="2"/><rect class="c" x="450" y="34" rx="2" ry="2"/><rect class="c" x="450" y="50" rx="2" ry="2"/><rect class="c" x="450" y="66" rx="2" ry="2"/><rect class="c" x="450" y="82" rx="2" ry="2"/><rect class="c" x="450" y="98" rx="2" ry="2"/><rect class="c" x="466" y="2" rx="2" ry="2"/><rect class="c" x="466" y="18" rx="2" ry="2"/><rect class="c" x="466" y="34" rx="2" ry="2"/><rect class="c" x="466" y="50" rx="2" ry="2"/><rect class="c" x="466" y="66" rx="2" ry="2"/><rect class="c" x="466" y="82" rx="2" ry="2"/><rect class="c" x="466" y="98" rx="2" ry="2"/><rect class="c" x="482" y="2" rx="2" ry="2"/><rect class="c" x="482" y="18" rx="2" ry="2"/><rect class="c" x="482" y="34" rx="2" ry="2"/><rect class="c" x="482" y="50" rx="2" ry="2"/><rect class="c" x="482" y="66" rx="2" ry="2"/><rect class="c" x="482" y="82" rx="2" ry="2"/><rect class="c" x="482" y="98" rx="2" ry="2"/><rect class="c" x="498" y="2" rx="2" ry="2"/><rect class="c" x="498" y="18" rx="2" ry="2"/><rect class="c" x="498" y="34" rx="2" ry="2"/><rect class="c" x="498" y="50" rx="2" ry="2"/><rect class="c" x="498" y="66" rx="2" ry="2"/><rect class="c" x="498" y="82" rx="2" ry="2"/><rect class="c" x="498" y="98" rx="2" ry="2"/><rect class="c" x="514" y="2" rx="2" ry="2"/><rect class="c" x="514" y="18" rx="2" ry="2"/><rect class="c" x="514" y="34" rx="2" ry="2"/><rect class="c" x="514" y="50" rx="2" ry="2"/><rect class="c" x="514" y="66" rx="2" ry="2"/><rect class="c" x="514" y="82" rx="2" ry="2"/><rect class="c" x="514" y="98" rx="2" ry="2"/><rect class="c" x="530" y="2" rx="2" ry="2"/><rect class="c" x="530" y="18" rx="2" ry="2"/><rect class="c" x="530" y="34" rx="2" ry="2"/><rect class="c" x="530" y="50" rx="2" ry="2"/><rect class="c" x="530" y="66" rx="2" ry="2"/><rect class="c" x="530" y="82" rx="2" ry="2"/><rect class="c" x="530" y="98" rx="2" ry="2"/><rect class="c" x="546" y="2" rx="2" ry="2"/><rect class="c" x="546" y="18" rx="2" ry="2"/><rect class="c" x="546" y="34" rx="2" ry="2"/><rect class="c" x="546" y="50" rx="2" ry="2"/><rect class="c" x="546" y="66" rx="2" ry="2"/><rect class="c" x="546" y="82" rx="2" ry="2"/><rect class="c" x="546" y="98" rx="2" ry="2"/><rect class="c" x="562" y="2" rx="2" ry="2"/><rect class="c" x="562" y="18" rx="2" ry="2"/><rect class="c" x="562" y="34" rx="2" ry="2"/><rect class="c" x="562" y="50" rx="2" ry="2"/><rect class="c" x="562" y="66" rx="2" ry="2"/><rect class="c" x="562" y="82" rx="2" ry="2"/><rect class="c" x="562" y="98" rx="2" ry="2"/><rect class="c" x="578" y="2" rx="2" ry="2"/><rect class="c" x="578" y="18" rx="2" ry="2"/><rect class="c" x="578" y="34" rx="2" ry="2"/><rect class="c" x="578" y="50" rx="2" ry="2"/><rect class="c c7" x="578" y="66" rx="2" ry="2"/><rect class="c" x="578" y="82" rx="2" ry="2"/><rect class="c c8" x="578" y="98" rx="2" ry="2"/><rect class="c c9" x="594" y="2" rx="2" ry="2"/><rect class="c" x="594" y="18" rx="2" ry="2"/><rect class="c" x="594" y="34" rx="2" ry="2"/><rect class="c ca" x="594" y="50" rx="2" ry="2"/><rect class="c" x="594" y="66" rx="2" ry="2"/><rect class="c" x="594" y="82" rx="2" ry="2"/><rect class="c" x="594" y="98" rx="2" ry="2"/><rect class="c" x="610" y="2" rx="2" ry="2"/><rect class="c cb" x="610" y="18" rx="2" ry="2"/><rect class="c" x="610" y="34" rx="2" ry="2"/><rect class="c" x="610" y="50" rx="2" ry="2"/><rect class="c" x="610" y="66" rx="2" ry="2"/><rect class="c cc" x="610" y="82" rx="2" ry="2"/><rect class="c cd" x="610" y="98" rx="2" ry="2"/><rect class="c" x="626" y="2" rx="2" ry="2"/><rect class="c" x="626" y="18" rx="2" ry="2"/><rect class="c" x="626" y="34" rx="2" ry="2"/><rect class="c" x="626" y="50" rx="2" ry="2"/><rect class="c" x="626" y="66" rx="2" ry="2"/><rect class="c" x="626" y="82" rx="2" ry="2"/><rect class="c" x="626" y="98" rx="2" ry="2"/><rect class="c" x="642" y="2" rx="2" ry="2"/><rect class="c" x="642" y="18" rx="2" ry="2"/><rect class="c ce" x="642" y="34" rx="2" ry="2"/><rect class="c cf" x="642" y="50" rx="2" ry="2"/><rect class="c cg" x="642" y="66" rx="2" ry="2"/><rect class="c ch" x="642" y="82" rx="2" ry="2"/><rect class="c ci" x="642" y="98" rx="2" ry="2"/><rect class="c cj" x="658" y="2" rx="2" ry="2"/><rect class="c ck" x="658" y="18" rx="2" ry="2"/><rect class="c cl" x="658" y="34" rx="2" ry="2"/><rect class="c cm" x="658" y="50" rx="2" ry="2"/><rect class="c cn" x="658" y="66" rx="2" ry="2"/><rect class="c co" x="658" y="82" rx="2" ry="2"/><rect class="c cp" x="658" y="98" rx="2" ry="2"/><rect class="c cq" x="674" y="2" rx="2" ry="2"/><rect class="c cr" x="674" y="18" rx="2" ry="2"/><rect class="c cs" x="674" y="34" rx="2" ry="2"/><rect class="c ct" x="674" y="50" rx="2" ry="2"/><rect class="c cu" x="674" y="66" rx="2" ry="2"/><rect class="c cv" x="674" y="82" rx="2" ry="2"/><rect class="c cw" x="674" y="98" rx="2" ry="2"/><rect class="c cx" x="690" y="2" rx="2" ry="2"/><rect class="c cy" x="690" y="18" rx="2" ry="2"/><rect class="c cz" x="690" y="34" rx="2" ry="2"/><rect class="c c10" x="690" y="50" rx="2" ry="2"/><rect class="c c11" x="690" y="66" rx="2" ry="2"/><rect class="c c12" x="690" y="82" rx="2" ry="2"/><rect class="c c13" x="690" y="98" rx="2" ry="2"/><rect class="c c14" x="706" y="2" rx="2" ry="2"/><rect class="c c15" x="706" y="18" rx="2" ry="2"/><rect class="c c16" x="706" y="34" rx="2" ry="2"/><rect class="c c17" x="706" y="50" rx="2" ry="2"/><rect class="c c18" x="706" y="66" rx="2" ry="2"/><rect class="c c19" x="706" y="82" rx="2" ry="2"/><rect class="c c1a" x="706" y="98" rx="2" ry="2"/><rect class="c c1b" x="722" y="2" rx="2" ry="2"/><rect class="c c1c" x="722" y="18" rx="2" ry="2"/><rect class="c c1d" x="722" y="34" rx="2" ry="2"/><rect class="c c1e" x="722" y="50" rx="2" ry="2"/><rect class="c c1f" x="722" y="66" rx="2" ry="2"/><rect class="c c1g" x="722" y="82" rx="2" ry="2"/><rect class="c c1h" x="722" y="98" rx="2" ry="2"/><rect class="c c1i" x="738" y="2" rx="2" ry="2"/><rect class="c c1j" x="738" y="18" rx="2" ry="2"/><rect class="c c1k" x="738" y="34" rx="2" ry="2"/><rect class="c c1l" x="738" y="50" rx="2" ry="2"/><rect class="c c1m" x="738" y="66" rx="2" ry="2"/><rect class="c c1n" x="738" y="82" rx="2" ry="2"/><rect class="c c1o" x="738" y="98" rx="2" ry="2"/><rect class="c c1p" x="754" y="2" rx="2" ry="2"/><rect class="c c1q" x="754" y="18" rx="2" ry="2"/><rect class="c c1r" x="754" y="34" rx="2" ry="2"/><rect class="c c1s" x="754" y="50" rx="2" ry="2"/><rect class="c c1t" x="754" y="66" rx="2" ry="2"/><rect class="c c1u" x="754" y="82" rx="2" ry="2"/><rect class="c c1v" x="754" y="98" rx="2" ry="2"/><rect class="c c1w" x="770" y="2" rx="2" ry="2"/><rect class="c c1x" x="770" y="18" rx="2" ry="2"/><rect class="c c1y" x="770" y="34" rx="2" ry="2"/><rect class="c c1z" x="770" y="50" rx="2" ry="2"/><rect class="c c20" x="770" y="66" rx="2" ry="2"/><rect class="c c21" x="770" y="82" rx="2" ry="2"/><rect class="c c22" x="770" y="98" rx="2" ry="2"/><rect class="c c23" x="786" y="2" rx="2" ry="2"/><rect class="c c24" x="786" y="18" rx="2" ry="2"/><rect class="c c25" x="786" y="34" rx="2" ry="2"/><rect class="c c26" x="786" y="50" rx="2" ry="2"/><rect class="c c27" x="786" y="66" rx="2" ry="2"/><rect class="c c28" x="786" y="82" rx="2" ry="2"/><rect class="c c29" x="786" y="98" rx="2" ry="2"/><rect class="c c2a" x="802" y="2" rx="2" ry="2"/><rect class="c c2b" x="802" y="18" rx="2" ry="2"/><rect class="c c2c" x="802" y="34" rx="2" ry="2"/><rect class="c c2d" x="802" y="50" rx="2" ry="2"/><rect class="c c2e" x="802" y="66" rx="2" ry="2"/><rect class="c c2f" x="802" y="82" rx="2" ry="2"/><rect class="c c2g" x="802" y="98" rx="2" ry="2"/><rect class="c c2h" x="818" y="2" rx="2" ry="2"/><rect class="c c2i" x="818" y="18" rx="2" ry="2"/><rect class="c c2j" x="818" y="34" rx="2" ry="2"/><rect class="c c2k" x="818" y="50" rx="2" ry="2"/><rect class="c c2l" x="818" y="66" rx="2" ry="2"/><rect class="c c2m" x="818" y="82" rx="2" ry="2"/><rect class="c c2n" x="818" y="98" rx="2" ry="2"/><rect class="c c2o" x="834" y="2" rx="2" ry="2"/><rect class="c c2p" x="834" y="18" rx="2" ry="2"/><rect class="c c2q" x="834" y="34" rx="2" ry="2"/><rect class="c c2r" x="834" y="50" rx="2" ry="2"/><rect class="c c2s" x="834" y="66" rx="2" ry="2"/><rect class="u u0" height="12" width="76.2" x="0.0" y="144"/><rect class="u u1" height="12" width="462.4" x="75.6" y="144"/><rect class="u u2" height="12" width="311.3" x="537.3" y="144"/><rect class="s s0" x="0.8" y="0.8" width="14.4" height="14.4" rx="4.5" ry="4.5"/><rect class="s s1" x="1.8" y="1.8" width="12.3" height="12.3" rx="4.1" ry="4.1"/><rect class="s s2" x="2.6" y="2.6" width="10.8" height="10.8" rx="3.6" ry="3.6"/><rect class="s s3" x="3.0" y="3.0" width="9.9" height="9.9" rx="3.3" ry="3.3"/></svg>