<svg viewBox="-16 -32 880 192" width="880" height="192" xmlns="http://www.w3.org/2000/svg"><desc>Generated with https://github.com/Platane/snk</desc><style>:root{--cb:#1b1f230a;--cs:purple;--ce:#ebedf0;--c0:#ebedf0;--c1:#9be9a8;--c2:#40c463;--c3:#30a14e;--c4:#216e39}.c{shape-rendering:geometricPrecision;fill:var(--ce);stroke-width:1px;stroke:var(--cb);animation:none 28500ms linear infinite;width:12px;height:12px}@keyframes c0{8.06%{fill:var(--c1)}8.08%,100%{fill:var(--ce)}}.c.c0{fill:var(--c1);animation-name:c0}@keyframes c1{58.94%{fill:var(--c2)}58.96%,100%{fill:var(--ce)}}.c.c1{fill:var(--c2);animation-name:c1}@keyframes c2{5.6%{fill:var(--c1)}5.62%,100%{fill:var(--ce)}}.c.c2{fill:var(--c1);animation-name:c2}@keyframes c3{5.95%{fill:var(--c1)}5.97%,100%{fill:var(--ce)}}.c.c3{fill:var(--c1);animation-name:c3}@keyframes c4{55.78%{fill:var(--c2)}55.8%,100%{fill:var(--ce)}}.c.c4{fill:var(--c2);animation-name:c4}@keyframes c5{64.9%{fill:var(--c4)}64.92%,100%{fill:var(--ce)}}.c.c5{fill:var(--c4);animation-name:c5}@keyframes c6{14.38%{fill:var(--c1)}14.4%,100%{fill:var(--ce)}}.c.c6{fill:var(--c1);animation-name:c6}@keyframes c7{18.94%{fill:var(--c1)}18.96%,100%{fill:var(--ce)}}.c.c7{fill:var(--c1);animation-name:c7}@keyframes c8{48.41%{fill:var(--c2)}48.43%,100%{fill:var(--ce)}}.c.c8{fill:var(--c2);animation-name:c8}@keyframes c9{85.25%{fill:var(--c4)}85.27%,100%{fill:var(--ce)}}.c.c9{fill:var(--c4);animation-name:c9}@keyframes ca{18.24%{fill:var(--c1)}18.26%,100%{fill:var(--ce)}}.c.ca{fill:var(--c1);animation-name:ca}@keyframes cb{22.8%{fill:var(--c1)}22.82%,100%{fill:var(--ce)}}.c.cb{fill:var(--c1);animation-name:cb}@keyframes cc{19.99%{fill:var(--c1)}20.01%,100%{fill:var(--ce)}}.c.cc{fill:var(--c1);animation-name:cc}@keyframes cd{20.34%{fill:var(--c1)}20.36%,100%{fill:var(--ce)}}.c.cd{fill:var(--c1);animation-name:cd}@keyframes ce{70.87%{fill:var(--c4)}70.89%,100%{fill:var(--ce)}}.c.ce{fill:var(--c4);animation-name:ce}@keyframes cf{70.52%{fill:var(--c4)}70.54%,100%{fill:var(--ce)}}.c.cf{fill:var(--c4);animation-name:cf}@keyframes cg{45.6%{fill:var(--c2)}45.62%,100%{fill:var(--ce)}}.c.cg{fill:var(--c2);animation-name:cg}@keyframes ch{45.25%{fill:var(--c2)}45.27%,100%{fill:var(--ce)}}.c.ch{fill:var(--c2);animation-name:ch}@keyframes ci{47.01%{fill:var(--c2)}47.03%,100%{fill:var(--ce)}}.c.ci{fill:var(--c2);animation-name:ci}@keyframes cj{24.2%{fill:var(--c2)}24.22%,100%{fill:var(--ce)}}.c.cj{fill:var(--c2);animation-name:cj}@keyframes ck{34.38%{fill:var(--c2)}34.4%,100%{fill:var(--ce)}}.c.ck{fill:var(--c2);animation-name:ck}@keyframes cl{34.03%{fill:var(--c2)}34.05%,100%{fill:var(--ce)}}.c.cl{fill:var(--c2);animation-name:cl}@keyframes cm{36.48%{fill:var(--c2)}36.5%,100%{fill:var(--ce)}}.c.cm{fill:var(--c2);animation-name:cm}@keyframes cn{36.83%{fill:var(--c2)}36.85%,100%{fill:var(--ce)}}.c.cn{fill:var(--c2);animation-name:cn}@keyframes co{44.9%{fill:var(--c2)}44.92%,100%{fill:var(--ce)}}.c.co{fill:var(--c2);animation-name:co}@keyframes cp{46.66%{fill:var(--c2)}46.68%,100%{fill:var(--ce)}}.c.cp{fill:var(--c2);animation-name:cp}@keyframes cq{24.55%{fill:var(--c2)}24.57%,100%{fill:var(--ce)}}.c.cq{fill:var(--c2);animation-name:cq}@keyframes cr{71.92%{fill:var(--c4)}71.94%,100%{fill:var(--ce)}}.c.cr{fill:var(--c4);animation-name:cr}@keyframes cs{33.67%{fill:var(--c2)}33.69%,100%{fill:var(--ce)}}.c.cs{fill:var(--c2);animation-name:cs}@keyframes ct{33.32%{fill:var(--c2)}33.34%,100%{fill:var(--ce)}}.c.ct{fill:var(--c2);animation-name:ct}@keyframes cu{37.18%{fill:var(--c2)}37.2%,100%{fill:var(--ce)}}.c.cu{fill:var(--c2);animation-name:cu}@keyframes cv{44.55%{fill:var(--c2)}44.57%,100%{fill:var(--ce)}}.c.cv{fill:var(--c2);animation-name:cv}@keyframes cw{44.2%{fill:var(--c2)}44.22%,100%{fill:var(--ce)}}.c.cw{fill:var(--c2);animation-name:cw}@keyframes cx{24.9%{fill:var(--c2)}24.92%,100%{fill:var(--ce)}}.c.cx{fill:var(--c2);animation-name:cx}@keyframes cy{29.46%{fill:var(--c2)}29.48%,100%{fill:var(--ce)}}.c.cy{fill:var(--c2);animation-name:cy}@keyframes cz{29.81%{fill:var(--c2)}29.83%,100%{fill:var(--ce)}}.c.cz{fill:var(--c2);animation-name:cz}@keyframes c10{32.97%{fill:var(--c2)}32.99%,100%{fill:var(--ce)}}.c.c10{fill:var(--c2);animation-name:c10}@keyframes c11{37.53%{fill:var(--c2)}37.55%,100%{fill:var(--ce)}}.c.c11{fill:var(--c2);animation-name:c11}@keyframes c12{37.88%{fill:var(--c2)}37.9%,100%{fill:var(--ce)}}.c.c12{fill:var(--c2);animation-name:c12}@keyframes c13{43.85%{fill:var(--c2)}43.87%,100%{fill:var(--ce)}}.c.c13{fill:var(--c2);animation-name:c13}@keyframes c14{25.25%{fill:var(--c2)}25.27%,100%{fill:var(--ce)}}.c.c14{fill:var(--c2);animation-name:c14}@keyframes c15{29.11%{fill:var(--c2)}29.13%,100%{fill:var(--ce)}}.c.c15{fill:var(--c2);animation-name:c15}@keyframes c16{30.17%{fill:var(--c2)}30.19%,100%{fill:var(--ce)}}.c.c16{fill:var(--c2);animation-name:c16}@keyframes c17{32.62%{fill:var(--c2)}32.64%,100%{fill:var(--ce)}}.c.c17{fill:var(--c2);animation-name:c17}@keyframes c18{73.67%{fill:var(--c4)}73.69%,100%{fill:var(--ce)}}.c.c18{fill:var(--c4);animation-name:c18}@keyframes c19{38.24%{fill:var(--c2)}38.26%,100%{fill:var(--ce)}}.c.c19{fill:var(--c2);animation-name:c19}@keyframes c1a{43.5%{fill:var(--c2)}43.52%,100%{fill:var(--ce)}}.c.c1a{fill:var(--c2);animation-name:c1a}@keyframes c1b{25.6%{fill:var(--c2)}25.62%,100%{fill:var(--ce)}}.c.c1b{fill:var(--c2);animation-name:c1b}@keyframes c1c{28.76%{fill:var(--c2)}28.78%,100%{fill:var(--ce)}}.c.c1c{fill:var(--c2);animation-name:c1c}@keyframes c1d{30.52%{fill:var(--c2)}30.54%,100%{fill:var(--ce)}}.c.c1d{fill:var(--c2);animation-name:c1d}@keyframes c1e{32.27%{fill:var(--c2)}32.29%,100%{fill:var(--ce)}}.c.c1e{fill:var(--c2);animation-name:c1e}@keyframes c1f{40.34%{fill:var(--c2)}40.36%,100%{fill:var(--ce)}}.c.c1f{fill:var(--c2);animation-name:c1f}@keyframes c1g{38.59%{fill:var(--c2)}38.61%,100%{fill:var(--ce)}}.c.c1g{fill:var(--c2);animation-name:c1g}@keyframes c1h{41.04%{fill:var(--c2)}41.06%,100%{fill:var(--ce)}}.c.c1h{fill:var(--c2);animation-name:c1h}@keyframes c1i{25.95%{fill:var(--c2)}25.97%,100%{fill:var(--ce)}}.c.c1i{fill:var(--c2);animation-name:c1i}@keyframes c1j{28.41%{fill:var(--c2)}28.43%,100%{fill:var(--ce)}}.c.c1j{fill:var(--c2);animation-name:c1j}@keyframes c1k{30.87%{fill:var(--c2)}30.89%,100%{fill:var(--ce)}}.c.c1k{fill:var(--c2);animation-name:c1k}@keyframes c1l{31.92%{fill:var(--c2)}31.94%,100%{fill:var(--ce)}}.c.c1l{fill:var(--c2);animation-name:c1l}@keyframes c1m{39.99%{fill:var(--c2)}40.01%,100%{fill:var(--ce)}}.c.c1m{fill:var(--c2);animation-name:c1m}@keyframes c1n{38.94%{fill:var(--c2)}38.96%,100%{fill:var(--ce)}}.c.c1n{fill:var(--c2);animation-name:c1n}@keyframes c1o{41.39%{fill:var(--c2)}41.41%,100%{fill:var(--ce)}}.c.c1o{fill:var(--c2);animation-name:c1o}@keyframes c1p{26.31%{fill:var(--c2)}26.33%,100%{fill:var(--ce)}}.c.c1p{fill:var(--c2);animation-name:c1p}@keyframes c1q{28.06%{fill:var(--c2)}28.08%,100%{fill:var(--ce)}}.c.c1q{fill:var(--c2);animation-name:c1q}@keyframes c1r{31.22%{fill:var(--c2)}31.24%,100%{fill:var(--ce)}}.c.c1r{fill:var(--c2);animation-name:c1r}@keyframes c1s{31.57%{fill:var(--c2)}31.59%,100%{fill:var(--ce)}}.c.c1s{fill:var(--c2);animation-name:c1s}@keyframes c1t{39.64%{fill:var(--c2)}39.66%,100%{fill:var(--ce)}}.c.c1t{fill:var(--c2);animation-name:c1t}@keyframes c1u{39.29%{fill:var(--c2)}39.31%,100%{fill:var(--ce)}}.c.c1u{fill:var(--c2);animation-name:c1u}@keyframes c1v{41.74%{fill:var(--c2)}41.76%,100%{fill:var(--ce)}}.c.c1v{fill:var(--c2);animation-name:c1v}@keyframes c1w{26.66%{fill:var(--c2)}26.68%,100%{fill:var(--ce)}}.c.c1w{fill:var(--c2);animation-name:c1w}@keyframes c1x{77.53%{fill:var(--c4)}77.55%,100%{fill:var(--ce)}}.c.c1x{fill:var(--c4);animation-name:c1x}@keyframes c1y{77.88%{fill:var(--c4)}77.9%,100%{fill:var(--ce)}}.c.c1y{fill:var(--c4);animation-name:c1y}@keyframes c1z{75.43%{fill:var(--c4)}75.45%,100%{fill:var(--ce)}}.c.c1z{fill:var(--c4);animation-name:c1z}@keyframes c20{75.08%{fill:var(--c4)}75.1%,100%{fill:var(--ce)}}.c.c20{fill:var(--c4);animation-name:c20}@keyframes c21{78.94%{fill:var(--c4)}78.96%,100%{fill:var(--ce)}}.c.c21{fill:var(--c4);animation-name:c21}@keyframes c22{79.29%{fill:var(--c4)}79.31%,100%{fill:var(--ce)}}.c.c22{fill:var(--c4);animation-name:c22}@keyframes c23{76.83%{fill:var(--c4)}76.85%,100%{fill:var(--ce)}}.c.c23{fill:var(--c4);animation-name:c23}@keyframes c24{76.48%{fill:var(--c4)}76.5%,100%{fill:var(--ce)}}.c.c24{fill:var(--c4);animation-name:c24}@keyframes c25{76.13%{fill:var(--c4)}76.15%,100%{fill:var(--ce)}}.c.c25{fill:var(--c4);animation-name:c25}@keyframes c26{75.78%{fill:var(--c4)}75.8%,100%{fill:var(--ce)}}.c.c26{fill:var(--c4);animation-name:c26}.u{transform-origin:0 0;transform:scale(0,1);animation:none linear 28500ms infinite}@keyframes u0{5.6%{transform:scale(0.000,1)}5.62%,5.95%{transform:scale(0.111,1)}5.97%,8.06%{transform:scale(0.222,1)}8.08%,14.38%{transform:scale(0.333,1)}14.4%,18.24%{transform:scale(0.444,1)}18.26%,18.94%{transform:scale(0.556,1)}18.96%,19.99%{transform:scale(0.667,1)}20.01%,20.34%{transform:scale(0.778,1)}20.36%,22.8%{transform:scale(0.889,1)}22.82%,100%{transform:scale(1.000,1)}}.u.u0{fill:var(--c1);animation-name:u0;transform-origin:0.0px 0}@keyframes u1{24.2%{transform:scale(0.000,1)}24.22%,24.55%{transform:scale(0.019,1)}24.57%,24.9%{transform:scale(0.037,1)}24.92%,25.25%{transform:scale(0.056,1)}25.27%,25.6%{transform:scale(0.074,1)}25.62%,25.95%{transform:scale(0.093,1)}25.97%,26.31%{transform:scale(0.111,1)}26.33%,26.66%{transform:scale(0.130,1)}26.68%,28.06%{transform:scale(0.148,1)}28.08%,28.41%{transform:scale(0.167,1)}28.43%,28.76%{transform:scale(0.185,1)}28.78%,29.11%{transform:scale(0.204,1)}29.13%,29.46%{transform:scale(0.222,1)}29.48%,29.81%{transform:scale(0.241,1)}29.83%,30.17%{transform:scale(0.259,1)}30.19%,30.52%{transform:scale(0.278,1)}30.54%,30.87%{transform:scale(0.296,1)}30.89%,31.22%{transform:scale(0.315,1)}31.24%,31.57%{transform:scale(0.333,1)}31.59%,31.92%{transform:scale(0.352,1)}31.94%,32.27%{transform:scale(0.370,1)}32.29%,32.62%{transform:scale(0.389,1)}32.64%,32.97%{transform:scale(0.407,1)}32.99%,33.32%{transform:scale(0.426,1)}33.34%,33.67%{transform:scale(0.444,1)}33.69%,34.03%{transform:scale(0.463,1)}34.05%,34.38%{transform:scale(0.481,1)}34.4%,36.48%{transform:scale(0.500,1)}36.5%,36.83%{transform:scale(0.519,1)}36.85%,37.18%{transform:scale(0.537,1)}37.2%,37.53%{transform:scale(0.556,1)}37.55%,37.88%{transform:scale(0.574,1)}37.9%,38.24%{transform:scale(0.593,1)}38.26%,38.59%{transform:scale(0.611,1)}38.61%,38.94%{transform:scale(0.630,1)}38.96%,39.29%{transform:scale(0.648,1)}39.31%,39.64%{transform:scale(0.667,1)}39.66%,39.99%{transform:scale(0.685,1)}40.01%,40.34%{transform:scale(0.704,1)}40.36%,41.04%{transform:scale(0.722,1)}41.06%,41.39%{transform:scale(0.741,1)}41.41%,41.74%{transform:scale(0.759,1)}41.76%,43.5%{transform:scale(0.778,1)}43.52%,43.85%{transform:scale(0.796,1)}43.87%,44.2%{transform:scale(0.815,1)}44.22%,44.55%{transform:scale(0.833,1)}44.57%,44.9%{transform:scale(0.852,1)}44.92%,45.25%{transform:scale(0.870,1)}45.27%,45.6%{transform:scale(0.889,1)}45.62%,46.66%{transform:scale(0.907,1)}46.68%,47.01%{transform:scale(0.926,1)}47.03%,48.41%{transform:scale(0.944,1)}48.43%,55.78%{transform:scale(0.963,1)}55.8%,58.94%{transform:scale(0.981,1)}58.96%,100%{transform:scale(1.000,1)}}.u.u1{fill:var(--c2);animation-name:u1;transform-origin:96.6px 0}@keyframes u2{64.9%{transform:scale(0.000,1)}64.92%,70.52%{transform:scale(0.063,1)}70.54%,70.87%{transform:scale(0.125,1)}70.89%,71.92%{transform:scale(0.188,1)}71.94%,73.67%{transform:scale(0.250,1)}73.69%,75.08%{transform:scale(0.313,1)}75.1%,75.43%{transform:scale(0.375,1)}75.45%,75.78%{transform:scale(0.438,1)}75.8%,76.13%{transform:scale(0.500,1)}76.15%,76.48%{transform:scale(0.563,1)}76.5%,76.83%{transform:scale(0.625,1)}76.85%,77.53%{transform:scale(0.688,1)}77.55%,77.88%{transform:scale(0.750,1)}77.9%,78.94%{transform:scale(0.813,1)}78.96%,79.29%{transform:scale(0.875,1)}79.31%,85.25%{transform:scale(0.938,1)}85.27%,100%{transform:scale(1.000,1)}}.u.u2{fill:var(--c4);animation-name:u2;transform-origin:676.3px 0}.s{shape-rendering:geometricPrecision;fill:var(--cs);animation:none linear 28500ms infinite}@keyframes s0{0%,99.65%{transform:translate(0px,-16px)}0.35%{transform:translate(0px,0px)}5.61%{transform:translate(240px,0px)}5.96%{transform:translate(240px,16px)}6.67%{transform:translate(208px,16px)}8.07%{transform:translate(208px,80px)}13.68%{transform:translate(464px,80px)}14.39%{transform:translate(464px,48px)}18.25%{transform:translate(640px,48px)}18.6%{transform:translate(640px,64px)}18.95%{transform:translate(624px,64px)}19.3%,48.77%{transform:translate(624px,80px)}20%{transform:translate(656px,80px)}20.35%{transform:translate(656px,96px)}20.7%{transform:translate(672px,96px)}22.46%{transform:translate(672px,16px)}22.81%{transform:translate(656px,16px)}23.16%{transform:translate(656px,0px)}26.67%,77.19%{transform:translate(816px,0px)}27.02%{transform:translate(816px,-16px)}27.37%{transform:translate(800px,-16px)}28.07%{transform:translate(800px,16px)}29.47%{transform:translate(736px,16px)}29.82%{transform:translate(736px,32px)}31.23%{transform:translate(800px,32px)}31.58%{transform:translate(800px,48px)}33.33%{transform:translate(720px,48px)}33.68%,71.58%{transform:translate(720px,32px)}34.04%{transform:translate(704px,32px)}34.74%{transform:translate(704px,0px)}35.09%{transform:translate(688px,0px)}35.44%{transform:translate(688px,16px)}35.79%{transform:translate(704px,16px)}36.84%,45.96%{transform:translate(704px,64px)}37.54%{transform:translate(736px,64px)}37.89%{transform:translate(736px,80px)}39.3%,42.11%{transform:translate(800px,80px)}39.65%{transform:translate(800px,64px)}40.35%{transform:translate(768px,64px)}41.05%{transform:translate(768px,96px)}41.75%,79.65%{transform:translate(800px,96px)}43.16%{transform:translate(752px,80px)}43.51%{transform:translate(752px,96px)}44.21%{transform:translate(720px,96px)}44.56%{transform:translate(720px,80px)}45.26%{transform:translate(688px,80px)}45.61%,70.18%{transform:translate(688px,64px)}46.67%{transform:translate(704px,96px)}48.42%{transform:translate(624px,96px)}52.98%{transform:translate(432px,80px)}53.33%{transform:translate(432px,64px)}58.25%{transform:translate(208px,64px)}58.95%{transform:translate(208px,96px)}64.21%{transform:translate(448px,96px)}64.91%{transform:translate(448px,64px)}70.88%{transform:translate(688px,32px)}71.93%{transform:translate(720px,16px)}72.63%{transform:translate(752px,16px)}73.68%{transform:translate(752px,64px)}75.09%{transform:translate(816px,64px)}75.44%{transform:translate(816px,48px)}75.79%{transform:translate(832px,48px)}76.84%{transform:translate(832px,0px)}79.3%{transform:translate(816px,96px)}81.75%{transform:translate(800px,0px)}96.84%{transform:translate(112px,0px)}97.19%{transform:translate(112px,-16px)}}.s.s0{transform:translate(0px,-16px);animation-name:s0}@keyframes s1{0%,99.65%{transform:translate(16px,-16px)}0.35%{transform:translate(0px,-16px)}0.7%{transform:translate(0px,0px)}5.96%{transform:translate(240px,0px)}6.32%{transform:translate(240px,16px)}7.02%{transform:translate(208px,16px)}8.42%{transform:translate(208px,80px)}14.04%{transform:translate(464px,80px)}14.74%{transform:translate(464px,48px)}18.6%{transform:translate(640px,48px)}18.95%{transform:translate(640px,64px)}19.3%{transform:translate(624px,64px)}19.65%,49.12%{transform:translate(624px,80px)}20.35%{transform:translate(656px,80px)}20.7%{transform:translate(656px,96px)}21.05%{transform:translate(672px,96px)}22.81%{transform:translate(672px,16px)}23.16%{transform:translate(656px,16px)}23.51%{transform:translate(656px,0px)}27.02%,77.54%{transform:translate(816px,0px)}27.37%{transform:translate(816px,-16px)}27.72%{transform:translate(800px,-16px)}28.42%{transform:translate(800px,16px)}29.82%{transform:translate(736px,16px)}30.18%{transform:translate(736px,32px)}31.58%{transform:translate(800px,32px)}31.93%{transform:translate(800px,48px)}33.68%{transform:translate(720px,48px)}34.04%,71.93%{transform:translate(720px,32px)}34.39%{transform:translate(704px,32px)}35.09%{transform:translate(704px,0px)}35.44%{transform:translate(688px,0px)}35.79%{transform:translate(688px,16px)}36.14%{transform:translate(704px,16px)}37.19%,46.32%{transform:translate(704px,64px)}37.89%{transform:translate(736px,64px)}38.25%{transform:translate(736px,80px)}39.65%,42.46%{transform:translate(800px,80px)}40%{transform:translate(800px,64px)}40.7%{transform:translate(768px,64px)}41.4%{transform:translate(768px,96px)}42.11%,80%{transform:translate(800px,96px)}43.51%{transform:translate(752px,80px)}43.86%{transform:translate(752px,96px)}44.56%{transform:translate(720px,96px)}44.91%{transform:translate(720px,80px)}45.61%{transform:translate(688px,80px)}45.96%,70.53%{transform:translate(688px,64px)}47.02%{transform:translate(704px,96px)}48.77%{transform:translate(624px,96px)}53.33%{transform:translate(432px,80px)}53.68%{transform:translate(432px,64px)}58.6%{transform:translate(208px,64px)}59.3%{transform:translate(208px,96px)}64.56%{transform:translate(448px,96px)}65.26%{transform:translate(448px,64px)}71.23%{transform:translate(688px,32px)}72.28%{transform:translate(720px,16px)}72.98%{transform:translate(752px,16px)}74.04%{transform:translate(752px,64px)}75.44%{transform:translate(816px,64px)}75.79%{transform:translate(816px,48px)}76.14%{transform:translate(832px,48px)}77.19%{transform:translate(832px,0px)}79.65%{transform:translate(816px,96px)}82.11%{transform:translate(800px,0px)}97.19%{transform:translate(112px,0px)}97.54%{transform:translate(112px,-16px)}}.s.s1{transform:translate(16px,-16px);animation-name:s1}@keyframes s2{0%,99.65%{transform:translate(32px,-16px)}0.7%{transform:translate(0px,-16px)}1.05%{transform:translate(0px,0px)}6.32%{transform:translate(240px,0px)}6.67%{transform:translate(240px,16px)}7.37%{transform:translate(208px,16px)}8.77%{transform:translate(208px,80px)}14.39%{transform:translate(464px,80px)}15.09%{transform:translate(464px,48px)}18.95%{transform:translate(640px,48px)}19.3%{transform:translate(640px,64px)}19.65%{transform:translate(624px,64px)}20%,49.47%{transform:translate(624px,80px)}20.7%{transform:translate(656px,80px)}21.05%{transform:translate(656px,96px)}21.4%{transform:translate(672px,96px)}23.16%{transform:translate(672px,16px)}23.51%{transform:translate(656px,16px)}23.86%{transform:translate(656px,0px)}27.37%,77.89%{transform:translate(816px,0px)}27.72%{transform:translate(816px,-16px)}28.07%{transform:translate(800px,-16px)}28.77%{transform:translate(800px,16px)}30.18%{transform:translate(736px,16px)}30.53%{transform:translate(736px,32px)}31.93%{transform:translate(800px,32px)}32.28%{transform:translate(800px,48px)}34.04%{transform:translate(720px,48px)}34.39%,72.28%{transform:translate(720px,32px)}34.74%{transform:translate(704px,32px)}35.44%{transform:translate(704px,0px)}35.79%{transform:translate(688px,0px)}36.14%{transform:translate(688px,16px)}36.49%{transform:translate(704px,16px)}37.54%,46.67%{transform:translate(704px,64px)}38.25%{transform:translate(736px,64px)}38.6%{transform:translate(736px,80px)}40%,42.81%{transform:translate(800px,80px)}40.35%{transform:translate(800px,64px)}41.05%{transform:translate(768px,64px)}41.75%{transform:translate(768px,96px)}42.46%,80.35%{transform:translate(800px,96px)}43.86%{transform:translate(752px,80px)}44.21%{transform:translate(752px,96px)}44.91%{transform:translate(720px,96px)}45.26%{transform:translate(720px,80px)}45.96%{transform:translate(688px,80px)}46.32%,70.88%{transform:translate(688px,64px)}47.37%{transform:translate(704px,96px)}49.12%{transform:translate(624px,96px)}53.68%{transform:translate(432px,80px)}54.04%{transform:translate(432px,64px)}58.95%{transform:translate(208px,64px)}59.65%{transform:translate(208px,96px)}64.91%{transform:translate(448px,96px)}65.61%{transform:translate(448px,64px)}71.58%{transform:translate(688px,32px)}72.63%{transform:translate(720px,16px)}73.33%{transform:translate(752px,16px)}74.39%{transform:translate(752px,64px)}75.79%{transform:translate(816px,64px)}76.14%{transform:translate(816px,48px)}76.49%{transform:translate(832px,48px)}77.54%{transform:translate(832px,0px)}80%{transform:translate(816px,96px)}82.46%{transform:translate(800px,0px)}97.54%{transform:translate(112px,0px)}97.89%{transform:translate(112px,-16px)}}.s.s2{transform:translate(32px,-16px);animation-name:s2}@keyframes s3{0%,99.65%{transform:translate(48px,-16px)}1.05%{transform:translate(0px,-16px)}1.4%{transform:translate(0px,0px)}6.67%{transform:translate(240px,0px)}7.02%{transform:translate(240px,16px)}7.72%{transform:translate(208px,16px)}9.12%{transform:translate(208px,80px)}14.74%{transform:translate(464px,80px)}15.44%{transform:translate(464px,48px)}19.3%{transform:translate(640px,48px)}19.65%{transform:translate(640px,64px)}20%{transform:translate(624px,64px)}20.35%,49.82%{transform:translate(624px,80px)}21.05%{transform:translate(656px,80px)}21.4%{transform:translate(656px,96px)}21.75%{transform:translate(672px,96px)}23.51%{transform:translate(672px,16px)}23.86%{transform:translate(656px,16px)}24.21%{transform:translate(656px,0px)}27.72%,78.25%{transform:translate(816px,0px)}28.07%{transform:translate(816px,-16px)}28.42%{transform:translate(800px,-16px)}29.12%{transform:translate(800px,16px)}30.53%{transform:translate(736px,16px)}30.88%{transform:translate(736px,32px)}32.28%{transform:translate(800px,32px)}32.63%{transform:translate(800px,48px)}34.39%{transform:translate(720px,48px)}34.74%,72.63%{transform:translate(720px,32px)}35.09%{transform:translate(704px,32px)}35.79%{transform:translate(704px,0px)}36.14%{transform:translate(688px,0px)}36.49%{transform:translate(688px,16px)}36.84%{transform:translate(704px,16px)}37.89%,47.02%{transform:translate(704px,64px)}38.6%{transform:translate(736px,64px)}38.95%{transform:translate(736px,80px)}40.35%,43.16%{transform:translate(800px,80px)}40.7%{transform:translate(800px,64px)}41.4%{transform:translate(768px,64px)}42.11%{transform:translate(768px,96px)}42.81%,80.7%{transform:translate(800px,96px)}44.21%{transform:translate(752px,80px)}44.56%{transform:translate(752px,96px)}45.26%{transform:translate(720px,96px)}45.61%{transform:translate(720px,80px)}46.32%{transform:translate(688px,80px)}46.67%,71.23%{transform:translate(688px,64px)}47.72%{transform:translate(704px,96px)}49.47%{transform:translate(624px,96px)}54.04%{transform:translate(432px,80px)}54.39%{transform:translate(432px,64px)}59.3%{transform:translate(208px,64px)}60%{transform:translate(208px,96px)}65.26%{transform:translate(448px,96px)}65.96%{transform:translate(448px,64px)}71.93%{transform:translate(688px,32px)}72.98%{transform:translate(720px,16px)}73.68%{transform:translate(752px,16px)}74.74%{transform:translate(752px,64px)}76.14%{transform:translate(816px,64px)}76.49%{transform:translate(816px,48px)}76.84%{transform:translate(832px,48px)}77.89%{transform:translate(832px,0px)}80.35%{transform:translate(816px,96px)}82.81%{transform:translate(800px,0px)}97.89%{transform:translate(112px,0px)}98.25%{transform:translate(112px,-16px)}}.s.s3{transform:translate(48px,-16px);animation-name:s3}</style><rect class="c" x="2" y="2" rx="2" ry="2"/><rect class="c" x="2" y="18" rx="2" ry="2"/><rect class="c" x="2" y="34" rx="2" ry="2"/><rect class="c" x="2" y="50" rx="2" ry="2"/><rect class="c" x="2" y="66" rx="2" ry="2"/><rect class="c" x="2" y="82" rx="2" ry="2"/><rect class="c" x="2" y="98" rx="2" ry="2"/><rect class="c" x="18" y="2" rx="2" ry="2"/><rect class="c" x="18" y="18" rx="2" ry="2"/><rect class="c" x="18" y="34" rx="2" ry="2"/><rect class="c" x="18" y="50" rx="2" ry="2"/><rect class="c" x="18" y="66" rx="2" ry="2"/><rect class="c" x="18" y="82" rx="2" ry="2"/><rect class="c" x="18" y="98" rx="2" ry="2"/><rect class="c" x="34" y="2" rx="2" ry="2"/><rect class="c" x="34" y="18" rx="2" ry="2"/><rect class="c" x="34" y="34" rx="2" ry="2"/><rect class="c" x="34" y="50" rx="2" ry="2"/><rect class="c" x="34" y="66" rx="2" ry="2"/><rect class="c" x="34" y="82" rx="2" ry="2"/><rect class="c" x="34" y="98" rx="2" ry="2"/><rect class="c" x="50" y="2" rx="2" ry="2"/><rect class="c" x="50" y="18" rx="2" ry="2"/><rect class="c" x="50" y="34" rx="2" ry="2"/><rect class="c" x="50" y="50" rx="2" ry="2"/><rect class="c" x="50" y="66" rx="2" ry="2"/><rect class="c" x="50" y="82" rx="2" ry="2"/><rect class="c" x="50" y="98" rx="2" ry="2"/><rect class="c" x="66" y="2" rx="2" ry="2"/><rect class="c" x="66" y="18" rx="2" ry="2"/><rect class="c" x="66" y="34" rx="2" ry="2"/><rect class="c" x="66" y="50" rx="2" ry="2"/><rect class="c" x="66" y="66" rx="2" ry="2"/><rect class="c" x="66" y="82" rx="2" ry="2"/><rect class="c" x="66" y="98" rx="2" ry="2"/><rect class="c" x="82" y="2" rx="2" ry="2"/><rect class="c" x="82" y="18" rx="2" ry="2"/><rect class="c" x="82" y="34" rx="2" ry="2"/><rect class="c" x="82" y="50" rx="2" ry="2"/><rect class="c" x="82" y="66" rx="2" ry="2"/><rect class="c" x="82" y="82" rx="2" ry="2"/><rect class="c" x="82" y="98" rx="2" ry="2"/><rect class="c" x="98" y="2" rx="2" ry="2"/><rect class="c" x="98" y="18" rx="2" ry="2"/><rect class="c" x="98" y="34" rx="2" ry="2"/><rect class="c" x="98" y="50" rx="2" ry="2"/><rect class="c" x="98" y="66" rx="2" ry="2"/><rect class="c" x="98" y="82" rx="2" ry="2"/><rect class="c" x="98" y="98" rx="2" ry="2"/><rect class="c" x="114" y="2" rx="2" ry="2"/><rect class="c" x="114" y="18" rx="2" ry="2"/><rect class="c" x="114" y="34" rx="2" ry="2"/><rect class="c" x="114" y="50" rx="2" ry="2"/><rect class="c" x="114" y="66" rx="2" ry="2"/><rect class="c" x="114" y="82" rx="2" ry="2"/><rect class="c" x="114" y="98" rx="2" ry="2"/><rect class="c" x="130" y="2" rx="2" ry="2"/><rect class="c" x="130" y="18" rx="2" ry="2"/><rect class="c" x="130" y="34" rx="2" ry="2"/><rect class="c" x="130" y="50" rx="2" ry="2"/><rect class="c" x="130" y="66" rx="2" ry="2"/><rect class="c" x="130" y="82" rx="2" ry="2"/><rect class="c" x="130" y="98" rx="2" ry="2"/><rect class="c" x="146" y="2" rx="2" ry="2"/><rect class="c" x="146" y="18" rx="2" ry="2"/><rect class="c" x="146" y="34" rx="2" ry="2"/><rect class="c" x="146" y="50" rx="2" ry="2"/><rect class="c" x="146" y="66" rx="2" ry="2"/><rect class="c" x="146" y="82" rx="2" ry="2"/><rect class="c" x="146" y="98" rx="2" ry="2"/><rect class="c" x="162" y="2" rx="2" ry="2"/><rect class="c" x="162" y="18" rx="2" ry="2"/><rect class="c" x="162" y="34" rx="2" ry="2"/><rect class="c" x="162" y="50" rx="2" ry="2"/><rect class="c" x="162" y="66" rx="2" ry="2"/><rect class="c" x="162" y="82" rx="2" ry="2"/><rect class="c" x="162" y="98" rx="2" ry="2"/><rect class="c" x="178" y="2" rx="2" ry="2"/><rect class="c" x="178" y="18" rx="2" ry="2"/><rect class="c" x="178" y="34" rx="2" ry="2"/><rect class="c" x="178" y="50" rx="2" ry="2"/><rect class="c" x="178" y="66" rx="2" ry="2"/><rect class="c" x="178" y="82" rx="2" ry="2"/><rect class="c" x="178" y="98" rx="2" ry="2"/><rect class="c" x="194" y="2" rx="2" ry="2"/><rect class="c" x="194" y="18" rx="2" ry="2"/><rect class="c" x="194" y="34" rx="2" ry="2"/><rect class="c" x="194" y="50" rx="2" ry="2"/><rect class="c" x="194" y="66" rx="2" ry="2"/><rect class="c" x="194" y="82" rx="2" ry="2"/><rect class="c" x="194" y="98" rx="2" ry="2"/><rect class="c" x="210" y="2" rx="2" ry="2"/><rect class="c" x="210" y="18" rx="2" ry="2"/><rect class="c" x="210" y="34" rx="2" ry="2"/><rect class="c" x="210" y="50" rx="2" ry="2"/><rect class="c" x="210" y="66" rx="2" ry="2"/><rect class="c c0" x="210" y="82" rx="2" ry="2"/><rect class="c c1" x="210" y="98" rx="2" ry="2"/><rect class="c" x="226" y="2" rx="2" ry="2"/><rect class="c" x="226" y="18" rx="2" ry="2"/><rect class="c" x="226" y="34" rx="2" ry="2"/><rect class="c" x="226" y="50" rx="2" ry="2"/><rect class="c" x="226" y="66" rx="2" ry="2"/><rect class="c" x="226" y="82" rx="2" ry="2"/><rect class="c" x="226" y="98" rx="2" ry="2"/><rect class="c c2" x="242" y="2" rx="2" ry="2"/><rect class="c c3" x="242" y="18" rx="2" ry="2"/><rect class="c" x="242" y="34" rx="2" ry="2"/><rect class="c" x="242" y="50" rx="2" ry="2"/><rect class="c" x="242" y="66" rx="2" ry="2"/><rect class="c" x="242" y="82" rx="2" ry="2"/><rect class="c" x="242" y="98" rx="2" ry="2"/><rect class="c" x="258" y="2" rx="2" ry="2"/><rect class="c" x="258" y="18" rx="2" ry="2"/><rect class="c" x="258" y="34" rx="2" ry="2"/><rect class="c" x="258" y="50" rx="2" ry="2"/><rect class="c" x="258" y="66" rx="2" ry="2"/><rect class="c" x="258" y="82" rx="2" ry="2"/><rect class="c" x="258" y="98" rx="2" ry="2"/><rect class="c" x="274" y="2" rx="2" ry="2"/><rect class="c" x="274" y="18" rx="2" ry="2"/><rect class="c" x="274" y="34" rx="2" ry="2"/><rect class="c" x="274" y="50" rx="2" ry="2"/><rect class="c" x="274" y="66" rx="2" ry="2"/><rect class="c" x="274" y="82" rx="2" ry="2"/><rect class="c" x="274" y="98" rx="2" ry="2"/><rect class="c" x="290" y="2" rx="2" ry="2"/><rect class="c" x="290" y="18" rx="2" ry="2"/><rect class="c" x="290" y="34" rx="2" ry="2"/><rect class="c" x="290" y="50" rx="2" ry="2"/><rect class="c" x="290" y="66" rx="2" ry="2"/><rect class="c" x="290" y="82" rx="2" ry="2"/><rect class="c" x="290" y="98" rx="2" ry="2"/><rect class="c" x="306" y="2" rx="2" ry="2"/><rect class="c" x="306" y="18" rx="2" ry="2"/><rect class="c" x="306" y="34" rx="2" ry="2"/><rect class="c" x="306" y="50" rx="2" ry="2"/><rect class="c" x="306" y="66" rx="2" ry="2"/><rect class="c" x="306" y="82" rx="2" ry="2"/><rect class="c" x="306" y="98" rx="2" ry="2"/><rect class="c" x="322" y="2" rx="2" ry="2"/><rect class="c" x="322" y="18" rx="2" ry="2"/><rect class="c" x="322" y="34" rx="2" ry="2"/><rect class="c" x="322" y="50" rx="2" ry="2"/><rect class="c c4" x="322" y="66" rx="2" ry="2"/><rect class="c" x="322" y="82" rx="2" ry="2"/><rect class="c" x="322" y="98" rx="2" ry="2"/><rect class="c" x="338" y="2" rx="2" ry="2"/><rect class="c" x="338" y="18" rx="2" ry="2"/><rect class="c" x="338" y="34" rx="2" ry="2"/><rect class="c" x="338" y="50" rx="2" ry="2"/><rect class="c" x="338" y="66" rx="2" ry="2"/><rect class="c" x="338" y="82" rx="2" ry="2"/><rect class="c" x="338" y="98" rx="2" ry="2"/><rect class="c" x="354" y="2" rx="2" ry="2"/><rect class="c" x="354" y="18" rx="2" ry="2"/><rect class="c" x="354" y="34" rx="2" ry="2"/><rect class="c" x="354" y="50" rx="2" ry="2"/><rect class="c" x="354" y="66" rx="2" ry="2"/><rect class="c" x="354" y="82" rx="2" ry="2"/><rect class="c" x="354" y="98" rx="2" ry="2"/><rect class="c" x="370" y="2" rx="2" ry="2"/><rect class="c" x="370" y="18" rx="2" ry="2"/><rect class="c" x="370" y="34" rx="2" ry="2"/><rect class="c" x="370" y="50" rx="2" ry="2"/><rect class="c" x="370" y="66" rx="2" ry="2"/><rect class="c" x="370" y="82" rx="2" ry="2"/><rect class="c" x="370" y="98" rx="2" ry="2"/><rect class="c" x="386" y="2" rx="2" ry="2"/><rect class="c" x="386" y="18" rx="2" ry="2"/><rect class="c" x="386" y="34" rx="2" ry="2"/><rect class="c" x="386" y="50" rx="2" ry="2"/><rect class="c" x="386" y="66" rx="2" ry="2"/><rect class="c" x="386" y="82" rx="2" ry="2"/><rect class="c" x="386" y="98" rx="2" ry="2"/><rect class="c" x="402" y="2" rx="2" ry="2"/><rect class="c" x="402" y="18" rx="2" ry="2"/><rect class="c" x="402" y="34" rx="2" ry="2"/><rect class="c" x="402" y="50" rx="2" ry="2"/><rect class="c" x="402" y="66" rx="2" ry="2"/><rect class="c" x="402" y="82" rx="2" ry="2"/><rect class="c" x="402" y="98" rx="2" ry="2"/><rect class="c" x="418" y="2" rx="2" ry="2"/><rect class="c" x="418" y="18" rx="2" ry="2"/><rect class="c" x="418" y="34" rx="2" ry="2"/><rect class="c" x="418" y="50" rx="2" ry="2"/><rect class="c" x="418" y="66" rx="2" ry="2"/><rect class="c" x="418" y="82" rx="2" ry="2"/><rect class="c" x="418" y="98" rx="2" ry="2"/><rect class="c" x="434" y="2" rx="2" ry="2"/><rect class="c" x="434" y="18" rx="2" ry="2"/><rect class="c" x="434" y="34" rx="2" ry="2"/><rect class="c" x="434" y="50" rx="2" ry="2"/><rect class="c" x="434" y="66" rx="2" ry="2"/><rect class="c" x="434" y="82" rx="2" ry="2"/><rect class="c" x="434" y="98" rx="2" ry="2"/><rect class="c" x="450" y="2" rx="2" ry="2"/><rect class="c" x="450" y="18" rx="2" ry="2"/><rect class="c" x="450" y="34" rx="2" ry="2"/><rect class="c" x="450" y="50" rx="2" ry="2"/><rect class="c c5" x="450" y="66" rx="2" ry="2"/><rect class="c" x="450" y="82" rx="2" ry="2"/><rect class="c" x="450" y="98" rx="2" ry="2"/><rect class="c" x="466" y="2" rx="2" ry="2"/><rect class="c" x="466" y="18" rx="2" ry="2"/><rect class="c" x="466" y="34" rx="2" ry="2"/><rect class="c c6" x="466" y="50" rx="2" ry="2"/><rect class="c" x="466" y="66" rx="2" ry="2"/><rect class="c" x="466" y="82" rx="2" ry="2"/><rect class="c" x="466" y="98" rx="2" ry="2"/><rect class="c" x="482" y="2" rx="2" ry="2"/><rect class="c" x="482" y="18" rx="2" ry="2"/><rect class="c" x="482" y="34" rx="2" ry="2"/><rect class="c" x="482" y="50" rx="2" ry="2"/><rect class="c" x="482" y="66" rx="2" ry="2"/><rect class="c" x="482" y="82" rx="2" ry="2"/><rect class="c" x="482" y="98" rx="2" ry="2"/><rect class="c" x="498" y="2" rx="2" ry="2"/><rect class="c" x="498" y="18" rx="2" ry="2"/><rect class="c" x="498" y="34" rx="2" ry="2"/><rect class="c" x="498" y="50" rx="2" ry="2"/><rect class="c" x="498" y="66" rx="2" ry="2"/><rect class="c" x="498" y="82" rx="2" ry="2"/><rect class="c" x="498" y="98" rx="2" ry="2"/><rect class="c" x="514" y="2" rx="2" ry="2"/><rect class="c" x="514" y="18" rx="2" ry="2"/><rect class="c" x="514" y="34" rx="2" ry="2"/><rect class="c" x="514" y="50" rx="2" ry="2"/><rect class="c" x="514" y="66" rx="2" ry="2"/><rect class="c" x="514" y="82" rx="2" ry="2"/><rect class="c" x="514" y="98" rx="2" ry="2"/><rect class="c" x="530" y="2" rx="2" ry="2"/><rect class="c" x="530" y="18" rx="2" ry="2"/><rect class="c" x="530" y="34" rx="2" ry="2"/><rect class="c" x="530" y="50" rx="2" ry="2"/><rect class="c" x="530" y="66" rx="2" ry="2"/><rect class="c" x="530" y="82" rx="2" ry="2"/><rect class="c" x="530" y="98" rx="2" ry="2"/><rect class="c" x="546" y="2" rx="2" ry="2"/><rect class="c" x="546" y="18" rx="2" ry="2"/><rect class="c" x="546" y="34" rx="2" ry="2"/><rect class="c" x="546" y="50" rx="2" ry="2"/><rect class="c" x="546" y="66" rx="2" ry="2"/><rect class="c" x="546" y="82" rx="2" ry="2"/><rect class="c" x="546" y="98" rx="2" ry="2"/><rect class="c" x="562" y="2" rx="2" ry="2"/><rect class="c" x="562" y="18" rx="2" ry="2"/><rect class="c" x="562" y="34" rx="2" ry="2"/><rect class="c" x="562" y="50" rx="2" ry="2"/><rect class="c" x="562" y="66" rx="2" ry="2"/><rect class="c" x="562" y="82" rx="2" ry="2"/><rect class="c" x="562" y="98" rx="2" ry="2"/><rect class="c" x="578" y="2" rx="2" ry="2"/><rect class="c" x="578" y="18" rx="2" ry="2"/><rect class="c" x="578" y="34" rx="2" ry="2"/><rect class="c" x="578" y="50" rx="2" ry="2"/><rect class="c" x="578" y="66" rx="2" ry="2"/><rect class="c" x="578" y="82" rx="2" ry="2"/><rect class="c" x="578" y="98" rx="2" ry="2"/><rect class="c" x="594" y="2" rx="2" ry="2"/><rect class="c" x="594" y="18" rx="2" ry="2"/><rect class="c" x="594" y="34" rx="2" ry="2"/><rect class="c" x="594" y="50" rx="2" ry="2"/><rect class="c" x="594" y="66" rx="2" ry="2"/><rect class="c" x="594" y="82" rx="2" ry="2"/><rect class="c" x="594" y="98" rx="2" ry="2"/><rect class="c" x="610" y="2" rx="2" ry="2"/><rect class="c" x="610" y="18" rx="2" ry="2"/><rect class="c" x="610" y="34" rx="2" ry="2"/><rect class="c" x="610" y="50" rx="2" ry="2"/><rect class="c" x="610" y="66" rx="2" ry="2"/><rect class="c" x="610" y="82" rx="2" ry="2"/><rect class="c" x="610" y="98" rx="2" ry="2"/><rect class="c" x="626" y="2" rx="2" ry="2"/><rect class="c" x="626" y="18" rx="2" ry="2"/><rect class="c" x="626" y="34" rx="2" ry="2"/><rect class="c" x="626" y="50" rx="2" ry="2"/><rect class="c c7" x="626" y="66" rx="2" ry="2"/><rect class="c" x="626" y="82" rx="2" ry="2"/><rect class="c c8" x="626" y="98" rx="2" ry="2"/><rect class="c c9" x="642" y="2" rx="2" ry="2"/><rect class="c" x="642" y="18" rx="2" ry="2"/><rect class="c" x="642" y="34" rx="2" ry="2"/><rect class="c ca" x="642" y="50" rx="2" ry="2"/><rect class="c" x="642" y="66" rx="2" ry="2"/><rect class="c" x="642" y="82" rx="2" ry="2"/><rect class="c" x="642" y="98" rx="2" ry="2"/><rect class="c" x="658" y="2" rx="2" ry="2"/><rect class="c cb" x="658" y="18" rx="2" ry="2"/><rect class="c" x="658" y="34" rx="2" ry="2"/><rect class="c" x="658" y="50" rx="2" ry="2"/><rect class="c" x="658" y="66" rx="2" ry="2"/><rect class="c cc" x="658" y="82" rx="2" ry="2"/><rect class="c cd" x="658" y="98" rx="2" ry="2"/><rect class="c" x="674" y="2" rx="2" ry="2"/><rect class="c" x="674" y="18" rx="2" ry="2"/><rect class="c" x="674" y="34" rx="2" ry="2"/><rect class="c" x="674" y="50" rx="2" ry="2"/><rect class="c" x="674" y="66" rx="2" ry="2"/><rect class="c" x="674" y="82" rx="2" ry="2"/><rect class="c" x="674" y="98" rx="2" ry="2"/><rect class="c" x="690" y="2" rx="2" ry="2"/><rect class="c" x="690" y="18" rx="2" ry="2"/><rect class="c ce" x="690" y="34" rx="2" ry="2"/><rect class="c cf" x="690" y="50" rx="2" ry="2"/><rect class="c cg" x="690" y="66" rx="2" ry="2"/><rect class="c ch" x="690" y="82" rx="2" ry="2"/><rect class="c ci" x="690" y="98" rx="2" ry="2"/><rect class="c cj" x="706" y="2" rx="2" ry="2"/><rect class="c ck" x="706" y="18" rx="2" ry="2"/><rect class="c cl" x="706" y="34" rx="2" ry="2"/><rect class="c cm" x="706" y="50" rx="2" ry="2"/><rect class="c cn" x="706" y="66" rx="2" ry="2"/><rect class="c co" x="706" y="82" rx="2" ry="2"/><rect class="c cp" x="706" y="98" rx="2" ry="2"/><rect class="c cq" x="722" y="2" rx="2" ry="2"/><rect class="c cr" x="722" y="18" rx="2" ry="2"/><rect class="c cs" x="722" y="34" rx="2" ry="2"/><rect class="c ct" x="722" y="50" rx="2" ry="2"/><rect class="c cu" x="722" y="66" rx="2" ry="2"/><rect class="c cv" x="722" y="82" rx="2" ry="2"/><rect class="c cw" x="722" y="98" rx="2" ry="2"/><rect class="c cx" x="738" y="2" rx="2" ry="2"/><rect class="c cy" x="738" y="18" rx="2" ry="2"/><rect class="c cz" x="738" y="34" rx="2" ry="2"/><rect class="c c10" x="738" y="50" rx="2" ry="2"/><rect class="c c11" x="738" y="66" rx="2" ry="2"/><rect class="c c12" x="738" y="82" rx="2" ry="2"/><rect class="c c13" x="738" y="98" rx="2" ry="2"/><rect class="c c14" x="754" y="2" rx="2" ry="2"/><rect class="c c15" x="754" y="18" rx="2" ry="2"/><rect class="c c16" x="754" y="34" rx="2" ry="2"/><rect class="c c17" x="754" y="50" rx="2" ry="2"/><rect class="c c18" x="754" y="66" rx="2" ry="2"/><rect class="c c19" x="754" y="82" rx="2" ry="2"/><rect class="c c1a" x="754" y="98" rx="2" ry="2"/><rect class="c c1b" x="770" y="2" rx="2" ry="2"/><rect class="c c1c" x="770" y="18" rx="2" ry="2"/><rect class="c c1d" x="770" y="34" rx="2" ry="2"/><rect class="c c1e" x="770" y="50" rx="2" ry="2"/><rect class="c c1f" x="770" y="66" rx="2" ry="2"/><rect class="c c1g" x="770" y="82" rx="2" ry="2"/><rect class="c c1h" x="770" y="98" rx="2" ry="2"/><rect class="c c1i" x="786" y="2" rx="2" ry="2"/><rect class="c c1j" x="786" y="18" rx="2" ry="2"/><rect class="c c1k" x="786" y="34" rx="2" ry="2"/><rect class="c c1l" x="786" y="50" rx="2" ry="2"/><rect class="c c1m" x="786" y="66" rx="2" ry="2"/><rect class="c c1n" x="786" y="82" rx="2" ry="2"/><rect class="c c1o" x="786" y="98" rx="2" ry="2"/><rect class="c c1p" x="802" y="2" rx="2" ry="2"/><rect class="c c1q" x="802" y="18" rx="2" ry="2"/><rect class="c c1r" x="802" y="34" rx="2" ry="2"/><rect class="c c1s" x="802" y="50" rx="2" ry="2"/><rect class="c c1t" x="802" y="66" rx="2" ry="2"/><rect class="c c1u" x="802" y="82" rx="2" ry="2"/><rect class="c c1v" x="802" y="98" rx="2" ry="2"/><rect class="c c1w" x="818" y="2" rx="2" ry="2"/><rect class="c c1x" x="818" y="18" rx="2" ry="2"/><rect class="c c1y" x="818" y="34" rx="2" ry="2"/><rect class="c c1z" x="818" y="50" rx="2" ry="2"/><rect class="c c20" x="818" y="66" rx="2" ry="2"/><rect class="c c21" x="818" y="82" rx="2" ry="2"/><rect class="c c22" x="818" y="98" rx="2" ry="2"/><rect class="c c23" x="834" y="2" rx="2" ry="2"/><rect class="c c24" x="834" y="18" rx="2" ry="2"/><rect class="c c25" x="834" y="34" rx="2" ry="2"/><rect class="c c26" x="834" y="50" rx="2" ry="2"/><rect class="u u0" height="12" width="97.2" x="0.0" y="144"/><rect class="u u1" height="12" width="580.2" x="96.6" y="144"/><rect class="u u2" height="12" width="172.3" x="676.3" y="144"/><rect class="s s0" x="0.8" y="0.8" width="14.4" height="14.4" rx="4.5" ry="4.5"/><rect class="s s1" x="1.8" y="1.8" width="12.3" height="12.3" rx="4.1" ry="4.1"/><rect class="s s2" x="2.6" y="2.6" width="10.8" height="10.8" rx="3.6" ry="3.6"/><rect class="s s3" x="3.0" y="3.0" width="9.9" height="9.9" rx="3.3" ry="3.3"/></svg>