<svg viewBox="-16 -32 880 192" width="880" height="192" xmlns="http://www.w3.org/2000/svg"><desc>Generated with https://github.com/Platane/snk</desc><style>:root{--cb:#1b1f230a;--cs:purple;--ce:#ebedf0;--c0:#ebedf0;--c1:#9be9a8;--c2:#40c463;--c3:#30a14e;--c4:#216e39}.c{shape-rendering:geometricPrecision;fill:var(--ce);stroke-width:1px;stroke:var(--cb);animation:none 30700ms linear infinite;width:12px;height:12px}@keyframes c0{6.5%{fill:var(--c1)}6.52%,100%{fill:var(--ce)}}.c.c0{fill:var(--c1);animation-name:c0}@keyframes c1{56.99%{fill:var(--c2)}57.01%,100%{fill:var(--ce)}}.c.c1{fill:var(--c2);animation-name:c1}@keyframes c2{4.22%{fill:var(--c1)}4.24%,100%{fill:var(--ce)}}.c.c2{fill:var(--c1);animation-name:c2}@keyframes c3{4.55%{fill:var(--c1)}4.57%,100%{fill:var(--ce)}}.c.c3{fill:var(--c1);animation-name:c3}@keyframes c4{54.06%{fill:var(--c2)}54.08%,100%{fill:var(--ce)}}.c.c4{fill:var(--c2);animation-name:c4}@keyframes c5{62.53%{fill:var(--c4)}62.55%,100%{fill:var(--ce)}}.c.c5{fill:var(--c4);animation-name:c5}@keyframes c6{12.37%{fill:var(--c1)}12.39%,100%{fill:var(--ce)}}.c.c6{fill:var(--c1);animation-name:c6}@keyframes c7{16.6%{fill:var(--c1)}16.62%,100%{fill:var(--ce)}}.c.c7{fill:var(--c1);animation-name:c7}@keyframes c8{47.22%{fill:var(--c2)}47.24%,100%{fill:var(--ce)}}.c.c8{fill:var(--c2);animation-name:c8}@keyframes c9{87.29%{fill:var(--c4)}87.31%,100%{fill:var(--ce)}}.c.c9{fill:var(--c4);animation-name:c9}@keyframes ca{15.95%{fill:var(--c1)}15.97%,100%{fill:var(--ce)}}.c.ca{fill:var(--c1);animation-name:ca}@keyframes cb{20.19%{fill:var(--c1)}20.21%,100%{fill:var(--ce)}}.c.cb{fill:var(--c1);animation-name:cb}@keyframes cc{17.58%{fill:var(--c1)}17.6%,100%{fill:var(--ce)}}.c.cc{fill:var(--c1);animation-name:cc}@keyframes cd{17.91%{fill:var(--c1)}17.93%,100%{fill:var(--ce)}}.c.cd{fill:var(--c1);animation-name:cd}@keyframes ce{68.07%{fill:var(--c4)}68.09%,100%{fill:var(--ce)}}.c.ce{fill:var(--c4);animation-name:ce}@keyframes cf{67.74%{fill:var(--c4)}67.76%,100%{fill:var(--ce)}}.c.cf{fill:var(--c4);animation-name:cf}@keyframes cg{42.66%{fill:var(--c2)}42.68%,100%{fill:var(--ce)}}.c.cg{fill:var(--c2);animation-name:cg}@keyframes ch{42.99%{fill:var(--c2)}43.01%,100%{fill:var(--ce)}}.c.ch{fill:var(--c2);animation-name:ch}@keyframes ci{45.92%{fill:var(--c2)}45.94%,100%{fill:var(--ce)}}.c.ci{fill:var(--c2);animation-name:ci}@keyframes cj{30.61%{fill:var(--c2)}30.63%,100%{fill:var(--ce)}}.c.cj{fill:var(--c2);animation-name:cj}@keyframes ck{30.93%{fill:var(--c2)}30.95%,100%{fill:var(--ce)}}.c.ck{fill:var(--c2);animation-name:ck}@keyframes cl{31.26%{fill:var(--c2)}31.28%,100%{fill:var(--ce)}}.c.cl{fill:var(--c2);animation-name:cl}@keyframes cm{42.01%{fill:var(--c2)}42.03%,100%{fill:var(--ce)}}.c.cm{fill:var(--c2);animation-name:cm}@keyframes cn{42.34%{fill:var(--c2)}42.36%,100%{fill:var(--ce)}}.c.cn{fill:var(--c2);animation-name:cn}@keyframes co{43.31%{fill:var(--c2)}43.33%,100%{fill:var(--ce)}}.c.co{fill:var(--c2);animation-name:co}@keyframes cp{45.59%{fill:var(--c2)}45.61%,100%{fill:var(--ce)}}.c.cp{fill:var(--c2);animation-name:cp}@keyframes cq{30.28%{fill:var(--c2)}30.3%,100%{fill:var(--ce)}}.c.cq{fill:var(--c2);animation-name:cq}@keyframes cr{69.05%{fill:var(--c4)}69.07%,100%{fill:var(--ce)}}.c.cr{fill:var(--c4);animation-name:cr}@keyframes cs{31.59%{fill:var(--c2)}31.61%,100%{fill:var(--ce)}}.c.cs{fill:var(--c2);animation-name:cs}@keyframes ct{41.68%{fill:var(--c2)}41.7%,100%{fill:var(--ce)}}.c.ct{fill:var(--c2);animation-name:ct}@keyframes cu{41.36%{fill:var(--c2)}41.38%,100%{fill:var(--ce)}}.c.cu{fill:var(--c2);animation-name:cu}@keyframes cv{43.64%{fill:var(--c2)}43.66%,100%{fill:var(--ce)}}.c.cv{fill:var(--c2);animation-name:cv}@keyframes cw{43.96%{fill:var(--c2)}43.98%,100%{fill:var(--ce)}}.c.cw{fill:var(--c2);animation-name:cw}@keyframes cx{29.96%{fill:var(--c2)}29.98%,100%{fill:var(--ce)}}.c.cx{fill:var(--c2);animation-name:cx}@keyframes cy{34.84%{fill:var(--c2)}34.86%,100%{fill:var(--ce)}}.c.cy{fill:var(--c2);animation-name:cy}@keyframes cz{31.91%{fill:var(--c2)}31.93%,100%{fill:var(--ce)}}.c.cz{fill:var(--c2);animation-name:cz}@keyframes c10{35.49%{fill:var(--c2)}35.51%,100%{fill:var(--ce)}}.c.c10{fill:var(--c2);animation-name:c10}@keyframes c11{41.03%{fill:var(--c2)}41.05%,100%{fill:var(--ce)}}.c.c11{fill:var(--c2);animation-name:c11}@keyframes c12{40.71%{fill:var(--c2)}40.73%,100%{fill:var(--ce)}}.c.c12{fill:var(--c2);animation-name:c12}@keyframes c13{44.29%{fill:var(--c2)}44.31%,100%{fill:var(--ce)}}.c.c13{fill:var(--c2);animation-name:c13}@keyframes c14{29.63%{fill:var(--c2)}29.65%,100%{fill:var(--ce)}}.c.c14{fill:var(--c2);animation-name:c14}@keyframes c15{34.52%{fill:var(--c2)}34.54%,100%{fill:var(--ce)}}.c.c15{fill:var(--c2);animation-name:c15}@keyframes c16{32.24%{fill:var(--c2)}32.26%,100%{fill:var(--ce)}}.c.c16{fill:var(--c2);animation-name:c16}@keyframes c17{35.82%{fill:var(--c2)}35.84%,100%{fill:var(--ce)}}.c.c17{fill:var(--c2);animation-name:c17}@keyframes c18{70.67%{fill:var(--c4)}70.69%,100%{fill:var(--ce)}}.c.c18{fill:var(--c4);animation-name:c18}@keyframes c19{40.38%{fill:var(--c2)}40.4%,100%{fill:var(--ce)}}.c.c19{fill:var(--c2);animation-name:c19}@keyframes c1a{40.06%{fill:var(--c2)}40.08%,100%{fill:var(--ce)}}.c.c1a{fill:var(--c2);animation-name:c1a}@keyframes c1b{29.31%{fill:var(--c2)}29.33%,100%{fill:var(--ce)}}.c.c1b{fill:var(--c2);animation-name:c1b}@keyframes c1c{34.19%{fill:var(--c2)}34.21%,100%{fill:var(--ce)}}.c.c1c{fill:var(--c2);animation-name:c1c}@keyframes c1d{32.56%{fill:var(--c2)}32.58%,100%{fill:var(--ce)}}.c.c1d{fill:var(--c2);animation-name:c1d}@keyframes c1e{36.15%{fill:var(--c2)}36.17%,100%{fill:var(--ce)}}.c.c1e{fill:var(--c2);animation-name:c1e}@keyframes c1f{37.78%{fill:var(--c2)}37.8%,100%{fill:var(--ce)}}.c.c1f{fill:var(--c2);animation-name:c1f}@keyframes c1g{38.1%{fill:var(--c2)}38.12%,100%{fill:var(--ce)}}.c.c1g{fill:var(--c2);animation-name:c1g}@keyframes c1h{39.73%{fill:var(--c2)}39.75%,100%{fill:var(--ce)}}.c.c1h{fill:var(--c2);animation-name:c1h}@keyframes c1i{28.98%{fill:var(--c2)}29%,100%{fill:var(--ce)}}.c.c1i{fill:var(--c2);animation-name:c1i}@keyframes c1j{33.87%{fill:var(--c2)}33.89%,100%{fill:var(--ce)}}.c.c1j{fill:var(--c2);animation-name:c1j}@keyframes c1k{32.89%{fill:var(--c2)}32.91%,100%{fill:var(--ce)}}.c.c1k{fill:var(--c2);animation-name:c1k}@keyframes c1l{36.47%{fill:var(--c2)}36.49%,100%{fill:var(--ce)}}.c.c1l{fill:var(--c2);animation-name:c1l}@keyframes c1m{37.45%{fill:var(--c2)}37.47%,100%{fill:var(--ce)}}.c.c1m{fill:var(--c2);animation-name:c1m}@keyframes c1n{38.43%{fill:var(--c2)}38.45%,100%{fill:var(--ce)}}.c.c1n{fill:var(--c2);animation-name:c1n}@keyframes c1o{39.4%{fill:var(--c2)}39.42%,100%{fill:var(--ce)}}.c.c1o{fill:var(--c2);animation-name:c1o}@keyframes c1p{28.65%{fill:var(--c2)}28.67%,100%{fill:var(--ce)}}.c.c1p{fill:var(--c2);animation-name:c1p}@keyframes c1q{33.54%{fill:var(--c2)}33.56%,100%{fill:var(--ce)}}.c.c1q{fill:var(--c2);animation-name:c1q}@keyframes c1r{33.21%{fill:var(--c2)}33.23%,100%{fill:var(--ce)}}.c.c1r{fill:var(--c2);animation-name:c1r}@keyframes c1s{36.8%{fill:var(--c2)}36.82%,100%{fill:var(--ce)}}.c.c1s{fill:var(--c2);animation-name:c1s}@keyframes c1t{37.12%{fill:var(--c2)}37.14%,100%{fill:var(--ce)}}.c.c1t{fill:var(--c2);animation-name:c1t}@keyframes c1u{38.75%{fill:var(--c2)}38.77%,100%{fill:var(--ce)}}.c.c1u{fill:var(--c2);animation-name:c1u}@keyframes c1v{39.08%{fill:var(--c2)}39.1%,100%{fill:var(--ce)}}.c.c1v{fill:var(--c2);animation-name:c1v}@keyframes c1w{28.33%{fill:var(--c2)}28.35%,100%{fill:var(--ce)}}.c.c1w{fill:var(--c2);animation-name:c1w}@keyframes c1x{76.86%{fill:var(--c4)}76.88%,100%{fill:var(--ce)}}.c.c1x{fill:var(--c4);animation-name:c1x}@keyframes c1y{76.54%{fill:var(--c4)}76.56%,100%{fill:var(--ce)}}.c.c1y{fill:var(--c4);animation-name:c1y}@keyframes c1z{82.73%{fill:var(--c4)}82.75%,100%{fill:var(--ce)}}.c.c1z{fill:var(--c4);animation-name:c1z}@keyframes c20{71.98%{fill:var(--c4)}72%,100%{fill:var(--ce)}}.c.c20{fill:var(--c4);animation-name:c20}@keyframes c21{80.77%{fill:var(--c4)}80.79%,100%{fill:var(--ce)}}.c.c21{fill:var(--c4);animation-name:c21}@keyframes c22{81.1%{fill:var(--c4)}81.12%,100%{fill:var(--ce)}}.c.c22{fill:var(--c4);animation-name:c22}@keyframes c23{74.91%{fill:var(--c4)}74.93%,100%{fill:var(--ce)}}.c.c23{fill:var(--c4);animation-name:c23}@keyframes c24{75.23%{fill:var(--c4)}75.25%,100%{fill:var(--ce)}}.c.c24{fill:var(--c4);animation-name:c24}@keyframes c25{76.21%{fill:var(--c4)}76.23%,100%{fill:var(--ce)}}.c.c25{fill:var(--c4);animation-name:c25}@keyframes c26{77.84%{fill:var(--c4)}77.86%,100%{fill:var(--ce)}}.c.c26{fill:var(--c4);animation-name:c26}@keyframes c27{72.3%{fill:var(--c4)}72.32%,100%{fill:var(--ce)}}.c.c27{fill:var(--c4);animation-name:c27}@keyframes c28{80.45%{fill:var(--c4)}80.47%,100%{fill:var(--ce)}}.c.c28{fill:var(--c4);animation-name:c28}@keyframes c29{80.12%{fill:var(--c4)}80.14%,100%{fill:var(--ce)}}.c.c29{fill:var(--c4);animation-name:c29}@keyframes c2a{74.58%{fill:var(--c4)}74.6%,100%{fill:var(--ce)}}.c.c2a{fill:var(--c4);animation-name:c2a}@keyframes c2b{75.56%{fill:var(--c4)}75.58%,100%{fill:var(--ce)}}.c.c2b{fill:var(--c4);animation-name:c2b}@keyframes c2c{75.89%{fill:var(--c4)}75.91%,100%{fill:var(--ce)}}.c.c2c{fill:var(--c4);animation-name:c2c}@keyframes c2d{78.17%{fill:var(--c4)}78.19%,100%{fill:var(--ce)}}.c.c2d{fill:var(--c4);animation-name:c2d}@keyframes c2e{72.63%{fill:var(--c4)}72.65%,100%{fill:var(--ce)}}.c.c2e{fill:var(--c4);animation-name:c2e}@keyframes c2f{78.82%{fill:var(--c4)}78.84%,100%{fill:var(--ce)}}.c.c2f{fill:var(--c4);animation-name:c2f}@keyframes c2g{79.79%{fill:var(--c4)}79.81%,100%{fill:var(--ce)}}.c.c2g{fill:var(--c4);animation-name:c2g}@keyframes c2h{74.26%{fill:var(--c4)}74.28%,100%{fill:var(--ce)}}.c.c2h{fill:var(--c4);animation-name:c2h}@keyframes c2i{73.93%{fill:var(--c4)}73.95%,100%{fill:var(--ce)}}.c.c2i{fill:var(--c4);animation-name:c2i}@keyframes c2j{73.61%{fill:var(--c4)}73.63%,100%{fill:var(--ce)}}.c.c2j{fill:var(--c4);animation-name:c2j}@keyframes c2k{73.28%{fill:var(--c4)}73.3%,100%{fill:var(--ce)}}.c.c2k{fill:var(--c4);animation-name:c2k}@keyframes c2l{72.95%{fill:var(--c4)}72.97%,100%{fill:var(--ce)}}.c.c2l{fill:var(--c4);animation-name:c2l}@keyframes c2m{79.14%{fill:var(--c4)}79.16%,100%{fill:var(--ce)}}.c.c2m{fill:var(--c4);animation-name:c2m}@keyframes c2n{79.47%{fill:var(--c4)}79.49%,100%{fill:var(--ce)}}.c.c2n{fill:var(--c4);animation-name:c2n}@keyframes c2o{25.72%{fill:var(--c1)}25.74%,100%{fill:var(--ce)}}.c.c2o{fill:var(--c1);animation-name:c2o}.u{transform-origin:0 0;transform:scale(0,1);animation:none linear 30700ms infinite}@keyframes u0{4.22%{transform:scale(0.000,1)}4.24%,4.55%{transform:scale(0.100,1)}4.57%,6.5%{transform:scale(0.200,1)}6.52%,12.37%{transform:scale(0.300,1)}12.39%,15.95%{transform:scale(0.400,1)}15.97%,16.6%{transform:scale(0.500,1)}16.62%,17.58%{transform:scale(0.600,1)}17.6%,17.91%{transform:scale(0.700,1)}17.93%,20.19%{transform:scale(0.800,1)}20.21%,25.72%{transform:scale(0.900,1)}25.74%,100%{transform:scale(1.000,1)}}.u.u0{fill:var(--c1);animation-name:u0;transform-origin:0.0px 0}@keyframes u1{28.33%{transform:scale(0.000,1)}28.35%,28.65%{transform:scale(0.019,1)}28.67%,28.98%{transform:scale(0.037,1)}29%,29.31%{transform:scale(0.056,1)}29.33%,29.63%{transform:scale(0.074,1)}29.65%,29.96%{transform:scale(0.093,1)}29.98%,30.28%{transform:scale(0.111,1)}30.3%,30.61%{transform:scale(0.130,1)}30.63%,30.93%{transform:scale(0.148,1)}30.95%,31.26%{transform:scale(0.167,1)}31.28%,31.59%{transform:scale(0.185,1)}31.61%,31.91%{transform:scale(0.204,1)}31.93%,32.24%{transform:scale(0.222,1)}32.26%,32.56%{transform:scale(0.241,1)}32.58%,32.89%{transform:scale(0.259,1)}32.91%,33.21%{transform:scale(0.278,1)}33.23%,33.54%{transform:scale(0.296,1)}33.56%,33.87%{transform:scale(0.315,1)}33.89%,34.19%{transform:scale(0.333,1)}34.21%,34.52%{transform:scale(0.352,1)}34.54%,34.84%{transform:scale(0.370,1)}34.86%,35.49%{transform:scale(0.389,1)}35.51%,35.82%{transform:scale(0.407,1)}35.84%,36.15%{transform:scale(0.426,1)}36.17%,36.47%{transform:scale(0.444,1)}36.49%,36.8%{transform:scale(0.463,1)}36.82%,37.12%{transform:scale(0.481,1)}37.14%,37.45%{transform:scale(0.500,1)}37.47%,37.78%{transform:scale(0.519,1)}37.8%,38.1%{transform:scale(0.537,1)}38.12%,38.43%{transform:scale(0.556,1)}38.45%,38.75%{transform:scale(0.574,1)}38.77%,39.08%{transform:scale(0.593,1)}39.1%,39.4%{transform:scale(0.611,1)}39.42%,39.73%{transform:scale(0.630,1)}39.75%,40.06%{transform:scale(0.648,1)}40.08%,40.38%{transform:scale(0.667,1)}40.4%,40.71%{transform:scale(0.685,1)}40.73%,41.03%{transform:scale(0.704,1)}41.05%,41.36%{transform:scale(0.722,1)}41.38%,41.68%{transform:scale(0.741,1)}41.7%,42.01%{transform:scale(0.759,1)}42.03%,42.34%{transform:scale(0.778,1)}42.36%,42.66%{transform:scale(0.796,1)}42.68%,42.99%{transform:scale(0.815,1)}43.01%,43.31%{transform:scale(0.833,1)}43.33%,43.64%{transform:scale(0.852,1)}43.66%,43.96%{transform:scale(0.870,1)}43.98%,44.29%{transform:scale(0.889,1)}44.31%,45.59%{transform:scale(0.907,1)}45.61%,45.92%{transform:scale(0.926,1)}45.94%,47.22%{transform:scale(0.944,1)}47.24%,54.06%{transform:scale(0.963,1)}54.08%,56.99%{transform:scale(0.981,1)}57.01%,100%{transform:scale(1.000,1)}}.u.u1{fill:var(--c2);animation-name:u1;transform-origin:87.4px 0}@keyframes u2{62.53%{transform:scale(0.000,1)}62.55%,67.74%{transform:scale(0.030,1)}67.76%,68.07%{transform:scale(0.061,1)}68.09%,69.05%{transform:scale(0.091,1)}69.07%,70.67%{transform:scale(0.121,1)}70.69%,71.98%{transform:scale(0.152,1)}72%,72.3%{transform:scale(0.182,1)}72.32%,72.63%{transform:scale(0.212,1)}72.65%,72.95%{transform:scale(0.242,1)}72.97%,73.28%{transform:scale(0.273,1)}73.3%,73.61%{transform:scale(0.303,1)}73.63%,73.93%{transform:scale(0.333,1)}73.95%,74.26%{transform:scale(0.364,1)}74.28%,74.58%{transform:scale(0.394,1)}74.6%,74.91%{transform:scale(0.424,1)}74.93%,75.23%{transform:scale(0.455,1)}75.25%,75.56%{transform:scale(0.485,1)}75.58%,75.89%{transform:scale(0.515,1)}75.91%,76.21%{transform:scale(0.545,1)}76.23%,76.54%{transform:scale(0.576,1)}76.56%,76.86%{transform:scale(0.606,1)}76.88%,77.84%{transform:scale(0.636,1)}77.86%,78.17%{transform:scale(0.667,1)}78.19%,78.82%{transform:scale(0.697,1)}78.84%,79.14%{transform:scale(0.727,1)}79.16%,79.47%{transform:scale(0.758,1)}79.49%,79.79%{transform:scale(0.788,1)}79.81%,80.12%{transform:scale(0.818,1)}80.14%,80.45%{transform:scale(0.848,1)}80.47%,80.77%{transform:scale(0.879,1)}80.79%,81.1%{transform:scale(0.909,1)}81.12%,82.73%{transform:scale(0.939,1)}82.75%,87.29%{transform:scale(0.970,1)}87.31%,100%{transform:scale(1.000,1)}}.u.u2{fill:var(--c4);animation-name:u2;transform-origin:559.5px 0}.s{shape-rendering:geometricPrecision;fill:var(--cs);animation:none linear 30700ms infinite}@keyframes s0{0%,99.67%{transform:translate(0px,-16px)}0.33%{transform:translate(0px,0px)}4.23%{transform:translate(192px,0px)}4.56%{transform:translate(192px,16px)}5.21%{transform:translate(160px,16px)}6.51%{transform:translate(160px,80px)}11.73%{transform:translate(416px,80px)}12.38%{transform:translate(416px,48px)}15.96%{transform:translate(592px,48px)}16.29%{transform:translate(592px,64px)}16.61%{transform:translate(576px,64px)}16.94%,47.56%{transform:translate(576px,80px)}17.59%{transform:translate(608px,80px)}17.92%{transform:translate(608px,96px)}18.24%{transform:translate(624px,96px)}19.87%{transform:translate(624px,16px)}20.2%{transform:translate(608px,16px)}20.52%{transform:translate(608px,0px)}21.17%{transform:translate(640px,0px)}21.5%{transform:translate(640px,-16px)}25.41%{transform:translate(832px,-16px)}25.73%{transform:translate(832px,0px)}26.06%{transform:translate(848px,0px)}26.38%{transform:translate(848px,-16px)}28.01%{transform:translate(768px,-16px)}28.34%,83.71%{transform:translate(768px,0px)}30.62%{transform:translate(656px,0px)}31.27%{transform:translate(656px,32px)}33.22%{transform:translate(752px,32px)}33.55%{transform:translate(752px,16px)}34.85%{transform:translate(688px,16px)}35.5%{transform:translate(688px,48px)}36.81%{transform:translate(752px,48px)}37.13%{transform:translate(752px,64px)}37.79%{transform:translate(720px,64px)}38.11%{transform:translate(720px,80px)}38.76%{transform:translate(752px,80px)}39.09%{transform:translate(752px,96px)}40.07%{transform:translate(704px,96px)}40.39%{transform:translate(704px,80px)}40.72%,44.63%{transform:translate(688px,80px)}41.04%{transform:translate(688px,64px)}41.37%{transform:translate(672px,64px)}41.69%{transform:translate(672px,48px)}42.02%{transform:translate(656px,48px)}42.35%{transform:translate(656px,64px)}42.67%,67.43%{transform:translate(640px,64px)}43%{transform:translate(640px,80px)}43.65%{transform:translate(672px,80px)}43.97%{transform:translate(672px,96px)}44.3%{transform:translate(688px,96px)}45.28%{transform:translate(656px,80px)}45.6%{transform:translate(656px,96px)}47.23%{transform:translate(576px,96px)}51.47%{transform:translate(384px,80px)}51.79%{transform:translate(384px,64px)}56.35%{transform:translate(160px,64px)}57%{transform:translate(160px,96px)}61.89%{transform:translate(400px,96px)}62.54%{transform:translate(400px,64px)}68.08%{transform:translate(640px,32px)}68.73%{transform:translate(672px,32px)}69.06%{transform:translate(672px,16px)}69.71%{transform:translate(704px,16px)}70.68%{transform:translate(704px,64px)}72.96%{transform:translate(816px,64px)}74.27%{transform:translate(816px,0px)}74.92%{transform:translate(784px,0px)}75.24%,77.2%{transform:translate(784px,16px)}75.57%{transform:translate(800px,16px)}75.9%{transform:translate(800px,32px)}76.55%{transform:translate(768px,32px)}76.87%{transform:translate(768px,16px)}77.85%,82.41%{transform:translate(784px,48px)}78.18%{transform:translate(800px,48px)}78.83%{transform:translate(800px,80px)}79.15%{transform:translate(816px,80px)}79.48%{transform:translate(816px,96px)}80.13%,81.43%{transform:translate(784px,96px)}80.46%{transform:translate(784px,80px)}80.78%{transform:translate(768px,80px)}81.11%{transform:translate(768px,96px)}82.74%{transform:translate(768px,48px)}97.39%{transform:translate(96px,0px)}97.72%{transform:translate(96px,-16px)}}.s.s0{transform:translate(0px,-16px);animation-name:s0}@keyframes s1{0%,99.67%{transform:translate(16px,-16px)}0.33%{transform:translate(0px,-16px)}0.65%{transform:translate(0px,0px)}4.56%{transform:translate(192px,0px)}4.89%{transform:translate(192px,16px)}5.54%{transform:translate(160px,16px)}6.84%{transform:translate(160px,80px)}12.05%{transform:translate(416px,80px)}12.7%{transform:translate(416px,48px)}16.29%{transform:translate(592px,48px)}16.61%{transform:translate(592px,64px)}16.94%{transform:translate(576px,64px)}17.26%,47.88%{transform:translate(576px,80px)}17.92%{transform:translate(608px,80px)}18.24%{transform:translate(608px,96px)}18.57%{transform:translate(624px,96px)}20.2%{transform:translate(624px,16px)}20.52%{transform:translate(608px,16px)}20.85%{transform:translate(608px,0px)}21.5%{transform:translate(640px,0px)}21.82%{transform:translate(640px,-16px)}25.73%{transform:translate(832px,-16px)}26.06%{transform:translate(832px,0px)}26.38%{transform:translate(848px,0px)}26.71%{transform:translate(848px,-16px)}28.34%{transform:translate(768px,-16px)}28.66%,84.04%{transform:translate(768px,0px)}30.94%{transform:translate(656px,0px)}31.6%{transform:translate(656px,32px)}33.55%{transform:translate(752px,32px)}33.88%{transform:translate(752px,16px)}35.18%{transform:translate(688px,16px)}35.83%{transform:translate(688px,48px)}37.13%{transform:translate(752px,48px)}37.46%{transform:translate(752px,64px)}38.11%{transform:translate(720px,64px)}38.44%{transform:translate(720px,80px)}39.09%{transform:translate(752px,80px)}39.41%{transform:translate(752px,96px)}40.39%{transform:translate(704px,96px)}40.72%{transform:translate(704px,80px)}41.04%,44.95%{transform:translate(688px,80px)}41.37%{transform:translate(688px,64px)}41.69%{transform:translate(672px,64px)}42.02%{transform:translate(672px,48px)}42.35%{transform:translate(656px,48px)}42.67%{transform:translate(656px,64px)}43%,67.75%{transform:translate(640px,64px)}43.32%{transform:translate(640px,80px)}43.97%{transform:translate(672px,80px)}44.3%{transform:translate(672px,96px)}44.63%{transform:translate(688px,96px)}45.6%{transform:translate(656px,80px)}45.93%{transform:translate(656px,96px)}47.56%{transform:translate(576px,96px)}51.79%{transform:translate(384px,80px)}52.12%{transform:translate(384px,64px)}56.68%{transform:translate(160px,64px)}57.33%{transform:translate(160px,96px)}62.21%{transform:translate(400px,96px)}62.87%{transform:translate(400px,64px)}68.4%{transform:translate(640px,32px)}69.06%{transform:translate(672px,32px)}69.38%{transform:translate(672px,16px)}70.03%{transform:translate(704px,16px)}71.01%{transform:translate(704px,64px)}73.29%{transform:translate(816px,64px)}74.59%{transform:translate(816px,0px)}75.24%{transform:translate(784px,0px)}75.57%,77.52%{transform:translate(784px,16px)}75.9%{transform:translate(800px,16px)}76.22%{transform:translate(800px,32px)}76.87%{transform:translate(768px,32px)}77.2%{transform:translate(768px,16px)}78.18%,82.74%{transform:translate(784px,48px)}78.5%{transform:translate(800px,48px)}79.15%{transform:translate(800px,80px)}79.48%{transform:translate(816px,80px)}79.8%{transform:translate(816px,96px)}80.46%,81.76%{transform:translate(784px,96px)}80.78%{transform:translate(784px,80px)}81.11%{transform:translate(768px,80px)}81.43%{transform:translate(768px,96px)}83.06%{transform:translate(768px,48px)}97.72%{transform:translate(96px,0px)}98.05%{transform:translate(96px,-16px)}}.s.s1{transform:translate(16px,-16px);animation-name:s1}@keyframes s2{0%,99.67%{transform:translate(32px,-16px)}0.65%{transform:translate(0px,-16px)}0.98%{transform:translate(0px,0px)}4.89%{transform:translate(192px,0px)}5.21%{transform:translate(192px,16px)}5.86%{transform:translate(160px,16px)}7.17%{transform:translate(160px,80px)}12.38%{transform:translate(416px,80px)}13.03%{transform:translate(416px,48px)}16.61%{transform:translate(592px,48px)}16.94%{transform:translate(592px,64px)}17.26%{transform:translate(576px,64px)}17.59%,48.21%{transform:translate(576px,80px)}18.24%{transform:translate(608px,80px)}18.57%{transform:translate(608px,96px)}18.89%{transform:translate(624px,96px)}20.52%{transform:translate(624px,16px)}20.85%{transform:translate(608px,16px)}21.17%{transform:translate(608px,0px)}21.82%{transform:translate(640px,0px)}22.15%{transform:translate(640px,-16px)}26.06%{transform:translate(832px,-16px)}26.38%{transform:translate(832px,0px)}26.71%{transform:translate(848px,0px)}27.04%{transform:translate(848px,-16px)}28.66%{transform:translate(768px,-16px)}28.99%,84.36%{transform:translate(768px,0px)}31.27%{transform:translate(656px,0px)}31.92%{transform:translate(656px,32px)}33.88%{transform:translate(752px,32px)}34.2%{transform:translate(752px,16px)}35.5%{transform:translate(688px,16px)}36.16%{transform:translate(688px,48px)}37.46%{transform:translate(752px,48px)}37.79%{transform:translate(752px,64px)}38.44%{transform:translate(720px,64px)}38.76%{transform:translate(720px,80px)}39.41%{transform:translate(752px,80px)}39.74%{transform:translate(752px,96px)}40.72%{transform:translate(704px,96px)}41.04%{transform:translate(704px,80px)}41.37%,45.28%{transform:translate(688px,80px)}41.69%{transform:translate(688px,64px)}42.02%{transform:translate(672px,64px)}42.35%{transform:translate(672px,48px)}42.67%{transform:translate(656px,48px)}43%{transform:translate(656px,64px)}43.32%,68.08%{transform:translate(640px,64px)}43.65%{transform:translate(640px,80px)}44.3%{transform:translate(672px,80px)}44.63%{transform:translate(672px,96px)}44.95%{transform:translate(688px,96px)}45.93%{transform:translate(656px,80px)}46.25%{transform:translate(656px,96px)}47.88%{transform:translate(576px,96px)}52.12%{transform:translate(384px,80px)}52.44%{transform:translate(384px,64px)}57%{transform:translate(160px,64px)}57.65%{transform:translate(160px,96px)}62.54%{transform:translate(400px,96px)}63.19%{transform:translate(400px,64px)}68.73%{transform:translate(640px,32px)}69.38%{transform:translate(672px,32px)}69.71%{transform:translate(672px,16px)}70.36%{transform:translate(704px,16px)}71.34%{transform:translate(704px,64px)}73.62%{transform:translate(816px,64px)}74.92%{transform:translate(816px,0px)}75.57%{transform:translate(784px,0px)}75.9%,77.85%{transform:translate(784px,16px)}76.22%{transform:translate(800px,16px)}76.55%{transform:translate(800px,32px)}77.2%{transform:translate(768px,32px)}77.52%{transform:translate(768px,16px)}78.5%,83.06%{transform:translate(784px,48px)}78.83%{transform:translate(800px,48px)}79.48%{transform:translate(800px,80px)}79.8%{transform:translate(816px,80px)}80.13%{transform:translate(816px,96px)}80.78%,82.08%{transform:translate(784px,96px)}81.11%{transform:translate(784px,80px)}81.43%{transform:translate(768px,80px)}81.76%{transform:translate(768px,96px)}83.39%{transform:translate(768px,48px)}98.05%{transform:translate(96px,0px)}98.37%{transform:translate(96px,-16px)}}.s.s2{transform:translate(32px,-16px);animation-name:s2}@keyframes s3{0%,99.67%{transform:translate(48px,-16px)}0.98%{transform:translate(0px,-16px)}1.3%{transform:translate(0px,0px)}5.21%{transform:translate(192px,0px)}5.54%{transform:translate(192px,16px)}6.19%{transform:translate(160px,16px)}7.49%{transform:translate(160px,80px)}12.7%{transform:translate(416px,80px)}13.36%{transform:translate(416px,48px)}16.94%{transform:translate(592px,48px)}17.26%{transform:translate(592px,64px)}17.59%{transform:translate(576px,64px)}17.92%,48.53%{transform:translate(576px,80px)}18.57%{transform:translate(608px,80px)}18.89%{transform:translate(608px,96px)}19.22%{transform:translate(624px,96px)}20.85%{transform:translate(624px,16px)}21.17%{transform:translate(608px,16px)}21.5%{transform:translate(608px,0px)}22.15%{transform:translate(640px,0px)}22.48%{transform:translate(640px,-16px)}26.38%{transform:translate(832px,-16px)}26.71%{transform:translate(832px,0px)}27.04%{transform:translate(848px,0px)}27.36%{transform:translate(848px,-16px)}28.99%{transform:translate(768px,-16px)}29.32%,84.69%{transform:translate(768px,0px)}31.6%{transform:translate(656px,0px)}32.25%{transform:translate(656px,32px)}34.2%{transform:translate(752px,32px)}34.53%{transform:translate(752px,16px)}35.83%{transform:translate(688px,16px)}36.48%{transform:translate(688px,48px)}37.79%{transform:translate(752px,48px)}38.11%{transform:translate(752px,64px)}38.76%{transform:translate(720px,64px)}39.09%{transform:translate(720px,80px)}39.74%{transform:translate(752px,80px)}40.07%{transform:translate(752px,96px)}41.04%{transform:translate(704px,96px)}41.37%{transform:translate(704px,80px)}41.69%,45.6%{transform:translate(688px,80px)}42.02%{transform:translate(688px,64px)}42.35%{transform:translate(672px,64px)}42.67%{transform:translate(672px,48px)}43%{transform:translate(656px,48px)}43.32%{transform:translate(656px,64px)}43.65%,68.4%{transform:translate(640px,64px)}43.97%{transform:translate(640px,80px)}44.63%{transform:translate(672px,80px)}44.95%{transform:translate(672px,96px)}45.28%{transform:translate(688px,96px)}46.25%{transform:translate(656px,80px)}46.58%{transform:translate(656px,96px)}48.21%{transform:translate(576px,96px)}52.44%{transform:translate(384px,80px)}52.77%{transform:translate(384px,64px)}57.33%{transform:translate(160px,64px)}57.98%{transform:translate(160px,96px)}62.87%{transform:translate(400px,96px)}63.52%{transform:translate(400px,64px)}69.06%{transform:translate(640px,32px)}69.71%{transform:translate(672px,32px)}70.03%{transform:translate(672px,16px)}70.68%{transform:translate(704px,16px)}71.66%{transform:translate(704px,64px)}73.94%{transform:translate(816px,64px)}75.24%{transform:translate(816px,0px)}75.9%{transform:translate(784px,0px)}76.22%,78.18%{transform:translate(784px,16px)}76.55%{transform:translate(800px,16px)}76.87%{transform:translate(800px,32px)}77.52%{transform:translate(768px,32px)}77.85%{transform:translate(768px,16px)}78.83%,83.39%{transform:translate(784px,48px)}79.15%{transform:translate(800px,48px)}79.8%{transform:translate(800px,80px)}80.13%{transform:translate(816px,80px)}80.46%{transform:translate(816px,96px)}81.11%,82.41%{transform:translate(784px,96px)}81.43%{transform:translate(784px,80px)}81.76%{transform:translate(768px,80px)}82.08%{transform:translate(768px,96px)}83.71%{transform:translate(768px,48px)}98.37%{transform:translate(96px,0px)}98.7%{transform:translate(96px,-16px)}}.s.s3{transform:translate(48px,-16px);animation-name:s3}</style><rect class="c" x="2" y="2" rx="2" ry="2"/><rect class="c" x="2" y="18" rx="2" ry="2"/><rect class="c" x="2" y="34" rx="2" ry="2"/><rect class="c" x="2" y="50" rx="2" ry="2"/><rect class="c" x="2" y="66" rx="2" ry="2"/><rect class="c" x="2" y="82" rx="2" ry="2"/><rect class="c" x="2" y="98" rx="2" ry="2"/><rect class="c" x="18" y="2" rx="2" ry="2"/><rect class="c" x="18" y="18" rx="2" ry="2"/><rect class="c" x="18" y="34" rx="2" ry="2"/><rect class="c" x="18" y="50" rx="2" ry="2"/><rect class="c" x="18" y="66" rx="2" ry="2"/><rect class="c" x="18" y="82" rx="2" ry="2"/><rect class="c" x="18" y="98" rx="2" ry="2"/><rect class="c" x="34" y="2" rx="2" ry="2"/><rect class="c" x="34" y="18" rx="2" ry="2"/><rect class="c" x="34" y="34" rx="2" ry="2"/><rect class="c" x="34" y="50" rx="2" ry="2"/><rect class="c" x="34" y="66" rx="2" ry="2"/><rect class="c" x="34" y="82" rx="2" ry="2"/><rect class="c" x="34" y="98" rx="2" ry="2"/><rect class="c" x="50" y="2" rx="2" ry="2"/><rect class="c" x="50" y="18" rx="2" ry="2"/><rect class="c" x="50" y="34" rx="2" ry="2"/><rect class="c" x="50" y="50" rx="2" ry="2"/><rect class="c" x="50" y="66" rx="2" ry="2"/><rect class="c" x="50" y="82" rx="2" ry="2"/><rect class="c" x="50" y="98" rx="2" ry="2"/><rect class="c" x="66" y="2" rx="2" ry="2"/><rect class="c" x="66" y="18" rx="2" ry="2"/><rect class="c" x="66" y="34" rx="2" ry="2"/><rect class="c" x="66" y="50" rx="2" ry="2"/><rect class="c" x="66" y="66" rx="2" ry="2"/><rect class="c" x="66" y="82" rx="2" ry="2"/><rect class="c" x="66" y="98" rx="2" ry="2"/><rect class="c" x="82" y="2" rx="2" ry="2"/><rect class="c" x="82" y="18" rx="2" ry="2"/><rect class="c" x="82" y="34" rx="2" ry="2"/><rect class="c" x="82" y="50" rx="2" ry="2"/><rect class="c" x="82" y="66" rx="2" ry="2"/><rect class="c" x="82" y="82" rx="2" ry="2"/><rect class="c" x="82" y="98" rx="2" ry="2"/><rect class="c" x="98" y="2" rx="2" ry="2"/><rect class="c" x="98" y="18" rx="2" ry="2"/><rect class="c" x="98" y="34" rx="2" ry="2"/><rect class="c" x="98" y="50" rx="2" ry="2"/><rect class="c" x="98" y="66" rx="2" ry="2"/><rect class="c" x="98" y="82" rx="2" ry="2"/><rect class="c" x="98" y="98" rx="2" ry="2"/><rect class="c" x="114" y="2" rx="2" ry="2"/><rect class="c" x="114" y="18" rx="2" ry="2"/><rect class="c" x="114" y="34" rx="2" ry="2"/><rect class="c" x="114" y="50" rx="2" ry="2"/><rect class="c" x="114" y="66" rx="2" ry="2"/><rect class="c" x="114" y="82" rx="2" ry="2"/><rect class="c" x="114" y="98" rx="2" ry="2"/><rect class="c" x="130" y="2" rx="2" ry="2"/><rect class="c" x="130" y="18" rx="2" ry="2"/><rect class="c" x="130" y="34" rx="2" ry="2"/><rect class="c" x="130" y="50" rx="2" ry="2"/><rect class="c" x="130" y="66" rx="2" ry="2"/><rect class="c" x="130" y="82" rx="2" ry="2"/><rect class="c" x="130" y="98" rx="2" ry="2"/><rect class="c" x="146" y="2" rx="2" ry="2"/><rect class="c" x="146" y="18" rx="2" ry="2"/><rect class="c" x="146" y="34" rx="2" ry="2"/><rect class="c" x="146" y="50" rx="2" ry="2"/><rect class="c" x="146" y="66" rx="2" ry="2"/><rect class="c" x="146" y="82" rx="2" ry="2"/><rect class="c" x="146" y="98" rx="2" ry="2"/><rect class="c" x="162" y="2" rx="2" ry="2"/><rect class="c" x="162" y="18" rx="2" ry="2"/><rect class="c" x="162" y="34" rx="2" ry="2"/><rect class="c" x="162" y="50" rx="2" ry="2"/><rect class="c" x="162" y="66" rx="2" ry="2"/><rect class="c c0" x="162" y="82" rx="2" ry="2"/><rect class="c c1" x="162" y="98" rx="2" ry="2"/><rect class="c" x="178" y="2" rx="2" ry="2"/><rect class="c" x="178" y="18" rx="2" ry="2"/><rect class="c" x="178" y="34" rx="2" ry="2"/><rect class="c" x="178" y="50" rx="2" ry="2"/><rect class="c" x="178" y="66" rx="2" ry="2"/><rect class="c" x="178" y="82" rx="2" ry="2"/><rect class="c" x="178" y="98" rx="2" ry="2"/><rect class="c c2" x="194" y="2" rx="2" ry="2"/><rect class="c c3" x="194" y="18" rx="2" ry="2"/><rect class="c" x="194" y="34" rx="2" ry="2"/><rect class="c" x="194" y="50" rx="2" ry="2"/><rect class="c" x="194" y="66" rx="2" ry="2"/><rect class="c" x="194" y="82" rx="2" ry="2"/><rect class="c" x="194" y="98" rx="2" ry="2"/><rect class="c" x="210" y="2" rx="2" ry="2"/><rect class="c" x="210" y="18" rx="2" ry="2"/><rect class="c" x="210" y="34" rx="2" ry="2"/><rect class="c" x="210" y="50" rx="2" ry="2"/><rect class="c" x="210" y="66" rx="2" ry="2"/><rect class="c" x="210" y="82" rx="2" ry="2"/><rect class="c" x="210" y="98" rx="2" ry="2"/><rect class="c" x="226" y="2" rx="2" ry="2"/><rect class="c" x="226" y="18" rx="2" ry="2"/><rect class="c" x="226" y="34" rx="2" ry="2"/><rect class="c" x="226" y="50" rx="2" ry="2"/><rect class="c" x="226" y="66" rx="2" ry="2"/><rect class="c" x="226" y="82" rx="2" ry="2"/><rect class="c" x="226" y="98" rx="2" ry="2"/><rect class="c" x="242" y="2" rx="2" ry="2"/><rect class="c" x="242" y="18" rx="2" ry="2"/><rect class="c" x="242" y="34" rx="2" ry="2"/><rect class="c" x="242" y="50" rx="2" ry="2"/><rect class="c" x="242" y="66" rx="2" ry="2"/><rect class="c" x="242" y="82" rx="2" ry="2"/><rect class="c" x="242" y="98" rx="2" ry="2"/><rect class="c" x="258" y="2" rx="2" ry="2"/><rect class="c" x="258" y="18" rx="2" ry="2"/><rect class="c" x="258" y="34" rx="2" ry="2"/><rect class="c" x="258" y="50" rx="2" ry="2"/><rect class="c" x="258" y="66" rx="2" ry="2"/><rect class="c" x="258" y="82" rx="2" ry="2"/><rect class="c" x="258" y="98" rx="2" ry="2"/><rect class="c" x="274" y="2" rx="2" ry="2"/><rect class="c" x="274" y="18" rx="2" ry="2"/><rect class="c" x="274" y="34" rx="2" ry="2"/><rect class="c" x="274" y="50" rx="2" ry="2"/><rect class="c c4" x="274" y="66" rx="2" ry="2"/><rect class="c" x="274" y="82" rx="2" ry="2"/><rect class="c" x="274" y="98" rx="2" ry="2"/><rect class="c" x="290" y="2" rx="2" ry="2"/><rect class="c" x="290" y="18" rx="2" ry="2"/><rect class="c" x="290" y="34" rx="2" ry="2"/><rect class="c" x="290" y="50" rx="2" ry="2"/><rect class="c" x="290" y="66" rx="2" ry="2"/><rect class="c" x="290" y="82" rx="2" ry="2"/><rect class="c" x="290" y="98" rx="2" ry="2"/><rect class="c" x="306" y="2" rx="2" ry="2"/><rect class="c" x="306" y="18" rx="2" ry="2"/><rect class="c" x="306" y="34" rx="2" ry="2"/><rect class="c" x="306" y="50" rx="2" ry="2"/><rect class="c" x="306" y="66" rx="2" ry="2"/><rect class="c" x="306" y="82" rx="2" ry="2"/><rect class="c" x="306" y="98" rx="2" ry="2"/><rect class="c" x="322" y="2" rx="2" ry="2"/><rect class="c" x="322" y="18" rx="2" ry="2"/><rect class="c" x="322" y="34" rx="2" ry="2"/><rect class="c" x="322" y="50" rx="2" ry="2"/><rect class="c" x="322" y="66" rx="2" ry="2"/><rect class="c" x="322" y="82" rx="2" ry="2"/><rect class="c" x="322" y="98" rx="2" ry="2"/><rect class="c" x="338" y="2" rx="2" ry="2"/><rect class="c" x="338" y="18" rx="2" ry="2"/><rect class="c" x="338" y="34" rx="2" ry="2"/><rect class="c" x="338" y="50" rx="2" ry="2"/><rect class="c" x="338" y="66" rx="2" ry="2"/><rect class="c" x="338" y="82" rx="2" ry="2"/><rect class="c" x="338" y="98" rx="2" ry="2"/><rect class="c" x="354" y="2" rx="2" ry="2"/><rect class="c" x="354" y="18" rx="2" ry="2"/><rect class="c" x="354" y="34" rx="2" ry="2"/><rect class="c" x="354" y="50" rx="2" ry="2"/><rect class="c" x="354" y="66" rx="2" ry="2"/><rect class="c" x="354" y="82" rx="2" ry="2"/><rect class="c" x="354" y="98" rx="2" ry="2"/><rect class="c" x="370" y="2" rx="2" ry="2"/><rect class="c" x="370" y="18" rx="2" ry="2"/><rect class="c" x="370" y="34" rx="2" ry="2"/><rect class="c" x="370" y="50" rx="2" ry="2"/><rect class="c" x="370" y="66" rx="2" ry="2"/><rect class="c" x="370" y="82" rx="2" ry="2"/><rect class="c" x="370" y="98" rx="2" ry="2"/><rect class="c" x="386" y="2" rx="2" ry="2"/><rect class="c" x="386" y="18" rx="2" ry="2"/><rect class="c" x="386" y="34" rx="2" ry="2"/><rect class="c" x="386" y="50" rx="2" ry="2"/><rect class="c" x="386" y="66" rx="2" ry="2"/><rect class="c" x="386" y="82" rx="2" ry="2"/><rect class="c" x="386" y="98" rx="2" ry="2"/><rect class="c" x="402" y="2" rx="2" ry="2"/><rect class="c" x="402" y="18" rx="2" ry="2"/><rect class="c" x="402" y="34" rx="2" ry="2"/><rect class="c" x="402" y="50" rx="2" ry="2"/><rect class="c c5" x="402" y="66" rx="2" ry="2"/><rect class="c" x="402" y="82" rx="2" ry="2"/><rect class="c" x="402" y="98" rx="2" ry="2"/><rect class="c" x="418" y="2" rx="2" ry="2"/><rect class="c" x="418" y="18" rx="2" ry="2"/><rect class="c" x="418" y="34" rx="2" ry="2"/><rect class="c c6" x="418" y="50" rx="2" ry="2"/><rect class="c" x="418" y="66" rx="2" ry="2"/><rect class="c" x="418" y="82" rx="2" ry="2"/><rect class="c" x="418" y="98" rx="2" ry="2"/><rect class="c" x="434" y="2" rx="2" ry="2"/><rect class="c" x="434" y="18" rx="2" ry="2"/><rect class="c" x="434" y="34" rx="2" ry="2"/><rect class="c" x="434" y="50" rx="2" ry="2"/><rect class="c" x="434" y="66" rx="2" ry="2"/><rect class="c" x="434" y="82" rx="2" ry="2"/><rect class="c" x="434" y="98" rx="2" ry="2"/><rect class="c" x="450" y="2" rx="2" ry="2"/><rect class="c" x="450" y="18" rx="2" ry="2"/><rect class="c" x="450" y="34" rx="2" ry="2"/><rect class="c" x="450" y="50" rx="2" ry="2"/><rect class="c" x="450" y="66" rx="2" ry="2"/><rect class="c" x="450" y="82" rx="2" ry="2"/><rect class="c" x="450" y="98" rx="2" ry="2"/><rect class="c" x="466" y="2" rx="2" ry="2"/><rect class="c" x="466" y="18" rx="2" ry="2"/><rect class="c" x="466" y="34" rx="2" ry="2"/><rect class="c" x="466" y="50" rx="2" ry="2"/><rect class="c" x="466" y="66" rx="2" ry="2"/><rect class="c" x="466" y="82" rx="2" ry="2"/><rect class="c" x="466" y="98" rx="2" ry="2"/><rect class="c" x="482" y="2" rx="2" ry="2"/><rect class="c" x="482" y="18" rx="2" ry="2"/><rect class="c" x="482" y="34" rx="2" ry="2"/><rect class="c" x="482" y="50" rx="2" ry="2"/><rect class="c" x="482" y="66" rx="2" ry="2"/><rect class="c" x="482" y="82" rx="2" ry="2"/><rect class="c" x="482" y="98" rx="2" ry="2"/><rect class="c" x="498" y="2" rx="2" ry="2"/><rect class="c" x="498" y="18" rx="2" ry="2"/><rect class="c" x="498" y="34" rx="2" ry="2"/><rect class="c" x="498" y="50" rx="2" ry="2"/><rect class="c" x="498" y="66" rx="2" ry="2"/><rect class="c" x="498" y="82" rx="2" ry="2"/><rect class="c" x="498" y="98" rx="2" ry="2"/><rect class="c" x="514" y="2" rx="2" ry="2"/><rect class="c" x="514" y="18" rx="2" ry="2"/><rect class="c" x="514" y="34" rx="2" ry="2"/><rect class="c" x="514" y="50" rx="2" ry="2"/><rect class="c" x="514" y="66" rx="2" ry="2"/><rect class="c" x="514" y="82" rx="2" ry="2"/><rect class="c" x="514" y="98" rx="2" ry="2"/><rect class="c" x="530" y="2" rx="2" ry="2"/><rect class="c" x="530" y="18" rx="2" ry="2"/><rect class="c" x="530" y="34" rx="2" ry="2"/><rect class="c" x="530" y="50" rx="2" ry="2"/><rect class="c" x="530" y="66" rx="2" ry="2"/><rect class="c" x="530" y="82" rx="2" ry="2"/><rect class="c" x="530" y="98" rx="2" ry="2"/><rect class="c" x="546" y="2" rx="2" ry="2"/><rect class="c" x="546" y="18" rx="2" ry="2"/><rect class="c" x="546" y="34" rx="2" ry="2"/><rect class="c" x="546" y="50" rx="2" ry="2"/><rect class="c" x="546" y="66" rx="2" ry="2"/><rect class="c" x="546" y="82" rx="2" ry="2"/><rect class="c" x="546" y="98" rx="2" ry="2"/><rect class="c" x="562" y="2" rx="2" ry="2"/><rect class="c" x="562" y="18" rx="2" ry="2"/><rect class="c" x="562" y="34" rx="2" ry="2"/><rect class="c" x="562" y="50" rx="2" ry="2"/><rect class="c" x="562" y="66" rx="2" ry="2"/><rect class="c" x="562" y="82" rx="2" ry="2"/><rect class="c" x="562" y="98" rx="2" ry="2"/><rect class="c" x="578" y="2" rx="2" ry="2"/><rect class="c" x="578" y="18" rx="2" ry="2"/><rect class="c" x="578" y="34" rx="2" ry="2"/><rect class="c" x="578" y="50" rx="2" ry="2"/><rect class="c c7" x="578" y="66" rx="2" ry="2"/><rect class="c" x="578" y="82" rx="2" ry="2"/><rect class="c c8" x="578" y="98" rx="2" ry="2"/><rect class="c c9" x="594" y="2" rx="2" ry="2"/><rect class="c" x="594" y="18" rx="2" ry="2"/><rect class="c" x="594" y="34" rx="2" ry="2"/><rect class="c ca" x="594" y="50" rx="2" ry="2"/><rect class="c" x="594" y="66" rx="2" ry="2"/><rect class="c" x="594" y="82" rx="2" ry="2"/><rect class="c" x="594" y="98" rx="2" ry="2"/><rect class="c" x="610" y="2" rx="2" ry="2"/><rect class="c cb" x="610" y="18" rx="2" ry="2"/><rect class="c" x="610" y="34" rx="2" ry="2"/><rect class="c" x="610" y="50" rx="2" ry="2"/><rect class="c" x="610" y="66" rx="2" ry="2"/><rect class="c cc" x="610" y="82" rx="2" ry="2"/><rect class="c cd" x="610" y="98" rx="2" ry="2"/><rect class="c" x="626" y="2" rx="2" ry="2"/><rect class="c" x="626" y="18" rx="2" ry="2"/><rect class="c" x="626" y="34" rx="2" ry="2"/><rect class="c" x="626" y="50" rx="2" ry="2"/><rect class="c" x="626" y="66" rx="2" ry="2"/><rect class="c" x="626" y="82" rx="2" ry="2"/><rect class="c" x="626" y="98" rx="2" ry="2"/><rect class="c" x="642" y="2" rx="2" ry="2"/><rect class="c" x="642" y="18" rx="2" ry="2"/><rect class="c ce" x="642" y="34" rx="2" ry="2"/><rect class="c cf" x="642" y="50" rx="2" ry="2"/><rect class="c cg" x="642" y="66" rx="2" ry="2"/><rect class="c ch" x="642" y="82" rx="2" ry="2"/><rect class="c ci" x="642" y="98" rx="2" ry="2"/><rect class="c cj" x="658" y="2" rx="2" ry="2"/><rect class="c ck" x="658" y="18" rx="2" ry="2"/><rect class="c cl" x="658" y="34" rx="2" ry="2"/><rect class="c cm" x="658" y="50" rx="2" ry="2"/><rect class="c cn" x="658" y="66" rx="2" ry="2"/><rect class="c co" x="658" y="82" rx="2" ry="2"/><rect class="c cp" x="658" y="98" rx="2" ry="2"/><rect class="c cq" x="674" y="2" rx="2" ry="2"/><rect class="c cr" x="674" y="18" rx="2" ry="2"/><rect class="c cs" x="674" y="34" rx="2" ry="2"/><rect class="c ct" x="674" y="50" rx="2" ry="2"/><rect class="c cu" x="674" y="66" rx="2" ry="2"/><rect class="c cv" x="674" y="82" rx="2" ry="2"/><rect class="c cw" x="674" y="98" rx="2" ry="2"/><rect class="c cx" x="690" y="2" rx="2" ry="2"/><rect class="c cy" x="690" y="18" rx="2" ry="2"/><rect class="c cz" x="690" y="34" rx="2" ry="2"/><rect class="c c10" x="690" y="50" rx="2" ry="2"/><rect class="c c11" x="690" y="66" rx="2" ry="2"/><rect class="c c12" x="690" y="82" rx="2" ry="2"/><rect class="c c13" x="690" y="98" rx="2" ry="2"/><rect class="c c14" x="706" y="2" rx="2" ry="2"/><rect class="c c15" x="706" y="18" rx="2" ry="2"/><rect class="c c16" x="706" y="34" rx="2" ry="2"/><rect class="c c17" x="706" y="50" rx="2" ry="2"/><rect class="c c18" x="706" y="66" rx="2" ry="2"/><rect class="c c19" x="706" y="82" rx="2" ry="2"/><rect class="c c1a" x="706" y="98" rx="2" ry="2"/><rect class="c c1b" x="722" y="2" rx="2" ry="2"/><rect class="c c1c" x="722" y="18" rx="2" ry="2"/><rect class="c c1d" x="722" y="34" rx="2" ry="2"/><rect class="c c1e" x="722" y="50" rx="2" ry="2"/><rect class="c c1f" x="722" y="66" rx="2" ry="2"/><rect class="c c1g" x="722" y="82" rx="2" ry="2"/><rect class="c c1h" x="722" y="98" rx="2" ry="2"/><rect class="c c1i" x="738" y="2" rx="2" ry="2"/><rect class="c c1j" x="738" y="18" rx="2" ry="2"/><rect class="c c1k" x="738" y="34" rx="2" ry="2"/><rect class="c c1l" x="738" y="50" rx="2" ry="2"/><rect class="c c1m" x="738" y="66" rx="2" ry="2"/><rect class="c c1n" x="738" y="82" rx="2" ry="2"/><rect class="c c1o" x="738" y="98" rx="2" ry="2"/><rect class="c c1p" x="754" y="2" rx="2" ry="2"/><rect class="c c1q" x="754" y="18" rx="2" ry="2"/><rect class="c c1r" x="754" y="34" rx="2" ry="2"/><rect class="c c1s" x="754" y="50" rx="2" ry="2"/><rect class="c c1t" x="754" y="66" rx="2" ry="2"/><rect class="c c1u" x="754" y="82" rx="2" ry="2"/><rect class="c c1v" x="754" y="98" rx="2" ry="2"/><rect class="c c1w" x="770" y="2" rx="2" ry="2"/><rect class="c c1x" x="770" y="18" rx="2" ry="2"/><rect class="c c1y" x="770" y="34" rx="2" ry="2"/><rect class="c c1z" x="770" y="50" rx="2" ry="2"/><rect class="c c20" x="770" y="66" rx="2" ry="2"/><rect class="c c21" x="770" y="82" rx="2" ry="2"/><rect class="c c22" x="770" y="98" rx="2" ry="2"/><rect class="c c23" x="786" y="2" rx="2" ry="2"/><rect class="c c24" x="786" y="18" rx="2" ry="2"/><rect class="c c25" x="786" y="34" rx="2" ry="2"/><rect class="c c26" x="786" y="50" rx="2" ry="2"/><rect class="c c27" x="786" y="66" rx="2" ry="2"/><rect class="c c28" x="786" y="82" rx="2" ry="2"/><rect class="c c29" x="786" y="98" rx="2" ry="2"/><rect class="c c2a" x="802" y="2" rx="2" ry="2"/><rect class="c c2b" x="802" y="18" rx="2" ry="2"/><rect class="c c2c" x="802" y="34" rx="2" ry="2"/><rect class="c c2d" x="802" y="50" rx="2" ry="2"/><rect class="c c2e" x="802" y="66" rx="2" ry="2"/><rect class="c c2f" x="802" y="82" rx="2" ry="2"/><rect class="c c2g" x="802" y="98" rx="2" ry="2"/><rect class="c c2h" x="818" y="2" rx="2" ry="2"/><rect class="c c2i" x="818" y="18" rx="2" ry="2"/><rect class="c c2j" x="818" y="34" rx="2" ry="2"/><rect class="c c2k" x="818" y="50" rx="2" ry="2"/><rect class="c c2l" x="818" y="66" rx="2" ry="2"/><rect class="c c2m" x="818" y="82" rx="2" ry="2"/><rect class="c c2n" x="818" y="98" rx="2" ry="2"/><rect class="c c2o" x="834" y="2" rx="2" ry="2"/><rect class="u u0" height="12" width="88.0" x="0.0" y="144"/><rect class="u u1" height="12" width="472.7" x="87.4" y="144"/><rect class="u u2" height="12" width="289.1" x="559.5" y="144"/><rect class="s s0" x="0.8" y="0.8" width="14.4" height="14.4" rx="4.5" ry="4.5"/><rect class="s s1" x="1.8" y="1.8" width="12.3" height="12.3" rx="4.1" ry="4.1"/><rect class="s s2" x="2.6" y="2.6" width="10.8" height="10.8" rx="3.6" ry="3.6"/><rect class="s s3" x="3.0" y="3.0" width="9.9" height="9.9" rx="3.3" ry="3.3"/></svg>