<svg viewBox="-16 -32 880 192" width="880" height="192" xmlns="http://www.w3.org/2000/svg"><desc>Generated with https://github.com/Platane/snk</desc><style>:root{--cb:#1b1f230a;--cs:purple;--ce:#ebedf0;--c0:#ebedf0;--c1:#9be9a8;--c2:#40c463;--c3:#30a14e;--c4:#216e39}.c{shape-rendering:geometricPrecision;fill:var(--ce);stroke-width:1px;stroke:var(--cb);animation:none 33100ms linear infinite;width:12px;height:12px}@keyframes c0{5.13%{fill:var(--c1)}5.15%,100%{fill:var(--ce)}}.c.c0{fill:var(--c1);animation-name:c0}@keyframes c1{48.93%{fill:var(--c2)}48.95%,100%{fill:var(--ce)}}.c.c1{fill:var(--c2);animation-name:c1}@keyframes c2{3.01%{fill:var(--c1)}3.03%,100%{fill:var(--ce)}}.c.c2{fill:var(--c1);animation-name:c2}@keyframes c3{3.31%{fill:var(--c1)}3.33%,100%{fill:var(--ce)}}.c.c3{fill:var(--c1);animation-name:c3}@keyframes c4{46.21%{fill:var(--c2)}46.23%,100%{fill:var(--ce)}}.c.c4{fill:var(--c2);animation-name:c4}@keyframes c5{91.53%{fill:var(--c4)}91.55%,100%{fill:var(--ce)}}.c.c5{fill:var(--c4);animation-name:c5}@keyframes c6{10.56%{fill:var(--c1)}10.58%,100%{fill:var(--ce)}}.c.c6{fill:var(--c1);animation-name:c6}@keyframes c7{14.49%{fill:var(--c1)}14.51%,100%{fill:var(--ce)}}.c.c7{fill:var(--c1);animation-name:c7}@keyframes c8{39.87%{fill:var(--c2)}39.89%,100%{fill:var(--ce)}}.c.c8{fill:var(--c2);animation-name:c8}@keyframes c9{86.7%{fill:var(--c4)}86.72%,100%{fill:var(--ce)}}.c.c9{fill:var(--c4);animation-name:c9}@keyframes ca{13.89%{fill:var(--c1)}13.91%,100%{fill:var(--ce)}}.c.ca{fill:var(--c1);animation-name:ca}@keyframes cb{17.81%{fill:var(--c1)}17.83%,100%{fill:var(--ce)}}.c.cb{fill:var(--c1);animation-name:cb}@keyframes cc{15.4%{fill:var(--c1)}15.42%,100%{fill:var(--ce)}}.c.cc{fill:var(--c1);animation-name:cc}@keyframes cd{15.7%{fill:var(--c1)}15.72%,100%{fill:var(--ce)}}.c.cd{fill:var(--c1);animation-name:cd}@keyframes ce{84.58%{fill:var(--c4)}84.6%,100%{fill:var(--ce)}}.c.ce{fill:var(--c4);animation-name:ce}@keyframes cf{84.88%{fill:var(--c4)}84.9%,100%{fill:var(--ce)}}.c.cf{fill:var(--c4);animation-name:cf}@keyframes cg{37.45%{fill:var(--c2)}37.47%,100%{fill:var(--ce)}}.c.cg{fill:var(--c2);animation-name:cg}@keyframes ch{37.15%{fill:var(--c2)}37.17%,100%{fill:var(--ce)}}.c.ch{fill:var(--c2);animation-name:ch}@keyframes ci{38.66%{fill:var(--c2)}38.68%,100%{fill:var(--ce)}}.c.ci{fill:var(--c2);animation-name:ci}@keyframes cj{19.02%{fill:var(--c2)}19.04%,100%{fill:var(--ce)}}.c.cj{fill:var(--c2);animation-name:cj}@keyframes ck{27.78%{fill:var(--c2)}27.8%,100%{fill:var(--ce)}}.c.ck{fill:var(--c2);animation-name:ck}@keyframes cl{27.48%{fill:var(--c2)}27.5%,100%{fill:var(--ce)}}.c.cl{fill:var(--c2);animation-name:cl}@keyframes cm{29.6%{fill:var(--c2)}29.62%,100%{fill:var(--ce)}}.c.cm{fill:var(--c2);animation-name:cm}@keyframes cn{29.9%{fill:var(--c2)}29.92%,100%{fill:var(--ce)}}.c.cn{fill:var(--c2);animation-name:cn}@keyframes co{36.85%{fill:var(--c2)}36.87%,100%{fill:var(--ce)}}.c.co{fill:var(--c2);animation-name:co}@keyframes cp{38.36%{fill:var(--c2)}38.38%,100%{fill:var(--ce)}}.c.cp{fill:var(--c2);animation-name:cp}@keyframes cq{19.33%{fill:var(--c2)}19.35%,100%{fill:var(--ce)}}.c.cq{fill:var(--c2);animation-name:cq}@keyframes cr{83.68%{fill:var(--c4)}83.7%,100%{fill:var(--ce)}}.c.cr{fill:var(--c4);animation-name:cr}@keyframes cs{27.18%{fill:var(--c2)}27.2%,100%{fill:var(--ce)}}.c.cs{fill:var(--c2);animation-name:cs}@keyframes ct{26.88%{fill:var(--c2)}26.9%,100%{fill:var(--ce)}}.c.ct{fill:var(--c2);animation-name:ct}@keyframes cu{30.2%{fill:var(--c2)}30.22%,100%{fill:var(--ce)}}.c.cu{fill:var(--c2);animation-name:cu}@keyframes cv{36.55%{fill:var(--c2)}36.57%,100%{fill:var(--ce)}}.c.cv{fill:var(--c2);animation-name:cv}@keyframes cw{36.24%{fill:var(--c2)}36.26%,100%{fill:var(--ce)}}.c.cw{fill:var(--c2);animation-name:cw}@keyframes cx{19.63%{fill:var(--c2)}19.65%,100%{fill:var(--ce)}}.c.cx{fill:var(--c2);animation-name:cx}@keyframes cy{23.55%{fill:var(--c2)}23.57%,100%{fill:var(--ce)}}.c.cy{fill:var(--c2);animation-name:cy}@keyframes cz{23.86%{fill:var(--c2)}23.88%,100%{fill:var(--ce)}}.c.cz{fill:var(--c2);animation-name:cz}@keyframes c10{26.58%{fill:var(--c2)}26.6%,100%{fill:var(--ce)}}.c.c10{fill:var(--c2);animation-name:c10}@keyframes c11{30.5%{fill:var(--c2)}30.52%,100%{fill:var(--ce)}}.c.c11{fill:var(--c2);animation-name:c11}@keyframes c12{30.81%{fill:var(--c2)}30.83%,100%{fill:var(--ce)}}.c.c12{fill:var(--c2);animation-name:c12}@keyframes c13{35.94%{fill:var(--c2)}35.96%,100%{fill:var(--ce)}}.c.c13{fill:var(--c2);animation-name:c13}@keyframes c14{19.93%{fill:var(--c2)}19.95%,100%{fill:var(--ce)}}.c.c14{fill:var(--c2);animation-name:c14}@keyframes c15{23.25%{fill:var(--c2)}23.27%,100%{fill:var(--ce)}}.c.c15{fill:var(--c2);animation-name:c15}@keyframes c16{24.16%{fill:var(--c2)}24.18%,100%{fill:var(--ce)}}.c.c16{fill:var(--c2);animation-name:c16}@keyframes c17{26.27%{fill:var(--c2)}26.29%,100%{fill:var(--ce)}}.c.c17{fill:var(--c2);animation-name:c17}@keyframes c18{82.17%{fill:var(--c4)}82.19%,100%{fill:var(--ce)}}.c.c18{fill:var(--c4);animation-name:c18}@keyframes c19{31.11%{fill:var(--c2)}31.13%,100%{fill:var(--ce)}}.c.c19{fill:var(--c2);animation-name:c19}@keyframes c1a{35.64%{fill:var(--c2)}35.66%,100%{fill:var(--ce)}}.c.c1a{fill:var(--c2);animation-name:c1a}@keyframes c1b{20.23%{fill:var(--c2)}20.25%,100%{fill:var(--ce)}}.c.c1b{fill:var(--c2);animation-name:c1b}@keyframes c1c{22.95%{fill:var(--c2)}22.97%,100%{fill:var(--ce)}}.c.c1c{fill:var(--c2);animation-name:c1c}@keyframes c1d{24.46%{fill:var(--c2)}24.48%,100%{fill:var(--ce)}}.c.c1d{fill:var(--c2);animation-name:c1d}@keyframes c1e{25.97%{fill:var(--c2)}25.99%,100%{fill:var(--ce)}}.c.c1e{fill:var(--c2);animation-name:c1e}@keyframes c1f{32.92%{fill:var(--c2)}32.94%,100%{fill:var(--ce)}}.c.c1f{fill:var(--c2);animation-name:c1f}@keyframes c1g{31.41%{fill:var(--c2)}31.43%,100%{fill:var(--ce)}}.c.c1g{fill:var(--c2);animation-name:c1g}@keyframes c1h{33.52%{fill:var(--c2)}33.54%,100%{fill:var(--ce)}}.c.c1h{fill:var(--c2);animation-name:c1h}@keyframes c1i{20.53%{fill:var(--c2)}20.55%,100%{fill:var(--ce)}}.c.c1i{fill:var(--c2);animation-name:c1i}@keyframes c1j{22.65%{fill:var(--c2)}22.67%,100%{fill:var(--ce)}}.c.c1j{fill:var(--c2);animation-name:c1j}@keyframes c1k{24.76%{fill:var(--c2)}24.78%,100%{fill:var(--ce)}}.c.c1k{fill:var(--c2);animation-name:c1k}@keyframes c1l{25.67%{fill:var(--c2)}25.69%,100%{fill:var(--ce)}}.c.c1l{fill:var(--c2);animation-name:c1l}@keyframes c1m{32.62%{fill:var(--c2)}32.64%,100%{fill:var(--ce)}}.c.c1m{fill:var(--c2);animation-name:c1m}@keyframes c1n{31.71%{fill:var(--c2)}31.73%,100%{fill:var(--ce)}}.c.c1n{fill:var(--c2);animation-name:c1n}@keyframes c1o{33.83%{fill:var(--c2)}33.85%,100%{fill:var(--ce)}}.c.c1o{fill:var(--c2);animation-name:c1o}@keyframes c1p{20.84%{fill:var(--c2)}20.86%,100%{fill:var(--ce)}}.c.c1p{fill:var(--c2);animation-name:c1p}@keyframes c1q{22.35%{fill:var(--c2)}22.37%,100%{fill:var(--ce)}}.c.c1q{fill:var(--c2);animation-name:c1q}@keyframes c1r{25.07%{fill:var(--c2)}25.09%,100%{fill:var(--ce)}}.c.c1r{fill:var(--c2);animation-name:c1r}@keyframes c1s{25.37%{fill:var(--c2)}25.39%,100%{fill:var(--ce)}}.c.c1s{fill:var(--c2);animation-name:c1s}@keyframes c1t{32.32%{fill:var(--c2)}32.34%,100%{fill:var(--ce)}}.c.c1t{fill:var(--c2);animation-name:c1t}@keyframes c1u{32.01%{fill:var(--c2)}32.03%,100%{fill:var(--ce)}}.c.c1u{fill:var(--c2);animation-name:c1u}@keyframes c1v{34.13%{fill:var(--c2)}34.15%,100%{fill:var(--ce)}}.c.c1v{fill:var(--c2);animation-name:c1v}@keyframes c1w{21.14%{fill:var(--c2)}21.16%,100%{fill:var(--ce)}}.c.c1w{fill:var(--c2);animation-name:c1w}@keyframes c1x{70.99%{fill:var(--c4)}71.01%,100%{fill:var(--ce)}}.c.c1x{fill:var(--c4);animation-name:c1x}@keyframes c1y{70.68%{fill:var(--c4)}70.7%,100%{fill:var(--ce)}}.c.c1y{fill:var(--c4);animation-name:c1y}@keyframes c1z{75.82%{fill:var(--c4)}75.84%,100%{fill:var(--ce)}}.c.c1z{fill:var(--c4);animation-name:c1z}@keyframes c20{75.52%{fill:var(--c4)}75.54%,100%{fill:var(--ce)}}.c.c20{fill:var(--c4);animation-name:c20}@keyframes c21{80.65%{fill:var(--c4)}80.67%,100%{fill:var(--ce)}}.c.c21{fill:var(--c4);animation-name:c21}@keyframes c22{80.35%{fill:var(--c4)}80.37%,100%{fill:var(--ce)}}.c.c22{fill:var(--c4);animation-name:c22}@keyframes c23{66.76%{fill:var(--c4)}66.78%,100%{fill:var(--ce)}}.c.c23{fill:var(--c4);animation-name:c23}@keyframes c24{67.06%{fill:var(--c4)}67.08%,100%{fill:var(--ce)}}.c.c24{fill:var(--c4);animation-name:c24}@keyframes c25{70.38%{fill:var(--c4)}70.4%,100%{fill:var(--ce)}}.c.c25{fill:var(--c4);animation-name:c25}@keyframes c26{71.89%{fill:var(--c4)}71.91%,100%{fill:var(--ce)}}.c.c26{fill:var(--c4);animation-name:c26}@keyframes c27{75.22%{fill:var(--c4)}75.24%,100%{fill:var(--ce)}}.c.c27{fill:var(--c4);animation-name:c27}@keyframes c28{76.73%{fill:var(--c4)}76.75%,100%{fill:var(--ce)}}.c.c28{fill:var(--c4);animation-name:c28}@keyframes c29{80.05%{fill:var(--c4)}80.07%,100%{fill:var(--ce)}}.c.c29{fill:var(--c4);animation-name:c29}@keyframes c2a{66.46%{fill:var(--c4)}66.48%,100%{fill:var(--ce)}}.c.c2a{fill:var(--c4);animation-name:c2a}@keyframes c2b{67.36%{fill:var(--c4)}67.38%,100%{fill:var(--ce)}}.c.c2b{fill:var(--c4);animation-name:c2b}@keyframes c2c{70.08%{fill:var(--c4)}70.1%,100%{fill:var(--ce)}}.c.c2c{fill:var(--c4);animation-name:c2c}@keyframes c2d{72.2%{fill:var(--c4)}72.22%,100%{fill:var(--ce)}}.c.c2d{fill:var(--c4);animation-name:c2d}@keyframes c2e{74.91%{fill:var(--c4)}74.93%,100%{fill:var(--ce)}}.c.c2e{fill:var(--c4);animation-name:c2e}@keyframes c2f{77.03%{fill:var(--c4)}77.05%,100%{fill:var(--ce)}}.c.c2f{fill:var(--c4);animation-name:c2f}@keyframes c2g{79.75%{fill:var(--c4)}79.77%,100%{fill:var(--ce)}}.c.c2g{fill:var(--c4);animation-name:c2g}@keyframes c2h{66.15%{fill:var(--c4)}66.17%,100%{fill:var(--ce)}}.c.c2h{fill:var(--c4);animation-name:c2h}@keyframes c2i{67.66%{fill:var(--c4)}67.68%,100%{fill:var(--ce)}}.c.c2i{fill:var(--c4);animation-name:c2i}@keyframes c2j{69.78%{fill:var(--c4)}69.8%,100%{fill:var(--ce)}}.c.c2j{fill:var(--c4);animation-name:c2j}@keyframes c2k{72.5%{fill:var(--c4)}72.52%,100%{fill:var(--ce)}}.c.c2k{fill:var(--c4);animation-name:c2k}@keyframes c2l{74.61%{fill:var(--c4)}74.63%,100%{fill:var(--ce)}}.c.c2l{fill:var(--c4);animation-name:c2l}@keyframes c2m{77.33%{fill:var(--c4)}77.35%,100%{fill:var(--ce)}}.c.c2m{fill:var(--c4);animation-name:c2m}@keyframes c2n{79.45%{fill:var(--c4)}79.47%,100%{fill:var(--ce)}}.c.c2n{fill:var(--c4);animation-name:c2n}@keyframes c2o{65.85%{fill:var(--c4)}65.87%,100%{fill:var(--ce)}}.c.c2o{fill:var(--c4);animation-name:c2o}@keyframes c2p{67.97%{fill:var(--c4)}67.99%,100%{fill:var(--ce)}}.c.c2p{fill:var(--c4);animation-name:c2p}@keyframes c2q{69.48%{fill:var(--c4)}69.5%,100%{fill:var(--ce)}}.c.c2q{fill:var(--c4);animation-name:c2q}@keyframes c2r{72.8%{fill:var(--c4)}72.82%,100%{fill:var(--ce)}}.c.c2r{fill:var(--c4);animation-name:c2r}@keyframes c2s{74.31%{fill:var(--c4)}74.33%,100%{fill:var(--ce)}}.c.c2s{fill:var(--c4);animation-name:c2s}@keyframes c2t{77.63%{fill:var(--c4)}77.65%,100%{fill:var(--ce)}}.c.c2t{fill:var(--c4);animation-name:c2t}@keyframes c2u{79.14%{fill:var(--c4)}79.16%,100%{fill:var(--ce)}}.c.c2u{fill:var(--c4);animation-name:c2u}@keyframes c2v{65.55%{fill:var(--c4)}65.57%,100%{fill:var(--ce)}}.c.c2v{fill:var(--c4);animation-name:c2v}@keyframes c2w{68.27%{fill:var(--c4)}68.29%,100%{fill:var(--ce)}}.c.c2w{fill:var(--c4);animation-name:c2w}@keyframes c2x{69.17%{fill:var(--c4)}69.19%,100%{fill:var(--ce)}}.c.c2x{fill:var(--c4);animation-name:c2x}@keyframes c2y{73.1%{fill:var(--c4)}73.12%,100%{fill:var(--ce)}}.c.c2y{fill:var(--c4);animation-name:c2y}@keyframes c2z{74.01%{fill:var(--c4)}74.03%,100%{fill:var(--ce)}}.c.c2z{fill:var(--c4);animation-name:c2z}@keyframes c30{77.94%{fill:var(--c4)}77.96%,100%{fill:var(--ce)}}.c.c30{fill:var(--c4);animation-name:c30}@keyframes c31{78.84%{fill:var(--c4)}78.86%,100%{fill:var(--ce)}}.c.c31{fill:var(--c4);animation-name:c31}@keyframes c32{65.25%{fill:var(--c4)}65.27%,100%{fill:var(--ce)}}.c.c32{fill:var(--c4);animation-name:c32}@keyframes c33{68.57%{fill:var(--c4)}68.59%,100%{fill:var(--ce)}}.c.c33{fill:var(--c4);animation-name:c33}@keyframes c34{68.87%{fill:var(--c4)}68.89%,100%{fill:var(--ce)}}.c.c34{fill:var(--c4);animation-name:c34}@keyframes c35{73.4%{fill:var(--c4)}73.42%,100%{fill:var(--ce)}}.c.c35{fill:var(--c4);animation-name:c35}@keyframes c36{73.71%{fill:var(--c4)}73.73%,100%{fill:var(--ce)}}.c.c36{fill:var(--c4);animation-name:c36}@keyframes c37{78.24%{fill:var(--c4)}78.26%,100%{fill:var(--ce)}}.c.c37{fill:var(--c4);animation-name:c37}@keyframes c38{78.54%{fill:var(--c4)}78.56%,100%{fill:var(--ce)}}.c.c38{fill:var(--c4);animation-name:c38}@keyframes c39{64.94%{fill:var(--c4)}64.96%,100%{fill:var(--ce)}}.c.c39{fill:var(--c4);animation-name:c39}@keyframes c3a{64.64%{fill:var(--c4)}64.66%,100%{fill:var(--ce)}}.c.c3a{fill:var(--c4);animation-name:c3a}@keyframes c3b{64.34%{fill:var(--c3)}64.36%,100%{fill:var(--ce)}}.c.c3b{fill:var(--c3);animation-name:c3b}.u{transform-origin:0 0;transform:scale(0,1);animation:none linear 33100ms infinite}@keyframes u0{3.01%{transform:scale(0.000,1)}3.03%,3.31%{transform:scale(0.111,1)}3.33%,5.13%{transform:scale(0.222,1)}5.15%,10.56%{transform:scale(0.333,1)}10.58%,13.89%{transform:scale(0.444,1)}13.91%,14.49%{transform:scale(0.556,1)}14.51%,15.4%{transform:scale(0.667,1)}15.42%,15.7%{transform:scale(0.778,1)}15.72%,17.81%{transform:scale(0.889,1)}17.83%,100%{transform:scale(1.000,1)}}.u.u0{fill:var(--c1);animation-name:u0;transform-origin:0.0px 0}@keyframes u1{19.02%{transform:scale(0.000,1)}19.04%,19.33%{transform:scale(0.019,1)}19.35%,19.63%{transform:scale(0.037,1)}19.65%,19.93%{transform:scale(0.056,1)}19.95%,20.23%{transform:scale(0.074,1)}20.25%,20.53%{transform:scale(0.093,1)}20.55%,20.84%{transform:scale(0.111,1)}20.86%,21.14%{transform:scale(0.130,1)}21.16%,22.35%{transform:scale(0.148,1)}22.37%,22.65%{transform:scale(0.167,1)}22.67%,22.95%{transform:scale(0.185,1)}22.97%,23.25%{transform:scale(0.204,1)}23.27%,23.55%{transform:scale(0.222,1)}23.57%,23.86%{transform:scale(0.241,1)}23.88%,24.16%{transform:scale(0.259,1)}24.18%,24.46%{transform:scale(0.278,1)}24.48%,24.76%{transform:scale(0.296,1)}24.78%,25.07%{transform:scale(0.315,1)}25.09%,25.37%{transform:scale(0.333,1)}25.39%,25.67%{transform:scale(0.352,1)}25.69%,25.97%{transform:scale(0.370,1)}25.99%,26.27%{transform:scale(0.389,1)}26.29%,26.58%{transform:scale(0.407,1)}26.6%,26.88%{transform:scale(0.426,1)}26.9%,27.18%{transform:scale(0.444,1)}27.2%,27.48%{transform:scale(0.463,1)}27.5%,27.78%{transform:scale(0.481,1)}27.8%,29.6%{transform:scale(0.500,1)}29.62%,29.9%{transform:scale(0.519,1)}29.92%,30.2%{transform:scale(0.537,1)}30.22%,30.5%{transform:scale(0.556,1)}30.52%,30.81%{transform:scale(0.574,1)}30.83%,31.11%{transform:scale(0.593,1)}31.13%,31.41%{transform:scale(0.611,1)}31.43%,31.71%{transform:scale(0.630,1)}31.73%,32.01%{transform:scale(0.648,1)}32.03%,32.32%{transform:scale(0.667,1)}32.34%,32.62%{transform:scale(0.685,1)}32.64%,32.92%{transform:scale(0.704,1)}32.94%,33.52%{transform:scale(0.722,1)}33.54%,33.83%{transform:scale(0.741,1)}33.85%,34.13%{transform:scale(0.759,1)}34.15%,35.64%{transform:scale(0.778,1)}35.66%,35.94%{transform:scale(0.796,1)}35.96%,36.24%{transform:scale(0.815,1)}36.26%,36.55%{transform:scale(0.833,1)}36.57%,36.85%{transform:scale(0.852,1)}36.87%,37.15%{transform:scale(0.870,1)}37.17%,37.45%{transform:scale(0.889,1)}37.47%,38.36%{transform:scale(0.907,1)}38.38%,38.66%{transform:scale(0.926,1)}38.68%,39.87%{transform:scale(0.944,1)}39.89%,46.21%{transform:scale(0.963,1)}46.23%,48.93%{transform:scale(0.981,1)}48.95%,100%{transform:scale(1.000,1)}}.u.u1{fill:var(--c2);animation-name:u1;transform-origin:63.6px 0}@keyframes u2{64.34%{transform:scale(0.000,1)}64.36%,100%{transform:scale(1.000,1)}}.u.u2{fill:var(--c3);animation-name:u2;transform-origin:445.2px 0}@keyframes u3{64.64%{transform:scale(0.000,1)}64.66%,64.94%{transform:scale(0.018,1)}64.96%,65.25%{transform:scale(0.036,1)}65.27%,65.55%{transform:scale(0.054,1)}65.57%,65.85%{transform:scale(0.071,1)}65.87%,66.15%{transform:scale(0.089,1)}66.17%,66.46%{transform:scale(0.107,1)}66.48%,66.76%{transform:scale(0.125,1)}66.78%,67.06%{transform:scale(0.143,1)}67.08%,67.36%{transform:scale(0.161,1)}67.38%,67.66%{transform:scale(0.179,1)}67.68%,67.97%{transform:scale(0.196,1)}67.99%,68.27%{transform:scale(0.214,1)}68.29%,68.57%{transform:scale(0.232,1)}68.59%,68.87%{transform:scale(0.250,1)}68.89%,69.17%{transform:scale(0.268,1)}69.19%,69.48%{transform:scale(0.286,1)}69.5%,69.78%{transform:scale(0.304,1)}69.8%,70.08%{transform:scale(0.321,1)}70.1%,70.38%{transform:scale(0.339,1)}70.4%,70.68%{transform:scale(0.357,1)}70.7%,70.99%{transform:scale(0.375,1)}71.01%,71.89%{transform:scale(0.393,1)}71.91%,72.2%{transform:scale(0.411,1)}72.22%,72.5%{transform:scale(0.429,1)}72.52%,72.8%{transform:scale(0.446,1)}72.82%,73.1%{transform:scale(0.464,1)}73.12%,73.4%{transform:scale(0.482,1)}73.42%,73.71%{transform:scale(0.500,1)}73.73%,74.01%{transform:scale(0.518,1)}74.03%,74.31%{transform:scale(0.536,1)}74.33%,74.61%{transform:scale(0.554,1)}74.63%,74.91%{transform:scale(0.571,1)}74.93%,75.22%{transform:scale(0.589,1)}75.24%,75.52%{transform:scale(0.607,1)}75.54%,75.82%{transform:scale(0.625,1)}75.84%,76.73%{transform:scale(0.643,1)}76.75%,77.03%{transform:scale(0.661,1)}77.05%,77.33%{transform:scale(0.679,1)}77.35%,77.63%{transform:scale(0.696,1)}77.65%,77.94%{transform:scale(0.714,1)}77.96%,78.24%{transform:scale(0.732,1)}78.26%,78.54%{transform:scale(0.750,1)}78.56%,78.84%{transform:scale(0.768,1)}78.86%,79.14%{transform:scale(0.786,1)}79.16%,79.45%{transform:scale(0.804,1)}79.47%,79.75%{transform:scale(0.821,1)}79.77%,80.05%{transform:scale(0.839,1)}80.07%,80.35%{transform:scale(0.857,1)}80.37%,80.65%{transform:scale(0.875,1)}80.67%,82.17%{transform:scale(0.893,1)}82.19%,83.68%{transform:scale(0.911,1)}83.7%,84.58%{transform:scale(0.929,1)}84.6%,84.88%{transform:scale(0.946,1)}84.9%,86.7%{transform:scale(0.964,1)}86.72%,91.53%{transform:scale(0.982,1)}91.55%,100%{transform:scale(1.000,1)}}.u.u3{fill:var(--c4);animation-name:u3;transform-origin:452.3px 0}.s{shape-rendering:geometricPrecision;fill:var(--cs);animation:none linear 33100ms infinite}@keyframes s0{0%,99.7%{transform:translate(0px,-16px)}0.3%{transform:translate(0px,0px)}3.02%{transform:translate(144px,0px)}3.32%{transform:translate(144px,16px)}3.93%{transform:translate(112px,16px)}5.14%{transform:translate(112px,80px)}9.97%{transform:translate(368px,80px)}10.57%{transform:translate(368px,48px)}13.9%{transform:translate(544px,48px)}14.2%{transform:translate(544px,64px)}14.5%{transform:translate(528px,64px)}14.8%,40.18%{transform:translate(528px,80px)}15.41%{transform:translate(560px,80px)}15.71%{transform:translate(560px,96px)}16.01%{transform:translate(576px,96px)}17.52%{transform:translate(576px,16px)}17.82%{transform:translate(560px,16px)}18.13%{transform:translate(560px,0px)}21.15%{transform:translate(720px,0px)}21.45%{transform:translate(720px,-16px)}21.75%{transform:translate(704px,-16px)}22.36%{transform:translate(704px,16px)}23.56%{transform:translate(640px,16px)}23.87%{transform:translate(640px,32px)}25.08%{transform:translate(704px,32px)}25.38%{transform:translate(704px,48px)}26.89%{transform:translate(624px,48px)}27.19%{transform:translate(624px,32px)}27.49%{transform:translate(608px,32px)}28.1%{transform:translate(608px,0px)}28.4%{transform:translate(592px,0px)}28.7%,84.29%{transform:translate(592px,16px)}29%{transform:translate(608px,16px)}29.91%,37.76%{transform:translate(608px,64px)}30.51%{transform:translate(640px,64px)}30.82%{transform:translate(640px,80px)}32.02%,34.44%{transform:translate(704px,80px)}32.33%{transform:translate(704px,64px)}32.93%{transform:translate(672px,64px)}33.53%{transform:translate(672px,96px)}34.14%,60.12%{transform:translate(704px,96px)}35.35%{transform:translate(656px,80px)}35.65%{transform:translate(656px,96px)}36.25%{transform:translate(624px,96px)}36.56%{transform:translate(624px,80px)}37.16%{transform:translate(592px,80px)}37.46%{transform:translate(592px,64px)}38.37%{transform:translate(608px,96px)}39.88%{transform:translate(528px,96px)}43.81%{transform:translate(336px,80px)}44.11%{transform:translate(336px,64px)}48.34%{transform:translate(112px,64px)}48.94%{transform:translate(112px,96px)}60.42%{transform:translate(704px,112px)}62.84%{transform:translate(832px,112px)}64.95%{transform:translate(832px,0px)}66.77%{transform:translate(736px,0px)}67.07%,71.3%{transform:translate(736px,16px)}68.58%{transform:translate(816px,16px)}68.88%{transform:translate(816px,32px)}70.69%{transform:translate(720px,32px)}71%{transform:translate(720px,16px)}71.9%,76.13%{transform:translate(736px,48px)}73.41%{transform:translate(816px,48px)}73.72%{transform:translate(816px,64px)}75.53%,80.97%{transform:translate(720px,64px)}75.83%{transform:translate(720px,48px)}76.74%{transform:translate(736px,80px)}78.25%{transform:translate(816px,80px)}78.55%{transform:translate(816px,96px)}80.36%{transform:translate(720px,96px)}82.18%{transform:translate(656px,64px)}83.08%{transform:translate(656px,16px)}84.89%{transform:translate(592px,48px)}85.2%{transform:translate(576px,48px)}86.1%{transform:translate(576px,0px)}90.33%{transform:translate(352px,0px)}91.54%{transform:translate(352px,64px)}96.68%{transform:translate(80px,64px)}97.28%{transform:translate(80px,32px)}97.89%{transform:translate(48px,32px)}98.79%{transform:translate(48px,-16px)}}.s.s0{transform:translate(0px,-16px);animation-name:s0}@keyframes s1{0%,99.7%{transform:translate(16px,-16px)}0.3%{transform:translate(0px,-16px)}0.6%{transform:translate(0px,0px)}3.32%{transform:translate(144px,0px)}3.63%{transform:translate(144px,16px)}4.23%{transform:translate(112px,16px)}5.44%{transform:translate(112px,80px)}10.27%{transform:translate(368px,80px)}10.88%{transform:translate(368px,48px)}14.2%{transform:translate(544px,48px)}14.5%{transform:translate(544px,64px)}14.8%{transform:translate(528px,64px)}15.11%,40.48%{transform:translate(528px,80px)}15.71%{transform:translate(560px,80px)}16.01%{transform:translate(560px,96px)}16.31%{transform:translate(576px,96px)}17.82%{transform:translate(576px,16px)}18.13%{transform:translate(560px,16px)}18.43%{transform:translate(560px,0px)}21.45%{transform:translate(720px,0px)}21.75%{transform:translate(720px,-16px)}22.05%{transform:translate(704px,-16px)}22.66%{transform:translate(704px,16px)}23.87%{transform:translate(640px,16px)}24.17%{transform:translate(640px,32px)}25.38%{transform:translate(704px,32px)}25.68%{transform:translate(704px,48px)}27.19%{transform:translate(624px,48px)}27.49%{transform:translate(624px,32px)}27.79%{transform:translate(608px,32px)}28.4%{transform:translate(608px,0px)}28.7%{transform:translate(592px,0px)}29%,84.59%{transform:translate(592px,16px)}29.31%{transform:translate(608px,16px)}30.21%,38.07%{transform:translate(608px,64px)}30.82%{transform:translate(640px,64px)}31.12%{transform:translate(640px,80px)}32.33%,34.74%{transform:translate(704px,80px)}32.63%{transform:translate(704px,64px)}33.23%{transform:translate(672px,64px)}33.84%{transform:translate(672px,96px)}34.44%,60.42%{transform:translate(704px,96px)}35.65%{transform:translate(656px,80px)}35.95%{transform:translate(656px,96px)}36.56%{transform:translate(624px,96px)}36.86%{transform:translate(624px,80px)}37.46%{transform:translate(592px,80px)}37.76%{transform:translate(592px,64px)}38.67%{transform:translate(608px,96px)}40.18%{transform:translate(528px,96px)}44.11%{transform:translate(336px,80px)}44.41%{transform:translate(336px,64px)}48.64%{transform:translate(112px,64px)}49.24%{transform:translate(112px,96px)}60.73%{transform:translate(704px,112px)}63.14%{transform:translate(832px,112px)}65.26%{transform:translate(832px,0px)}67.07%{transform:translate(736px,0px)}67.37%,71.6%{transform:translate(736px,16px)}68.88%{transform:translate(816px,16px)}69.18%{transform:translate(816px,32px)}71%{transform:translate(720px,32px)}71.3%{transform:translate(720px,16px)}72.21%,76.44%{transform:translate(736px,48px)}73.72%{transform:translate(816px,48px)}74.02%{transform:translate(816px,64px)}75.83%,81.27%{transform:translate(720px,64px)}76.13%{transform:translate(720px,48px)}77.04%{transform:translate(736px,80px)}78.55%{transform:translate(816px,80px)}78.85%{transform:translate(816px,96px)}80.66%{transform:translate(720px,96px)}82.48%{transform:translate(656px,64px)}83.38%{transform:translate(656px,16px)}85.2%{transform:translate(592px,48px)}85.5%{transform:translate(576px,48px)}86.4%{transform:translate(576px,0px)}90.63%{transform:translate(352px,0px)}91.84%{transform:translate(352px,64px)}96.98%{transform:translate(80px,64px)}97.58%{transform:translate(80px,32px)}98.19%{transform:translate(48px,32px)}99.09%{transform:translate(48px,-16px)}}.s.s1{transform:translate(16px,-16px);animation-name:s1}@keyframes s2{0%,99.7%{transform:translate(32px,-16px)}0.6%{transform:translate(0px,-16px)}0.91%{transform:translate(0px,0px)}3.63%{transform:translate(144px,0px)}3.93%{transform:translate(144px,16px)}4.53%{transform:translate(112px,16px)}5.74%{transform:translate(112px,80px)}10.57%{transform:translate(368px,80px)}11.18%{transform:translate(368px,48px)}14.5%{transform:translate(544px,48px)}14.8%{transform:translate(544px,64px)}15.11%{transform:translate(528px,64px)}15.41%,40.79%{transform:translate(528px,80px)}16.01%{transform:translate(560px,80px)}16.31%{transform:translate(560px,96px)}16.62%{transform:translate(576px,96px)}18.13%{transform:translate(576px,16px)}18.43%{transform:translate(560px,16px)}18.73%{transform:translate(560px,0px)}21.75%{transform:translate(720px,0px)}22.05%{transform:translate(720px,-16px)}22.36%{transform:translate(704px,-16px)}22.96%{transform:translate(704px,16px)}24.17%{transform:translate(640px,16px)}24.47%{transform:translate(640px,32px)}25.68%{transform:translate(704px,32px)}25.98%{transform:translate(704px,48px)}27.49%{transform:translate(624px,48px)}27.79%{transform:translate(624px,32px)}28.1%{transform:translate(608px,32px)}28.7%{transform:translate(608px,0px)}29%{transform:translate(592px,0px)}29.31%,84.89%{transform:translate(592px,16px)}29.61%{transform:translate(608px,16px)}30.51%,38.37%{transform:translate(608px,64px)}31.12%{transform:translate(640px,64px)}31.42%{transform:translate(640px,80px)}32.63%,35.05%{transform:translate(704px,80px)}32.93%{transform:translate(704px,64px)}33.53%{transform:translate(672px,64px)}34.14%{transform:translate(672px,96px)}34.74%,60.73%{transform:translate(704px,96px)}35.95%{transform:translate(656px,80px)}36.25%{transform:translate(656px,96px)}36.86%{transform:translate(624px,96px)}37.16%{transform:translate(624px,80px)}37.76%{transform:translate(592px,80px)}38.07%{transform:translate(592px,64px)}38.97%{transform:translate(608px,96px)}40.48%{transform:translate(528px,96px)}44.41%{transform:translate(336px,80px)}44.71%{transform:translate(336px,64px)}48.94%{transform:translate(112px,64px)}49.55%{transform:translate(112px,96px)}61.03%{transform:translate(704px,112px)}63.44%{transform:translate(832px,112px)}65.56%{transform:translate(832px,0px)}67.37%{transform:translate(736px,0px)}67.67%,71.9%{transform:translate(736px,16px)}69.18%{transform:translate(816px,16px)}69.49%{transform:translate(816px,32px)}71.3%{transform:translate(720px,32px)}71.6%{transform:translate(720px,16px)}72.51%,76.74%{transform:translate(736px,48px)}74.02%{transform:translate(816px,48px)}74.32%{transform:translate(816px,64px)}76.13%,81.57%{transform:translate(720px,64px)}76.44%{transform:translate(720px,48px)}77.34%{transform:translate(736px,80px)}78.85%{transform:translate(816px,80px)}79.15%{transform:translate(816px,96px)}80.97%{transform:translate(720px,96px)}82.78%{transform:translate(656px,64px)}83.69%{transform:translate(656px,16px)}85.5%{transform:translate(592px,48px)}85.8%{transform:translate(576px,48px)}86.71%{transform:translate(576px,0px)}90.94%{transform:translate(352px,0px)}92.15%{transform:translate(352px,64px)}97.28%{transform:translate(80px,64px)}97.89%{transform:translate(80px,32px)}98.49%{transform:translate(48px,32px)}99.4%{transform:translate(48px,-16px)}}.s.s2{transform:translate(32px,-16px);animation-name:s2}@keyframes s3{0%,99.7%{transform:translate(48px,-16px)}0.91%{transform:translate(0px,-16px)}1.21%{transform:translate(0px,0px)}3.93%{transform:translate(144px,0px)}4.23%{transform:translate(144px,16px)}4.83%{transform:translate(112px,16px)}6.04%{transform:translate(112px,80px)}10.88%{transform:translate(368px,80px)}11.48%{transform:translate(368px,48px)}14.8%{transform:translate(544px,48px)}15.11%{transform:translate(544px,64px)}15.41%{transform:translate(528px,64px)}15.71%,41.09%{transform:translate(528px,80px)}16.31%{transform:translate(560px,80px)}16.62%{transform:translate(560px,96px)}16.92%{transform:translate(576px,96px)}18.43%{transform:translate(576px,16px)}18.73%{transform:translate(560px,16px)}19.03%{transform:translate(560px,0px)}22.05%{transform:translate(720px,0px)}22.36%{transform:translate(720px,-16px)}22.66%{transform:translate(704px,-16px)}23.26%{transform:translate(704px,16px)}24.47%{transform:translate(640px,16px)}24.77%{transform:translate(640px,32px)}25.98%{transform:translate(704px,32px)}26.28%{transform:translate(704px,48px)}27.79%{transform:translate(624px,48px)}28.1%{transform:translate(624px,32px)}28.4%{transform:translate(608px,32px)}29%{transform:translate(608px,0px)}29.31%{transform:translate(592px,0px)}29.61%,85.2%{transform:translate(592px,16px)}29.91%{transform:translate(608px,16px)}30.82%,38.67%{transform:translate(608px,64px)}31.42%{transform:translate(640px,64px)}31.72%{transform:translate(640px,80px)}32.93%,35.35%{transform:translate(704px,80px)}33.23%{transform:translate(704px,64px)}33.84%{transform:translate(672px,64px)}34.44%{transform:translate(672px,96px)}35.05%,61.03%{transform:translate(704px,96px)}36.25%{transform:translate(656px,80px)}36.56%{transform:translate(656px,96px)}37.16%{transform:translate(624px,96px)}37.46%{transform:translate(624px,80px)}38.07%{transform:translate(592px,80px)}38.37%{transform:translate(592px,64px)}39.27%{transform:translate(608px,96px)}40.79%{transform:translate(528px,96px)}44.71%{transform:translate(336px,80px)}45.02%{transform:translate(336px,64px)}49.24%{transform:translate(112px,64px)}49.85%{transform:translate(112px,96px)}61.33%{transform:translate(704px,112px)}63.75%{transform:translate(832px,112px)}65.86%{transform:translate(832px,0px)}67.67%{transform:translate(736px,0px)}67.98%,72.21%{transform:translate(736px,16px)}69.49%{transform:translate(816px,16px)}69.79%{transform:translate(816px,32px)}71.6%{transform:translate(720px,32px)}71.9%{transform:translate(720px,16px)}72.81%,77.04%{transform:translate(736px,48px)}74.32%{transform:translate(816px,48px)}74.62%{transform:translate(816px,64px)}76.44%,81.87%{transform:translate(720px,64px)}76.74%{transform:translate(720px,48px)}77.64%{transform:translate(736px,80px)}79.15%{transform:translate(816px,80px)}79.46%{transform:translate(816px,96px)}81.27%{transform:translate(720px,96px)}83.08%{transform:translate(656px,64px)}83.99%{transform:translate(656px,16px)}85.8%{transform:translate(592px,48px)}86.1%{transform:translate(576px,48px)}87.01%{transform:translate(576px,0px)}91.24%{transform:translate(352px,0px)}92.45%{transform:translate(352px,64px)}97.58%{transform:translate(80px,64px)}98.19%{transform:translate(80px,32px)}98.79%{transform:translate(48px,32px)}}.s.s3{transform:translate(48px,-16px);animation-name:s3}</style><rect class="c" x="2" y="2" rx="2" ry="2"/><rect class="c" x="2" y="18" rx="2" ry="2"/><rect class="c" x="2" y="34" rx="2" ry="2"/><rect class="c" x="2" y="50" rx="2" ry="2"/><rect class="c" x="2" y="66" rx="2" ry="2"/><rect class="c" x="2" y="82" rx="2" ry="2"/><rect class="c" x="2" y="98" rx="2" ry="2"/><rect class="c" x="18" y="2" rx="2" ry="2"/><rect class="c" x="18" y="18" rx="2" ry="2"/><rect class="c" x="18" y="34" rx="2" ry="2"/><rect class="c" x="18" y="50" rx="2" ry="2"/><rect class="c" x="18" y="66" rx="2" ry="2"/><rect class="c" x="18" y="82" rx="2" ry="2"/><rect class="c" x="18" y="98" rx="2" ry="2"/><rect class="c" x="34" y="2" rx="2" ry="2"/><rect class="c" x="34" y="18" rx="2" ry="2"/><rect class="c" x="34" y="34" rx="2" ry="2"/><rect class="c" x="34" y="50" rx="2" ry="2"/><rect class="c" x="34" y="66" rx="2" ry="2"/><rect class="c" x="34" y="82" rx="2" ry="2"/><rect class="c" x="34" y="98" rx="2" ry="2"/><rect class="c" x="50" y="2" rx="2" ry="2"/><rect class="c" x="50" y="18" rx="2" ry="2"/><rect class="c" x="50" y="34" rx="2" ry="2"/><rect class="c" x="50" y="50" rx="2" ry="2"/><rect class="c" x="50" y="66" rx="2" ry="2"/><rect class="c" x="50" y="82" rx="2" ry="2"/><rect class="c" x="50" y="98" rx="2" ry="2"/><rect class="c" x="66" y="2" rx="2" ry="2"/><rect class="c" x="66" y="18" rx="2" ry="2"/><rect class="c" x="66" y="34" rx="2" ry="2"/><rect class="c" x="66" y="50" rx="2" ry="2"/><rect class="c" x="66" y="66" rx="2" ry="2"/><rect class="c" x="66" y="82" rx="2" ry="2"/><rect class="c" x="66" y="98" rx="2" ry="2"/><rect class="c" x="82" y="2" rx="2" ry="2"/><rect class="c" x="82" y="18" rx="2" ry="2"/><rect class="c" x="82" y="34" rx="2" ry="2"/><rect class="c" x="82" y="50" rx="2" ry="2"/><rect class="c" x="82" y="66" rx="2" ry="2"/><rect class="c" x="82" y="82" rx="2" ry="2"/><rect class="c" x="82" y="98" rx="2" ry="2"/><rect class="c" x="98" y="2" rx="2" ry="2"/><rect class="c" x="98" y="18" rx="2" ry="2"/><rect class="c" x="98" y="34" rx="2" ry="2"/><rect class="c" x="98" y="50" rx="2" ry="2"/><rect class="c" x="98" y="66" rx="2" ry="2"/><rect class="c" x="98" y="82" rx="2" ry="2"/><rect class="c" x="98" y="98" rx="2" ry="2"/><rect class="c" x="114" y="2" rx="2" ry="2"/><rect class="c" x="114" y="18" rx="2" ry="2"/><rect class="c" x="114" y="34" rx="2" ry="2"/><rect class="c" x="114" y="50" rx="2" ry="2"/><rect class="c" x="114" y="66" rx="2" ry="2"/><rect class="c c0" x="114" y="82" rx="2" ry="2"/><rect class="c c1" x="114" y="98" rx="2" ry="2"/><rect class="c" x="130" y="2" rx="2" ry="2"/><rect class="c" x="130" y="18" rx="2" ry="2"/><rect class="c" x="130" y="34" rx="2" ry="2"/><rect class="c" x="130" y="50" rx="2" ry="2"/><rect class="c" x="130" y="66" rx="2" ry="2"/><rect class="c" x="130" y="82" rx="2" ry="2"/><rect class="c" x="130" y="98" rx="2" ry="2"/><rect class="c c2" x="146" y="2" rx="2" ry="2"/><rect class="c c3" x="146" y="18" rx="2" ry="2"/><rect class="c" x="146" y="34" rx="2" ry="2"/><rect class="c" x="146" y="50" rx="2" ry="2"/><rect class="c" x="146" y="66" rx="2" ry="2"/><rect class="c" x="146" y="82" rx="2" ry="2"/><rect class="c" x="146" y="98" rx="2" ry="2"/><rect class="c" x="162" y="2" rx="2" ry="2"/><rect class="c" x="162" y="18" rx="2" ry="2"/><rect class="c" x="162" y="34" rx="2" ry="2"/><rect class="c" x="162" y="50" rx="2" ry="2"/><rect class="c" x="162" y="66" rx="2" ry="2"/><rect class="c" x="162" y="82" rx="2" ry="2"/><rect class="c" x="162" y="98" rx="2" ry="2"/><rect class="c" x="178" y="2" rx="2" ry="2"/><rect class="c" x="178" y="18" rx="2" ry="2"/><rect class="c" x="178" y="34" rx="2" ry="2"/><rect class="c" x="178" y="50" rx="2" ry="2"/><rect class="c" x="178" y="66" rx="2" ry="2"/><rect class="c" x="178" y="82" rx="2" ry="2"/><rect class="c" x="178" y="98" rx="2" ry="2"/><rect class="c" x="194" y="2" rx="2" ry="2"/><rect class="c" x="194" y="18" rx="2" ry="2"/><rect class="c" x="194" y="34" rx="2" ry="2"/><rect class="c" x="194" y="50" rx="2" ry="2"/><rect class="c" x="194" y="66" rx="2" ry="2"/><rect class="c" x="194" y="82" rx="2" ry="2"/><rect class="c" x="194" y="98" rx="2" ry="2"/><rect class="c" x="210" y="2" rx="2" ry="2"/><rect class="c" x="210" y="18" rx="2" ry="2"/><rect class="c" x="210" y="34" rx="2" ry="2"/><rect class="c" x="210" y="50" rx="2" ry="2"/><rect class="c" x="210" y="66" rx="2" ry="2"/><rect class="c" x="210" y="82" rx="2" ry="2"/><rect class="c" x="210" y="98" rx="2" ry="2"/><rect class="c" x="226" y="2" rx="2" ry="2"/><rect class="c" x="226" y="18" rx="2" ry="2"/><rect class="c" x="226" y="34" rx="2" ry="2"/><rect class="c" x="226" y="50" rx="2" ry="2"/><rect class="c c4" x="226" y="66" rx="2" ry="2"/><rect class="c" x="226" y="82" rx="2" ry="2"/><rect class="c" x="226" y="98" rx="2" ry="2"/><rect class="c" x="242" y="2" rx="2" ry="2"/><rect class="c" x="242" y="18" rx="2" ry="2"/><rect class="c" x="242" y="34" rx="2" ry="2"/><rect class="c" x="242" y="50" rx="2" ry="2"/><rect class="c" x="242" y="66" rx="2" ry="2"/><rect class="c" x="242" y="82" rx="2" ry="2"/><rect class="c" x="242" y="98" rx="2" ry="2"/><rect class="c" x="258" y="2" rx="2" ry="2"/><rect class="c" x="258" y="18" rx="2" ry="2"/><rect class="c" x="258" y="34" rx="2" ry="2"/><rect class="c" x="258" y="50" rx="2" ry="2"/><rect class="c" x="258" y="66" rx="2" ry="2"/><rect class="c" x="258" y="82" rx="2" ry="2"/><rect class="c" x="258" y="98" rx="2" ry="2"/><rect class="c" x="274" y="2" rx="2" ry="2"/><rect class="c" x="274" y="18" rx="2" ry="2"/><rect class="c" x="274" y="34" rx="2" ry="2"/><rect class="c" x="274" y="50" rx="2" ry="2"/><rect class="c" x="274" y="66" rx="2" ry="2"/><rect class="c" x="274" y="82" rx="2" ry="2"/><rect class="c" x="274" y="98" rx="2" ry="2"/><rect class="c" x="290" y="2" rx="2" ry="2"/><rect class="c" x="290" y="18" rx="2" ry="2"/><rect class="c" x="290" y="34" rx="2" ry="2"/><rect class="c" x="290" y="50" rx="2" ry="2"/><rect class="c" x="290" y="66" rx="2" ry="2"/><rect class="c" x="290" y="82" rx="2" ry="2"/><rect class="c" x="290" y="98" rx="2" ry="2"/><rect class="c" x="306" y="2" rx="2" ry="2"/><rect class="c" x="306" y="18" rx="2" ry="2"/><rect class="c" x="306" y="34" rx="2" ry="2"/><rect class="c" x="306" y="50" rx="2" ry="2"/><rect class="c" x="306" y="66" rx="2" ry="2"/><rect class="c" x="306" y="82" rx="2" ry="2"/><rect class="c" x="306" y="98" rx="2" ry="2"/><rect class="c" x="322" y="2" rx="2" ry="2"/><rect class="c" x="322" y="18" rx="2" ry="2"/><rect class="c" x="322" y="34" rx="2" ry="2"/><rect class="c" x="322" y="50" rx="2" ry="2"/><rect class="c" x="322" y="66" rx="2" ry="2"/><rect class="c" x="322" y="82" rx="2" ry="2"/><rect class="c" x="322" y="98" rx="2" ry="2"/><rect class="c" x="338" y="2" rx="2" ry="2"/><rect class="c" x="338" y="18" rx="2" ry="2"/><rect class="c" x="338" y="34" rx="2" ry="2"/><rect class="c" x="338" y="50" rx="2" ry="2"/><rect class="c" x="338" y="66" rx="2" ry="2"/><rect class="c" x="338" y="82" rx="2" ry="2"/><rect class="c" x="338" y="98" rx="2" ry="2"/><rect class="c" x="354" y="2" rx="2" ry="2"/><rect class="c" x="354" y="18" rx="2" ry="2"/><rect class="c" x="354" y="34" rx="2" ry="2"/><rect class="c" x="354" y="50" rx="2" ry="2"/><rect class="c c5" x="354" y="66" rx="2" ry="2"/><rect class="c" x="354" y="82" rx="2" ry="2"/><rect class="c" x="354" y="98" rx="2" ry="2"/><rect class="c" x="370" y="2" rx="2" ry="2"/><rect class="c" x="370" y="18" rx="2" ry="2"/><rect class="c" x="370" y="34" rx="2" ry="2"/><rect class="c c6" x="370" y="50" rx="2" ry="2"/><rect class="c" x="370" y="66" rx="2" ry="2"/><rect class="c" x="370" y="82" rx="2" ry="2"/><rect class="c" x="370" y="98" rx="2" ry="2"/><rect class="c" x="386" y="2" rx="2" ry="2"/><rect class="c" x="386" y="18" rx="2" ry="2"/><rect class="c" x="386" y="34" rx="2" ry="2"/><rect class="c" x="386" y="50" rx="2" ry="2"/><rect class="c" x="386" y="66" rx="2" ry="2"/><rect class="c" x="386" y="82" rx="2" ry="2"/><rect class="c" x="386" y="98" rx="2" ry="2"/><rect class="c" x="402" y="2" rx="2" ry="2"/><rect class="c" x="402" y="18" rx="2" ry="2"/><rect class="c" x="402" y="34" rx="2" ry="2"/><rect class="c" x="402" y="50" rx="2" ry="2"/><rect class="c" x="402" y="66" rx="2" ry="2"/><rect class="c" x="402" y="82" rx="2" ry="2"/><rect class="c" x="402" y="98" rx="2" ry="2"/><rect class="c" x="418" y="2" rx="2" ry="2"/><rect class="c" x="418" y="18" rx="2" ry="2"/><rect class="c" x="418" y="34" rx="2" ry="2"/><rect class="c" x="418" y="50" rx="2" ry="2"/><rect class="c" x="418" y="66" rx="2" ry="2"/><rect class="c" x="418" y="82" rx="2" ry="2"/><rect class="c" x="418" y="98" rx="2" ry="2"/><rect class="c" x="434" y="2" rx="2" ry="2"/><rect class="c" x="434" y="18" rx="2" ry="2"/><rect class="c" x="434" y="34" rx="2" ry="2"/><rect class="c" x="434" y="50" rx="2" ry="2"/><rect class="c" x="434" y="66" rx="2" ry="2"/><rect class="c" x="434" y="82" rx="2" ry="2"/><rect class="c" x="434" y="98" rx="2" ry="2"/><rect class="c" x="450" y="2" rx="2" ry="2"/><rect class="c" x="450" y="18" rx="2" ry="2"/><rect class="c" x="450" y="34" rx="2" ry="2"/><rect class="c" x="450" y="50" rx="2" ry="2"/><rect class="c" x="450" y="66" rx="2" ry="2"/><rect class="c" x="450" y="82" rx="2" ry="2"/><rect class="c" x="450" y="98" rx="2" ry="2"/><rect class="c" x="466" y="2" rx="2" ry="2"/><rect class="c" x="466" y="18" rx="2" ry="2"/><rect class="c" x="466" y="34" rx="2" ry="2"/><rect class="c" x="466" y="50" rx="2" ry="2"/><rect class="c" x="466" y="66" rx="2" ry="2"/><rect class="c" x="466" y="82" rx="2" ry="2"/><rect class="c" x="466" y="98" rx="2" ry="2"/><rect class="c" x="482" y="2" rx="2" ry="2"/><rect class="c" x="482" y="18" rx="2" ry="2"/><rect class="c" x="482" y="34" rx="2" ry="2"/><rect class="c" x="482" y="50" rx="2" ry="2"/><rect class="c" x="482" y="66" rx="2" ry="2"/><rect class="c" x="482" y="82" rx="2" ry="2"/><rect class="c" x="482" y="98" rx="2" ry="2"/><rect class="c" x="498" y="2" rx="2" ry="2"/><rect class="c" x="498" y="18" rx="2" ry="2"/><rect class="c" x="498" y="34" rx="2" ry="2"/><rect class="c" x="498" y="50" rx="2" ry="2"/><rect class="c" x="498" y="66" rx="2" ry="2"/><rect class="c" x="498" y="82" rx="2" ry="2"/><rect class="c" x="498" y="98" rx="2" ry="2"/><rect class="c" x="514" y="2" rx="2" ry="2"/><rect class="c" x="514" y="18" rx="2" ry="2"/><rect class="c" x="514" y="34" rx="2" ry="2"/><rect class="c" x="514" y="50" rx="2" ry="2"/><rect class="c" x="514" y="66" rx="2" ry="2"/><rect class="c" x="514" y="82" rx="2" ry="2"/><rect class="c" x="514" y="98" rx="2" ry="2"/><rect class="c" x="530" y="2" rx="2" ry="2"/><rect class="c" x="530" y="18" rx="2" ry="2"/><rect class="c" x="530" y="34" rx="2" ry="2"/><rect class="c" x="530" y="50" rx="2" ry="2"/><rect class="c c7" x="530" y="66" rx="2" ry="2"/><rect class="c" x="530" y="82" rx="2" ry="2"/><rect class="c c8" x="530" y="98" rx="2" ry="2"/><rect class="c c9" x="546" y="2" rx="2" ry="2"/><rect class="c" x="546" y="18" rx="2" ry="2"/><rect class="c" x="546" y="34" rx="2" ry="2"/><rect class="c ca" x="546" y="50" rx="2" ry="2"/><rect class="c" x="546" y="66" rx="2" ry="2"/><rect class="c" x="546" y="82" rx="2" ry="2"/><rect class="c" x="546" y="98" rx="2" ry="2"/><rect class="c" x="562" y="2" rx="2" ry="2"/><rect class="c cb" x="562" y="18" rx="2" ry="2"/><rect class="c" x="562" y="34" rx="2" ry="2"/><rect class="c" x="562" y="50" rx="2" ry="2"/><rect class="c" x="562" y="66" rx="2" ry="2"/><rect class="c cc" x="562" y="82" rx="2" ry="2"/><rect class="c cd" x="562" y="98" rx="2" ry="2"/><rect class="c" x="578" y="2" rx="2" ry="2"/><rect class="c" x="578" y="18" rx="2" ry="2"/><rect class="c" x="578" y="34" rx="2" ry="2"/><rect class="c" x="578" y="50" rx="2" ry="2"/><rect class="c" x="578" y="66" rx="2" ry="2"/><rect class="c" x="578" y="82" rx="2" ry="2"/><rect class="c" x="578" y="98" rx="2" ry="2"/><rect class="c" x="594" y="2" rx="2" ry="2"/><rect class="c" x="594" y="18" rx="2" ry="2"/><rect class="c ce" x="594" y="34" rx="2" ry="2"/><rect class="c cf" x="594" y="50" rx="2" ry="2"/><rect class="c cg" x="594" y="66" rx="2" ry="2"/><rect class="c ch" x="594" y="82" rx="2" ry="2"/><rect class="c ci" x="594" y="98" rx="2" ry="2"/><rect class="c cj" x="610" y="2" rx="2" ry="2"/><rect class="c ck" x="610" y="18" rx="2" ry="2"/><rect class="c cl" x="610" y="34" rx="2" ry="2"/><rect class="c cm" x="610" y="50" rx="2" ry="2"/><rect class="c cn" x="610" y="66" rx="2" ry="2"/><rect class="c co" x="610" y="82" rx="2" ry="2"/><rect class="c cp" x="610" y="98" rx="2" ry="2"/><rect class="c cq" x="626" y="2" rx="2" ry="2"/><rect class="c cr" x="626" y="18" rx="2" ry="2"/><rect class="c cs" x="626" y="34" rx="2" ry="2"/><rect class="c ct" x="626" y="50" rx="2" ry="2"/><rect class="c cu" x="626" y="66" rx="2" ry="2"/><rect class="c cv" x="626" y="82" rx="2" ry="2"/><rect class="c cw" x="626" y="98" rx="2" ry="2"/><rect class="c cx" x="642" y="2" rx="2" ry="2"/><rect class="c cy" x="642" y="18" rx="2" ry="2"/><rect class="c cz" x="642" y="34" rx="2" ry="2"/><rect class="c c10" x="642" y="50" rx="2" ry="2"/><rect class="c c11" x="642" y="66" rx="2" ry="2"/><rect class="c c12" x="642" y="82" rx="2" ry="2"/><rect class="c c13" x="642" y="98" rx="2" ry="2"/><rect class="c c14" x="658" y="2" rx="2" ry="2"/><rect class="c c15" x="658" y="18" rx="2" ry="2"/><rect class="c c16" x="658" y="34" rx="2" ry="2"/><rect class="c c17" x="658" y="50" rx="2" ry="2"/><rect class="c c18" x="658" y="66" rx="2" ry="2"/><rect class="c c19" x="658" y="82" rx="2" ry="2"/><rect class="c c1a" x="658" y="98" rx="2" ry="2"/><rect class="c c1b" x="674" y="2" rx="2" ry="2"/><rect class="c c1c" x="674" y="18" rx="2" ry="2"/><rect class="c c1d" x="674" y="34" rx="2" ry="2"/><rect class="c c1e" x="674" y="50" rx="2" ry="2"/><rect class="c c1f" x="674" y="66" rx="2" ry="2"/><rect class="c c1g" x="674" y="82" rx="2" ry="2"/><rect class="c c1h" x="674" y="98" rx="2" ry="2"/><rect class="c c1i" x="690" y="2" rx="2" ry="2"/><rect class="c c1j" x="690" y="18" rx="2" ry="2"/><rect class="c c1k" x="690" y="34" rx="2" ry="2"/><rect class="c c1l" x="690" y="50" rx="2" ry="2"/><rect class="c c1m" x="690" y="66" rx="2" ry="2"/><rect class="c c1n" x="690" y="82" rx="2" ry="2"/><rect class="c c1o" x="690" y="98" rx="2" ry="2"/><rect class="c c1p" x="706" y="2" rx="2" ry="2"/><rect class="c c1q" x="706" y="18" rx="2" ry="2"/><rect class="c c1r" x="706" y="34" rx="2" ry="2"/><rect class="c c1s" x="706" y="50" rx="2" ry="2"/><rect class="c c1t" x="706" y="66" rx="2" ry="2"/><rect class="c c1u" x="706" y="82" rx="2" ry="2"/><rect class="c c1v" x="706" y="98" rx="2" ry="2"/><rect class="c c1w" x="722" y="2" rx="2" ry="2"/><rect class="c c1x" x="722" y="18" rx="2" ry="2"/><rect class="c c1y" x="722" y="34" rx="2" ry="2"/><rect class="c c1z" x="722" y="50" rx="2" ry="2"/><rect class="c c20" x="722" y="66" rx="2" ry="2"/><rect class="c c21" x="722" y="82" rx="2" ry="2"/><rect class="c c22" x="722" y="98" rx="2" ry="2"/><rect class="c c23" x="738" y="2" rx="2" ry="2"/><rect class="c c24" x="738" y="18" rx="2" ry="2"/><rect class="c c25" x="738" y="34" rx="2" ry="2"/><rect class="c c26" x="738" y="50" rx="2" ry="2"/><rect class="c c27" x="738" y="66" rx="2" ry="2"/><rect class="c c28" x="738" y="82" rx="2" ry="2"/><rect class="c c29" x="738" y="98" rx="2" ry="2"/><rect class="c c2a" x="754" y="2" rx="2" ry="2"/><rect class="c c2b" x="754" y="18" rx="2" ry="2"/><rect class="c c2c" x="754" y="34" rx="2" ry="2"/><rect class="c c2d" x="754" y="50" rx="2" ry="2"/><rect class="c c2e" x="754" y="66" rx="2" ry="2"/><rect class="c c2f" x="754" y="82" rx="2" ry="2"/><rect class="c c2g" x="754" y="98" rx="2" ry="2"/><rect class="c c2h" x="770" y="2" rx="2" ry="2"/><rect class="c c2i" x="770" y="18" rx="2" ry="2"/><rect class="c c2j" x="770" y="34" rx="2" ry="2"/><rect class="c c2k" x="770" y="50" rx="2" ry="2"/><rect class="c c2l" x="770" y="66" rx="2" ry="2"/><rect class="c c2m" x="770" y="82" rx="2" ry="2"/><rect class="c c2n" x="770" y="98" rx="2" ry="2"/><rect class="c c2o" x="786" y="2" rx="2" ry="2"/><rect class="c c2p" x="786" y="18" rx="2" ry="2"/><rect class="c c2q" x="786" y="34" rx="2" ry="2"/><rect class="c c2r" x="786" y="50" rx="2" ry="2"/><rect class="c c2s" x="786" y="66" rx="2" ry="2"/><rect class="c c2t" x="786" y="82" rx="2" ry="2"/><rect class="c c2u" x="786" y="98" rx="2" ry="2"/><rect class="c c2v" x="802" y="2" rx="2" ry="2"/><rect class="c c2w" x="802" y="18" rx="2" ry="2"/><rect class="c c2x" x="802" y="34" rx="2" ry="2"/><rect class="c c2y" x="802" y="50" rx="2" ry="2"/><rect class="c c2z" x="802" y="66" rx="2" ry="2"/><rect class="c c30" x="802" y="82" rx="2" ry="2"/><rect class="c c31" x="802" y="98" rx="2" ry="2"/><rect class="c c32" x="818" y="2" rx="2" ry="2"/><rect class="c c33" x="818" y="18" rx="2" ry="2"/><rect class="c c34" x="818" y="34" rx="2" ry="2"/><rect class="c c35" x="818" y="50" rx="2" ry="2"/><rect class="c c36" x="818" y="66" rx="2" ry="2"/><rect class="c c37" x="818" y="82" rx="2" ry="2"/><rect class="c c38" x="818" y="98" rx="2" ry="2"/><rect class="c c39" x="834" y="2" rx="2" ry="2"/><rect class="c c3a" x="834" y="18" rx="2" ry="2"/><rect class="c c3b" x="834" y="34" rx="2" ry="2"/><rect class="u u0" height="12" width="64.2" x="0.0" y="144"/><rect class="u u1" height="12" width="382.2" x="63.6" y="144"/><rect class="u u2" height="12" width="7.7" x="445.2" y="144"/><rect class="u u3" height="12" width="396.3" x="452.3" y="144"/><rect class="s s0" x="0.8" y="0.8" width="14.4" height="14.4" rx="4.5" ry="4.5"/><rect class="s s1" x="1.8" y="1.8" width="12.3" height="12.3" rx="4.1" ry="4.1"/><rect class="s s2" x="2.6" y="2.6" width="10.8" height="10.8" rx="3.6" ry="3.6"/><rect class="s s3" x="3.0" y="3.0" width="9.9" height="9.9" rx="3.3" ry="3.3"/></svg>