<svg viewBox="-16 -32 880 192" width="880" height="192" xmlns="http://www.w3.org/2000/svg"><desc>Generated with https://github.com/Platane/snk</desc><style>:root{--cb:#1b1f230a;--cs:purple;--ce:#ebedf0;--c0:#ebedf0;--c1:#9be9a8;--c2:#40c463;--c3:#30a14e;--c4:#216e39}.c{shape-rendering:geometricPrecision;fill:var(--ce);stroke-width:1px;stroke:var(--cb);animation:none 31300ms linear infinite;width:12px;height:12px}@keyframes c0{5.42%{fill:var(--c1)}5.44%,100%{fill:var(--ce)}}.c.c0{fill:var(--c1);animation-name:c0}@keyframes c1{51.75%{fill:var(--c2)}51.77%,100%{fill:var(--ce)}}.c.c1{fill:var(--c2);animation-name:c1}@keyframes c2{3.18%{fill:var(--c1)}3.2%,100%{fill:var(--ce)}}.c.c2{fill:var(--c1);animation-name:c2}@keyframes c3{3.5%{fill:var(--c1)}3.52%,100%{fill:var(--ce)}}.c.c3{fill:var(--c1);animation-name:c3}@keyframes c4{48.87%{fill:var(--c2)}48.89%,100%{fill:var(--ce)}}.c.c4{fill:var(--c2);animation-name:c4}@keyframes c5{57.18%{fill:var(--c4)}57.2%,100%{fill:var(--ce)}}.c.c5{fill:var(--c4);animation-name:c5}@keyframes c6{11.17%{fill:var(--c1)}11.19%,100%{fill:var(--ce)}}.c.c6{fill:var(--c1);animation-name:c6}@keyframes c7{15.33%{fill:var(--c1)}15.35%,100%{fill:var(--ce)}}.c.c7{fill:var(--c1);animation-name:c7}@keyframes c8{42.16%{fill:var(--c2)}42.18%,100%{fill:var(--ce)}}.c.c8{fill:var(--c2);animation-name:c8}@keyframes c9{88.49%{fill:var(--c4)}88.51%,100%{fill:var(--ce)}}.c.c9{fill:var(--c4);animation-name:c9}@keyframes ca{14.69%{fill:var(--c1)}14.71%,100%{fill:var(--ce)}}.c.ca{fill:var(--c1);animation-name:ca}@keyframes cb{18.84%{fill:var(--c1)}18.86%,100%{fill:var(--ce)}}.c.cb{fill:var(--c1);animation-name:cb}@keyframes cc{16.28%{fill:var(--c1)}16.3%,100%{fill:var(--ce)}}.c.cc{fill:var(--c1);animation-name:cc}@keyframes cd{16.6%{fill:var(--c1)}16.62%,100%{fill:var(--ce)}}.c.cd{fill:var(--c1);animation-name:cd}@keyframes ce{62.61%{fill:var(--c4)}62.63%,100%{fill:var(--ce)}}.c.ce{fill:var(--c4);animation-name:ce}@keyframes cf{62.29%{fill:var(--c4)}62.31%,100%{fill:var(--ce)}}.c.cf{fill:var(--c4);animation-name:cf}@keyframes cg{39.61%{fill:var(--c2)}39.63%,100%{fill:var(--ce)}}.c.cg{fill:var(--c2);animation-name:cg}@keyframes ch{39.29%{fill:var(--c2)}39.31%,100%{fill:var(--ce)}}.c.ch{fill:var(--c2);animation-name:ch}@keyframes ci{40.88%{fill:var(--c2)}40.9%,100%{fill:var(--ce)}}.c.ci{fill:var(--c2);animation-name:ci}@keyframes cj{20.12%{fill:var(--c2)}20.14%,100%{fill:var(--ce)}}.c.cj{fill:var(--c2);animation-name:cj}@keyframes ck{29.38%{fill:var(--c2)}29.4%,100%{fill:var(--ce)}}.c.ck{fill:var(--c2);animation-name:ck}@keyframes cl{29.06%{fill:var(--c2)}29.08%,100%{fill:var(--ce)}}.c.cl{fill:var(--c2);animation-name:cl}@keyframes cm{31.3%{fill:var(--c2)}31.32%,100%{fill:var(--ce)}}.c.cm{fill:var(--c2);animation-name:cm}@keyframes cn{31.62%{fill:var(--c2)}31.64%,100%{fill:var(--ce)}}.c.cn{fill:var(--c2);animation-name:cn}@keyframes co{38.97%{fill:var(--c2)}38.99%,100%{fill:var(--ce)}}.c.co{fill:var(--c2);animation-name:co}@keyframes cp{40.57%{fill:var(--c2)}40.59%,100%{fill:var(--ce)}}.c.cp{fill:var(--c2);animation-name:cp}@keyframes cq{20.44%{fill:var(--c2)}20.46%,100%{fill:var(--ce)}}.c.cq{fill:var(--c2);animation-name:cq}@keyframes cr{63.57%{fill:var(--c4)}63.59%,100%{fill:var(--ce)}}.c.cr{fill:var(--c4);animation-name:cr}@keyframes cs{28.74%{fill:var(--c2)}28.76%,100%{fill:var(--ce)}}.c.cs{fill:var(--c2);animation-name:cs}@keyframes ct{28.42%{fill:var(--c2)}28.44%,100%{fill:var(--ce)}}.c.ct{fill:var(--c2);animation-name:ct}@keyframes cu{31.94%{fill:var(--c2)}31.96%,100%{fill:var(--ce)}}.c.cu{fill:var(--c2);animation-name:cu}@keyframes cv{38.65%{fill:var(--c2)}38.67%,100%{fill:var(--ce)}}.c.cv{fill:var(--c2);animation-name:cv}@keyframes cw{38.33%{fill:var(--c2)}38.35%,100%{fill:var(--ce)}}.c.cw{fill:var(--c2);animation-name:cw}@keyframes cx{20.76%{fill:var(--c2)}20.78%,100%{fill:var(--ce)}}.c.cx{fill:var(--c2);animation-name:cx}@keyframes cy{24.91%{fill:var(--c2)}24.93%,100%{fill:var(--ce)}}.c.cy{fill:var(--c2);animation-name:cy}@keyframes cz{25.23%{fill:var(--c2)}25.25%,100%{fill:var(--ce)}}.c.cz{fill:var(--c2);animation-name:cz}@keyframes c10{28.11%{fill:var(--c2)}28.13%,100%{fill:var(--ce)}}.c.c10{fill:var(--c2);animation-name:c10}@keyframes c11{32.26%{fill:var(--c2)}32.28%,100%{fill:var(--ce)}}.c.c11{fill:var(--c2);animation-name:c11}@keyframes c12{32.58%{fill:var(--c2)}32.6%,100%{fill:var(--ce)}}.c.c12{fill:var(--c2);animation-name:c12}@keyframes c13{38.01%{fill:var(--c2)}38.03%,100%{fill:var(--ce)}}.c.c13{fill:var(--c2);animation-name:c13}@keyframes c14{21.08%{fill:var(--c2)}21.1%,100%{fill:var(--ce)}}.c.c14{fill:var(--c2);animation-name:c14}@keyframes c15{24.59%{fill:var(--c2)}24.61%,100%{fill:var(--ce)}}.c.c15{fill:var(--c2);animation-name:c15}@keyframes c16{25.55%{fill:var(--c2)}25.57%,100%{fill:var(--ce)}}.c.c16{fill:var(--c2);animation-name:c16}@keyframes c17{27.79%{fill:var(--c2)}27.81%,100%{fill:var(--ce)}}.c.c17{fill:var(--c2);animation-name:c17}@keyframes c18{65.17%{fill:var(--c4)}65.19%,100%{fill:var(--ce)}}.c.c18{fill:var(--c4);animation-name:c18}@keyframes c19{32.9%{fill:var(--c2)}32.92%,100%{fill:var(--ce)}}.c.c19{fill:var(--c2);animation-name:c19}@keyframes c1a{37.69%{fill:var(--c2)}37.71%,100%{fill:var(--ce)}}.c.c1a{fill:var(--c2);animation-name:c1a}@keyframes c1b{21.4%{fill:var(--c2)}21.42%,100%{fill:var(--ce)}}.c.c1b{fill:var(--c2);animation-name:c1b}@keyframes c1c{24.27%{fill:var(--c2)}24.29%,100%{fill:var(--ce)}}.c.c1c{fill:var(--c2);animation-name:c1c}@keyframes c1d{25.87%{fill:var(--c2)}25.89%,100%{fill:var(--ce)}}.c.c1d{fill:var(--c2);animation-name:c1d}@keyframes c1e{27.47%{fill:var(--c2)}27.49%,100%{fill:var(--ce)}}.c.c1e{fill:var(--c2);animation-name:c1e}@keyframes c1f{34.81%{fill:var(--c2)}34.83%,100%{fill:var(--ce)}}.c.c1f{fill:var(--c2);animation-name:c1f}@keyframes c1g{33.22%{fill:var(--c2)}33.24%,100%{fill:var(--ce)}}.c.c1g{fill:var(--c2);animation-name:c1g}@keyframes c1h{35.45%{fill:var(--c2)}35.47%,100%{fill:var(--ce)}}.c.c1h{fill:var(--c2);animation-name:c1h}@keyframes c1i{21.72%{fill:var(--c2)}21.74%,100%{fill:var(--ce)}}.c.c1i{fill:var(--c2);animation-name:c1i}@keyframes c1j{23.95%{fill:var(--c2)}23.97%,100%{fill:var(--ce)}}.c.c1j{fill:var(--c2);animation-name:c1j}@keyframes c1k{26.19%{fill:var(--c2)}26.21%,100%{fill:var(--ce)}}.c.c1k{fill:var(--c2);animation-name:c1k}@keyframes c1l{27.15%{fill:var(--c2)}27.17%,100%{fill:var(--ce)}}.c.c1l{fill:var(--c2);animation-name:c1l}@keyframes c1m{34.49%{fill:var(--c2)}34.51%,100%{fill:var(--ce)}}.c.c1m{fill:var(--c2);animation-name:c1m}@keyframes c1n{33.54%{fill:var(--c2)}33.56%,100%{fill:var(--ce)}}.c.c1n{fill:var(--c2);animation-name:c1n}@keyframes c1o{35.77%{fill:var(--c2)}35.79%,100%{fill:var(--ce)}}.c.c1o{fill:var(--c2);animation-name:c1o}@keyframes c1p{22.03%{fill:var(--c2)}22.05%,100%{fill:var(--ce)}}.c.c1p{fill:var(--c2);animation-name:c1p}@keyframes c1q{23.63%{fill:var(--c2)}23.65%,100%{fill:var(--ce)}}.c.c1q{fill:var(--c2);animation-name:c1q}@keyframes c1r{26.51%{fill:var(--c2)}26.53%,100%{fill:var(--ce)}}.c.c1r{fill:var(--c2);animation-name:c1r}@keyframes c1s{26.83%{fill:var(--c2)}26.85%,100%{fill:var(--ce)}}.c.c1s{fill:var(--c2);animation-name:c1s}@keyframes c1t{34.18%{fill:var(--c2)}34.2%,100%{fill:var(--ce)}}.c.c1t{fill:var(--c2);animation-name:c1t}@keyframes c1u{33.86%{fill:var(--c2)}33.88%,100%{fill:var(--ce)}}.c.c1u{fill:var(--c2);animation-name:c1u}@keyframes c1v{36.09%{fill:var(--c2)}36.11%,100%{fill:var(--ce)}}.c.c1v{fill:var(--c2);animation-name:c1v}@keyframes c1w{22.35%{fill:var(--c2)}22.37%,100%{fill:var(--ce)}}.c.c1w{fill:var(--c2);animation-name:c1w}@keyframes c1x{75.07%{fill:var(--c4)}75.09%,100%{fill:var(--ce)}}.c.c1x{fill:var(--c4);animation-name:c1x}@keyframes c1y{74.75%{fill:var(--c4)}74.77%,100%{fill:var(--ce)}}.c.c1y{fill:var(--c4);animation-name:c1y}@keyframes c1z{84.02%{fill:var(--c4)}84.04%,100%{fill:var(--ce)}}.c.c1z{fill:var(--c4);animation-name:c1z}@keyframes c20{66.44%{fill:var(--c4)}66.46%,100%{fill:var(--ce)}}.c.c20{fill:var(--c4);animation-name:c20}@keyframes c21{80.82%{fill:var(--c4)}80.84%,100%{fill:var(--ce)}}.c.c21{fill:var(--c4);animation-name:c21}@keyframes c22{81.14%{fill:var(--c4)}81.16%,100%{fill:var(--ce)}}.c.c22{fill:var(--c4);animation-name:c22}@keyframes c23{71.24%{fill:var(--c4)}71.26%,100%{fill:var(--ce)}}.c.c23{fill:var(--c4);animation-name:c23}@keyframes c24{71.56%{fill:var(--c4)}71.58%,100%{fill:var(--ce)}}.c.c24{fill:var(--c4);animation-name:c24}@keyframes c25{74.43%{fill:var(--c4)}74.45%,100%{fill:var(--ce)}}.c.c25{fill:var(--c4);animation-name:c25}@keyframes c26{76.03%{fill:var(--c4)}76.05%,100%{fill:var(--ce)}}.c.c26{fill:var(--c4);animation-name:c26}@keyframes c27{66.76%{fill:var(--c4)}66.78%,100%{fill:var(--ce)}}.c.c27{fill:var(--c4);animation-name:c27}@keyframes c28{80.5%{fill:var(--c4)}80.52%,100%{fill:var(--ce)}}.c.c28{fill:var(--c4);animation-name:c28}@keyframes c29{81.46%{fill:var(--c4)}81.48%,100%{fill:var(--ce)}}.c.c29{fill:var(--c4);animation-name:c29}@keyframes c2a{70.92%{fill:var(--c4)}70.94%,100%{fill:var(--ce)}}.c.c2a{fill:var(--c4);animation-name:c2a}@keyframes c2b{71.87%{fill:var(--c4)}71.89%,100%{fill:var(--ce)}}.c.c2b{fill:var(--c4);animation-name:c2b}@keyframes c2c{74.11%{fill:var(--c4)}74.13%,100%{fill:var(--ce)}}.c.c2c{fill:var(--c4);animation-name:c2c}@keyframes c2d{76.35%{fill:var(--c4)}76.37%,100%{fill:var(--ce)}}.c.c2d{fill:var(--c4);animation-name:c2d}@keyframes c2e{67.08%{fill:var(--c4)}67.1%,100%{fill:var(--ce)}}.c.c2e{fill:var(--c4);animation-name:c2e}@keyframes c2f{80.18%{fill:var(--c4)}80.2%,100%{fill:var(--ce)}}.c.c2f{fill:var(--c4);animation-name:c2f}@keyframes c2g{81.78%{fill:var(--c4)}81.8%,100%{fill:var(--ce)}}.c.c2g{fill:var(--c4);animation-name:c2g}@keyframes c2h{70.6%{fill:var(--c4)}70.62%,100%{fill:var(--ce)}}.c.c2h{fill:var(--c4);animation-name:c2h}@keyframes c2i{72.19%{fill:var(--c4)}72.21%,100%{fill:var(--ce)}}.c.c2i{fill:var(--c4);animation-name:c2i}@keyframes c2j{73.79%{fill:var(--c4)}73.81%,100%{fill:var(--ce)}}.c.c2j{fill:var(--c4);animation-name:c2j}@keyframes c2k{76.67%{fill:var(--c4)}76.69%,100%{fill:var(--ce)}}.c.c2k{fill:var(--c4);animation-name:c2k}@keyframes c2l{67.4%{fill:var(--c4)}67.42%,100%{fill:var(--ce)}}.c.c2l{fill:var(--c4);animation-name:c2l}@keyframes c2m{79.86%{fill:var(--c4)}79.88%,100%{fill:var(--ce)}}.c.c2m{fill:var(--c4);animation-name:c2m}@keyframes c2n{82.1%{fill:var(--c4)}82.12%,100%{fill:var(--ce)}}.c.c2n{fill:var(--c4);animation-name:c2n}@keyframes c2o{70.28%{fill:var(--c4)}70.3%,100%{fill:var(--ce)}}.c.c2o{fill:var(--c4);animation-name:c2o}@keyframes c2p{72.51%{fill:var(--c4)}72.53%,100%{fill:var(--ce)}}.c.c2p{fill:var(--c4);animation-name:c2p}@keyframes c2q{73.47%{fill:var(--c4)}73.49%,100%{fill:var(--ce)}}.c.c2q{fill:var(--c4);animation-name:c2q}@keyframes c2r{76.99%{fill:var(--c4)}77.01%,100%{fill:var(--ce)}}.c.c2r{fill:var(--c4);animation-name:c2r}@keyframes c2s{67.72%{fill:var(--c4)}67.74%,100%{fill:var(--ce)}}.c.c2s{fill:var(--c4);animation-name:c2s}@keyframes c2t{79.54%{fill:var(--c4)}79.56%,100%{fill:var(--ce)}}.c.c2t{fill:var(--c4);animation-name:c2t}@keyframes c2u{79.22%{fill:var(--c4)}79.24%,100%{fill:var(--ce)}}.c.c2u{fill:var(--c4);animation-name:c2u}@keyframes c2v{69.96%{fill:var(--c4)}69.98%,100%{fill:var(--ce)}}.c.c2v{fill:var(--c4);animation-name:c2v}@keyframes c2w{72.83%{fill:var(--c4)}72.85%,100%{fill:var(--ce)}}.c.c2w{fill:var(--c4);animation-name:c2w}@keyframes c2x{73.15%{fill:var(--c4)}73.17%,100%{fill:var(--ce)}}.c.c2x{fill:var(--c4);animation-name:c2x}@keyframes c2y{77.31%{fill:var(--c4)}77.33%,100%{fill:var(--ce)}}.c.c2y{fill:var(--c4);animation-name:c2y}@keyframes c2z{68.04%{fill:var(--c4)}68.06%,100%{fill:var(--ce)}}.c.c2z{fill:var(--c4);animation-name:c2z}@keyframes c30{77.95%{fill:var(--c4)}77.97%,100%{fill:var(--ce)}}.c.c30{fill:var(--c4);animation-name:c30}@keyframes c31{78.9%{fill:var(--c4)}78.92%,100%{fill:var(--ce)}}.c.c31{fill:var(--c4);animation-name:c31}@keyframes c32{69.64%{fill:var(--c4)}69.66%,100%{fill:var(--ce)}}.c.c32{fill:var(--c4);animation-name:c32}@keyframes c33{69.32%{fill:var(--c4)}69.34%,100%{fill:var(--ce)}}.c.c33{fill:var(--c4);animation-name:c33}@keyframes c34{69%{fill:var(--c4)}69.02%,100%{fill:var(--ce)}}.c.c34{fill:var(--c4);animation-name:c34}@keyframes c35{68.68%{fill:var(--c4)}68.7%,100%{fill:var(--ce)}}.c.c35{fill:var(--c4);animation-name:c35}@keyframes c36{68.36%{fill:var(--c4)}68.38%,100%{fill:var(--ce)}}.c.c36{fill:var(--c4);animation-name:c36}@keyframes c37{78.26%{fill:var(--c4)}78.28%,100%{fill:var(--ce)}}.c.c37{fill:var(--c4);animation-name:c37}@keyframes c38{78.58%{fill:var(--c4)}78.6%,100%{fill:var(--ce)}}.c.c38{fill:var(--c4);animation-name:c38}.u{transform-origin:0 0;transform:scale(0,1);animation:none linear 31300ms infinite}@keyframes u0{3.18%{transform:scale(0.000,1)}3.2%,3.5%{transform:scale(0.111,1)}3.52%,5.42%{transform:scale(0.222,1)}5.44%,11.17%{transform:scale(0.333,1)}11.19%,14.69%{transform:scale(0.444,1)}14.71%,15.33%{transform:scale(0.556,1)}15.35%,16.28%{transform:scale(0.667,1)}16.3%,16.6%{transform:scale(0.778,1)}16.62%,18.84%{transform:scale(0.889,1)}18.86%,100%{transform:scale(1.000,1)}}.u.u0{fill:var(--c1);animation-name:u0;transform-origin:0.0px 0}@keyframes u1{20.12%{transform:scale(0.000,1)}20.14%,20.44%{transform:scale(0.019,1)}20.46%,20.76%{transform:scale(0.037,1)}20.78%,21.08%{transform:scale(0.056,1)}21.1%,21.4%{transform:scale(0.074,1)}21.42%,21.72%{transform:scale(0.093,1)}21.74%,22.03%{transform:scale(0.111,1)}22.05%,22.35%{transform:scale(0.130,1)}22.37%,23.63%{transform:scale(0.148,1)}23.65%,23.95%{transform:scale(0.167,1)}23.97%,24.27%{transform:scale(0.185,1)}24.29%,24.59%{transform:scale(0.204,1)}24.61%,24.91%{transform:scale(0.222,1)}24.93%,25.23%{transform:scale(0.241,1)}25.25%,25.55%{transform:scale(0.259,1)}25.57%,25.87%{transform:scale(0.278,1)}25.89%,26.19%{transform:scale(0.296,1)}26.21%,26.51%{transform:scale(0.315,1)}26.53%,26.83%{transform:scale(0.333,1)}26.85%,27.15%{transform:scale(0.352,1)}27.17%,27.47%{transform:scale(0.370,1)}27.49%,27.79%{transform:scale(0.389,1)}27.81%,28.11%{transform:scale(0.407,1)}28.13%,28.42%{transform:scale(0.426,1)}28.44%,28.74%{transform:scale(0.444,1)}28.76%,29.06%{transform:scale(0.463,1)}29.08%,29.38%{transform:scale(0.481,1)}29.4%,31.3%{transform:scale(0.500,1)}31.32%,31.62%{transform:scale(0.519,1)}31.64%,31.94%{transform:scale(0.537,1)}31.96%,32.26%{transform:scale(0.556,1)}32.28%,32.58%{transform:scale(0.574,1)}32.6%,32.9%{transform:scale(0.593,1)}32.92%,33.22%{transform:scale(0.611,1)}33.24%,33.54%{transform:scale(0.630,1)}33.56%,33.86%{transform:scale(0.648,1)}33.88%,34.18%{transform:scale(0.667,1)}34.2%,34.49%{transform:scale(0.685,1)}34.51%,34.81%{transform:scale(0.704,1)}34.83%,35.45%{transform:scale(0.722,1)}35.47%,35.77%{transform:scale(0.741,1)}35.79%,36.09%{transform:scale(0.759,1)}36.11%,37.69%{transform:scale(0.778,1)}37.71%,38.01%{transform:scale(0.796,1)}38.03%,38.33%{transform:scale(0.815,1)}38.35%,38.65%{transform:scale(0.833,1)}38.67%,38.97%{transform:scale(0.852,1)}38.99%,39.29%{transform:scale(0.870,1)}39.31%,39.61%{transform:scale(0.889,1)}39.63%,40.57%{transform:scale(0.907,1)}40.59%,40.88%{transform:scale(0.926,1)}40.9%,42.16%{transform:scale(0.944,1)}42.18%,48.87%{transform:scale(0.963,1)}48.89%,51.75%{transform:scale(0.981,1)}51.77%,100%{transform:scale(1.000,1)}}.u.u1{fill:var(--c2);animation-name:u1;transform-origin:65.2px 0}@keyframes u2{57.18%{transform:scale(0.000,1)}57.2%,62.29%{transform:scale(0.019,1)}62.31%,62.61%{transform:scale(0.037,1)}62.63%,63.57%{transform:scale(0.056,1)}63.59%,65.17%{transform:scale(0.074,1)}65.19%,66.44%{transform:scale(0.093,1)}66.46%,66.76%{transform:scale(0.111,1)}66.78%,67.08%{transform:scale(0.130,1)}67.1%,67.4%{transform:scale(0.148,1)}67.42%,67.72%{transform:scale(0.167,1)}67.74%,68.04%{transform:scale(0.185,1)}68.06%,68.36%{transform:scale(0.204,1)}68.38%,68.68%{transform:scale(0.222,1)}68.7%,69%{transform:scale(0.241,1)}69.02%,69.32%{transform:scale(0.259,1)}69.34%,69.64%{transform:scale(0.278,1)}69.66%,69.96%{transform:scale(0.296,1)}69.98%,70.28%{transform:scale(0.315,1)}70.3%,70.6%{transform:scale(0.333,1)}70.62%,70.92%{transform:scale(0.352,1)}70.94%,71.24%{transform:scale(0.370,1)}71.26%,71.56%{transform:scale(0.389,1)}71.58%,71.87%{transform:scale(0.407,1)}71.89%,72.19%{transform:scale(0.426,1)}72.21%,72.51%{transform:scale(0.444,1)}72.53%,72.83%{transform:scale(0.463,1)}72.85%,73.15%{transform:scale(0.481,1)}73.17%,73.47%{transform:scale(0.500,1)}73.49%,73.79%{transform:scale(0.519,1)}73.81%,74.11%{transform:scale(0.537,1)}74.13%,74.43%{transform:scale(0.556,1)}74.45%,74.75%{transform:scale(0.574,1)}74.77%,75.07%{transform:scale(0.593,1)}75.09%,76.03%{transform:scale(0.611,1)}76.05%,76.35%{transform:scale(0.630,1)}76.37%,76.67%{transform:scale(0.648,1)}76.69%,76.99%{transform:scale(0.667,1)}77.01%,77.31%{transform:scale(0.685,1)}77.33%,77.95%{transform:scale(0.704,1)}77.97%,78.26%{transform:scale(0.722,1)}78.28%,78.58%{transform:scale(0.741,1)}78.6%,78.9%{transform:scale(0.759,1)}78.92%,79.22%{transform:scale(0.778,1)}79.24%,79.54%{transform:scale(0.796,1)}79.56%,79.86%{transform:scale(0.815,1)}79.88%,80.18%{transform:scale(0.833,1)}80.2%,80.5%{transform:scale(0.852,1)}80.52%,80.82%{transform:scale(0.870,1)}80.84%,81.14%{transform:scale(0.889,1)}81.16%,81.46%{transform:scale(0.907,1)}81.48%,81.78%{transform:scale(0.926,1)}81.8%,82.1%{transform:scale(0.944,1)}82.12%,84.02%{transform:scale(0.963,1)}84.04%,88.49%{transform:scale(0.981,1)}88.51%,100%{transform:scale(1.000,1)}}.u.u2{fill:var(--c4);animation-name:u2;transform-origin:456.6px 0}.s{shape-rendering:geometricPrecision;fill:var(--cs);animation:none linear 31300ms infinite}@keyframes s0{0%,99.68%{transform:translate(0px,-16px)}0.32%{transform:translate(0px,0px)}3.19%{transform:translate(144px,0px)}3.51%{transform:translate(144px,16px)}4.15%{transform:translate(112px,16px)}5.43%{transform:translate(112px,80px)}10.54%{transform:translate(368px,80px)}11.18%{transform:translate(368px,48px)}14.7%{transform:translate(544px,48px)}15.02%{transform:translate(544px,64px)}15.34%{transform:translate(528px,64px)}15.65%,42.49%{transform:translate(528px,80px)}16.29%{transform:translate(560px,80px)}16.61%{transform:translate(560px,96px)}16.93%{transform:translate(576px,96px)}18.53%{transform:translate(576px,16px)}18.85%{transform:translate(560px,16px)}19.17%{transform:translate(560px,0px)}22.36%,84.98%{transform:translate(720px,0px)}22.68%{transform:translate(720px,-16px)}23%{transform:translate(704px,-16px)}23.64%{transform:translate(704px,16px)}24.92%{transform:translate(640px,16px)}25.24%{transform:translate(640px,32px)}26.52%{transform:translate(704px,32px)}26.84%{transform:translate(704px,48px)}28.43%{transform:translate(624px,48px)}28.75%,63.26%{transform:translate(624px,32px)}29.07%{transform:translate(608px,32px)}29.71%{transform:translate(608px,0px)}30.03%{transform:translate(592px,0px)}30.35%{transform:translate(592px,16px)}30.67%{transform:translate(608px,16px)}31.63%,39.94%{transform:translate(608px,64px)}32.27%{transform:translate(640px,64px)}32.59%{transform:translate(640px,80px)}33.87%,36.42%{transform:translate(704px,80px)}34.19%{transform:translate(704px,64px)}34.82%{transform:translate(672px,64px)}35.46%{transform:translate(672px,96px)}36.1%{transform:translate(704px,96px)}37.38%{transform:translate(656px,80px)}37.7%{transform:translate(656px,96px)}38.34%{transform:translate(624px,96px)}38.66%{transform:translate(624px,80px)}39.3%{transform:translate(592px,80px)}39.62%,61.98%{transform:translate(592px,64px)}40.58%{transform:translate(608px,96px)}42.17%{transform:translate(528px,96px)}46.33%{transform:translate(336px,80px)}46.65%{transform:translate(336px,64px)}51.12%{transform:translate(112px,64px)}51.76%{transform:translate(112px,96px)}56.55%{transform:translate(352px,96px)}57.19%{transform:translate(352px,64px)}62.62%{transform:translate(592px,32px)}63.58%{transform:translate(624px,16px)}64.22%{transform:translate(656px,16px)}65.18%{transform:translate(656px,64px)}68.37%{transform:translate(816px,64px)}69.65%{transform:translate(816px,0px)}71.25%{transform:translate(736px,0px)}71.57%,75.4%{transform:translate(736px,16px)}72.84%{transform:translate(800px,16px)}73.16%{transform:translate(800px,32px)}74.76%{transform:translate(720px,32px)}75.08%{transform:translate(720px,16px)}76.04%{transform:translate(736px,48px)}77.32%{transform:translate(800px,48px)}77.96%{transform:translate(800px,80px)}78.27%{transform:translate(816px,80px)}78.59%{transform:translate(816px,96px)}79.23%{transform:translate(784px,96px)}79.55%{transform:translate(784px,80px)}80.83%{transform:translate(720px,80px)}81.15%{transform:translate(720px,96px)}82.11%{transform:translate(768px,96px)}83.07%{transform:translate(768px,48px)}84.03%{transform:translate(720px,48px)}98.08%{transform:translate(64px,0px)}98.4%{transform:translate(64px,-16px)}}.s.s0{transform:translate(0px,-16px);animation-name:s0}@keyframes s1{0%,99.68%{transform:translate(16px,-16px)}0.32%{transform:translate(0px,-16px)}0.64%{transform:translate(0px,0px)}3.51%{transform:translate(144px,0px)}3.83%{transform:translate(144px,16px)}4.47%{transform:translate(112px,16px)}5.75%{transform:translate(112px,80px)}10.86%{transform:translate(368px,80px)}11.5%{transform:translate(368px,48px)}15.02%{transform:translate(544px,48px)}15.34%{transform:translate(544px,64px)}15.65%{transform:translate(528px,64px)}15.97%,42.81%{transform:translate(528px,80px)}16.61%{transform:translate(560px,80px)}16.93%{transform:translate(560px,96px)}17.25%{transform:translate(576px,96px)}18.85%{transform:translate(576px,16px)}19.17%{transform:translate(560px,16px)}19.49%{transform:translate(560px,0px)}22.68%,85.3%{transform:translate(720px,0px)}23%{transform:translate(720px,-16px)}23.32%{transform:translate(704px,-16px)}23.96%{transform:translate(704px,16px)}25.24%{transform:translate(640px,16px)}25.56%{transform:translate(640px,32px)}26.84%{transform:translate(704px,32px)}27.16%{transform:translate(704px,48px)}28.75%{transform:translate(624px,48px)}29.07%,63.58%{transform:translate(624px,32px)}29.39%{transform:translate(608px,32px)}30.03%{transform:translate(608px,0px)}30.35%{transform:translate(592px,0px)}30.67%{transform:translate(592px,16px)}30.99%{transform:translate(608px,16px)}31.95%,40.26%{transform:translate(608px,64px)}32.59%{transform:translate(640px,64px)}32.91%{transform:translate(640px,80px)}34.19%,36.74%{transform:translate(704px,80px)}34.5%{transform:translate(704px,64px)}35.14%{transform:translate(672px,64px)}35.78%{transform:translate(672px,96px)}36.42%{transform:translate(704px,96px)}37.7%{transform:translate(656px,80px)}38.02%{transform:translate(656px,96px)}38.66%{transform:translate(624px,96px)}38.98%{transform:translate(624px,80px)}39.62%{transform:translate(592px,80px)}39.94%,62.3%{transform:translate(592px,64px)}40.89%{transform:translate(608px,96px)}42.49%{transform:translate(528px,96px)}46.65%{transform:translate(336px,80px)}46.96%{transform:translate(336px,64px)}51.44%{transform:translate(112px,64px)}52.08%{transform:translate(112px,96px)}56.87%{transform:translate(352px,96px)}57.51%{transform:translate(352px,64px)}62.94%{transform:translate(592px,32px)}63.9%{transform:translate(624px,16px)}64.54%{transform:translate(656px,16px)}65.5%{transform:translate(656px,64px)}68.69%{transform:translate(816px,64px)}69.97%{transform:translate(816px,0px)}71.57%{transform:translate(736px,0px)}71.88%,75.72%{transform:translate(736px,16px)}73.16%{transform:translate(800px,16px)}73.48%{transform:translate(800px,32px)}75.08%{transform:translate(720px,32px)}75.4%{transform:translate(720px,16px)}76.36%{transform:translate(736px,48px)}77.64%{transform:translate(800px,48px)}78.27%{transform:translate(800px,80px)}78.59%{transform:translate(816px,80px)}78.91%{transform:translate(816px,96px)}79.55%{transform:translate(784px,96px)}79.87%{transform:translate(784px,80px)}81.15%{transform:translate(720px,80px)}81.47%{transform:translate(720px,96px)}82.43%{transform:translate(768px,96px)}83.39%{transform:translate(768px,48px)}84.35%{transform:translate(720px,48px)}98.4%{transform:translate(64px,0px)}98.72%{transform:translate(64px,-16px)}}.s.s1{transform:translate(16px,-16px);animation-name:s1}@keyframes s2{0%,99.68%{transform:translate(32px,-16px)}0.64%{transform:translate(0px,-16px)}0.96%{transform:translate(0px,0px)}3.83%{transform:translate(144px,0px)}4.15%{transform:translate(144px,16px)}4.79%{transform:translate(112px,16px)}6.07%{transform:translate(112px,80px)}11.18%{transform:translate(368px,80px)}11.82%{transform:translate(368px,48px)}15.34%{transform:translate(544px,48px)}15.65%{transform:translate(544px,64px)}15.97%{transform:translate(528px,64px)}16.29%,43.13%{transform:translate(528px,80px)}16.93%{transform:translate(560px,80px)}17.25%{transform:translate(560px,96px)}17.57%{transform:translate(576px,96px)}19.17%{transform:translate(576px,16px)}19.49%{transform:translate(560px,16px)}19.81%{transform:translate(560px,0px)}23%,85.62%{transform:translate(720px,0px)}23.32%{transform:translate(720px,-16px)}23.64%{transform:translate(704px,-16px)}24.28%{transform:translate(704px,16px)}25.56%{transform:translate(640px,16px)}25.88%{transform:translate(640px,32px)}27.16%{transform:translate(704px,32px)}27.48%{transform:translate(704px,48px)}29.07%{transform:translate(624px,48px)}29.39%,63.9%{transform:translate(624px,32px)}29.71%{transform:translate(608px,32px)}30.35%{transform:translate(608px,0px)}30.67%{transform:translate(592px,0px)}30.99%{transform:translate(592px,16px)}31.31%{transform:translate(608px,16px)}32.27%,40.58%{transform:translate(608px,64px)}32.91%{transform:translate(640px,64px)}33.23%{transform:translate(640px,80px)}34.5%,37.06%{transform:translate(704px,80px)}34.82%{transform:translate(704px,64px)}35.46%{transform:translate(672px,64px)}36.1%{transform:translate(672px,96px)}36.74%{transform:translate(704px,96px)}38.02%{transform:translate(656px,80px)}38.34%{transform:translate(656px,96px)}38.98%{transform:translate(624px,96px)}39.3%{transform:translate(624px,80px)}39.94%{transform:translate(592px,80px)}40.26%,62.62%{transform:translate(592px,64px)}41.21%{transform:translate(608px,96px)}42.81%{transform:translate(528px,96px)}46.96%{transform:translate(336px,80px)}47.28%{transform:translate(336px,64px)}51.76%{transform:translate(112px,64px)}52.4%{transform:translate(112px,96px)}57.19%{transform:translate(352px,96px)}57.83%{transform:translate(352px,64px)}63.26%{transform:translate(592px,32px)}64.22%{transform:translate(624px,16px)}64.86%{transform:translate(656px,16px)}65.81%{transform:translate(656px,64px)}69.01%{transform:translate(816px,64px)}70.29%{transform:translate(816px,0px)}71.88%{transform:translate(736px,0px)}72.2%,76.04%{transform:translate(736px,16px)}73.48%{transform:translate(800px,16px)}73.8%{transform:translate(800px,32px)}75.4%{transform:translate(720px,32px)}75.72%{transform:translate(720px,16px)}76.68%{transform:translate(736px,48px)}77.96%{transform:translate(800px,48px)}78.59%{transform:translate(800px,80px)}78.91%{transform:translate(816px,80px)}79.23%{transform:translate(816px,96px)}79.87%{transform:translate(784px,96px)}80.19%{transform:translate(784px,80px)}81.47%{transform:translate(720px,80px)}81.79%{transform:translate(720px,96px)}82.75%{transform:translate(768px,96px)}83.71%{transform:translate(768px,48px)}84.66%{transform:translate(720px,48px)}98.72%{transform:translate(64px,0px)}99.04%{transform:translate(64px,-16px)}}.s.s2{transform:translate(32px,-16px);animation-name:s2}@keyframes s3{0%,99.68%{transform:translate(48px,-16px)}0.96%{transform:translate(0px,-16px)}1.28%{transform:translate(0px,0px)}4.15%{transform:translate(144px,0px)}4.47%{transform:translate(144px,16px)}5.11%{transform:translate(112px,16px)}6.39%{transform:translate(112px,80px)}11.5%{transform:translate(368px,80px)}12.14%{transform:translate(368px,48px)}15.65%{transform:translate(544px,48px)}15.97%{transform:translate(544px,64px)}16.29%{transform:translate(528px,64px)}16.61%,43.45%{transform:translate(528px,80px)}17.25%{transform:translate(560px,80px)}17.57%{transform:translate(560px,96px)}17.89%{transform:translate(576px,96px)}19.49%{transform:translate(576px,16px)}19.81%{transform:translate(560px,16px)}20.13%{transform:translate(560px,0px)}23.32%,85.94%{transform:translate(720px,0px)}23.64%{transform:translate(720px,-16px)}23.96%{transform:translate(704px,-16px)}24.6%{transform:translate(704px,16px)}25.88%{transform:translate(640px,16px)}26.2%{transform:translate(640px,32px)}27.48%{transform:translate(704px,32px)}27.8%{transform:translate(704px,48px)}29.39%{transform:translate(624px,48px)}29.71%,64.22%{transform:translate(624px,32px)}30.03%{transform:translate(608px,32px)}30.67%{transform:translate(608px,0px)}30.99%{transform:translate(592px,0px)}31.31%{transform:translate(592px,16px)}31.63%{transform:translate(608px,16px)}32.59%,40.89%{transform:translate(608px,64px)}33.23%{transform:translate(640px,64px)}33.55%{transform:translate(640px,80px)}34.82%,37.38%{transform:translate(704px,80px)}35.14%{transform:translate(704px,64px)}35.78%{transform:translate(672px,64px)}36.42%{transform:translate(672px,96px)}37.06%{transform:translate(704px,96px)}38.34%{transform:translate(656px,80px)}38.66%{transform:translate(656px,96px)}39.3%{transform:translate(624px,96px)}39.62%{transform:translate(624px,80px)}40.26%{transform:translate(592px,80px)}40.58%,62.94%{transform:translate(592px,64px)}41.53%{transform:translate(608px,96px)}43.13%{transform:translate(528px,96px)}47.28%{transform:translate(336px,80px)}47.6%{transform:translate(336px,64px)}52.08%{transform:translate(112px,64px)}52.72%{transform:translate(112px,96px)}57.51%{transform:translate(352px,96px)}58.15%{transform:translate(352px,64px)}63.58%{transform:translate(592px,32px)}64.54%{transform:translate(624px,16px)}65.18%{transform:translate(656px,16px)}66.13%{transform:translate(656px,64px)}69.33%{transform:translate(816px,64px)}70.61%{transform:translate(816px,0px)}72.2%{transform:translate(736px,0px)}72.52%,76.36%{transform:translate(736px,16px)}73.8%{transform:translate(800px,16px)}74.12%{transform:translate(800px,32px)}75.72%{transform:translate(720px,32px)}76.04%{transform:translate(720px,16px)}77%{transform:translate(736px,48px)}78.27%{transform:translate(800px,48px)}78.91%{transform:translate(800px,80px)}79.23%{transform:translate(816px,80px)}79.55%{transform:translate(816px,96px)}80.19%{transform:translate(784px,96px)}80.51%{transform:translate(784px,80px)}81.79%{transform:translate(720px,80px)}82.11%{transform:translate(720px,96px)}83.07%{transform:translate(768px,96px)}84.03%{transform:translate(768px,48px)}84.98%{transform:translate(720px,48px)}99.04%{transform:translate(64px,0px)}99.36%{transform:translate(64px,-16px)}}.s.s3{transform:translate(48px,-16px);animation-name:s3}</style><rect class="c" x="2" y="2" rx="2" ry="2"/><rect class="c" x="2" y="18" rx="2" ry="2"/><rect class="c" x="2" y="34" rx="2" ry="2"/><rect class="c" x="2" y="50" rx="2" ry="2"/><rect class="c" x="2" y="66" rx="2" ry="2"/><rect class="c" x="2" y="82" rx="2" ry="2"/><rect class="c" x="2" y="98" rx="2" ry="2"/><rect class="c" x="18" y="2" rx="2" ry="2"/><rect class="c" x="18" y="18" rx="2" ry="2"/><rect class="c" x="18" y="34" rx="2" ry="2"/><rect class="c" x="18" y="50" rx="2" ry="2"/><rect class="c" x="18" y="66" rx="2" ry="2"/><rect class="c" x="18" y="82" rx="2" ry="2"/><rect class="c" x="18" y="98" rx="2" ry="2"/><rect class="c" x="34" y="2" rx="2" ry="2"/><rect class="c" x="34" y="18" rx="2" ry="2"/><rect class="c" x="34" y="34" rx="2" ry="2"/><rect class="c" x="34" y="50" rx="2" ry="2"/><rect class="c" x="34" y="66" rx="2" ry="2"/><rect class="c" x="34" y="82" rx="2" ry="2"/><rect class="c" x="34" y="98" rx="2" ry="2"/><rect class="c" x="50" y="2" rx="2" ry="2"/><rect class="c" x="50" y="18" rx="2" ry="2"/><rect class="c" x="50" y="34" rx="2" ry="2"/><rect class="c" x="50" y="50" rx="2" ry="2"/><rect class="c" x="50" y="66" rx="2" ry="2"/><rect class="c" x="50" y="82" rx="2" ry="2"/><rect class="c" x="50" y="98" rx="2" ry="2"/><rect class="c" x="66" y="2" rx="2" ry="2"/><rect class="c" x="66" y="18" rx="2" ry="2"/><rect class="c" x="66" y="34" rx="2" ry="2"/><rect class="c" x="66" y="50" rx="2" ry="2"/><rect class="c" x="66" y="66" rx="2" ry="2"/><rect class="c" x="66" y="82" rx="2" ry="2"/><rect class="c" x="66" y="98" rx="2" ry="2"/><rect class="c" x="82" y="2" rx="2" ry="2"/><rect class="c" x="82" y="18" rx="2" ry="2"/><rect class="c" x="82" y="34" rx="2" ry="2"/><rect class="c" x="82" y="50" rx="2" ry="2"/><rect class="c" x="82" y="66" rx="2" ry="2"/><rect class="c" x="82" y="82" rx="2" ry="2"/><rect class="c" x="82" y="98" rx="2" ry="2"/><rect class="c" x="98" y="2" rx="2" ry="2"/><rect class="c" x="98" y="18" rx="2" ry="2"/><rect class="c" x="98" y="34" rx="2" ry="2"/><rect class="c" x="98" y="50" rx="2" ry="2"/><rect class="c" x="98" y="66" rx="2" ry="2"/><rect class="c" x="98" y="82" rx="2" ry="2"/><rect class="c" x="98" y="98" rx="2" ry="2"/><rect class="c" x="114" y="2" rx="2" ry="2"/><rect class="c" x="114" y="18" rx="2" ry="2"/><rect class="c" x="114" y="34" rx="2" ry="2"/><rect class="c" x="114" y="50" rx="2" ry="2"/><rect class="c" x="114" y="66" rx="2" ry="2"/><rect class="c c0" x="114" y="82" rx="2" ry="2"/><rect class="c c1" x="114" y="98" rx="2" ry="2"/><rect class="c" x="130" y="2" rx="2" ry="2"/><rect class="c" x="130" y="18" rx="2" ry="2"/><rect class="c" x="130" y="34" rx="2" ry="2"/><rect class="c" x="130" y="50" rx="2" ry="2"/><rect class="c" x="130" y="66" rx="2" ry="2"/><rect class="c" x="130" y="82" rx="2" ry="2"/><rect class="c" x="130" y="98" rx="2" ry="2"/><rect class="c c2" x="146" y="2" rx="2" ry="2"/><rect class="c c3" x="146" y="18" rx="2" ry="2"/><rect class="c" x="146" y="34" rx="2" ry="2"/><rect class="c" x="146" y="50" rx="2" ry="2"/><rect class="c" x="146" y="66" rx="2" ry="2"/><rect class="c" x="146" y="82" rx="2" ry="2"/><rect class="c" x="146" y="98" rx="2" ry="2"/><rect class="c" x="162" y="2" rx="2" ry="2"/><rect class="c" x="162" y="18" rx="2" ry="2"/><rect class="c" x="162" y="34" rx="2" ry="2"/><rect class="c" x="162" y="50" rx="2" ry="2"/><rect class="c" x="162" y="66" rx="2" ry="2"/><rect class="c" x="162" y="82" rx="2" ry="2"/><rect class="c" x="162" y="98" rx="2" ry="2"/><rect class="c" x="178" y="2" rx="2" ry="2"/><rect class="c" x="178" y="18" rx="2" ry="2"/><rect class="c" x="178" y="34" rx="2" ry="2"/><rect class="c" x="178" y="50" rx="2" ry="2"/><rect class="c" x="178" y="66" rx="2" ry="2"/><rect class="c" x="178" y="82" rx="2" ry="2"/><rect class="c" x="178" y="98" rx="2" ry="2"/><rect class="c" x="194" y="2" rx="2" ry="2"/><rect class="c" x="194" y="18" rx="2" ry="2"/><rect class="c" x="194" y="34" rx="2" ry="2"/><rect class="c" x="194" y="50" rx="2" ry="2"/><rect class="c" x="194" y="66" rx="2" ry="2"/><rect class="c" x="194" y="82" rx="2" ry="2"/><rect class="c" x="194" y="98" rx="2" ry="2"/><rect class="c" x="210" y="2" rx="2" ry="2"/><rect class="c" x="210" y="18" rx="2" ry="2"/><rect class="c" x="210" y="34" rx="2" ry="2"/><rect class="c" x="210" y="50" rx="2" ry="2"/><rect class="c" x="210" y="66" rx="2" ry="2"/><rect class="c" x="210" y="82" rx="2" ry="2"/><rect class="c" x="210" y="98" rx="2" ry="2"/><rect class="c" x="226" y="2" rx="2" ry="2"/><rect class="c" x="226" y="18" rx="2" ry="2"/><rect class="c" x="226" y="34" rx="2" ry="2"/><rect class="c" x="226" y="50" rx="2" ry="2"/><rect class="c c4" x="226" y="66" rx="2" ry="2"/><rect class="c" x="226" y="82" rx="2" ry="2"/><rect class="c" x="226" y="98" rx="2" ry="2"/><rect class="c" x="242" y="2" rx="2" ry="2"/><rect class="c" x="242" y="18" rx="2" ry="2"/><rect class="c" x="242" y="34" rx="2" ry="2"/><rect class="c" x="242" y="50" rx="2" ry="2"/><rect class="c" x="242" y="66" rx="2" ry="2"/><rect class="c" x="242" y="82" rx="2" ry="2"/><rect class="c" x="242" y="98" rx="2" ry="2"/><rect class="c" x="258" y="2" rx="2" ry="2"/><rect class="c" x="258" y="18" rx="2" ry="2"/><rect class="c" x="258" y="34" rx="2" ry="2"/><rect class="c" x="258" y="50" rx="2" ry="2"/><rect class="c" x="258" y="66" rx="2" ry="2"/><rect class="c" x="258" y="82" rx="2" ry="2"/><rect class="c" x="258" y="98" rx="2" ry="2"/><rect class="c" x="274" y="2" rx="2" ry="2"/><rect class="c" x="274" y="18" rx="2" ry="2"/><rect class="c" x="274" y="34" rx="2" ry="2"/><rect class="c" x="274" y="50" rx="2" ry="2"/><rect class="c" x="274" y="66" rx="2" ry="2"/><rect class="c" x="274" y="82" rx="2" ry="2"/><rect class="c" x="274" y="98" rx="2" ry="2"/><rect class="c" x="290" y="2" rx="2" ry="2"/><rect class="c" x="290" y="18" rx="2" ry="2"/><rect class="c" x="290" y="34" rx="2" ry="2"/><rect class="c" x="290" y="50" rx="2" ry="2"/><rect class="c" x="290" y="66" rx="2" ry="2"/><rect class="c" x="290" y="82" rx="2" ry="2"/><rect class="c" x="290" y="98" rx="2" ry="2"/><rect class="c" x="306" y="2" rx="2" ry="2"/><rect class="c" x="306" y="18" rx="2" ry="2"/><rect class="c" x="306" y="34" rx="2" ry="2"/><rect class="c" x="306" y="50" rx="2" ry="2"/><rect class="c" x="306" y="66" rx="2" ry="2"/><rect class="c" x="306" y="82" rx="2" ry="2"/><rect class="c" x="306" y="98" rx="2" ry="2"/><rect class="c" x="322" y="2" rx="2" ry="2"/><rect class="c" x="322" y="18" rx="2" ry="2"/><rect class="c" x="322" y="34" rx="2" ry="2"/><rect class="c" x="322" y="50" rx="2" ry="2"/><rect class="c" x="322" y="66" rx="2" ry="2"/><rect class="c" x="322" y="82" rx="2" ry="2"/><rect class="c" x="322" y="98" rx="2" ry="2"/><rect class="c" x="338" y="2" rx="2" ry="2"/><rect class="c" x="338" y="18" rx="2" ry="2"/><rect class="c" x="338" y="34" rx="2" ry="2"/><rect class="c" x="338" y="50" rx="2" ry="2"/><rect class="c" x="338" y="66" rx="2" ry="2"/><rect class="c" x="338" y="82" rx="2" ry="2"/><rect class="c" x="338" y="98" rx="2" ry="2"/><rect class="c" x="354" y="2" rx="2" ry="2"/><rect class="c" x="354" y="18" rx="2" ry="2"/><rect class="c" x="354" y="34" rx="2" ry="2"/><rect class="c" x="354" y="50" rx="2" ry="2"/><rect class="c c5" x="354" y="66" rx="2" ry="2"/><rect class="c" x="354" y="82" rx="2" ry="2"/><rect class="c" x="354" y="98" rx="2" ry="2"/><rect class="c" x="370" y="2" rx="2" ry="2"/><rect class="c" x="370" y="18" rx="2" ry="2"/><rect class="c" x="370" y="34" rx="2" ry="2"/><rect class="c c6" x="370" y="50" rx="2" ry="2"/><rect class="c" x="370" y="66" rx="2" ry="2"/><rect class="c" x="370" y="82" rx="2" ry="2"/><rect class="c" x="370" y="98" rx="2" ry="2"/><rect class="c" x="386" y="2" rx="2" ry="2"/><rect class="c" x="386" y="18" rx="2" ry="2"/><rect class="c" x="386" y="34" rx="2" ry="2"/><rect class="c" x="386" y="50" rx="2" ry="2"/><rect class="c" x="386" y="66" rx="2" ry="2"/><rect class="c" x="386" y="82" rx="2" ry="2"/><rect class="c" x="386" y="98" rx="2" ry="2"/><rect class="c" x="402" y="2" rx="2" ry="2"/><rect class="c" x="402" y="18" rx="2" ry="2"/><rect class="c" x="402" y="34" rx="2" ry="2"/><rect class="c" x="402" y="50" rx="2" ry="2"/><rect class="c" x="402" y="66" rx="2" ry="2"/><rect class="c" x="402" y="82" rx="2" ry="2"/><rect class="c" x="402" y="98" rx="2" ry="2"/><rect class="c" x="418" y="2" rx="2" ry="2"/><rect class="c" x="418" y="18" rx="2" ry="2"/><rect class="c" x="418" y="34" rx="2" ry="2"/><rect class="c" x="418" y="50" rx="2" ry="2"/><rect class="c" x="418" y="66" rx="2" ry="2"/><rect class="c" x="418" y="82" rx="2" ry="2"/><rect class="c" x="418" y="98" rx="2" ry="2"/><rect class="c" x="434" y="2" rx="2" ry="2"/><rect class="c" x="434" y="18" rx="2" ry="2"/><rect class="c" x="434" y="34" rx="2" ry="2"/><rect class="c" x="434" y="50" rx="2" ry="2"/><rect class="c" x="434" y="66" rx="2" ry="2"/><rect class="c" x="434" y="82" rx="2" ry="2"/><rect class="c" x="434" y="98" rx="2" ry="2"/><rect class="c" x="450" y="2" rx="2" ry="2"/><rect class="c" x="450" y="18" rx="2" ry="2"/><rect class="c" x="450" y="34" rx="2" ry="2"/><rect class="c" x="450" y="50" rx="2" ry="2"/><rect class="c" x="450" y="66" rx="2" ry="2"/><rect class="c" x="450" y="82" rx="2" ry="2"/><rect class="c" x="450" y="98" rx="2" ry="2"/><rect class="c" x="466" y="2" rx="2" ry="2"/><rect class="c" x="466" y="18" rx="2" ry="2"/><rect class="c" x="466" y="34" rx="2" ry="2"/><rect class="c" x="466" y="50" rx="2" ry="2"/><rect class="c" x="466" y="66" rx="2" ry="2"/><rect class="c" x="466" y="82" rx="2" ry="2"/><rect class="c" x="466" y="98" rx="2" ry="2"/><rect class="c" x="482" y="2" rx="2" ry="2"/><rect class="c" x="482" y="18" rx="2" ry="2"/><rect class="c" x="482" y="34" rx="2" ry="2"/><rect class="c" x="482" y="50" rx="2" ry="2"/><rect class="c" x="482" y="66" rx="2" ry="2"/><rect class="c" x="482" y="82" rx="2" ry="2"/><rect class="c" x="482" y="98" rx="2" ry="2"/><rect class="c" x="498" y="2" rx="2" ry="2"/><rect class="c" x="498" y="18" rx="2" ry="2"/><rect class="c" x="498" y="34" rx="2" ry="2"/><rect class="c" x="498" y="50" rx="2" ry="2"/><rect class="c" x="498" y="66" rx="2" ry="2"/><rect class="c" x="498" y="82" rx="2" ry="2"/><rect class="c" x="498" y="98" rx="2" ry="2"/><rect class="c" x="514" y="2" rx="2" ry="2"/><rect class="c" x="514" y="18" rx="2" ry="2"/><rect class="c" x="514" y="34" rx="2" ry="2"/><rect class="c" x="514" y="50" rx="2" ry="2"/><rect class="c" x="514" y="66" rx="2" ry="2"/><rect class="c" x="514" y="82" rx="2" ry="2"/><rect class="c" x="514" y="98" rx="2" ry="2"/><rect class="c" x="530" y="2" rx="2" ry="2"/><rect class="c" x="530" y="18" rx="2" ry="2"/><rect class="c" x="530" y="34" rx="2" ry="2"/><rect class="c" x="530" y="50" rx="2" ry="2"/><rect class="c c7" x="530" y="66" rx="2" ry="2"/><rect class="c" x="530" y="82" rx="2" ry="2"/><rect class="c c8" x="530" y="98" rx="2" ry="2"/><rect class="c c9" x="546" y="2" rx="2" ry="2"/><rect class="c" x="546" y="18" rx="2" ry="2"/><rect class="c" x="546" y="34" rx="2" ry="2"/><rect class="c ca" x="546" y="50" rx="2" ry="2"/><rect class="c" x="546" y="66" rx="2" ry="2"/><rect class="c" x="546" y="82" rx="2" ry="2"/><rect class="c" x="546" y="98" rx="2" ry="2"/><rect class="c" x="562" y="2" rx="2" ry="2"/><rect class="c cb" x="562" y="18" rx="2" ry="2"/><rect class="c" x="562" y="34" rx="2" ry="2"/><rect class="c" x="562" y="50" rx="2" ry="2"/><rect class="c" x="562" y="66" rx="2" ry="2"/><rect class="c cc" x="562" y="82" rx="2" ry="2"/><rect class="c cd" x="562" y="98" rx="2" ry="2"/><rect class="c" x="578" y="2" rx="2" ry="2"/><rect class="c" x="578" y="18" rx="2" ry="2"/><rect class="c" x="578" y="34" rx="2" ry="2"/><rect class="c" x="578" y="50" rx="2" ry="2"/><rect class="c" x="578" y="66" rx="2" ry="2"/><rect class="c" x="578" y="82" rx="2" ry="2"/><rect class="c" x="578" y="98" rx="2" ry="2"/><rect class="c" x="594" y="2" rx="2" ry="2"/><rect class="c" x="594" y="18" rx="2" ry="2"/><rect class="c ce" x="594" y="34" rx="2" ry="2"/><rect class="c cf" x="594" y="50" rx="2" ry="2"/><rect class="c cg" x="594" y="66" rx="2" ry="2"/><rect class="c ch" x="594" y="82" rx="2" ry="2"/><rect class="c ci" x="594" y="98" rx="2" ry="2"/><rect class="c cj" x="610" y="2" rx="2" ry="2"/><rect class="c ck" x="610" y="18" rx="2" ry="2"/><rect class="c cl" x="610" y="34" rx="2" ry="2"/><rect class="c cm" x="610" y="50" rx="2" ry="2"/><rect class="c cn" x="610" y="66" rx="2" ry="2"/><rect class="c co" x="610" y="82" rx="2" ry="2"/><rect class="c cp" x="610" y="98" rx="2" ry="2"/><rect class="c cq" x="626" y="2" rx="2" ry="2"/><rect class="c cr" x="626" y="18" rx="2" ry="2"/><rect class="c cs" x="626" y="34" rx="2" ry="2"/><rect class="c ct" x="626" y="50" rx="2" ry="2"/><rect class="c cu" x="626" y="66" rx="2" ry="2"/><rect class="c cv" x="626" y="82" rx="2" ry="2"/><rect class="c cw" x="626" y="98" rx="2" ry="2"/><rect class="c cx" x="642" y="2" rx="2" ry="2"/><rect class="c cy" x="642" y="18" rx="2" ry="2"/><rect class="c cz" x="642" y="34" rx="2" ry="2"/><rect class="c c10" x="642" y="50" rx="2" ry="2"/><rect class="c c11" x="642" y="66" rx="2" ry="2"/><rect class="c c12" x="642" y="82" rx="2" ry="2"/><rect class="c c13" x="642" y="98" rx="2" ry="2"/><rect class="c c14" x="658" y="2" rx="2" ry="2"/><rect class="c c15" x="658" y="18" rx="2" ry="2"/><rect class="c c16" x="658" y="34" rx="2" ry="2"/><rect class="c c17" x="658" y="50" rx="2" ry="2"/><rect class="c c18" x="658" y="66" rx="2" ry="2"/><rect class="c c19" x="658" y="82" rx="2" ry="2"/><rect class="c c1a" x="658" y="98" rx="2" ry="2"/><rect class="c c1b" x="674" y="2" rx="2" ry="2"/><rect class="c c1c" x="674" y="18" rx="2" ry="2"/><rect class="c c1d" x="674" y="34" rx="2" ry="2"/><rect class="c c1e" x="674" y="50" rx="2" ry="2"/><rect class="c c1f" x="674" y="66" rx="2" ry="2"/><rect class="c c1g" x="674" y="82" rx="2" ry="2"/><rect class="c c1h" x="674" y="98" rx="2" ry="2"/><rect class="c c1i" x="690" y="2" rx="2" ry="2"/><rect class="c c1j" x="690" y="18" rx="2" ry="2"/><rect class="c c1k" x="690" y="34" rx="2" ry="2"/><rect class="c c1l" x="690" y="50" rx="2" ry="2"/><rect class="c c1m" x="690" y="66" rx="2" ry="2"/><rect class="c c1n" x="690" y="82" rx="2" ry="2"/><rect class="c c1o" x="690" y="98" rx="2" ry="2"/><rect class="c c1p" x="706" y="2" rx="2" ry="2"/><rect class="c c1q" x="706" y="18" rx="2" ry="2"/><rect class="c c1r" x="706" y="34" rx="2" ry="2"/><rect class="c c1s" x="706" y="50" rx="2" ry="2"/><rect class="c c1t" x="706" y="66" rx="2" ry="2"/><rect class="c c1u" x="706" y="82" rx="2" ry="2"/><rect class="c c1v" x="706" y="98" rx="2" ry="2"/><rect class="c c1w" x="722" y="2" rx="2" ry="2"/><rect class="c c1x" x="722" y="18" rx="2" ry="2"/><rect class="c c1y" x="722" y="34" rx="2" ry="2"/><rect class="c c1z" x="722" y="50" rx="2" ry="2"/><rect class="c c20" x="722" y="66" rx="2" ry="2"/><rect class="c c21" x="722" y="82" rx="2" ry="2"/><rect class="c c22" x="722" y="98" rx="2" ry="2"/><rect class="c c23" x="738" y="2" rx="2" ry="2"/><rect class="c c24" x="738" y="18" rx="2" ry="2"/><rect class="c c25" x="738" y="34" rx="2" ry="2"/><rect class="c c26" x="738" y="50" rx="2" ry="2"/><rect class="c c27" x="738" y="66" rx="2" ry="2"/><rect class="c c28" x="738" y="82" rx="2" ry="2"/><rect class="c c29" x="738" y="98" rx="2" ry="2"/><rect class="c c2a" x="754" y="2" rx="2" ry="2"/><rect class="c c2b" x="754" y="18" rx="2" ry="2"/><rect class="c c2c" x="754" y="34" rx="2" ry="2"/><rect class="c c2d" x="754" y="50" rx="2" ry="2"/><rect class="c c2e" x="754" y="66" rx="2" ry="2"/><rect class="c c2f" x="754" y="82" rx="2" ry="2"/><rect class="c c2g" x="754" y="98" rx="2" ry="2"/><rect class="c c2h" x="770" y="2" rx="2" ry="2"/><rect class="c c2i" x="770" y="18" rx="2" ry="2"/><rect class="c c2j" x="770" y="34" rx="2" ry="2"/><rect class="c c2k" x="770" y="50" rx="2" ry="2"/><rect class="c c2l" x="770" y="66" rx="2" ry="2"/><rect class="c c2m" x="770" y="82" rx="2" ry="2"/><rect class="c c2n" x="770" y="98" rx="2" ry="2"/><rect class="c c2o" x="786" y="2" rx="2" ry="2"/><rect class="c c2p" x="786" y="18" rx="2" ry="2"/><rect class="c c2q" x="786" y="34" rx="2" ry="2"/><rect class="c c2r" x="786" y="50" rx="2" ry="2"/><rect class="c c2s" x="786" y="66" rx="2" ry="2"/><rect class="c c2t" x="786" y="82" rx="2" ry="2"/><rect class="c c2u" x="786" y="98" rx="2" ry="2"/><rect class="c c2v" x="802" y="2" rx="2" ry="2"/><rect class="c c2w" x="802" y="18" rx="2" ry="2"/><rect class="c c2x" x="802" y="34" rx="2" ry="2"/><rect class="c c2y" x="802" y="50" rx="2" ry="2"/><rect class="c c2z" x="802" y="66" rx="2" ry="2"/><rect class="c c30" x="802" y="82" rx="2" ry="2"/><rect class="c c31" x="802" y="98" rx="2" ry="2"/><rect class="c c32" x="818" y="2" rx="2" ry="2"/><rect class="c c33" x="818" y="18" rx="2" ry="2"/><rect class="c c34" x="818" y="34" rx="2" ry="2"/><rect class="c c35" x="818" y="50" rx="2" ry="2"/><rect class="c c36" x="818" y="66" rx="2" ry="2"/><rect class="c c37" x="818" y="82" rx="2" ry="2"/><rect class="c c38" x="818" y="98" rx="2" ry="2"/><rect class="c" x="834" y="2" rx="2" ry="2"/><rect class="u u0" height="12" width="65.8" x="0.0" y="144"/><rect class="u u1" height="12" width="392.0" x="65.2" y="144"/><rect class="u u2" height="12" width="392.0" x="456.6" y="144"/><rect class="s s0" x="0.8" y="0.8" width="14.4" height="14.4" rx="4.5" ry="4.5"/><rect class="s s1" x="1.8" y="1.8" width="12.3" height="12.3" rx="4.1" ry="4.1"/><rect class="s s2" x="2.6" y="2.6" width="10.8" height="10.8" rx="3.6" ry="3.6"/><rect class="s s3" x="3.0" y="3.0" width="9.9" height="9.9" rx="3.3" ry="3.3"/></svg>