<svg viewBox="-16 -32 880 192" width="880" height="192" xmlns="http://www.w3.org/2000/svg"><desc>Generated with https://github.com/Platane/snk</desc><style>:root{--cb:#1b1f230a;--cs:purple;--ce:#ebedf0;--c0:#ebedf0;--c1:#9be9a8;--c2:#40c463;--c3:#30a14e;--c4:#216e39}.c{shape-rendering:geometricPrecision;fill:var(--ce);stroke-width:1px;stroke:var(--cb);animation:none 28900ms linear infinite;width:12px;height:12px}@keyframes c0{8.29%{fill:var(--c1)}8.31%,100%{fill:var(--ce)}}.c.c0{fill:var(--c1);animation-name:c0}@keyframes c1{60.54%{fill:var(--c2)}60.56%,100%{fill:var(--ce)}}.c.c1{fill:var(--c2);animation-name:c1}@keyframes c2{5.87%{fill:var(--c1)}5.89%,100%{fill:var(--ce)}}.c.c2{fill:var(--c1);animation-name:c2}@keyframes c3{6.22%{fill:var(--c1)}6.24%,100%{fill:var(--ce)}}.c.c3{fill:var(--c1);animation-name:c3}@keyframes c4{57.43%{fill:var(--c2)}57.45%,100%{fill:var(--ce)}}.c.c4{fill:var(--c2);animation-name:c4}@keyframes c5{66.43%{fill:var(--c4)}66.45%,100%{fill:var(--ce)}}.c.c5{fill:var(--c4);animation-name:c5}@keyframes c6{14.52%{fill:var(--c1)}14.54%,100%{fill:var(--ce)}}.c.c6{fill:var(--c1);animation-name:c6}@keyframes c7{19.02%{fill:var(--c1)}19.04%,100%{fill:var(--ce)}}.c.c7{fill:var(--c1);animation-name:c7}@keyframes c8{50.16%{fill:var(--c2)}50.18%,100%{fill:var(--ce)}}.c.c8{fill:var(--c2);animation-name:c8}@keyframes c9{85.11%{fill:var(--c4)}85.13%,100%{fill:var(--ce)}}.c.c9{fill:var(--c4);animation-name:c9}@keyframes ca{18.33%{fill:var(--c1)}18.35%,100%{fill:var(--ce)}}.c.ca{fill:var(--c1);animation-name:ca}@keyframes cb{22.83%{fill:var(--c1)}22.85%,100%{fill:var(--ce)}}.c.cb{fill:var(--c1);animation-name:cb}@keyframes cc{20.06%{fill:var(--c1)}20.08%,100%{fill:var(--ce)}}.c.cc{fill:var(--c1);animation-name:cc}@keyframes cd{20.41%{fill:var(--c1)}20.43%,100%{fill:var(--ce)}}.c.cd{fill:var(--c1);animation-name:cd}@keyframes ce{72.31%{fill:var(--c4)}72.33%,100%{fill:var(--ce)}}.c.ce{fill:var(--c4);animation-name:ce}@keyframes cf{71.96%{fill:var(--c4)}71.98%,100%{fill:var(--ce)}}.c.cf{fill:var(--c4);animation-name:cf}@keyframes cg{45.32%{fill:var(--c2)}45.34%,100%{fill:var(--ce)}}.c.cg{fill:var(--c2);animation-name:cg}@keyframes ch{45.66%{fill:var(--c2)}45.68%,100%{fill:var(--ce)}}.c.ch{fill:var(--c2);animation-name:ch}@keyframes ci{48.78%{fill:var(--c2)}48.8%,100%{fill:var(--ce)}}.c.ci{fill:var(--c2);animation-name:ci}@keyframes cj{34.59%{fill:var(--c2)}34.61%,100%{fill:var(--ce)}}.c.cj{fill:var(--c2);animation-name:cj}@keyframes ck{34.94%{fill:var(--c2)}34.96%,100%{fill:var(--ce)}}.c.ck{fill:var(--c2);animation-name:ck}@keyframes cl{35.28%{fill:var(--c2)}35.3%,100%{fill:var(--ce)}}.c.cl{fill:var(--c2);animation-name:cl}@keyframes cm{44.63%{fill:var(--c2)}44.65%,100%{fill:var(--ce)}}.c.cm{fill:var(--c2);animation-name:cm}@keyframes cn{44.97%{fill:var(--c2)}44.99%,100%{fill:var(--ce)}}.c.cn{fill:var(--c2);animation-name:cn}@keyframes co{46.01%{fill:var(--c2)}46.03%,100%{fill:var(--ce)}}.c.co{fill:var(--c2);animation-name:co}@keyframes cp{48.43%{fill:var(--c2)}48.45%,100%{fill:var(--ce)}}.c.cp{fill:var(--c2);animation-name:cp}@keyframes cq{34.25%{fill:var(--c2)}34.27%,100%{fill:var(--ce)}}.c.cq{fill:var(--c2);animation-name:cq}@keyframes cr{73.35%{fill:var(--c4)}73.37%,100%{fill:var(--ce)}}.c.cr{fill:var(--c4);animation-name:cr}@keyframes cs{35.63%{fill:var(--c2)}35.65%,100%{fill:var(--ce)}}.c.cs{fill:var(--c2);animation-name:cs}@keyframes ct{44.28%{fill:var(--c2)}44.3%,100%{fill:var(--ce)}}.c.ct{fill:var(--c2);animation-name:ct}@keyframes cu{43.93%{fill:var(--c2)}43.95%,100%{fill:var(--ce)}}.c.cu{fill:var(--c2);animation-name:cu}@keyframes cv{46.36%{fill:var(--c2)}46.38%,100%{fill:var(--ce)}}.c.cv{fill:var(--c2);animation-name:cv}@keyframes cw{46.7%{fill:var(--c2)}46.72%,100%{fill:var(--ce)}}.c.cw{fill:var(--c2);animation-name:cw}@keyframes cx{33.9%{fill:var(--c2)}33.92%,100%{fill:var(--ce)}}.c.cx{fill:var(--c2);animation-name:cx}@keyframes cy{38.4%{fill:var(--c2)}38.42%,100%{fill:var(--ce)}}.c.cy{fill:var(--c2);animation-name:cy}@keyframes cz{35.98%{fill:var(--c2)}36%,100%{fill:var(--ce)}}.c.cz{fill:var(--c2);animation-name:cz}@keyframes c10{39.09%{fill:var(--c2)}39.11%,100%{fill:var(--ce)}}.c.c10{fill:var(--c2);animation-name:c10}@keyframes c11{43.59%{fill:var(--c2)}43.61%,100%{fill:var(--ce)}}.c.c11{fill:var(--c2);animation-name:c11}@keyframes c12{43.24%{fill:var(--c2)}43.26%,100%{fill:var(--ce)}}.c.c12{fill:var(--c2);animation-name:c12}@keyframes c13{47.05%{fill:var(--c2)}47.07%,100%{fill:var(--ce)}}.c.c13{fill:var(--c2);animation-name:c13}@keyframes c14{33.55%{fill:var(--c2)}33.57%,100%{fill:var(--ce)}}.c.c14{fill:var(--c2);animation-name:c14}@keyframes c15{38.05%{fill:var(--c2)}38.07%,100%{fill:var(--ce)}}.c.c15{fill:var(--c2);animation-name:c15}@keyframes c16{36.32%{fill:var(--c2)}36.34%,100%{fill:var(--ce)}}.c.c16{fill:var(--c2);animation-name:c16}@keyframes c17{39.44%{fill:var(--c2)}39.46%,100%{fill:var(--ce)}}.c.c17{fill:var(--c2);animation-name:c17}@keyframes c18{75.08%{fill:var(--c4)}75.1%,100%{fill:var(--ce)}}.c.c18{fill:var(--c4);animation-name:c18}@keyframes c19{42.9%{fill:var(--c2)}42.92%,100%{fill:var(--ce)}}.c.c19{fill:var(--c2);animation-name:c19}@keyframes c1a{42.55%{fill:var(--c2)}42.57%,100%{fill:var(--ce)}}.c.c1a{fill:var(--c2);animation-name:c1a}@keyframes c1b{33.21%{fill:var(--c2)}33.23%,100%{fill:var(--ce)}}.c.c1b{fill:var(--c2);animation-name:c1b}@keyframes c1c{37.71%{fill:var(--c2)}37.73%,100%{fill:var(--ce)}}.c.c1c{fill:var(--c2);animation-name:c1c}@keyframes c1d{36.67%{fill:var(--c2)}36.69%,100%{fill:var(--ce)}}.c.c1d{fill:var(--c2);animation-name:c1d}@keyframes c1e{39.78%{fill:var(--c2)}39.8%,100%{fill:var(--ce)}}.c.c1e{fill:var(--c2);animation-name:c1e}@keyframes c1f{40.82%{fill:var(--c2)}40.84%,100%{fill:var(--ce)}}.c.c1f{fill:var(--c2);animation-name:c1f}@keyframes c1g{41.17%{fill:var(--c2)}41.19%,100%{fill:var(--ce)}}.c.c1g{fill:var(--c2);animation-name:c1g}@keyframes c1h{42.2%{fill:var(--c2)}42.22%,100%{fill:var(--ce)}}.c.c1h{fill:var(--c2);animation-name:c1h}@keyframes c1i{32.86%{fill:var(--c2)}32.88%,100%{fill:var(--ce)}}.c.c1i{fill:var(--c2);animation-name:c1i}@keyframes c1j{37.36%{fill:var(--c2)}37.38%,100%{fill:var(--ce)}}.c.c1j{fill:var(--c2);animation-name:c1j}@keyframes c1k{37.01%{fill:var(--c2)}37.03%,100%{fill:var(--ce)}}.c.c1k{fill:var(--c2);animation-name:c1k}@keyframes c1l{40.13%{fill:var(--c2)}40.15%,100%{fill:var(--ce)}}.c.c1l{fill:var(--c2);animation-name:c1l}@keyframes c1m{40.47%{fill:var(--c2)}40.49%,100%{fill:var(--ce)}}.c.c1m{fill:var(--c2);animation-name:c1m}@keyframes c1n{41.51%{fill:var(--c2)}41.53%,100%{fill:var(--ce)}}.c.c1n{fill:var(--c2);animation-name:c1n}@keyframes c1o{41.86%{fill:var(--c2)}41.88%,100%{fill:var(--ce)}}.c.c1o{fill:var(--c2);animation-name:c1o}@keyframes c1p{31.13%{fill:var(--c2)}31.15%,100%{fill:var(--ce)}}.c.c1p{fill:var(--c2);animation-name:c1p}@keyframes c1q{30.79%{fill:var(--c2)}30.81%,100%{fill:var(--ce)}}.c.c1q{fill:var(--c2);animation-name:c1q}@keyframes c1r{30.44%{fill:var(--c2)}30.46%,100%{fill:var(--ce)}}.c.c1r{fill:var(--c2);animation-name:c1r}@keyframes c1s{30.09%{fill:var(--c2)}30.11%,100%{fill:var(--ce)}}.c.c1s{fill:var(--c2);animation-name:c1s}@keyframes c1t{29.75%{fill:var(--c2)}29.77%,100%{fill:var(--ce)}}.c.c1t{fill:var(--c2);animation-name:c1t}@keyframes c1u{29.4%{fill:var(--c2)}29.42%,100%{fill:var(--ce)}}.c.c1u{fill:var(--c2);animation-name:c1u}@keyframes c1v{29.06%{fill:var(--c2)}29.08%,100%{fill:var(--ce)}}.c.c1v{fill:var(--c2);animation-name:c1v}@keyframes c1w{31.48%{fill:var(--c2)}31.5%,100%{fill:var(--ce)}}.c.c1w{fill:var(--c2);animation-name:c1w}@keyframes c1x{77.5%{fill:var(--c4)}77.52%,100%{fill:var(--ce)}}.c.c1x{fill:var(--c4);animation-name:c1x}@keyframes c1y{77.15%{fill:var(--c4)}77.17%,100%{fill:var(--ce)}}.c.c1y{fill:var(--c4);animation-name:c1y}@keyframes c1z{76.81%{fill:var(--c4)}76.83%,100%{fill:var(--ce)}}.c.c1z{fill:var(--c4);animation-name:c1z}@keyframes c20{76.46%{fill:var(--c4)}76.48%,100%{fill:var(--ce)}}.c.c20{fill:var(--c4);animation-name:c20}@keyframes c21{79.57%{fill:var(--c4)}79.59%,100%{fill:var(--ce)}}.c.c21{fill:var(--c4);animation-name:c21}@keyframes c22{28.71%{fill:var(--c1)}28.73%,100%{fill:var(--ce)}}.c.c22{fill:var(--c1);animation-name:c22}.u{transform-origin:0 0;transform:scale(0,1);animation:none linear 28900ms infinite}@keyframes u0{5.87%{transform:scale(0.000,1)}5.89%,6.22%{transform:scale(0.100,1)}6.24%,8.29%{transform:scale(0.200,1)}8.31%,14.52%{transform:scale(0.300,1)}14.54%,18.33%{transform:scale(0.400,1)}18.35%,19.02%{transform:scale(0.500,1)}19.04%,20.06%{transform:scale(0.600,1)}20.08%,20.41%{transform:scale(0.700,1)}20.43%,22.83%{transform:scale(0.800,1)}22.85%,28.71%{transform:scale(0.900,1)}28.73%,100%{transform:scale(1.000,1)}}.u.u0{fill:var(--c1);animation-name:u0;transform-origin:0.0px 0}@keyframes u1{29.06%{transform:scale(0.000,1)}29.08%,29.4%{transform:scale(0.019,1)}29.42%,29.75%{transform:scale(0.037,1)}29.77%,30.09%{transform:scale(0.056,1)}30.11%,30.44%{transform:scale(0.074,1)}30.46%,30.79%{transform:scale(0.093,1)}30.81%,31.13%{transform:scale(0.111,1)}31.15%,31.48%{transform:scale(0.130,1)}31.5%,32.86%{transform:scale(0.148,1)}32.88%,33.21%{transform:scale(0.167,1)}33.23%,33.55%{transform:scale(0.185,1)}33.57%,33.9%{transform:scale(0.204,1)}33.92%,34.25%{transform:scale(0.222,1)}34.27%,34.59%{transform:scale(0.241,1)}34.61%,34.94%{transform:scale(0.259,1)}34.96%,35.28%{transform:scale(0.278,1)}35.3%,35.63%{transform:scale(0.296,1)}35.65%,35.98%{transform:scale(0.315,1)}36%,36.32%{transform:scale(0.333,1)}36.34%,36.67%{transform:scale(0.352,1)}36.69%,37.01%{transform:scale(0.370,1)}37.03%,37.36%{transform:scale(0.389,1)}37.38%,37.71%{transform:scale(0.407,1)}37.73%,38.05%{transform:scale(0.426,1)}38.07%,38.4%{transform:scale(0.444,1)}38.42%,39.09%{transform:scale(0.463,1)}39.11%,39.44%{transform:scale(0.481,1)}39.46%,39.78%{transform:scale(0.500,1)}39.8%,40.13%{transform:scale(0.519,1)}40.15%,40.47%{transform:scale(0.537,1)}40.49%,40.82%{transform:scale(0.556,1)}40.84%,41.17%{transform:scale(0.574,1)}41.19%,41.51%{transform:scale(0.593,1)}41.53%,41.86%{transform:scale(0.611,1)}41.88%,42.2%{transform:scale(0.630,1)}42.22%,42.55%{transform:scale(0.648,1)}42.57%,42.9%{transform:scale(0.667,1)}42.92%,43.24%{transform:scale(0.685,1)}43.26%,43.59%{transform:scale(0.704,1)}43.61%,43.93%{transform:scale(0.722,1)}43.95%,44.28%{transform:scale(0.741,1)}44.3%,44.63%{transform:scale(0.759,1)}44.65%,44.97%{transform:scale(0.778,1)}44.99%,45.32%{transform:scale(0.796,1)}45.34%,45.66%{transform:scale(0.815,1)}45.68%,46.01%{transform:scale(0.833,1)}46.03%,46.36%{transform:scale(0.852,1)}46.38%,46.7%{transform:scale(0.870,1)}46.72%,47.05%{transform:scale(0.889,1)}47.07%,48.43%{transform:scale(0.907,1)}48.45%,48.78%{transform:scale(0.926,1)}48.8%,50.16%{transform:scale(0.944,1)}50.18%,57.43%{transform:scale(0.963,1)}57.45%,60.54%{transform:scale(0.981,1)}60.56%,100%{transform:scale(1.000,1)}}.u.u1{fill:var(--c2);animation-name:u1;transform-origin:113.1px 0}@keyframes u2{66.43%{transform:scale(0.000,1)}66.45%,71.96%{transform:scale(0.091,1)}71.98%,72.31%{transform:scale(0.182,1)}72.33%,73.35%{transform:scale(0.273,1)}73.37%,75.08%{transform:scale(0.364,1)}75.1%,76.46%{transform:scale(0.455,1)}76.48%,76.81%{transform:scale(0.545,1)}76.83%,77.15%{transform:scale(0.636,1)}77.17%,77.5%{transform:scale(0.727,1)}77.52%,79.57%{transform:scale(0.818,1)}79.59%,85.11%{transform:scale(0.909,1)}85.13%,100%{transform:scale(1.000,1)}}.u.u2{fill:var(--c4);animation-name:u2;transform-origin:723.6px 0}.s{shape-rendering:geometricPrecision;fill:var(--cs);animation:none linear 28900ms infinite}@keyframes s0{0%,99.65%{transform:translate(0px,-16px)}0.35%{transform:translate(0px,0px)}5.88%{transform:translate(256px,0px)}6.23%{transform:translate(256px,16px)}6.92%{transform:translate(224px,16px)}8.3%{transform:translate(224px,80px)}13.84%{transform:translate(480px,80px)}14.53%{transform:translate(480px,48px)}18.34%{transform:translate(656px,48px)}18.69%{transform:translate(656px,64px)}19.03%{transform:translate(640px,64px)}19.38%,50.52%{transform:translate(640px,80px)}20.07%{transform:translate(672px,80px)}20.42%{transform:translate(672px,96px)}20.76%{transform:translate(688px,96px)}22.49%{transform:translate(688px,16px)}22.84%{transform:translate(672px,16px)}23.18%{transform:translate(672px,32px)}23.53%{transform:translate(688px,32px)}25.26%{transform:translate(688px,112px)}28.37%{transform:translate(832px,112px)}28.72%{transform:translate(832px,96px)}29.07%{transform:translate(816px,96px)}31.14%,81.66%{transform:translate(816px,0px)}31.49%{transform:translate(832px,0px)}31.83%{transform:translate(832px,-16px)}32.53%{transform:translate(800px,-16px)}32.87%{transform:translate(800px,0px)}34.6%{transform:translate(720px,0px)}35.29%{transform:translate(720px,32px)}37.02%{transform:translate(800px,32px)}37.37%{transform:translate(800px,16px)}38.41%{transform:translate(752px,16px)}39.1%{transform:translate(752px,48px)}40.14%{transform:translate(800px,48px)}40.48%{transform:translate(800px,64px)}40.83%{transform:translate(784px,64px)}41.18%{transform:translate(784px,80px)}41.52%{transform:translate(800px,80px)}41.87%{transform:translate(800px,96px)}42.56%{transform:translate(768px,96px)}42.91%{transform:translate(768px,80px)}43.25%,47.4%{transform:translate(752px,80px)}43.6%{transform:translate(752px,64px)}43.94%{transform:translate(736px,64px)}44.29%{transform:translate(736px,48px)}44.64%{transform:translate(720px,48px)}44.98%{transform:translate(720px,64px)}45.33%,71.63%{transform:translate(704px,64px)}45.67%{transform:translate(704px,80px)}46.37%{transform:translate(736px,80px)}46.71%{transform:translate(736px,96px)}47.06%{transform:translate(752px,96px)}48.1%{transform:translate(720px,80px)}48.44%{transform:translate(720px,96px)}50.17%{transform:translate(640px,96px)}54.67%{transform:translate(448px,80px)}55.02%{transform:translate(448px,64px)}59.86%{transform:translate(224px,64px)}60.55%{transform:translate(224px,96px)}65.74%{transform:translate(464px,96px)}66.44%{transform:translate(464px,64px)}72.32%{transform:translate(704px,32px)}73.01%{transform:translate(736px,32px)}73.36%{transform:translate(736px,16px)}74.05%{transform:translate(768px,16px)}75.09%{transform:translate(768px,64px)}76.47%{transform:translate(832px,64px)}77.51%{transform:translate(832px,16px)}77.85%{transform:translate(848px,16px)}78.2%{transform:translate(848px,32px)}78.55%{transform:translate(832px,32px)}79.58%{transform:translate(832px,80px)}79.93%{transform:translate(816px,80px)}97.92%{transform:translate(64px,0px)}98.27%{transform:translate(64px,-16px)}}.s.s0{transform:translate(0px,-16px);animation-name:s0}@keyframes s1{0%,99.65%{transform:translate(16px,-16px)}0.35%{transform:translate(0px,-16px)}0.69%{transform:translate(0px,0px)}6.23%{transform:translate(256px,0px)}6.57%{transform:translate(256px,16px)}7.27%{transform:translate(224px,16px)}8.65%{transform:translate(224px,80px)}14.19%{transform:translate(480px,80px)}14.88%{transform:translate(480px,48px)}18.69%{transform:translate(656px,48px)}19.03%{transform:translate(656px,64px)}19.38%{transform:translate(640px,64px)}19.72%,50.87%{transform:translate(640px,80px)}20.42%{transform:translate(672px,80px)}20.76%{transform:translate(672px,96px)}21.11%{transform:translate(688px,96px)}22.84%{transform:translate(688px,16px)}23.18%{transform:translate(672px,16px)}23.53%{transform:translate(672px,32px)}23.88%{transform:translate(688px,32px)}25.61%{transform:translate(688px,112px)}28.72%{transform:translate(832px,112px)}29.07%{transform:translate(832px,96px)}29.41%{transform:translate(816px,96px)}31.49%,82.01%{transform:translate(816px,0px)}31.83%{transform:translate(832px,0px)}32.18%{transform:translate(832px,-16px)}32.87%{transform:translate(800px,-16px)}33.22%{transform:translate(800px,0px)}34.95%{transform:translate(720px,0px)}35.64%{transform:translate(720px,32px)}37.37%{transform:translate(800px,32px)}37.72%{transform:translate(800px,16px)}38.75%{transform:translate(752px,16px)}39.45%{transform:translate(752px,48px)}40.48%{transform:translate(800px,48px)}40.83%{transform:translate(800px,64px)}41.18%{transform:translate(784px,64px)}41.52%{transform:translate(784px,80px)}41.87%{transform:translate(800px,80px)}42.21%{transform:translate(800px,96px)}42.91%{transform:translate(768px,96px)}43.25%{transform:translate(768px,80px)}43.6%,47.75%{transform:translate(752px,80px)}43.94%{transform:translate(752px,64px)}44.29%{transform:translate(736px,64px)}44.64%{transform:translate(736px,48px)}44.98%{transform:translate(720px,48px)}45.33%{transform:translate(720px,64px)}45.67%,71.97%{transform:translate(704px,64px)}46.02%{transform:translate(704px,80px)}46.71%{transform:translate(736px,80px)}47.06%{transform:translate(736px,96px)}47.4%{transform:translate(752px,96px)}48.44%{transform:translate(720px,80px)}48.79%{transform:translate(720px,96px)}50.52%{transform:translate(640px,96px)}55.02%{transform:translate(448px,80px)}55.36%{transform:translate(448px,64px)}60.21%{transform:translate(224px,64px)}60.9%{transform:translate(224px,96px)}66.09%{transform:translate(464px,96px)}66.78%{transform:translate(464px,64px)}72.66%{transform:translate(704px,32px)}73.36%{transform:translate(736px,32px)}73.7%{transform:translate(736px,16px)}74.39%{transform:translate(768px,16px)}75.43%{transform:translate(768px,64px)}76.82%{transform:translate(832px,64px)}77.85%{transform:translate(832px,16px)}78.2%{transform:translate(848px,16px)}78.55%{transform:translate(848px,32px)}78.89%{transform:translate(832px,32px)}79.93%{transform:translate(832px,80px)}80.28%{transform:translate(816px,80px)}98.27%{transform:translate(64px,0px)}98.62%{transform:translate(64px,-16px)}}.s.s1{transform:translate(16px,-16px);animation-name:s1}@keyframes s2{0%,99.65%{transform:translate(32px,-16px)}0.69%{transform:translate(0px,-16px)}1.04%{transform:translate(0px,0px)}6.57%{transform:translate(256px,0px)}6.92%{transform:translate(256px,16px)}7.61%{transform:translate(224px,16px)}9%{transform:translate(224px,80px)}14.53%{transform:translate(480px,80px)}15.22%{transform:translate(480px,48px)}19.03%{transform:translate(656px,48px)}19.38%{transform:translate(656px,64px)}19.72%{transform:translate(640px,64px)}20.07%,51.21%{transform:translate(640px,80px)}20.76%{transform:translate(672px,80px)}21.11%{transform:translate(672px,96px)}21.45%{transform:translate(688px,96px)}23.18%{transform:translate(688px,16px)}23.53%{transform:translate(672px,16px)}23.88%{transform:translate(672px,32px)}24.22%{transform:translate(688px,32px)}25.95%{transform:translate(688px,112px)}29.07%{transform:translate(832px,112px)}29.41%{transform:translate(832px,96px)}29.76%{transform:translate(816px,96px)}31.83%,82.35%{transform:translate(816px,0px)}32.18%{transform:translate(832px,0px)}32.53%{transform:translate(832px,-16px)}33.22%{transform:translate(800px,-16px)}33.56%{transform:translate(800px,0px)}35.29%{transform:translate(720px,0px)}35.99%{transform:translate(720px,32px)}37.72%{transform:translate(800px,32px)}38.06%{transform:translate(800px,16px)}39.1%{transform:translate(752px,16px)}39.79%{transform:translate(752px,48px)}40.83%{transform:translate(800px,48px)}41.18%{transform:translate(800px,64px)}41.52%{transform:translate(784px,64px)}41.87%{transform:translate(784px,80px)}42.21%{transform:translate(800px,80px)}42.56%{transform:translate(800px,96px)}43.25%{transform:translate(768px,96px)}43.6%{transform:translate(768px,80px)}43.94%,48.1%{transform:translate(752px,80px)}44.29%{transform:translate(752px,64px)}44.64%{transform:translate(736px,64px)}44.98%{transform:translate(736px,48px)}45.33%{transform:translate(720px,48px)}45.67%{transform:translate(720px,64px)}46.02%,72.32%{transform:translate(704px,64px)}46.37%{transform:translate(704px,80px)}47.06%{transform:translate(736px,80px)}47.4%{transform:translate(736px,96px)}47.75%{transform:translate(752px,96px)}48.79%{transform:translate(720px,80px)}49.13%{transform:translate(720px,96px)}50.87%{transform:translate(640px,96px)}55.36%{transform:translate(448px,80px)}55.71%{transform:translate(448px,64px)}60.55%{transform:translate(224px,64px)}61.25%{transform:translate(224px,96px)}66.44%{transform:translate(464px,96px)}67.13%{transform:translate(464px,64px)}73.01%{transform:translate(704px,32px)}73.7%{transform:translate(736px,32px)}74.05%{transform:translate(736px,16px)}74.74%{transform:translate(768px,16px)}75.78%{transform:translate(768px,64px)}77.16%{transform:translate(832px,64px)}78.2%{transform:translate(832px,16px)}78.55%{transform:translate(848px,16px)}78.89%{transform:translate(848px,32px)}79.24%{transform:translate(832px,32px)}80.28%{transform:translate(832px,80px)}80.62%{transform:translate(816px,80px)}98.62%{transform:translate(64px,0px)}98.96%{transform:translate(64px,-16px)}}.s.s2{transform:translate(32px,-16px);animation-name:s2}@keyframes s3{0%,99.65%{transform:translate(48px,-16px)}1.04%{transform:translate(0px,-16px)}1.38%{transform:translate(0px,0px)}6.92%{transform:translate(256px,0px)}7.27%{transform:translate(256px,16px)}7.96%{transform:translate(224px,16px)}9.34%{transform:translate(224px,80px)}14.88%{transform:translate(480px,80px)}15.57%{transform:translate(480px,48px)}19.38%{transform:translate(656px,48px)}19.72%{transform:translate(656px,64px)}20.07%{transform:translate(640px,64px)}20.42%,51.56%{transform:translate(640px,80px)}21.11%{transform:translate(672px,80px)}21.45%{transform:translate(672px,96px)}21.8%{transform:translate(688px,96px)}23.53%{transform:translate(688px,16px)}23.88%{transform:translate(672px,16px)}24.22%{transform:translate(672px,32px)}24.57%{transform:translate(688px,32px)}26.3%{transform:translate(688px,112px)}29.41%{transform:translate(832px,112px)}29.76%{transform:translate(832px,96px)}30.1%{transform:translate(816px,96px)}32.18%,82.7%{transform:translate(816px,0px)}32.53%{transform:translate(832px,0px)}32.87%{transform:translate(832px,-16px)}33.56%{transform:translate(800px,-16px)}33.91%{transform:translate(800px,0px)}35.64%{transform:translate(720px,0px)}36.33%{transform:translate(720px,32px)}38.06%{transform:translate(800px,32px)}38.41%{transform:translate(800px,16px)}39.45%{transform:translate(752px,16px)}40.14%{transform:translate(752px,48px)}41.18%{transform:translate(800px,48px)}41.52%{transform:translate(800px,64px)}41.87%{transform:translate(784px,64px)}42.21%{transform:translate(784px,80px)}42.56%{transform:translate(800px,80px)}42.91%{transform:translate(800px,96px)}43.6%{transform:translate(768px,96px)}43.94%{transform:translate(768px,80px)}44.29%,48.44%{transform:translate(752px,80px)}44.64%{transform:translate(752px,64px)}44.98%{transform:translate(736px,64px)}45.33%{transform:translate(736px,48px)}45.67%{transform:translate(720px,48px)}46.02%{transform:translate(720px,64px)}46.37%,72.66%{transform:translate(704px,64px)}46.71%{transform:translate(704px,80px)}47.4%{transform:translate(736px,80px)}47.75%{transform:translate(736px,96px)}48.1%{transform:translate(752px,96px)}49.13%{transform:translate(720px,80px)}49.48%{transform:translate(720px,96px)}51.21%{transform:translate(640px,96px)}55.71%{transform:translate(448px,80px)}56.06%{transform:translate(448px,64px)}60.9%{transform:translate(224px,64px)}61.59%{transform:translate(224px,96px)}66.78%{transform:translate(464px,96px)}67.47%{transform:translate(464px,64px)}73.36%{transform:translate(704px,32px)}74.05%{transform:translate(736px,32px)}74.39%{transform:translate(736px,16px)}75.09%{transform:translate(768px,16px)}76.12%{transform:translate(768px,64px)}77.51%{transform:translate(832px,64px)}78.55%{transform:translate(832px,16px)}78.89%{transform:translate(848px,16px)}79.24%{transform:translate(848px,32px)}79.58%{transform:translate(832px,32px)}80.62%{transform:translate(832px,80px)}80.97%{transform:translate(816px,80px)}98.96%{transform:translate(64px,0px)}99.31%{transform:translate(64px,-16px)}}.s.s3{transform:translate(48px,-16px);animation-name:s3}</style><rect class="c" x="2" y="2" rx="2" ry="2"/><rect class="c" x="2" y="18" rx="2" ry="2"/><rect class="c" x="2" y="34" rx="2" ry="2"/><rect class="c" x="2" y="50" rx="2" ry="2"/><rect class="c" x="2" y="66" rx="2" ry="2"/><rect class="c" x="2" y="82" rx="2" ry="2"/><rect class="c" x="2" y="98" rx="2" ry="2"/><rect class="c" x="18" y="2" rx="2" ry="2"/><rect class="c" x="18" y="18" rx="2" ry="2"/><rect class="c" x="18" y="34" rx="2" ry="2"/><rect class="c" x="18" y="50" rx="2" ry="2"/><rect class="c" x="18" y="66" rx="2" ry="2"/><rect class="c" x="18" y="82" rx="2" ry="2"/><rect class="c" x="18" y="98" rx="2" ry="2"/><rect class="c" x="34" y="2" rx="2" ry="2"/><rect class="c" x="34" y="18" rx="2" ry="2"/><rect class="c" x="34" y="34" rx="2" ry="2"/><rect class="c" x="34" y="50" rx="2" ry="2"/><rect class="c" x="34" y="66" rx="2" ry="2"/><rect class="c" x="34" y="82" rx="2" ry="2"/><rect class="c" x="34" y="98" rx="2" ry="2"/><rect class="c" x="50" y="2" rx="2" ry="2"/><rect class="c" x="50" y="18" rx="2" ry="2"/><rect class="c" x="50" y="34" rx="2" ry="2"/><rect class="c" x="50" y="50" rx="2" ry="2"/><rect class="c" x="50" y="66" rx="2" ry="2"/><rect class="c" x="50" y="82" rx="2" ry="2"/><rect class="c" x="50" y="98" rx="2" ry="2"/><rect class="c" x="66" y="2" rx="2" ry="2"/><rect class="c" x="66" y="18" rx="2" ry="2"/><rect class="c" x="66" y="34" rx="2" ry="2"/><rect class="c" x="66" y="50" rx="2" ry="2"/><rect class="c" x="66" y="66" rx="2" ry="2"/><rect class="c" x="66" y="82" rx="2" ry="2"/><rect class="c" x="66" y="98" rx="2" ry="2"/><rect class="c" x="82" y="2" rx="2" ry="2"/><rect class="c" x="82" y="18" rx="2" ry="2"/><rect class="c" x="82" y="34" rx="2" ry="2"/><rect class="c" x="82" y="50" rx="2" ry="2"/><rect class="c" x="82" y="66" rx="2" ry="2"/><rect class="c" x="82" y="82" rx="2" ry="2"/><rect class="c" x="82" y="98" rx="2" ry="2"/><rect class="c" x="98" y="2" rx="2" ry="2"/><rect class="c" x="98" y="18" rx="2" ry="2"/><rect class="c" x="98" y="34" rx="2" ry="2"/><rect class="c" x="98" y="50" rx="2" ry="2"/><rect class="c" x="98" y="66" rx="2" ry="2"/><rect class="c" x="98" y="82" rx="2" ry="2"/><rect class="c" x="98" y="98" rx="2" ry="2"/><rect class="c" x="114" y="2" rx="2" ry="2"/><rect class="c" x="114" y="18" rx="2" ry="2"/><rect class="c" x="114" y="34" rx="2" ry="2"/><rect class="c" x="114" y="50" rx="2" ry="2"/><rect class="c" x="114" y="66" rx="2" ry="2"/><rect class="c" x="114" y="82" rx="2" ry="2"/><rect class="c" x="114" y="98" rx="2" ry="2"/><rect class="c" x="130" y="2" rx="2" ry="2"/><rect class="c" x="130" y="18" rx="2" ry="2"/><rect class="c" x="130" y="34" rx="2" ry="2"/><rect class="c" x="130" y="50" rx="2" ry="2"/><rect class="c" x="130" y="66" rx="2" ry="2"/><rect class="c" x="130" y="82" rx="2" ry="2"/><rect class="c" x="130" y="98" rx="2" ry="2"/><rect class="c" x="146" y="2" rx="2" ry="2"/><rect class="c" x="146" y="18" rx="2" ry="2"/><rect class="c" x="146" y="34" rx="2" ry="2"/><rect class="c" x="146" y="50" rx="2" ry="2"/><rect class="c" x="146" y="66" rx="2" ry="2"/><rect class="c" x="146" y="82" rx="2" ry="2"/><rect class="c" x="146" y="98" rx="2" ry="2"/><rect class="c" x="162" y="2" rx="2" ry="2"/><rect class="c" x="162" y="18" rx="2" ry="2"/><rect class="c" x="162" y="34" rx="2" ry="2"/><rect class="c" x="162" y="50" rx="2" ry="2"/><rect class="c" x="162" y="66" rx="2" ry="2"/><rect class="c" x="162" y="82" rx="2" ry="2"/><rect class="c" x="162" y="98" rx="2" ry="2"/><rect class="c" x="178" y="2" rx="2" ry="2"/><rect class="c" x="178" y="18" rx="2" ry="2"/><rect class="c" x="178" y="34" rx="2" ry="2"/><rect class="c" x="178" y="50" rx="2" ry="2"/><rect class="c" x="178" y="66" rx="2" ry="2"/><rect class="c" x="178" y="82" rx="2" ry="2"/><rect class="c" x="178" y="98" rx="2" ry="2"/><rect class="c" x="194" y="2" rx="2" ry="2"/><rect class="c" x="194" y="18" rx="2" ry="2"/><rect class="c" x="194" y="34" rx="2" ry="2"/><rect class="c" x="194" y="50" rx="2" ry="2"/><rect class="c" x="194" y="66" rx="2" ry="2"/><rect class="c" x="194" y="82" rx="2" ry="2"/><rect class="c" x="194" y="98" rx="2" ry="2"/><rect class="c" x="210" y="2" rx="2" ry="2"/><rect class="c" x="210" y="18" rx="2" ry="2"/><rect class="c" x="210" y="34" rx="2" ry="2"/><rect class="c" x="210" y="50" rx="2" ry="2"/><rect class="c" x="210" y="66" rx="2" ry="2"/><rect class="c" x="210" y="82" rx="2" ry="2"/><rect class="c" x="210" y="98" rx="2" ry="2"/><rect class="c" x="226" y="2" rx="2" ry="2"/><rect class="c" x="226" y="18" rx="2" ry="2"/><rect class="c" x="226" y="34" rx="2" ry="2"/><rect class="c" x="226" y="50" rx="2" ry="2"/><rect class="c" x="226" y="66" rx="2" ry="2"/><rect class="c c0" x="226" y="82" rx="2" ry="2"/><rect class="c c1" x="226" y="98" rx="2" ry="2"/><rect class="c" x="242" y="2" rx="2" ry="2"/><rect class="c" x="242" y="18" rx="2" ry="2"/><rect class="c" x="242" y="34" rx="2" ry="2"/><rect class="c" x="242" y="50" rx="2" ry="2"/><rect class="c" x="242" y="66" rx="2" ry="2"/><rect class="c" x="242" y="82" rx="2" ry="2"/><rect class="c" x="242" y="98" rx="2" ry="2"/><rect class="c c2" x="258" y="2" rx="2" ry="2"/><rect class="c c3" x="258" y="18" rx="2" ry="2"/><rect class="c" x="258" y="34" rx="2" ry="2"/><rect class="c" x="258" y="50" rx="2" ry="2"/><rect class="c" x="258" y="66" rx="2" ry="2"/><rect class="c" x="258" y="82" rx="2" ry="2"/><rect class="c" x="258" y="98" rx="2" ry="2"/><rect class="c" x="274" y="2" rx="2" ry="2"/><rect class="c" x="274" y="18" rx="2" ry="2"/><rect class="c" x="274" y="34" rx="2" ry="2"/><rect class="c" x="274" y="50" rx="2" ry="2"/><rect class="c" x="274" y="66" rx="2" ry="2"/><rect class="c" x="274" y="82" rx="2" ry="2"/><rect class="c" x="274" y="98" rx="2" ry="2"/><rect class="c" x="290" y="2" rx="2" ry="2"/><rect class="c" x="290" y="18" rx="2" ry="2"/><rect class="c" x="290" y="34" rx="2" ry="2"/><rect class="c" x="290" y="50" rx="2" ry="2"/><rect class="c" x="290" y="66" rx="2" ry="2"/><rect class="c" x="290" y="82" rx="2" ry="2"/><rect class="c" x="290" y="98" rx="2" ry="2"/><rect class="c" x="306" y="2" rx="2" ry="2"/><rect class="c" x="306" y="18" rx="2" ry="2"/><rect class="c" x="306" y="34" rx="2" ry="2"/><rect class="c" x="306" y="50" rx="2" ry="2"/><rect class="c" x="306" y="66" rx="2" ry="2"/><rect class="c" x="306" y="82" rx="2" ry="2"/><rect class="c" x="306" y="98" rx="2" ry="2"/><rect class="c" x="322" y="2" rx="2" ry="2"/><rect class="c" x="322" y="18" rx="2" ry="2"/><rect class="c" x="322" y="34" rx="2" ry="2"/><rect class="c" x="322" y="50" rx="2" ry="2"/><rect class="c" x="322" y="66" rx="2" ry="2"/><rect class="c" x="322" y="82" rx="2" ry="2"/><rect class="c" x="322" y="98" rx="2" ry="2"/><rect class="c" x="338" y="2" rx="2" ry="2"/><rect class="c" x="338" y="18" rx="2" ry="2"/><rect class="c" x="338" y="34" rx="2" ry="2"/><rect class="c" x="338" y="50" rx="2" ry="2"/><rect class="c c4" x="338" y="66" rx="2" ry="2"/><rect class="c" x="338" y="82" rx="2" ry="2"/><rect class="c" x="338" y="98" rx="2" ry="2"/><rect class="c" x="354" y="2" rx="2" ry="2"/><rect class="c" x="354" y="18" rx="2" ry="2"/><rect class="c" x="354" y="34" rx="2" ry="2"/><rect class="c" x="354" y="50" rx="2" ry="2"/><rect class="c" x="354" y="66" rx="2" ry="2"/><rect class="c" x="354" y="82" rx="2" ry="2"/><rect class="c" x="354" y="98" rx="2" ry="2"/><rect class="c" x="370" y="2" rx="2" ry="2"/><rect class="c" x="370" y="18" rx="2" ry="2"/><rect class="c" x="370" y="34" rx="2" ry="2"/><rect class="c" x="370" y="50" rx="2" ry="2"/><rect class="c" x="370" y="66" rx="2" ry="2"/><rect class="c" x="370" y="82" rx="2" ry="2"/><rect class="c" x="370" y="98" rx="2" ry="2"/><rect class="c" x="386" y="2" rx="2" ry="2"/><rect class="c" x="386" y="18" rx="2" ry="2"/><rect class="c" x="386" y="34" rx="2" ry="2"/><rect class="c" x="386" y="50" rx="2" ry="2"/><rect class="c" x="386" y="66" rx="2" ry="2"/><rect class="c" x="386" y="82" rx="2" ry="2"/><rect class="c" x="386" y="98" rx="2" ry="2"/><rect class="c" x="402" y="2" rx="2" ry="2"/><rect class="c" x="402" y="18" rx="2" ry="2"/><rect class="c" x="402" y="34" rx="2" ry="2"/><rect class="c" x="402" y="50" rx="2" ry="2"/><rect class="c" x="402" y="66" rx="2" ry="2"/><rect class="c" x="402" y="82" rx="2" ry="2"/><rect class="c" x="402" y="98" rx="2" ry="2"/><rect class="c" x="418" y="2" rx="2" ry="2"/><rect class="c" x="418" y="18" rx="2" ry="2"/><rect class="c" x="418" y="34" rx="2" ry="2"/><rect class="c" x="418" y="50" rx="2" ry="2"/><rect class="c" x="418" y="66" rx="2" ry="2"/><rect class="c" x="418" y="82" rx="2" ry="2"/><rect class="c" x="418" y="98" rx="2" ry="2"/><rect class="c" x="434" y="2" rx="2" ry="2"/><rect class="c" x="434" y="18" rx="2" ry="2"/><rect class="c" x="434" y="34" rx="2" ry="2"/><rect class="c" x="434" y="50" rx="2" ry="2"/><rect class="c" x="434" y="66" rx="2" ry="2"/><rect class="c" x="434" y="82" rx="2" ry="2"/><rect class="c" x="434" y="98" rx="2" ry="2"/><rect class="c" x="450" y="2" rx="2" ry="2"/><rect class="c" x="450" y="18" rx="2" ry="2"/><rect class="c" x="450" y="34" rx="2" ry="2"/><rect class="c" x="450" y="50" rx="2" ry="2"/><rect class="c" x="450" y="66" rx="2" ry="2"/><rect class="c" x="450" y="82" rx="2" ry="2"/><rect class="c" x="450" y="98" rx="2" ry="2"/><rect class="c" x="466" y="2" rx="2" ry="2"/><rect class="c" x="466" y="18" rx="2" ry="2"/><rect class="c" x="466" y="34" rx="2" ry="2"/><rect class="c" x="466" y="50" rx="2" ry="2"/><rect class="c c5" x="466" y="66" rx="2" ry="2"/><rect class="c" x="466" y="82" rx="2" ry="2"/><rect class="c" x="466" y="98" rx="2" ry="2"/><rect class="c" x="482" y="2" rx="2" ry="2"/><rect class="c" x="482" y="18" rx="2" ry="2"/><rect class="c" x="482" y="34" rx="2" ry="2"/><rect class="c c6" x="482" y="50" rx="2" ry="2"/><rect class="c" x="482" y="66" rx="2" ry="2"/><rect class="c" x="482" y="82" rx="2" ry="2"/><rect class="c" x="482" y="98" rx="2" ry="2"/><rect class="c" x="498" y="2" rx="2" ry="2"/><rect class="c" x="498" y="18" rx="2" ry="2"/><rect class="c" x="498" y="34" rx="2" ry="2"/><rect class="c" x="498" y="50" rx="2" ry="2"/><rect class="c" x="498" y="66" rx="2" ry="2"/><rect class="c" x="498" y="82" rx="2" ry="2"/><rect class="c" x="498" y="98" rx="2" ry="2"/><rect class="c" x="514" y="2" rx="2" ry="2"/><rect class="c" x="514" y="18" rx="2" ry="2"/><rect class="c" x="514" y="34" rx="2" ry="2"/><rect class="c" x="514" y="50" rx="2" ry="2"/><rect class="c" x="514" y="66" rx="2" ry="2"/><rect class="c" x="514" y="82" rx="2" ry="2"/><rect class="c" x="514" y="98" rx="2" ry="2"/><rect class="c" x="530" y="2" rx="2" ry="2"/><rect class="c" x="530" y="18" rx="2" ry="2"/><rect class="c" x="530" y="34" rx="2" ry="2"/><rect class="c" x="530" y="50" rx="2" ry="2"/><rect class="c" x="530" y="66" rx="2" ry="2"/><rect class="c" x="530" y="82" rx="2" ry="2"/><rect class="c" x="530" y="98" rx="2" ry="2"/><rect class="c" x="546" y="2" rx="2" ry="2"/><rect class="c" x="546" y="18" rx="2" ry="2"/><rect class="c" x="546" y="34" rx="2" ry="2"/><rect class="c" x="546" y="50" rx="2" ry="2"/><rect class="c" x="546" y="66" rx="2" ry="2"/><rect class="c" x="546" y="82" rx="2" ry="2"/><rect class="c" x="546" y="98" rx="2" ry="2"/><rect class="c" x="562" y="2" rx="2" ry="2"/><rect class="c" x="562" y="18" rx="2" ry="2"/><rect class="c" x="562" y="34" rx="2" ry="2"/><rect class="c" x="562" y="50" rx="2" ry="2"/><rect class="c" x="562" y="66" rx="2" ry="2"/><rect class="c" x="562" y="82" rx="2" ry="2"/><rect class="c" x="562" y="98" rx="2" ry="2"/><rect class="c" x="578" y="2" rx="2" ry="2"/><rect class="c" x="578" y="18" rx="2" ry="2"/><rect class="c" x="578" y="34" rx="2" ry="2"/><rect class="c" x="578" y="50" rx="2" ry="2"/><rect class="c" x="578" y="66" rx="2" ry="2"/><rect class="c" x="578" y="82" rx="2" ry="2"/><rect class="c" x="578" y="98" rx="2" ry="2"/><rect class="c" x="594" y="2" rx="2" ry="2"/><rect class="c" x="594" y="18" rx="2" ry="2"/><rect class="c" x="594" y="34" rx="2" ry="2"/><rect class="c" x="594" y="50" rx="2" ry="2"/><rect class="c" x="594" y="66" rx="2" ry="2"/><rect class="c" x="594" y="82" rx="2" ry="2"/><rect class="c" x="594" y="98" rx="2" ry="2"/><rect class="c" x="610" y="2" rx="2" ry="2"/><rect class="c" x="610" y="18" rx="2" ry="2"/><rect class="c" x="610" y="34" rx="2" ry="2"/><rect class="c" x="610" y="50" rx="2" ry="2"/><rect class="c" x="610" y="66" rx="2" ry="2"/><rect class="c" x="610" y="82" rx="2" ry="2"/><rect class="c" x="610" y="98" rx="2" ry="2"/><rect class="c" x="626" y="2" rx="2" ry="2"/><rect class="c" x="626" y="18" rx="2" ry="2"/><rect class="c" x="626" y="34" rx="2" ry="2"/><rect class="c" x="626" y="50" rx="2" ry="2"/><rect class="c" x="626" y="66" rx="2" ry="2"/><rect class="c" x="626" y="82" rx="2" ry="2"/><rect class="c" x="626" y="98" rx="2" ry="2"/><rect class="c" x="642" y="2" rx="2" ry="2"/><rect class="c" x="642" y="18" rx="2" ry="2"/><rect class="c" x="642" y="34" rx="2" ry="2"/><rect class="c" x="642" y="50" rx="2" ry="2"/><rect class="c c7" x="642" y="66" rx="2" ry="2"/><rect class="c" x="642" y="82" rx="2" ry="2"/><rect class="c c8" x="642" y="98" rx="2" ry="2"/><rect class="c c9" x="658" y="2" rx="2" ry="2"/><rect class="c" x="658" y="18" rx="2" ry="2"/><rect class="c" x="658" y="34" rx="2" ry="2"/><rect class="c ca" x="658" y="50" rx="2" ry="2"/><rect class="c" x="658" y="66" rx="2" ry="2"/><rect class="c" x="658" y="82" rx="2" ry="2"/><rect class="c" x="658" y="98" rx="2" ry="2"/><rect class="c" x="674" y="2" rx="2" ry="2"/><rect class="c cb" x="674" y="18" rx="2" ry="2"/><rect class="c" x="674" y="34" rx="2" ry="2"/><rect class="c" x="674" y="50" rx="2" ry="2"/><rect class="c" x="674" y="66" rx="2" ry="2"/><rect class="c cc" x="674" y="82" rx="2" ry="2"/><rect class="c cd" x="674" y="98" rx="2" ry="2"/><rect class="c" x="690" y="2" rx="2" ry="2"/><rect class="c" x="690" y="18" rx="2" ry="2"/><rect class="c" x="690" y="34" rx="2" ry="2"/><rect class="c" x="690" y="50" rx="2" ry="2"/><rect class="c" x="690" y="66" rx="2" ry="2"/><rect class="c" x="690" y="82" rx="2" ry="2"/><rect class="c" x="690" y="98" rx="2" ry="2"/><rect class="c" x="706" y="2" rx="2" ry="2"/><rect class="c" x="706" y="18" rx="2" ry="2"/><rect class="c ce" x="706" y="34" rx="2" ry="2"/><rect class="c cf" x="706" y="50" rx="2" ry="2"/><rect class="c cg" x="706" y="66" rx="2" ry="2"/><rect class="c ch" x="706" y="82" rx="2" ry="2"/><rect class="c ci" x="706" y="98" rx="2" ry="2"/><rect class="c cj" x="722" y="2" rx="2" ry="2"/><rect class="c ck" x="722" y="18" rx="2" ry="2"/><rect class="c cl" x="722" y="34" rx="2" ry="2"/><rect class="c cm" x="722" y="50" rx="2" ry="2"/><rect class="c cn" x="722" y="66" rx="2" ry="2"/><rect class="c co" x="722" y="82" rx="2" ry="2"/><rect class="c cp" x="722" y="98" rx="2" ry="2"/><rect class="c cq" x="738" y="2" rx="2" ry="2"/><rect class="c cr" x="738" y="18" rx="2" ry="2"/><rect class="c cs" x="738" y="34" rx="2" ry="2"/><rect class="c ct" x="738" y="50" rx="2" ry="2"/><rect class="c cu" x="738" y="66" rx="2" ry="2"/><rect class="c cv" x="738" y="82" rx="2" ry="2"/><rect class="c cw" x="738" y="98" rx="2" ry="2"/><rect class="c cx" x="754" y="2" rx="2" ry="2"/><rect class="c cy" x="754" y="18" rx="2" ry="2"/><rect class="c cz" x="754" y="34" rx="2" ry="2"/><rect class="c c10" x="754" y="50" rx="2" ry="2"/><rect class="c c11" x="754" y="66" rx="2" ry="2"/><rect class="c c12" x="754" y="82" rx="2" ry="2"/><rect class="c c13" x="754" y="98" rx="2" ry="2"/><rect class="c c14" x="770" y="2" rx="2" ry="2"/><rect class="c c15" x="770" y="18" rx="2" ry="2"/><rect class="c c16" x="770" y="34" rx="2" ry="2"/><rect class="c c17" x="770" y="50" rx="2" ry="2"/><rect class="c c18" x="770" y="66" rx="2" ry="2"/><rect class="c c19" x="770" y="82" rx="2" ry="2"/><rect class="c c1a" x="770" y="98" rx="2" ry="2"/><rect class="c c1b" x="786" y="2" rx="2" ry="2"/><rect class="c c1c" x="786" y="18" rx="2" ry="2"/><rect class="c c1d" x="786" y="34" rx="2" ry="2"/><rect class="c c1e" x="786" y="50" rx="2" ry="2"/><rect class="c c1f" x="786" y="66" rx="2" ry="2"/><rect class="c c1g" x="786" y="82" rx="2" ry="2"/><rect class="c c1h" x="786" y="98" rx="2" ry="2"/><rect class="c c1i" x="802" y="2" rx="2" ry="2"/><rect class="c c1j" x="802" y="18" rx="2" ry="2"/><rect class="c c1k" x="802" y="34" rx="2" ry="2"/><rect class="c c1l" x="802" y="50" rx="2" ry="2"/><rect class="c c1m" x="802" y="66" rx="2" ry="2"/><rect class="c c1n" x="802" y="82" rx="2" ry="2"/><rect class="c c1o" x="802" y="98" rx="2" ry="2"/><rect class="c c1p" x="818" y="2" rx="2" ry="2"/><rect class="c c1q" x="818" y="18" rx="2" ry="2"/><rect class="c c1r" x="818" y="34" rx="2" ry="2"/><rect class="c c1s" x="818" y="50" rx="2" ry="2"/><rect class="c c1t" x="818" y="66" rx="2" ry="2"/><rect class="c c1u" x="818" y="82" rx="2" ry="2"/><rect class="c c1v" x="818" y="98" rx="2" ry="2"/><rect class="c c1w" x="834" y="2" rx="2" ry="2"/><rect class="c c1x" x="834" y="18" rx="2" ry="2"/><rect class="c c1y" x="834" y="34" rx="2" ry="2"/><rect class="c c1z" x="834" y="50" rx="2" ry="2"/><rect class="c c20" x="834" y="66" rx="2" ry="2"/><rect class="c c21" x="834" y="82" rx="2" ry="2"/><rect class="c c22" x="834" y="98" rx="2" ry="2"/><rect class="u u0" height="12" width="113.7" x="0.0" y="144"/><rect class="u u1" height="12" width="611.2" x="113.1" y="144"/><rect class="u u2" height="12" width="125.0" x="723.6" y="144"/><rect class="s s0" x="0.8" y="0.8" width="14.4" height="14.4" rx="4.5" ry="4.5"/><rect class="s s1" x="1.8" y="1.8" width="12.3" height="12.3" rx="4.1" ry="4.1"/><rect class="s s2" x="2.6" y="2.6" width="10.8" height="10.8" rx="3.6" ry="3.6"/><rect class="s s3" x="3.0" y="3.0" width="9.9" height="9.9" rx="3.3" ry="3.3"/></svg>