<svg viewBox="-16 -32 880 192" width="880" height="192" xmlns="http://www.w3.org/2000/svg"><desc>Generated with https://github.com/Platane/snk</desc><style>:root{--cb:#1b1f230a;--cs:purple;--ce:#ebedf0;--c0:#ebedf0;--c1:#9be9a8;--c2:#40c463;--c3:#30a14e;--c4:#216e39}.c{shape-rendering:geometricPrecision;fill:var(--ce);stroke-width:1px;stroke:var(--cb);animation:none 30900ms linear infinite;width:12px;height:12px}@keyframes c0{5.82%{fill:var(--c1)}5.84%,100%{fill:var(--ce)}}.c.c0{fill:var(--c1);animation-name:c0}@keyframes c1{52.74%{fill:var(--c2)}52.76%,100%{fill:var(--ce)}}.c.c1{fill:var(--c2);animation-name:c1}@keyframes c2{3.55%{fill:var(--c1)}3.57%,100%{fill:var(--ce)}}.c.c2{fill:var(--c1);animation-name:c2}@keyframes c3{3.87%{fill:var(--c1)}3.89%,100%{fill:var(--ce)}}.c.c3{fill:var(--c1);animation-name:c3}@keyframes c4{49.83%{fill:var(--c2)}49.85%,100%{fill:var(--ce)}}.c.c4{fill:var(--c2);animation-name:c4}@keyframes c5{58.24%{fill:var(--c4)}58.26%,100%{fill:var(--ce)}}.c.c5{fill:var(--c4);animation-name:c5}@keyframes c6{11.64%{fill:var(--c1)}11.66%,100%{fill:var(--ce)}}.c.c6{fill:var(--c1);animation-name:c6}@keyframes c7{15.85%{fill:var(--c1)}15.87%,100%{fill:var(--ce)}}.c.c7{fill:var(--c1);animation-name:c7}@keyframes c8{43.03%{fill:var(--c2)}43.05%,100%{fill:var(--ce)}}.c.c8{fill:var(--c2);animation-name:c8}@keyframes c9{88.02%{fill:var(--c4)}88.04%,100%{fill:var(--ce)}}.c.c9{fill:var(--c4);animation-name:c9}@keyframes ca{15.2%{fill:var(--c1)}15.22%,100%{fill:var(--ce)}}.c.ca{fill:var(--c1);animation-name:ca}@keyframes cb{19.41%{fill:var(--c1)}19.43%,100%{fill:var(--ce)}}.c.cb{fill:var(--c1);animation-name:cb}@keyframes cc{16.82%{fill:var(--c1)}16.84%,100%{fill:var(--ce)}}.c.cc{fill:var(--c1);animation-name:cc}@keyframes cd{17.14%{fill:var(--c1)}17.16%,100%{fill:var(--ce)}}.c.cd{fill:var(--c1);animation-name:cd}@keyframes ce{63.74%{fill:var(--c4)}63.76%,100%{fill:var(--ce)}}.c.ce{fill:var(--c4);animation-name:ce}@keyframes cf{63.42%{fill:var(--c4)}63.44%,100%{fill:var(--ce)}}.c.cf{fill:var(--c4);animation-name:cf}@keyframes cg{40.44%{fill:var(--c2)}40.46%,100%{fill:var(--ce)}}.c.cg{fill:var(--c2);animation-name:cg}@keyframes ch{40.12%{fill:var(--c2)}40.14%,100%{fill:var(--ce)}}.c.ch{fill:var(--c2);animation-name:ch}@keyframes ci{41.74%{fill:var(--c2)}41.76%,100%{fill:var(--ce)}}.c.ci{fill:var(--c2);animation-name:ci}@keyframes cj{20.7%{fill:var(--c2)}20.72%,100%{fill:var(--ce)}}.c.cj{fill:var(--c2);animation-name:cj}@keyframes ck{30.09%{fill:var(--c2)}30.11%,100%{fill:var(--ce)}}.c.ck{fill:var(--c2);animation-name:ck}@keyframes cl{29.76%{fill:var(--c2)}29.78%,100%{fill:var(--ce)}}.c.cl{fill:var(--c2);animation-name:cl}@keyframes cm{32.03%{fill:var(--c2)}32.05%,100%{fill:var(--ce)}}.c.cm{fill:var(--c2);animation-name:cm}@keyframes cn{32.35%{fill:var(--c2)}32.37%,100%{fill:var(--ce)}}.c.cn{fill:var(--c2);animation-name:cn}@keyframes co{39.8%{fill:var(--c2)}39.82%,100%{fill:var(--ce)}}.c.co{fill:var(--c2);animation-name:co}@keyframes cp{41.41%{fill:var(--c2)}41.43%,100%{fill:var(--ce)}}.c.cp{fill:var(--c2);animation-name:cp}@keyframes cq{21.03%{fill:var(--c2)}21.05%,100%{fill:var(--ce)}}.c.cq{fill:var(--c2);animation-name:cq}@keyframes cr{64.71%{fill:var(--c4)}64.73%,100%{fill:var(--ce)}}.c.cr{fill:var(--c4);animation-name:cr}@keyframes cs{29.44%{fill:var(--c2)}29.46%,100%{fill:var(--ce)}}.c.cs{fill:var(--c2);animation-name:cs}@keyframes ct{29.12%{fill:var(--c2)}29.14%,100%{fill:var(--ce)}}.c.ct{fill:var(--c2);animation-name:ct}@keyframes cu{32.68%{fill:var(--c2)}32.7%,100%{fill:var(--ce)}}.c.cu{fill:var(--c2);animation-name:cu}@keyframes cv{39.47%{fill:var(--c2)}39.49%,100%{fill:var(--ce)}}.c.cv{fill:var(--c2);animation-name:cv}@keyframes cw{39.15%{fill:var(--c2)}39.17%,100%{fill:var(--ce)}}.c.cw{fill:var(--c2);animation-name:cw}@keyframes cx{21.35%{fill:var(--c2)}21.37%,100%{fill:var(--ce)}}.c.cx{fill:var(--c2);animation-name:cx}@keyframes cy{25.56%{fill:var(--c2)}25.58%,100%{fill:var(--ce)}}.c.cy{fill:var(--c2);animation-name:cy}@keyframes cz{25.88%{fill:var(--c2)}25.9%,100%{fill:var(--ce)}}.c.cz{fill:var(--c2);animation-name:cz}@keyframes c10{28.79%{fill:var(--c2)}28.81%,100%{fill:var(--ce)}}.c.c10{fill:var(--c2);animation-name:c10}@keyframes c11{33%{fill:var(--c2)}33.02%,100%{fill:var(--ce)}}.c.c11{fill:var(--c2);animation-name:c11}@keyframes c12{33.32%{fill:var(--c2)}33.34%,100%{fill:var(--ce)}}.c.c12{fill:var(--c2);animation-name:c12}@keyframes c13{38.82%{fill:var(--c2)}38.84%,100%{fill:var(--ce)}}.c.c13{fill:var(--c2);animation-name:c13}@keyframes c14{21.67%{fill:var(--c2)}21.69%,100%{fill:var(--ce)}}.c.c14{fill:var(--c2);animation-name:c14}@keyframes c15{25.23%{fill:var(--c2)}25.25%,100%{fill:var(--ce)}}.c.c15{fill:var(--c2);animation-name:c15}@keyframes c16{26.2%{fill:var(--c2)}26.22%,100%{fill:var(--ce)}}.c.c16{fill:var(--c2);animation-name:c16}@keyframes c17{28.47%{fill:var(--c2)}28.49%,100%{fill:var(--ce)}}.c.c17{fill:var(--c2);animation-name:c17}@keyframes c18{66.33%{fill:var(--c4)}66.35%,100%{fill:var(--ce)}}.c.c18{fill:var(--c4);animation-name:c18}@keyframes c19{33.65%{fill:var(--c2)}33.67%,100%{fill:var(--ce)}}.c.c19{fill:var(--c2);animation-name:c19}@keyframes c1a{38.5%{fill:var(--c2)}38.52%,100%{fill:var(--ce)}}.c.c1a{fill:var(--c2);animation-name:c1a}@keyframes c1b{22%{fill:var(--c2)}22.02%,100%{fill:var(--ce)}}.c.c1b{fill:var(--c2);animation-name:c1b}@keyframes c1c{24.91%{fill:var(--c2)}24.93%,100%{fill:var(--ce)}}.c.c1c{fill:var(--c2);animation-name:c1c}@keyframes c1d{26.53%{fill:var(--c2)}26.55%,100%{fill:var(--ce)}}.c.c1d{fill:var(--c2);animation-name:c1d}@keyframes c1e{28.15%{fill:var(--c2)}28.17%,100%{fill:var(--ce)}}.c.c1e{fill:var(--c2);animation-name:c1e}@keyframes c1f{35.59%{fill:var(--c2)}35.61%,100%{fill:var(--ce)}}.c.c1f{fill:var(--c2);animation-name:c1f}@keyframes c1g{33.97%{fill:var(--c2)}33.99%,100%{fill:var(--ce)}}.c.c1g{fill:var(--c2);animation-name:c1g}@keyframes c1h{36.24%{fill:var(--c2)}36.26%,100%{fill:var(--ce)}}.c.c1h{fill:var(--c2);animation-name:c1h}@keyframes c1i{22.32%{fill:var(--c2)}22.34%,100%{fill:var(--ce)}}.c.c1i{fill:var(--c2);animation-name:c1i}@keyframes c1j{24.59%{fill:var(--c2)}24.61%,100%{fill:var(--ce)}}.c.c1j{fill:var(--c2);animation-name:c1j}@keyframes c1k{26.85%{fill:var(--c2)}26.87%,100%{fill:var(--ce)}}.c.c1k{fill:var(--c2);animation-name:c1k}@keyframes c1l{27.82%{fill:var(--c2)}27.84%,100%{fill:var(--ce)}}.c.c1l{fill:var(--c2);animation-name:c1l}@keyframes c1m{35.27%{fill:var(--c2)}35.29%,100%{fill:var(--ce)}}.c.c1m{fill:var(--c2);animation-name:c1m}@keyframes c1n{34.29%{fill:var(--c2)}34.31%,100%{fill:var(--ce)}}.c.c1n{fill:var(--c2);animation-name:c1n}@keyframes c1o{36.56%{fill:var(--c2)}36.58%,100%{fill:var(--ce)}}.c.c1o{fill:var(--c2);animation-name:c1o}@keyframes c1p{22.64%{fill:var(--c2)}22.66%,100%{fill:var(--ce)}}.c.c1p{fill:var(--c2);animation-name:c1p}@keyframes c1q{24.26%{fill:var(--c2)}24.28%,100%{fill:var(--ce)}}.c.c1q{fill:var(--c2);animation-name:c1q}@keyframes c1r{27.17%{fill:var(--c2)}27.19%,100%{fill:var(--ce)}}.c.c1r{fill:var(--c2);animation-name:c1r}@keyframes c1s{27.5%{fill:var(--c2)}27.52%,100%{fill:var(--ce)}}.c.c1s{fill:var(--c2);animation-name:c1s}@keyframes c1t{34.94%{fill:var(--c2)}34.96%,100%{fill:var(--ce)}}.c.c1t{fill:var(--c2);animation-name:c1t}@keyframes c1u{34.62%{fill:var(--c2)}34.64%,100%{fill:var(--ce)}}.c.c1u{fill:var(--c2);animation-name:c1u}@keyframes c1v{36.88%{fill:var(--c2)}36.9%,100%{fill:var(--ce)}}.c.c1v{fill:var(--c2);animation-name:c1v}@keyframes c1w{22.97%{fill:var(--c2)}22.99%,100%{fill:var(--ce)}}.c.c1w{fill:var(--c2);animation-name:c1w}@keyframes c1x{75.72%{fill:var(--c4)}75.74%,100%{fill:var(--ce)}}.c.c1x{fill:var(--c4);animation-name:c1x}@keyframes c1y{75.39%{fill:var(--c4)}75.41%,100%{fill:var(--ce)}}.c.c1y{fill:var(--c4);animation-name:c1y}@keyframes c1z{83.49%{fill:var(--c4)}83.51%,100%{fill:var(--ce)}}.c.c1z{fill:var(--c4);animation-name:c1z}@keyframes c20{67.63%{fill:var(--c4)}67.65%,100%{fill:var(--ce)}}.c.c20{fill:var(--c4);animation-name:c20}@keyframes c21{80.9%{fill:var(--c4)}80.92%,100%{fill:var(--ce)}}.c.c21{fill:var(--c4);animation-name:c21}@keyframes c22{81.22%{fill:var(--c4)}81.24%,100%{fill:var(--ce)}}.c.c22{fill:var(--c4);animation-name:c22}@keyframes c23{72.48%{fill:var(--c4)}72.5%,100%{fill:var(--ce)}}.c.c23{fill:var(--c4);animation-name:c23}@keyframes c24{72.81%{fill:var(--c4)}72.83%,100%{fill:var(--ce)}}.c.c24{fill:var(--c4);animation-name:c24}@keyframes c25{75.07%{fill:var(--c4)}75.09%,100%{fill:var(--ce)}}.c.c25{fill:var(--c4);animation-name:c25}@keyframes c26{76.69%{fill:var(--c4)}76.71%,100%{fill:var(--ce)}}.c.c26{fill:var(--c4);animation-name:c26}@keyframes c27{67.95%{fill:var(--c4)}67.97%,100%{fill:var(--ce)}}.c.c27{fill:var(--c4);animation-name:c27}@keyframes c28{80.57%{fill:var(--c4)}80.59%,100%{fill:var(--ce)}}.c.c28{fill:var(--c4);animation-name:c28}@keyframes c29{81.54%{fill:var(--c4)}81.56%,100%{fill:var(--ce)}}.c.c29{fill:var(--c4);animation-name:c29}@keyframes c2a{72.16%{fill:var(--c4)}72.18%,100%{fill:var(--ce)}}.c.c2a{fill:var(--c4);animation-name:c2a}@keyframes c2b{73.13%{fill:var(--c4)}73.15%,100%{fill:var(--ce)}}.c.c2b{fill:var(--c4);animation-name:c2b}@keyframes c2c{74.75%{fill:var(--c4)}74.77%,100%{fill:var(--ce)}}.c.c2c{fill:var(--c4);animation-name:c2c}@keyframes c2d{77.01%{fill:var(--c4)}77.03%,100%{fill:var(--ce)}}.c.c2d{fill:var(--c4);animation-name:c2d}@keyframes c2e{68.27%{fill:var(--c4)}68.29%,100%{fill:var(--ce)}}.c.c2e{fill:var(--c4);animation-name:c2e}@keyframes c2f{80.25%{fill:var(--c4)}80.27%,100%{fill:var(--ce)}}.c.c2f{fill:var(--c4);animation-name:c2f}@keyframes c2g{81.87%{fill:var(--c4)}81.89%,100%{fill:var(--ce)}}.c.c2g{fill:var(--c4);animation-name:c2g}@keyframes c2h{71.83%{fill:var(--c4)}71.85%,100%{fill:var(--ce)}}.c.c2h{fill:var(--c4);animation-name:c2h}@keyframes c2i{73.45%{fill:var(--c4)}73.47%,100%{fill:var(--ce)}}.c.c2i{fill:var(--c4);animation-name:c2i}@keyframes c2j{74.42%{fill:var(--c4)}74.44%,100%{fill:var(--ce)}}.c.c2j{fill:var(--c4);animation-name:c2j}@keyframes c2k{77.34%{fill:var(--c4)}77.36%,100%{fill:var(--ce)}}.c.c2k{fill:var(--c4);animation-name:c2k}@keyframes c2l{68.6%{fill:var(--c4)}68.62%,100%{fill:var(--ce)}}.c.c2l{fill:var(--c4);animation-name:c2l}@keyframes c2m{79.93%{fill:var(--c4)}79.95%,100%{fill:var(--ce)}}.c.c2m{fill:var(--c4);animation-name:c2m}@keyframes c2n{79.6%{fill:var(--c4)}79.62%,100%{fill:var(--ce)}}.c.c2n{fill:var(--c4);animation-name:c2n}@keyframes c2o{71.51%{fill:var(--c4)}71.53%,100%{fill:var(--ce)}}.c.c2o{fill:var(--c4);animation-name:c2o}@keyframes c2p{73.78%{fill:var(--c4)}73.8%,100%{fill:var(--ce)}}.c.c2p{fill:var(--c4);animation-name:c2p}@keyframes c2q{74.1%{fill:var(--c4)}74.12%,100%{fill:var(--ce)}}.c.c2q{fill:var(--c4);animation-name:c2q}@keyframes c2r{77.66%{fill:var(--c4)}77.68%,100%{fill:var(--ce)}}.c.c2r{fill:var(--c4);animation-name:c2r}@keyframes c2s{68.92%{fill:var(--c4)}68.94%,100%{fill:var(--ce)}}.c.c2s{fill:var(--c4);animation-name:c2s}@keyframes c2t{78.31%{fill:var(--c4)}78.33%,100%{fill:var(--ce)}}.c.c2t{fill:var(--c4);animation-name:c2t}@keyframes c2u{79.28%{fill:var(--c4)}79.3%,100%{fill:var(--ce)}}.c.c2u{fill:var(--c4);animation-name:c2u}@keyframes c2v{71.19%{fill:var(--c4)}71.21%,100%{fill:var(--ce)}}.c.c2v{fill:var(--c4);animation-name:c2v}@keyframes c2w{70.22%{fill:var(--c4)}70.24%,100%{fill:var(--ce)}}.c.c2w{fill:var(--c4);animation-name:c2w}@keyframes c2x{69.89%{fill:var(--c4)}69.91%,100%{fill:var(--ce)}}.c.c2x{fill:var(--c4);animation-name:c2x}@keyframes c2y{69.57%{fill:var(--c4)}69.59%,100%{fill:var(--ce)}}.c.c2y{fill:var(--c4);animation-name:c2y}@keyframes c2z{69.25%{fill:var(--c4)}69.27%,100%{fill:var(--ce)}}.c.c2z{fill:var(--c4);animation-name:c2z}@keyframes c30{78.63%{fill:var(--c4)}78.65%,100%{fill:var(--ce)}}.c.c30{fill:var(--c4);animation-name:c30}@keyframes c31{78.95%{fill:var(--c4)}78.97%,100%{fill:var(--ce)}}.c.c31{fill:var(--c4);animation-name:c31}@keyframes c32{70.86%{fill:var(--c4)}70.88%,100%{fill:var(--ce)}}.c.c32{fill:var(--c4);animation-name:c32}@keyframes c33{70.54%{fill:var(--c4)}70.56%,100%{fill:var(--ce)}}.c.c33{fill:var(--c4);animation-name:c33}.u{transform-origin:0 0;transform:scale(0,1);animation:none linear 30900ms infinite}@keyframes u0{3.55%{transform:scale(0.000,1)}3.57%,3.87%{transform:scale(0.111,1)}3.89%,5.82%{transform:scale(0.222,1)}5.84%,11.64%{transform:scale(0.333,1)}11.66%,15.2%{transform:scale(0.444,1)}15.22%,15.85%{transform:scale(0.556,1)}15.87%,16.82%{transform:scale(0.667,1)}16.84%,17.14%{transform:scale(0.778,1)}17.16%,19.41%{transform:scale(0.889,1)}19.43%,100%{transform:scale(1.000,1)}}.u.u0{fill:var(--c1);animation-name:u0;transform-origin:0.0px 0}@keyframes u1{20.7%{transform:scale(0.000,1)}20.72%,21.03%{transform:scale(0.019,1)}21.05%,21.35%{transform:scale(0.037,1)}21.37%,21.67%{transform:scale(0.056,1)}21.69%,22%{transform:scale(0.074,1)}22.02%,22.32%{transform:scale(0.093,1)}22.34%,22.64%{transform:scale(0.111,1)}22.66%,22.97%{transform:scale(0.130,1)}22.99%,24.26%{transform:scale(0.148,1)}24.28%,24.59%{transform:scale(0.167,1)}24.61%,24.91%{transform:scale(0.185,1)}24.93%,25.23%{transform:scale(0.204,1)}25.25%,25.56%{transform:scale(0.222,1)}25.58%,25.88%{transform:scale(0.241,1)}25.9%,26.2%{transform:scale(0.259,1)}26.22%,26.53%{transform:scale(0.278,1)}26.55%,26.85%{transform:scale(0.296,1)}26.87%,27.17%{transform:scale(0.315,1)}27.19%,27.5%{transform:scale(0.333,1)}27.52%,27.82%{transform:scale(0.352,1)}27.84%,28.15%{transform:scale(0.370,1)}28.17%,28.47%{transform:scale(0.389,1)}28.49%,28.79%{transform:scale(0.407,1)}28.81%,29.12%{transform:scale(0.426,1)}29.14%,29.44%{transform:scale(0.444,1)}29.46%,29.76%{transform:scale(0.463,1)}29.78%,30.09%{transform:scale(0.481,1)}30.11%,32.03%{transform:scale(0.500,1)}32.05%,32.35%{transform:scale(0.519,1)}32.37%,32.68%{transform:scale(0.537,1)}32.7%,33%{transform:scale(0.556,1)}33.02%,33.32%{transform:scale(0.574,1)}33.34%,33.65%{transform:scale(0.593,1)}33.67%,33.97%{transform:scale(0.611,1)}33.99%,34.29%{transform:scale(0.630,1)}34.31%,34.62%{transform:scale(0.648,1)}34.64%,34.94%{transform:scale(0.667,1)}34.96%,35.27%{transform:scale(0.685,1)}35.29%,35.59%{transform:scale(0.704,1)}35.61%,36.24%{transform:scale(0.722,1)}36.26%,36.56%{transform:scale(0.741,1)}36.58%,36.88%{transform:scale(0.759,1)}36.9%,38.5%{transform:scale(0.778,1)}38.52%,38.82%{transform:scale(0.796,1)}38.84%,39.15%{transform:scale(0.815,1)}39.17%,39.47%{transform:scale(0.833,1)}39.49%,39.8%{transform:scale(0.852,1)}39.82%,40.12%{transform:scale(0.870,1)}40.14%,40.44%{transform:scale(0.889,1)}40.46%,41.41%{transform:scale(0.907,1)}41.43%,41.74%{transform:scale(0.926,1)}41.76%,43.03%{transform:scale(0.944,1)}43.05%,49.83%{transform:scale(0.963,1)}49.85%,52.74%{transform:scale(0.981,1)}52.76%,100%{transform:scale(1.000,1)}}.u.u1{fill:var(--c2);animation-name:u1;transform-origin:68.1px 0}@keyframes u2{58.24%{transform:scale(0.000,1)}58.26%,63.42%{transform:scale(0.020,1)}63.44%,63.74%{transform:scale(0.041,1)}63.76%,64.71%{transform:scale(0.061,1)}64.73%,66.33%{transform:scale(0.082,1)}66.35%,67.63%{transform:scale(0.102,1)}67.65%,67.95%{transform:scale(0.122,1)}67.97%,68.27%{transform:scale(0.143,1)}68.29%,68.6%{transform:scale(0.163,1)}68.62%,68.92%{transform:scale(0.184,1)}68.94%,69.25%{transform:scale(0.204,1)}69.27%,69.57%{transform:scale(0.224,1)}69.59%,69.89%{transform:scale(0.245,1)}69.91%,70.22%{transform:scale(0.265,1)}70.24%,70.54%{transform:scale(0.286,1)}70.56%,70.86%{transform:scale(0.306,1)}70.88%,71.19%{transform:scale(0.327,1)}71.21%,71.51%{transform:scale(0.347,1)}71.53%,71.83%{transform:scale(0.367,1)}71.85%,72.16%{transform:scale(0.388,1)}72.18%,72.48%{transform:scale(0.408,1)}72.5%,72.81%{transform:scale(0.429,1)}72.83%,73.13%{transform:scale(0.449,1)}73.15%,73.45%{transform:scale(0.469,1)}73.47%,73.78%{transform:scale(0.490,1)}73.8%,74.1%{transform:scale(0.510,1)}74.12%,74.42%{transform:scale(0.531,1)}74.44%,74.75%{transform:scale(0.551,1)}74.77%,75.07%{transform:scale(0.571,1)}75.09%,75.39%{transform:scale(0.592,1)}75.41%,75.72%{transform:scale(0.612,1)}75.74%,76.69%{transform:scale(0.633,1)}76.71%,77.01%{transform:scale(0.653,1)}77.03%,77.34%{transform:scale(0.673,1)}77.36%,77.66%{transform:scale(0.694,1)}77.68%,78.31%{transform:scale(0.714,1)}78.33%,78.63%{transform:scale(0.735,1)}78.65%,78.95%{transform:scale(0.755,1)}78.97%,79.28%{transform:scale(0.776,1)}79.3%,79.6%{transform:scale(0.796,1)}79.62%,79.93%{transform:scale(0.816,1)}79.95%,80.25%{transform:scale(0.837,1)}80.27%,80.57%{transform:scale(0.857,1)}80.59%,80.9%{transform:scale(0.878,1)}80.92%,81.22%{transform:scale(0.898,1)}81.24%,81.54%{transform:scale(0.918,1)}81.56%,81.87%{transform:scale(0.939,1)}81.89%,83.49%{transform:scale(0.959,1)}83.51%,88.02%{transform:scale(0.980,1)}88.04%,100%{transform:scale(1.000,1)}}.u.u2{fill:var(--c4);animation-name:u2;transform-origin:477.0px 0}.s{shape-rendering:geometricPrecision;fill:var(--cs);animation:none linear 30900ms infinite}@keyframes s0{0%,99.68%{transform:translate(0px,-16px)}0.32%{transform:translate(0px,0px)}3.56%{transform:translate(160px,0px)}3.88%{transform:translate(160px,16px)}4.53%{transform:translate(128px,16px)}5.83%{transform:translate(128px,80px)}11%{transform:translate(384px,80px)}11.65%{transform:translate(384px,48px)}15.21%{transform:translate(560px,48px)}15.53%{transform:translate(560px,64px)}15.86%{transform:translate(544px,64px)}16.18%,43.37%{transform:translate(544px,80px)}16.83%{transform:translate(576px,80px)}17.15%{transform:translate(576px,96px)}17.48%{transform:translate(592px,96px)}19.09%{transform:translate(592px,16px)}19.42%{transform:translate(576px,16px)}19.74%{transform:translate(576px,0px)}22.98%,84.47%{transform:translate(736px,0px)}23.3%{transform:translate(736px,-16px)}23.62%{transform:translate(720px,-16px)}24.27%{transform:translate(720px,16px)}25.57%{transform:translate(656px,16px)}25.89%{transform:translate(656px,32px)}27.18%{transform:translate(720px,32px)}27.51%{transform:translate(720px,48px)}29.13%{transform:translate(640px,48px)}29.45%,64.4%{transform:translate(640px,32px)}29.77%{transform:translate(624px,32px)}30.42%{transform:translate(624px,0px)}30.74%{transform:translate(608px,0px)}31.07%{transform:translate(608px,16px)}31.39%{transform:translate(624px,16px)}32.36%,40.78%{transform:translate(624px,64px)}33.01%{transform:translate(656px,64px)}33.33%{transform:translate(656px,80px)}34.63%,37.22%{transform:translate(720px,80px)}34.95%{transform:translate(720px,64px)}35.6%{transform:translate(688px,64px)}36.25%{transform:translate(688px,96px)}36.89%{transform:translate(720px,96px)}38.19%{transform:translate(672px,80px)}38.51%{transform:translate(672px,96px)}39.16%{transform:translate(640px,96px)}39.48%{transform:translate(640px,80px)}40.13%{transform:translate(608px,80px)}40.45%,63.11%{transform:translate(608px,64px)}41.42%{transform:translate(624px,96px)}43.04%{transform:translate(544px,96px)}47.25%{transform:translate(352px,80px)}47.57%{transform:translate(352px,64px)}52.1%{transform:translate(128px,64px)}52.75%{transform:translate(128px,96px)}57.61%{transform:translate(368px,96px)}58.25%{transform:translate(368px,64px)}63.75%{transform:translate(608px,32px)}64.72%{transform:translate(640px,16px)}65.37%{transform:translate(672px,16px)}66.34%{transform:translate(672px,64px)}69.26%{transform:translate(816px,64px)}70.23%{transform:translate(816px,16px)}70.55%{transform:translate(832px,16px)}70.87%{transform:translate(832px,0px)}72.49%{transform:translate(752px,0px)}72.82%,76.05%{transform:translate(752px,16px)}73.79%{transform:translate(800px,16px)}74.11%{transform:translate(800px,32px)}75.4%{transform:translate(736px,32px)}75.73%{transform:translate(736px,16px)}76.7%{transform:translate(752px,48px)}77.67%{transform:translate(800px,48px)}78.32%{transform:translate(800px,80px)}78.64%{transform:translate(816px,80px)}78.96%{transform:translate(816px,96px)}79.61%{transform:translate(784px,96px)}79.94%{transform:translate(784px,80px)}80.91%{transform:translate(736px,80px)}81.23%{transform:translate(736px,96px)}81.88%{transform:translate(768px,96px)}82.85%{transform:translate(768px,48px)}83.5%{transform:translate(736px,48px)}97.41%{transform:translate(96px,0px)}97.73%{transform:translate(96px,-16px)}}.s.s0{transform:translate(0px,-16px);animation-name:s0}@keyframes s1{0%,99.68%{transform:translate(16px,-16px)}0.32%{transform:translate(0px,-16px)}0.65%{transform:translate(0px,0px)}3.88%{transform:translate(160px,0px)}4.21%{transform:translate(160px,16px)}4.85%{transform:translate(128px,16px)}6.15%{transform:translate(128px,80px)}11.33%{transform:translate(384px,80px)}11.97%{transform:translate(384px,48px)}15.53%{transform:translate(560px,48px)}15.86%{transform:translate(560px,64px)}16.18%{transform:translate(544px,64px)}16.5%,43.69%{transform:translate(544px,80px)}17.15%{transform:translate(576px,80px)}17.48%{transform:translate(576px,96px)}17.8%{transform:translate(592px,96px)}19.42%{transform:translate(592px,16px)}19.74%{transform:translate(576px,16px)}20.06%{transform:translate(576px,0px)}23.3%,84.79%{transform:translate(736px,0px)}23.62%{transform:translate(736px,-16px)}23.95%{transform:translate(720px,-16px)}24.6%{transform:translate(720px,16px)}25.89%{transform:translate(656px,16px)}26.21%{transform:translate(656px,32px)}27.51%{transform:translate(720px,32px)}27.83%{transform:translate(720px,48px)}29.45%{transform:translate(640px,48px)}29.77%,64.72%{transform:translate(640px,32px)}30.1%{transform:translate(624px,32px)}30.74%{transform:translate(624px,0px)}31.07%{transform:translate(608px,0px)}31.39%{transform:translate(608px,16px)}31.72%{transform:translate(624px,16px)}32.69%,41.1%{transform:translate(624px,64px)}33.33%{transform:translate(656px,64px)}33.66%{transform:translate(656px,80px)}34.95%,37.54%{transform:translate(720px,80px)}35.28%{transform:translate(720px,64px)}35.92%{transform:translate(688px,64px)}36.57%{transform:translate(688px,96px)}37.22%{transform:translate(720px,96px)}38.51%{transform:translate(672px,80px)}38.83%{transform:translate(672px,96px)}39.48%{transform:translate(640px,96px)}39.81%{transform:translate(640px,80px)}40.45%{transform:translate(608px,80px)}40.78%,63.43%{transform:translate(608px,64px)}41.75%{transform:translate(624px,96px)}43.37%{transform:translate(544px,96px)}47.57%{transform:translate(352px,80px)}47.9%{transform:translate(352px,64px)}52.43%{transform:translate(128px,64px)}53.07%{transform:translate(128px,96px)}57.93%{transform:translate(368px,96px)}58.58%{transform:translate(368px,64px)}64.08%{transform:translate(608px,32px)}65.05%{transform:translate(640px,16px)}65.7%{transform:translate(672px,16px)}66.67%{transform:translate(672px,64px)}69.58%{transform:translate(816px,64px)}70.55%{transform:translate(816px,16px)}70.87%{transform:translate(832px,16px)}71.2%{transform:translate(832px,0px)}72.82%{transform:translate(752px,0px)}73.14%,76.38%{transform:translate(752px,16px)}74.11%{transform:translate(800px,16px)}74.43%{transform:translate(800px,32px)}75.73%{transform:translate(736px,32px)}76.05%{transform:translate(736px,16px)}77.02%{transform:translate(752px,48px)}77.99%{transform:translate(800px,48px)}78.64%{transform:translate(800px,80px)}78.96%{transform:translate(816px,80px)}79.29%{transform:translate(816px,96px)}79.94%{transform:translate(784px,96px)}80.26%{transform:translate(784px,80px)}81.23%{transform:translate(736px,80px)}81.55%{transform:translate(736px,96px)}82.2%{transform:translate(768px,96px)}83.17%{transform:translate(768px,48px)}83.82%{transform:translate(736px,48px)}97.73%{transform:translate(96px,0px)}98.06%{transform:translate(96px,-16px)}}.s.s1{transform:translate(16px,-16px);animation-name:s1}@keyframes s2{0%,99.68%{transform:translate(32px,-16px)}0.65%{transform:translate(0px,-16px)}0.97%{transform:translate(0px,0px)}4.21%{transform:translate(160px,0px)}4.53%{transform:translate(160px,16px)}5.18%{transform:translate(128px,16px)}6.47%{transform:translate(128px,80px)}11.65%{transform:translate(384px,80px)}12.3%{transform:translate(384px,48px)}15.86%{transform:translate(560px,48px)}16.18%{transform:translate(560px,64px)}16.5%{transform:translate(544px,64px)}16.83%,44.01%{transform:translate(544px,80px)}17.48%{transform:translate(576px,80px)}17.8%{transform:translate(576px,96px)}18.12%{transform:translate(592px,96px)}19.74%{transform:translate(592px,16px)}20.06%{transform:translate(576px,16px)}20.39%{transform:translate(576px,0px)}23.62%,85.11%{transform:translate(736px,0px)}23.95%{transform:translate(736px,-16px)}24.27%{transform:translate(720px,-16px)}24.92%{transform:translate(720px,16px)}26.21%{transform:translate(656px,16px)}26.54%{transform:translate(656px,32px)}27.83%{transform:translate(720px,32px)}28.16%{transform:translate(720px,48px)}29.77%{transform:translate(640px,48px)}30.1%,65.05%{transform:translate(640px,32px)}30.42%{transform:translate(624px,32px)}31.07%{transform:translate(624px,0px)}31.39%{transform:translate(608px,0px)}31.72%{transform:translate(608px,16px)}32.04%{transform:translate(624px,16px)}33.01%,41.42%{transform:translate(624px,64px)}33.66%{transform:translate(656px,64px)}33.98%{transform:translate(656px,80px)}35.28%,37.86%{transform:translate(720px,80px)}35.6%{transform:translate(720px,64px)}36.25%{transform:translate(688px,64px)}36.89%{transform:translate(688px,96px)}37.54%{transform:translate(720px,96px)}38.83%{transform:translate(672px,80px)}39.16%{transform:translate(672px,96px)}39.81%{transform:translate(640px,96px)}40.13%{transform:translate(640px,80px)}40.78%{transform:translate(608px,80px)}41.1%,63.75%{transform:translate(608px,64px)}42.07%{transform:translate(624px,96px)}43.69%{transform:translate(544px,96px)}47.9%{transform:translate(352px,80px)}48.22%{transform:translate(352px,64px)}52.75%{transform:translate(128px,64px)}53.4%{transform:translate(128px,96px)}58.25%{transform:translate(368px,96px)}58.9%{transform:translate(368px,64px)}64.4%{transform:translate(608px,32px)}65.37%{transform:translate(640px,16px)}66.02%{transform:translate(672px,16px)}66.99%{transform:translate(672px,64px)}69.9%{transform:translate(816px,64px)}70.87%{transform:translate(816px,16px)}71.2%{transform:translate(832px,16px)}71.52%{transform:translate(832px,0px)}73.14%{transform:translate(752px,0px)}73.46%,76.7%{transform:translate(752px,16px)}74.43%{transform:translate(800px,16px)}74.76%{transform:translate(800px,32px)}76.05%{transform:translate(736px,32px)}76.38%{transform:translate(736px,16px)}77.35%{transform:translate(752px,48px)}78.32%{transform:translate(800px,48px)}78.96%{transform:translate(800px,80px)}79.29%{transform:translate(816px,80px)}79.61%{transform:translate(816px,96px)}80.26%{transform:translate(784px,96px)}80.58%{transform:translate(784px,80px)}81.55%{transform:translate(736px,80px)}81.88%{transform:translate(736px,96px)}82.52%{transform:translate(768px,96px)}83.5%{transform:translate(768px,48px)}84.14%{transform:translate(736px,48px)}98.06%{transform:translate(96px,0px)}98.38%{transform:translate(96px,-16px)}}.s.s2{transform:translate(32px,-16px);animation-name:s2}@keyframes s3{0%,99.68%{transform:translate(48px,-16px)}0.97%{transform:translate(0px,-16px)}1.29%{transform:translate(0px,0px)}4.53%{transform:translate(160px,0px)}4.85%{transform:translate(160px,16px)}5.5%{transform:translate(128px,16px)}6.8%{transform:translate(128px,80px)}11.97%{transform:translate(384px,80px)}12.62%{transform:translate(384px,48px)}16.18%{transform:translate(560px,48px)}16.5%{transform:translate(560px,64px)}16.83%{transform:translate(544px,64px)}17.15%,44.34%{transform:translate(544px,80px)}17.8%{transform:translate(576px,80px)}18.12%{transform:translate(576px,96px)}18.45%{transform:translate(592px,96px)}20.06%{transform:translate(592px,16px)}20.39%{transform:translate(576px,16px)}20.71%{transform:translate(576px,0px)}23.95%,85.44%{transform:translate(736px,0px)}24.27%{transform:translate(736px,-16px)}24.6%{transform:translate(720px,-16px)}25.24%{transform:translate(720px,16px)}26.54%{transform:translate(656px,16px)}26.86%{transform:translate(656px,32px)}28.16%{transform:translate(720px,32px)}28.48%{transform:translate(720px,48px)}30.1%{transform:translate(640px,48px)}30.42%,65.37%{transform:translate(640px,32px)}30.74%{transform:translate(624px,32px)}31.39%{transform:translate(624px,0px)}31.72%{transform:translate(608px,0px)}32.04%{transform:translate(608px,16px)}32.36%{transform:translate(624px,16px)}33.33%,41.75%{transform:translate(624px,64px)}33.98%{transform:translate(656px,64px)}34.3%{transform:translate(656px,80px)}35.6%,38.19%{transform:translate(720px,80px)}35.92%{transform:translate(720px,64px)}36.57%{transform:translate(688px,64px)}37.22%{transform:translate(688px,96px)}37.86%{transform:translate(720px,96px)}39.16%{transform:translate(672px,80px)}39.48%{transform:translate(672px,96px)}40.13%{transform:translate(640px,96px)}40.45%{transform:translate(640px,80px)}41.1%{transform:translate(608px,80px)}41.42%,64.08%{transform:translate(608px,64px)}42.39%{transform:translate(624px,96px)}44.01%{transform:translate(544px,96px)}48.22%{transform:translate(352px,80px)}48.54%{transform:translate(352px,64px)}53.07%{transform:translate(128px,64px)}53.72%{transform:translate(128px,96px)}58.58%{transform:translate(368px,96px)}59.22%{transform:translate(368px,64px)}64.72%{transform:translate(608px,32px)}65.7%{transform:translate(640px,16px)}66.34%{transform:translate(672px,16px)}67.31%{transform:translate(672px,64px)}70.23%{transform:translate(816px,64px)}71.2%{transform:translate(816px,16px)}71.52%{transform:translate(832px,16px)}71.84%{transform:translate(832px,0px)}73.46%{transform:translate(752px,0px)}73.79%,77.02%{transform:translate(752px,16px)}74.76%{transform:translate(800px,16px)}75.08%{transform:translate(800px,32px)}76.38%{transform:translate(736px,32px)}76.7%{transform:translate(736px,16px)}77.67%{transform:translate(752px,48px)}78.64%{transform:translate(800px,48px)}79.29%{transform:translate(800px,80px)}79.61%{transform:translate(816px,80px)}79.94%{transform:translate(816px,96px)}80.58%{transform:translate(784px,96px)}80.91%{transform:translate(784px,80px)}81.88%{transform:translate(736px,80px)}82.2%{transform:translate(736px,96px)}82.85%{transform:translate(768px,96px)}83.82%{transform:translate(768px,48px)}84.47%{transform:translate(736px,48px)}98.38%{transform:translate(96px,0px)}98.71%{transform:translate(96px,-16px)}}.s.s3{transform:translate(48px,-16px);animation-name:s3}</style><rect class="c" x="2" y="2" rx="2" ry="2"/><rect class="c" x="2" y="18" rx="2" ry="2"/><rect class="c" x="2" y="34" rx="2" ry="2"/><rect class="c" x="2" y="50" rx="2" ry="2"/><rect class="c" x="2" y="66" rx="2" ry="2"/><rect class="c" x="2" y="82" rx="2" ry="2"/><rect class="c" x="2" y="98" rx="2" ry="2"/><rect class="c" x="18" y="2" rx="2" ry="2"/><rect class="c" x="18" y="18" rx="2" ry="2"/><rect class="c" x="18" y="34" rx="2" ry="2"/><rect class="c" x="18" y="50" rx="2" ry="2"/><rect class="c" x="18" y="66" rx="2" ry="2"/><rect class="c" x="18" y="82" rx="2" ry="2"/><rect class="c" x="18" y="98" rx="2" ry="2"/><rect class="c" x="34" y="2" rx="2" ry="2"/><rect class="c" x="34" y="18" rx="2" ry="2"/><rect class="c" x="34" y="34" rx="2" ry="2"/><rect class="c" x="34" y="50" rx="2" ry="2"/><rect class="c" x="34" y="66" rx="2" ry="2"/><rect class="c" x="34" y="82" rx="2" ry="2"/><rect class="c" x="34" y="98" rx="2" ry="2"/><rect class="c" x="50" y="2" rx="2" ry="2"/><rect class="c" x="50" y="18" rx="2" ry="2"/><rect class="c" x="50" y="34" rx="2" ry="2"/><rect class="c" x="50" y="50" rx="2" ry="2"/><rect class="c" x="50" y="66" rx="2" ry="2"/><rect class="c" x="50" y="82" rx="2" ry="2"/><rect class="c" x="50" y="98" rx="2" ry="2"/><rect class="c" x="66" y="2" rx="2" ry="2"/><rect class="c" x="66" y="18" rx="2" ry="2"/><rect class="c" x="66" y="34" rx="2" ry="2"/><rect class="c" x="66" y="50" rx="2" ry="2"/><rect class="c" x="66" y="66" rx="2" ry="2"/><rect class="c" x="66" y="82" rx="2" ry="2"/><rect class="c" x="66" y="98" rx="2" ry="2"/><rect class="c" x="82" y="2" rx="2" ry="2"/><rect class="c" x="82" y="18" rx="2" ry="2"/><rect class="c" x="82" y="34" rx="2" ry="2"/><rect class="c" x="82" y="50" rx="2" ry="2"/><rect class="c" x="82" y="66" rx="2" ry="2"/><rect class="c" x="82" y="82" rx="2" ry="2"/><rect class="c" x="82" y="98" rx="2" ry="2"/><rect class="c" x="98" y="2" rx="2" ry="2"/><rect class="c" x="98" y="18" rx="2" ry="2"/><rect class="c" x="98" y="34" rx="2" ry="2"/><rect class="c" x="98" y="50" rx="2" ry="2"/><rect class="c" x="98" y="66" rx="2" ry="2"/><rect class="c" x="98" y="82" rx="2" ry="2"/><rect class="c" x="98" y="98" rx="2" ry="2"/><rect class="c" x="114" y="2" rx="2" ry="2"/><rect class="c" x="114" y="18" rx="2" ry="2"/><rect class="c" x="114" y="34" rx="2" ry="2"/><rect class="c" x="114" y="50" rx="2" ry="2"/><rect class="c" x="114" y="66" rx="2" ry="2"/><rect class="c" x="114" y="82" rx="2" ry="2"/><rect class="c" x="114" y="98" rx="2" ry="2"/><rect class="c" x="130" y="2" rx="2" ry="2"/><rect class="c" x="130" y="18" rx="2" ry="2"/><rect class="c" x="130" y="34" rx="2" ry="2"/><rect class="c" x="130" y="50" rx="2" ry="2"/><rect class="c" x="130" y="66" rx="2" ry="2"/><rect class="c c0" x="130" y="82" rx="2" ry="2"/><rect class="c c1" x="130" y="98" rx="2" ry="2"/><rect class="c" x="146" y="2" rx="2" ry="2"/><rect class="c" x="146" y="18" rx="2" ry="2"/><rect class="c" x="146" y="34" rx="2" ry="2"/><rect class="c" x="146" y="50" rx="2" ry="2"/><rect class="c" x="146" y="66" rx="2" ry="2"/><rect class="c" x="146" y="82" rx="2" ry="2"/><rect class="c" x="146" y="98" rx="2" ry="2"/><rect class="c c2" x="162" y="2" rx="2" ry="2"/><rect class="c c3" x="162" y="18" rx="2" ry="2"/><rect class="c" x="162" y="34" rx="2" ry="2"/><rect class="c" x="162" y="50" rx="2" ry="2"/><rect class="c" x="162" y="66" rx="2" ry="2"/><rect class="c" x="162" y="82" rx="2" ry="2"/><rect class="c" x="162" y="98" rx="2" ry="2"/><rect class="c" x="178" y="2" rx="2" ry="2"/><rect class="c" x="178" y="18" rx="2" ry="2"/><rect class="c" x="178" y="34" rx="2" ry="2"/><rect class="c" x="178" y="50" rx="2" ry="2"/><rect class="c" x="178" y="66" rx="2" ry="2"/><rect class="c" x="178" y="82" rx="2" ry="2"/><rect class="c" x="178" y="98" rx="2" ry="2"/><rect class="c" x="194" y="2" rx="2" ry="2"/><rect class="c" x="194" y="18" rx="2" ry="2"/><rect class="c" x="194" y="34" rx="2" ry="2"/><rect class="c" x="194" y="50" rx="2" ry="2"/><rect class="c" x="194" y="66" rx="2" ry="2"/><rect class="c" x="194" y="82" rx="2" ry="2"/><rect class="c" x="194" y="98" rx="2" ry="2"/><rect class="c" x="210" y="2" rx="2" ry="2"/><rect class="c" x="210" y="18" rx="2" ry="2"/><rect class="c" x="210" y="34" rx="2" ry="2"/><rect class="c" x="210" y="50" rx="2" ry="2"/><rect class="c" x="210" y="66" rx="2" ry="2"/><rect class="c" x="210" y="82" rx="2" ry="2"/><rect class="c" x="210" y="98" rx="2" ry="2"/><rect class="c" x="226" y="2" rx="2" ry="2"/><rect class="c" x="226" y="18" rx="2" ry="2"/><rect class="c" x="226" y="34" rx="2" ry="2"/><rect class="c" x="226" y="50" rx="2" ry="2"/><rect class="c" x="226" y="66" rx="2" ry="2"/><rect class="c" x="226" y="82" rx="2" ry="2"/><rect class="c" x="226" y="98" rx="2" ry="2"/><rect class="c" x="242" y="2" rx="2" ry="2"/><rect class="c" x="242" y="18" rx="2" ry="2"/><rect class="c" x="242" y="34" rx="2" ry="2"/><rect class="c" x="242" y="50" rx="2" ry="2"/><rect class="c c4" x="242" y="66" rx="2" ry="2"/><rect class="c" x="242" y="82" rx="2" ry="2"/><rect class="c" x="242" y="98" rx="2" ry="2"/><rect class="c" x="258" y="2" rx="2" ry="2"/><rect class="c" x="258" y="18" rx="2" ry="2"/><rect class="c" x="258" y="34" rx="2" ry="2"/><rect class="c" x="258" y="50" rx="2" ry="2"/><rect class="c" x="258" y="66" rx="2" ry="2"/><rect class="c" x="258" y="82" rx="2" ry="2"/><rect class="c" x="258" y="98" rx="2" ry="2"/><rect class="c" x="274" y="2" rx="2" ry="2"/><rect class="c" x="274" y="18" rx="2" ry="2"/><rect class="c" x="274" y="34" rx="2" ry="2"/><rect class="c" x="274" y="50" rx="2" ry="2"/><rect class="c" x="274" y="66" rx="2" ry="2"/><rect class="c" x="274" y="82" rx="2" ry="2"/><rect class="c" x="274" y="98" rx="2" ry="2"/><rect class="c" x="290" y="2" rx="2" ry="2"/><rect class="c" x="290" y="18" rx="2" ry="2"/><rect class="c" x="290" y="34" rx="2" ry="2"/><rect class="c" x="290" y="50" rx="2" ry="2"/><rect class="c" x="290" y="66" rx="2" ry="2"/><rect class="c" x="290" y="82" rx="2" ry="2"/><rect class="c" x="290" y="98" rx="2" ry="2"/><rect class="c" x="306" y="2" rx="2" ry="2"/><rect class="c" x="306" y="18" rx="2" ry="2"/><rect class="c" x="306" y="34" rx="2" ry="2"/><rect class="c" x="306" y="50" rx="2" ry="2"/><rect class="c" x="306" y="66" rx="2" ry="2"/><rect class="c" x="306" y="82" rx="2" ry="2"/><rect class="c" x="306" y="98" rx="2" ry="2"/><rect class="c" x="322" y="2" rx="2" ry="2"/><rect class="c" x="322" y="18" rx="2" ry="2"/><rect class="c" x="322" y="34" rx="2" ry="2"/><rect class="c" x="322" y="50" rx="2" ry="2"/><rect class="c" x="322" y="66" rx="2" ry="2"/><rect class="c" x="322" y="82" rx="2" ry="2"/><rect class="c" x="322" y="98" rx="2" ry="2"/><rect class="c" x="338" y="2" rx="2" ry="2"/><rect class="c" x="338" y="18" rx="2" ry="2"/><rect class="c" x="338" y="34" rx="2" ry="2"/><rect class="c" x="338" y="50" rx="2" ry="2"/><rect class="c" x="338" y="66" rx="2" ry="2"/><rect class="c" x="338" y="82" rx="2" ry="2"/><rect class="c" x="338" y="98" rx="2" ry="2"/><rect class="c" x="354" y="2" rx="2" ry="2"/><rect class="c" x="354" y="18" rx="2" ry="2"/><rect class="c" x="354" y="34" rx="2" ry="2"/><rect class="c" x="354" y="50" rx="2" ry="2"/><rect class="c" x="354" y="66" rx="2" ry="2"/><rect class="c" x="354" y="82" rx="2" ry="2"/><rect class="c" x="354" y="98" rx="2" ry="2"/><rect class="c" x="370" y="2" rx="2" ry="2"/><rect class="c" x="370" y="18" rx="2" ry="2"/><rect class="c" x="370" y="34" rx="2" ry="2"/><rect class="c" x="370" y="50" rx="2" ry="2"/><rect class="c c5" x="370" y="66" rx="2" ry="2"/><rect class="c" x="370" y="82" rx="2" ry="2"/><rect class="c" x="370" y="98" rx="2" ry="2"/><rect class="c" x="386" y="2" rx="2" ry="2"/><rect class="c" x="386" y="18" rx="2" ry="2"/><rect class="c" x="386" y="34" rx="2" ry="2"/><rect class="c c6" x="386" y="50" rx="2" ry="2"/><rect class="c" x="386" y="66" rx="2" ry="2"/><rect class="c" x="386" y="82" rx="2" ry="2"/><rect class="c" x="386" y="98" rx="2" ry="2"/><rect class="c" x="402" y="2" rx="2" ry="2"/><rect class="c" x="402" y="18" rx="2" ry="2"/><rect class="c" x="402" y="34" rx="2" ry="2"/><rect class="c" x="402" y="50" rx="2" ry="2"/><rect class="c" x="402" y="66" rx="2" ry="2"/><rect class="c" x="402" y="82" rx="2" ry="2"/><rect class="c" x="402" y="98" rx="2" ry="2"/><rect class="c" x="418" y="2" rx="2" ry="2"/><rect class="c" x="418" y="18" rx="2" ry="2"/><rect class="c" x="418" y="34" rx="2" ry="2"/><rect class="c" x="418" y="50" rx="2" ry="2"/><rect class="c" x="418" y="66" rx="2" ry="2"/><rect class="c" x="418" y="82" rx="2" ry="2"/><rect class="c" x="418" y="98" rx="2" ry="2"/><rect class="c" x="434" y="2" rx="2" ry="2"/><rect class="c" x="434" y="18" rx="2" ry="2"/><rect class="c" x="434" y="34" rx="2" ry="2"/><rect class="c" x="434" y="50" rx="2" ry="2"/><rect class="c" x="434" y="66" rx="2" ry="2"/><rect class="c" x="434" y="82" rx="2" ry="2"/><rect class="c" x="434" y="98" rx="2" ry="2"/><rect class="c" x="450" y="2" rx="2" ry="2"/><rect class="c" x="450" y="18" rx="2" ry="2"/><rect class="c" x="450" y="34" rx="2" ry="2"/><rect class="c" x="450" y="50" rx="2" ry="2"/><rect class="c" x="450" y="66" rx="2" ry="2"/><rect class="c" x="450" y="82" rx="2" ry="2"/><rect class="c" x="450" y="98" rx="2" ry="2"/><rect class="c" x="466" y="2" rx="2" ry="2"/><rect class="c" x="466" y="18" rx="2" ry="2"/><rect class="c" x="466" y="34" rx="2" ry="2"/><rect class="c" x="466" y="50" rx="2" ry="2"/><rect class="c" x="466" y="66" rx="2" ry="2"/><rect class="c" x="466" y="82" rx="2" ry="2"/><rect class="c" x="466" y="98" rx="2" ry="2"/><rect class="c" x="482" y="2" rx="2" ry="2"/><rect class="c" x="482" y="18" rx="2" ry="2"/><rect class="c" x="482" y="34" rx="2" ry="2"/><rect class="c" x="482" y="50" rx="2" ry="2"/><rect class="c" x="482" y="66" rx="2" ry="2"/><rect class="c" x="482" y="82" rx="2" ry="2"/><rect class="c" x="482" y="98" rx="2" ry="2"/><rect class="c" x="498" y="2" rx="2" ry="2"/><rect class="c" x="498" y="18" rx="2" ry="2"/><rect class="c" x="498" y="34" rx="2" ry="2"/><rect class="c" x="498" y="50" rx="2" ry="2"/><rect class="c" x="498" y="66" rx="2" ry="2"/><rect class="c" x="498" y="82" rx="2" ry="2"/><rect class="c" x="498" y="98" rx="2" ry="2"/><rect class="c" x="514" y="2" rx="2" ry="2"/><rect class="c" x="514" y="18" rx="2" ry="2"/><rect class="c" x="514" y="34" rx="2" ry="2"/><rect class="c" x="514" y="50" rx="2" ry="2"/><rect class="c" x="514" y="66" rx="2" ry="2"/><rect class="c" x="514" y="82" rx="2" ry="2"/><rect class="c" x="514" y="98" rx="2" ry="2"/><rect class="c" x="530" y="2" rx="2" ry="2"/><rect class="c" x="530" y="18" rx="2" ry="2"/><rect class="c" x="530" y="34" rx="2" ry="2"/><rect class="c" x="530" y="50" rx="2" ry="2"/><rect class="c" x="530" y="66" rx="2" ry="2"/><rect class="c" x="530" y="82" rx="2" ry="2"/><rect class="c" x="530" y="98" rx="2" ry="2"/><rect class="c" x="546" y="2" rx="2" ry="2"/><rect class="c" x="546" y="18" rx="2" ry="2"/><rect class="c" x="546" y="34" rx="2" ry="2"/><rect class="c" x="546" y="50" rx="2" ry="2"/><rect class="c c7" x="546" y="66" rx="2" ry="2"/><rect class="c" x="546" y="82" rx="2" ry="2"/><rect class="c c8" x="546" y="98" rx="2" ry="2"/><rect class="c c9" x="562" y="2" rx="2" ry="2"/><rect class="c" x="562" y="18" rx="2" ry="2"/><rect class="c" x="562" y="34" rx="2" ry="2"/><rect class="c ca" x="562" y="50" rx="2" ry="2"/><rect class="c" x="562" y="66" rx="2" ry="2"/><rect class="c" x="562" y="82" rx="2" ry="2"/><rect class="c" x="562" y="98" rx="2" ry="2"/><rect class="c" x="578" y="2" rx="2" ry="2"/><rect class="c cb" x="578" y="18" rx="2" ry="2"/><rect class="c" x="578" y="34" rx="2" ry="2"/><rect class="c" x="578" y="50" rx="2" ry="2"/><rect class="c" x="578" y="66" rx="2" ry="2"/><rect class="c cc" x="578" y="82" rx="2" ry="2"/><rect class="c cd" x="578" y="98" rx="2" ry="2"/><rect class="c" x="594" y="2" rx="2" ry="2"/><rect class="c" x="594" y="18" rx="2" ry="2"/><rect class="c" x="594" y="34" rx="2" ry="2"/><rect class="c" x="594" y="50" rx="2" ry="2"/><rect class="c" x="594" y="66" rx="2" ry="2"/><rect class="c" x="594" y="82" rx="2" ry="2"/><rect class="c" x="594" y="98" rx="2" ry="2"/><rect class="c" x="610" y="2" rx="2" ry="2"/><rect class="c" x="610" y="18" rx="2" ry="2"/><rect class="c ce" x="610" y="34" rx="2" ry="2"/><rect class="c cf" x="610" y="50" rx="2" ry="2"/><rect class="c cg" x="610" y="66" rx="2" ry="2"/><rect class="c ch" x="610" y="82" rx="2" ry="2"/><rect class="c ci" x="610" y="98" rx="2" ry="2"/><rect class="c cj" x="626" y="2" rx="2" ry="2"/><rect class="c ck" x="626" y="18" rx="2" ry="2"/><rect class="c cl" x="626" y="34" rx="2" ry="2"/><rect class="c cm" x="626" y="50" rx="2" ry="2"/><rect class="c cn" x="626" y="66" rx="2" ry="2"/><rect class="c co" x="626" y="82" rx="2" ry="2"/><rect class="c cp" x="626" y="98" rx="2" ry="2"/><rect class="c cq" x="642" y="2" rx="2" ry="2"/><rect class="c cr" x="642" y="18" rx="2" ry="2"/><rect class="c cs" x="642" y="34" rx="2" ry="2"/><rect class="c ct" x="642" y="50" rx="2" ry="2"/><rect class="c cu" x="642" y="66" rx="2" ry="2"/><rect class="c cv" x="642" y="82" rx="2" ry="2"/><rect class="c cw" x="642" y="98" rx="2" ry="2"/><rect class="c cx" x="658" y="2" rx="2" ry="2"/><rect class="c cy" x="658" y="18" rx="2" ry="2"/><rect class="c cz" x="658" y="34" rx="2" ry="2"/><rect class="c c10" x="658" y="50" rx="2" ry="2"/><rect class="c c11" x="658" y="66" rx="2" ry="2"/><rect class="c c12" x="658" y="82" rx="2" ry="2"/><rect class="c c13" x="658" y="98" rx="2" ry="2"/><rect class="c c14" x="674" y="2" rx="2" ry="2"/><rect class="c c15" x="674" y="18" rx="2" ry="2"/><rect class="c c16" x="674" y="34" rx="2" ry="2"/><rect class="c c17" x="674" y="50" rx="2" ry="2"/><rect class="c c18" x="674" y="66" rx="2" ry="2"/><rect class="c c19" x="674" y="82" rx="2" ry="2"/><rect class="c c1a" x="674" y="98" rx="2" ry="2"/><rect class="c c1b" x="690" y="2" rx="2" ry="2"/><rect class="c c1c" x="690" y="18" rx="2" ry="2"/><rect class="c c1d" x="690" y="34" rx="2" ry="2"/><rect class="c c1e" x="690" y="50" rx="2" ry="2"/><rect class="c c1f" x="690" y="66" rx="2" ry="2"/><rect class="c c1g" x="690" y="82" rx="2" ry="2"/><rect class="c c1h" x="690" y="98" rx="2" ry="2"/><rect class="c c1i" x="706" y="2" rx="2" ry="2"/><rect class="c c1j" x="706" y="18" rx="2" ry="2"/><rect class="c c1k" x="706" y="34" rx="2" ry="2"/><rect class="c c1l" x="706" y="50" rx="2" ry="2"/><rect class="c c1m" x="706" y="66" rx="2" ry="2"/><rect class="c c1n" x="706" y="82" rx="2" ry="2"/><rect class="c c1o" x="706" y="98" rx="2" ry="2"/><rect class="c c1p" x="722" y="2" rx="2" ry="2"/><rect class="c c1q" x="722" y="18" rx="2" ry="2"/><rect class="c c1r" x="722" y="34" rx="2" ry="2"/><rect class="c c1s" x="722" y="50" rx="2" ry="2"/><rect class="c c1t" x="722" y="66" rx="2" ry="2"/><rect class="c c1u" x="722" y="82" rx="2" ry="2"/><rect class="c c1v" x="722" y="98" rx="2" ry="2"/><rect class="c c1w" x="738" y="2" rx="2" ry="2"/><rect class="c c1x" x="738" y="18" rx="2" ry="2"/><rect class="c c1y" x="738" y="34" rx="2" ry="2"/><rect class="c c1z" x="738" y="50" rx="2" ry="2"/><rect class="c c20" x="738" y="66" rx="2" ry="2"/><rect class="c c21" x="738" y="82" rx="2" ry="2"/><rect class="c c22" x="738" y="98" rx="2" ry="2"/><rect class="c c23" x="754" y="2" rx="2" ry="2"/><rect class="c c24" x="754" y="18" rx="2" ry="2"/><rect class="c c25" x="754" y="34" rx="2" ry="2"/><rect class="c c26" x="754" y="50" rx="2" ry="2"/><rect class="c c27" x="754" y="66" rx="2" ry="2"/><rect class="c c28" x="754" y="82" rx="2" ry="2"/><rect class="c c29" x="754" y="98" rx="2" ry="2"/><rect class="c c2a" x="770" y="2" rx="2" ry="2"/><rect class="c c2b" x="770" y="18" rx="2" ry="2"/><rect class="c c2c" x="770" y="34" rx="2" ry="2"/><rect class="c c2d" x="770" y="50" rx="2" ry="2"/><rect class="c c2e" x="770" y="66" rx="2" ry="2"/><rect class="c c2f" x="770" y="82" rx="2" ry="2"/><rect class="c c2g" x="770" y="98" rx="2" ry="2"/><rect class="c c2h" x="786" y="2" rx="2" ry="2"/><rect class="c c2i" x="786" y="18" rx="2" ry="2"/><rect class="c c2j" x="786" y="34" rx="2" ry="2"/><rect class="c c2k" x="786" y="50" rx="2" ry="2"/><rect class="c c2l" x="786" y="66" rx="2" ry="2"/><rect class="c c2m" x="786" y="82" rx="2" ry="2"/><rect class="c c2n" x="786" y="98" rx="2" ry="2"/><rect class="c c2o" x="802" y="2" rx="2" ry="2"/><rect class="c c2p" x="802" y="18" rx="2" ry="2"/><rect class="c c2q" x="802" y="34" rx="2" ry="2"/><rect class="c c2r" x="802" y="50" rx="2" ry="2"/><rect class="c c2s" x="802" y="66" rx="2" ry="2"/><rect class="c c2t" x="802" y="82" rx="2" ry="2"/><rect class="c c2u" x="802" y="98" rx="2" ry="2"/><rect class="c c2v" x="818" y="2" rx="2" ry="2"/><rect class="c c2w" x="818" y="18" rx="2" ry="2"/><rect class="c c2x" x="818" y="34" rx="2" ry="2"/><rect class="c c2y" x="818" y="50" rx="2" ry="2"/><rect class="c c2z" x="818" y="66" rx="2" ry="2"/><rect class="c c30" x="818" y="82" rx="2" ry="2"/><rect class="c c31" x="818" y="98" rx="2" ry="2"/><rect class="c c32" x="834" y="2" rx="2" ry="2"/><rect class="c c33" x="834" y="18" rx="2" ry="2"/><rect class="u u0" height="12" width="68.7" x="0.0" y="144"/><rect class="u u1" height="12" width="409.5" x="68.1" y="144"/><rect class="u u2" height="12" width="371.6" x="477.0" y="144"/><rect class="s s0" x="0.8" y="0.8" width="14.4" height="14.4" rx="4.5" ry="4.5"/><rect class="s s1" x="1.8" y="1.8" width="12.3" height="12.3" rx="4.1" ry="4.1"/><rect class="s s2" x="2.6" y="2.6" width="10.8" height="10.8" rx="3.6" ry="3.6"/><rect class="s s3" x="3.0" y="3.0" width="9.9" height="9.9" rx="3.3" ry="3.3"/></svg>