<svg viewBox="-16 -32 880 192" width="880" height="192" xmlns="http://www.w3.org/2000/svg"><desc>Generated with https://github.com/Platane/snk</desc><style>:root{--cb:#1b1f230a;--cs:purple;--ce:#ebedf0;--c0:#ebedf0;--c1:#9be9a8;--c2:#40c463;--c3:#30a14e;--c4:#216e39}.c{shape-rendering:geometricPrecision;fill:var(--ce);stroke-width:1px;stroke:var(--cb);animation:none 33900ms linear infinite;width:12px;height:12px}@keyframes c0{5.3%{fill:var(--c1)}5.32%,100%{fill:var(--ce)}}.c.c0{fill:var(--c1);animation-name:c0}@keyframes c1{55.15%{fill:var(--c2)}55.17%,100%{fill:var(--ce)}}.c.c1{fill:var(--c2);animation-name:c1}@keyframes c2{3.23%{fill:var(--c1)}3.25%,100%{fill:var(--ce)}}.c.c2{fill:var(--c1);animation-name:c2}@keyframes c3{3.53%{fill:var(--c1)}3.55%,100%{fill:var(--ce)}}.c.c3{fill:var(--c1);animation-name:c3}@keyframes c4{52.5%{fill:var(--c2)}52.52%,100%{fill:var(--ce)}}.c.c4{fill:var(--c2);animation-name:c4}@keyframes c5{60.17%{fill:var(--c4)}60.19%,100%{fill:var(--ce)}}.c.c5{fill:var(--c4);animation-name:c5}@keyframes c6{10.61%{fill:var(--c1)}10.63%,100%{fill:var(--ce)}}.c.c6{fill:var(--c1);animation-name:c6}@keyframes c7{14.44%{fill:var(--c1)}14.46%,100%{fill:var(--ce)}}.c.c7{fill:var(--c1);animation-name:c7}@keyframes c8{46.3%{fill:var(--c2)}46.32%,100%{fill:var(--ce)}}.c.c8{fill:var(--c2);animation-name:c8}@keyframes c9{89.08%{fill:var(--c4)}89.1%,100%{fill:var(--ce)}}.c.c9{fill:var(--c4);animation-name:c9}@keyframes ca{13.85%{fill:var(--c1)}13.87%,100%{fill:var(--ce)}}.c.ca{fill:var(--c1);animation-name:ca}@keyframes cb{17.69%{fill:var(--c1)}17.71%,100%{fill:var(--ce)}}.c.cb{fill:var(--c1);animation-name:cb}@keyframes cc{15.33%{fill:var(--c1)}15.35%,100%{fill:var(--ce)}}.c.cc{fill:var(--c1);animation-name:cc}@keyframes cd{15.62%{fill:var(--c1)}15.64%,100%{fill:var(--ce)}}.c.cd{fill:var(--c1);animation-name:cd}@keyframes ce{65.18%{fill:var(--c4)}65.2%,100%{fill:var(--ce)}}.c.ce{fill:var(--c4);animation-name:ce}@keyframes cf{64.89%{fill:var(--c4)}64.91%,100%{fill:var(--ce)}}.c.cf{fill:var(--c4);animation-name:cf}@keyframes cg{42.17%{fill:var(--c2)}42.19%,100%{fill:var(--ce)}}.c.cg{fill:var(--c2);animation-name:cg}@keyframes ch{42.47%{fill:var(--c2)}42.49%,100%{fill:var(--ce)}}.c.ch{fill:var(--c2);animation-name:ch}@keyframes ci{45.12%{fill:var(--c2)}45.14%,100%{fill:var(--ce)}}.c.ci{fill:var(--c2);animation-name:ci}@keyframes cj{33.03%{fill:var(--c2)}33.05%,100%{fill:var(--ce)}}.c.cj{fill:var(--c2);animation-name:cj}@keyframes ck{33.32%{fill:var(--c2)}33.34%,100%{fill:var(--ce)}}.c.ck{fill:var(--c2);animation-name:ck}@keyframes cl{33.62%{fill:var(--c2)}33.64%,100%{fill:var(--ce)}}.c.cl{fill:var(--c2);animation-name:cl}@keyframes cm{41.58%{fill:var(--c2)}41.6%,100%{fill:var(--ce)}}.c.cm{fill:var(--c2);animation-name:cm}@keyframes cn{41.88%{fill:var(--c2)}41.9%,100%{fill:var(--ce)}}.c.cn{fill:var(--c2);animation-name:cn}@keyframes co{42.76%{fill:var(--c2)}42.78%,100%{fill:var(--ce)}}.c.co{fill:var(--c2);animation-name:co}@keyframes cp{44.83%{fill:var(--c2)}44.85%,100%{fill:var(--ce)}}.c.cp{fill:var(--c2);animation-name:cp}@keyframes cq{32.73%{fill:var(--c2)}32.75%,100%{fill:var(--ce)}}.c.cq{fill:var(--c2);animation-name:cq}@keyframes cr{66.07%{fill:var(--c4)}66.09%,100%{fill:var(--ce)}}.c.cr{fill:var(--c4);animation-name:cr}@keyframes cs{33.91%{fill:var(--c2)}33.93%,100%{fill:var(--ce)}}.c.cs{fill:var(--c2);animation-name:cs}@keyframes ct{41.29%{fill:var(--c2)}41.31%,100%{fill:var(--ce)}}.c.ct{fill:var(--c2);animation-name:ct}@keyframes cu{40.99%{fill:var(--c2)}41.01%,100%{fill:var(--ce)}}.c.cu{fill:var(--c2);animation-name:cu}@keyframes cv{43.06%{fill:var(--c2)}43.08%,100%{fill:var(--ce)}}.c.cv{fill:var(--c2);animation-name:cv}@keyframes cw{43.35%{fill:var(--c2)}43.37%,100%{fill:var(--ce)}}.c.cw{fill:var(--c2);animation-name:cw}@keyframes cx{32.44%{fill:var(--c2)}32.46%,100%{fill:var(--ce)}}.c.cx{fill:var(--c2);animation-name:cx}@keyframes cy{36.27%{fill:var(--c2)}36.29%,100%{fill:var(--ce)}}.c.cy{fill:var(--c2);animation-name:cy}@keyframes cz{34.21%{fill:var(--c2)}34.23%,100%{fill:var(--ce)}}.c.cz{fill:var(--c2);animation-name:cz}@keyframes c10{36.86%{fill:var(--c2)}36.88%,100%{fill:var(--ce)}}.c.c10{fill:var(--c2);animation-name:c10}@keyframes c11{40.7%{fill:var(--c2)}40.72%,100%{fill:var(--ce)}}.c.c11{fill:var(--c2);animation-name:c11}@keyframes c12{40.4%{fill:var(--c2)}40.42%,100%{fill:var(--ce)}}.c.c12{fill:var(--c2);animation-name:c12}@keyframes c13{43.65%{fill:var(--c2)}43.67%,100%{fill:var(--ce)}}.c.c13{fill:var(--c2);animation-name:c13}@keyframes c14{32.14%{fill:var(--c2)}32.16%,100%{fill:var(--ce)}}.c.c14{fill:var(--c2);animation-name:c14}@keyframes c15{35.98%{fill:var(--c2)}36%,100%{fill:var(--ce)}}.c.c15{fill:var(--c2);animation-name:c15}@keyframes c16{34.5%{fill:var(--c2)}34.52%,100%{fill:var(--ce)}}.c.c16{fill:var(--c2);animation-name:c16}@keyframes c17{37.16%{fill:var(--c2)}37.18%,100%{fill:var(--ce)}}.c.c17{fill:var(--c2);animation-name:c17}@keyframes c18{67.54%{fill:var(--c4)}67.56%,100%{fill:var(--ce)}}.c.c18{fill:var(--c4);animation-name:c18}@keyframes c19{40.11%{fill:var(--c2)}40.13%,100%{fill:var(--ce)}}.c.c19{fill:var(--c2);animation-name:c19}@keyframes c1a{39.81%{fill:var(--c2)}39.83%,100%{fill:var(--ce)}}.c.c1a{fill:var(--c2);animation-name:c1a}@keyframes c1b{31.85%{fill:var(--c2)}31.87%,100%{fill:var(--ce)}}.c.c1b{fill:var(--c2);animation-name:c1b}@keyframes c1c{35.68%{fill:var(--c2)}35.7%,100%{fill:var(--ce)}}.c.c1c{fill:var(--c2);animation-name:c1c}@keyframes c1d{34.8%{fill:var(--c2)}34.82%,100%{fill:var(--ce)}}.c.c1d{fill:var(--c2);animation-name:c1d}@keyframes c1e{37.45%{fill:var(--c2)}37.47%,100%{fill:var(--ce)}}.c.c1e{fill:var(--c2);animation-name:c1e}@keyframes c1f{38.34%{fill:var(--c2)}38.36%,100%{fill:var(--ce)}}.c.c1f{fill:var(--c2);animation-name:c1f}@keyframes c1g{38.63%{fill:var(--c2)}38.65%,100%{fill:var(--ce)}}.c.c1g{fill:var(--c2);animation-name:c1g}@keyframes c1h{39.52%{fill:var(--c2)}39.54%,100%{fill:var(--ce)}}.c.c1h{fill:var(--c2);animation-name:c1h}@keyframes c1i{31.55%{fill:var(--c2)}31.57%,100%{fill:var(--ce)}}.c.c1i{fill:var(--c2);animation-name:c1i}@keyframes c1j{35.39%{fill:var(--c2)}35.41%,100%{fill:var(--ce)}}.c.c1j{fill:var(--c2);animation-name:c1j}@keyframes c1k{35.09%{fill:var(--c2)}35.11%,100%{fill:var(--ce)}}.c.c1k{fill:var(--c2);animation-name:c1k}@keyframes c1l{37.75%{fill:var(--c2)}37.77%,100%{fill:var(--ce)}}.c.c1l{fill:var(--c2);animation-name:c1l}@keyframes c1m{38.04%{fill:var(--c2)}38.06%,100%{fill:var(--ce)}}.c.c1m{fill:var(--c2);animation-name:c1m}@keyframes c1n{38.93%{fill:var(--c2)}38.95%,100%{fill:var(--ce)}}.c.c1n{fill:var(--c2);animation-name:c1n}@keyframes c1o{39.22%{fill:var(--c2)}39.24%,100%{fill:var(--ce)}}.c.c1o{fill:var(--c2);animation-name:c1o}@keyframes c1p{30.08%{fill:var(--c2)}30.1%,100%{fill:var(--ce)}}.c.c1p{fill:var(--c2);animation-name:c1p}@keyframes c1q{29.78%{fill:var(--c2)}29.8%,100%{fill:var(--ce)}}.c.c1q{fill:var(--c2);animation-name:c1q}@keyframes c1r{29.49%{fill:var(--c2)}29.51%,100%{fill:var(--ce)}}.c.c1r{fill:var(--c2);animation-name:c1r}@keyframes c1s{29.19%{fill:var(--c2)}29.21%,100%{fill:var(--ce)}}.c.c1s{fill:var(--c2);animation-name:c1s}@keyframes c1t{28.9%{fill:var(--c2)}28.92%,100%{fill:var(--ce)}}.c.c1t{fill:var(--c2);animation-name:c1t}@keyframes c1u{28.6%{fill:var(--c2)}28.62%,100%{fill:var(--ce)}}.c.c1u{fill:var(--c2);animation-name:c1u}@keyframes c1v{28.31%{fill:var(--c2)}28.33%,100%{fill:var(--ce)}}.c.c1v{fill:var(--c2);animation-name:c1v}@keyframes c1w{30.37%{fill:var(--c2)}30.39%,100%{fill:var(--ce)}}.c.c1w{fill:var(--c2);animation-name:c1w}@keyframes c1x{76.69%{fill:var(--c4)}76.71%,100%{fill:var(--ce)}}.c.c1x{fill:var(--c4);animation-name:c1x}@keyframes c1y{76.39%{fill:var(--c4)}76.41%,100%{fill:var(--ce)}}.c.c1y{fill:var(--c4);animation-name:c1y}@keyframes c1z{84.95%{fill:var(--c4)}84.97%,100%{fill:var(--ce)}}.c.c1z{fill:var(--c4);animation-name:c1z}@keyframes c20{68.72%{fill:var(--c4)}68.74%,100%{fill:var(--ce)}}.c.c20{fill:var(--c4);animation-name:c20}@keyframes c21{80.82%{fill:var(--c4)}80.84%,100%{fill:var(--ce)}}.c.c21{fill:var(--c4);animation-name:c21}@keyframes c22{81.11%{fill:var(--c4)}81.13%,100%{fill:var(--ce)}}.c.c22{fill:var(--c4);animation-name:c22}@keyframes c23{73.15%{fill:var(--c4)}73.17%,100%{fill:var(--ce)}}.c.c23{fill:var(--c4);animation-name:c23}@keyframes c24{73.44%{fill:var(--c4)}73.46%,100%{fill:var(--ce)}}.c.c24{fill:var(--c4);animation-name:c24}@keyframes c25{76.1%{fill:var(--c4)}76.12%,100%{fill:var(--ce)}}.c.c25{fill:var(--c4);animation-name:c25}@keyframes c26{77.57%{fill:var(--c4)}77.59%,100%{fill:var(--ce)}}.c.c26{fill:var(--c4);animation-name:c26}@keyframes c27{69.02%{fill:var(--c4)}69.04%,100%{fill:var(--ce)}}.c.c27{fill:var(--c4);animation-name:c27}@keyframes c28{80.52%{fill:var(--c4)}80.54%,100%{fill:var(--ce)}}.c.c28{fill:var(--c4);animation-name:c28}@keyframes c29{81.41%{fill:var(--c4)}81.43%,100%{fill:var(--ce)}}.c.c29{fill:var(--c4);animation-name:c29}@keyframes c2a{72.85%{fill:var(--c4)}72.87%,100%{fill:var(--ce)}}.c.c2a{fill:var(--c4);animation-name:c2a}@keyframes c2b{73.74%{fill:var(--c4)}73.76%,100%{fill:var(--ce)}}.c.c2b{fill:var(--c4);animation-name:c2b}@keyframes c2c{75.8%{fill:var(--c4)}75.82%,100%{fill:var(--ce)}}.c.c2c{fill:var(--c4);animation-name:c2c}@keyframes c2d{77.87%{fill:var(--c4)}77.89%,100%{fill:var(--ce)}}.c.c2d{fill:var(--c4);animation-name:c2d}@keyframes c2e{69.31%{fill:var(--c4)}69.33%,100%{fill:var(--ce)}}.c.c2e{fill:var(--c4);animation-name:c2e}@keyframes c2f{80.23%{fill:var(--c4)}80.25%,100%{fill:var(--ce)}}.c.c2f{fill:var(--c4);animation-name:c2f}@keyframes c2g{81.7%{fill:var(--c4)}81.72%,100%{fill:var(--ce)}}.c.c2g{fill:var(--c4);animation-name:c2g}@keyframes c2h{72.56%{fill:var(--c4)}72.58%,100%{fill:var(--ce)}}.c.c2h{fill:var(--c4);animation-name:c2h}@keyframes c2i{74.03%{fill:var(--c4)}74.05%,100%{fill:var(--ce)}}.c.c2i{fill:var(--c4);animation-name:c2i}@keyframes c2j{75.51%{fill:var(--c4)}75.53%,100%{fill:var(--ce)}}.c.c2j{fill:var(--c4);animation-name:c2j}@keyframes c2k{78.16%{fill:var(--c4)}78.18%,100%{fill:var(--ce)}}.c.c2k{fill:var(--c4);animation-name:c2k}@keyframes c2l{69.61%{fill:var(--c4)}69.63%,100%{fill:var(--ce)}}.c.c2l{fill:var(--c4);animation-name:c2l}@keyframes c2m{79.93%{fill:var(--c4)}79.95%,100%{fill:var(--ce)}}.c.c2m{fill:var(--c4);animation-name:c2m}@keyframes c2n{82%{fill:var(--c4)}82.02%,100%{fill:var(--ce)}}.c.c2n{fill:var(--c4);animation-name:c2n}@keyframes c2o{72.26%{fill:var(--c4)}72.28%,100%{fill:var(--ce)}}.c.c2o{fill:var(--c4);animation-name:c2o}@keyframes c2p{74.33%{fill:var(--c4)}74.35%,100%{fill:var(--ce)}}.c.c2p{fill:var(--c4);animation-name:c2p}@keyframes c2q{75.21%{fill:var(--c4)}75.23%,100%{fill:var(--ce)}}.c.c2q{fill:var(--c4);animation-name:c2q}@keyframes c2r{78.46%{fill:var(--c4)}78.48%,100%{fill:var(--ce)}}.c.c2r{fill:var(--c4);animation-name:c2r}@keyframes c2s{69.9%{fill:var(--c4)}69.92%,100%{fill:var(--ce)}}.c.c2s{fill:var(--c4);animation-name:c2s}@keyframes c2t{79.64%{fill:var(--c4)}79.66%,100%{fill:var(--ce)}}.c.c2t{fill:var(--c4);animation-name:c2t}@keyframes c2u{82.29%{fill:var(--c4)}82.31%,100%{fill:var(--ce)}}.c.c2u{fill:var(--c4);animation-name:c2u}@keyframes c2v{71.97%{fill:var(--c4)}71.99%,100%{fill:var(--ce)}}.c.c2v{fill:var(--c4);animation-name:c2v}@keyframes c2w{74.62%{fill:var(--c4)}74.64%,100%{fill:var(--ce)}}.c.c2w{fill:var(--c4);animation-name:c2w}@keyframes c2x{74.92%{fill:var(--c4)}74.94%,100%{fill:var(--ce)}}.c.c2x{fill:var(--c4);animation-name:c2x}@keyframes c2y{78.75%{fill:var(--c4)}78.77%,100%{fill:var(--ce)}}.c.c2y{fill:var(--c4);animation-name:c2y}@keyframes c2z{70.2%{fill:var(--c4)}70.22%,100%{fill:var(--ce)}}.c.c2z{fill:var(--c4);animation-name:c2z}@keyframes c30{79.34%{fill:var(--c4)}79.36%,100%{fill:var(--ce)}}.c.c30{fill:var(--c4);animation-name:c30}@keyframes c31{82.59%{fill:var(--c4)}82.61%,100%{fill:var(--ce)}}.c.c31{fill:var(--c4);animation-name:c31}@keyframes c32{71.67%{fill:var(--c4)}71.69%,100%{fill:var(--ce)}}.c.c32{fill:var(--c4);animation-name:c32}@keyframes c33{71.38%{fill:var(--c4)}71.4%,100%{fill:var(--ce)}}.c.c33{fill:var(--c4);animation-name:c33}@keyframes c34{71.08%{fill:var(--c4)}71.1%,100%{fill:var(--ce)}}.c.c34{fill:var(--c4);animation-name:c34}@keyframes c35{70.79%{fill:var(--c4)}70.81%,100%{fill:var(--ce)}}.c.c35{fill:var(--c4);animation-name:c35}@keyframes c36{70.49%{fill:var(--c4)}70.51%,100%{fill:var(--ce)}}.c.c36{fill:var(--c4);animation-name:c36}@keyframes c37{24.77%{fill:var(--c1)}24.79%,100%{fill:var(--ce)}}.c.c37{fill:var(--c1);animation-name:c37}.u{transform-origin:0 0;transform:scale(0,1);animation:none linear 33900ms infinite}@keyframes u0{3.23%{transform:scale(0.000,1)}3.25%,3.53%{transform:scale(0.100,1)}3.55%,5.3%{transform:scale(0.200,1)}5.32%,10.61%{transform:scale(0.300,1)}10.63%,13.85%{transform:scale(0.400,1)}13.87%,14.44%{transform:scale(0.500,1)}14.46%,15.33%{transform:scale(0.600,1)}15.35%,15.62%{transform:scale(0.700,1)}15.64%,17.69%{transform:scale(0.800,1)}17.71%,24.77%{transform:scale(0.900,1)}24.79%,100%{transform:scale(1.000,1)}}.u.u0{fill:var(--c1);animation-name:u0;transform-origin:0.0px 0}@keyframes u1{28.31%{transform:scale(0.000,1)}28.33%,28.6%{transform:scale(0.019,1)}28.62%,28.9%{transform:scale(0.037,1)}28.92%,29.19%{transform:scale(0.056,1)}29.21%,29.49%{transform:scale(0.074,1)}29.51%,29.78%{transform:scale(0.093,1)}29.8%,30.08%{transform:scale(0.111,1)}30.1%,30.37%{transform:scale(0.130,1)}30.39%,31.55%{transform:scale(0.148,1)}31.57%,31.85%{transform:scale(0.167,1)}31.87%,32.14%{transform:scale(0.185,1)}32.16%,32.44%{transform:scale(0.204,1)}32.46%,32.73%{transform:scale(0.222,1)}32.75%,33.03%{transform:scale(0.241,1)}33.05%,33.32%{transform:scale(0.259,1)}33.34%,33.62%{transform:scale(0.278,1)}33.64%,33.91%{transform:scale(0.296,1)}33.93%,34.21%{transform:scale(0.315,1)}34.23%,34.5%{transform:scale(0.333,1)}34.52%,34.8%{transform:scale(0.352,1)}34.82%,35.09%{transform:scale(0.370,1)}35.11%,35.39%{transform:scale(0.389,1)}35.41%,35.68%{transform:scale(0.407,1)}35.7%,35.98%{transform:scale(0.426,1)}36%,36.27%{transform:scale(0.444,1)}36.29%,36.86%{transform:scale(0.463,1)}36.88%,37.16%{transform:scale(0.481,1)}37.18%,37.45%{transform:scale(0.500,1)}37.47%,37.75%{transform:scale(0.519,1)}37.77%,38.04%{transform:scale(0.537,1)}38.06%,38.34%{transform:scale(0.556,1)}38.36%,38.63%{transform:scale(0.574,1)}38.65%,38.93%{transform:scale(0.593,1)}38.95%,39.22%{transform:scale(0.611,1)}39.24%,39.52%{transform:scale(0.630,1)}39.54%,39.81%{transform:scale(0.648,1)}39.83%,40.11%{transform:scale(0.667,1)}40.13%,40.4%{transform:scale(0.685,1)}40.42%,40.7%{transform:scale(0.704,1)}40.72%,40.99%{transform:scale(0.722,1)}41.01%,41.29%{transform:scale(0.741,1)}41.31%,41.58%{transform:scale(0.759,1)}41.6%,41.88%{transform:scale(0.778,1)}41.9%,42.17%{transform:scale(0.796,1)}42.19%,42.47%{transform:scale(0.815,1)}42.49%,42.76%{transform:scale(0.833,1)}42.78%,43.06%{transform:scale(0.852,1)}43.08%,43.35%{transform:scale(0.870,1)}43.37%,43.65%{transform:scale(0.889,1)}43.67%,44.83%{transform:scale(0.907,1)}44.85%,45.12%{transform:scale(0.926,1)}45.14%,46.3%{transform:scale(0.944,1)}46.32%,52.5%{transform:scale(0.963,1)}52.52%,55.15%{transform:scale(0.981,1)}55.17%,100%{transform:scale(1.000,1)}}.u.u1{fill:var(--c2);animation-name:u1;transform-origin:73.1px 0}@keyframes u2{60.17%{transform:scale(0.000,1)}60.19%,64.89%{transform:scale(0.019,1)}64.91%,65.18%{transform:scale(0.038,1)}65.2%,66.07%{transform:scale(0.058,1)}66.09%,67.54%{transform:scale(0.077,1)}67.56%,68.72%{transform:scale(0.096,1)}68.74%,69.02%{transform:scale(0.115,1)}69.04%,69.31%{transform:scale(0.135,1)}69.33%,69.61%{transform:scale(0.154,1)}69.63%,69.9%{transform:scale(0.173,1)}69.92%,70.2%{transform:scale(0.192,1)}70.22%,70.49%{transform:scale(0.212,1)}70.51%,70.79%{transform:scale(0.231,1)}70.81%,71.08%{transform:scale(0.250,1)}71.1%,71.38%{transform:scale(0.269,1)}71.4%,71.67%{transform:scale(0.288,1)}71.69%,71.97%{transform:scale(0.308,1)}71.99%,72.26%{transform:scale(0.327,1)}72.28%,72.56%{transform:scale(0.346,1)}72.58%,72.85%{transform:scale(0.365,1)}72.87%,73.15%{transform:scale(0.385,1)}73.17%,73.44%{transform:scale(0.404,1)}73.46%,73.74%{transform:scale(0.423,1)}73.76%,74.03%{transform:scale(0.442,1)}74.05%,74.33%{transform:scale(0.462,1)}74.35%,74.62%{transform:scale(0.481,1)}74.64%,74.92%{transform:scale(0.500,1)}74.94%,75.21%{transform:scale(0.519,1)}75.23%,75.51%{transform:scale(0.538,1)}75.53%,75.8%{transform:scale(0.558,1)}75.82%,76.1%{transform:scale(0.577,1)}76.12%,76.39%{transform:scale(0.596,1)}76.41%,76.69%{transform:scale(0.615,1)}76.71%,77.57%{transform:scale(0.635,1)}77.59%,77.87%{transform:scale(0.654,1)}77.89%,78.16%{transform:scale(0.673,1)}78.18%,78.46%{transform:scale(0.692,1)}78.48%,78.75%{transform:scale(0.712,1)}78.77%,79.34%{transform:scale(0.731,1)}79.36%,79.64%{transform:scale(0.750,1)}79.66%,79.93%{transform:scale(0.769,1)}79.95%,80.23%{transform:scale(0.788,1)}80.25%,80.52%{transform:scale(0.808,1)}80.54%,80.82%{transform:scale(0.827,1)}80.84%,81.11%{transform:scale(0.846,1)}81.13%,81.41%{transform:scale(0.865,1)}81.43%,81.7%{transform:scale(0.885,1)}81.72%,82%{transform:scale(0.904,1)}82.02%,82.29%{transform:scale(0.923,1)}82.31%,82.59%{transform:scale(0.942,1)}82.61%,84.95%{transform:scale(0.962,1)}84.97%,89.08%{transform:scale(0.981,1)}89.1%,100%{transform:scale(1.000,1)}}.u.u2{fill:var(--c4);animation-name:u2;transform-origin:467.9px 0}.s{shape-rendering:geometricPrecision;fill:var(--cs);animation:none linear 33900ms infinite}@keyframes s0{0%,99.71%{transform:translate(0px,-16px)}0.29%{transform:translate(0px,0px)}3.24%{transform:translate(160px,0px)}3.54%{transform:translate(160px,16px)}4.13%{transform:translate(128px,16px)}5.31%{transform:translate(128px,80px)}10.03%{transform:translate(384px,80px)}10.62%{transform:translate(384px,48px)}13.86%{transform:translate(560px,48px)}14.16%{transform:translate(560px,64px)}14.45%{transform:translate(544px,64px)}14.75%,46.61%{transform:translate(544px,80px)}15.34%{transform:translate(576px,80px)}15.63%{transform:translate(576px,96px)}15.93%{transform:translate(592px,96px)}17.4%{transform:translate(592px,16px)}17.7%{transform:translate(576px,16px)}17.99%{transform:translate(576px,32px)}18.29%{transform:translate(592px,32px)}19.76%{transform:translate(592px,112px)}24.19%,25.96%{transform:translate(832px,112px)}24.78%{transform:translate(832px,80px)}25.07%{transform:translate(848px,80px)}25.37%{transform:translate(848px,96px)}25.66%{transform:translate(832px,96px)}28.02%{transform:translate(720px,112px)}30.09%{transform:translate(720px,0px)}30.38%,85.84%{transform:translate(736px,0px)}30.68%{transform:translate(736px,-16px)}31.27%{transform:translate(704px,-16px)}31.56%{transform:translate(704px,0px)}33.04%{transform:translate(624px,0px)}33.63%{transform:translate(624px,32px)}35.1%{transform:translate(704px,32px)}35.4%{transform:translate(704px,16px)}36.28%{transform:translate(656px,16px)}36.87%{transform:translate(656px,48px)}37.76%{transform:translate(704px,48px)}38.05%{transform:translate(704px,64px)}38.35%{transform:translate(688px,64px)}38.64%{transform:translate(688px,80px)}38.94%{transform:translate(704px,80px)}39.23%{transform:translate(704px,96px)}39.82%{transform:translate(672px,96px)}40.12%{transform:translate(672px,80px)}40.41%,43.95%{transform:translate(656px,80px)}40.71%{transform:translate(656px,64px)}41%{transform:translate(640px,64px)}41.3%{transform:translate(640px,48px)}41.59%{transform:translate(624px,48px)}41.89%{transform:translate(624px,64px)}42.18%,64.6%{transform:translate(608px,64px)}42.48%{transform:translate(608px,80px)}43.07%{transform:translate(640px,80px)}43.36%{transform:translate(640px,96px)}43.66%{transform:translate(656px,96px)}44.54%{transform:translate(624px,80px)}44.84%{transform:translate(624px,96px)}46.31%{transform:translate(544px,96px)}50.15%{transform:translate(352px,80px)}50.44%{transform:translate(352px,64px)}54.57%{transform:translate(128px,64px)}55.16%{transform:translate(128px,96px)}59.59%{transform:translate(368px,96px)}60.18%{transform:translate(368px,64px)}65.19%{transform:translate(608px,32px)}65.78%{transform:translate(640px,32px)}66.08%{transform:translate(640px,16px)}66.67%{transform:translate(672px,16px)}67.55%{transform:translate(672px,64px)}70.5%{transform:translate(832px,64px)}71.68%{transform:translate(832px,0px)}73.16%{transform:translate(752px,0px)}73.45%,76.99%{transform:translate(752px,16px)}74.63%{transform:translate(816px,16px)}74.93%{transform:translate(816px,32px)}76.4%{transform:translate(736px,32px)}76.7%{transform:translate(736px,16px)}77.58%{transform:translate(752px,48px)}78.76%,83.48%{transform:translate(816px,48px)}79.35%{transform:translate(816px,80px)}80.83%{transform:translate(736px,80px)}81.12%{transform:translate(736px,96px)}82.6%{transform:translate(816px,96px)}84.96%{transform:translate(736px,48px)}97.64%{transform:translate(96px,0px)}97.94%{transform:translate(96px,-16px)}}.s.s0{transform:translate(0px,-16px);animation-name:s0}@keyframes s1{0%,99.71%{transform:translate(16px,-16px)}0.29%{transform:translate(0px,-16px)}0.59%{transform:translate(0px,0px)}3.54%{transform:translate(160px,0px)}3.83%{transform:translate(160px,16px)}4.42%{transform:translate(128px,16px)}5.6%{transform:translate(128px,80px)}10.32%{transform:translate(384px,80px)}10.91%{transform:translate(384px,48px)}14.16%{transform:translate(560px,48px)}14.45%{transform:translate(560px,64px)}14.75%{transform:translate(544px,64px)}15.04%,46.9%{transform:translate(544px,80px)}15.63%{transform:translate(576px,80px)}15.93%{transform:translate(576px,96px)}16.22%{transform:translate(592px,96px)}17.7%{transform:translate(592px,16px)}17.99%{transform:translate(576px,16px)}18.29%{transform:translate(576px,32px)}18.58%{transform:translate(592px,32px)}20.06%{transform:translate(592px,112px)}24.48%,26.25%{transform:translate(832px,112px)}25.07%{transform:translate(832px,80px)}25.37%{transform:translate(848px,80px)}25.66%{transform:translate(848px,96px)}25.96%{transform:translate(832px,96px)}28.32%{transform:translate(720px,112px)}30.38%{transform:translate(720px,0px)}30.68%,86.14%{transform:translate(736px,0px)}30.97%{transform:translate(736px,-16px)}31.56%{transform:translate(704px,-16px)}31.86%{transform:translate(704px,0px)}33.33%{transform:translate(624px,0px)}33.92%{transform:translate(624px,32px)}35.4%{transform:translate(704px,32px)}35.69%{transform:translate(704px,16px)}36.58%{transform:translate(656px,16px)}37.17%{transform:translate(656px,48px)}38.05%{transform:translate(704px,48px)}38.35%{transform:translate(704px,64px)}38.64%{transform:translate(688px,64px)}38.94%{transform:translate(688px,80px)}39.23%{transform:translate(704px,80px)}39.53%{transform:translate(704px,96px)}40.12%{transform:translate(672px,96px)}40.41%{transform:translate(672px,80px)}40.71%,44.25%{transform:translate(656px,80px)}41%{transform:translate(656px,64px)}41.3%{transform:translate(640px,64px)}41.59%{transform:translate(640px,48px)}41.89%{transform:translate(624px,48px)}42.18%{transform:translate(624px,64px)}42.48%,64.9%{transform:translate(608px,64px)}42.77%{transform:translate(608px,80px)}43.36%{transform:translate(640px,80px)}43.66%{transform:translate(640px,96px)}43.95%{transform:translate(656px,96px)}44.84%{transform:translate(624px,80px)}45.13%{transform:translate(624px,96px)}46.61%{transform:translate(544px,96px)}50.44%{transform:translate(352px,80px)}50.74%{transform:translate(352px,64px)}54.87%{transform:translate(128px,64px)}55.46%{transform:translate(128px,96px)}59.88%{transform:translate(368px,96px)}60.47%{transform:translate(368px,64px)}65.49%{transform:translate(608px,32px)}66.08%{transform:translate(640px,32px)}66.37%{transform:translate(640px,16px)}66.96%{transform:translate(672px,16px)}67.85%{transform:translate(672px,64px)}70.8%{transform:translate(832px,64px)}71.98%{transform:translate(832px,0px)}73.45%{transform:translate(752px,0px)}73.75%,77.29%{transform:translate(752px,16px)}74.93%{transform:translate(816px,16px)}75.22%{transform:translate(816px,32px)}76.7%{transform:translate(736px,32px)}76.99%{transform:translate(736px,16px)}77.88%{transform:translate(752px,48px)}79.06%,83.78%{transform:translate(816px,48px)}79.65%{transform:translate(816px,80px)}81.12%{transform:translate(736px,80px)}81.42%{transform:translate(736px,96px)}82.89%{transform:translate(816px,96px)}85.25%{transform:translate(736px,48px)}97.94%{transform:translate(96px,0px)}98.23%{transform:translate(96px,-16px)}}.s.s1{transform:translate(16px,-16px);animation-name:s1}@keyframes s2{0%,99.71%{transform:translate(32px,-16px)}0.59%{transform:translate(0px,-16px)}0.88%{transform:translate(0px,0px)}3.83%{transform:translate(160px,0px)}4.13%{transform:translate(160px,16px)}4.72%{transform:translate(128px,16px)}5.9%{transform:translate(128px,80px)}10.62%{transform:translate(384px,80px)}11.21%{transform:translate(384px,48px)}14.45%{transform:translate(560px,48px)}14.75%{transform:translate(560px,64px)}15.04%{transform:translate(544px,64px)}15.34%,47.2%{transform:translate(544px,80px)}15.93%{transform:translate(576px,80px)}16.22%{transform:translate(576px,96px)}16.52%{transform:translate(592px,96px)}17.99%{transform:translate(592px,16px)}18.29%{transform:translate(576px,16px)}18.58%{transform:translate(576px,32px)}18.88%{transform:translate(592px,32px)}20.35%{transform:translate(592px,112px)}24.78%,26.55%{transform:translate(832px,112px)}25.37%{transform:translate(832px,80px)}25.66%{transform:translate(848px,80px)}25.96%{transform:translate(848px,96px)}26.25%{transform:translate(832px,96px)}28.61%{transform:translate(720px,112px)}30.68%{transform:translate(720px,0px)}30.97%,86.43%{transform:translate(736px,0px)}31.27%{transform:translate(736px,-16px)}31.86%{transform:translate(704px,-16px)}32.15%{transform:translate(704px,0px)}33.63%{transform:translate(624px,0px)}34.22%{transform:translate(624px,32px)}35.69%{transform:translate(704px,32px)}35.99%{transform:translate(704px,16px)}36.87%{transform:translate(656px,16px)}37.46%{transform:translate(656px,48px)}38.35%{transform:translate(704px,48px)}38.64%{transform:translate(704px,64px)}38.94%{transform:translate(688px,64px)}39.23%{transform:translate(688px,80px)}39.53%{transform:translate(704px,80px)}39.82%{transform:translate(704px,96px)}40.41%{transform:translate(672px,96px)}40.71%{transform:translate(672px,80px)}41%,44.54%{transform:translate(656px,80px)}41.3%{transform:translate(656px,64px)}41.59%{transform:translate(640px,64px)}41.89%{transform:translate(640px,48px)}42.18%{transform:translate(624px,48px)}42.48%{transform:translate(624px,64px)}42.77%,65.19%{transform:translate(608px,64px)}43.07%{transform:translate(608px,80px)}43.66%{transform:translate(640px,80px)}43.95%{transform:translate(640px,96px)}44.25%{transform:translate(656px,96px)}45.13%{transform:translate(624px,80px)}45.43%{transform:translate(624px,96px)}46.9%{transform:translate(544px,96px)}50.74%{transform:translate(352px,80px)}51.03%{transform:translate(352px,64px)}55.16%{transform:translate(128px,64px)}55.75%{transform:translate(128px,96px)}60.18%{transform:translate(368px,96px)}60.77%{transform:translate(368px,64px)}65.78%{transform:translate(608px,32px)}66.37%{transform:translate(640px,32px)}66.67%{transform:translate(640px,16px)}67.26%{transform:translate(672px,16px)}68.14%{transform:translate(672px,64px)}71.09%{transform:translate(832px,64px)}72.27%{transform:translate(832px,0px)}73.75%{transform:translate(752px,0px)}74.04%,77.58%{transform:translate(752px,16px)}75.22%{transform:translate(816px,16px)}75.52%{transform:translate(816px,32px)}76.99%{transform:translate(736px,32px)}77.29%{transform:translate(736px,16px)}78.17%{transform:translate(752px,48px)}79.35%,84.07%{transform:translate(816px,48px)}79.94%{transform:translate(816px,80px)}81.42%{transform:translate(736px,80px)}81.71%{transform:translate(736px,96px)}83.19%{transform:translate(816px,96px)}85.55%{transform:translate(736px,48px)}98.23%{transform:translate(96px,0px)}98.53%{transform:translate(96px,-16px)}}.s.s2{transform:translate(32px,-16px);animation-name:s2}@keyframes s3{0%,99.71%{transform:translate(48px,-16px)}0.88%{transform:translate(0px,-16px)}1.18%{transform:translate(0px,0px)}4.13%{transform:translate(160px,0px)}4.42%{transform:translate(160px,16px)}5.01%{transform:translate(128px,16px)}6.19%{transform:translate(128px,80px)}10.91%{transform:translate(384px,80px)}11.5%{transform:translate(384px,48px)}14.75%{transform:translate(560px,48px)}15.04%{transform:translate(560px,64px)}15.34%{transform:translate(544px,64px)}15.63%,47.49%{transform:translate(544px,80px)}16.22%{transform:translate(576px,80px)}16.52%{transform:translate(576px,96px)}16.81%{transform:translate(592px,96px)}18.29%{transform:translate(592px,16px)}18.58%{transform:translate(576px,16px)}18.88%{transform:translate(576px,32px)}19.17%{transform:translate(592px,32px)}20.65%{transform:translate(592px,112px)}25.07%,26.84%{transform:translate(832px,112px)}25.66%{transform:translate(832px,80px)}25.96%{transform:translate(848px,80px)}26.25%{transform:translate(848px,96px)}26.55%{transform:translate(832px,96px)}28.91%{transform:translate(720px,112px)}30.97%{transform:translate(720px,0px)}31.27%,86.73%{transform:translate(736px,0px)}31.56%{transform:translate(736px,-16px)}32.15%{transform:translate(704px,-16px)}32.45%{transform:translate(704px,0px)}33.92%{transform:translate(624px,0px)}34.51%{transform:translate(624px,32px)}35.99%{transform:translate(704px,32px)}36.28%{transform:translate(704px,16px)}37.17%{transform:translate(656px,16px)}37.76%{transform:translate(656px,48px)}38.64%{transform:translate(704px,48px)}38.94%{transform:translate(704px,64px)}39.23%{transform:translate(688px,64px)}39.53%{transform:translate(688px,80px)}39.82%{transform:translate(704px,80px)}40.12%{transform:translate(704px,96px)}40.71%{transform:translate(672px,96px)}41%{transform:translate(672px,80px)}41.3%,44.84%{transform:translate(656px,80px)}41.59%{transform:translate(656px,64px)}41.89%{transform:translate(640px,64px)}42.18%{transform:translate(640px,48px)}42.48%{transform:translate(624px,48px)}42.77%{transform:translate(624px,64px)}43.07%,65.49%{transform:translate(608px,64px)}43.36%{transform:translate(608px,80px)}43.95%{transform:translate(640px,80px)}44.25%{transform:translate(640px,96px)}44.54%{transform:translate(656px,96px)}45.43%{transform:translate(624px,80px)}45.72%{transform:translate(624px,96px)}47.2%{transform:translate(544px,96px)}51.03%{transform:translate(352px,80px)}51.33%{transform:translate(352px,64px)}55.46%{transform:translate(128px,64px)}56.05%{transform:translate(128px,96px)}60.47%{transform:translate(368px,96px)}61.06%{transform:translate(368px,64px)}66.08%{transform:translate(608px,32px)}66.67%{transform:translate(640px,32px)}66.96%{transform:translate(640px,16px)}67.55%{transform:translate(672px,16px)}68.44%{transform:translate(672px,64px)}71.39%{transform:translate(832px,64px)}72.57%{transform:translate(832px,0px)}74.04%{transform:translate(752px,0px)}74.34%,77.88%{transform:translate(752px,16px)}75.52%{transform:translate(816px,16px)}75.81%{transform:translate(816px,32px)}77.29%{transform:translate(736px,32px)}77.58%{transform:translate(736px,16px)}78.47%{transform:translate(752px,48px)}79.65%,84.37%{transform:translate(816px,48px)}80.24%{transform:translate(816px,80px)}81.71%{transform:translate(736px,80px)}82.01%{transform:translate(736px,96px)}83.48%{transform:translate(816px,96px)}85.84%{transform:translate(736px,48px)}98.53%{transform:translate(96px,0px)}98.82%{transform:translate(96px,-16px)}}.s.s3{transform:translate(48px,-16px);animation-name:s3}</style><rect class="c" x="2" y="2" rx="2" ry="2"/><rect class="c" x="2" y="18" rx="2" ry="2"/><rect class="c" x="2" y="34" rx="2" ry="2"/><rect class="c" x="2" y="50" rx="2" ry="2"/><rect class="c" x="2" y="66" rx="2" ry="2"/><rect class="c" x="2" y="82" rx="2" ry="2"/><rect class="c" x="2" y="98" rx="2" ry="2"/><rect class="c" x="18" y="2" rx="2" ry="2"/><rect class="c" x="18" y="18" rx="2" ry="2"/><rect class="c" x="18" y="34" rx="2" ry="2"/><rect class="c" x="18" y="50" rx="2" ry="2"/><rect class="c" x="18" y="66" rx="2" ry="2"/><rect class="c" x="18" y="82" rx="2" ry="2"/><rect class="c" x="18" y="98" rx="2" ry="2"/><rect class="c" x="34" y="2" rx="2" ry="2"/><rect class="c" x="34" y="18" rx="2" ry="2"/><rect class="c" x="34" y="34" rx="2" ry="2"/><rect class="c" x="34" y="50" rx="2" ry="2"/><rect class="c" x="34" y="66" rx="2" ry="2"/><rect class="c" x="34" y="82" rx="2" ry="2"/><rect class="c" x="34" y="98" rx="2" ry="2"/><rect class="c" x="50" y="2" rx="2" ry="2"/><rect class="c" x="50" y="18" rx="2" ry="2"/><rect class="c" x="50" y="34" rx="2" ry="2"/><rect class="c" x="50" y="50" rx="2" ry="2"/><rect class="c" x="50" y="66" rx="2" ry="2"/><rect class="c" x="50" y="82" rx="2" ry="2"/><rect class="c" x="50" y="98" rx="2" ry="2"/><rect class="c" x="66" y="2" rx="2" ry="2"/><rect class="c" x="66" y="18" rx="2" ry="2"/><rect class="c" x="66" y="34" rx="2" ry="2"/><rect class="c" x="66" y="50" rx="2" ry="2"/><rect class="c" x="66" y="66" rx="2" ry="2"/><rect class="c" x="66" y="82" rx="2" ry="2"/><rect class="c" x="66" y="98" rx="2" ry="2"/><rect class="c" x="82" y="2" rx="2" ry="2"/><rect class="c" x="82" y="18" rx="2" ry="2"/><rect class="c" x="82" y="34" rx="2" ry="2"/><rect class="c" x="82" y="50" rx="2" ry="2"/><rect class="c" x="82" y="66" rx="2" ry="2"/><rect class="c" x="82" y="82" rx="2" ry="2"/><rect class="c" x="82" y="98" rx="2" ry="2"/><rect class="c" x="98" y="2" rx="2" ry="2"/><rect class="c" x="98" y="18" rx="2" ry="2"/><rect class="c" x="98" y="34" rx="2" ry="2"/><rect class="c" x="98" y="50" rx="2" ry="2"/><rect class="c" x="98" y="66" rx="2" ry="2"/><rect class="c" x="98" y="82" rx="2" ry="2"/><rect class="c" x="98" y="98" rx="2" ry="2"/><rect class="c" x="114" y="2" rx="2" ry="2"/><rect class="c" x="114" y="18" rx="2" ry="2"/><rect class="c" x="114" y="34" rx="2" ry="2"/><rect class="c" x="114" y="50" rx="2" ry="2"/><rect class="c" x="114" y="66" rx="2" ry="2"/><rect class="c" x="114" y="82" rx="2" ry="2"/><rect class="c" x="114" y="98" rx="2" ry="2"/><rect class="c" x="130" y="2" rx="2" ry="2"/><rect class="c" x="130" y="18" rx="2" ry="2"/><rect class="c" x="130" y="34" rx="2" ry="2"/><rect class="c" x="130" y="50" rx="2" ry="2"/><rect class="c" x="130" y="66" rx="2" ry="2"/><rect class="c c0" x="130" y="82" rx="2" ry="2"/><rect class="c c1" x="130" y="98" rx="2" ry="2"/><rect class="c" x="146" y="2" rx="2" ry="2"/><rect class="c" x="146" y="18" rx="2" ry="2"/><rect class="c" x="146" y="34" rx="2" ry="2"/><rect class="c" x="146" y="50" rx="2" ry="2"/><rect class="c" x="146" y="66" rx="2" ry="2"/><rect class="c" x="146" y="82" rx="2" ry="2"/><rect class="c" x="146" y="98" rx="2" ry="2"/><rect class="c c2" x="162" y="2" rx="2" ry="2"/><rect class="c c3" x="162" y="18" rx="2" ry="2"/><rect class="c" x="162" y="34" rx="2" ry="2"/><rect class="c" x="162" y="50" rx="2" ry="2"/><rect class="c" x="162" y="66" rx="2" ry="2"/><rect class="c" x="162" y="82" rx="2" ry="2"/><rect class="c" x="162" y="98" rx="2" ry="2"/><rect class="c" x="178" y="2" rx="2" ry="2"/><rect class="c" x="178" y="18" rx="2" ry="2"/><rect class="c" x="178" y="34" rx="2" ry="2"/><rect class="c" x="178" y="50" rx="2" ry="2"/><rect class="c" x="178" y="66" rx="2" ry="2"/><rect class="c" x="178" y="82" rx="2" ry="2"/><rect class="c" x="178" y="98" rx="2" ry="2"/><rect class="c" x="194" y="2" rx="2" ry="2"/><rect class="c" x="194" y="18" rx="2" ry="2"/><rect class="c" x="194" y="34" rx="2" ry="2"/><rect class="c" x="194" y="50" rx="2" ry="2"/><rect class="c" x="194" y="66" rx="2" ry="2"/><rect class="c" x="194" y="82" rx="2" ry="2"/><rect class="c" x="194" y="98" rx="2" ry="2"/><rect class="c" x="210" y="2" rx="2" ry="2"/><rect class="c" x="210" y="18" rx="2" ry="2"/><rect class="c" x="210" y="34" rx="2" ry="2"/><rect class="c" x="210" y="50" rx="2" ry="2"/><rect class="c" x="210" y="66" rx="2" ry="2"/><rect class="c" x="210" y="82" rx="2" ry="2"/><rect class="c" x="210" y="98" rx="2" ry="2"/><rect class="c" x="226" y="2" rx="2" ry="2"/><rect class="c" x="226" y="18" rx="2" ry="2"/><rect class="c" x="226" y="34" rx="2" ry="2"/><rect class="c" x="226" y="50" rx="2" ry="2"/><rect class="c" x="226" y="66" rx="2" ry="2"/><rect class="c" x="226" y="82" rx="2" ry="2"/><rect class="c" x="226" y="98" rx="2" ry="2"/><rect class="c" x="242" y="2" rx="2" ry="2"/><rect class="c" x="242" y="18" rx="2" ry="2"/><rect class="c" x="242" y="34" rx="2" ry="2"/><rect class="c" x="242" y="50" rx="2" ry="2"/><rect class="c c4" x="242" y="66" rx="2" ry="2"/><rect class="c" x="242" y="82" rx="2" ry="2"/><rect class="c" x="242" y="98" rx="2" ry="2"/><rect class="c" x="258" y="2" rx="2" ry="2"/><rect class="c" x="258" y="18" rx="2" ry="2"/><rect class="c" x="258" y="34" rx="2" ry="2"/><rect class="c" x="258" y="50" rx="2" ry="2"/><rect class="c" x="258" y="66" rx="2" ry="2"/><rect class="c" x="258" y="82" rx="2" ry="2"/><rect class="c" x="258" y="98" rx="2" ry="2"/><rect class="c" x="274" y="2" rx="2" ry="2"/><rect class="c" x="274" y="18" rx="2" ry="2"/><rect class="c" x="274" y="34" rx="2" ry="2"/><rect class="c" x="274" y="50" rx="2" ry="2"/><rect class="c" x="274" y="66" rx="2" ry="2"/><rect class="c" x="274" y="82" rx="2" ry="2"/><rect class="c" x="274" y="98" rx="2" ry="2"/><rect class="c" x="290" y="2" rx="2" ry="2"/><rect class="c" x="290" y="18" rx="2" ry="2"/><rect class="c" x="290" y="34" rx="2" ry="2"/><rect class="c" x="290" y="50" rx="2" ry="2"/><rect class="c" x="290" y="66" rx="2" ry="2"/><rect class="c" x="290" y="82" rx="2" ry="2"/><rect class="c" x="290" y="98" rx="2" ry="2"/><rect class="c" x="306" y="2" rx="2" ry="2"/><rect class="c" x="306" y="18" rx="2" ry="2"/><rect class="c" x="306" y="34" rx="2" ry="2"/><rect class="c" x="306" y="50" rx="2" ry="2"/><rect class="c" x="306" y="66" rx="2" ry="2"/><rect class="c" x="306" y="82" rx="2" ry="2"/><rect class="c" x="306" y="98" rx="2" ry="2"/><rect class="c" x="322" y="2" rx="2" ry="2"/><rect class="c" x="322" y="18" rx="2" ry="2"/><rect class="c" x="322" y="34" rx="2" ry="2"/><rect class="c" x="322" y="50" rx="2" ry="2"/><rect class="c" x="322" y="66" rx="2" ry="2"/><rect class="c" x="322" y="82" rx="2" ry="2"/><rect class="c" x="322" y="98" rx="2" ry="2"/><rect class="c" x="338" y="2" rx="2" ry="2"/><rect class="c" x="338" y="18" rx="2" ry="2"/><rect class="c" x="338" y="34" rx="2" ry="2"/><rect class="c" x="338" y="50" rx="2" ry="2"/><rect class="c" x="338" y="66" rx="2" ry="2"/><rect class="c" x="338" y="82" rx="2" ry="2"/><rect class="c" x="338" y="98" rx="2" ry="2"/><rect class="c" x="354" y="2" rx="2" ry="2"/><rect class="c" x="354" y="18" rx="2" ry="2"/><rect class="c" x="354" y="34" rx="2" ry="2"/><rect class="c" x="354" y="50" rx="2" ry="2"/><rect class="c" x="354" y="66" rx="2" ry="2"/><rect class="c" x="354" y="82" rx="2" ry="2"/><rect class="c" x="354" y="98" rx="2" ry="2"/><rect class="c" x="370" y="2" rx="2" ry="2"/><rect class="c" x="370" y="18" rx="2" ry="2"/><rect class="c" x="370" y="34" rx="2" ry="2"/><rect class="c" x="370" y="50" rx="2" ry="2"/><rect class="c c5" x="370" y="66" rx="2" ry="2"/><rect class="c" x="370" y="82" rx="2" ry="2"/><rect class="c" x="370" y="98" rx="2" ry="2"/><rect class="c" x="386" y="2" rx="2" ry="2"/><rect class="c" x="386" y="18" rx="2" ry="2"/><rect class="c" x="386" y="34" rx="2" ry="2"/><rect class="c c6" x="386" y="50" rx="2" ry="2"/><rect class="c" x="386" y="66" rx="2" ry="2"/><rect class="c" x="386" y="82" rx="2" ry="2"/><rect class="c" x="386" y="98" rx="2" ry="2"/><rect class="c" x="402" y="2" rx="2" ry="2"/><rect class="c" x="402" y="18" rx="2" ry="2"/><rect class="c" x="402" y="34" rx="2" ry="2"/><rect class="c" x="402" y="50" rx="2" ry="2"/><rect class="c" x="402" y="66" rx="2" ry="2"/><rect class="c" x="402" y="82" rx="2" ry="2"/><rect class="c" x="402" y="98" rx="2" ry="2"/><rect class="c" x="418" y="2" rx="2" ry="2"/><rect class="c" x="418" y="18" rx="2" ry="2"/><rect class="c" x="418" y="34" rx="2" ry="2"/><rect class="c" x="418" y="50" rx="2" ry="2"/><rect class="c" x="418" y="66" rx="2" ry="2"/><rect class="c" x="418" y="82" rx="2" ry="2"/><rect class="c" x="418" y="98" rx="2" ry="2"/><rect class="c" x="434" y="2" rx="2" ry="2"/><rect class="c" x="434" y="18" rx="2" ry="2"/><rect class="c" x="434" y="34" rx="2" ry="2"/><rect class="c" x="434" y="50" rx="2" ry="2"/><rect class="c" x="434" y="66" rx="2" ry="2"/><rect class="c" x="434" y="82" rx="2" ry="2"/><rect class="c" x="434" y="98" rx="2" ry="2"/><rect class="c" x="450" y="2" rx="2" ry="2"/><rect class="c" x="450" y="18" rx="2" ry="2"/><rect class="c" x="450" y="34" rx="2" ry="2"/><rect class="c" x="450" y="50" rx="2" ry="2"/><rect class="c" x="450" y="66" rx="2" ry="2"/><rect class="c" x="450" y="82" rx="2" ry="2"/><rect class="c" x="450" y="98" rx="2" ry="2"/><rect class="c" x="466" y="2" rx="2" ry="2"/><rect class="c" x="466" y="18" rx="2" ry="2"/><rect class="c" x="466" y="34" rx="2" ry="2"/><rect class="c" x="466" y="50" rx="2" ry="2"/><rect class="c" x="466" y="66" rx="2" ry="2"/><rect class="c" x="466" y="82" rx="2" ry="2"/><rect class="c" x="466" y="98" rx="2" ry="2"/><rect class="c" x="482" y="2" rx="2" ry="2"/><rect class="c" x="482" y="18" rx="2" ry="2"/><rect class="c" x="482" y="34" rx="2" ry="2"/><rect class="c" x="482" y="50" rx="2" ry="2"/><rect class="c" x="482" y="66" rx="2" ry="2"/><rect class="c" x="482" y="82" rx="2" ry="2"/><rect class="c" x="482" y="98" rx="2" ry="2"/><rect class="c" x="498" y="2" rx="2" ry="2"/><rect class="c" x="498" y="18" rx="2" ry="2"/><rect class="c" x="498" y="34" rx="2" ry="2"/><rect class="c" x="498" y="50" rx="2" ry="2"/><rect class="c" x="498" y="66" rx="2" ry="2"/><rect class="c" x="498" y="82" rx="2" ry="2"/><rect class="c" x="498" y="98" rx="2" ry="2"/><rect class="c" x="514" y="2" rx="2" ry="2"/><rect class="c" x="514" y="18" rx="2" ry="2"/><rect class="c" x="514" y="34" rx="2" ry="2"/><rect class="c" x="514" y="50" rx="2" ry="2"/><rect class="c" x="514" y="66" rx="2" ry="2"/><rect class="c" x="514" y="82" rx="2" ry="2"/><rect class="c" x="514" y="98" rx="2" ry="2"/><rect class="c" x="530" y="2" rx="2" ry="2"/><rect class="c" x="530" y="18" rx="2" ry="2"/><rect class="c" x="530" y="34" rx="2" ry="2"/><rect class="c" x="530" y="50" rx="2" ry="2"/><rect class="c" x="530" y="66" rx="2" ry="2"/><rect class="c" x="530" y="82" rx="2" ry="2"/><rect class="c" x="530" y="98" rx="2" ry="2"/><rect class="c" x="546" y="2" rx="2" ry="2"/><rect class="c" x="546" y="18" rx="2" ry="2"/><rect class="c" x="546" y="34" rx="2" ry="2"/><rect class="c" x="546" y="50" rx="2" ry="2"/><rect class="c c7" x="546" y="66" rx="2" ry="2"/><rect class="c" x="546" y="82" rx="2" ry="2"/><rect class="c c8" x="546" y="98" rx="2" ry="2"/><rect class="c c9" x="562" y="2" rx="2" ry="2"/><rect class="c" x="562" y="18" rx="2" ry="2"/><rect class="c" x="562" y="34" rx="2" ry="2"/><rect class="c ca" x="562" y="50" rx="2" ry="2"/><rect class="c" x="562" y="66" rx="2" ry="2"/><rect class="c" x="562" y="82" rx="2" ry="2"/><rect class="c" x="562" y="98" rx="2" ry="2"/><rect class="c" x="578" y="2" rx="2" ry="2"/><rect class="c cb" x="578" y="18" rx="2" ry="2"/><rect class="c" x="578" y="34" rx="2" ry="2"/><rect class="c" x="578" y="50" rx="2" ry="2"/><rect class="c" x="578" y="66" rx="2" ry="2"/><rect class="c cc" x="578" y="82" rx="2" ry="2"/><rect class="c cd" x="578" y="98" rx="2" ry="2"/><rect class="c" x="594" y="2" rx="2" ry="2"/><rect class="c" x="594" y="18" rx="2" ry="2"/><rect class="c" x="594" y="34" rx="2" ry="2"/><rect class="c" x="594" y="50" rx="2" ry="2"/><rect class="c" x="594" y="66" rx="2" ry="2"/><rect class="c" x="594" y="82" rx="2" ry="2"/><rect class="c" x="594" y="98" rx="2" ry="2"/><rect class="c" x="610" y="2" rx="2" ry="2"/><rect class="c" x="610" y="18" rx="2" ry="2"/><rect class="c ce" x="610" y="34" rx="2" ry="2"/><rect class="c cf" x="610" y="50" rx="2" ry="2"/><rect class="c cg" x="610" y="66" rx="2" ry="2"/><rect class="c ch" x="610" y="82" rx="2" ry="2"/><rect class="c ci" x="610" y="98" rx="2" ry="2"/><rect class="c cj" x="626" y="2" rx="2" ry="2"/><rect class="c ck" x="626" y="18" rx="2" ry="2"/><rect class="c cl" x="626" y="34" rx="2" ry="2"/><rect class="c cm" x="626" y="50" rx="2" ry="2"/><rect class="c cn" x="626" y="66" rx="2" ry="2"/><rect class="c co" x="626" y="82" rx="2" ry="2"/><rect class="c cp" x="626" y="98" rx="2" ry="2"/><rect class="c cq" x="642" y="2" rx="2" ry="2"/><rect class="c cr" x="642" y="18" rx="2" ry="2"/><rect class="c cs" x="642" y="34" rx="2" ry="2"/><rect class="c ct" x="642" y="50" rx="2" ry="2"/><rect class="c cu" x="642" y="66" rx="2" ry="2"/><rect class="c cv" x="642" y="82" rx="2" ry="2"/><rect class="c cw" x="642" y="98" rx="2" ry="2"/><rect class="c cx" x="658" y="2" rx="2" ry="2"/><rect class="c cy" x="658" y="18" rx="2" ry="2"/><rect class="c cz" x="658" y="34" rx="2" ry="2"/><rect class="c c10" x="658" y="50" rx="2" ry="2"/><rect class="c c11" x="658" y="66" rx="2" ry="2"/><rect class="c c12" x="658" y="82" rx="2" ry="2"/><rect class="c c13" x="658" y="98" rx="2" ry="2"/><rect class="c c14" x="674" y="2" rx="2" ry="2"/><rect class="c c15" x="674" y="18" rx="2" ry="2"/><rect class="c c16" x="674" y="34" rx="2" ry="2"/><rect class="c c17" x="674" y="50" rx="2" ry="2"/><rect class="c c18" x="674" y="66" rx="2" ry="2"/><rect class="c c19" x="674" y="82" rx="2" ry="2"/><rect class="c c1a" x="674" y="98" rx="2" ry="2"/><rect class="c c1b" x="690" y="2" rx="2" ry="2"/><rect class="c c1c" x="690" y="18" rx="2" ry="2"/><rect class="c c1d" x="690" y="34" rx="2" ry="2"/><rect class="c c1e" x="690" y="50" rx="2" ry="2"/><rect class="c c1f" x="690" y="66" rx="2" ry="2"/><rect class="c c1g" x="690" y="82" rx="2" ry="2"/><rect class="c c1h" x="690" y="98" rx="2" ry="2"/><rect class="c c1i" x="706" y="2" rx="2" ry="2"/><rect class="c c1j" x="706" y="18" rx="2" ry="2"/><rect class="c c1k" x="706" y="34" rx="2" ry="2"/><rect class="c c1l" x="706" y="50" rx="2" ry="2"/><rect class="c c1m" x="706" y="66" rx="2" ry="2"/><rect class="c c1n" x="706" y="82" rx="2" ry="2"/><rect class="c c1o" x="706" y="98" rx="2" ry="2"/><rect class="c c1p" x="722" y="2" rx="2" ry="2"/><rect class="c c1q" x="722" y="18" rx="2" ry="2"/><rect class="c c1r" x="722" y="34" rx="2" ry="2"/><rect class="c c1s" x="722" y="50" rx="2" ry="2"/><rect class="c c1t" x="722" y="66" rx="2" ry="2"/><rect class="c c1u" x="722" y="82" rx="2" ry="2"/><rect class="c c1v" x="722" y="98" rx="2" ry="2"/><rect class="c c1w" x="738" y="2" rx="2" ry="2"/><rect class="c c1x" x="738" y="18" rx="2" ry="2"/><rect class="c c1y" x="738" y="34" rx="2" ry="2"/><rect class="c c1z" x="738" y="50" rx="2" ry="2"/><rect class="c c20" x="738" y="66" rx="2" ry="2"/><rect class="c c21" x="738" y="82" rx="2" ry="2"/><rect class="c c22" x="738" y="98" rx="2" ry="2"/><rect class="c c23" x="754" y="2" rx="2" ry="2"/><rect class="c c24" x="754" y="18" rx="2" ry="2"/><rect class="c c25" x="754" y="34" rx="2" ry="2"/><rect class="c c26" x="754" y="50" rx="2" ry="2"/><rect class="c c27" x="754" y="66" rx="2" ry="2"/><rect class="c c28" x="754" y="82" rx="2" ry="2"/><rect class="c c29" x="754" y="98" rx="2" ry="2"/><rect class="c c2a" x="770" y="2" rx="2" ry="2"/><rect class="c c2b" x="770" y="18" rx="2" ry="2"/><rect class="c c2c" x="770" y="34" rx="2" ry="2"/><rect class="c c2d" x="770" y="50" rx="2" ry="2"/><rect class="c c2e" x="770" y="66" rx="2" ry="2"/><rect class="c c2f" x="770" y="82" rx="2" ry="2"/><rect class="c c2g" x="770" y="98" rx="2" ry="2"/><rect class="c c2h" x="786" y="2" rx="2" ry="2"/><rect class="c c2i" x="786" y="18" rx="2" ry="2"/><rect class="c c2j" x="786" y="34" rx="2" ry="2"/><rect class="c c2k" x="786" y="50" rx="2" ry="2"/><rect class="c c2l" x="786" y="66" rx="2" ry="2"/><rect class="c c2m" x="786" y="82" rx="2" ry="2"/><rect class="c c2n" x="786" y="98" rx="2" ry="2"/><rect class="c c2o" x="802" y="2" rx="2" ry="2"/><rect class="c c2p" x="802" y="18" rx="2" ry="2"/><rect class="c c2q" x="802" y="34" rx="2" ry="2"/><rect class="c c2r" x="802" y="50" rx="2" ry="2"/><rect class="c c2s" x="802" y="66" rx="2" ry="2"/><rect class="c c2t" x="802" y="82" rx="2" ry="2"/><rect class="c c2u" x="802" y="98" rx="2" ry="2"/><rect class="c c2v" x="818" y="2" rx="2" ry="2"/><rect class="c c2w" x="818" y="18" rx="2" ry="2"/><rect class="c c2x" x="818" y="34" rx="2" ry="2"/><rect class="c c2y" x="818" y="50" rx="2" ry="2"/><rect class="c c2z" x="818" y="66" rx="2" ry="2"/><rect class="c c30" x="818" y="82" rx="2" ry="2"/><rect class="c c31" x="818" y="98" rx="2" ry="2"/><rect class="c c32" x="834" y="2" rx="2" ry="2"/><rect class="c c33" x="834" y="18" rx="2" ry="2"/><rect class="c c34" x="834" y="34" rx="2" ry="2"/><rect class="c c35" x="834" y="50" rx="2" ry="2"/><rect class="c c36" x="834" y="66" rx="2" ry="2"/><rect class="c c37" x="834" y="82" rx="2" ry="2"/><rect class="u u0" height="12" width="73.7" x="0.0" y="144"/><rect class="u u1" height="12" width="395.4" x="73.1" y="144"/><rect class="u u2" height="12" width="380.7" x="467.9" y="144"/><rect class="s s0" x="0.8" y="0.8" width="14.4" height="14.4" rx="4.5" ry="4.5"/><rect class="s s1" x="1.8" y="1.8" width="12.3" height="12.3" rx="4.1" ry="4.1"/><rect class="s s2" x="2.6" y="2.6" width="10.8" height="10.8" rx="3.6" ry="3.6"/><rect class="s s3" x="3.0" y="3.0" width="9.9" height="9.9" rx="3.3" ry="3.3"/></svg>