<svg viewBox="-16 -32 880 192" width="880" height="192" xmlns="http://www.w3.org/2000/svg"><desc>Generated with https://github.com/Platane/snk</desc><style>:root{--cb:#1b1f230a;--cs:purple;--ce:#ebedf0;--c0:#ebedf0;--c1:#9be9a8;--c2:#40c463;--c3:#30a14e;--c4:#216e39}.c{shape-rendering:geometricPrecision;fill:var(--ce);stroke-width:1px;stroke:var(--cb);animation:none 31700ms linear infinite;width:12px;height:12px}@keyframes c0{5.35%{fill:var(--c1)}5.37%,100%{fill:var(--ce)}}.c.c0{fill:var(--c1);animation-name:c0}@keyframes c1{51.09%{fill:var(--c2)}51.11%,100%{fill:var(--ce)}}.c.c1{fill:var(--c2);animation-name:c1}@keyframes c2{3.14%{fill:var(--c1)}3.16%,100%{fill:var(--ce)}}.c.c2{fill:var(--c1);animation-name:c2}@keyframes c3{3.46%{fill:var(--c1)}3.48%,100%{fill:var(--ce)}}.c.c3{fill:var(--c1);animation-name:c3}@keyframes c4{48.25%{fill:var(--c2)}48.27%,100%{fill:var(--ce)}}.c.c4{fill:var(--c2);animation-name:c4}@keyframes c5{56.46%{fill:var(--c4)}56.48%,100%{fill:var(--ce)}}.c.c5{fill:var(--c4);animation-name:c5}@keyframes c6{11.03%{fill:var(--c1)}11.05%,100%{fill:var(--ce)}}.c.c6{fill:var(--c1);animation-name:c6}@keyframes c7{15.13%{fill:var(--c1)}15.15%,100%{fill:var(--ce)}}.c.c7{fill:var(--c1);animation-name:c7}@keyframes c8{41.63%{fill:var(--c2)}41.65%,100%{fill:var(--ce)}}.c.c8{fill:var(--c2);animation-name:c8}@keyframes c9{88.63%{fill:var(--c4)}88.65%,100%{fill:var(--ce)}}.c.c9{fill:var(--c4);animation-name:c9}@keyframes ca{14.5%{fill:var(--c1)}14.52%,100%{fill:var(--ce)}}.c.ca{fill:var(--c1);animation-name:ca}@keyframes cb{18.6%{fill:var(--c1)}18.62%,100%{fill:var(--ce)}}.c.cb{fill:var(--c1);animation-name:cb}@keyframes cc{16.08%{fill:var(--c1)}16.1%,100%{fill:var(--ce)}}.c.cc{fill:var(--c1);animation-name:cc}@keyframes cd{16.39%{fill:var(--c1)}16.41%,100%{fill:var(--ce)}}.c.cd{fill:var(--c1);animation-name:cd}@keyframes ce{61.82%{fill:var(--c4)}61.84%,100%{fill:var(--ce)}}.c.ce{fill:var(--c4);animation-name:ce}@keyframes cf{61.5%{fill:var(--c4)}61.52%,100%{fill:var(--ce)}}.c.cf{fill:var(--c4);animation-name:cf}@keyframes cg{39.11%{fill:var(--c2)}39.13%,100%{fill:var(--ce)}}.c.cg{fill:var(--c2);animation-name:cg}@keyframes ch{38.79%{fill:var(--c2)}38.81%,100%{fill:var(--ce)}}.c.ch{fill:var(--c2);animation-name:ch}@keyframes ci{40.37%{fill:var(--c2)}40.39%,100%{fill:var(--ce)}}.c.ci{fill:var(--c2);animation-name:ci}@keyframes cj{19.86%{fill:var(--c2)}19.88%,100%{fill:var(--ce)}}.c.cj{fill:var(--c2);animation-name:cj}@keyframes ck{29.01%{fill:var(--c2)}29.03%,100%{fill:var(--ce)}}.c.ck{fill:var(--c2);animation-name:ck}@keyframes cl{28.7%{fill:var(--c2)}28.72%,100%{fill:var(--ce)}}.c.cl{fill:var(--c2);animation-name:cl}@keyframes cm{30.9%{fill:var(--c2)}30.92%,100%{fill:var(--ce)}}.c.cm{fill:var(--c2);animation-name:cm}@keyframes cn{31.22%{fill:var(--c2)}31.24%,100%{fill:var(--ce)}}.c.cn{fill:var(--c2);animation-name:cn}@keyframes co{38.48%{fill:var(--c2)}38.5%,100%{fill:var(--ce)}}.c.co{fill:var(--c2);animation-name:co}@keyframes cp{40.05%{fill:var(--c2)}40.07%,100%{fill:var(--ce)}}.c.cp{fill:var(--c2);animation-name:cp}@keyframes cq{20.18%{fill:var(--c2)}20.2%,100%{fill:var(--ce)}}.c.cq{fill:var(--c2);animation-name:cq}@keyframes cr{62.77%{fill:var(--c4)}62.79%,100%{fill:var(--ce)}}.c.cr{fill:var(--c4);animation-name:cr}@keyframes cs{28.38%{fill:var(--c2)}28.4%,100%{fill:var(--ce)}}.c.cs{fill:var(--c2);animation-name:cs}@keyframes ct{28.07%{fill:var(--c2)}28.09%,100%{fill:var(--ce)}}.c.ct{fill:var(--c2);animation-name:ct}@keyframes cu{31.54%{fill:var(--c2)}31.56%,100%{fill:var(--ce)}}.c.cu{fill:var(--c2);animation-name:cu}@keyframes cv{38.16%{fill:var(--c2)}38.18%,100%{fill:var(--ce)}}.c.cv{fill:var(--c2);animation-name:cv}@keyframes cw{37.84%{fill:var(--c2)}37.86%,100%{fill:var(--ce)}}.c.cw{fill:var(--c2);animation-name:cw}@keyframes cx{20.49%{fill:var(--c2)}20.51%,100%{fill:var(--ce)}}.c.cx{fill:var(--c2);animation-name:cx}@keyframes cy{24.6%{fill:var(--c2)}24.62%,100%{fill:var(--ce)}}.c.cy{fill:var(--c2);animation-name:cy}@keyframes cz{24.91%{fill:var(--c2)}24.93%,100%{fill:var(--ce)}}.c.cz{fill:var(--c2);animation-name:cz}@keyframes c10{27.75%{fill:var(--c2)}27.77%,100%{fill:var(--ce)}}.c.c10{fill:var(--c2);animation-name:c10}@keyframes c11{31.85%{fill:var(--c2)}31.87%,100%{fill:var(--ce)}}.c.c11{fill:var(--c2);animation-name:c11}@keyframes c12{32.17%{fill:var(--c2)}32.19%,100%{fill:var(--ce)}}.c.c12{fill:var(--c2);animation-name:c12}@keyframes c13{37.53%{fill:var(--c2)}37.55%,100%{fill:var(--ce)}}.c.c13{fill:var(--c2);animation-name:c13}@keyframes c14{20.81%{fill:var(--c2)}20.83%,100%{fill:var(--ce)}}.c.c14{fill:var(--c2);animation-name:c14}@keyframes c15{24.28%{fill:var(--c2)}24.3%,100%{fill:var(--ce)}}.c.c15{fill:var(--c2);animation-name:c15}@keyframes c16{25.23%{fill:var(--c2)}25.25%,100%{fill:var(--ce)}}.c.c16{fill:var(--c2);animation-name:c16}@keyframes c17{27.43%{fill:var(--c2)}27.45%,100%{fill:var(--ce)}}.c.c17{fill:var(--c2);animation-name:c17}@keyframes c18{64.34%{fill:var(--c4)}64.36%,100%{fill:var(--ce)}}.c.c18{fill:var(--c4);animation-name:c18}@keyframes c19{32.48%{fill:var(--c2)}32.5%,100%{fill:var(--ce)}}.c.c19{fill:var(--c2);animation-name:c19}@keyframes c1a{37.21%{fill:var(--c2)}37.23%,100%{fill:var(--ce)}}.c.c1a{fill:var(--c2);animation-name:c1a}@keyframes c1b{21.13%{fill:var(--c2)}21.15%,100%{fill:var(--ce)}}.c.c1b{fill:var(--c2);animation-name:c1b}@keyframes c1c{23.96%{fill:var(--c2)}23.98%,100%{fill:var(--ce)}}.c.c1c{fill:var(--c2);animation-name:c1c}@keyframes c1d{25.54%{fill:var(--c2)}25.56%,100%{fill:var(--ce)}}.c.c1d{fill:var(--c2);animation-name:c1d}@keyframes c1e{27.12%{fill:var(--c2)}27.14%,100%{fill:var(--ce)}}.c.c1e{fill:var(--c2);animation-name:c1e}@keyframes c1f{34.37%{fill:var(--c2)}34.39%,100%{fill:var(--ce)}}.c.c1f{fill:var(--c2);animation-name:c1f}@keyframes c1g{32.8%{fill:var(--c2)}32.82%,100%{fill:var(--ce)}}.c.c1g{fill:var(--c2);animation-name:c1g}@keyframes c1h{35.01%{fill:var(--c2)}35.03%,100%{fill:var(--ce)}}.c.c1h{fill:var(--c2);animation-name:c1h}@keyframes c1i{21.44%{fill:var(--c2)}21.46%,100%{fill:var(--ce)}}.c.c1i{fill:var(--c2);animation-name:c1i}@keyframes c1j{23.65%{fill:var(--c2)}23.67%,100%{fill:var(--ce)}}.c.c1j{fill:var(--c2);animation-name:c1j}@keyframes c1k{25.86%{fill:var(--c2)}25.88%,100%{fill:var(--ce)}}.c.c1k{fill:var(--c2);animation-name:c1k}@keyframes c1l{26.8%{fill:var(--c2)}26.82%,100%{fill:var(--ce)}}.c.c1l{fill:var(--c2);animation-name:c1l}@keyframes c1m{34.06%{fill:var(--c2)}34.08%,100%{fill:var(--ce)}}.c.c1m{fill:var(--c2);animation-name:c1m}@keyframes c1n{33.11%{fill:var(--c2)}33.13%,100%{fill:var(--ce)}}.c.c1n{fill:var(--c2);animation-name:c1n}@keyframes c1o{35.32%{fill:var(--c2)}35.34%,100%{fill:var(--ce)}}.c.c1o{fill:var(--c2);animation-name:c1o}@keyframes c1p{21.76%{fill:var(--c2)}21.78%,100%{fill:var(--ce)}}.c.c1p{fill:var(--c2);animation-name:c1p}@keyframes c1q{23.33%{fill:var(--c2)}23.35%,100%{fill:var(--ce)}}.c.c1q{fill:var(--c2);animation-name:c1q}@keyframes c1r{26.17%{fill:var(--c2)}26.19%,100%{fill:var(--ce)}}.c.c1r{fill:var(--c2);animation-name:c1r}@keyframes c1s{26.49%{fill:var(--c2)}26.51%,100%{fill:var(--ce)}}.c.c1s{fill:var(--c2);animation-name:c1s}@keyframes c1t{33.74%{fill:var(--c2)}33.76%,100%{fill:var(--ce)}}.c.c1t{fill:var(--c2);animation-name:c1t}@keyframes c1u{33.43%{fill:var(--c2)}33.45%,100%{fill:var(--ce)}}.c.c1u{fill:var(--c2);animation-name:c1u}@keyframes c1v{35.64%{fill:var(--c2)}35.66%,100%{fill:var(--ce)}}.c.c1v{fill:var(--c2);animation-name:c1v}@keyframes c1w{22.07%{fill:var(--c2)}22.09%,100%{fill:var(--ce)}}.c.c1w{fill:var(--c2);animation-name:c1w}@keyframes c1x{75.38%{fill:var(--c4)}75.4%,100%{fill:var(--ce)}}.c.c1x{fill:var(--c4);animation-name:c1x}@keyframes c1y{75.07%{fill:var(--c4)}75.09%,100%{fill:var(--ce)}}.c.c1y{fill:var(--c4);animation-name:c1y}@keyframes c1z{84.22%{fill:var(--c4)}84.24%,100%{fill:var(--ce)}}.c.c1z{fill:var(--c4);animation-name:c1z}@keyframes c20{65.61%{fill:var(--c4)}65.63%,100%{fill:var(--ce)}}.c.c20{fill:var(--c4);animation-name:c20}@keyframes c21{81.06%{fill:var(--c4)}81.08%,100%{fill:var(--ce)}}.c.c21{fill:var(--c4);animation-name:c21}@keyframes c22{81.38%{fill:var(--c4)}81.4%,100%{fill:var(--ce)}}.c.c22{fill:var(--c4);animation-name:c22}@keyframes c23{70.97%{fill:var(--c4)}70.99%,100%{fill:var(--ce)}}.c.c23{fill:var(--c4);animation-name:c23}@keyframes c24{71.28%{fill:var(--c4)}71.3%,100%{fill:var(--ce)}}.c.c24{fill:var(--c4);animation-name:c24}@keyframes c25{74.75%{fill:var(--c4)}74.77%,100%{fill:var(--ce)}}.c.c25{fill:var(--c4);animation-name:c25}@keyframes c26{76.33%{fill:var(--c4)}76.35%,100%{fill:var(--ce)}}.c.c26{fill:var(--c4);animation-name:c26}@keyframes c27{65.92%{fill:var(--c4)}65.94%,100%{fill:var(--ce)}}.c.c27{fill:var(--c4);animation-name:c27}@keyframes c28{80.75%{fill:var(--c4)}80.77%,100%{fill:var(--ce)}}.c.c28{fill:var(--c4);animation-name:c28}@keyframes c29{81.69%{fill:var(--c4)}81.71%,100%{fill:var(--ce)}}.c.c29{fill:var(--c4);animation-name:c29}@keyframes c2a{70.65%{fill:var(--c4)}70.67%,100%{fill:var(--ce)}}.c.c2a{fill:var(--c4);animation-name:c2a}@keyframes c2b{71.6%{fill:var(--c4)}71.62%,100%{fill:var(--ce)}}.c.c2b{fill:var(--c4);animation-name:c2b}@keyframes c2c{74.44%{fill:var(--c4)}74.46%,100%{fill:var(--ce)}}.c.c2c{fill:var(--c4);animation-name:c2c}@keyframes c2d{76.65%{fill:var(--c4)}76.67%,100%{fill:var(--ce)}}.c.c2d{fill:var(--c4);animation-name:c2d}@keyframes c2e{66.24%{fill:var(--c4)}66.26%,100%{fill:var(--ce)}}.c.c2e{fill:var(--c4);animation-name:c2e}@keyframes c2f{80.43%{fill:var(--c4)}80.45%,100%{fill:var(--ce)}}.c.c2f{fill:var(--c4);animation-name:c2f}@keyframes c2g{82.01%{fill:var(--c4)}82.03%,100%{fill:var(--ce)}}.c.c2g{fill:var(--c4);animation-name:c2g}@keyframes c2h{70.34%{fill:var(--c4)}70.36%,100%{fill:var(--ce)}}.c.c2h{fill:var(--c4);animation-name:c2h}@keyframes c2i{71.91%{fill:var(--c4)}71.93%,100%{fill:var(--ce)}}.c.c2i{fill:var(--c4);animation-name:c2i}@keyframes c2j{74.12%{fill:var(--c4)}74.14%,100%{fill:var(--ce)}}.c.c2j{fill:var(--c4);animation-name:c2j}@keyframes c2k{76.96%{fill:var(--c4)}76.98%,100%{fill:var(--ce)}}.c.c2k{fill:var(--c4);animation-name:c2k}@keyframes c2l{66.55%{fill:var(--c4)}66.57%,100%{fill:var(--ce)}}.c.c2l{fill:var(--c4);animation-name:c2l}@keyframes c2m{80.12%{fill:var(--c4)}80.14%,100%{fill:var(--ce)}}.c.c2m{fill:var(--c4);animation-name:c2m}@keyframes c2n{82.32%{fill:var(--c4)}82.34%,100%{fill:var(--ce)}}.c.c2n{fill:var(--c4);animation-name:c2n}@keyframes c2o{70.02%{fill:var(--c4)}70.04%,100%{fill:var(--ce)}}.c.c2o{fill:var(--c4);animation-name:c2o}@keyframes c2p{72.23%{fill:var(--c4)}72.25%,100%{fill:var(--ce)}}.c.c2p{fill:var(--c4);animation-name:c2p}@keyframes c2q{73.81%{fill:var(--c4)}73.83%,100%{fill:var(--ce)}}.c.c2q{fill:var(--c4);animation-name:c2q}@keyframes c2r{77.28%{fill:var(--c4)}77.3%,100%{fill:var(--ce)}}.c.c2r{fill:var(--c4);animation-name:c2r}@keyframes c2s{66.87%{fill:var(--c4)}66.89%,100%{fill:var(--ce)}}.c.c2s{fill:var(--c4);animation-name:c2s}@keyframes c2t{79.8%{fill:var(--c4)}79.82%,100%{fill:var(--ce)}}.c.c2t{fill:var(--c4);animation-name:c2t}@keyframes c2u{79.49%{fill:var(--c4)}79.51%,100%{fill:var(--ce)}}.c.c2u{fill:var(--c4);animation-name:c2u}@keyframes c2v{69.71%{fill:var(--c4)}69.73%,100%{fill:var(--ce)}}.c.c2v{fill:var(--c4);animation-name:c2v}@keyframes c2w{72.55%{fill:var(--c4)}72.57%,100%{fill:var(--ce)}}.c.c2w{fill:var(--c4);animation-name:c2w}@keyframes c2x{73.49%{fill:var(--c4)}73.51%,100%{fill:var(--ce)}}.c.c2x{fill:var(--c4);animation-name:c2x}@keyframes c2y{77.59%{fill:var(--c4)}77.61%,100%{fill:var(--ce)}}.c.c2y{fill:var(--c4);animation-name:c2y}@keyframes c2z{67.18%{fill:var(--c4)}67.2%,100%{fill:var(--ce)}}.c.c2z{fill:var(--c4);animation-name:c2z}@keyframes c30{78.22%{fill:var(--c4)}78.24%,100%{fill:var(--ce)}}.c.c30{fill:var(--c4);animation-name:c30}@keyframes c31{79.17%{fill:var(--c4)}79.19%,100%{fill:var(--ce)}}.c.c31{fill:var(--c4);animation-name:c31}@keyframes c32{69.39%{fill:var(--c4)}69.41%,100%{fill:var(--ce)}}.c.c32{fill:var(--c4);animation-name:c32}@keyframes c33{72.86%{fill:var(--c4)}72.88%,100%{fill:var(--ce)}}.c.c33{fill:var(--c4);animation-name:c33}@keyframes c34{68.13%{fill:var(--c4)}68.15%,100%{fill:var(--ce)}}.c.c34{fill:var(--c4);animation-name:c34}@keyframes c35{67.81%{fill:var(--c4)}67.83%,100%{fill:var(--ce)}}.c.c35{fill:var(--c4);animation-name:c35}@keyframes c36{67.5%{fill:var(--c4)}67.52%,100%{fill:var(--ce)}}.c.c36{fill:var(--c4);animation-name:c36}@keyframes c37{78.54%{fill:var(--c4)}78.56%,100%{fill:var(--ce)}}.c.c37{fill:var(--c4);animation-name:c37}@keyframes c38{78.85%{fill:var(--c4)}78.87%,100%{fill:var(--ce)}}.c.c38{fill:var(--c4);animation-name:c38}@keyframes c39{69.08%{fill:var(--c4)}69.1%,100%{fill:var(--ce)}}.c.c39{fill:var(--c4);animation-name:c39}@keyframes c3a{68.76%{fill:var(--c4)}68.78%,100%{fill:var(--ce)}}.c.c3a{fill:var(--c4);animation-name:c3a}@keyframes c3b{68.44%{fill:var(--c4)}68.46%,100%{fill:var(--ce)}}.c.c3b{fill:var(--c4);animation-name:c3b}.u{transform-origin:0 0;transform:scale(0,1);animation:none linear 31700ms infinite}@keyframes u0{3.14%{transform:scale(0.000,1)}3.16%,3.46%{transform:scale(0.111,1)}3.48%,5.35%{transform:scale(0.222,1)}5.37%,11.03%{transform:scale(0.333,1)}11.05%,14.5%{transform:scale(0.444,1)}14.52%,15.13%{transform:scale(0.556,1)}15.15%,16.08%{transform:scale(0.667,1)}16.1%,16.39%{transform:scale(0.778,1)}16.41%,18.6%{transform:scale(0.889,1)}18.62%,100%{transform:scale(1.000,1)}}.u.u0{fill:var(--c1);animation-name:u0;transform-origin:0.0px 0}@keyframes u1{19.86%{transform:scale(0.000,1)}19.88%,20.18%{transform:scale(0.019,1)}20.2%,20.49%{transform:scale(0.037,1)}20.51%,20.81%{transform:scale(0.056,1)}20.83%,21.13%{transform:scale(0.074,1)}21.15%,21.44%{transform:scale(0.093,1)}21.46%,21.76%{transform:scale(0.111,1)}21.78%,22.07%{transform:scale(0.130,1)}22.09%,23.33%{transform:scale(0.148,1)}23.35%,23.65%{transform:scale(0.167,1)}23.67%,23.96%{transform:scale(0.185,1)}23.98%,24.28%{transform:scale(0.204,1)}24.3%,24.6%{transform:scale(0.222,1)}24.62%,24.91%{transform:scale(0.241,1)}24.93%,25.23%{transform:scale(0.259,1)}25.25%,25.54%{transform:scale(0.278,1)}25.56%,25.86%{transform:scale(0.296,1)}25.88%,26.17%{transform:scale(0.315,1)}26.19%,26.49%{transform:scale(0.333,1)}26.51%,26.8%{transform:scale(0.352,1)}26.82%,27.12%{transform:scale(0.370,1)}27.14%,27.43%{transform:scale(0.389,1)}27.45%,27.75%{transform:scale(0.407,1)}27.77%,28.07%{transform:scale(0.426,1)}28.09%,28.38%{transform:scale(0.444,1)}28.4%,28.7%{transform:scale(0.463,1)}28.72%,29.01%{transform:scale(0.481,1)}29.03%,30.9%{transform:scale(0.500,1)}30.92%,31.22%{transform:scale(0.519,1)}31.24%,31.54%{transform:scale(0.537,1)}31.56%,31.85%{transform:scale(0.556,1)}31.87%,32.17%{transform:scale(0.574,1)}32.19%,32.48%{transform:scale(0.593,1)}32.5%,32.8%{transform:scale(0.611,1)}32.82%,33.11%{transform:scale(0.630,1)}33.13%,33.43%{transform:scale(0.648,1)}33.45%,33.74%{transform:scale(0.667,1)}33.76%,34.06%{transform:scale(0.685,1)}34.08%,34.37%{transform:scale(0.704,1)}34.39%,35.01%{transform:scale(0.722,1)}35.03%,35.32%{transform:scale(0.741,1)}35.34%,35.64%{transform:scale(0.759,1)}35.66%,37.21%{transform:scale(0.778,1)}37.23%,37.53%{transform:scale(0.796,1)}37.55%,37.84%{transform:scale(0.815,1)}37.86%,38.16%{transform:scale(0.833,1)}38.18%,38.48%{transform:scale(0.852,1)}38.5%,38.79%{transform:scale(0.870,1)}38.81%,39.11%{transform:scale(0.889,1)}39.13%,40.05%{transform:scale(0.907,1)}40.07%,40.37%{transform:scale(0.926,1)}40.39%,41.63%{transform:scale(0.944,1)}41.65%,48.25%{transform:scale(0.963,1)}48.27%,51.09%{transform:scale(0.981,1)}51.11%,100%{transform:scale(1.000,1)}}.u.u1{fill:var(--c2);animation-name:u1;transform-origin:63.6px 0}@keyframes u2{56.46%{transform:scale(0.000,1)}56.48%,61.5%{transform:scale(0.018,1)}61.52%,61.82%{transform:scale(0.035,1)}61.84%,62.77%{transform:scale(0.053,1)}62.79%,64.34%{transform:scale(0.070,1)}64.36%,65.61%{transform:scale(0.088,1)}65.63%,65.92%{transform:scale(0.105,1)}65.94%,66.24%{transform:scale(0.123,1)}66.26%,66.55%{transform:scale(0.140,1)}66.57%,66.87%{transform:scale(0.158,1)}66.89%,67.18%{transform:scale(0.175,1)}67.2%,67.5%{transform:scale(0.193,1)}67.52%,67.81%{transform:scale(0.211,1)}67.83%,68.13%{transform:scale(0.228,1)}68.15%,68.44%{transform:scale(0.246,1)}68.46%,68.76%{transform:scale(0.263,1)}68.78%,69.08%{transform:scale(0.281,1)}69.1%,69.39%{transform:scale(0.298,1)}69.41%,69.71%{transform:scale(0.316,1)}69.73%,70.02%{transform:scale(0.333,1)}70.04%,70.34%{transform:scale(0.351,1)}70.36%,70.65%{transform:scale(0.368,1)}70.67%,70.97%{transform:scale(0.386,1)}70.99%,71.28%{transform:scale(0.404,1)}71.3%,71.6%{transform:scale(0.421,1)}71.62%,71.91%{transform:scale(0.439,1)}71.93%,72.23%{transform:scale(0.456,1)}72.25%,72.55%{transform:scale(0.474,1)}72.57%,72.86%{transform:scale(0.491,1)}72.88%,73.49%{transform:scale(0.509,1)}73.51%,73.81%{transform:scale(0.526,1)}73.83%,74.12%{transform:scale(0.544,1)}74.14%,74.44%{transform:scale(0.561,1)}74.46%,74.75%{transform:scale(0.579,1)}74.77%,75.07%{transform:scale(0.596,1)}75.09%,75.38%{transform:scale(0.614,1)}75.4%,76.33%{transform:scale(0.632,1)}76.35%,76.65%{transform:scale(0.649,1)}76.67%,76.96%{transform:scale(0.667,1)}76.98%,77.28%{transform:scale(0.684,1)}77.3%,77.59%{transform:scale(0.702,1)}77.61%,78.22%{transform:scale(0.719,1)}78.24%,78.54%{transform:scale(0.737,1)}78.56%,78.85%{transform:scale(0.754,1)}78.87%,79.17%{transform:scale(0.772,1)}79.19%,79.49%{transform:scale(0.789,1)}79.51%,79.8%{transform:scale(0.807,1)}79.82%,80.12%{transform:scale(0.825,1)}80.14%,80.43%{transform:scale(0.842,1)}80.45%,80.75%{transform:scale(0.860,1)}80.77%,81.06%{transform:scale(0.877,1)}81.08%,81.38%{transform:scale(0.895,1)}81.4%,81.69%{transform:scale(0.912,1)}81.71%,82.01%{transform:scale(0.930,1)}82.03%,82.32%{transform:scale(0.947,1)}82.34%,84.22%{transform:scale(0.965,1)}84.24%,88.63%{transform:scale(0.982,1)}88.65%,100%{transform:scale(1.000,1)}}.u.u2{fill:var(--c4);animation-name:u2;transform-origin:445.2px 0}.s{shape-rendering:geometricPrecision;fill:var(--cs);animation:none linear 31700ms infinite}@keyframes s0{0%,99.68%{transform:translate(0px,-16px)}0.32%{transform:translate(0px,0px)}3.15%{transform:translate(144px,0px)}3.47%{transform:translate(144px,16px)}4.1%{transform:translate(112px,16px)}5.36%{transform:translate(112px,80px)}10.41%{transform:translate(368px,80px)}11.04%{transform:translate(368px,48px)}14.51%{transform:translate(544px,48px)}14.83%{transform:translate(544px,64px)}15.14%{transform:translate(528px,64px)}15.46%,41.96%{transform:translate(528px,80px)}16.09%{transform:translate(560px,80px)}16.4%{transform:translate(560px,96px)}16.72%{transform:translate(576px,96px)}18.3%{transform:translate(576px,16px)}18.61%{transform:translate(560px,16px)}18.93%{transform:translate(560px,0px)}22.08%,85.17%{transform:translate(720px,0px)}22.4%{transform:translate(720px,-16px)}22.71%{transform:translate(704px,-16px)}23.34%{transform:translate(704px,16px)}24.61%{transform:translate(640px,16px)}24.92%{transform:translate(640px,32px)}26.18%{transform:translate(704px,32px)}26.5%{transform:translate(704px,48px)}28.08%{transform:translate(624px,48px)}28.39%,62.46%{transform:translate(624px,32px)}28.71%{transform:translate(608px,32px)}29.34%{transform:translate(608px,0px)}29.65%{transform:translate(592px,0px)}29.97%{transform:translate(592px,16px)}30.28%{transform:translate(608px,16px)}31.23%,39.43%{transform:translate(608px,64px)}31.86%{transform:translate(640px,64px)}32.18%{transform:translate(640px,80px)}33.44%,35.96%{transform:translate(704px,80px)}33.75%{transform:translate(704px,64px)}34.38%{transform:translate(672px,64px)}35.02%{transform:translate(672px,96px)}35.65%{transform:translate(704px,96px)}36.91%{transform:translate(656px,80px)}37.22%{transform:translate(656px,96px)}37.85%{transform:translate(624px,96px)}38.17%{transform:translate(624px,80px)}38.8%{transform:translate(592px,80px)}39.12%,61.2%{transform:translate(592px,64px)}40.06%{transform:translate(608px,96px)}41.64%{transform:translate(528px,96px)}45.74%{transform:translate(336px,80px)}46.06%{transform:translate(336px,64px)}50.47%{transform:translate(112px,64px)}51.1%{transform:translate(112px,96px)}55.84%{transform:translate(352px,96px)}56.47%{transform:translate(352px,64px)}61.83%{transform:translate(592px,32px)}62.78%{transform:translate(624px,16px)}63.41%{transform:translate(656px,16px)}64.35%{transform:translate(656px,64px)}67.51%{transform:translate(816px,64px)}68.14%,73.19%{transform:translate(816px,32px)}68.45%{transform:translate(832px,32px)}69.09%{transform:translate(832px,0px)}70.98%{transform:translate(736px,0px)}71.29%,75.71%{transform:translate(736px,16px)}72.87%{transform:translate(816px,16px)}75.08%{transform:translate(720px,32px)}75.39%{transform:translate(720px,16px)}76.34%{transform:translate(736px,48px)}77.6%{transform:translate(800px,48px)}78.23%{transform:translate(800px,80px)}78.55%{transform:translate(816px,80px)}78.86%{transform:translate(816px,96px)}79.5%{transform:translate(784px,96px)}79.81%{transform:translate(784px,80px)}81.07%{transform:translate(720px,80px)}81.39%{transform:translate(720px,96px)}82.33%{transform:translate(768px,96px)}83.28%{transform:translate(768px,48px)}84.23%{transform:translate(720px,48px)}98.11%{transform:translate(64px,0px)}98.42%{transform:translate(64px,-16px)}}.s.s0{transform:translate(0px,-16px);animation-name:s0}@keyframes s1{0%,99.68%{transform:translate(16px,-16px)}0.32%{transform:translate(0px,-16px)}0.63%{transform:translate(0px,0px)}3.47%{transform:translate(144px,0px)}3.79%{transform:translate(144px,16px)}4.42%{transform:translate(112px,16px)}5.68%{transform:translate(112px,80px)}10.73%{transform:translate(368px,80px)}11.36%{transform:translate(368px,48px)}14.83%{transform:translate(544px,48px)}15.14%{transform:translate(544px,64px)}15.46%{transform:translate(528px,64px)}15.77%,42.27%{transform:translate(528px,80px)}16.4%{transform:translate(560px,80px)}16.72%{transform:translate(560px,96px)}17.03%{transform:translate(576px,96px)}18.61%{transform:translate(576px,16px)}18.93%{transform:translate(560px,16px)}19.24%{transform:translate(560px,0px)}22.4%,85.49%{transform:translate(720px,0px)}22.71%{transform:translate(720px,-16px)}23.03%{transform:translate(704px,-16px)}23.66%{transform:translate(704px,16px)}24.92%{transform:translate(640px,16px)}25.24%{transform:translate(640px,32px)}26.5%{transform:translate(704px,32px)}26.81%{transform:translate(704px,48px)}28.39%{transform:translate(624px,48px)}28.71%,62.78%{transform:translate(624px,32px)}29.02%{transform:translate(608px,32px)}29.65%{transform:translate(608px,0px)}29.97%{transform:translate(592px,0px)}30.28%{transform:translate(592px,16px)}30.6%{transform:translate(608px,16px)}31.55%,39.75%{transform:translate(608px,64px)}32.18%{transform:translate(640px,64px)}32.49%{transform:translate(640px,80px)}33.75%,36.28%{transform:translate(704px,80px)}34.07%{transform:translate(704px,64px)}34.7%{transform:translate(672px,64px)}35.33%{transform:translate(672px,96px)}35.96%{transform:translate(704px,96px)}37.22%{transform:translate(656px,80px)}37.54%{transform:translate(656px,96px)}38.17%{transform:translate(624px,96px)}38.49%{transform:translate(624px,80px)}39.12%{transform:translate(592px,80px)}39.43%,61.51%{transform:translate(592px,64px)}40.38%{transform:translate(608px,96px)}41.96%{transform:translate(528px,96px)}46.06%{transform:translate(336px,80px)}46.37%{transform:translate(336px,64px)}50.79%{transform:translate(112px,64px)}51.42%{transform:translate(112px,96px)}56.15%{transform:translate(352px,96px)}56.78%{transform:translate(352px,64px)}62.15%{transform:translate(592px,32px)}63.09%{transform:translate(624px,16px)}63.72%{transform:translate(656px,16px)}64.67%{transform:translate(656px,64px)}67.82%{transform:translate(816px,64px)}68.45%,73.5%{transform:translate(816px,32px)}68.77%{transform:translate(832px,32px)}69.4%{transform:translate(832px,0px)}71.29%{transform:translate(736px,0px)}71.61%,76.03%{transform:translate(736px,16px)}73.19%{transform:translate(816px,16px)}75.39%{transform:translate(720px,32px)}75.71%{transform:translate(720px,16px)}76.66%{transform:translate(736px,48px)}77.92%{transform:translate(800px,48px)}78.55%{transform:translate(800px,80px)}78.86%{transform:translate(816px,80px)}79.18%{transform:translate(816px,96px)}79.81%{transform:translate(784px,96px)}80.13%{transform:translate(784px,80px)}81.39%{transform:translate(720px,80px)}81.7%{transform:translate(720px,96px)}82.65%{transform:translate(768px,96px)}83.6%{transform:translate(768px,48px)}84.54%{transform:translate(720px,48px)}98.42%{transform:translate(64px,0px)}98.74%{transform:translate(64px,-16px)}}.s.s1{transform:translate(16px,-16px);animation-name:s1}@keyframes s2{0%,99.68%{transform:translate(32px,-16px)}0.63%{transform:translate(0px,-16px)}0.95%{transform:translate(0px,0px)}3.79%{transform:translate(144px,0px)}4.1%{transform:translate(144px,16px)}4.73%{transform:translate(112px,16px)}5.99%{transform:translate(112px,80px)}11.04%{transform:translate(368px,80px)}11.67%{transform:translate(368px,48px)}15.14%{transform:translate(544px,48px)}15.46%{transform:translate(544px,64px)}15.77%{transform:translate(528px,64px)}16.09%,42.59%{transform:translate(528px,80px)}16.72%{transform:translate(560px,80px)}17.03%{transform:translate(560px,96px)}17.35%{transform:translate(576px,96px)}18.93%{transform:translate(576px,16px)}19.24%{transform:translate(560px,16px)}19.56%{transform:translate(560px,0px)}22.71%,85.8%{transform:translate(720px,0px)}23.03%{transform:translate(720px,-16px)}23.34%{transform:translate(704px,-16px)}23.97%{transform:translate(704px,16px)}25.24%{transform:translate(640px,16px)}25.55%{transform:translate(640px,32px)}26.81%{transform:translate(704px,32px)}27.13%{transform:translate(704px,48px)}28.71%{transform:translate(624px,48px)}29.02%,63.09%{transform:translate(624px,32px)}29.34%{transform:translate(608px,32px)}29.97%{transform:translate(608px,0px)}30.28%{transform:translate(592px,0px)}30.6%{transform:translate(592px,16px)}30.91%{transform:translate(608px,16px)}31.86%,40.06%{transform:translate(608px,64px)}32.49%{transform:translate(640px,64px)}32.81%{transform:translate(640px,80px)}34.07%,36.59%{transform:translate(704px,80px)}34.38%{transform:translate(704px,64px)}35.02%{transform:translate(672px,64px)}35.65%{transform:translate(672px,96px)}36.28%{transform:translate(704px,96px)}37.54%{transform:translate(656px,80px)}37.85%{transform:translate(656px,96px)}38.49%{transform:translate(624px,96px)}38.8%{transform:translate(624px,80px)}39.43%{transform:translate(592px,80px)}39.75%,61.83%{transform:translate(592px,64px)}40.69%{transform:translate(608px,96px)}42.27%{transform:translate(528px,96px)}46.37%{transform:translate(336px,80px)}46.69%{transform:translate(336px,64px)}51.1%{transform:translate(112px,64px)}51.74%{transform:translate(112px,96px)}56.47%{transform:translate(352px,96px)}57.1%{transform:translate(352px,64px)}62.46%{transform:translate(592px,32px)}63.41%{transform:translate(624px,16px)}64.04%{transform:translate(656px,16px)}64.98%{transform:translate(656px,64px)}68.14%{transform:translate(816px,64px)}68.77%,73.82%{transform:translate(816px,32px)}69.09%{transform:translate(832px,32px)}69.72%{transform:translate(832px,0px)}71.61%{transform:translate(736px,0px)}71.92%,76.34%{transform:translate(736px,16px)}73.5%{transform:translate(816px,16px)}75.71%{transform:translate(720px,32px)}76.03%{transform:translate(720px,16px)}76.97%{transform:translate(736px,48px)}78.23%{transform:translate(800px,48px)}78.86%{transform:translate(800px,80px)}79.18%{transform:translate(816px,80px)}79.5%{transform:translate(816px,96px)}80.13%{transform:translate(784px,96px)}80.44%{transform:translate(784px,80px)}81.7%{transform:translate(720px,80px)}82.02%{transform:translate(720px,96px)}82.97%{transform:translate(768px,96px)}83.91%{transform:translate(768px,48px)}84.86%{transform:translate(720px,48px)}98.74%{transform:translate(64px,0px)}99.05%{transform:translate(64px,-16px)}}.s.s2{transform:translate(32px,-16px);animation-name:s2}@keyframes s3{0%,99.68%{transform:translate(48px,-16px)}0.95%{transform:translate(0px,-16px)}1.26%{transform:translate(0px,0px)}4.1%{transform:translate(144px,0px)}4.42%{transform:translate(144px,16px)}5.05%{transform:translate(112px,16px)}6.31%{transform:translate(112px,80px)}11.36%{transform:translate(368px,80px)}11.99%{transform:translate(368px,48px)}15.46%{transform:translate(544px,48px)}15.77%{transform:translate(544px,64px)}16.09%{transform:translate(528px,64px)}16.4%,42.9%{transform:translate(528px,80px)}17.03%{transform:translate(560px,80px)}17.35%{transform:translate(560px,96px)}17.67%{transform:translate(576px,96px)}19.24%{transform:translate(576px,16px)}19.56%{transform:translate(560px,16px)}19.87%{transform:translate(560px,0px)}23.03%,86.12%{transform:translate(720px,0px)}23.34%{transform:translate(720px,-16px)}23.66%{transform:translate(704px,-16px)}24.29%{transform:translate(704px,16px)}25.55%{transform:translate(640px,16px)}25.87%{transform:translate(640px,32px)}27.13%{transform:translate(704px,32px)}27.44%{transform:translate(704px,48px)}29.02%{transform:translate(624px,48px)}29.34%,63.41%{transform:translate(624px,32px)}29.65%{transform:translate(608px,32px)}30.28%{transform:translate(608px,0px)}30.6%{transform:translate(592px,0px)}30.91%{transform:translate(592px,16px)}31.23%{transform:translate(608px,16px)}32.18%,40.38%{transform:translate(608px,64px)}32.81%{transform:translate(640px,64px)}33.12%{transform:translate(640px,80px)}34.38%,36.91%{transform:translate(704px,80px)}34.7%{transform:translate(704px,64px)}35.33%{transform:translate(672px,64px)}35.96%{transform:translate(672px,96px)}36.59%{transform:translate(704px,96px)}37.85%{transform:translate(656px,80px)}38.17%{transform:translate(656px,96px)}38.8%{transform:translate(624px,96px)}39.12%{transform:translate(624px,80px)}39.75%{transform:translate(592px,80px)}40.06%,62.15%{transform:translate(592px,64px)}41.01%{transform:translate(608px,96px)}42.59%{transform:translate(528px,96px)}46.69%{transform:translate(336px,80px)}47%{transform:translate(336px,64px)}51.42%{transform:translate(112px,64px)}52.05%{transform:translate(112px,96px)}56.78%{transform:translate(352px,96px)}57.41%{transform:translate(352px,64px)}62.78%{transform:translate(592px,32px)}63.72%{transform:translate(624px,16px)}64.35%{transform:translate(656px,16px)}65.3%{transform:translate(656px,64px)}68.45%{transform:translate(816px,64px)}69.09%,74.13%{transform:translate(816px,32px)}69.4%{transform:translate(832px,32px)}70.03%{transform:translate(832px,0px)}71.92%{transform:translate(736px,0px)}72.24%,76.66%{transform:translate(736px,16px)}73.82%{transform:translate(816px,16px)}76.03%{transform:translate(720px,32px)}76.34%{transform:translate(720px,16px)}77.29%{transform:translate(736px,48px)}78.55%{transform:translate(800px,48px)}79.18%{transform:translate(800px,80px)}79.5%{transform:translate(816px,80px)}79.81%{transform:translate(816px,96px)}80.44%{transform:translate(784px,96px)}80.76%{transform:translate(784px,80px)}82.02%{transform:translate(720px,80px)}82.33%{transform:translate(720px,96px)}83.28%{transform:translate(768px,96px)}84.23%{transform:translate(768px,48px)}85.17%{transform:translate(720px,48px)}99.05%{transform:translate(64px,0px)}99.37%{transform:translate(64px,-16px)}}.s.s3{transform:translate(48px,-16px);animation-name:s3}</style><rect class="c" x="2" y="2" rx="2" ry="2"/><rect class="c" x="2" y="18" rx="2" ry="2"/><rect class="c" x="2" y="34" rx="2" ry="2"/><rect class="c" x="2" y="50" rx="2" ry="2"/><rect class="c" x="2" y="66" rx="2" ry="2"/><rect class="c" x="2" y="82" rx="2" ry="2"/><rect class="c" x="2" y="98" rx="2" ry="2"/><rect class="c" x="18" y="2" rx="2" ry="2"/><rect class="c" x="18" y="18" rx="2" ry="2"/><rect class="c" x="18" y="34" rx="2" ry="2"/><rect class="c" x="18" y="50" rx="2" ry="2"/><rect class="c" x="18" y="66" rx="2" ry="2"/><rect class="c" x="18" y="82" rx="2" ry="2"/><rect class="c" x="18" y="98" rx="2" ry="2"/><rect class="c" x="34" y="2" rx="2" ry="2"/><rect class="c" x="34" y="18" rx="2" ry="2"/><rect class="c" x="34" y="34" rx="2" ry="2"/><rect class="c" x="34" y="50" rx="2" ry="2"/><rect class="c" x="34" y="66" rx="2" ry="2"/><rect class="c" x="34" y="82" rx="2" ry="2"/><rect class="c" x="34" y="98" rx="2" ry="2"/><rect class="c" x="50" y="2" rx="2" ry="2"/><rect class="c" x="50" y="18" rx="2" ry="2"/><rect class="c" x="50" y="34" rx="2" ry="2"/><rect class="c" x="50" y="50" rx="2" ry="2"/><rect class="c" x="50" y="66" rx="2" ry="2"/><rect class="c" x="50" y="82" rx="2" ry="2"/><rect class="c" x="50" y="98" rx="2" ry="2"/><rect class="c" x="66" y="2" rx="2" ry="2"/><rect class="c" x="66" y="18" rx="2" ry="2"/><rect class="c" x="66" y="34" rx="2" ry="2"/><rect class="c" x="66" y="50" rx="2" ry="2"/><rect class="c" x="66" y="66" rx="2" ry="2"/><rect class="c" x="66" y="82" rx="2" ry="2"/><rect class="c" x="66" y="98" rx="2" ry="2"/><rect class="c" x="82" y="2" rx="2" ry="2"/><rect class="c" x="82" y="18" rx="2" ry="2"/><rect class="c" x="82" y="34" rx="2" ry="2"/><rect class="c" x="82" y="50" rx="2" ry="2"/><rect class="c" x="82" y="66" rx="2" ry="2"/><rect class="c" x="82" y="82" rx="2" ry="2"/><rect class="c" x="82" y="98" rx="2" ry="2"/><rect class="c" x="98" y="2" rx="2" ry="2"/><rect class="c" x="98" y="18" rx="2" ry="2"/><rect class="c" x="98" y="34" rx="2" ry="2"/><rect class="c" x="98" y="50" rx="2" ry="2"/><rect class="c" x="98" y="66" rx="2" ry="2"/><rect class="c" x="98" y="82" rx="2" ry="2"/><rect class="c" x="98" y="98" rx="2" ry="2"/><rect class="c" x="114" y="2" rx="2" ry="2"/><rect class="c" x="114" y="18" rx="2" ry="2"/><rect class="c" x="114" y="34" rx="2" ry="2"/><rect class="c" x="114" y="50" rx="2" ry="2"/><rect class="c" x="114" y="66" rx="2" ry="2"/><rect class="c c0" x="114" y="82" rx="2" ry="2"/><rect class="c c1" x="114" y="98" rx="2" ry="2"/><rect class="c" x="130" y="2" rx="2" ry="2"/><rect class="c" x="130" y="18" rx="2" ry="2"/><rect class="c" x="130" y="34" rx="2" ry="2"/><rect class="c" x="130" y="50" rx="2" ry="2"/><rect class="c" x="130" y="66" rx="2" ry="2"/><rect class="c" x="130" y="82" rx="2" ry="2"/><rect class="c" x="130" y="98" rx="2" ry="2"/><rect class="c c2" x="146" y="2" rx="2" ry="2"/><rect class="c c3" x="146" y="18" rx="2" ry="2"/><rect class="c" x="146" y="34" rx="2" ry="2"/><rect class="c" x="146" y="50" rx="2" ry="2"/><rect class="c" x="146" y="66" rx="2" ry="2"/><rect class="c" x="146" y="82" rx="2" ry="2"/><rect class="c" x="146" y="98" rx="2" ry="2"/><rect class="c" x="162" y="2" rx="2" ry="2"/><rect class="c" x="162" y="18" rx="2" ry="2"/><rect class="c" x="162" y="34" rx="2" ry="2"/><rect class="c" x="162" y="50" rx="2" ry="2"/><rect class="c" x="162" y="66" rx="2" ry="2"/><rect class="c" x="162" y="82" rx="2" ry="2"/><rect class="c" x="162" y="98" rx="2" ry="2"/><rect class="c" x="178" y="2" rx="2" ry="2"/><rect class="c" x="178" y="18" rx="2" ry="2"/><rect class="c" x="178" y="34" rx="2" ry="2"/><rect class="c" x="178" y="50" rx="2" ry="2"/><rect class="c" x="178" y="66" rx="2" ry="2"/><rect class="c" x="178" y="82" rx="2" ry="2"/><rect class="c" x="178" y="98" rx="2" ry="2"/><rect class="c" x="194" y="2" rx="2" ry="2"/><rect class="c" x="194" y="18" rx="2" ry="2"/><rect class="c" x="194" y="34" rx="2" ry="2"/><rect class="c" x="194" y="50" rx="2" ry="2"/><rect class="c" x="194" y="66" rx="2" ry="2"/><rect class="c" x="194" y="82" rx="2" ry="2"/><rect class="c" x="194" y="98" rx="2" ry="2"/><rect class="c" x="210" y="2" rx="2" ry="2"/><rect class="c" x="210" y="18" rx="2" ry="2"/><rect class="c" x="210" y="34" rx="2" ry="2"/><rect class="c" x="210" y="50" rx="2" ry="2"/><rect class="c" x="210" y="66" rx="2" ry="2"/><rect class="c" x="210" y="82" rx="2" ry="2"/><rect class="c" x="210" y="98" rx="2" ry="2"/><rect class="c" x="226" y="2" rx="2" ry="2"/><rect class="c" x="226" y="18" rx="2" ry="2"/><rect class="c" x="226" y="34" rx="2" ry="2"/><rect class="c" x="226" y="50" rx="2" ry="2"/><rect class="c c4" x="226" y="66" rx="2" ry="2"/><rect class="c" x="226" y="82" rx="2" ry="2"/><rect class="c" x="226" y="98" rx="2" ry="2"/><rect class="c" x="242" y="2" rx="2" ry="2"/><rect class="c" x="242" y="18" rx="2" ry="2"/><rect class="c" x="242" y="34" rx="2" ry="2"/><rect class="c" x="242" y="50" rx="2" ry="2"/><rect class="c" x="242" y="66" rx="2" ry="2"/><rect class="c" x="242" y="82" rx="2" ry="2"/><rect class="c" x="242" y="98" rx="2" ry="2"/><rect class="c" x="258" y="2" rx="2" ry="2"/><rect class="c" x="258" y="18" rx="2" ry="2"/><rect class="c" x="258" y="34" rx="2" ry="2"/><rect class="c" x="258" y="50" rx="2" ry="2"/><rect class="c" x="258" y="66" rx="2" ry="2"/><rect class="c" x="258" y="82" rx="2" ry="2"/><rect class="c" x="258" y="98" rx="2" ry="2"/><rect class="c" x="274" y="2" rx="2" ry="2"/><rect class="c" x="274" y="18" rx="2" ry="2"/><rect class="c" x="274" y="34" rx="2" ry="2"/><rect class="c" x="274" y="50" rx="2" ry="2"/><rect class="c" x="274" y="66" rx="2" ry="2"/><rect class="c" x="274" y="82" rx="2" ry="2"/><rect class="c" x="274" y="98" rx="2" ry="2"/><rect class="c" x="290" y="2" rx="2" ry="2"/><rect class="c" x="290" y="18" rx="2" ry="2"/><rect class="c" x="290" y="34" rx="2" ry="2"/><rect class="c" x="290" y="50" rx="2" ry="2"/><rect class="c" x="290" y="66" rx="2" ry="2"/><rect class="c" x="290" y="82" rx="2" ry="2"/><rect class="c" x="290" y="98" rx="2" ry="2"/><rect class="c" x="306" y="2" rx="2" ry="2"/><rect class="c" x="306" y="18" rx="2" ry="2"/><rect class="c" x="306" y="34" rx="2" ry="2"/><rect class="c" x="306" y="50" rx="2" ry="2"/><rect class="c" x="306" y="66" rx="2" ry="2"/><rect class="c" x="306" y="82" rx="2" ry="2"/><rect class="c" x="306" y="98" rx="2" ry="2"/><rect class="c" x="322" y="2" rx="2" ry="2"/><rect class="c" x="322" y="18" rx="2" ry="2"/><rect class="c" x="322" y="34" rx="2" ry="2"/><rect class="c" x="322" y="50" rx="2" ry="2"/><rect class="c" x="322" y="66" rx="2" ry="2"/><rect class="c" x="322" y="82" rx="2" ry="2"/><rect class="c" x="322" y="98" rx="2" ry="2"/><rect class="c" x="338" y="2" rx="2" ry="2"/><rect class="c" x="338" y="18" rx="2" ry="2"/><rect class="c" x="338" y="34" rx="2" ry="2"/><rect class="c" x="338" y="50" rx="2" ry="2"/><rect class="c" x="338" y="66" rx="2" ry="2"/><rect class="c" x="338" y="82" rx="2" ry="2"/><rect class="c" x="338" y="98" rx="2" ry="2"/><rect class="c" x="354" y="2" rx="2" ry="2"/><rect class="c" x="354" y="18" rx="2" ry="2"/><rect class="c" x="354" y="34" rx="2" ry="2"/><rect class="c" x="354" y="50" rx="2" ry="2"/><rect class="c c5" x="354" y="66" rx="2" ry="2"/><rect class="c" x="354" y="82" rx="2" ry="2"/><rect class="c" x="354" y="98" rx="2" ry="2"/><rect class="c" x="370" y="2" rx="2" ry="2"/><rect class="c" x="370" y="18" rx="2" ry="2"/><rect class="c" x="370" y="34" rx="2" ry="2"/><rect class="c c6" x="370" y="50" rx="2" ry="2"/><rect class="c" x="370" y="66" rx="2" ry="2"/><rect class="c" x="370" y="82" rx="2" ry="2"/><rect class="c" x="370" y="98" rx="2" ry="2"/><rect class="c" x="386" y="2" rx="2" ry="2"/><rect class="c" x="386" y="18" rx="2" ry="2"/><rect class="c" x="386" y="34" rx="2" ry="2"/><rect class="c" x="386" y="50" rx="2" ry="2"/><rect class="c" x="386" y="66" rx="2" ry="2"/><rect class="c" x="386" y="82" rx="2" ry="2"/><rect class="c" x="386" y="98" rx="2" ry="2"/><rect class="c" x="402" y="2" rx="2" ry="2"/><rect class="c" x="402" y="18" rx="2" ry="2"/><rect class="c" x="402" y="34" rx="2" ry="2"/><rect class="c" x="402" y="50" rx="2" ry="2"/><rect class="c" x="402" y="66" rx="2" ry="2"/><rect class="c" x="402" y="82" rx="2" ry="2"/><rect class="c" x="402" y="98" rx="2" ry="2"/><rect class="c" x="418" y="2" rx="2" ry="2"/><rect class="c" x="418" y="18" rx="2" ry="2"/><rect class="c" x="418" y="34" rx="2" ry="2"/><rect class="c" x="418" y="50" rx="2" ry="2"/><rect class="c" x="418" y="66" rx="2" ry="2"/><rect class="c" x="418" y="82" rx="2" ry="2"/><rect class="c" x="418" y="98" rx="2" ry="2"/><rect class="c" x="434" y="2" rx="2" ry="2"/><rect class="c" x="434" y="18" rx="2" ry="2"/><rect class="c" x="434" y="34" rx="2" ry="2"/><rect class="c" x="434" y="50" rx="2" ry="2"/><rect class="c" x="434" y="66" rx="2" ry="2"/><rect class="c" x="434" y="82" rx="2" ry="2"/><rect class="c" x="434" y="98" rx="2" ry="2"/><rect class="c" x="450" y="2" rx="2" ry="2"/><rect class="c" x="450" y="18" rx="2" ry="2"/><rect class="c" x="450" y="34" rx="2" ry="2"/><rect class="c" x="450" y="50" rx="2" ry="2"/><rect class="c" x="450" y="66" rx="2" ry="2"/><rect class="c" x="450" y="82" rx="2" ry="2"/><rect class="c" x="450" y="98" rx="2" ry="2"/><rect class="c" x="466" y="2" rx="2" ry="2"/><rect class="c" x="466" y="18" rx="2" ry="2"/><rect class="c" x="466" y="34" rx="2" ry="2"/><rect class="c" x="466" y="50" rx="2" ry="2"/><rect class="c" x="466" y="66" rx="2" ry="2"/><rect class="c" x="466" y="82" rx="2" ry="2"/><rect class="c" x="466" y="98" rx="2" ry="2"/><rect class="c" x="482" y="2" rx="2" ry="2"/><rect class="c" x="482" y="18" rx="2" ry="2"/><rect class="c" x="482" y="34" rx="2" ry="2"/><rect class="c" x="482" y="50" rx="2" ry="2"/><rect class="c" x="482" y="66" rx="2" ry="2"/><rect class="c" x="482" y="82" rx="2" ry="2"/><rect class="c" x="482" y="98" rx="2" ry="2"/><rect class="c" x="498" y="2" rx="2" ry="2"/><rect class="c" x="498" y="18" rx="2" ry="2"/><rect class="c" x="498" y="34" rx="2" ry="2"/><rect class="c" x="498" y="50" rx="2" ry="2"/><rect class="c" x="498" y="66" rx="2" ry="2"/><rect class="c" x="498" y="82" rx="2" ry="2"/><rect class="c" x="498" y="98" rx="2" ry="2"/><rect class="c" x="514" y="2" rx="2" ry="2"/><rect class="c" x="514" y="18" rx="2" ry="2"/><rect class="c" x="514" y="34" rx="2" ry="2"/><rect class="c" x="514" y="50" rx="2" ry="2"/><rect class="c" x="514" y="66" rx="2" ry="2"/><rect class="c" x="514" y="82" rx="2" ry="2"/><rect class="c" x="514" y="98" rx="2" ry="2"/><rect class="c" x="530" y="2" rx="2" ry="2"/><rect class="c" x="530" y="18" rx="2" ry="2"/><rect class="c" x="530" y="34" rx="2" ry="2"/><rect class="c" x="530" y="50" rx="2" ry="2"/><rect class="c c7" x="530" y="66" rx="2" ry="2"/><rect class="c" x="530" y="82" rx="2" ry="2"/><rect class="c c8" x="530" y="98" rx="2" ry="2"/><rect class="c c9" x="546" y="2" rx="2" ry="2"/><rect class="c" x="546" y="18" rx="2" ry="2"/><rect class="c" x="546" y="34" rx="2" ry="2"/><rect class="c ca" x="546" y="50" rx="2" ry="2"/><rect class="c" x="546" y="66" rx="2" ry="2"/><rect class="c" x="546" y="82" rx="2" ry="2"/><rect class="c" x="546" y="98" rx="2" ry="2"/><rect class="c" x="562" y="2" rx="2" ry="2"/><rect class="c cb" x="562" y="18" rx="2" ry="2"/><rect class="c" x="562" y="34" rx="2" ry="2"/><rect class="c" x="562" y="50" rx="2" ry="2"/><rect class="c" x="562" y="66" rx="2" ry="2"/><rect class="c cc" x="562" y="82" rx="2" ry="2"/><rect class="c cd" x="562" y="98" rx="2" ry="2"/><rect class="c" x="578" y="2" rx="2" ry="2"/><rect class="c" x="578" y="18" rx="2" ry="2"/><rect class="c" x="578" y="34" rx="2" ry="2"/><rect class="c" x="578" y="50" rx="2" ry="2"/><rect class="c" x="578" y="66" rx="2" ry="2"/><rect class="c" x="578" y="82" rx="2" ry="2"/><rect class="c" x="578" y="98" rx="2" ry="2"/><rect class="c" x="594" y="2" rx="2" ry="2"/><rect class="c" x="594" y="18" rx="2" ry="2"/><rect class="c ce" x="594" y="34" rx="2" ry="2"/><rect class="c cf" x="594" y="50" rx="2" ry="2"/><rect class="c cg" x="594" y="66" rx="2" ry="2"/><rect class="c ch" x="594" y="82" rx="2" ry="2"/><rect class="c ci" x="594" y="98" rx="2" ry="2"/><rect class="c cj" x="610" y="2" rx="2" ry="2"/><rect class="c ck" x="610" y="18" rx="2" ry="2"/><rect class="c cl" x="610" y="34" rx="2" ry="2"/><rect class="c cm" x="610" y="50" rx="2" ry="2"/><rect class="c cn" x="610" y="66" rx="2" ry="2"/><rect class="c co" x="610" y="82" rx="2" ry="2"/><rect class="c cp" x="610" y="98" rx="2" ry="2"/><rect class="c cq" x="626" y="2" rx="2" ry="2"/><rect class="c cr" x="626" y="18" rx="2" ry="2"/><rect class="c cs" x="626" y="34" rx="2" ry="2"/><rect class="c ct" x="626" y="50" rx="2" ry="2"/><rect class="c cu" x="626" y="66" rx="2" ry="2"/><rect class="c cv" x="626" y="82" rx="2" ry="2"/><rect class="c cw" x="626" y="98" rx="2" ry="2"/><rect class="c cx" x="642" y="2" rx="2" ry="2"/><rect class="c cy" x="642" y="18" rx="2" ry="2"/><rect class="c cz" x="642" y="34" rx="2" ry="2"/><rect class="c c10" x="642" y="50" rx="2" ry="2"/><rect class="c c11" x="642" y="66" rx="2" ry="2"/><rect class="c c12" x="642" y="82" rx="2" ry="2"/><rect class="c c13" x="642" y="98" rx="2" ry="2"/><rect class="c c14" x="658" y="2" rx="2" ry="2"/><rect class="c c15" x="658" y="18" rx="2" ry="2"/><rect class="c c16" x="658" y="34" rx="2" ry="2"/><rect class="c c17" x="658" y="50" rx="2" ry="2"/><rect class="c c18" x="658" y="66" rx="2" ry="2"/><rect class="c c19" x="658" y="82" rx="2" ry="2"/><rect class="c c1a" x="658" y="98" rx="2" ry="2"/><rect class="c c1b" x="674" y="2" rx="2" ry="2"/><rect class="c c1c" x="674" y="18" rx="2" ry="2"/><rect class="c c1d" x="674" y="34" rx="2" ry="2"/><rect class="c c1e" x="674" y="50" rx="2" ry="2"/><rect class="c c1f" x="674" y="66" rx="2" ry="2"/><rect class="c c1g" x="674" y="82" rx="2" ry="2"/><rect class="c c1h" x="674" y="98" rx="2" ry="2"/><rect class="c c1i" x="690" y="2" rx="2" ry="2"/><rect class="c c1j" x="690" y="18" rx="2" ry="2"/><rect class="c c1k" x="690" y="34" rx="2" ry="2"/><rect class="c c1l" x="690" y="50" rx="2" ry="2"/><rect class="c c1m" x="690" y="66" rx="2" ry="2"/><rect class="c c1n" x="690" y="82" rx="2" ry="2"/><rect class="c c1o" x="690" y="98" rx="2" ry="2"/><rect class="c c1p" x="706" y="2" rx="2" ry="2"/><rect class="c c1q" x="706" y="18" rx="2" ry="2"/><rect class="c c1r" x="706" y="34" rx="2" ry="2"/><rect class="c c1s" x="706" y="50" rx="2" ry="2"/><rect class="c c1t" x="706" y="66" rx="2" ry="2"/><rect class="c c1u" x="706" y="82" rx="2" ry="2"/><rect class="c c1v" x="706" y="98" rx="2" ry="2"/><rect class="c c1w" x="722" y="2" rx="2" ry="2"/><rect class="c c1x" x="722" y="18" rx="2" ry="2"/><rect class="c c1y" x="722" y="34" rx="2" ry="2"/><rect class="c c1z" x="722" y="50" rx="2" ry="2"/><rect class="c c20" x="722" y="66" rx="2" ry="2"/><rect class="c c21" x="722" y="82" rx="2" ry="2"/><rect class="c c22" x="722" y="98" rx="2" ry="2"/><rect class="c c23" x="738" y="2" rx="2" ry="2"/><rect class="c c24" x="738" y="18" rx="2" ry="2"/><rect class="c c25" x="738" y="34" rx="2" ry="2"/><rect class="c c26" x="738" y="50" rx="2" ry="2"/><rect class="c c27" x="738" y="66" rx="2" ry="2"/><rect class="c c28" x="738" y="82" rx="2" ry="2"/><rect class="c c29" x="738" y="98" rx="2" ry="2"/><rect class="c c2a" x="754" y="2" rx="2" ry="2"/><rect class="c c2b" x="754" y="18" rx="2" ry="2"/><rect class="c c2c" x="754" y="34" rx="2" ry="2"/><rect class="c c2d" x="754" y="50" rx="2" ry="2"/><rect class="c c2e" x="754" y="66" rx="2" ry="2"/><rect class="c c2f" x="754" y="82" rx="2" ry="2"/><rect class="c c2g" x="754" y="98" rx="2" ry="2"/><rect class="c c2h" x="770" y="2" rx="2" ry="2"/><rect class="c c2i" x="770" y="18" rx="2" ry="2"/><rect class="c c2j" x="770" y="34" rx="2" ry="2"/><rect class="c c2k" x="770" y="50" rx="2" ry="2"/><rect class="c c2l" x="770" y="66" rx="2" ry="2"/><rect class="c c2m" x="770" y="82" rx="2" ry="2"/><rect class="c c2n" x="770" y="98" rx="2" ry="2"/><rect class="c c2o" x="786" y="2" rx="2" ry="2"/><rect class="c c2p" x="786" y="18" rx="2" ry="2"/><rect class="c c2q" x="786" y="34" rx="2" ry="2"/><rect class="c c2r" x="786" y="50" rx="2" ry="2"/><rect class="c c2s" x="786" y="66" rx="2" ry="2"/><rect class="c c2t" x="786" y="82" rx="2" ry="2"/><rect class="c c2u" x="786" y="98" rx="2" ry="2"/><rect class="c c2v" x="802" y="2" rx="2" ry="2"/><rect class="c c2w" x="802" y="18" rx="2" ry="2"/><rect class="c c2x" x="802" y="34" rx="2" ry="2"/><rect class="c c2y" x="802" y="50" rx="2" ry="2"/><rect class="c c2z" x="802" y="66" rx="2" ry="2"/><rect class="c c30" x="802" y="82" rx="2" ry="2"/><rect class="c c31" x="802" y="98" rx="2" ry="2"/><rect class="c c32" x="818" y="2" rx="2" ry="2"/><rect class="c c33" x="818" y="18" rx="2" ry="2"/><rect class="c c34" x="818" y="34" rx="2" ry="2"/><rect class="c c35" x="818" y="50" rx="2" ry="2"/><rect class="c c36" x="818" y="66" rx="2" ry="2"/><rect class="c c37" x="818" y="82" rx="2" ry="2"/><rect class="c c38" x="818" y="98" rx="2" ry="2"/><rect class="c c39" x="834" y="2" rx="2" ry="2"/><rect class="c c3a" x="834" y="18" rx="2" ry="2"/><rect class="c c3b" x="834" y="34" rx="2" ry="2"/><rect class="c" x="834" y="50" rx="2" ry="2"/><rect class="u u0" height="12" width="64.2" x="0.0" y="144"/><rect class="u u1" height="12" width="382.2" x="63.6" y="144"/><rect class="u u2" height="12" width="403.4" x="445.2" y="144"/><rect class="s s0" x="0.8" y="0.8" width="14.4" height="14.4" rx="4.5" ry="4.5"/><rect class="s s1" x="1.8" y="1.8" width="12.3" height="12.3" rx="4.1" ry="4.1"/><rect class="s s2" x="2.6" y="2.6" width="10.8" height="10.8" rx="3.6" ry="3.6"/><rect class="s s3" x="3.0" y="3.0" width="9.9" height="9.9" rx="3.3" ry="3.3"/></svg>