<svg viewBox="-16 -32 880 192" width="880" height="192" xmlns="http://www.w3.org/2000/svg"><desc>Generated with https://github.com/Platane/snk</desc><style>:root{--cb:#1b1f230a;--cs:purple;--ce:#ebedf0;--c0:#ebedf0;--c1:#9be9a8;--c2:#40c463;--c3:#30a14e;--c4:#216e39}.c{shape-rendering:geometricPrecision;fill:var(--ce);stroke-width:1px;stroke:var(--cb);animation:none 32900ms linear infinite;width:12px;height:12px}@keyframes c0{5.46%{fill:var(--c1)}5.48%,100%{fill:var(--ce)}}.c.c0{fill:var(--c1);animation-name:c0}@keyframes c1{55.61%{fill:var(--c2)}55.63%,100%{fill:var(--ce)}}.c.c1{fill:var(--c2);animation-name:c1}@keyframes c2{3.33%{fill:var(--c1)}3.35%,100%{fill:var(--ce)}}.c.c2{fill:var(--c1);animation-name:c2}@keyframes c3{3.64%{fill:var(--c1)}3.66%,100%{fill:var(--ce)}}.c.c3{fill:var(--c1);animation-name:c3}@keyframes c4{52.88%{fill:var(--c2)}52.9%,100%{fill:var(--ce)}}.c.c4{fill:var(--c2);animation-name:c4}@keyframes c5{60.78%{fill:var(--c4)}60.8%,100%{fill:var(--ce)}}.c.c5{fill:var(--c4);animation-name:c5}@keyframes c6{10.93%{fill:var(--c1)}10.95%,100%{fill:var(--ce)}}.c.c6{fill:var(--c1);animation-name:c6}@keyframes c7{14.88%{fill:var(--c1)}14.9%,100%{fill:var(--ce)}}.c.c7{fill:var(--c1);animation-name:c7}@keyframes c8{46.49%{fill:var(--c2)}46.51%,100%{fill:var(--ce)}}.c.c8{fill:var(--c2);animation-name:c8}@keyframes c9{88.74%{fill:var(--c4)}88.76%,100%{fill:var(--ce)}}.c.c9{fill:var(--c4);animation-name:c9}@keyframes ca{14.28%{fill:var(--c1)}14.3%,100%{fill:var(--ce)}}.c.ca{fill:var(--c1);animation-name:ca}@keyframes cb{18.23%{fill:var(--c1)}18.25%,100%{fill:var(--ce)}}.c.cb{fill:var(--c1);animation-name:cb}@keyframes cc{15.8%{fill:var(--c1)}15.82%,100%{fill:var(--ce)}}.c.cc{fill:var(--c1);animation-name:cc}@keyframes cd{16.1%{fill:var(--c1)}16.12%,100%{fill:var(--ce)}}.c.cd{fill:var(--c1);animation-name:cd}@keyframes ce{65.95%{fill:var(--c4)}65.97%,100%{fill:var(--ce)}}.c.ce{fill:var(--c4);animation-name:ce}@keyframes cf{65.64%{fill:var(--c4)}65.66%,100%{fill:var(--ce)}}.c.cf{fill:var(--c4);animation-name:cf}@keyframes cg{42.24%{fill:var(--c2)}42.26%,100%{fill:var(--ce)}}.c.cg{fill:var(--c2);animation-name:cg}@keyframes ch{42.54%{fill:var(--c2)}42.56%,100%{fill:var(--ce)}}.c.ch{fill:var(--c2);animation-name:ch}@keyframes ci{45.28%{fill:var(--c2)}45.3%,100%{fill:var(--ce)}}.c.ci{fill:var(--c2);animation-name:ci}@keyframes cj{30.99%{fill:var(--c2)}31.01%,100%{fill:var(--ce)}}.c.cj{fill:var(--c2);animation-name:cj}@keyframes ck{31.3%{fill:var(--c2)}31.32%,100%{fill:var(--ce)}}.c.ck{fill:var(--c2);animation-name:ck}@keyframes cl{31.6%{fill:var(--c2)}31.62%,100%{fill:var(--ce)}}.c.cl{fill:var(--c2);animation-name:cl}@keyframes cm{41.63%{fill:var(--c2)}41.65%,100%{fill:var(--ce)}}.c.cm{fill:var(--c2);animation-name:cm}@keyframes cn{41.94%{fill:var(--c2)}41.96%,100%{fill:var(--ce)}}.c.cn{fill:var(--c2);animation-name:cn}@keyframes co{42.85%{fill:var(--c2)}42.87%,100%{fill:var(--ce)}}.c.co{fill:var(--c2);animation-name:co}@keyframes cp{44.97%{fill:var(--c2)}44.99%,100%{fill:var(--ce)}}.c.cp{fill:var(--c2);animation-name:cp}@keyframes cq{30.69%{fill:var(--c2)}30.71%,100%{fill:var(--ce)}}.c.cq{fill:var(--c2);animation-name:cq}@keyframes cr{66.86%{fill:var(--c4)}66.88%,100%{fill:var(--ce)}}.c.cr{fill:var(--c4);animation-name:cr}@keyframes cs{31.9%{fill:var(--c2)}31.92%,100%{fill:var(--ce)}}.c.cs{fill:var(--c2);animation-name:cs}@keyframes ct{41.33%{fill:var(--c2)}41.35%,100%{fill:var(--ce)}}.c.ct{fill:var(--c2);animation-name:ct}@keyframes cu{41.02%{fill:var(--c2)}41.04%,100%{fill:var(--ce)}}.c.cu{fill:var(--c2);animation-name:cu}@keyframes cv{43.15%{fill:var(--c2)}43.17%,100%{fill:var(--ce)}}.c.cv{fill:var(--c2);animation-name:cv}@keyframes cw{43.46%{fill:var(--c2)}43.48%,100%{fill:var(--ce)}}.c.cw{fill:var(--c2);animation-name:cw}@keyframes cx{30.39%{fill:var(--c2)}30.41%,100%{fill:var(--ce)}}.c.cx{fill:var(--c2);animation-name:cx}@keyframes cy{34.94%{fill:var(--c2)}34.96%,100%{fill:var(--ce)}}.c.cy{fill:var(--c2);animation-name:cy}@keyframes cz{32.21%{fill:var(--c2)}32.23%,100%{fill:var(--ce)}}.c.cz{fill:var(--c2);animation-name:cz}@keyframes c10{35.55%{fill:var(--c2)}35.57%,100%{fill:var(--ce)}}.c.c10{fill:var(--c2);animation-name:c10}@keyframes c11{40.72%{fill:var(--c2)}40.74%,100%{fill:var(--ce)}}.c.c11{fill:var(--c2);animation-name:c11}@keyframes c12{40.42%{fill:var(--c2)}40.44%,100%{fill:var(--ce)}}.c.c12{fill:var(--c2);animation-name:c12}@keyframes c13{43.76%{fill:var(--c2)}43.78%,100%{fill:var(--ce)}}.c.c13{fill:var(--c2);animation-name:c13}@keyframes c14{30.08%{fill:var(--c2)}30.1%,100%{fill:var(--ce)}}.c.c14{fill:var(--c2);animation-name:c14}@keyframes c15{34.64%{fill:var(--c2)}34.66%,100%{fill:var(--ce)}}.c.c15{fill:var(--c2);animation-name:c15}@keyframes c16{32.51%{fill:var(--c2)}32.53%,100%{fill:var(--ce)}}.c.c16{fill:var(--c2);animation-name:c16}@keyframes c17{35.86%{fill:var(--c2)}35.88%,100%{fill:var(--ce)}}.c.c17{fill:var(--c2);animation-name:c17}@keyframes c18{68.38%{fill:var(--c4)}68.4%,100%{fill:var(--ce)}}.c.c18{fill:var(--c4);animation-name:c18}@keyframes c19{40.11%{fill:var(--c2)}40.13%,100%{fill:var(--ce)}}.c.c19{fill:var(--c2);animation-name:c19}@keyframes c1a{39.81%{fill:var(--c2)}39.83%,100%{fill:var(--ce)}}.c.c1a{fill:var(--c2);animation-name:c1a}@keyframes c1b{29.78%{fill:var(--c2)}29.8%,100%{fill:var(--ce)}}.c.c1b{fill:var(--c2);animation-name:c1b}@keyframes c1c{34.34%{fill:var(--c2)}34.36%,100%{fill:var(--ce)}}.c.c1c{fill:var(--c2);animation-name:c1c}@keyframes c1d{32.82%{fill:var(--c2)}32.84%,100%{fill:var(--ce)}}.c.c1d{fill:var(--c2);animation-name:c1d}@keyframes c1e{36.16%{fill:var(--c2)}36.18%,100%{fill:var(--ce)}}.c.c1e{fill:var(--c2);animation-name:c1e}@keyframes c1f{37.68%{fill:var(--c2)}37.7%,100%{fill:var(--ce)}}.c.c1f{fill:var(--c2);animation-name:c1f}@keyframes c1g{37.98%{fill:var(--c2)}38%,100%{fill:var(--ce)}}.c.c1g{fill:var(--c2);animation-name:c1g}@keyframes c1h{39.5%{fill:var(--c2)}39.52%,100%{fill:var(--ce)}}.c.c1h{fill:var(--c2);animation-name:c1h}@keyframes c1i{29.47%{fill:var(--c2)}29.49%,100%{fill:var(--ce)}}.c.c1i{fill:var(--c2);animation-name:c1i}@keyframes c1j{34.03%{fill:var(--c2)}34.05%,100%{fill:var(--ce)}}.c.c1j{fill:var(--c2);animation-name:c1j}@keyframes c1k{33.12%{fill:var(--c2)}33.14%,100%{fill:var(--ce)}}.c.c1k{fill:var(--c2);animation-name:c1k}@keyframes c1l{36.46%{fill:var(--c2)}36.48%,100%{fill:var(--ce)}}.c.c1l{fill:var(--c2);animation-name:c1l}@keyframes c1m{37.38%{fill:var(--c2)}37.4%,100%{fill:var(--ce)}}.c.c1m{fill:var(--c2);animation-name:c1m}@keyframes c1n{38.29%{fill:var(--c2)}38.31%,100%{fill:var(--ce)}}.c.c1n{fill:var(--c2);animation-name:c1n}@keyframes c1o{39.2%{fill:var(--c2)}39.22%,100%{fill:var(--ce)}}.c.c1o{fill:var(--c2);animation-name:c1o}@keyframes c1p{29.17%{fill:var(--c2)}29.19%,100%{fill:var(--ce)}}.c.c1p{fill:var(--c2);animation-name:c1p}@keyframes c1q{33.73%{fill:var(--c2)}33.75%,100%{fill:var(--ce)}}.c.c1q{fill:var(--c2);animation-name:c1q}@keyframes c1r{33.42%{fill:var(--c2)}33.44%,100%{fill:var(--ce)}}.c.c1r{fill:var(--c2);animation-name:c1r}@keyframes c1s{36.77%{fill:var(--c2)}36.79%,100%{fill:var(--ce)}}.c.c1s{fill:var(--c2);animation-name:c1s}@keyframes c1t{37.07%{fill:var(--c2)}37.09%,100%{fill:var(--ce)}}.c.c1t{fill:var(--c2);animation-name:c1t}@keyframes c1u{38.59%{fill:var(--c2)}38.61%,100%{fill:var(--ce)}}.c.c1u{fill:var(--c2);animation-name:c1u}@keyframes c1v{38.9%{fill:var(--c2)}38.92%,100%{fill:var(--ce)}}.c.c1v{fill:var(--c2);animation-name:c1v}@keyframes c1w{28.87%{fill:var(--c2)}28.89%,100%{fill:var(--ce)}}.c.c1w{fill:var(--c2);animation-name:c1w}@keyframes c1x{78.41%{fill:var(--c4)}78.43%,100%{fill:var(--ce)}}.c.c1x{fill:var(--c4);animation-name:c1x}@keyframes c1y{78.11%{fill:var(--c4)}78.13%,100%{fill:var(--ce)}}.c.c1y{fill:var(--c4);animation-name:c1y}@keyframes c1z{79.63%{fill:var(--c4)}79.65%,100%{fill:var(--ce)}}.c.c1z{fill:var(--c4);animation-name:c1z}@keyframes c20{69.59%{fill:var(--c4)}69.61%,100%{fill:var(--ce)}}.c.c20{fill:var(--c4);animation-name:c20}@keyframes c21{80.23%{fill:var(--c4)}80.25%,100%{fill:var(--ce)}}.c.c21{fill:var(--c4);animation-name:c21}@keyframes c22{83.58%{fill:var(--c4)}83.6%,100%{fill:var(--ce)}}.c.c22{fill:var(--c4);animation-name:c22}@keyframes c23{74.76%{fill:var(--c4)}74.78%,100%{fill:var(--ce)}}.c.c23{fill:var(--c4);animation-name:c23}@keyframes c24{75.07%{fill:var(--c4)}75.09%,100%{fill:var(--ce)}}.c.c24{fill:var(--c4);animation-name:c24}@keyframes c25{77.8%{fill:var(--c4)}77.82%,100%{fill:var(--ce)}}.c.c25{fill:var(--c4);animation-name:c25}@keyframes c26{79.32%{fill:var(--c4)}79.34%,100%{fill:var(--ce)}}.c.c26{fill:var(--c4);animation-name:c26}@keyframes c27{69.9%{fill:var(--c4)}69.92%,100%{fill:var(--ce)}}.c.c27{fill:var(--c4);animation-name:c27}@keyframes c28{80.54%{fill:var(--c4)}80.56%,100%{fill:var(--ce)}}.c.c28{fill:var(--c4);animation-name:c28}@keyframes c29{83.27%{fill:var(--c4)}83.29%,100%{fill:var(--ce)}}.c.c29{fill:var(--c4);animation-name:c29}@keyframes c2a{74.46%{fill:var(--c4)}74.48%,100%{fill:var(--ce)}}.c.c2a{fill:var(--c4);animation-name:c2a}@keyframes c2b{75.37%{fill:var(--c4)}75.39%,100%{fill:var(--ce)}}.c.c2b{fill:var(--c4);animation-name:c2b}@keyframes c2c{77.5%{fill:var(--c4)}77.52%,100%{fill:var(--ce)}}.c.c2c{fill:var(--c4);animation-name:c2c}@keyframes c2d{77.19%{fill:var(--c4)}77.21%,100%{fill:var(--ce)}}.c.c2d{fill:var(--c4);animation-name:c2d}@keyframes c2e{70.2%{fill:var(--c4)}70.22%,100%{fill:var(--ce)}}.c.c2e{fill:var(--c4);animation-name:c2e}@keyframes c2f{80.84%{fill:var(--c4)}80.86%,100%{fill:var(--ce)}}.c.c2f{fill:var(--c4);animation-name:c2f}@keyframes c2g{82.97%{fill:var(--c4)}82.99%,100%{fill:var(--ce)}}.c.c2g{fill:var(--c4);animation-name:c2g}@keyframes c2h{74.15%{fill:var(--c4)}74.17%,100%{fill:var(--ce)}}.c.c2h{fill:var(--c4);animation-name:c2h}@keyframes c2i{75.67%{fill:var(--c4)}75.69%,100%{fill:var(--ce)}}.c.c2i{fill:var(--c4);animation-name:c2i}@keyframes c2j{75.98%{fill:var(--c4)}76%,100%{fill:var(--ce)}}.c.c2j{fill:var(--c4);animation-name:c2j}@keyframes c2k{76.89%{fill:var(--c4)}76.91%,100%{fill:var(--ce)}}.c.c2k{fill:var(--c4);animation-name:c2k}@keyframes c2l{70.51%{fill:var(--c4)}70.53%,100%{fill:var(--ce)}}.c.c2l{fill:var(--c4);animation-name:c2l}@keyframes c2m{81.15%{fill:var(--c4)}81.17%,100%{fill:var(--ce)}}.c.c2m{fill:var(--c4);animation-name:c2m}@keyframes c2n{82.66%{fill:var(--c4)}82.68%,100%{fill:var(--ce)}}.c.c2n{fill:var(--c4);animation-name:c2n}@keyframes c2o{73.85%{fill:var(--c4)}73.87%,100%{fill:var(--ce)}}.c.c2o{fill:var(--c4);animation-name:c2o}@keyframes c2p{73.55%{fill:var(--c4)}73.57%,100%{fill:var(--ce)}}.c.c2p{fill:var(--c4);animation-name:c2p}@keyframes c2q{76.28%{fill:var(--c4)}76.3%,100%{fill:var(--ce)}}.c.c2q{fill:var(--c4);animation-name:c2q}@keyframes c2r{76.59%{fill:var(--c4)}76.61%,100%{fill:var(--ce)}}.c.c2r{fill:var(--c4);animation-name:c2r}@keyframes c2s{70.81%{fill:var(--c4)}70.83%,100%{fill:var(--ce)}}.c.c2s{fill:var(--c4);animation-name:c2s}@keyframes c2t{81.45%{fill:var(--c4)}81.47%,100%{fill:var(--ce)}}.c.c2t{fill:var(--c4);animation-name:c2t}@keyframes c2u{82.36%{fill:var(--c4)}82.38%,100%{fill:var(--ce)}}.c.c2u{fill:var(--c4);animation-name:c2u}@keyframes c2v{72.33%{fill:var(--c4)}72.35%,100%{fill:var(--ce)}}.c.c2v{fill:var(--c4);animation-name:c2v}@keyframes c2w{72.03%{fill:var(--c4)}72.05%,100%{fill:var(--ce)}}.c.c2w{fill:var(--c4);animation-name:c2w}@keyframes c2x{71.72%{fill:var(--c4)}71.74%,100%{fill:var(--ce)}}.c.c2x{fill:var(--c4);animation-name:c2x}@keyframes c2y{71.42%{fill:var(--c4)}71.44%,100%{fill:var(--ce)}}.c.c2y{fill:var(--c4);animation-name:c2y}@keyframes c2z{71.11%{fill:var(--c4)}71.13%,100%{fill:var(--ce)}}.c.c2z{fill:var(--c4);animation-name:c2z}@keyframes c30{81.75%{fill:var(--c4)}81.77%,100%{fill:var(--ce)}}.c.c30{fill:var(--c4);animation-name:c30}@keyframes c31{82.06%{fill:var(--c4)}82.08%,100%{fill:var(--ce)}}.c.c31{fill:var(--c4);animation-name:c31}@keyframes c32{72.63%{fill:var(--c4)}72.65%,100%{fill:var(--ce)}}.c.c32{fill:var(--c4);animation-name:c32}@keyframes c33{24.91%{fill:var(--c1)}24.93%,100%{fill:var(--ce)}}.c.c33{fill:var(--c1);animation-name:c33}.u{transform-origin:0 0;transform:scale(0,1);animation:none linear 32900ms infinite}@keyframes u0{3.33%{transform:scale(0.000,1)}3.35%,3.64%{transform:scale(0.100,1)}3.66%,5.46%{transform:scale(0.200,1)}5.48%,10.93%{transform:scale(0.300,1)}10.95%,14.28%{transform:scale(0.400,1)}14.3%,14.88%{transform:scale(0.500,1)}14.9%,15.8%{transform:scale(0.600,1)}15.82%,16.1%{transform:scale(0.700,1)}16.12%,18.23%{transform:scale(0.800,1)}18.25%,24.91%{transform:scale(0.900,1)}24.93%,100%{transform:scale(1.000,1)}}.u.u0{fill:var(--c1);animation-name:u0;transform-origin:0.0px 0}@keyframes u1{28.87%{transform:scale(0.000,1)}28.89%,29.17%{transform:scale(0.019,1)}29.19%,29.47%{transform:scale(0.037,1)}29.49%,29.78%{transform:scale(0.056,1)}29.8%,30.08%{transform:scale(0.074,1)}30.1%,30.39%{transform:scale(0.093,1)}30.41%,30.69%{transform:scale(0.111,1)}30.71%,30.99%{transform:scale(0.130,1)}31.01%,31.3%{transform:scale(0.148,1)}31.32%,31.6%{transform:scale(0.167,1)}31.62%,31.9%{transform:scale(0.185,1)}31.92%,32.21%{transform:scale(0.204,1)}32.23%,32.51%{transform:scale(0.222,1)}32.53%,32.82%{transform:scale(0.241,1)}32.84%,33.12%{transform:scale(0.259,1)}33.14%,33.42%{transform:scale(0.278,1)}33.44%,33.73%{transform:scale(0.296,1)}33.75%,34.03%{transform:scale(0.315,1)}34.05%,34.34%{transform:scale(0.333,1)}34.36%,34.64%{transform:scale(0.352,1)}34.66%,34.94%{transform:scale(0.370,1)}34.96%,35.55%{transform:scale(0.389,1)}35.57%,35.86%{transform:scale(0.407,1)}35.88%,36.16%{transform:scale(0.426,1)}36.18%,36.46%{transform:scale(0.444,1)}36.48%,36.77%{transform:scale(0.463,1)}36.79%,37.07%{transform:scale(0.481,1)}37.09%,37.38%{transform:scale(0.500,1)}37.4%,37.68%{transform:scale(0.519,1)}37.7%,37.98%{transform:scale(0.537,1)}38%,38.29%{transform:scale(0.556,1)}38.31%,38.59%{transform:scale(0.574,1)}38.61%,38.9%{transform:scale(0.593,1)}38.92%,39.2%{transform:scale(0.611,1)}39.22%,39.5%{transform:scale(0.630,1)}39.52%,39.81%{transform:scale(0.648,1)}39.83%,40.11%{transform:scale(0.667,1)}40.13%,40.42%{transform:scale(0.685,1)}40.44%,40.72%{transform:scale(0.704,1)}40.74%,41.02%{transform:scale(0.722,1)}41.04%,41.33%{transform:scale(0.741,1)}41.35%,41.63%{transform:scale(0.759,1)}41.65%,41.94%{transform:scale(0.778,1)}41.96%,42.24%{transform:scale(0.796,1)}42.26%,42.54%{transform:scale(0.815,1)}42.56%,42.85%{transform:scale(0.833,1)}42.87%,43.15%{transform:scale(0.852,1)}43.17%,43.46%{transform:scale(0.870,1)}43.48%,43.76%{transform:scale(0.889,1)}43.78%,44.97%{transform:scale(0.907,1)}44.99%,45.28%{transform:scale(0.926,1)}45.3%,46.49%{transform:scale(0.944,1)}46.51%,52.88%{transform:scale(0.963,1)}52.9%,55.61%{transform:scale(0.981,1)}55.63%,100%{transform:scale(1.000,1)}}.u.u1{fill:var(--c2);animation-name:u1;transform-origin:75.7px 0}@keyframes u2{60.78%{transform:scale(0.000,1)}60.8%,65.64%{transform:scale(0.021,1)}65.66%,65.95%{transform:scale(0.042,1)}65.97%,66.86%{transform:scale(0.063,1)}66.88%,68.38%{transform:scale(0.083,1)}68.4%,69.59%{transform:scale(0.104,1)}69.61%,69.9%{transform:scale(0.125,1)}69.92%,70.2%{transform:scale(0.146,1)}70.22%,70.51%{transform:scale(0.167,1)}70.53%,70.81%{transform:scale(0.188,1)}70.83%,71.11%{transform:scale(0.208,1)}71.13%,71.42%{transform:scale(0.229,1)}71.44%,71.72%{transform:scale(0.250,1)}71.74%,72.03%{transform:scale(0.271,1)}72.05%,72.33%{transform:scale(0.292,1)}72.35%,72.63%{transform:scale(0.313,1)}72.65%,73.55%{transform:scale(0.333,1)}73.57%,73.85%{transform:scale(0.354,1)}73.87%,74.15%{transform:scale(0.375,1)}74.17%,74.46%{transform:scale(0.396,1)}74.48%,74.76%{transform:scale(0.417,1)}74.78%,75.07%{transform:scale(0.438,1)}75.09%,75.37%{transform:scale(0.458,1)}75.39%,75.67%{transform:scale(0.479,1)}75.69%,75.98%{transform:scale(0.500,1)}76%,76.28%{transform:scale(0.521,1)}76.3%,76.59%{transform:scale(0.542,1)}76.61%,76.89%{transform:scale(0.563,1)}76.91%,77.19%{transform:scale(0.583,1)}77.21%,77.5%{transform:scale(0.604,1)}77.52%,77.8%{transform:scale(0.625,1)}77.82%,78.11%{transform:scale(0.646,1)}78.13%,78.41%{transform:scale(0.667,1)}78.43%,79.32%{transform:scale(0.688,1)}79.34%,79.63%{transform:scale(0.708,1)}79.65%,80.23%{transform:scale(0.729,1)}80.25%,80.54%{transform:scale(0.750,1)}80.56%,80.84%{transform:scale(0.771,1)}80.86%,81.15%{transform:scale(0.792,1)}81.17%,81.45%{transform:scale(0.813,1)}81.47%,81.75%{transform:scale(0.833,1)}81.77%,82.06%{transform:scale(0.854,1)}82.08%,82.36%{transform:scale(0.875,1)}82.38%,82.66%{transform:scale(0.896,1)}82.68%,82.97%{transform:scale(0.917,1)}82.99%,83.27%{transform:scale(0.938,1)}83.29%,83.58%{transform:scale(0.958,1)}83.6%,88.74%{transform:scale(0.979,1)}88.76%,100%{transform:scale(1.000,1)}}.u.u2{fill:var(--c4);animation-name:u2;transform-origin:484.6px 0}.s{shape-rendering:geometricPrecision;fill:var(--cs);animation:none linear 32900ms infinite}@keyframes s0{0%,99.7%{transform:translate(0px,-16px)}0.3%{transform:translate(0px,0px)}3.34%{transform:translate(160px,0px)}3.65%{transform:translate(160px,16px)}4.26%{transform:translate(128px,16px)}5.47%{transform:translate(128px,80px)}10.33%{transform:translate(384px,80px)}10.94%{transform:translate(384px,48px)}14.29%{transform:translate(560px,48px)}14.59%{transform:translate(560px,64px)}14.89%{transform:translate(544px,64px)}15.2%,46.81%{transform:translate(544px,80px)}15.81%{transform:translate(576px,80px)}16.11%{transform:translate(576px,96px)}16.41%{transform:translate(592px,96px)}17.93%{transform:translate(592px,16px)}18.24%{transform:translate(576px,16px)}18.54%{transform:translate(576px,0px)}19.15%{transform:translate(608px,0px)}19.45%{transform:translate(608px,-16px)}24.01%,26.44%{transform:translate(848px,-16px)}24.62%{transform:translate(848px,16px)}24.92%,72.95%{transform:translate(832px,16px)}25.23%{transform:translate(832px,32px)}25.53%{transform:translate(848px,32px)}28.57%{transform:translate(736px,-16px)}28.88%,85.41%{transform:translate(736px,0px)}31%{transform:translate(624px,0px)}31.61%{transform:translate(624px,32px)}33.43%{transform:translate(720px,32px)}33.74%{transform:translate(720px,16px)}34.95%{transform:translate(656px,16px)}35.56%{transform:translate(656px,48px)}36.78%{transform:translate(720px,48px)}37.08%{transform:translate(720px,64px)}37.69%{transform:translate(688px,64px)}37.99%{transform:translate(688px,80px)}38.6%{transform:translate(720px,80px)}38.91%{transform:translate(720px,96px)}39.82%{transform:translate(672px,96px)}40.12%{transform:translate(672px,80px)}40.43%,44.07%{transform:translate(656px,80px)}40.73%{transform:translate(656px,64px)}41.03%{transform:translate(640px,64px)}41.34%{transform:translate(640px,48px)}41.64%{transform:translate(624px,48px)}41.95%{transform:translate(624px,64px)}42.25%,65.35%{transform:translate(608px,64px)}42.55%{transform:translate(608px,80px)}43.16%{transform:translate(640px,80px)}43.47%{transform:translate(640px,96px)}43.77%{transform:translate(656px,96px)}44.68%{transform:translate(624px,80px)}44.98%{transform:translate(624px,96px)}46.5%{transform:translate(544px,96px)}50.46%{transform:translate(352px,80px)}50.76%{transform:translate(352px,64px)}55.02%{transform:translate(128px,64px)}55.62%{transform:translate(128px,96px)}60.18%{transform:translate(368px,96px)}60.79%{transform:translate(368px,64px)}65.96%{transform:translate(608px,32px)}66.57%{transform:translate(640px,32px)}66.87%{transform:translate(640px,16px)}67.48%{transform:translate(672px,16px)}68.39%{transform:translate(672px,64px)}71.12%{transform:translate(816px,64px)}72.34%{transform:translate(816px,0px)}72.64%{transform:translate(832px,0px)}73.56%{transform:translate(800px,16px)}73.86%{transform:translate(800px,0px)}74.77%{transform:translate(752px,0px)}75.08%,78.72%{transform:translate(752px,16px)}75.68%{transform:translate(784px,16px)}75.99%{transform:translate(784px,32px)}76.29%{transform:translate(800px,32px)}76.6%{transform:translate(800px,48px)}77.2%{transform:translate(768px,48px)}77.51%{transform:translate(768px,32px)}78.12%{transform:translate(736px,32px)}78.42%{transform:translate(736px,16px)}79.33%{transform:translate(752px,48px)}79.64%{transform:translate(736px,48px)}80.24%{transform:translate(736px,80px)}81.76%{transform:translate(816px,80px)}82.07%{transform:translate(816px,96px)}83.59%{transform:translate(736px,96px)}97.57%{transform:translate(96px,0px)}97.87%{transform:translate(96px,-16px)}}.s.s0{transform:translate(0px,-16px);animation-name:s0}@keyframes s1{0%,99.7%{transform:translate(16px,-16px)}0.3%{transform:translate(0px,-16px)}0.61%{transform:translate(0px,0px)}3.65%{transform:translate(160px,0px)}3.95%{transform:translate(160px,16px)}4.56%{transform:translate(128px,16px)}5.78%{transform:translate(128px,80px)}10.64%{transform:translate(384px,80px)}11.25%{transform:translate(384px,48px)}14.59%{transform:translate(560px,48px)}14.89%{transform:translate(560px,64px)}15.2%{transform:translate(544px,64px)}15.5%,47.11%{transform:translate(544px,80px)}16.11%{transform:translate(576px,80px)}16.41%{transform:translate(576px,96px)}16.72%{transform:translate(592px,96px)}18.24%{transform:translate(592px,16px)}18.54%{transform:translate(576px,16px)}18.84%{transform:translate(576px,0px)}19.45%{transform:translate(608px,0px)}19.76%{transform:translate(608px,-16px)}24.32%,26.75%{transform:translate(848px,-16px)}24.92%{transform:translate(848px,16px)}25.23%,73.25%{transform:translate(832px,16px)}25.53%{transform:translate(832px,32px)}25.84%{transform:translate(848px,32px)}28.88%{transform:translate(736px,-16px)}29.18%,85.71%{transform:translate(736px,0px)}31.31%{transform:translate(624px,0px)}31.91%{transform:translate(624px,32px)}33.74%{transform:translate(720px,32px)}34.04%{transform:translate(720px,16px)}35.26%{transform:translate(656px,16px)}35.87%{transform:translate(656px,48px)}37.08%{transform:translate(720px,48px)}37.39%{transform:translate(720px,64px)}37.99%{transform:translate(688px,64px)}38.3%{transform:translate(688px,80px)}38.91%{transform:translate(720px,80px)}39.21%{transform:translate(720px,96px)}40.12%{transform:translate(672px,96px)}40.43%{transform:translate(672px,80px)}40.73%,44.38%{transform:translate(656px,80px)}41.03%{transform:translate(656px,64px)}41.34%{transform:translate(640px,64px)}41.64%{transform:translate(640px,48px)}41.95%{transform:translate(624px,48px)}42.25%{transform:translate(624px,64px)}42.55%,65.65%{transform:translate(608px,64px)}42.86%{transform:translate(608px,80px)}43.47%{transform:translate(640px,80px)}43.77%{transform:translate(640px,96px)}44.07%{transform:translate(656px,96px)}44.98%{transform:translate(624px,80px)}45.29%{transform:translate(624px,96px)}46.81%{transform:translate(544px,96px)}50.76%{transform:translate(352px,80px)}51.06%{transform:translate(352px,64px)}55.32%{transform:translate(128px,64px)}55.93%{transform:translate(128px,96px)}60.49%{transform:translate(368px,96px)}61.09%{transform:translate(368px,64px)}66.26%{transform:translate(608px,32px)}66.87%{transform:translate(640px,32px)}67.17%{transform:translate(640px,16px)}67.78%{transform:translate(672px,16px)}68.69%{transform:translate(672px,64px)}71.43%{transform:translate(816px,64px)}72.64%{transform:translate(816px,0px)}72.95%{transform:translate(832px,0px)}73.86%{transform:translate(800px,16px)}74.16%{transform:translate(800px,0px)}75.08%{transform:translate(752px,0px)}75.38%,79.03%{transform:translate(752px,16px)}75.99%{transform:translate(784px,16px)}76.29%{transform:translate(784px,32px)}76.6%{transform:translate(800px,32px)}76.9%{transform:translate(800px,48px)}77.51%{transform:translate(768px,48px)}77.81%{transform:translate(768px,32px)}78.42%{transform:translate(736px,32px)}78.72%{transform:translate(736px,16px)}79.64%{transform:translate(752px,48px)}79.94%{transform:translate(736px,48px)}80.55%{transform:translate(736px,80px)}82.07%{transform:translate(816px,80px)}82.37%{transform:translate(816px,96px)}83.89%{transform:translate(736px,96px)}97.87%{transform:translate(96px,0px)}98.18%{transform:translate(96px,-16px)}}.s.s1{transform:translate(16px,-16px);animation-name:s1}@keyframes s2{0%,99.7%{transform:translate(32px,-16px)}0.61%{transform:translate(0px,-16px)}0.91%{transform:translate(0px,0px)}3.95%{transform:translate(160px,0px)}4.26%{transform:translate(160px,16px)}4.86%{transform:translate(128px,16px)}6.08%{transform:translate(128px,80px)}10.94%{transform:translate(384px,80px)}11.55%{transform:translate(384px,48px)}14.89%{transform:translate(560px,48px)}15.2%{transform:translate(560px,64px)}15.5%{transform:translate(544px,64px)}15.81%,47.42%{transform:translate(544px,80px)}16.41%{transform:translate(576px,80px)}16.72%{transform:translate(576px,96px)}17.02%{transform:translate(592px,96px)}18.54%{transform:translate(592px,16px)}18.84%{transform:translate(576px,16px)}19.15%{transform:translate(576px,0px)}19.76%{transform:translate(608px,0px)}20.06%{transform:translate(608px,-16px)}24.62%,27.05%{transform:translate(848px,-16px)}25.23%{transform:translate(848px,16px)}25.53%,73.56%{transform:translate(832px,16px)}25.84%{transform:translate(832px,32px)}26.14%{transform:translate(848px,32px)}29.18%{transform:translate(736px,-16px)}29.48%,86.02%{transform:translate(736px,0px)}31.61%{transform:translate(624px,0px)}32.22%{transform:translate(624px,32px)}34.04%{transform:translate(720px,32px)}34.35%{transform:translate(720px,16px)}35.56%{transform:translate(656px,16px)}36.17%{transform:translate(656px,48px)}37.39%{transform:translate(720px,48px)}37.69%{transform:translate(720px,64px)}38.3%{transform:translate(688px,64px)}38.6%{transform:translate(688px,80px)}39.21%{transform:translate(720px,80px)}39.51%{transform:translate(720px,96px)}40.43%{transform:translate(672px,96px)}40.73%{transform:translate(672px,80px)}41.03%,44.68%{transform:translate(656px,80px)}41.34%{transform:translate(656px,64px)}41.64%{transform:translate(640px,64px)}41.95%{transform:translate(640px,48px)}42.25%{transform:translate(624px,48px)}42.55%{transform:translate(624px,64px)}42.86%,65.96%{transform:translate(608px,64px)}43.16%{transform:translate(608px,80px)}43.77%{transform:translate(640px,80px)}44.07%{transform:translate(640px,96px)}44.38%{transform:translate(656px,96px)}45.29%{transform:translate(624px,80px)}45.59%{transform:translate(624px,96px)}47.11%{transform:translate(544px,96px)}51.06%{transform:translate(352px,80px)}51.37%{transform:translate(352px,64px)}55.62%{transform:translate(128px,64px)}56.23%{transform:translate(128px,96px)}60.79%{transform:translate(368px,96px)}61.4%{transform:translate(368px,64px)}66.57%{transform:translate(608px,32px)}67.17%{transform:translate(640px,32px)}67.48%{transform:translate(640px,16px)}68.09%{transform:translate(672px,16px)}69%{transform:translate(672px,64px)}71.73%{transform:translate(816px,64px)}72.95%{transform:translate(816px,0px)}73.25%{transform:translate(832px,0px)}74.16%{transform:translate(800px,16px)}74.47%{transform:translate(800px,0px)}75.38%{transform:translate(752px,0px)}75.68%,79.33%{transform:translate(752px,16px)}76.29%{transform:translate(784px,16px)}76.6%{transform:translate(784px,32px)}76.9%{transform:translate(800px,32px)}77.2%{transform:translate(800px,48px)}77.81%{transform:translate(768px,48px)}78.12%{transform:translate(768px,32px)}78.72%{transform:translate(736px,32px)}79.03%{transform:translate(736px,16px)}79.94%{transform:translate(752px,48px)}80.24%{transform:translate(736px,48px)}80.85%{transform:translate(736px,80px)}82.37%{transform:translate(816px,80px)}82.67%{transform:translate(816px,96px)}84.19%{transform:translate(736px,96px)}98.18%{transform:translate(96px,0px)}98.48%{transform:translate(96px,-16px)}}.s.s2{transform:translate(32px,-16px);animation-name:s2}@keyframes s3{0%,99.7%{transform:translate(48px,-16px)}0.91%{transform:translate(0px,-16px)}1.22%{transform:translate(0px,0px)}4.26%{transform:translate(160px,0px)}4.56%{transform:translate(160px,16px)}5.17%{transform:translate(128px,16px)}6.38%{transform:translate(128px,80px)}11.25%{transform:translate(384px,80px)}11.85%{transform:translate(384px,48px)}15.2%{transform:translate(560px,48px)}15.5%{transform:translate(560px,64px)}15.81%{transform:translate(544px,64px)}16.11%,47.72%{transform:translate(544px,80px)}16.72%{transform:translate(576px,80px)}17.02%{transform:translate(576px,96px)}17.33%{transform:translate(592px,96px)}18.84%{transform:translate(592px,16px)}19.15%{transform:translate(576px,16px)}19.45%{transform:translate(576px,0px)}20.06%{transform:translate(608px,0px)}20.36%{transform:translate(608px,-16px)}24.92%,27.36%{transform:translate(848px,-16px)}25.53%{transform:translate(848px,16px)}25.84%,73.86%{transform:translate(832px,16px)}26.14%{transform:translate(832px,32px)}26.44%{transform:translate(848px,32px)}29.48%{transform:translate(736px,-16px)}29.79%,86.32%{transform:translate(736px,0px)}31.91%{transform:translate(624px,0px)}32.52%{transform:translate(624px,32px)}34.35%{transform:translate(720px,32px)}34.65%{transform:translate(720px,16px)}35.87%{transform:translate(656px,16px)}36.47%{transform:translate(656px,48px)}37.69%{transform:translate(720px,48px)}37.99%{transform:translate(720px,64px)}38.6%{transform:translate(688px,64px)}38.91%{transform:translate(688px,80px)}39.51%{transform:translate(720px,80px)}39.82%{transform:translate(720px,96px)}40.73%{transform:translate(672px,96px)}41.03%{transform:translate(672px,80px)}41.34%,44.98%{transform:translate(656px,80px)}41.64%{transform:translate(656px,64px)}41.95%{transform:translate(640px,64px)}42.25%{transform:translate(640px,48px)}42.55%{transform:translate(624px,48px)}42.86%{transform:translate(624px,64px)}43.16%,66.26%{transform:translate(608px,64px)}43.47%{transform:translate(608px,80px)}44.07%{transform:translate(640px,80px)}44.38%{transform:translate(640px,96px)}44.68%{transform:translate(656px,96px)}45.59%{transform:translate(624px,80px)}45.9%{transform:translate(624px,96px)}47.42%{transform:translate(544px,96px)}51.37%{transform:translate(352px,80px)}51.67%{transform:translate(352px,64px)}55.93%{transform:translate(128px,64px)}56.53%{transform:translate(128px,96px)}61.09%{transform:translate(368px,96px)}61.7%{transform:translate(368px,64px)}66.87%{transform:translate(608px,32px)}67.48%{transform:translate(640px,32px)}67.78%{transform:translate(640px,16px)}68.39%{transform:translate(672px,16px)}69.3%{transform:translate(672px,64px)}72.04%{transform:translate(816px,64px)}73.25%{transform:translate(816px,0px)}73.56%{transform:translate(832px,0px)}74.47%{transform:translate(800px,16px)}74.77%{transform:translate(800px,0px)}75.68%{transform:translate(752px,0px)}75.99%,79.64%{transform:translate(752px,16px)}76.6%{transform:translate(784px,16px)}76.9%{transform:translate(784px,32px)}77.2%{transform:translate(800px,32px)}77.51%{transform:translate(800px,48px)}78.12%{transform:translate(768px,48px)}78.42%{transform:translate(768px,32px)}79.03%{transform:translate(736px,32px)}79.33%{transform:translate(736px,16px)}80.24%{transform:translate(752px,48px)}80.55%{transform:translate(736px,48px)}81.16%{transform:translate(736px,80px)}82.67%{transform:translate(816px,80px)}82.98%{transform:translate(816px,96px)}84.5%{transform:translate(736px,96px)}98.48%{transform:translate(96px,0px)}98.78%{transform:translate(96px,-16px)}}.s.s3{transform:translate(48px,-16px);animation-name:s3}</style><rect class="c" x="2" y="2" rx="2" ry="2"/><rect class="c" x="2" y="18" rx="2" ry="2"/><rect class="c" x="2" y="34" rx="2" ry="2"/><rect class="c" x="2" y="50" rx="2" ry="2"/><rect class="c" x="2" y="66" rx="2" ry="2"/><rect class="c" x="2" y="82" rx="2" ry="2"/><rect class="c" x="2" y="98" rx="2" ry="2"/><rect class="c" x="18" y="2" rx="2" ry="2"/><rect class="c" x="18" y="18" rx="2" ry="2"/><rect class="c" x="18" y="34" rx="2" ry="2"/><rect class="c" x="18" y="50" rx="2" ry="2"/><rect class="c" x="18" y="66" rx="2" ry="2"/><rect class="c" x="18" y="82" rx="2" ry="2"/><rect class="c" x="18" y="98" rx="2" ry="2"/><rect class="c" x="34" y="2" rx="2" ry="2"/><rect class="c" x="34" y="18" rx="2" ry="2"/><rect class="c" x="34" y="34" rx="2" ry="2"/><rect class="c" x="34" y="50" rx="2" ry="2"/><rect class="c" x="34" y="66" rx="2" ry="2"/><rect class="c" x="34" y="82" rx="2" ry="2"/><rect class="c" x="34" y="98" rx="2" ry="2"/><rect class="c" x="50" y="2" rx="2" ry="2"/><rect class="c" x="50" y="18" rx="2" ry="2"/><rect class="c" x="50" y="34" rx="2" ry="2"/><rect class="c" x="50" y="50" rx="2" ry="2"/><rect class="c" x="50" y="66" rx="2" ry="2"/><rect class="c" x="50" y="82" rx="2" ry="2"/><rect class="c" x="50" y="98" rx="2" ry="2"/><rect class="c" x="66" y="2" rx="2" ry="2"/><rect class="c" x="66" y="18" rx="2" ry="2"/><rect class="c" x="66" y="34" rx="2" ry="2"/><rect class="c" x="66" y="50" rx="2" ry="2"/><rect class="c" x="66" y="66" rx="2" ry="2"/><rect class="c" x="66" y="82" rx="2" ry="2"/><rect class="c" x="66" y="98" rx="2" ry="2"/><rect class="c" x="82" y="2" rx="2" ry="2"/><rect class="c" x="82" y="18" rx="2" ry="2"/><rect class="c" x="82" y="34" rx="2" ry="2"/><rect class="c" x="82" y="50" rx="2" ry="2"/><rect class="c" x="82" y="66" rx="2" ry="2"/><rect class="c" x="82" y="82" rx="2" ry="2"/><rect class="c" x="82" y="98" rx="2" ry="2"/><rect class="c" x="98" y="2" rx="2" ry="2"/><rect class="c" x="98" y="18" rx="2" ry="2"/><rect class="c" x="98" y="34" rx="2" ry="2"/><rect class="c" x="98" y="50" rx="2" ry="2"/><rect class="c" x="98" y="66" rx="2" ry="2"/><rect class="c" x="98" y="82" rx="2" ry="2"/><rect class="c" x="98" y="98" rx="2" ry="2"/><rect class="c" x="114" y="2" rx="2" ry="2"/><rect class="c" x="114" y="18" rx="2" ry="2"/><rect class="c" x="114" y="34" rx="2" ry="2"/><rect class="c" x="114" y="50" rx="2" ry="2"/><rect class="c" x="114" y="66" rx="2" ry="2"/><rect class="c" x="114" y="82" rx="2" ry="2"/><rect class="c" x="114" y="98" rx="2" ry="2"/><rect class="c" x="130" y="2" rx="2" ry="2"/><rect class="c" x="130" y="18" rx="2" ry="2"/><rect class="c" x="130" y="34" rx="2" ry="2"/><rect class="c" x="130" y="50" rx="2" ry="2"/><rect class="c" x="130" y="66" rx="2" ry="2"/><rect class="c c0" x="130" y="82" rx="2" ry="2"/><rect class="c c1" x="130" y="98" rx="2" ry="2"/><rect class="c" x="146" y="2" rx="2" ry="2"/><rect class="c" x="146" y="18" rx="2" ry="2"/><rect class="c" x="146" y="34" rx="2" ry="2"/><rect class="c" x="146" y="50" rx="2" ry="2"/><rect class="c" x="146" y="66" rx="2" ry="2"/><rect class="c" x="146" y="82" rx="2" ry="2"/><rect class="c" x="146" y="98" rx="2" ry="2"/><rect class="c c2" x="162" y="2" rx="2" ry="2"/><rect class="c c3" x="162" y="18" rx="2" ry="2"/><rect class="c" x="162" y="34" rx="2" ry="2"/><rect class="c" x="162" y="50" rx="2" ry="2"/><rect class="c" x="162" y="66" rx="2" ry="2"/><rect class="c" x="162" y="82" rx="2" ry="2"/><rect class="c" x="162" y="98" rx="2" ry="2"/><rect class="c" x="178" y="2" rx="2" ry="2"/><rect class="c" x="178" y="18" rx="2" ry="2"/><rect class="c" x="178" y="34" rx="2" ry="2"/><rect class="c" x="178" y="50" rx="2" ry="2"/><rect class="c" x="178" y="66" rx="2" ry="2"/><rect class="c" x="178" y="82" rx="2" ry="2"/><rect class="c" x="178" y="98" rx="2" ry="2"/><rect class="c" x="194" y="2" rx="2" ry="2"/><rect class="c" x="194" y="18" rx="2" ry="2"/><rect class="c" x="194" y="34" rx="2" ry="2"/><rect class="c" x="194" y="50" rx="2" ry="2"/><rect class="c" x="194" y="66" rx="2" ry="2"/><rect class="c" x="194" y="82" rx="2" ry="2"/><rect class="c" x="194" y="98" rx="2" ry="2"/><rect class="c" x="210" y="2" rx="2" ry="2"/><rect class="c" x="210" y="18" rx="2" ry="2"/><rect class="c" x="210" y="34" rx="2" ry="2"/><rect class="c" x="210" y="50" rx="2" ry="2"/><rect class="c" x="210" y="66" rx="2" ry="2"/><rect class="c" x="210" y="82" rx="2" ry="2"/><rect class="c" x="210" y="98" rx="2" ry="2"/><rect class="c" x="226" y="2" rx="2" ry="2"/><rect class="c" x="226" y="18" rx="2" ry="2"/><rect class="c" x="226" y="34" rx="2" ry="2"/><rect class="c" x="226" y="50" rx="2" ry="2"/><rect class="c" x="226" y="66" rx="2" ry="2"/><rect class="c" x="226" y="82" rx="2" ry="2"/><rect class="c" x="226" y="98" rx="2" ry="2"/><rect class="c" x="242" y="2" rx="2" ry="2"/><rect class="c" x="242" y="18" rx="2" ry="2"/><rect class="c" x="242" y="34" rx="2" ry="2"/><rect class="c" x="242" y="50" rx="2" ry="2"/><rect class="c c4" x="242" y="66" rx="2" ry="2"/><rect class="c" x="242" y="82" rx="2" ry="2"/><rect class="c" x="242" y="98" rx="2" ry="2"/><rect class="c" x="258" y="2" rx="2" ry="2"/><rect class="c" x="258" y="18" rx="2" ry="2"/><rect class="c" x="258" y="34" rx="2" ry="2"/><rect class="c" x="258" y="50" rx="2" ry="2"/><rect class="c" x="258" y="66" rx="2" ry="2"/><rect class="c" x="258" y="82" rx="2" ry="2"/><rect class="c" x="258" y="98" rx="2" ry="2"/><rect class="c" x="274" y="2" rx="2" ry="2"/><rect class="c" x="274" y="18" rx="2" ry="2"/><rect class="c" x="274" y="34" rx="2" ry="2"/><rect class="c" x="274" y="50" rx="2" ry="2"/><rect class="c" x="274" y="66" rx="2" ry="2"/><rect class="c" x="274" y="82" rx="2" ry="2"/><rect class="c" x="274" y="98" rx="2" ry="2"/><rect class="c" x="290" y="2" rx="2" ry="2"/><rect class="c" x="290" y="18" rx="2" ry="2"/><rect class="c" x="290" y="34" rx="2" ry="2"/><rect class="c" x="290" y="50" rx="2" ry="2"/><rect class="c" x="290" y="66" rx="2" ry="2"/><rect class="c" x="290" y="82" rx="2" ry="2"/><rect class="c" x="290" y="98" rx="2" ry="2"/><rect class="c" x="306" y="2" rx="2" ry="2"/><rect class="c" x="306" y="18" rx="2" ry="2"/><rect class="c" x="306" y="34" rx="2" ry="2"/><rect class="c" x="306" y="50" rx="2" ry="2"/><rect class="c" x="306" y="66" rx="2" ry="2"/><rect class="c" x="306" y="82" rx="2" ry="2"/><rect class="c" x="306" y="98" rx="2" ry="2"/><rect class="c" x="322" y="2" rx="2" ry="2"/><rect class="c" x="322" y="18" rx="2" ry="2"/><rect class="c" x="322" y="34" rx="2" ry="2"/><rect class="c" x="322" y="50" rx="2" ry="2"/><rect class="c" x="322" y="66" rx="2" ry="2"/><rect class="c" x="322" y="82" rx="2" ry="2"/><rect class="c" x="322" y="98" rx="2" ry="2"/><rect class="c" x="338" y="2" rx="2" ry="2"/><rect class="c" x="338" y="18" rx="2" ry="2"/><rect class="c" x="338" y="34" rx="2" ry="2"/><rect class="c" x="338" y="50" rx="2" ry="2"/><rect class="c" x="338" y="66" rx="2" ry="2"/><rect class="c" x="338" y="82" rx="2" ry="2"/><rect class="c" x="338" y="98" rx="2" ry="2"/><rect class="c" x="354" y="2" rx="2" ry="2"/><rect class="c" x="354" y="18" rx="2" ry="2"/><rect class="c" x="354" y="34" rx="2" ry="2"/><rect class="c" x="354" y="50" rx="2" ry="2"/><rect class="c" x="354" y="66" rx="2" ry="2"/><rect class="c" x="354" y="82" rx="2" ry="2"/><rect class="c" x="354" y="98" rx="2" ry="2"/><rect class="c" x="370" y="2" rx="2" ry="2"/><rect class="c" x="370" y="18" rx="2" ry="2"/><rect class="c" x="370" y="34" rx="2" ry="2"/><rect class="c" x="370" y="50" rx="2" ry="2"/><rect class="c c5" x="370" y="66" rx="2" ry="2"/><rect class="c" x="370" y="82" rx="2" ry="2"/><rect class="c" x="370" y="98" rx="2" ry="2"/><rect class="c" x="386" y="2" rx="2" ry="2"/><rect class="c" x="386" y="18" rx="2" ry="2"/><rect class="c" x="386" y="34" rx="2" ry="2"/><rect class="c c6" x="386" y="50" rx="2" ry="2"/><rect class="c" x="386" y="66" rx="2" ry="2"/><rect class="c" x="386" y="82" rx="2" ry="2"/><rect class="c" x="386" y="98" rx="2" ry="2"/><rect class="c" x="402" y="2" rx="2" ry="2"/><rect class="c" x="402" y="18" rx="2" ry="2"/><rect class="c" x="402" y="34" rx="2" ry="2"/><rect class="c" x="402" y="50" rx="2" ry="2"/><rect class="c" x="402" y="66" rx="2" ry="2"/><rect class="c" x="402" y="82" rx="2" ry="2"/><rect class="c" x="402" y="98" rx="2" ry="2"/><rect class="c" x="418" y="2" rx="2" ry="2"/><rect class="c" x="418" y="18" rx="2" ry="2"/><rect class="c" x="418" y="34" rx="2" ry="2"/><rect class="c" x="418" y="50" rx="2" ry="2"/><rect class="c" x="418" y="66" rx="2" ry="2"/><rect class="c" x="418" y="82" rx="2" ry="2"/><rect class="c" x="418" y="98" rx="2" ry="2"/><rect class="c" x="434" y="2" rx="2" ry="2"/><rect class="c" x="434" y="18" rx="2" ry="2"/><rect class="c" x="434" y="34" rx="2" ry="2"/><rect class="c" x="434" y="50" rx="2" ry="2"/><rect class="c" x="434" y="66" rx="2" ry="2"/><rect class="c" x="434" y="82" rx="2" ry="2"/><rect class="c" x="434" y="98" rx="2" ry="2"/><rect class="c" x="450" y="2" rx="2" ry="2"/><rect class="c" x="450" y="18" rx="2" ry="2"/><rect class="c" x="450" y="34" rx="2" ry="2"/><rect class="c" x="450" y="50" rx="2" ry="2"/><rect class="c" x="450" y="66" rx="2" ry="2"/><rect class="c" x="450" y="82" rx="2" ry="2"/><rect class="c" x="450" y="98" rx="2" ry="2"/><rect class="c" x="466" y="2" rx="2" ry="2"/><rect class="c" x="466" y="18" rx="2" ry="2"/><rect class="c" x="466" y="34" rx="2" ry="2"/><rect class="c" x="466" y="50" rx="2" ry="2"/><rect class="c" x="466" y="66" rx="2" ry="2"/><rect class="c" x="466" y="82" rx="2" ry="2"/><rect class="c" x="466" y="98" rx="2" ry="2"/><rect class="c" x="482" y="2" rx="2" ry="2"/><rect class="c" x="482" y="18" rx="2" ry="2"/><rect class="c" x="482" y="34" rx="2" ry="2"/><rect class="c" x="482" y="50" rx="2" ry="2"/><rect class="c" x="482" y="66" rx="2" ry="2"/><rect class="c" x="482" y="82" rx="2" ry="2"/><rect class="c" x="482" y="98" rx="2" ry="2"/><rect class="c" x="498" y="2" rx="2" ry="2"/><rect class="c" x="498" y="18" rx="2" ry="2"/><rect class="c" x="498" y="34" rx="2" ry="2"/><rect class="c" x="498" y="50" rx="2" ry="2"/><rect class="c" x="498" y="66" rx="2" ry="2"/><rect class="c" x="498" y="82" rx="2" ry="2"/><rect class="c" x="498" y="98" rx="2" ry="2"/><rect class="c" x="514" y="2" rx="2" ry="2"/><rect class="c" x="514" y="18" rx="2" ry="2"/><rect class="c" x="514" y="34" rx="2" ry="2"/><rect class="c" x="514" y="50" rx="2" ry="2"/><rect class="c" x="514" y="66" rx="2" ry="2"/><rect class="c" x="514" y="82" rx="2" ry="2"/><rect class="c" x="514" y="98" rx="2" ry="2"/><rect class="c" x="530" y="2" rx="2" ry="2"/><rect class="c" x="530" y="18" rx="2" ry="2"/><rect class="c" x="530" y="34" rx="2" ry="2"/><rect class="c" x="530" y="50" rx="2" ry="2"/><rect class="c" x="530" y="66" rx="2" ry="2"/><rect class="c" x="530" y="82" rx="2" ry="2"/><rect class="c" x="530" y="98" rx="2" ry="2"/><rect class="c" x="546" y="2" rx="2" ry="2"/><rect class="c" x="546" y="18" rx="2" ry="2"/><rect class="c" x="546" y="34" rx="2" ry="2"/><rect class="c" x="546" y="50" rx="2" ry="2"/><rect class="c c7" x="546" y="66" rx="2" ry="2"/><rect class="c" x="546" y="82" rx="2" ry="2"/><rect class="c c8" x="546" y="98" rx="2" ry="2"/><rect class="c c9" x="562" y="2" rx="2" ry="2"/><rect class="c" x="562" y="18" rx="2" ry="2"/><rect class="c" x="562" y="34" rx="2" ry="2"/><rect class="c ca" x="562" y="50" rx="2" ry="2"/><rect class="c" x="562" y="66" rx="2" ry="2"/><rect class="c" x="562" y="82" rx="2" ry="2"/><rect class="c" x="562" y="98" rx="2" ry="2"/><rect class="c" x="578" y="2" rx="2" ry="2"/><rect class="c cb" x="578" y="18" rx="2" ry="2"/><rect class="c" x="578" y="34" rx="2" ry="2"/><rect class="c" x="578" y="50" rx="2" ry="2"/><rect class="c" x="578" y="66" rx="2" ry="2"/><rect class="c cc" x="578" y="82" rx="2" ry="2"/><rect class="c cd" x="578" y="98" rx="2" ry="2"/><rect class="c" x="594" y="2" rx="2" ry="2"/><rect class="c" x="594" y="18" rx="2" ry="2"/><rect class="c" x="594" y="34" rx="2" ry="2"/><rect class="c" x="594" y="50" rx="2" ry="2"/><rect class="c" x="594" y="66" rx="2" ry="2"/><rect class="c" x="594" y="82" rx="2" ry="2"/><rect class="c" x="594" y="98" rx="2" ry="2"/><rect class="c" x="610" y="2" rx="2" ry="2"/><rect class="c" x="610" y="18" rx="2" ry="2"/><rect class="c ce" x="610" y="34" rx="2" ry="2"/><rect class="c cf" x="610" y="50" rx="2" ry="2"/><rect class="c cg" x="610" y="66" rx="2" ry="2"/><rect class="c ch" x="610" y="82" rx="2" ry="2"/><rect class="c ci" x="610" y="98" rx="2" ry="2"/><rect class="c cj" x="626" y="2" rx="2" ry="2"/><rect class="c ck" x="626" y="18" rx="2" ry="2"/><rect class="c cl" x="626" y="34" rx="2" ry="2"/><rect class="c cm" x="626" y="50" rx="2" ry="2"/><rect class="c cn" x="626" y="66" rx="2" ry="2"/><rect class="c co" x="626" y="82" rx="2" ry="2"/><rect class="c cp" x="626" y="98" rx="2" ry="2"/><rect class="c cq" x="642" y="2" rx="2" ry="2"/><rect class="c cr" x="642" y="18" rx="2" ry="2"/><rect class="c cs" x="642" y="34" rx="2" ry="2"/><rect class="c ct" x="642" y="50" rx="2" ry="2"/><rect class="c cu" x="642" y="66" rx="2" ry="2"/><rect class="c cv" x="642" y="82" rx="2" ry="2"/><rect class="c cw" x="642" y="98" rx="2" ry="2"/><rect class="c cx" x="658" y="2" rx="2" ry="2"/><rect class="c cy" x="658" y="18" rx="2" ry="2"/><rect class="c cz" x="658" y="34" rx="2" ry="2"/><rect class="c c10" x="658" y="50" rx="2" ry="2"/><rect class="c c11" x="658" y="66" rx="2" ry="2"/><rect class="c c12" x="658" y="82" rx="2" ry="2"/><rect class="c c13" x="658" y="98" rx="2" ry="2"/><rect class="c c14" x="674" y="2" rx="2" ry="2"/><rect class="c c15" x="674" y="18" rx="2" ry="2"/><rect class="c c16" x="674" y="34" rx="2" ry="2"/><rect class="c c17" x="674" y="50" rx="2" ry="2"/><rect class="c c18" x="674" y="66" rx="2" ry="2"/><rect class="c c19" x="674" y="82" rx="2" ry="2"/><rect class="c c1a" x="674" y="98" rx="2" ry="2"/><rect class="c c1b" x="690" y="2" rx="2" ry="2"/><rect class="c c1c" x="690" y="18" rx="2" ry="2"/><rect class="c c1d" x="690" y="34" rx="2" ry="2"/><rect class="c c1e" x="690" y="50" rx="2" ry="2"/><rect class="c c1f" x="690" y="66" rx="2" ry="2"/><rect class="c c1g" x="690" y="82" rx="2" ry="2"/><rect class="c c1h" x="690" y="98" rx="2" ry="2"/><rect class="c c1i" x="706" y="2" rx="2" ry="2"/><rect class="c c1j" x="706" y="18" rx="2" ry="2"/><rect class="c c1k" x="706" y="34" rx="2" ry="2"/><rect class="c c1l" x="706" y="50" rx="2" ry="2"/><rect class="c c1m" x="706" y="66" rx="2" ry="2"/><rect class="c c1n" x="706" y="82" rx="2" ry="2"/><rect class="c c1o" x="706" y="98" rx="2" ry="2"/><rect class="c c1p" x="722" y="2" rx="2" ry="2"/><rect class="c c1q" x="722" y="18" rx="2" ry="2"/><rect class="c c1r" x="722" y="34" rx="2" ry="2"/><rect class="c c1s" x="722" y="50" rx="2" ry="2"/><rect class="c c1t" x="722" y="66" rx="2" ry="2"/><rect class="c c1u" x="722" y="82" rx="2" ry="2"/><rect class="c c1v" x="722" y="98" rx="2" ry="2"/><rect class="c c1w" x="738" y="2" rx="2" ry="2"/><rect class="c c1x" x="738" y="18" rx="2" ry="2"/><rect class="c c1y" x="738" y="34" rx="2" ry="2"/><rect class="c c1z" x="738" y="50" rx="2" ry="2"/><rect class="c c20" x="738" y="66" rx="2" ry="2"/><rect class="c c21" x="738" y="82" rx="2" ry="2"/><rect class="c c22" x="738" y="98" rx="2" ry="2"/><rect class="c c23" x="754" y="2" rx="2" ry="2"/><rect class="c c24" x="754" y="18" rx="2" ry="2"/><rect class="c c25" x="754" y="34" rx="2" ry="2"/><rect class="c c26" x="754" y="50" rx="2" ry="2"/><rect class="c c27" x="754" y="66" rx="2" ry="2"/><rect class="c c28" x="754" y="82" rx="2" ry="2"/><rect class="c c29" x="754" y="98" rx="2" ry="2"/><rect class="c c2a" x="770" y="2" rx="2" ry="2"/><rect class="c c2b" x="770" y="18" rx="2" ry="2"/><rect class="c c2c" x="770" y="34" rx="2" ry="2"/><rect class="c c2d" x="770" y="50" rx="2" ry="2"/><rect class="c c2e" x="770" y="66" rx="2" ry="2"/><rect class="c c2f" x="770" y="82" rx="2" ry="2"/><rect class="c c2g" x="770" y="98" rx="2" ry="2"/><rect class="c c2h" x="786" y="2" rx="2" ry="2"/><rect class="c c2i" x="786" y="18" rx="2" ry="2"/><rect class="c c2j" x="786" y="34" rx="2" ry="2"/><rect class="c c2k" x="786" y="50" rx="2" ry="2"/><rect class="c c2l" x="786" y="66" rx="2" ry="2"/><rect class="c c2m" x="786" y="82" rx="2" ry="2"/><rect class="c c2n" x="786" y="98" rx="2" ry="2"/><rect class="c c2o" x="802" y="2" rx="2" ry="2"/><rect class="c c2p" x="802" y="18" rx="2" ry="2"/><rect class="c c2q" x="802" y="34" rx="2" ry="2"/><rect class="c c2r" x="802" y="50" rx="2" ry="2"/><rect class="c c2s" x="802" y="66" rx="2" ry="2"/><rect class="c c2t" x="802" y="82" rx="2" ry="2"/><rect class="c c2u" x="802" y="98" rx="2" ry="2"/><rect class="c c2v" x="818" y="2" rx="2" ry="2"/><rect class="c c2w" x="818" y="18" rx="2" ry="2"/><rect class="c c2x" x="818" y="34" rx="2" ry="2"/><rect class="c c2y" x="818" y="50" rx="2" ry="2"/><rect class="c c2z" x="818" y="66" rx="2" ry="2"/><rect class="c c30" x="818" y="82" rx="2" ry="2"/><rect class="c c31" x="818" y="98" rx="2" ry="2"/><rect class="c c32" x="834" y="2" rx="2" ry="2"/><rect class="c c33" x="834" y="18" rx="2" ry="2"/><rect class="u u0" height="12" width="76.3" x="0.0" y="144"/><rect class="u u1" height="12" width="409.5" x="75.7" y="144"/><rect class="u u2" height="12" width="364.0" x="484.6" y="144"/><rect class="s s0" x="0.8" y="0.8" width="14.4" height="14.4" rx="4.5" ry="4.5"/><rect class="s s1" x="1.8" y="1.8" width="12.3" height="12.3" rx="4.1" ry="4.1"/><rect class="s s2" x="2.6" y="2.6" width="10.8" height="10.8" rx="3.6" ry="3.6"/><rect class="s s3" x="3.0" y="3.0" width="9.9" height="9.9" rx="3.3" ry="3.3"/></svg>