<svg viewBox="-16 -32 880 192" width="880" height="192" xmlns="http://www.w3.org/2000/svg"><desc>Generated with https://github.com/Platane/snk</desc><style>:root{--cb:#1b1f230a;--cs:purple;--ce:#ebedf0;--c0:#ebedf0;--c1:#9be9a8;--c2:#40c463;--c3:#30a14e;--c4:#216e39}.c{shape-rendering:geometricPrecision;fill:var(--ce);stroke-width:1px;stroke:var(--cb);animation:none 30100ms linear infinite;width:12px;height:12px}@keyframes c0{5.31%{fill:var(--c1)}5.33%,100%{fill:var(--ce)}}.c.c0{fill:var(--c1);animation-name:c0}@keyframes c1{5.64%{fill:var(--c1)}5.66%,100%{fill:var(--ce)}}.c.c1{fill:var(--c1);animation-name:c1}@keyframes c2{2.98%{fill:var(--c1)}3%,100%{fill:var(--ce)}}.c.c2{fill:var(--c1);animation-name:c2}@keyframes c3{3.31%{fill:var(--c1)}3.33%,100%{fill:var(--ce)}}.c.c3{fill:var(--c1);animation-name:c3}@keyframes c4{8.63%{fill:var(--c1)}8.65%,100%{fill:var(--ce)}}.c.c4{fill:var(--c1);animation-name:c4}@keyframes c5{75.74%{fill:var(--c3)}75.76%,100%{fill:var(--ce)}}.c.c5{fill:var(--c3);animation-name:c5}@keyframes c6{11.95%{fill:var(--c1)}11.97%,100%{fill:var(--ce)}}.c.c6{fill:var(--c1);animation-name:c6}@keyframes c7{16.27%{fill:var(--c1)}16.29%,100%{fill:var(--ce)}}.c.c7{fill:var(--c1);animation-name:c7}@keyframes c8{16.93%{fill:var(--c1)}16.95%,100%{fill:var(--ce)}}.c.c8{fill:var(--c1);animation-name:c8}@keyframes c9{70.42%{fill:var(--c3)}70.44%,100%{fill:var(--ce)}}.c.c9{fill:var(--c3);animation-name:c9}@keyframes ca{15.6%{fill:var(--c1)}15.62%,100%{fill:var(--ce)}}.c.ca{fill:var(--c1);animation-name:ca}@keyframes cb{40.52%{fill:var(--c1)}40.54%,100%{fill:var(--ce)}}.c.cb{fill:var(--c1);animation-name:cb}@keyframes cc{17.93%{fill:var(--c1)}17.95%,100%{fill:var(--ce)}}.c.cc{fill:var(--c1);animation-name:cc}@keyframes cd{17.6%{fill:var(--c1)}17.62%,100%{fill:var(--ce)}}.c.cd{fill:var(--c1);animation-name:cd}@keyframes ce{68.76%{fill:var(--c3)}68.78%,100%{fill:var(--ce)}}.c.ce{fill:var(--c3);animation-name:ce}@keyframes cf{81.05%{fill:var(--c4)}81.07%,100%{fill:var(--ce)}}.c.cf{fill:var(--c4);animation-name:cf}@keyframes cg{36.87%{fill:var(--c1)}36.89%,100%{fill:var(--ce)}}.c.cg{fill:var(--c1);animation-name:cg}@keyframes ch{18.59%{fill:var(--c1)}18.61%,100%{fill:var(--ce)}}.c.ch{fill:var(--c1);animation-name:ch}@keyframes ci{36.2%{fill:var(--c1)}36.22%,100%{fill:var(--ce)}}.c.ci{fill:var(--c1);animation-name:ci}@keyframes cj{25.9%{fill:var(--c1)}25.92%,100%{fill:var(--ce)}}.c.cj{fill:var(--c1);animation-name:cj}@keyframes ck{26.24%{fill:var(--c1)}26.26%,100%{fill:var(--ce)}}.c.ck{fill:var(--c1);animation-name:ck}@keyframes cl{26.57%{fill:var(--c1)}26.59%,100%{fill:var(--ce)}}.c.cl{fill:var(--c1);animation-name:cl}@keyframes cm{38.86%{fill:var(--c1)}38.88%,100%{fill:var(--ce)}}.c.cm{fill:var(--c1);animation-name:cm}@keyframes cn{37.2%{fill:var(--c1)}37.22%,100%{fill:var(--ce)}}.c.cn{fill:var(--c1);animation-name:cn}@keyframes co{18.93%{fill:var(--c1)}18.95%,100%{fill:var(--ce)}}.c.co{fill:var(--c1);animation-name:co}@keyframes cp{35.87%{fill:var(--c1)}35.89%,100%{fill:var(--ce)}}.c.cp{fill:var(--c1);animation-name:cp}@keyframes cq{25.57%{fill:var(--c1)}25.59%,100%{fill:var(--ce)}}.c.cq{fill:var(--c1);animation-name:cq}@keyframes cr{42.51%{fill:var(--c2)}42.53%,100%{fill:var(--ce)}}.c.cr{fill:var(--c2);animation-name:cr}@keyframes cs{26.9%{fill:var(--c1)}26.92%,100%{fill:var(--ce)}}.c.cs{fill:var(--c1);animation-name:cs}@keyframes ct{38.53%{fill:var(--c1)}38.55%,100%{fill:var(--ce)}}.c.ct{fill:var(--c1);animation-name:ct}@keyframes cu{37.53%{fill:var(--c1)}37.55%,100%{fill:var(--ce)}}.c.cu{fill:var(--c1);animation-name:cu}@keyframes cv{19.26%{fill:var(--c1)}19.28%,100%{fill:var(--ce)}}.c.cv{fill:var(--c1);animation-name:cv}@keyframes cw{35.54%{fill:var(--c1)}35.56%,100%{fill:var(--ce)}}.c.cw{fill:var(--c1);animation-name:cw}@keyframes cx{25.24%{fill:var(--c1)}25.26%,100%{fill:var(--ce)}}.c.cx{fill:var(--c1);animation-name:cx}@keyframes cy{29.56%{fill:var(--c1)}29.58%,100%{fill:var(--ce)}}.c.cy{fill:var(--c1);animation-name:cy}@keyframes cz{27.23%{fill:var(--c1)}27.25%,100%{fill:var(--ce)}}.c.cz{fill:var(--c1);animation-name:cz}@keyframes c10{30.22%{fill:var(--c1)}30.24%,100%{fill:var(--ce)}}.c.c10{fill:var(--c1);animation-name:c10}@keyframes c11{37.86%{fill:var(--c1)}37.88%,100%{fill:var(--ce)}}.c.c11{fill:var(--c1);animation-name:c11}@keyframes c12{19.59%{fill:var(--c1)}19.61%,100%{fill:var(--ce)}}.c.c12{fill:var(--c1);animation-name:c12}@keyframes c13{35.21%{fill:var(--c1)}35.23%,100%{fill:var(--ce)}}.c.c13{fill:var(--c1);animation-name:c13}@keyframes c14{24.91%{fill:var(--c1)}24.93%,100%{fill:var(--ce)}}.c.c14{fill:var(--c1);animation-name:c14}@keyframes c15{29.23%{fill:var(--c1)}29.25%,100%{fill:var(--ce)}}.c.c15{fill:var(--c1);animation-name:c15}@keyframes c16{27.56%{fill:var(--c1)}27.58%,100%{fill:var(--ce)}}.c.c16{fill:var(--c1);animation-name:c16}@keyframes c17{30.55%{fill:var(--c1)}30.57%,100%{fill:var(--ce)}}.c.c17{fill:var(--c1);animation-name:c17}@keyframes c18{44.18%{fill:var(--c2)}44.2%,100%{fill:var(--ce)}}.c.c18{fill:var(--c2);animation-name:c18}@keyframes c19{19.92%{fill:var(--c1)}19.94%,100%{fill:var(--ce)}}.c.c19{fill:var(--c1);animation-name:c19}@keyframes c1a{34.87%{fill:var(--c1)}34.89%,100%{fill:var(--ce)}}.c.c1a{fill:var(--c1);animation-name:c1a}@keyframes c1b{24.57%{fill:var(--c1)}24.59%,100%{fill:var(--ce)}}.c.c1b{fill:var(--c1);animation-name:c1b}@keyframes c1c{28.89%{fill:var(--c1)}28.91%,100%{fill:var(--ce)}}.c.c1c{fill:var(--c1);animation-name:c1c}@keyframes c1d{27.9%{fill:var(--c1)}27.92%,100%{fill:var(--ce)}}.c.c1d{fill:var(--c1);animation-name:c1d}@keyframes c1e{30.89%{fill:var(--c1)}30.91%,100%{fill:var(--ce)}}.c.c1e{fill:var(--c1);animation-name:c1e}@keyframes c1f{31.88%{fill:var(--c1)}31.9%,100%{fill:var(--ce)}}.c.c1f{fill:var(--c1);animation-name:c1f}@keyframes c1g{20.26%{fill:var(--c1)}20.28%,100%{fill:var(--ce)}}.c.c1g{fill:var(--c1);animation-name:c1g}@keyframes c1h{32.55%{fill:var(--c1)}32.57%,100%{fill:var(--ce)}}.c.c1h{fill:var(--c1);animation-name:c1h}@keyframes c1i{24.24%{fill:var(--c1)}24.26%,100%{fill:var(--ce)}}.c.c1i{fill:var(--c1);animation-name:c1i}@keyframes c1j{28.56%{fill:var(--c1)}28.58%,100%{fill:var(--ce)}}.c.c1j{fill:var(--c1);animation-name:c1j}@keyframes c1k{28.23%{fill:var(--c1)}28.25%,100%{fill:var(--ce)}}.c.c1k{fill:var(--c1);animation-name:c1k}@keyframes c1l{31.22%{fill:var(--c1)}31.24%,100%{fill:var(--ce)}}.c.c1l{fill:var(--c1);animation-name:c1l}@keyframes c1m{31.55%{fill:var(--c1)}31.57%,100%{fill:var(--ce)}}.c.c1m{fill:var(--c1);animation-name:c1m}@keyframes c1n{20.59%{fill:var(--c1)}20.61%,100%{fill:var(--ce)}}.c.c1n{fill:var(--c1);animation-name:c1n}@keyframes c1o{32.88%{fill:var(--c1)}32.9%,100%{fill:var(--ce)}}.c.c1o{fill:var(--c1);animation-name:c1o}@keyframes c1p{22.58%{fill:var(--c1)}22.6%,100%{fill:var(--ce)}}.c.c1p{fill:var(--c1);animation-name:c1p}@keyframes c1q{22.25%{fill:var(--c1)}22.27%,100%{fill:var(--ce)}}.c.c1q{fill:var(--c1);animation-name:c1q}@keyframes c1r{21.92%{fill:var(--c1)}21.94%,100%{fill:var(--ce)}}.c.c1r{fill:var(--c1);animation-name:c1r}@keyframes c1s{21.58%{fill:var(--c1)}21.6%,100%{fill:var(--ce)}}.c.c1s{fill:var(--c1);animation-name:c1s}@keyframes c1t{21.25%{fill:var(--c1)}21.27%,100%{fill:var(--ce)}}.c.c1t{fill:var(--c1);animation-name:c1t}@keyframes c1u{20.92%{fill:var(--c1)}20.94%,100%{fill:var(--ce)}}.c.c1u{fill:var(--c1);animation-name:c1u}@keyframes c1v{33.21%{fill:var(--c1)}33.23%,100%{fill:var(--ce)}}.c.c1v{fill:var(--c1);animation-name:c1v}@keyframes c1w{22.91%{fill:var(--c1)}22.93%,100%{fill:var(--ce)}}.c.c1w{fill:var(--c1);animation-name:c1w}@keyframes c1x{84.38%{fill:var(--c4)}84.4%,100%{fill:var(--ce)}}.c.c1x{fill:var(--c4);animation-name:c1x}@keyframes c1y{57.47%{fill:var(--c3)}57.49%,100%{fill:var(--ce)}}.c.c1y{fill:var(--c3);animation-name:c1y}@keyframes c1z{57.8%{fill:var(--c3)}57.82%,100%{fill:var(--ce)}}.c.c1z{fill:var(--c3);animation-name:c1z}@keyframes c20{45.5%{fill:var(--c3)}45.52%,100%{fill:var(--ce)}}.c.c20{fill:var(--c3);animation-name:c20}@keyframes c21{63.78%{fill:var(--c3)}63.8%,100%{fill:var(--ce)}}.c.c21{fill:var(--c3);animation-name:c21}@keyframes c22{64.11%{fill:var(--c3)}64.13%,100%{fill:var(--ce)}}.c.c22{fill:var(--c3);animation-name:c22}@keyframes c23{52.48%{fill:var(--c3)}52.5%,100%{fill:var(--ce)}}.c.c23{fill:var(--c3);animation-name:c23}@keyframes c24{52.81%{fill:var(--c3)}52.83%,100%{fill:var(--ce)}}.c.c24{fill:var(--c3);animation-name:c24}@keyframes c25{57.13%{fill:var(--c3)}57.15%,100%{fill:var(--ce)}}.c.c25{fill:var(--c3);animation-name:c25}@keyframes c26{58.13%{fill:var(--c3)}58.15%,100%{fill:var(--ce)}}.c.c26{fill:var(--c3);animation-name:c26}@keyframes c27{45.84%{fill:var(--c3)}45.86%,100%{fill:var(--ce)}}.c.c27{fill:var(--c3);animation-name:c27}@keyframes c28{63.45%{fill:var(--c3)}63.47%,100%{fill:var(--ce)}}.c.c28{fill:var(--c3);animation-name:c28}@keyframes c29{64.44%{fill:var(--c3)}64.46%,100%{fill:var(--ce)}}.c.c29{fill:var(--c3);animation-name:c29}@keyframes c2a{52.15%{fill:var(--c3)}52.17%,100%{fill:var(--ce)}}.c.c2a{fill:var(--c3);animation-name:c2a}@keyframes c2b{53.15%{fill:var(--c3)}53.17%,100%{fill:var(--ce)}}.c.c2b{fill:var(--c3);animation-name:c2b}@keyframes c2c{56.8%{fill:var(--c3)}56.82%,100%{fill:var(--ce)}}.c.c2c{fill:var(--c3);animation-name:c2c}@keyframes c2d{58.46%{fill:var(--c3)}58.48%,100%{fill:var(--ce)}}.c.c2d{fill:var(--c3);animation-name:c2d}@keyframes c2e{46.17%{fill:var(--c3)}46.19%,100%{fill:var(--ce)}}.c.c2e{fill:var(--c3);animation-name:c2e}@keyframes c2f{63.11%{fill:var(--c3)}63.13%,100%{fill:var(--ce)}}.c.c2f{fill:var(--c3);animation-name:c2f}@keyframes c2g{62.78%{fill:var(--c3)}62.8%,100%{fill:var(--ce)}}.c.c2g{fill:var(--c3);animation-name:c2g}@keyframes c2h{51.82%{fill:var(--c3)}51.84%,100%{fill:var(--ce)}}.c.c2h{fill:var(--c3);animation-name:c2h}@keyframes c2i{53.48%{fill:var(--c3)}53.5%,100%{fill:var(--ce)}}.c.c2i{fill:var(--c3);animation-name:c2i}@keyframes c2j{56.47%{fill:var(--c3)}56.49%,100%{fill:var(--ce)}}.c.c2j{fill:var(--c3);animation-name:c2j}@keyframes c2k{58.79%{fill:var(--c3)}58.81%,100%{fill:var(--ce)}}.c.c2k{fill:var(--c3);animation-name:c2k}@keyframes c2l{46.5%{fill:var(--c3)}46.52%,100%{fill:var(--ce)}}.c.c2l{fill:var(--c3);animation-name:c2l}@keyframes c2m{59.46%{fill:var(--c3)}59.48%,100%{fill:var(--ce)}}.c.c2m{fill:var(--c3);animation-name:c2m}@keyframes c2n{62.45%{fill:var(--c3)}62.47%,100%{fill:var(--ce)}}.c.c2n{fill:var(--c3);animation-name:c2n}@keyframes c2o{51.49%{fill:var(--c3)}51.51%,100%{fill:var(--ce)}}.c.c2o{fill:var(--c3);animation-name:c2o}@keyframes c2p{53.81%{fill:var(--c3)}53.83%,100%{fill:var(--ce)}}.c.c2p{fill:var(--c3);animation-name:c2p}@keyframes c2q{56.14%{fill:var(--c3)}56.16%,100%{fill:var(--ce)}}.c.c2q{fill:var(--c3);animation-name:c2q}@keyframes c2r{55.8%{fill:var(--c3)}55.82%,100%{fill:var(--ce)}}.c.c2r{fill:var(--c3);animation-name:c2r}@keyframes c2s{46.83%{fill:var(--c3)}46.85%,100%{fill:var(--ce)}}.c.c2s{fill:var(--c3);animation-name:c2s}@keyframes c2t{59.79%{fill:var(--c3)}59.81%,100%{fill:var(--ce)}}.c.c2t{fill:var(--c3);animation-name:c2t}@keyframes c2u{62.12%{fill:var(--c3)}62.14%,100%{fill:var(--ce)}}.c.c2u{fill:var(--c3);animation-name:c2u}@keyframes c2v{51.15%{fill:var(--c3)}51.17%,100%{fill:var(--ce)}}.c.c2v{fill:var(--c3);animation-name:c2v}@keyframes c2w{54.14%{fill:var(--c3)}54.16%,100%{fill:var(--ce)}}.c.c2w{fill:var(--c3);animation-name:c2w}@keyframes c2x{54.48%{fill:var(--c3)}54.5%,100%{fill:var(--ce)}}.c.c2x{fill:var(--c3);animation-name:c2x}@keyframes c2y{55.47%{fill:var(--c3)}55.49%,100%{fill:var(--ce)}}.c.c2y{fill:var(--c3);animation-name:c2y}@keyframes c2z{47.17%{fill:var(--c3)}47.19%,100%{fill:var(--ce)}}.c.c2z{fill:var(--c3);animation-name:c2z}@keyframes c30{60.12%{fill:var(--c3)}60.14%,100%{fill:var(--ce)}}.c.c30{fill:var(--c3);animation-name:c30}@keyframes c31{61.78%{fill:var(--c3)}61.8%,100%{fill:var(--ce)}}.c.c31{fill:var(--c3);animation-name:c31}@keyframes c32{50.82%{fill:var(--c3)}50.84%,100%{fill:var(--ce)}}.c.c32{fill:var(--c3);animation-name:c32}@keyframes c33{50.49%{fill:var(--c3)}50.51%,100%{fill:var(--ce)}}.c.c33{fill:var(--c3);animation-name:c33}@keyframes c34{54.81%{fill:var(--c3)}54.83%,100%{fill:var(--ce)}}.c.c34{fill:var(--c3);animation-name:c34}@keyframes c35{55.14%{fill:var(--c3)}55.16%,100%{fill:var(--ce)}}.c.c35{fill:var(--c3);animation-name:c35}@keyframes c36{47.5%{fill:var(--c3)}47.52%,100%{fill:var(--ce)}}.c.c36{fill:var(--c3);animation-name:c36}@keyframes c37{60.46%{fill:var(--c3)}60.48%,100%{fill:var(--ce)}}.c.c37{fill:var(--c3);animation-name:c37}@keyframes c38{61.45%{fill:var(--c3)}61.47%,100%{fill:var(--ce)}}.c.c38{fill:var(--c3);animation-name:c38}@keyframes c39{49.16%{fill:var(--c3)}49.18%,100%{fill:var(--ce)}}.c.c39{fill:var(--c3);animation-name:c39}@keyframes c3a{48.83%{fill:var(--c3)}48.85%,100%{fill:var(--ce)}}.c.c3a{fill:var(--c3);animation-name:c3a}@keyframes c3b{48.49%{fill:var(--c3)}48.51%,100%{fill:var(--ce)}}.c.c3b{fill:var(--c3);animation-name:c3b}@keyframes c3c{48.16%{fill:var(--c3)}48.18%,100%{fill:var(--ce)}}.c.c3c{fill:var(--c3);animation-name:c3c}@keyframes c3d{47.83%{fill:var(--c3)}47.85%,100%{fill:var(--ce)}}.c.c3d{fill:var(--c3);animation-name:c3d}@keyframes c3e{60.79%{fill:var(--c3)}60.81%,100%{fill:var(--ce)}}.c.c3e{fill:var(--c3);animation-name:c3e}@keyframes c3f{61.12%{fill:var(--c3)}61.14%,100%{fill:var(--ce)}}.c.c3f{fill:var(--c3);animation-name:c3f}@keyframes c3g{49.49%{fill:var(--c3)}49.51%,100%{fill:var(--ce)}}.c.c3g{fill:var(--c3);animation-name:c3g}.u{transform-origin:0 0;transform:scale(0,1);animation:none linear 30100ms infinite}@keyframes u0{2.98%{transform:scale(0.000,1)}3%,3.31%{transform:scale(0.016,1)}3.33%,5.31%{transform:scale(0.032,1)}5.33%,5.64%{transform:scale(0.048,1)}5.66%,8.63%{transform:scale(0.063,1)}8.65%,11.95%{transform:scale(0.079,1)}11.97%,15.6%{transform:scale(0.095,1)}15.62%,16.27%{transform:scale(0.111,1)}16.29%,16.93%{transform:scale(0.127,1)}16.95%,17.6%{transform:scale(0.143,1)}17.62%,17.93%{transform:scale(0.159,1)}17.95%,18.59%{transform:scale(0.175,1)}18.61%,18.93%{transform:scale(0.190,1)}18.95%,19.26%{transform:scale(0.206,1)}19.28%,19.59%{transform:scale(0.222,1)}19.61%,19.92%{transform:scale(0.238,1)}19.94%,20.26%{transform:scale(0.254,1)}20.28%,20.59%{transform:scale(0.270,1)}20.61%,20.92%{transform:scale(0.286,1)}20.94%,21.25%{transform:scale(0.302,1)}21.27%,21.58%{transform:scale(0.317,1)}21.6%,21.92%{transform:scale(0.333,1)}21.94%,22.25%{transform:scale(0.349,1)}22.27%,22.58%{transform:scale(0.365,1)}22.6%,22.91%{transform:scale(0.381,1)}22.93%,24.24%{transform:scale(0.397,1)}24.26%,24.57%{transform:scale(0.413,1)}24.59%,24.91%{transform:scale(0.429,1)}24.93%,25.24%{transform:scale(0.444,1)}25.26%,25.57%{transform:scale(0.460,1)}25.59%,25.9%{transform:scale(0.476,1)}25.92%,26.24%{transform:scale(0.492,1)}26.26%,26.57%{transform:scale(0.508,1)}26.59%,26.9%{transform:scale(0.524,1)}26.92%,27.23%{transform:scale(0.540,1)}27.25%,27.56%{transform:scale(0.556,1)}27.58%,27.9%{transform:scale(0.571,1)}27.92%,28.23%{transform:scale(0.587,1)}28.25%,28.56%{transform:scale(0.603,1)}28.58%,28.89%{transform:scale(0.619,1)}28.91%,29.23%{transform:scale(0.635,1)}29.25%,29.56%{transform:scale(0.651,1)}29.58%,30.22%{transform:scale(0.667,1)}30.24%,30.55%{transform:scale(0.683,1)}30.57%,30.89%{transform:scale(0.698,1)}30.91%,31.22%{transform:scale(0.714,1)}31.24%,31.55%{transform:scale(0.730,1)}31.57%,31.88%{transform:scale(0.746,1)}31.9%,32.55%{transform:scale(0.762,1)}32.57%,32.88%{transform:scale(0.778,1)}32.9%,33.21%{transform:scale(0.794,1)}33.23%,34.87%{transform:scale(0.810,1)}34.89%,35.21%{transform:scale(0.825,1)}35.23%,35.54%{transform:scale(0.841,1)}35.56%,35.87%{transform:scale(0.857,1)}35.89%,36.2%{transform:scale(0.873,1)}36.22%,36.87%{transform:scale(0.889,1)}36.89%,37.2%{transform:scale(0.905,1)}37.22%,37.53%{transform:scale(0.921,1)}37.55%,37.86%{transform:scale(0.937,1)}37.88%,38.53%{transform:scale(0.952,1)}38.55%,38.86%{transform:scale(0.968,1)}38.88%,40.52%{transform:scale(0.984,1)}40.54%,100%{transform:scale(1.000,1)}}.u.u0{fill:var(--c1);animation-name:u0;transform-origin:0.0px 0}@keyframes u1{42.51%{transform:scale(0.000,1)}42.53%,44.18%{transform:scale(0.500,1)}44.2%,100%{transform:scale(1.000,1)}}.u.u1{fill:var(--c2);animation-name:u1;transform-origin:427.4px 0}@keyframes u2{45.5%{transform:scale(0.000,1)}45.52%,45.84%{transform:scale(0.017,1)}45.86%,46.17%{transform:scale(0.034,1)}46.19%,46.5%{transform:scale(0.052,1)}46.52%,46.83%{transform:scale(0.069,1)}46.85%,47.17%{transform:scale(0.086,1)}47.19%,47.5%{transform:scale(0.103,1)}47.52%,47.83%{transform:scale(0.121,1)}47.85%,48.16%{transform:scale(0.138,1)}48.18%,48.49%{transform:scale(0.155,1)}48.51%,48.83%{transform:scale(0.172,1)}48.85%,49.16%{transform:scale(0.190,1)}49.18%,49.49%{transform:scale(0.207,1)}49.51%,50.49%{transform:scale(0.224,1)}50.51%,50.82%{transform:scale(0.241,1)}50.84%,51.15%{transform:scale(0.259,1)}51.17%,51.49%{transform:scale(0.276,1)}51.51%,51.82%{transform:scale(0.293,1)}51.84%,52.15%{transform:scale(0.310,1)}52.17%,52.48%{transform:scale(0.328,1)}52.5%,52.81%{transform:scale(0.345,1)}52.83%,53.15%{transform:scale(0.362,1)}53.17%,53.48%{transform:scale(0.379,1)}53.5%,53.81%{transform:scale(0.397,1)}53.83%,54.14%{transform:scale(0.414,1)}54.16%,54.48%{transform:scale(0.431,1)}54.5%,54.81%{transform:scale(0.448,1)}54.83%,55.14%{transform:scale(0.466,1)}55.16%,55.47%{transform:scale(0.483,1)}55.49%,55.8%{transform:scale(0.500,1)}55.82%,56.14%{transform:scale(0.517,1)}56.16%,56.47%{transform:scale(0.534,1)}56.49%,56.8%{transform:scale(0.552,1)}56.82%,57.13%{transform:scale(0.569,1)}57.15%,57.47%{transform:scale(0.586,1)}57.49%,57.8%{transform:scale(0.603,1)}57.82%,58.13%{transform:scale(0.621,1)}58.15%,58.46%{transform:scale(0.638,1)}58.48%,58.79%{transform:scale(0.655,1)}58.81%,59.46%{transform:scale(0.672,1)}59.48%,59.79%{transform:scale(0.690,1)}59.81%,60.12%{transform:scale(0.707,1)}60.14%,60.46%{transform:scale(0.724,1)}60.48%,60.79%{transform:scale(0.741,1)}60.81%,61.12%{transform:scale(0.759,1)}61.14%,61.45%{transform:scale(0.776,1)}61.47%,61.78%{transform:scale(0.793,1)}61.8%,62.12%{transform:scale(0.810,1)}62.14%,62.45%{transform:scale(0.828,1)}62.47%,62.78%{transform:scale(0.845,1)}62.8%,63.11%{transform:scale(0.862,1)}63.13%,63.45%{transform:scale(0.879,1)}63.47%,63.78%{transform:scale(0.897,1)}63.8%,64.11%{transform:scale(0.914,1)}64.13%,64.44%{transform:scale(0.931,1)}64.46%,68.76%{transform:scale(0.948,1)}68.78%,70.42%{transform:scale(0.966,1)}70.44%,75.74%{transform:scale(0.983,1)}75.76%,100%{transform:scale(1.000,1)}}.u.u2{fill:var(--c3);animation-name:u2;transform-origin:441.0px 0}@keyframes u3{81.05%{transform:scale(0.000,1)}81.07%,84.38%{transform:scale(0.500,1)}84.4%,100%{transform:scale(1.000,1)}}.u.u3{fill:var(--c4);animation-name:u3;transform-origin:834.4px 0}.s{shape-rendering:geometricPrecision;fill:var(--cs);animation:none linear 30100ms infinite}@keyframes s0{0%,99.67%{transform:translate(0px,-16px)}0.33%{transform:translate(0px,0px)}2.99%{transform:translate(128px,0px)}3.32%{transform:translate(128px,16px)}3.99%{transform:translate(96px,16px)}5.65%{transform:translate(96px,96px)}7.97%{transform:translate(208px,96px)}8.64%{transform:translate(208px,64px)}10.96%{transform:translate(320px,64px)}11.3%{transform:translate(320px,48px)}15.61%{transform:translate(528px,48px)}15.95%{transform:translate(528px,64px)}16.28%{transform:translate(512px,64px)}16.94%{transform:translate(512px,96px)}17.61%{transform:translate(544px,96px)}17.94%{transform:translate(544px,80px)}20.93%,33.55%{transform:translate(688px,80px)}22.59%{transform:translate(688px,0px)}22.92%{transform:translate(704px,0px)}23.26%{transform:translate(704px,-16px)}23.92%{transform:translate(672px,-16px)}24.25%{transform:translate(672px,0px)}25.91%{transform:translate(592px,0px)}26.58%{transform:translate(592px,32px)}28.24%{transform:translate(672px,32px)}28.57%{transform:translate(672px,16px)}29.57%{transform:translate(624px,16px)}30.23%,38.21%{transform:translate(624px,48px)}31.23%{transform:translate(672px,48px)}31.56%{transform:translate(672px,64px)}31.89%{transform:translate(656px,64px)}32.56%{transform:translate(656px,96px)}33.22%{transform:translate(688px,96px)}34.55%{transform:translate(640px,80px)}34.88%{transform:translate(640px,96px)}36.21%{transform:translate(576px,96px)}36.88%,80.73%{transform:translate(576px,64px)}37.87%{transform:translate(624px,64px)}38.87%{transform:translate(592px,48px)}39.53%{transform:translate(592px,16px)}40.53%{transform:translate(544px,16px)}40.86%{transform:translate(544px,0px)}42.19%{transform:translate(608px,0px)}42.52%{transform:translate(608px,16px)}43.19%{transform:translate(640px,16px)}44.19%{transform:translate(640px,64px)}47.84%{transform:translate(816px,64px)}49.17%{transform:translate(816px,0px)}49.5%{transform:translate(832px,0px)}49.83%{transform:translate(832px,16px)}50.5%{transform:translate(800px,16px)}50.83%{transform:translate(800px,0px)}52.49%{transform:translate(720px,0px)}52.82%{transform:translate(720px,16px)}54.15%{transform:translate(784px,16px)}54.49%{transform:translate(784px,32px)}54.82%{transform:translate(800px,32px)}55.15%{transform:translate(800px,48px)}55.81%{transform:translate(768px,48px)}56.15%{transform:translate(768px,32px)}57.48%{transform:translate(704px,32px)}57.81%,83.72%{transform:translate(704px,48px)}58.8%{transform:translate(752px,48px)}59.47%{transform:translate(752px,80px)}60.8%{transform:translate(816px,80px)}61.13%{transform:translate(816px,96px)}62.79%{transform:translate(736px,96px)}63.12%{transform:translate(736px,80px)}63.79%{transform:translate(704px,80px)}64.12%{transform:translate(704px,96px)}64.45%{transform:translate(720px,96px)}65.78%{transform:translate(720px,32px)}68.77%{transform:translate(576px,32px)}69.44%{transform:translate(576px,0px)}74.42%{transform:translate(336px,0px)}75.75%{transform:translate(336px,64px)}81.06%{transform:translate(576px,48px)}84.39%{transform:translate(704px,16px)}97.67%{transform:translate(64px,16px)}98.34%{transform:translate(64px,-16px)}}.s.s0{transform:translate(0px,-16px);animation-name:s0}@keyframes s1{0%,99.67%{transform:translate(16px,-16px)}0.33%{transform:translate(0px,-16px)}0.66%{transform:translate(0px,0px)}3.32%{transform:translate(128px,0px)}3.65%{transform:translate(128px,16px)}4.32%{transform:translate(96px,16px)}5.98%{transform:translate(96px,96px)}8.31%{transform:translate(208px,96px)}8.97%{transform:translate(208px,64px)}11.3%{transform:translate(320px,64px)}11.63%{transform:translate(320px,48px)}15.95%{transform:translate(528px,48px)}16.28%{transform:translate(528px,64px)}16.61%{transform:translate(512px,64px)}17.28%{transform:translate(512px,96px)}17.94%{transform:translate(544px,96px)}18.27%{transform:translate(544px,80px)}21.26%,33.89%{transform:translate(688px,80px)}22.92%{transform:translate(688px,0px)}23.26%{transform:translate(704px,0px)}23.59%{transform:translate(704px,-16px)}24.25%{transform:translate(672px,-16px)}24.58%{transform:translate(672px,0px)}26.25%{transform:translate(592px,0px)}26.91%{transform:translate(592px,32px)}28.57%{transform:translate(672px,32px)}28.9%{transform:translate(672px,16px)}29.9%{transform:translate(624px,16px)}30.56%,38.54%{transform:translate(624px,48px)}31.56%{transform:translate(672px,48px)}31.89%{transform:translate(672px,64px)}32.23%{transform:translate(656px,64px)}32.89%{transform:translate(656px,96px)}33.55%{transform:translate(688px,96px)}34.88%{transform:translate(640px,80px)}35.22%{transform:translate(640px,96px)}36.54%{transform:translate(576px,96px)}37.21%,81.06%{transform:translate(576px,64px)}38.21%{transform:translate(624px,64px)}39.2%{transform:translate(592px,48px)}39.87%{transform:translate(592px,16px)}40.86%{transform:translate(544px,16px)}41.2%{transform:translate(544px,0px)}42.52%{transform:translate(608px,0px)}42.86%{transform:translate(608px,16px)}43.52%{transform:translate(640px,16px)}44.52%{transform:translate(640px,64px)}48.17%{transform:translate(816px,64px)}49.5%{transform:translate(816px,0px)}49.83%{transform:translate(832px,0px)}50.17%{transform:translate(832px,16px)}50.83%{transform:translate(800px,16px)}51.16%{transform:translate(800px,0px)}52.82%{transform:translate(720px,0px)}53.16%{transform:translate(720px,16px)}54.49%{transform:translate(784px,16px)}54.82%{transform:translate(784px,32px)}55.15%{transform:translate(800px,32px)}55.48%{transform:translate(800px,48px)}56.15%{transform:translate(768px,48px)}56.48%{transform:translate(768px,32px)}57.81%{transform:translate(704px,32px)}58.14%,84.05%{transform:translate(704px,48px)}59.14%{transform:translate(752px,48px)}59.8%{transform:translate(752px,80px)}61.13%{transform:translate(816px,80px)}61.46%{transform:translate(816px,96px)}63.12%{transform:translate(736px,96px)}63.46%{transform:translate(736px,80px)}64.12%{transform:translate(704px,80px)}64.45%{transform:translate(704px,96px)}64.78%{transform:translate(720px,96px)}66.11%{transform:translate(720px,32px)}69.1%{transform:translate(576px,32px)}69.77%{transform:translate(576px,0px)}74.75%{transform:translate(336px,0px)}76.08%{transform:translate(336px,64px)}81.4%{transform:translate(576px,48px)}84.72%{transform:translate(704px,16px)}98.01%{transform:translate(64px,16px)}98.67%{transform:translate(64px,-16px)}}.s.s1{transform:translate(16px,-16px);animation-name:s1}@keyframes s2{0%,99.67%{transform:translate(32px,-16px)}0.66%{transform:translate(0px,-16px)}1%{transform:translate(0px,0px)}3.65%{transform:translate(128px,0px)}3.99%{transform:translate(128px,16px)}4.65%{transform:translate(96px,16px)}6.31%{transform:translate(96px,96px)}8.64%{transform:translate(208px,96px)}9.3%{transform:translate(208px,64px)}11.63%{transform:translate(320px,64px)}11.96%{transform:translate(320px,48px)}16.28%{transform:translate(528px,48px)}16.61%{transform:translate(528px,64px)}16.94%{transform:translate(512px,64px)}17.61%{transform:translate(512px,96px)}18.27%{transform:translate(544px,96px)}18.6%{transform:translate(544px,80px)}21.59%,34.22%{transform:translate(688px,80px)}23.26%{transform:translate(688px,0px)}23.59%{transform:translate(704px,0px)}23.92%{transform:translate(704px,-16px)}24.58%{transform:translate(672px,-16px)}24.92%{transform:translate(672px,0px)}26.58%{transform:translate(592px,0px)}27.24%{transform:translate(592px,32px)}28.9%{transform:translate(672px,32px)}29.24%{transform:translate(672px,16px)}30.23%{transform:translate(624px,16px)}30.9%,38.87%{transform:translate(624px,48px)}31.89%{transform:translate(672px,48px)}32.23%{transform:translate(672px,64px)}32.56%{transform:translate(656px,64px)}33.22%{transform:translate(656px,96px)}33.89%{transform:translate(688px,96px)}35.22%{transform:translate(640px,80px)}35.55%{transform:translate(640px,96px)}36.88%{transform:translate(576px,96px)}37.54%,81.4%{transform:translate(576px,64px)}38.54%{transform:translate(624px,64px)}39.53%{transform:translate(592px,48px)}40.2%{transform:translate(592px,16px)}41.2%{transform:translate(544px,16px)}41.53%{transform:translate(544px,0px)}42.86%{transform:translate(608px,0px)}43.19%{transform:translate(608px,16px)}43.85%{transform:translate(640px,16px)}44.85%{transform:translate(640px,64px)}48.5%{transform:translate(816px,64px)}49.83%{transform:translate(816px,0px)}50.17%{transform:translate(832px,0px)}50.5%{transform:translate(832px,16px)}51.16%{transform:translate(800px,16px)}51.5%{transform:translate(800px,0px)}53.16%{transform:translate(720px,0px)}53.49%{transform:translate(720px,16px)}54.82%{transform:translate(784px,16px)}55.15%{transform:translate(784px,32px)}55.48%{transform:translate(800px,32px)}55.81%{transform:translate(800px,48px)}56.48%{transform:translate(768px,48px)}56.81%{transform:translate(768px,32px)}58.14%{transform:translate(704px,32px)}58.47%,84.39%{transform:translate(704px,48px)}59.47%{transform:translate(752px,48px)}60.13%{transform:translate(752px,80px)}61.46%{transform:translate(816px,80px)}61.79%{transform:translate(816px,96px)}63.46%{transform:translate(736px,96px)}63.79%{transform:translate(736px,80px)}64.45%{transform:translate(704px,80px)}64.78%{transform:translate(704px,96px)}65.12%{transform:translate(720px,96px)}66.45%{transform:translate(720px,32px)}69.44%{transform:translate(576px,32px)}70.1%{transform:translate(576px,0px)}75.08%{transform:translate(336px,0px)}76.41%{transform:translate(336px,64px)}81.73%{transform:translate(576px,48px)}85.05%{transform:translate(704px,16px)}98.34%{transform:translate(64px,16px)}99%{transform:translate(64px,-16px)}}.s.s2{transform:translate(32px,-16px);animation-name:s2}@keyframes s3{0%,99.67%{transform:translate(48px,-16px)}1%{transform:translate(0px,-16px)}1.33%{transform:translate(0px,0px)}3.99%{transform:translate(128px,0px)}4.32%{transform:translate(128px,16px)}4.98%{transform:translate(96px,16px)}6.64%{transform:translate(96px,96px)}8.97%{transform:translate(208px,96px)}9.63%{transform:translate(208px,64px)}11.96%{transform:translate(320px,64px)}12.29%{transform:translate(320px,48px)}16.61%{transform:translate(528px,48px)}16.94%{transform:translate(528px,64px)}17.28%{transform:translate(512px,64px)}17.94%{transform:translate(512px,96px)}18.6%{transform:translate(544px,96px)}18.94%{transform:translate(544px,80px)}21.93%,34.55%{transform:translate(688px,80px)}23.59%{transform:translate(688px,0px)}23.92%{transform:translate(704px,0px)}24.25%{transform:translate(704px,-16px)}24.92%{transform:translate(672px,-16px)}25.25%{transform:translate(672px,0px)}26.91%{transform:translate(592px,0px)}27.57%{transform:translate(592px,32px)}29.24%{transform:translate(672px,32px)}29.57%{transform:translate(672px,16px)}30.56%{transform:translate(624px,16px)}31.23%,39.2%{transform:translate(624px,48px)}32.23%{transform:translate(672px,48px)}32.56%{transform:translate(672px,64px)}32.89%{transform:translate(656px,64px)}33.55%{transform:translate(656px,96px)}34.22%{transform:translate(688px,96px)}35.55%{transform:translate(640px,80px)}35.88%{transform:translate(640px,96px)}37.21%{transform:translate(576px,96px)}37.87%,81.73%{transform:translate(576px,64px)}38.87%{transform:translate(624px,64px)}39.87%{transform:translate(592px,48px)}40.53%{transform:translate(592px,16px)}41.53%{transform:translate(544px,16px)}41.86%{transform:translate(544px,0px)}43.19%{transform:translate(608px,0px)}43.52%{transform:translate(608px,16px)}44.19%{transform:translate(640px,16px)}45.18%{transform:translate(640px,64px)}48.84%{transform:translate(816px,64px)}50.17%{transform:translate(816px,0px)}50.5%{transform:translate(832px,0px)}50.83%{transform:translate(832px,16px)}51.5%{transform:translate(800px,16px)}51.83%{transform:translate(800px,0px)}53.49%{transform:translate(720px,0px)}53.82%{transform:translate(720px,16px)}55.15%{transform:translate(784px,16px)}55.48%{transform:translate(784px,32px)}55.81%{transform:translate(800px,32px)}56.15%{transform:translate(800px,48px)}56.81%{transform:translate(768px,48px)}57.14%{transform:translate(768px,32px)}58.47%{transform:translate(704px,32px)}58.8%,84.72%{transform:translate(704px,48px)}59.8%{transform:translate(752px,48px)}60.47%{transform:translate(752px,80px)}61.79%{transform:translate(816px,80px)}62.13%{transform:translate(816px,96px)}63.79%{transform:translate(736px,96px)}64.12%{transform:translate(736px,80px)}64.78%{transform:translate(704px,80px)}65.12%{transform:translate(704px,96px)}65.45%{transform:translate(720px,96px)}66.78%{transform:translate(720px,32px)}69.77%{transform:translate(576px,32px)}70.43%{transform:translate(576px,0px)}75.42%{transform:translate(336px,0px)}76.74%{transform:translate(336px,64px)}82.06%{transform:translate(576px,48px)}85.38%{transform:translate(704px,16px)}98.67%{transform:translate(64px,16px)}99.34%{transform:translate(64px,-16px)}}.s.s3{transform:translate(48px,-16px);animation-name:s3}</style><rect class="c" x="2" y="2" rx="2" ry="2"/><rect class="c" x="2" y="18" rx="2" ry="2"/><rect class="c" x="2" y="34" rx="2" ry="2"/><rect class="c" x="2" y="50" rx="2" ry="2"/><rect class="c" x="2" y="66" rx="2" ry="2"/><rect class="c" x="2" y="82" rx="2" ry="2"/><rect class="c" x="2" y="98" rx="2" ry="2"/><rect class="c" x="18" y="2" rx="2" ry="2"/><rect class="c" x="18" y="18" rx="2" ry="2"/><rect class="c" x="18" y="34" rx="2" ry="2"/><rect class="c" x="18" y="50" rx="2" ry="2"/><rect class="c" x="18" y="66" rx="2" ry="2"/><rect class="c" x="18" y="82" rx="2" ry="2"/><rect class="c" x="18" y="98" rx="2" ry="2"/><rect class="c" x="34" y="2" rx="2" ry="2"/><rect class="c" x="34" y="18" rx="2" ry="2"/><rect class="c" x="34" y="34" rx="2" ry="2"/><rect class="c" x="34" y="50" rx="2" ry="2"/><rect class="c" x="34" y="66" rx="2" ry="2"/><rect class="c" x="34" y="82" rx="2" ry="2"/><rect class="c" x="34" y="98" rx="2" ry="2"/><rect class="c" x="50" y="2" rx="2" ry="2"/><rect class="c" x="50" y="18" rx="2" ry="2"/><rect class="c" x="50" y="34" rx="2" ry="2"/><rect class="c" x="50" y="50" rx="2" ry="2"/><rect class="c" x="50" y="66" rx="2" ry="2"/><rect class="c" x="50" y="82" rx="2" ry="2"/><rect class="c" x="50" y="98" rx="2" ry="2"/><rect class="c" x="66" y="2" rx="2" ry="2"/><rect class="c" x="66" y="18" rx="2" ry="2"/><rect class="c" x="66" y="34" rx="2" ry="2"/><rect class="c" x="66" y="50" rx="2" ry="2"/><rect class="c" x="66" y="66" rx="2" ry="2"/><rect class="c" x="66" y="82" rx="2" ry="2"/><rect class="c" x="66" y="98" rx="2" ry="2"/><rect class="c" x="82" y="2" rx="2" ry="2"/><rect class="c" x="82" y="18" rx="2" ry="2"/><rect class="c" x="82" y="34" rx="2" ry="2"/><rect class="c" x="82" y="50" rx="2" ry="2"/><rect class="c" x="82" y="66" rx="2" ry="2"/><rect class="c" x="82" y="82" rx="2" ry="2"/><rect class="c" x="82" y="98" rx="2" ry="2"/><rect class="c" x="98" y="2" rx="2" ry="2"/><rect class="c" x="98" y="18" rx="2" ry="2"/><rect class="c" x="98" y="34" rx="2" ry="2"/><rect class="c" x="98" y="50" rx="2" ry="2"/><rect class="c" x="98" y="66" rx="2" ry="2"/><rect class="c c0" x="98" y="82" rx="2" ry="2"/><rect class="c c1" x="98" y="98" rx="2" ry="2"/><rect class="c" x="114" y="2" rx="2" ry="2"/><rect class="c" x="114" y="18" rx="2" ry="2"/><rect class="c" x="114" y="34" rx="2" ry="2"/><rect class="c" x="114" y="50" rx="2" ry="2"/><rect class="c" x="114" y="66" rx="2" ry="2"/><rect class="c" x="114" y="82" rx="2" ry="2"/><rect class="c" x="114" y="98" rx="2" ry="2"/><rect class="c c2" x="130" y="2" rx="2" ry="2"/><rect class="c c3" x="130" y="18" rx="2" ry="2"/><rect class="c" x="130" y="34" rx="2" ry="2"/><rect class="c" x="130" y="50" rx="2" ry="2"/><rect class="c" x="130" y="66" rx="2" ry="2"/><rect class="c" x="130" y="82" rx="2" ry="2"/><rect class="c" x="130" y="98" rx="2" ry="2"/><rect class="c" x="146" y="2" rx="2" ry="2"/><rect class="c" x="146" y="18" rx="2" ry="2"/><rect class="c" x="146" y="34" rx="2" ry="2"/><rect class="c" x="146" y="50" rx="2" ry="2"/><rect class="c" x="146" y="66" rx="2" ry="2"/><rect class="c" x="146" y="82" rx="2" ry="2"/><rect class="c" x="146" y="98" rx="2" ry="2"/><rect class="c" x="162" y="2" rx="2" ry="2"/><rect class="c" x="162" y="18" rx="2" ry="2"/><rect class="c" x="162" y="34" rx="2" ry="2"/><rect class="c" x="162" y="50" rx="2" ry="2"/><rect class="c" x="162" y="66" rx="2" ry="2"/><rect class="c" x="162" y="82" rx="2" ry="2"/><rect class="c" x="162" y="98" rx="2" ry="2"/><rect class="c" x="178" y="2" rx="2" ry="2"/><rect class="c" x="178" y="18" rx="2" ry="2"/><rect class="c" x="178" y="34" rx="2" ry="2"/><rect class="c" x="178" y="50" rx="2" ry="2"/><rect class="c" x="178" y="66" rx="2" ry="2"/><rect class="c" x="178" y="82" rx="2" ry="2"/><rect class="c" x="178" y="98" rx="2" ry="2"/><rect class="c" x="194" y="2" rx="2" ry="2"/><rect class="c" x="194" y="18" rx="2" ry="2"/><rect class="c" x="194" y="34" rx="2" ry="2"/><rect class="c" x="194" y="50" rx="2" ry="2"/><rect class="c" x="194" y="66" rx="2" ry="2"/><rect class="c" x="194" y="82" rx="2" ry="2"/><rect class="c" x="194" y="98" rx="2" ry="2"/><rect class="c" x="210" y="2" rx="2" ry="2"/><rect class="c" x="210" y="18" rx="2" ry="2"/><rect class="c" x="210" y="34" rx="2" ry="2"/><rect class="c" x="210" y="50" rx="2" ry="2"/><rect class="c c4" x="210" y="66" rx="2" ry="2"/><rect class="c" x="210" y="82" rx="2" ry="2"/><rect class="c" x="210" y="98" rx="2" ry="2"/><rect class="c" x="226" y="2" rx="2" ry="2"/><rect class="c" x="226" y="18" rx="2" ry="2"/><rect class="c" x="226" y="34" rx="2" ry="2"/><rect class="c" x="226" y="50" rx="2" ry="2"/><rect class="c" x="226" y="66" rx="2" ry="2"/><rect class="c" x="226" y="82" rx="2" ry="2"/><rect class="c" x="226" y="98" rx="2" ry="2"/><rect class="c" x="242" y="2" rx="2" ry="2"/><rect class="c" x="242" y="18" rx="2" ry="2"/><rect class="c" x="242" y="34" rx="2" ry="2"/><rect class="c" x="242" y="50" rx="2" ry="2"/><rect class="c" x="242" y="66" rx="2" ry="2"/><rect class="c" x="242" y="82" rx="2" ry="2"/><rect class="c" x="242" y="98" rx="2" ry="2"/><rect class="c" x="258" y="2" rx="2" ry="2"/><rect class="c" x="258" y="18" rx="2" ry="2"/><rect class="c" x="258" y="34" rx="2" ry="2"/><rect class="c" x="258" y="50" rx="2" ry="2"/><rect class="c" x="258" y="66" rx="2" ry="2"/><rect class="c" x="258" y="82" rx="2" ry="2"/><rect class="c" x="258" y="98" rx="2" ry="2"/><rect class="c" x="274" y="2" rx="2" ry="2"/><rect class="c" x="274" y="18" rx="2" ry="2"/><rect class="c" x="274" y="34" rx="2" ry="2"/><rect class="c" x="274" y="50" rx="2" ry="2"/><rect class="c" x="274" y="66" rx="2" ry="2"/><rect class="c" x="274" y="82" rx="2" ry="2"/><rect class="c" x="274" y="98" rx="2" ry="2"/><rect class="c" x="290" y="2" rx="2" ry="2"/><rect class="c" x="290" y="18" rx="2" ry="2"/><rect class="c" x="290" y="34" rx="2" ry="2"/><rect class="c" x="290" y="50" rx="2" ry="2"/><rect class="c" x="290" y="66" rx="2" ry="2"/><rect class="c" x="290" y="82" rx="2" ry="2"/><rect class="c" x="290" y="98" rx="2" ry="2"/><rect class="c" x="306" y="2" rx="2" ry="2"/><rect class="c" x="306" y="18" rx="2" ry="2"/><rect class="c" x="306" y="34" rx="2" ry="2"/><rect class="c" x="306" y="50" rx="2" ry="2"/><rect class="c" x="306" y="66" rx="2" ry="2"/><rect class="c" x="306" y="82" rx="2" ry="2"/><rect class="c" x="306" y="98" rx="2" ry="2"/><rect class="c" x="322" y="2" rx="2" ry="2"/><rect class="c" x="322" y="18" rx="2" ry="2"/><rect class="c" x="322" y="34" rx="2" ry="2"/><rect class="c" x="322" y="50" rx="2" ry="2"/><rect class="c" x="322" y="66" rx="2" ry="2"/><rect class="c" x="322" y="82" rx="2" ry="2"/><rect class="c" x="322" y="98" rx="2" ry="2"/><rect class="c" x="338" y="2" rx="2" ry="2"/><rect class="c" x="338" y="18" rx="2" ry="2"/><rect class="c" x="338" y="34" rx="2" ry="2"/><rect class="c" x="338" y="50" rx="2" ry="2"/><rect class="c c5" x="338" y="66" rx="2" ry="2"/><rect class="c" x="338" y="82" rx="2" ry="2"/><rect class="c" x="338" y="98" rx="2" ry="2"/><rect class="c" x="354" y="2" rx="2" ry="2"/><rect class="c" x="354" y="18" rx="2" ry="2"/><rect class="c" x="354" y="34" rx="2" ry="2"/><rect class="c c6" x="354" y="50" rx="2" ry="2"/><rect class="c" x="354" y="66" rx="2" ry="2"/><rect class="c" x="354" y="82" rx="2" ry="2"/><rect class="c" x="354" y="98" rx="2" ry="2"/><rect class="c" x="370" y="2" rx="2" ry="2"/><rect class="c" x="370" y="18" rx="2" ry="2"/><rect class="c" x="370" y="34" rx="2" ry="2"/><rect class="c" x="370" y="50" rx="2" ry="2"/><rect class="c" x="370" y="66" rx="2" ry="2"/><rect class="c" x="370" y="82" rx="2" ry="2"/><rect class="c" x="370" y="98" rx="2" ry="2"/><rect class="c" x="386" y="2" rx="2" ry="2"/><rect class="c" x="386" y="18" rx="2" ry="2"/><rect class="c" x="386" y="34" rx="2" ry="2"/><rect class="c" x="386" y="50" rx="2" ry="2"/><rect class="c" x="386" y="66" rx="2" ry="2"/><rect class="c" x="386" y="82" rx="2" ry="2"/><rect class="c" x="386" y="98" rx="2" ry="2"/><rect class="c" x="402" y="2" rx="2" ry="2"/><rect class="c" x="402" y="18" rx="2" ry="2"/><rect class="c" x="402" y="34" rx="2" ry="2"/><rect class="c" x="402" y="50" rx="2" ry="2"/><rect class="c" x="402" y="66" rx="2" ry="2"/><rect class="c" x="402" y="82" rx="2" ry="2"/><rect class="c" x="402" y="98" rx="2" ry="2"/><rect class="c" x="418" y="2" rx="2" ry="2"/><rect class="c" x="418" y="18" rx="2" ry="2"/><rect class="c" x="418" y="34" rx="2" ry="2"/><rect class="c" x="418" y="50" rx="2" ry="2"/><rect class="c" x="418" y="66" rx="2" ry="2"/><rect class="c" x="418" y="82" rx="2" ry="2"/><rect class="c" x="418" y="98" rx="2" ry="2"/><rect class="c" x="434" y="2" rx="2" ry="2"/><rect class="c" x="434" y="18" rx="2" ry="2"/><rect class="c" x="434" y="34" rx="2" ry="2"/><rect class="c" x="434" y="50" rx="2" ry="2"/><rect class="c" x="434" y="66" rx="2" ry="2"/><rect class="c" x="434" y="82" rx="2" ry="2"/><rect class="c" x="434" y="98" rx="2" ry="2"/><rect class="c" x="450" y="2" rx="2" ry="2"/><rect class="c" x="450" y="18" rx="2" ry="2"/><rect class="c" x="450" y="34" rx="2" ry="2"/><rect class="c" x="450" y="50" rx="2" ry="2"/><rect class="c" x="450" y="66" rx="2" ry="2"/><rect class="c" x="450" y="82" rx="2" ry="2"/><rect class="c" x="450" y="98" rx="2" ry="2"/><rect class="c" x="466" y="2" rx="2" ry="2"/><rect class="c" x="466" y="18" rx="2" ry="2"/><rect class="c" x="466" y="34" rx="2" ry="2"/><rect class="c" x="466" y="50" rx="2" ry="2"/><rect class="c" x="466" y="66" rx="2" ry="2"/><rect class="c" x="466" y="82" rx="2" ry="2"/><rect class="c" x="466" y="98" rx="2" ry="2"/><rect class="c" x="482" y="2" rx="2" ry="2"/><rect class="c" x="482" y="18" rx="2" ry="2"/><rect class="c" x="482" y="34" rx="2" ry="2"/><rect class="c" x="482" y="50" rx="2" ry="2"/><rect class="c" x="482" y="66" rx="2" ry="2"/><rect class="c" x="482" y="82" rx="2" ry="2"/><rect class="c" x="482" y="98" rx="2" ry="2"/><rect class="c" x="498" y="2" rx="2" ry="2"/><rect class="c" x="498" y="18" rx="2" ry="2"/><rect class="c" x="498" y="34" rx="2" ry="2"/><rect class="c" x="498" y="50" rx="2" ry="2"/><rect class="c" x="498" y="66" rx="2" ry="2"/><rect class="c" x="498" y="82" rx="2" ry="2"/><rect class="c" x="498" y="98" rx="2" ry="2"/><rect class="c" x="514" y="2" rx="2" ry="2"/><rect class="c" x="514" y="18" rx="2" ry="2"/><rect class="c" x="514" y="34" rx="2" ry="2"/><rect class="c" x="514" y="50" rx="2" ry="2"/><rect class="c c7" x="514" y="66" rx="2" ry="2"/><rect class="c" x="514" y="82" rx="2" ry="2"/><rect class="c c8" x="514" y="98" rx="2" ry="2"/><rect class="c c9" x="530" y="2" rx="2" ry="2"/><rect class="c" x="530" y="18" rx="2" ry="2"/><rect class="c" x="530" y="34" rx="2" ry="2"/><rect class="c ca" x="530" y="50" rx="2" ry="2"/><rect class="c" x="530" y="66" rx="2" ry="2"/><rect class="c" x="530" y="82" rx="2" ry="2"/><rect class="c" x="530" y="98" rx="2" ry="2"/><rect class="c" x="546" y="2" rx="2" ry="2"/><rect class="c cb" x="546" y="18" rx="2" ry="2"/><rect class="c" x="546" y="34" rx="2" ry="2"/><rect class="c" x="546" y="50" rx="2" ry="2"/><rect class="c" x="546" y="66" rx="2" ry="2"/><rect class="c cc" x="546" y="82" rx="2" ry="2"/><rect class="c cd" x="546" y="98" rx="2" ry="2"/><rect class="c" x="562" y="2" rx="2" ry="2"/><rect class="c" x="562" y="18" rx="2" ry="2"/><rect class="c" x="562" y="34" rx="2" ry="2"/><rect class="c" x="562" y="50" rx="2" ry="2"/><rect class="c" x="562" y="66" rx="2" ry="2"/><rect class="c" x="562" y="82" rx="2" ry="2"/><rect class="c" x="562" y="98" rx="2" ry="2"/><rect class="c" x="578" y="2" rx="2" ry="2"/><rect class="c" x="578" y="18" rx="2" ry="2"/><rect class="c ce" x="578" y="34" rx="2" ry="2"/><rect class="c cf" x="578" y="50" rx="2" ry="2"/><rect class="c cg" x="578" y="66" rx="2" ry="2"/><rect class="c ch" x="578" y="82" rx="2" ry="2"/><rect class="c ci" x="578" y="98" rx="2" ry="2"/><rect class="c cj" x="594" y="2" rx="2" ry="2"/><rect class="c ck" x="594" y="18" rx="2" ry="2"/><rect class="c cl" x="594" y="34" rx="2" ry="2"/><rect class="c cm" x="594" y="50" rx="2" ry="2"/><rect class="c cn" x="594" y="66" rx="2" ry="2"/><rect class="c co" x="594" y="82" rx="2" ry="2"/><rect class="c cp" x="594" y="98" rx="2" ry="2"/><rect class="c cq" x="610" y="2" rx="2" ry="2"/><rect class="c cr" x="610" y="18" rx="2" ry="2"/><rect class="c cs" x="610" y="34" rx="2" ry="2"/><rect class="c ct" x="610" y="50" rx="2" ry="2"/><rect class="c cu" x="610" y="66" rx="2" ry="2"/><rect class="c cv" x="610" y="82" rx="2" ry="2"/><rect class="c cw" x="610" y="98" rx="2" ry="2"/><rect class="c cx" x="626" y="2" rx="2" ry="2"/><rect class="c cy" x="626" y="18" rx="2" ry="2"/><rect class="c cz" x="626" y="34" rx="2" ry="2"/><rect class="c c10" x="626" y="50" rx="2" ry="2"/><rect class="c c11" x="626" y="66" rx="2" ry="2"/><rect class="c c12" x="626" y="82" rx="2" ry="2"/><rect class="c c13" x="626" y="98" rx="2" ry="2"/><rect class="c c14" x="642" y="2" rx="2" ry="2"/><rect class="c c15" x="642" y="18" rx="2" ry="2"/><rect class="c c16" x="642" y="34" rx="2" ry="2"/><rect class="c c17" x="642" y="50" rx="2" ry="2"/><rect class="c c18" x="642" y="66" rx="2" ry="2"/><rect class="c c19" x="642" y="82" rx="2" ry="2"/><rect class="c c1a" x="642" y="98" rx="2" ry="2"/><rect class="c c1b" x="658" y="2" rx="2" ry="2"/><rect class="c c1c" x="658" y="18" rx="2" ry="2"/><rect class="c c1d" x="658" y="34" rx="2" ry="2"/><rect class="c c1e" x="658" y="50" rx="2" ry="2"/><rect class="c c1f" x="658" y="66" rx="2" ry="2"/><rect class="c c1g" x="658" y="82" rx="2" ry="2"/><rect class="c c1h" x="658" y="98" rx="2" ry="2"/><rect class="c c1i" x="674" y="2" rx="2" ry="2"/><rect class="c c1j" x="674" y="18" rx="2" ry="2"/><rect class="c c1k" x="674" y="34" rx="2" ry="2"/><rect class="c c1l" x="674" y="50" rx="2" ry="2"/><rect class="c c1m" x="674" y="66" rx="2" ry="2"/><rect class="c c1n" x="674" y="82" rx="2" ry="2"/><rect class="c c1o" x="674" y="98" rx="2" ry="2"/><rect class="c c1p" x="690" y="2" rx="2" ry="2"/><rect class="c c1q" x="690" y="18" rx="2" ry="2"/><rect class="c c1r" x="690" y="34" rx="2" ry="2"/><rect class="c c1s" x="690" y="50" rx="2" ry="2"/><rect class="c c1t" x="690" y="66" rx="2" ry="2"/><rect class="c c1u" x="690" y="82" rx="2" ry="2"/><rect class="c c1v" x="690" y="98" rx="2" ry="2"/><rect class="c c1w" x="706" y="2" rx="2" ry="2"/><rect class="c c1x" x="706" y="18" rx="2" ry="2"/><rect class="c c1y" x="706" y="34" rx="2" ry="2"/><rect class="c c1z" x="706" y="50" rx="2" ry="2"/><rect class="c c20" x="706" y="66" rx="2" ry="2"/><rect class="c c21" x="706" y="82" rx="2" ry="2"/><rect class="c c22" x="706" y="98" rx="2" ry="2"/><rect class="c c23" x="722" y="2" rx="2" ry="2"/><rect class="c c24" x="722" y="18" rx="2" ry="2"/><rect class="c c25" x="722" y="34" rx="2" ry="2"/><rect class="c c26" x="722" y="50" rx="2" ry="2"/><rect class="c c27" x="722" y="66" rx="2" ry="2"/><rect class="c c28" x="722" y="82" rx="2" ry="2"/><rect class="c c29" x="722" y="98" rx="2" ry="2"/><rect class="c c2a" x="738" y="2" rx="2" ry="2"/><rect class="c c2b" x="738" y="18" rx="2" ry="2"/><rect class="c c2c" x="738" y="34" rx="2" ry="2"/><rect class="c c2d" x="738" y="50" rx="2" ry="2"/><rect class="c c2e" x="738" y="66" rx="2" ry="2"/><rect class="c c2f" x="738" y="82" rx="2" ry="2"/><rect class="c c2g" x="738" y="98" rx="2" ry="2"/><rect class="c c2h" x="754" y="2" rx="2" ry="2"/><rect class="c c2i" x="754" y="18" rx="2" ry="2"/><rect class="c c2j" x="754" y="34" rx="2" ry="2"/><rect class="c c2k" x="754" y="50" rx="2" ry="2"/><rect class="c c2l" x="754" y="66" rx="2" ry="2"/><rect class="c c2m" x="754" y="82" rx="2" ry="2"/><rect class="c c2n" x="754" y="98" rx="2" ry="2"/><rect class="c c2o" x="770" y="2" rx="2" ry="2"/><rect class="c c2p" x="770" y="18" rx="2" ry="2"/><rect class="c c2q" x="770" y="34" rx="2" ry="2"/><rect class="c c2r" x="770" y="50" rx="2" ry="2"/><rect class="c c2s" x="770" y="66" rx="2" ry="2"/><rect class="c c2t" x="770" y="82" rx="2" ry="2"/><rect class="c c2u" x="770" y="98" rx="2" ry="2"/><rect class="c c2v" x="786" y="2" rx="2" ry="2"/><rect class="c c2w" x="786" y="18" rx="2" ry="2"/><rect class="c c2x" x="786" y="34" rx="2" ry="2"/><rect class="c c2y" x="786" y="50" rx="2" ry="2"/><rect class="c c2z" x="786" y="66" rx="2" ry="2"/><rect class="c c30" x="786" y="82" rx="2" ry="2"/><rect class="c c31" x="786" y="98" rx="2" ry="2"/><rect class="c c32" x="802" y="2" rx="2" ry="2"/><rect class="c c33" x="802" y="18" rx="2" ry="2"/><rect class="c c34" x="802" y="34" rx="2" ry="2"/><rect class="c c35" x="802" y="50" rx="2" ry="2"/><rect class="c c36" x="802" y="66" rx="2" ry="2"/><rect class="c c37" x="802" y="82" rx="2" ry="2"/><rect class="c c38" x="802" y="98" rx="2" ry="2"/><rect class="c c39" x="818" y="2" rx="2" ry="2"/><rect class="c c3a" x="818" y="18" rx="2" ry="2"/><rect class="c c3b" x="818" y="34" rx="2" ry="2"/><rect class="c c3c" x="818" y="50" rx="2" ry="2"/><rect class="c c3d" x="818" y="66" rx="2" ry="2"/><rect class="c c3e" x="818" y="82" rx="2" ry="2"/><rect class="c c3f" x="818" y="98" rx="2" ry="2"/><rect class="c c3g" x="834" y="2" rx="2" ry="2"/><rect class="u u0" height="12" width="428.0" x="0.0" y="144"/><rect class="u u1" height="12" width="14.2" x="427.4" y="144"/><rect class="u u2" height="12" width="394.1" x="441.0" y="144"/><rect class="u u3" height="12" width="14.2" x="834.4" y="144"/><rect class="s s0" x="0.8" y="0.8" width="14.4" height="14.4" rx="4.5" ry="4.5"/><rect class="s s1" x="1.8" y="1.8" width="12.3" height="12.3" rx="4.1" ry="4.1"/><rect class="s s2" x="2.6" y="2.6" width="10.8" height="10.8" rx="3.6" ry="3.6"/><rect class="s s3" x="3.0" y="3.0" width="9.9" height="9.9" rx="3.3" ry="3.3"/></svg>