<svg viewBox="-16 -32 880 192" width="880" height="192" xmlns="http://www.w3.org/2000/svg"><desc>Generated with https://github.com/Platane/snk</desc><style>:root{--cb:#1b1f230a;--cs:purple;--ce:#ebedf0;--c0:#ebedf0;--c1:#9be9a8;--c2:#40c463;--c3:#30a14e;--c4:#216e39}.c{shape-rendering:geometricPrecision;fill:var(--ce);stroke-width:1px;stroke:var(--cb);animation:none 31300ms linear infinite;width:12px;height:12px}@keyframes c0{6.38%{fill:var(--c1)}6.4%,100%{fill:var(--ce)}}.c.c0{fill:var(--c1);animation-name:c0}@keyframes c1{52.71%{fill:var(--c2)}52.73%,100%{fill:var(--ce)}}.c.c1{fill:var(--c2);animation-name:c1}@keyframes c2{4.14%{fill:var(--c1)}4.16%,100%{fill:var(--ce)}}.c.c2{fill:var(--c1);animation-name:c2}@keyframes c3{4.46%{fill:var(--c1)}4.48%,100%{fill:var(--ce)}}.c.c3{fill:var(--c1);animation-name:c3}@keyframes c4{49.83%{fill:var(--c2)}49.85%,100%{fill:var(--ce)}}.c.c4{fill:var(--c2);animation-name:c4}@keyframes c5{90.09%{fill:var(--c4)}90.11%,100%{fill:var(--ce)}}.c.c5{fill:var(--c4);animation-name:c5}@keyframes c6{12.13%{fill:var(--c1)}12.15%,100%{fill:var(--ce)}}.c.c6{fill:var(--c1);animation-name:c6}@keyframes c7{16.28%{fill:var(--c1)}16.3%,100%{fill:var(--ce)}}.c.c7{fill:var(--c1);animation-name:c7}@keyframes c8{43.12%{fill:var(--c2)}43.14%,100%{fill:var(--ce)}}.c.c8{fill:var(--c2);animation-name:c8}@keyframes c9{84.97%{fill:var(--c4)}84.99%,100%{fill:var(--ce)}}.c.c9{fill:var(--c4);animation-name:c9}@keyframes ca{15.64%{fill:var(--c1)}15.66%,100%{fill:var(--ce)}}.c.ca{fill:var(--c1);animation-name:ca}@keyframes cb{19.8%{fill:var(--c1)}19.82%,100%{fill:var(--ce)}}.c.cb{fill:var(--c1);animation-name:cb}@keyframes cc{17.24%{fill:var(--c1)}17.26%,100%{fill:var(--ce)}}.c.cc{fill:var(--c1);animation-name:cc}@keyframes cd{17.56%{fill:var(--c1)}17.58%,100%{fill:var(--ce)}}.c.cd{fill:var(--c1);animation-name:cd}@keyframes ce{82.74%{fill:var(--c4)}82.76%,100%{fill:var(--ce)}}.c.ce{fill:var(--c4);animation-name:ce}@keyframes cf{83.06%{fill:var(--c4)}83.08%,100%{fill:var(--ce)}}.c.cf{fill:var(--c4);animation-name:cf}@keyframes cg{40.57%{fill:var(--c2)}40.59%,100%{fill:var(--ce)}}.c.cg{fill:var(--c2);animation-name:cg}@keyframes ch{40.25%{fill:var(--c2)}40.27%,100%{fill:var(--ce)}}.c.ch{fill:var(--c2);animation-name:ch}@keyframes ci{41.84%{fill:var(--c2)}41.86%,100%{fill:var(--ce)}}.c.ci{fill:var(--c2);animation-name:ci}@keyframes cj{21.08%{fill:var(--c2)}21.1%,100%{fill:var(--ce)}}.c.cj{fill:var(--c2);animation-name:cj}@keyframes ck{30.34%{fill:var(--c2)}30.36%,100%{fill:var(--ce)}}.c.ck{fill:var(--c2);animation-name:ck}@keyframes cl{30.02%{fill:var(--c2)}30.04%,100%{fill:var(--ce)}}.c.cl{fill:var(--c2);animation-name:cl}@keyframes cm{32.26%{fill:var(--c2)}32.28%,100%{fill:var(--ce)}}.c.cm{fill:var(--c2);animation-name:cm}@keyframes cn{32.58%{fill:var(--c2)}32.6%,100%{fill:var(--ce)}}.c.cn{fill:var(--c2);animation-name:cn}@keyframes co{39.93%{fill:var(--c2)}39.95%,100%{fill:var(--ce)}}.c.co{fill:var(--c2);animation-name:co}@keyframes cp{41.52%{fill:var(--c2)}41.54%,100%{fill:var(--ce)}}.c.cp{fill:var(--c2);animation-name:cp}@keyframes cq{21.4%{fill:var(--c2)}21.42%,100%{fill:var(--ce)}}.c.cq{fill:var(--c2);animation-name:cq}@keyframes cr{81.78%{fill:var(--c4)}81.8%,100%{fill:var(--ce)}}.c.cr{fill:var(--c4);animation-name:cr}@keyframes cs{29.7%{fill:var(--c2)}29.72%,100%{fill:var(--ce)}}.c.cs{fill:var(--c2);animation-name:cs}@keyframes ct{29.38%{fill:var(--c2)}29.4%,100%{fill:var(--ce)}}.c.ct{fill:var(--c2);animation-name:ct}@keyframes cu{32.9%{fill:var(--c2)}32.92%,100%{fill:var(--ce)}}.c.cu{fill:var(--c2);animation-name:cu}@keyframes cv{39.61%{fill:var(--c2)}39.63%,100%{fill:var(--ce)}}.c.cv{fill:var(--c2);animation-name:cv}@keyframes cw{39.29%{fill:var(--c2)}39.31%,100%{fill:var(--ce)}}.c.cw{fill:var(--c2);animation-name:cw}@keyframes cx{21.72%{fill:var(--c2)}21.74%,100%{fill:var(--ce)}}.c.cx{fill:var(--c2);animation-name:cx}@keyframes cy{25.87%{fill:var(--c2)}25.89%,100%{fill:var(--ce)}}.c.cy{fill:var(--c2);animation-name:cy}@keyframes cz{26.19%{fill:var(--c2)}26.21%,100%{fill:var(--ce)}}.c.cz{fill:var(--c2);animation-name:cz}@keyframes c10{29.06%{fill:var(--c2)}29.08%,100%{fill:var(--ce)}}.c.c10{fill:var(--c2);animation-name:c10}@keyframes c11{33.22%{fill:var(--c2)}33.24%,100%{fill:var(--ce)}}.c.c11{fill:var(--c2);animation-name:c11}@keyframes c12{33.54%{fill:var(--c2)}33.56%,100%{fill:var(--ce)}}.c.c12{fill:var(--c2);animation-name:c12}@keyframes c13{38.97%{fill:var(--c2)}38.99%,100%{fill:var(--ce)}}.c.c13{fill:var(--c2);animation-name:c13}@keyframes c14{22.03%{fill:var(--c2)}22.05%,100%{fill:var(--ce)}}.c.c14{fill:var(--c2);animation-name:c14}@keyframes c15{25.55%{fill:var(--c2)}25.57%,100%{fill:var(--ce)}}.c.c15{fill:var(--c2);animation-name:c15}@keyframes c16{26.51%{fill:var(--c2)}26.53%,100%{fill:var(--ce)}}.c.c16{fill:var(--c2);animation-name:c16}@keyframes c17{28.74%{fill:var(--c2)}28.76%,100%{fill:var(--ce)}}.c.c17{fill:var(--c2);animation-name:c17}@keyframes c18{80.18%{fill:var(--c4)}80.2%,100%{fill:var(--ce)}}.c.c18{fill:var(--c4);animation-name:c18}@keyframes c19{33.86%{fill:var(--c2)}33.88%,100%{fill:var(--ce)}}.c.c19{fill:var(--c2);animation-name:c19}@keyframes c1a{38.65%{fill:var(--c2)}38.67%,100%{fill:var(--ce)}}.c.c1a{fill:var(--c2);animation-name:c1a}@keyframes c1b{22.35%{fill:var(--c2)}22.37%,100%{fill:var(--ce)}}.c.c1b{fill:var(--c2);animation-name:c1b}@keyframes c1c{25.23%{fill:var(--c2)}25.25%,100%{fill:var(--ce)}}.c.c1c{fill:var(--c2);animation-name:c1c}@keyframes c1d{26.83%{fill:var(--c2)}26.85%,100%{fill:var(--ce)}}.c.c1d{fill:var(--c2);animation-name:c1d}@keyframes c1e{28.42%{fill:var(--c2)}28.44%,100%{fill:var(--ce)}}.c.c1e{fill:var(--c2);animation-name:c1e}@keyframes c1f{35.77%{fill:var(--c2)}35.79%,100%{fill:var(--ce)}}.c.c1f{fill:var(--c2);animation-name:c1f}@keyframes c1g{34.18%{fill:var(--c2)}34.2%,100%{fill:var(--ce)}}.c.c1g{fill:var(--c2);animation-name:c1g}@keyframes c1h{36.41%{fill:var(--c2)}36.43%,100%{fill:var(--ce)}}.c.c1h{fill:var(--c2);animation-name:c1h}@keyframes c1i{22.67%{fill:var(--c2)}22.69%,100%{fill:var(--ce)}}.c.c1i{fill:var(--c2);animation-name:c1i}@keyframes c1j{24.91%{fill:var(--c2)}24.93%,100%{fill:var(--ce)}}.c.c1j{fill:var(--c2);animation-name:c1j}@keyframes c1k{27.15%{fill:var(--c2)}27.17%,100%{fill:var(--ce)}}.c.c1k{fill:var(--c2);animation-name:c1k}@keyframes c1l{28.11%{fill:var(--c2)}28.13%,100%{fill:var(--ce)}}.c.c1l{fill:var(--c2);animation-name:c1l}@keyframes c1m{35.45%{fill:var(--c2)}35.47%,100%{fill:var(--ce)}}.c.c1m{fill:var(--c2);animation-name:c1m}@keyframes c1n{34.49%{fill:var(--c2)}34.51%,100%{fill:var(--ce)}}.c.c1n{fill:var(--c2);animation-name:c1n}@keyframes c1o{36.73%{fill:var(--c2)}36.75%,100%{fill:var(--ce)}}.c.c1o{fill:var(--c2);animation-name:c1o}@keyframes c1p{22.99%{fill:var(--c2)}23.01%,100%{fill:var(--ce)}}.c.c1p{fill:var(--c2);animation-name:c1p}@keyframes c1q{24.59%{fill:var(--c2)}24.61%,100%{fill:var(--ce)}}.c.c1q{fill:var(--c2);animation-name:c1q}@keyframes c1r{27.47%{fill:var(--c2)}27.49%,100%{fill:var(--ce)}}.c.c1r{fill:var(--c2);animation-name:c1r}@keyframes c1s{27.79%{fill:var(--c2)}27.81%,100%{fill:var(--ce)}}.c.c1s{fill:var(--c2);animation-name:c1s}@keyframes c1t{35.13%{fill:var(--c2)}35.15%,100%{fill:var(--ce)}}.c.c1t{fill:var(--c2);animation-name:c1t}@keyframes c1u{34.81%{fill:var(--c2)}34.83%,100%{fill:var(--ce)}}.c.c1u{fill:var(--c2);animation-name:c1u}@keyframes c1v{37.05%{fill:var(--c2)}37.07%,100%{fill:var(--ce)}}.c.c1v{fill:var(--c2);animation-name:c1v}@keyframes c1w{23.31%{fill:var(--c2)}23.33%,100%{fill:var(--ce)}}.c.c1w{fill:var(--c2);animation-name:c1w}@keyframes c1x{72.19%{fill:var(--c4)}72.21%,100%{fill:var(--ce)}}.c.c1x{fill:var(--c4);animation-name:c1x}@keyframes c1y{71.87%{fill:var(--c4)}71.89%,100%{fill:var(--ce)}}.c.c1y{fill:var(--c4);animation-name:c1y}@keyframes c1z{75.39%{fill:var(--c4)}75.41%,100%{fill:var(--ce)}}.c.c1z{fill:var(--c4);animation-name:c1z}@keyframes c20{75.07%{fill:var(--c4)}75.09%,100%{fill:var(--ce)}}.c.c20{fill:var(--c4);animation-name:c20}@keyframes c21{78.58%{fill:var(--c4)}78.6%,100%{fill:var(--ce)}}.c.c21{fill:var(--c4);animation-name:c21}@keyframes c22{78.26%{fill:var(--c4)}78.28%,100%{fill:var(--ce)}}.c.c22{fill:var(--c4);animation-name:c22}@keyframes c23{69.64%{fill:var(--c4)}69.66%,100%{fill:var(--ce)}}.c.c23{fill:var(--c4);animation-name:c23}@keyframes c24{69.96%{fill:var(--c4)}69.98%,100%{fill:var(--ce)}}.c.c24{fill:var(--c4);animation-name:c24}@keyframes c25{71.56%{fill:var(--c4)}71.58%,100%{fill:var(--ce)}}.c.c25{fill:var(--c4);animation-name:c25}@keyframes c26{73.15%{fill:var(--c4)}73.17%,100%{fill:var(--ce)}}.c.c26{fill:var(--c4);animation-name:c26}@keyframes c27{74.75%{fill:var(--c4)}74.77%,100%{fill:var(--ce)}}.c.c27{fill:var(--c4);animation-name:c27}@keyframes c28{76.35%{fill:var(--c4)}76.37%,100%{fill:var(--ce)}}.c.c28{fill:var(--c4);animation-name:c28}@keyframes c29{77.95%{fill:var(--c4)}77.97%,100%{fill:var(--ce)}}.c.c29{fill:var(--c4);animation-name:c29}@keyframes c2a{69.32%{fill:var(--c4)}69.34%,100%{fill:var(--ce)}}.c.c2a{fill:var(--c4);animation-name:c2a}@keyframes c2b{70.28%{fill:var(--c4)}70.3%,100%{fill:var(--ce)}}.c.c2b{fill:var(--c4);animation-name:c2b}@keyframes c2c{71.24%{fill:var(--c4)}71.26%,100%{fill:var(--ce)}}.c.c2c{fill:var(--c4);animation-name:c2c}@keyframes c2d{73.47%{fill:var(--c4)}73.49%,100%{fill:var(--ce)}}.c.c2d{fill:var(--c4);animation-name:c2d}@keyframes c2e{74.43%{fill:var(--c4)}74.45%,100%{fill:var(--ce)}}.c.c2e{fill:var(--c4);animation-name:c2e}@keyframes c2f{76.67%{fill:var(--c4)}76.69%,100%{fill:var(--ce)}}.c.c2f{fill:var(--c4);animation-name:c2f}@keyframes c2g{77.63%{fill:var(--c4)}77.65%,100%{fill:var(--ce)}}.c.c2g{fill:var(--c4);animation-name:c2g}@keyframes c2h{69%{fill:var(--c4)}69.02%,100%{fill:var(--ce)}}.c.c2h{fill:var(--c4);animation-name:c2h}@keyframes c2i{70.6%{fill:var(--c4)}70.62%,100%{fill:var(--ce)}}.c.c2i{fill:var(--c4);animation-name:c2i}@keyframes c2j{70.92%{fill:var(--c4)}70.94%,100%{fill:var(--ce)}}.c.c2j{fill:var(--c4);animation-name:c2j}@keyframes c2k{73.79%{fill:var(--c4)}73.81%,100%{fill:var(--ce)}}.c.c2k{fill:var(--c4);animation-name:c2k}@keyframes c2l{74.11%{fill:var(--c4)}74.13%,100%{fill:var(--ce)}}.c.c2l{fill:var(--c4);animation-name:c2l}@keyframes c2m{76.99%{fill:var(--c4)}77.01%,100%{fill:var(--ce)}}.c.c2m{fill:var(--c4);animation-name:c2m}@keyframes c2n{77.31%{fill:var(--c4)}77.33%,100%{fill:var(--ce)}}.c.c2n{fill:var(--c4);animation-name:c2n}@keyframes c2o{68.68%{fill:var(--c2)}68.7%,100%{fill:var(--ce)}}.c.c2o{fill:var(--c2);animation-name:c2o}.u{transform-origin:0 0;transform:scale(0,1);animation:none linear 31300ms infinite}@keyframes u0{4.14%{transform:scale(0.000,1)}4.16%,4.46%{transform:scale(0.111,1)}4.48%,6.38%{transform:scale(0.222,1)}6.4%,12.13%{transform:scale(0.333,1)}12.15%,15.64%{transform:scale(0.444,1)}15.66%,16.28%{transform:scale(0.556,1)}16.3%,17.24%{transform:scale(0.667,1)}17.26%,17.56%{transform:scale(0.778,1)}17.58%,19.8%{transform:scale(0.889,1)}19.82%,100%{transform:scale(1.000,1)}}.u.u0{fill:var(--c1);animation-name:u0;transform-origin:0.0px 0}@keyframes u1{21.08%{transform:scale(0.000,1)}21.1%,21.4%{transform:scale(0.018,1)}21.42%,21.72%{transform:scale(0.036,1)}21.74%,22.03%{transform:scale(0.055,1)}22.05%,22.35%{transform:scale(0.073,1)}22.37%,22.67%{transform:scale(0.091,1)}22.69%,22.99%{transform:scale(0.109,1)}23.01%,23.31%{transform:scale(0.127,1)}23.33%,24.59%{transform:scale(0.145,1)}24.61%,24.91%{transform:scale(0.164,1)}24.93%,25.23%{transform:scale(0.182,1)}25.25%,25.55%{transform:scale(0.200,1)}25.57%,25.87%{transform:scale(0.218,1)}25.89%,26.19%{transform:scale(0.236,1)}26.21%,26.51%{transform:scale(0.255,1)}26.53%,26.83%{transform:scale(0.273,1)}26.85%,27.15%{transform:scale(0.291,1)}27.17%,27.47%{transform:scale(0.309,1)}27.49%,27.79%{transform:scale(0.327,1)}27.81%,28.11%{transform:scale(0.345,1)}28.13%,28.42%{transform:scale(0.364,1)}28.44%,28.74%{transform:scale(0.382,1)}28.76%,29.06%{transform:scale(0.400,1)}29.08%,29.38%{transform:scale(0.418,1)}29.4%,29.7%{transform:scale(0.436,1)}29.72%,30.02%{transform:scale(0.455,1)}30.04%,30.34%{transform:scale(0.473,1)}30.36%,32.26%{transform:scale(0.491,1)}32.28%,32.58%{transform:scale(0.509,1)}32.6%,32.9%{transform:scale(0.527,1)}32.92%,33.22%{transform:scale(0.545,1)}33.24%,33.54%{transform:scale(0.564,1)}33.56%,33.86%{transform:scale(0.582,1)}33.88%,34.18%{transform:scale(0.600,1)}34.2%,34.49%{transform:scale(0.618,1)}34.51%,34.81%{transform:scale(0.636,1)}34.83%,35.13%{transform:scale(0.655,1)}35.15%,35.45%{transform:scale(0.673,1)}35.47%,35.77%{transform:scale(0.691,1)}35.79%,36.41%{transform:scale(0.709,1)}36.43%,36.73%{transform:scale(0.727,1)}36.75%,37.05%{transform:scale(0.745,1)}37.07%,38.65%{transform:scale(0.764,1)}38.67%,38.97%{transform:scale(0.782,1)}38.99%,39.29%{transform:scale(0.800,1)}39.31%,39.61%{transform:scale(0.818,1)}39.63%,39.93%{transform:scale(0.836,1)}39.95%,40.25%{transform:scale(0.855,1)}40.27%,40.57%{transform:scale(0.873,1)}40.59%,41.52%{transform:scale(0.891,1)}41.54%,41.84%{transform:scale(0.909,1)}41.86%,43.12%{transform:scale(0.927,1)}43.14%,49.83%{transform:scale(0.945,1)}49.85%,52.71%{transform:scale(0.964,1)}52.73%,68.68%{transform:scale(0.982,1)}68.7%,100%{transform:scale(1.000,1)}}.u.u1{fill:var(--c2);animation-name:u1;transform-origin:78.7px 0}@keyframes u2{69%{transform:scale(0.000,1)}69.02%,69.32%{transform:scale(0.030,1)}69.34%,69.64%{transform:scale(0.061,1)}69.66%,69.96%{transform:scale(0.091,1)}69.98%,70.28%{transform:scale(0.121,1)}70.3%,70.6%{transform:scale(0.152,1)}70.62%,70.92%{transform:scale(0.182,1)}70.94%,71.24%{transform:scale(0.212,1)}71.26%,71.56%{transform:scale(0.242,1)}71.58%,71.87%{transform:scale(0.273,1)}71.89%,72.19%{transform:scale(0.303,1)}72.21%,73.15%{transform:scale(0.333,1)}73.17%,73.47%{transform:scale(0.364,1)}73.49%,73.79%{transform:scale(0.394,1)}73.81%,74.11%{transform:scale(0.424,1)}74.13%,74.43%{transform:scale(0.455,1)}74.45%,74.75%{transform:scale(0.485,1)}74.77%,75.07%{transform:scale(0.515,1)}75.09%,75.39%{transform:scale(0.545,1)}75.41%,76.35%{transform:scale(0.576,1)}76.37%,76.67%{transform:scale(0.606,1)}76.69%,76.99%{transform:scale(0.636,1)}77.01%,77.31%{transform:scale(0.667,1)}77.33%,77.63%{transform:scale(0.697,1)}77.65%,77.95%{transform:scale(0.727,1)}77.97%,78.26%{transform:scale(0.758,1)}78.28%,78.58%{transform:scale(0.788,1)}78.6%,80.18%{transform:scale(0.818,1)}80.2%,81.78%{transform:scale(0.848,1)}81.8%,82.74%{transform:scale(0.879,1)}82.76%,83.06%{transform:scale(0.909,1)}83.08%,84.97%{transform:scale(0.939,1)}84.99%,90.09%{transform:scale(0.970,1)}90.11%,100%{transform:scale(1.000,1)}}.u.u2{fill:var(--c4);animation-name:u2;transform-origin:559.5px 0}.s{shape-rendering:geometricPrecision;fill:var(--cs);animation:none linear 31300ms infinite}@keyframes s0{0%,99.68%{transform:translate(0px,-16px)}0.32%{transform:translate(0px,0px)}4.15%{transform:translate(192px,0px)}4.47%,95.21%{transform:translate(192px,16px)}5.11%{transform:translate(160px,16px)}6.39%{transform:translate(160px,80px)}11.5%{transform:translate(416px,80px)}12.14%{transform:translate(416px,48px)}15.65%{transform:translate(592px,48px)}15.97%{transform:translate(592px,64px)}16.29%{transform:translate(576px,64px)}16.61%,43.45%{transform:translate(576px,80px)}17.25%{transform:translate(608px,80px)}17.57%{transform:translate(608px,96px)}17.89%{transform:translate(624px,96px)}19.49%{transform:translate(624px,16px)}19.81%{transform:translate(608px,16px)}20.13%{transform:translate(608px,0px)}23.32%,66.77%{transform:translate(768px,0px)}23.64%,67.09%{transform:translate(768px,-16px)}23.96%{transform:translate(752px,-16px)}24.6%{transform:translate(752px,16px)}25.88%{transform:translate(688px,16px)}26.2%{transform:translate(688px,32px)}27.48%{transform:translate(752px,32px)}27.8%{transform:translate(752px,48px)}29.39%{transform:translate(672px,48px)}29.71%{transform:translate(672px,32px)}30.03%{transform:translate(656px,32px)}30.67%{transform:translate(656px,0px)}30.99%{transform:translate(640px,0px)}31.31%,82.43%{transform:translate(640px,16px)}31.63%{transform:translate(656px,16px)}32.59%,40.89%{transform:translate(656px,64px)}33.23%{transform:translate(688px,64px)}33.55%{transform:translate(688px,80px)}34.82%,37.38%{transform:translate(752px,80px)}35.14%{transform:translate(752px,64px)}35.78%{transform:translate(720px,64px)}36.42%{transform:translate(720px,96px)}37.06%,64.54%{transform:translate(752px,96px)}38.34%{transform:translate(704px,80px)}38.66%{transform:translate(704px,96px)}39.3%{transform:translate(672px,96px)}39.62%{transform:translate(672px,80px)}40.26%{transform:translate(640px,80px)}40.58%{transform:translate(640px,64px)}41.53%{transform:translate(656px,96px)}43.13%{transform:translate(576px,96px)}47.28%{transform:translate(384px,80px)}47.6%{transform:translate(384px,64px)}52.08%{transform:translate(160px,64px)}52.72%{transform:translate(160px,96px)}66.45%{transform:translate(752px,0px)}68.37%{transform:translate(832px,-16px)}68.69%{transform:translate(832px,0px)}69.65%{transform:translate(784px,0px)}69.97%,72.52%{transform:translate(784px,16px)}70.61%{transform:translate(816px,16px)}70.93%{transform:translate(816px,32px)}71.88%{transform:translate(768px,32px)}72.2%{transform:translate(768px,16px)}73.16%,75.72%{transform:translate(784px,48px)}73.8%{transform:translate(816px,48px)}74.12%{transform:translate(816px,64px)}75.08%,78.91%{transform:translate(768px,64px)}75.4%{transform:translate(768px,48px)}76.36%{transform:translate(784px,80px)}77%{transform:translate(816px,80px)}77.32%{transform:translate(816px,96px)}78.27%{transform:translate(768px,96px)}80.19%{transform:translate(704px,64px)}81.15%{transform:translate(704px,16px)}83.07%{transform:translate(640px,48px)}83.39%{transform:translate(624px,48px)}84.35%{transform:translate(624px,0px)}88.82%{transform:translate(400px,0px)}90.1%{transform:translate(400px,64px)}93.61%{transform:translate(224px,64px)}93.93%{transform:translate(224px,48px)}94.25%{transform:translate(208px,48px)}94.57%{transform:translate(208px,32px)}94.89%{transform:translate(192px,32px)}95.53%{transform:translate(176px,16px)}95.85%{transform:translate(176px,0px)}96.17%{transform:translate(160px,0px)}96.49%{transform:translate(160px,-16px)}}.s.s0{transform:translate(0px,-16px);animation-name:s0}@keyframes s1{0%,99.68%{transform:translate(16px,-16px)}0.32%{transform:translate(0px,-16px)}0.64%{transform:translate(0px,0px)}4.47%{transform:translate(192px,0px)}4.79%,95.53%{transform:translate(192px,16px)}5.43%{transform:translate(160px,16px)}6.71%{transform:translate(160px,80px)}11.82%{transform:translate(416px,80px)}12.46%{transform:translate(416px,48px)}15.97%{transform:translate(592px,48px)}16.29%{transform:translate(592px,64px)}16.61%{transform:translate(576px,64px)}16.93%,43.77%{transform:translate(576px,80px)}17.57%{transform:translate(608px,80px)}17.89%{transform:translate(608px,96px)}18.21%{transform:translate(624px,96px)}19.81%{transform:translate(624px,16px)}20.13%{transform:translate(608px,16px)}20.45%{transform:translate(608px,0px)}23.64%,67.09%{transform:translate(768px,0px)}23.96%,67.41%{transform:translate(768px,-16px)}24.28%{transform:translate(752px,-16px)}24.92%{transform:translate(752px,16px)}26.2%{transform:translate(688px,16px)}26.52%{transform:translate(688px,32px)}27.8%{transform:translate(752px,32px)}28.12%{transform:translate(752px,48px)}29.71%{transform:translate(672px,48px)}30.03%{transform:translate(672px,32px)}30.35%{transform:translate(656px,32px)}30.99%{transform:translate(656px,0px)}31.31%{transform:translate(640px,0px)}31.63%,82.75%{transform:translate(640px,16px)}31.95%{transform:translate(656px,16px)}32.91%,41.21%{transform:translate(656px,64px)}33.55%{transform:translate(688px,64px)}33.87%{transform:translate(688px,80px)}35.14%,37.7%{transform:translate(752px,80px)}35.46%{transform:translate(752px,64px)}36.1%{transform:translate(720px,64px)}36.74%{transform:translate(720px,96px)}37.38%,64.86%{transform:translate(752px,96px)}38.66%{transform:translate(704px,80px)}38.98%{transform:translate(704px,96px)}39.62%{transform:translate(672px,96px)}39.94%{transform:translate(672px,80px)}40.58%{transform:translate(640px,80px)}40.89%{transform:translate(640px,64px)}41.85%{transform:translate(656px,96px)}43.45%{transform:translate(576px,96px)}47.6%{transform:translate(384px,80px)}47.92%{transform:translate(384px,64px)}52.4%{transform:translate(160px,64px)}53.04%{transform:translate(160px,96px)}66.77%{transform:translate(752px,0px)}68.69%{transform:translate(832px,-16px)}69.01%{transform:translate(832px,0px)}69.97%{transform:translate(784px,0px)}70.29%,72.84%{transform:translate(784px,16px)}70.93%{transform:translate(816px,16px)}71.25%{transform:translate(816px,32px)}72.2%{transform:translate(768px,32px)}72.52%{transform:translate(768px,16px)}73.48%,76.04%{transform:translate(784px,48px)}74.12%{transform:translate(816px,48px)}74.44%{transform:translate(816px,64px)}75.4%,79.23%{transform:translate(768px,64px)}75.72%{transform:translate(768px,48px)}76.68%{transform:translate(784px,80px)}77.32%{transform:translate(816px,80px)}77.64%{transform:translate(816px,96px)}78.59%{transform:translate(768px,96px)}80.51%{transform:translate(704px,64px)}81.47%{transform:translate(704px,16px)}83.39%{transform:translate(640px,48px)}83.71%{transform:translate(624px,48px)}84.66%{transform:translate(624px,0px)}89.14%{transform:translate(400px,0px)}90.42%{transform:translate(400px,64px)}93.93%{transform:translate(224px,64px)}94.25%{transform:translate(224px,48px)}94.57%{transform:translate(208px,48px)}94.89%{transform:translate(208px,32px)}95.21%{transform:translate(192px,32px)}95.85%{transform:translate(176px,16px)}96.17%{transform:translate(176px,0px)}96.49%{transform:translate(160px,0px)}96.81%{transform:translate(160px,-16px)}}.s.s1{transform:translate(16px,-16px);animation-name:s1}@keyframes s2{0%,99.68%{transform:translate(32px,-16px)}0.64%{transform:translate(0px,-16px)}0.96%{transform:translate(0px,0px)}4.79%{transform:translate(192px,0px)}5.11%,95.85%{transform:translate(192px,16px)}5.75%{transform:translate(160px,16px)}7.03%{transform:translate(160px,80px)}12.14%{transform:translate(416px,80px)}12.78%{transform:translate(416px,48px)}16.29%{transform:translate(592px,48px)}16.61%{transform:translate(592px,64px)}16.93%{transform:translate(576px,64px)}17.25%,44.09%{transform:translate(576px,80px)}17.89%{transform:translate(608px,80px)}18.21%{transform:translate(608px,96px)}18.53%{transform:translate(624px,96px)}20.13%{transform:translate(624px,16px)}20.45%{transform:translate(608px,16px)}20.77%{transform:translate(608px,0px)}23.96%,67.41%{transform:translate(768px,0px)}24.28%,67.73%{transform:translate(768px,-16px)}24.6%{transform:translate(752px,-16px)}25.24%{transform:translate(752px,16px)}26.52%{transform:translate(688px,16px)}26.84%{transform:translate(688px,32px)}28.12%{transform:translate(752px,32px)}28.43%{transform:translate(752px,48px)}30.03%{transform:translate(672px,48px)}30.35%{transform:translate(672px,32px)}30.67%{transform:translate(656px,32px)}31.31%{transform:translate(656px,0px)}31.63%{transform:translate(640px,0px)}31.95%,83.07%{transform:translate(640px,16px)}32.27%{transform:translate(656px,16px)}33.23%,41.53%{transform:translate(656px,64px)}33.87%{transform:translate(688px,64px)}34.19%{transform:translate(688px,80px)}35.46%,38.02%{transform:translate(752px,80px)}35.78%{transform:translate(752px,64px)}36.42%{transform:translate(720px,64px)}37.06%{transform:translate(720px,96px)}37.7%,65.18%{transform:translate(752px,96px)}38.98%{transform:translate(704px,80px)}39.3%{transform:translate(704px,96px)}39.94%{transform:translate(672px,96px)}40.26%{transform:translate(672px,80px)}40.89%{transform:translate(640px,80px)}41.21%{transform:translate(640px,64px)}42.17%{transform:translate(656px,96px)}43.77%{transform:translate(576px,96px)}47.92%{transform:translate(384px,80px)}48.24%{transform:translate(384px,64px)}52.72%{transform:translate(160px,64px)}53.35%{transform:translate(160px,96px)}67.09%{transform:translate(752px,0px)}69.01%{transform:translate(832px,-16px)}69.33%{transform:translate(832px,0px)}70.29%{transform:translate(784px,0px)}70.61%,73.16%{transform:translate(784px,16px)}71.25%{transform:translate(816px,16px)}71.57%{transform:translate(816px,32px)}72.52%{transform:translate(768px,32px)}72.84%{transform:translate(768px,16px)}73.8%,76.36%{transform:translate(784px,48px)}74.44%{transform:translate(816px,48px)}74.76%{transform:translate(816px,64px)}75.72%,79.55%{transform:translate(768px,64px)}76.04%{transform:translate(768px,48px)}77%{transform:translate(784px,80px)}77.64%{transform:translate(816px,80px)}77.96%{transform:translate(816px,96px)}78.91%{transform:translate(768px,96px)}80.83%{transform:translate(704px,64px)}81.79%{transform:translate(704px,16px)}83.71%{transform:translate(640px,48px)}84.03%{transform:translate(624px,48px)}84.98%{transform:translate(624px,0px)}89.46%{transform:translate(400px,0px)}90.73%{transform:translate(400px,64px)}94.25%{transform:translate(224px,64px)}94.57%{transform:translate(224px,48px)}94.89%{transform:translate(208px,48px)}95.21%{transform:translate(208px,32px)}95.53%{transform:translate(192px,32px)}96.17%{transform:translate(176px,16px)}96.49%{transform:translate(176px,0px)}96.81%{transform:translate(160px,0px)}97.12%{transform:translate(160px,-16px)}}.s.s2{transform:translate(32px,-16px);animation-name:s2}@keyframes s3{0%,99.68%{transform:translate(48px,-16px)}0.96%{transform:translate(0px,-16px)}1.28%{transform:translate(0px,0px)}5.11%{transform:translate(192px,0px)}5.43%,96.17%{transform:translate(192px,16px)}6.07%{transform:translate(160px,16px)}7.35%{transform:translate(160px,80px)}12.46%{transform:translate(416px,80px)}13.1%{transform:translate(416px,48px)}16.61%{transform:translate(592px,48px)}16.93%{transform:translate(592px,64px)}17.25%{transform:translate(576px,64px)}17.57%,44.41%{transform:translate(576px,80px)}18.21%{transform:translate(608px,80px)}18.53%{transform:translate(608px,96px)}18.85%{transform:translate(624px,96px)}20.45%{transform:translate(624px,16px)}20.77%{transform:translate(608px,16px)}21.09%{transform:translate(608px,0px)}24.28%,67.73%{transform:translate(768px,0px)}24.6%,68.05%{transform:translate(768px,-16px)}24.92%{transform:translate(752px,-16px)}25.56%{transform:translate(752px,16px)}26.84%{transform:translate(688px,16px)}27.16%{transform:translate(688px,32px)}28.43%{transform:translate(752px,32px)}28.75%{transform:translate(752px,48px)}30.35%{transform:translate(672px,48px)}30.67%{transform:translate(672px,32px)}30.99%{transform:translate(656px,32px)}31.63%{transform:translate(656px,0px)}31.95%{transform:translate(640px,0px)}32.27%,83.39%{transform:translate(640px,16px)}32.59%{transform:translate(656px,16px)}33.55%,41.85%{transform:translate(656px,64px)}34.19%{transform:translate(688px,64px)}34.5%{transform:translate(688px,80px)}35.78%,38.34%{transform:translate(752px,80px)}36.1%{transform:translate(752px,64px)}36.74%{transform:translate(720px,64px)}37.38%{transform:translate(720px,96px)}38.02%,65.5%{transform:translate(752px,96px)}39.3%{transform:translate(704px,80px)}39.62%{transform:translate(704px,96px)}40.26%{transform:translate(672px,96px)}40.58%{transform:translate(672px,80px)}41.21%{transform:translate(640px,80px)}41.53%{transform:translate(640px,64px)}42.49%{transform:translate(656px,96px)}44.09%{transform:translate(576px,96px)}48.24%{transform:translate(384px,80px)}48.56%{transform:translate(384px,64px)}53.04%{transform:translate(160px,64px)}53.67%{transform:translate(160px,96px)}67.41%{transform:translate(752px,0px)}69.33%{transform:translate(832px,-16px)}69.65%{transform:translate(832px,0px)}70.61%{transform:translate(784px,0px)}70.93%,73.48%{transform:translate(784px,16px)}71.57%{transform:translate(816px,16px)}71.88%{transform:translate(816px,32px)}72.84%{transform:translate(768px,32px)}73.16%{transform:translate(768px,16px)}74.12%,76.68%{transform:translate(784px,48px)}74.76%{transform:translate(816px,48px)}75.08%{transform:translate(816px,64px)}76.04%,79.87%{transform:translate(768px,64px)}76.36%{transform:translate(768px,48px)}77.32%{transform:translate(784px,80px)}77.96%{transform:translate(816px,80px)}78.27%{transform:translate(816px,96px)}79.23%{transform:translate(768px,96px)}81.15%{transform:translate(704px,64px)}82.11%{transform:translate(704px,16px)}84.03%{transform:translate(640px,48px)}84.35%{transform:translate(624px,48px)}85.3%{transform:translate(624px,0px)}89.78%{transform:translate(400px,0px)}91.05%{transform:translate(400px,64px)}94.57%{transform:translate(224px,64px)}94.89%{transform:translate(224px,48px)}95.21%{transform:translate(208px,48px)}95.53%{transform:translate(208px,32px)}95.85%{transform:translate(192px,32px)}96.49%{transform:translate(176px,16px)}96.81%{transform:translate(176px,0px)}97.12%{transform:translate(160px,0px)}97.44%{transform:translate(160px,-16px)}}.s.s3{transform:translate(48px,-16px);animation-name:s3}</style><rect class="c" x="2" y="2" rx="2" ry="2"/><rect class="c" x="2" y="18" rx="2" ry="2"/><rect class="c" x="2" y="34" rx="2" ry="2"/><rect class="c" x="2" y="50" rx="2" ry="2"/><rect class="c" x="2" y="66" rx="2" ry="2"/><rect class="c" x="2" y="82" rx="2" ry="2"/><rect class="c" x="2" y="98" rx="2" ry="2"/><rect class="c" x="18" y="2" rx="2" ry="2"/><rect class="c" x="18" y="18" rx="2" ry="2"/><rect class="c" x="18" y="34" rx="2" ry="2"/><rect class="c" x="18" y="50" rx="2" ry="2"/><rect class="c" x="18" y="66" rx="2" ry="2"/><rect class="c" x="18" y="82" rx="2" ry="2"/><rect class="c" x="18" y="98" rx="2" ry="2"/><rect class="c" x="34" y="2" rx="2" ry="2"/><rect class="c" x="34" y="18" rx="2" ry="2"/><rect class="c" x="34" y="34" rx="2" ry="2"/><rect class="c" x="34" y="50" rx="2" ry="2"/><rect class="c" x="34" y="66" rx="2" ry="2"/><rect class="c" x="34" y="82" rx="2" ry="2"/><rect class="c" x="34" y="98" rx="2" ry="2"/><rect class="c" x="50" y="2" rx="2" ry="2"/><rect class="c" x="50" y="18" rx="2" ry="2"/><rect class="c" x="50" y="34" rx="2" ry="2"/><rect class="c" x="50" y="50" rx="2" ry="2"/><rect class="c" x="50" y="66" rx="2" ry="2"/><rect class="c" x="50" y="82" rx="2" ry="2"/><rect class="c" x="50" y="98" rx="2" ry="2"/><rect class="c" x="66" y="2" rx="2" ry="2"/><rect class="c" x="66" y="18" rx="2" ry="2"/><rect class="c" x="66" y="34" rx="2" ry="2"/><rect class="c" x="66" y="50" rx="2" ry="2"/><rect class="c" x="66" y="66" rx="2" ry="2"/><rect class="c" x="66" y="82" rx="2" ry="2"/><rect class="c" x="66" y="98" rx="2" ry="2"/><rect class="c" x="82" y="2" rx="2" ry="2"/><rect class="c" x="82" y="18" rx="2" ry="2"/><rect class="c" x="82" y="34" rx="2" ry="2"/><rect class="c" x="82" y="50" rx="2" ry="2"/><rect class="c" x="82" y="66" rx="2" ry="2"/><rect class="c" x="82" y="82" rx="2" ry="2"/><rect class="c" x="82" y="98" rx="2" ry="2"/><rect class="c" x="98" y="2" rx="2" ry="2"/><rect class="c" x="98" y="18" rx="2" ry="2"/><rect class="c" x="98" y="34" rx="2" ry="2"/><rect class="c" x="98" y="50" rx="2" ry="2"/><rect class="c" x="98" y="66" rx="2" ry="2"/><rect class="c" x="98" y="82" rx="2" ry="2"/><rect class="c" x="98" y="98" rx="2" ry="2"/><rect class="c" x="114" y="2" rx="2" ry="2"/><rect class="c" x="114" y="18" rx="2" ry="2"/><rect class="c" x="114" y="34" rx="2" ry="2"/><rect class="c" x="114" y="50" rx="2" ry="2"/><rect class="c" x="114" y="66" rx="2" ry="2"/><rect class="c" x="114" y="82" rx="2" ry="2"/><rect class="c" x="114" y="98" rx="2" ry="2"/><rect class="c" x="130" y="2" rx="2" ry="2"/><rect class="c" x="130" y="18" rx="2" ry="2"/><rect class="c" x="130" y="34" rx="2" ry="2"/><rect class="c" x="130" y="50" rx="2" ry="2"/><rect class="c" x="130" y="66" rx="2" ry="2"/><rect class="c" x="130" y="82" rx="2" ry="2"/><rect class="c" x="130" y="98" rx="2" ry="2"/><rect class="c" x="146" y="2" rx="2" ry="2"/><rect class="c" x="146" y="18" rx="2" ry="2"/><rect class="c" x="146" y="34" rx="2" ry="2"/><rect class="c" x="146" y="50" rx="2" ry="2"/><rect class="c" x="146" y="66" rx="2" ry="2"/><rect class="c" x="146" y="82" rx="2" ry="2"/><rect class="c" x="146" y="98" rx="2" ry="2"/><rect class="c" x="162" y="2" rx="2" ry="2"/><rect class="c" x="162" y="18" rx="2" ry="2"/><rect class="c" x="162" y="34" rx="2" ry="2"/><rect class="c" x="162" y="50" rx="2" ry="2"/><rect class="c" x="162" y="66" rx="2" ry="2"/><rect class="c c0" x="162" y="82" rx="2" ry="2"/><rect class="c c1" x="162" y="98" rx="2" ry="2"/><rect class="c" x="178" y="2" rx="2" ry="2"/><rect class="c" x="178" y="18" rx="2" ry="2"/><rect class="c" x="178" y="34" rx="2" ry="2"/><rect class="c" x="178" y="50" rx="2" ry="2"/><rect class="c" x="178" y="66" rx="2" ry="2"/><rect class="c" x="178" y="82" rx="2" ry="2"/><rect class="c" x="178" y="98" rx="2" ry="2"/><rect class="c c2" x="194" y="2" rx="2" ry="2"/><rect class="c c3" x="194" y="18" rx="2" ry="2"/><rect class="c" x="194" y="34" rx="2" ry="2"/><rect class="c" x="194" y="50" rx="2" ry="2"/><rect class="c" x="194" y="66" rx="2" ry="2"/><rect class="c" x="194" y="82" rx="2" ry="2"/><rect class="c" x="194" y="98" rx="2" ry="2"/><rect class="c" x="210" y="2" rx="2" ry="2"/><rect class="c" x="210" y="18" rx="2" ry="2"/><rect class="c" x="210" y="34" rx="2" ry="2"/><rect class="c" x="210" y="50" rx="2" ry="2"/><rect class="c" x="210" y="66" rx="2" ry="2"/><rect class="c" x="210" y="82" rx="2" ry="2"/><rect class="c" x="210" y="98" rx="2" ry="2"/><rect class="c" x="226" y="2" rx="2" ry="2"/><rect class="c" x="226" y="18" rx="2" ry="2"/><rect class="c" x="226" y="34" rx="2" ry="2"/><rect class="c" x="226" y="50" rx="2" ry="2"/><rect class="c" x="226" y="66" rx="2" ry="2"/><rect class="c" x="226" y="82" rx="2" ry="2"/><rect class="c" x="226" y="98" rx="2" ry="2"/><rect class="c" x="242" y="2" rx="2" ry="2"/><rect class="c" x="242" y="18" rx="2" ry="2"/><rect class="c" x="242" y="34" rx="2" ry="2"/><rect class="c" x="242" y="50" rx="2" ry="2"/><rect class="c" x="242" y="66" rx="2" ry="2"/><rect class="c" x="242" y="82" rx="2" ry="2"/><rect class="c" x="242" y="98" rx="2" ry="2"/><rect class="c" x="258" y="2" rx="2" ry="2"/><rect class="c" x="258" y="18" rx="2" ry="2"/><rect class="c" x="258" y="34" rx="2" ry="2"/><rect class="c" x="258" y="50" rx="2" ry="2"/><rect class="c" x="258" y="66" rx="2" ry="2"/><rect class="c" x="258" y="82" rx="2" ry="2"/><rect class="c" x="258" y="98" rx="2" ry="2"/><rect class="c" x="274" y="2" rx="2" ry="2"/><rect class="c" x="274" y="18" rx="2" ry="2"/><rect class="c" x="274" y="34" rx="2" ry="2"/><rect class="c" x="274" y="50" rx="2" ry="2"/><rect class="c c4" x="274" y="66" rx="2" ry="2"/><rect class="c" x="274" y="82" rx="2" ry="2"/><rect class="c" x="274" y="98" rx="2" ry="2"/><rect class="c" x="290" y="2" rx="2" ry="2"/><rect class="c" x="290" y="18" rx="2" ry="2"/><rect class="c" x="290" y="34" rx="2" ry="2"/><rect class="c" x="290" y="50" rx="2" ry="2"/><rect class="c" x="290" y="66" rx="2" ry="2"/><rect class="c" x="290" y="82" rx="2" ry="2"/><rect class="c" x="290" y="98" rx="2" ry="2"/><rect class="c" x="306" y="2" rx="2" ry="2"/><rect class="c" x="306" y="18" rx="2" ry="2"/><rect class="c" x="306" y="34" rx="2" ry="2"/><rect class="c" x="306" y="50" rx="2" ry="2"/><rect class="c" x="306" y="66" rx="2" ry="2"/><rect class="c" x="306" y="82" rx="2" ry="2"/><rect class="c" x="306" y="98" rx="2" ry="2"/><rect class="c" x="322" y="2" rx="2" ry="2"/><rect class="c" x="322" y="18" rx="2" ry="2"/><rect class="c" x="322" y="34" rx="2" ry="2"/><rect class="c" x="322" y="50" rx="2" ry="2"/><rect class="c" x="322" y="66" rx="2" ry="2"/><rect class="c" x="322" y="82" rx="2" ry="2"/><rect class="c" x="322" y="98" rx="2" ry="2"/><rect class="c" x="338" y="2" rx="2" ry="2"/><rect class="c" x="338" y="18" rx="2" ry="2"/><rect class="c" x="338" y="34" rx="2" ry="2"/><rect class="c" x="338" y="50" rx="2" ry="2"/><rect class="c" x="338" y="66" rx="2" ry="2"/><rect class="c" x="338" y="82" rx="2" ry="2"/><rect class="c" x="338" y="98" rx="2" ry="2"/><rect class="c" x="354" y="2" rx="2" ry="2"/><rect class="c" x="354" y="18" rx="2" ry="2"/><rect class="c" x="354" y="34" rx="2" ry="2"/><rect class="c" x="354" y="50" rx="2" ry="2"/><rect class="c" x="354" y="66" rx="2" ry="2"/><rect class="c" x="354" y="82" rx="2" ry="2"/><rect class="c" x="354" y="98" rx="2" ry="2"/><rect class="c" x="370" y="2" rx="2" ry="2"/><rect class="c" x="370" y="18" rx="2" ry="2"/><rect class="c" x="370" y="34" rx="2" ry="2"/><rect class="c" x="370" y="50" rx="2" ry="2"/><rect class="c" x="370" y="66" rx="2" ry="2"/><rect class="c" x="370" y="82" rx="2" ry="2"/><rect class="c" x="370" y="98" rx="2" ry="2"/><rect class="c" x="386" y="2" rx="2" ry="2"/><rect class="c" x="386" y="18" rx="2" ry="2"/><rect class="c" x="386" y="34" rx="2" ry="2"/><rect class="c" x="386" y="50" rx="2" ry="2"/><rect class="c" x="386" y="66" rx="2" ry="2"/><rect class="c" x="386" y="82" rx="2" ry="2"/><rect class="c" x="386" y="98" rx="2" ry="2"/><rect class="c" x="402" y="2" rx="2" ry="2"/><rect class="c" x="402" y="18" rx="2" ry="2"/><rect class="c" x="402" y="34" rx="2" ry="2"/><rect class="c" x="402" y="50" rx="2" ry="2"/><rect class="c c5" x="402" y="66" rx="2" ry="2"/><rect class="c" x="402" y="82" rx="2" ry="2"/><rect class="c" x="402" y="98" rx="2" ry="2"/><rect class="c" x="418" y="2" rx="2" ry="2"/><rect class="c" x="418" y="18" rx="2" ry="2"/><rect class="c" x="418" y="34" rx="2" ry="2"/><rect class="c c6" x="418" y="50" rx="2" ry="2"/><rect class="c" x="418" y="66" rx="2" ry="2"/><rect class="c" x="418" y="82" rx="2" ry="2"/><rect class="c" x="418" y="98" rx="2" ry="2"/><rect class="c" x="434" y="2" rx="2" ry="2"/><rect class="c" x="434" y="18" rx="2" ry="2"/><rect class="c" x="434" y="34" rx="2" ry="2"/><rect class="c" x="434" y="50" rx="2" ry="2"/><rect class="c" x="434" y="66" rx="2" ry="2"/><rect class="c" x="434" y="82" rx="2" ry="2"/><rect class="c" x="434" y="98" rx="2" ry="2"/><rect class="c" x="450" y="2" rx="2" ry="2"/><rect class="c" x="450" y="18" rx="2" ry="2"/><rect class="c" x="450" y="34" rx="2" ry="2"/><rect class="c" x="450" y="50" rx="2" ry="2"/><rect class="c" x="450" y="66" rx="2" ry="2"/><rect class="c" x="450" y="82" rx="2" ry="2"/><rect class="c" x="450" y="98" rx="2" ry="2"/><rect class="c" x="466" y="2" rx="2" ry="2"/><rect class="c" x="466" y="18" rx="2" ry="2"/><rect class="c" x="466" y="34" rx="2" ry="2"/><rect class="c" x="466" y="50" rx="2" ry="2"/><rect class="c" x="466" y="66" rx="2" ry="2"/><rect class="c" x="466" y="82" rx="2" ry="2"/><rect class="c" x="466" y="98" rx="2" ry="2"/><rect class="c" x="482" y="2" rx="2" ry="2"/><rect class="c" x="482" y="18" rx="2" ry="2"/><rect class="c" x="482" y="34" rx="2" ry="2"/><rect class="c" x="482" y="50" rx="2" ry="2"/><rect class="c" x="482" y="66" rx="2" ry="2"/><rect class="c" x="482" y="82" rx="2" ry="2"/><rect class="c" x="482" y="98" rx="2" ry="2"/><rect class="c" x="498" y="2" rx="2" ry="2"/><rect class="c" x="498" y="18" rx="2" ry="2"/><rect class="c" x="498" y="34" rx="2" ry="2"/><rect class="c" x="498" y="50" rx="2" ry="2"/><rect class="c" x="498" y="66" rx="2" ry="2"/><rect class="c" x="498" y="82" rx="2" ry="2"/><rect class="c" x="498" y="98" rx="2" ry="2"/><rect class="c" x="514" y="2" rx="2" ry="2"/><rect class="c" x="514" y="18" rx="2" ry="2"/><rect class="c" x="514" y="34" rx="2" ry="2"/><rect class="c" x="514" y="50" rx="2" ry="2"/><rect class="c" x="514" y="66" rx="2" ry="2"/><rect class="c" x="514" y="82" rx="2" ry="2"/><rect class="c" x="514" y="98" rx="2" ry="2"/><rect class="c" x="530" y="2" rx="2" ry="2"/><rect class="c" x="530" y="18" rx="2" ry="2"/><rect class="c" x="530" y="34" rx="2" ry="2"/><rect class="c" x="530" y="50" rx="2" ry="2"/><rect class="c" x="530" y="66" rx="2" ry="2"/><rect class="c" x="530" y="82" rx="2" ry="2"/><rect class="c" x="530" y="98" rx="2" ry="2"/><rect class="c" x="546" y="2" rx="2" ry="2"/><rect class="c" x="546" y="18" rx="2" ry="2"/><rect class="c" x="546" y="34" rx="2" ry="2"/><rect class="c" x="546" y="50" rx="2" ry="2"/><rect class="c" x="546" y="66" rx="2" ry="2"/><rect class="c" x="546" y="82" rx="2" ry="2"/><rect class="c" x="546" y="98" rx="2" ry="2"/><rect class="c" x="562" y="2" rx="2" ry="2"/><rect class="c" x="562" y="18" rx="2" ry="2"/><rect class="c" x="562" y="34" rx="2" ry="2"/><rect class="c" x="562" y="50" rx="2" ry="2"/><rect class="c" x="562" y="66" rx="2" ry="2"/><rect class="c" x="562" y="82" rx="2" ry="2"/><rect class="c" x="562" y="98" rx="2" ry="2"/><rect class="c" x="578" y="2" rx="2" ry="2"/><rect class="c" x="578" y="18" rx="2" ry="2"/><rect class="c" x="578" y="34" rx="2" ry="2"/><rect class="c" x="578" y="50" rx="2" ry="2"/><rect class="c c7" x="578" y="66" rx="2" ry="2"/><rect class="c" x="578" y="82" rx="2" ry="2"/><rect class="c c8" x="578" y="98" rx="2" ry="2"/><rect class="c c9" x="594" y="2" rx="2" ry="2"/><rect class="c" x="594" y="18" rx="2" ry="2"/><rect class="c" x="594" y="34" rx="2" ry="2"/><rect class="c ca" x="594" y="50" rx="2" ry="2"/><rect class="c" x="594" y="66" rx="2" ry="2"/><rect class="c" x="594" y="82" rx="2" ry="2"/><rect class="c" x="594" y="98" rx="2" ry="2"/><rect class="c" x="610" y="2" rx="2" ry="2"/><rect class="c cb" x="610" y="18" rx="2" ry="2"/><rect class="c" x="610" y="34" rx="2" ry="2"/><rect class="c" x="610" y="50" rx="2" ry="2"/><rect class="c" x="610" y="66" rx="2" ry="2"/><rect class="c cc" x="610" y="82" rx="2" ry="2"/><rect class="c cd" x="610" y="98" rx="2" ry="2"/><rect class="c" x="626" y="2" rx="2" ry="2"/><rect class="c" x="626" y="18" rx="2" ry="2"/><rect class="c" x="626" y="34" rx="2" ry="2"/><rect class="c" x="626" y="50" rx="2" ry="2"/><rect class="c" x="626" y="66" rx="2" ry="2"/><rect class="c" x="626" y="82" rx="2" ry="2"/><rect class="c" x="626" y="98" rx="2" ry="2"/><rect class="c" x="642" y="2" rx="2" ry="2"/><rect class="c" x="642" y="18" rx="2" ry="2"/><rect class="c ce" x="642" y="34" rx="2" ry="2"/><rect class="c cf" x="642" y="50" rx="2" ry="2"/><rect class="c cg" x="642" y="66" rx="2" ry="2"/><rect class="c ch" x="642" y="82" rx="2" ry="2"/><rect class="c ci" x="642" y="98" rx="2" ry="2"/><rect class="c cj" x="658" y="2" rx="2" ry="2"/><rect class="c ck" x="658" y="18" rx="2" ry="2"/><rect class="c cl" x="658" y="34" rx="2" ry="2"/><rect class="c cm" x="658" y="50" rx="2" ry="2"/><rect class="c cn" x="658" y="66" rx="2" ry="2"/><rect class="c co" x="658" y="82" rx="2" ry="2"/><rect class="c cp" x="658" y="98" rx="2" ry="2"/><rect class="c cq" x="674" y="2" rx="2" ry="2"/><rect class="c cr" x="674" y="18" rx="2" ry="2"/><rect class="c cs" x="674" y="34" rx="2" ry="2"/><rect class="c ct" x="674" y="50" rx="2" ry="2"/><rect class="c cu" x="674" y="66" rx="2" ry="2"/><rect class="c cv" x="674" y="82" rx="2" ry="2"/><rect class="c cw" x="674" y="98" rx="2" ry="2"/><rect class="c cx" x="690" y="2" rx="2" ry="2"/><rect class="c cy" x="690" y="18" rx="2" ry="2"/><rect class="c cz" x="690" y="34" rx="2" ry="2"/><rect class="c c10" x="690" y="50" rx="2" ry="2"/><rect class="c c11" x="690" y="66" rx="2" ry="2"/><rect class="c c12" x="690" y="82" rx="2" ry="2"/><rect class="c c13" x="690" y="98" rx="2" ry="2"/><rect class="c c14" x="706" y="2" rx="2" ry="2"/><rect class="c c15" x="706" y="18" rx="2" ry="2"/><rect class="c c16" x="706" y="34" rx="2" ry="2"/><rect class="c c17" x="706" y="50" rx="2" ry="2"/><rect class="c c18" x="706" y="66" rx="2" ry="2"/><rect class="c c19" x="706" y="82" rx="2" ry="2"/><rect class="c c1a" x="706" y="98" rx="2" ry="2"/><rect class="c c1b" x="722" y="2" rx="2" ry="2"/><rect class="c c1c" x="722" y="18" rx="2" ry="2"/><rect class="c c1d" x="722" y="34" rx="2" ry="2"/><rect class="c c1e" x="722" y="50" rx="2" ry="2"/><rect class="c c1f" x="722" y="66" rx="2" ry="2"/><rect class="c c1g" x="722" y="82" rx="2" ry="2"/><rect class="c c1h" x="722" y="98" rx="2" ry="2"/><rect class="c c1i" x="738" y="2" rx="2" ry="2"/><rect class="c c1j" x="738" y="18" rx="2" ry="2"/><rect class="c c1k" x="738" y="34" rx="2" ry="2"/><rect class="c c1l" x="738" y="50" rx="2" ry="2"/><rect class="c c1m" x="738" y="66" rx="2" ry="2"/><rect class="c c1n" x="738" y="82" rx="2" ry="2"/><rect class="c c1o" x="738" y="98" rx="2" ry="2"/><rect class="c c1p" x="754" y="2" rx="2" ry="2"/><rect class="c c1q" x="754" y="18" rx="2" ry="2"/><rect class="c c1r" x="754" y="34" rx="2" ry="2"/><rect class="c c1s" x="754" y="50" rx="2" ry="2"/><rect class="c c1t" x="754" y="66" rx="2" ry="2"/><rect class="c c1u" x="754" y="82" rx="2" ry="2"/><rect class="c c1v" x="754" y="98" rx="2" ry="2"/><rect class="c c1w" x="770" y="2" rx="2" ry="2"/><rect class="c c1x" x="770" y="18" rx="2" ry="2"/><rect class="c c1y" x="770" y="34" rx="2" ry="2"/><rect class="c c1z" x="770" y="50" rx="2" ry="2"/><rect class="c c20" x="770" y="66" rx="2" ry="2"/><rect class="c c21" x="770" y="82" rx="2" ry="2"/><rect class="c c22" x="770" y="98" rx="2" ry="2"/><rect class="c c23" x="786" y="2" rx="2" ry="2"/><rect class="c c24" x="786" y="18" rx="2" ry="2"/><rect class="c c25" x="786" y="34" rx="2" ry="2"/><rect class="c c26" x="786" y="50" rx="2" ry="2"/><rect class="c c27" x="786" y="66" rx="2" ry="2"/><rect class="c c28" x="786" y="82" rx="2" ry="2"/><rect class="c c29" x="786" y="98" rx="2" ry="2"/><rect class="c c2a" x="802" y="2" rx="2" ry="2"/><rect class="c c2b" x="802" y="18" rx="2" ry="2"/><rect class="c c2c" x="802" y="34" rx="2" ry="2"/><rect class="c c2d" x="802" y="50" rx="2" ry="2"/><rect class="c c2e" x="802" y="66" rx="2" ry="2"/><rect class="c c2f" x="802" y="82" rx="2" ry="2"/><rect class="c c2g" x="802" y="98" rx="2" ry="2"/><rect class="c c2h" x="818" y="2" rx="2" ry="2"/><rect class="c c2i" x="818" y="18" rx="2" ry="2"/><rect class="c c2j" x="818" y="34" rx="2" ry="2"/><rect class="c c2k" x="818" y="50" rx="2" ry="2"/><rect class="c c2l" x="818" y="66" rx="2" ry="2"/><rect class="c c2m" x="818" y="82" rx="2" ry="2"/><rect class="c c2n" x="818" y="98" rx="2" ry="2"/><rect class="c c2o" x="834" y="2" rx="2" ry="2"/><rect class="u u0" height="12" width="79.3" x="0.0" y="144"/><rect class="u u1" height="12" width="481.4" x="78.7" y="144"/><rect class="u u2" height="12" width="289.1" x="559.5" y="144"/><rect class="s s0" x="0.8" y="0.8" width="14.4" height="14.4" rx="4.5" ry="4.5"/><rect class="s s1" x="1.8" y="1.8" width="12.3" height="12.3" rx="4.1" ry="4.1"/><rect class="s s2" x="2.6" y="2.6" width="10.8" height="10.8" rx="3.6" ry="3.6"/><rect class="s s3" x="3.0" y="3.0" width="9.9" height="9.9" rx="3.3" ry="3.3"/></svg>