<svg viewBox="-16 -32 880 192" width="880" height="192" xmlns="http://www.w3.org/2000/svg"><desc>Generated with https://github.com/Platane/snk</desc><style>:root{--cb:#1b1f230a;--cs:purple;--ce:#ebedf0;--c0:#ebedf0;--c1:#9be9a8;--c2:#40c463;--c3:#30a14e;--c4:#216e39}.c{shape-rendering:geometricPrecision;fill:var(--ce);stroke-width:1px;stroke:var(--cb);animation:none 27300ms linear infinite;width:12px;height:12px}@keyframes c0{8.78%{fill:var(--c1)}8.8%,100%{fill:var(--ce)}}.c.c0{fill:var(--c1);animation-name:c0}@keyframes c1{61.89%{fill:var(--c2)}61.91%,100%{fill:var(--ce)}}.c.c1{fill:var(--c2);animation-name:c1}@keyframes c2{6.22%{fill:var(--c1)}6.24%,100%{fill:var(--ce)}}.c.c2{fill:var(--c1);animation-name:c2}@keyframes c3{6.58%{fill:var(--c1)}6.6%,100%{fill:var(--ce)}}.c.c3{fill:var(--c1);animation-name:c3}@keyframes c4{58.6%{fill:var(--c2)}58.62%,100%{fill:var(--ce)}}.c.c4{fill:var(--c2);animation-name:c4}@keyframes c5{68.12%{fill:var(--c4)}68.14%,100%{fill:var(--ce)}}.c.c5{fill:var(--c4);animation-name:c5}@keyframes c6{15.37%{fill:var(--c1)}15.39%,100%{fill:var(--ce)}}.c.c6{fill:var(--c1);animation-name:c6}@keyframes c7{20.14%{fill:var(--c1)}20.16%,100%{fill:var(--ce)}}.c.c7{fill:var(--c1);animation-name:c7}@keyframes c8{50.91%{fill:var(--c2)}50.93%,100%{fill:var(--ce)}}.c.c8{fill:var(--c2);animation-name:c8}@keyframes c9{84.24%{fill:var(--c4)}84.26%,100%{fill:var(--ce)}}.c.c9{fill:var(--c4);animation-name:c9}@keyframes ca{19.4%{fill:var(--c1)}19.42%,100%{fill:var(--ce)}}.c.ca{fill:var(--c1);animation-name:ca}@keyframes cb{24.17%{fill:var(--c1)}24.19%,100%{fill:var(--ce)}}.c.cb{fill:var(--c1);animation-name:cb}@keyframes cc{21.24%{fill:var(--c1)}21.26%,100%{fill:var(--ce)}}.c.cc{fill:var(--c1);animation-name:cc}@keyframes cd{21.6%{fill:var(--c1)}21.62%,100%{fill:var(--ce)}}.c.cd{fill:var(--c1);animation-name:cd}@keyframes ce{74.35%{fill:var(--c4)}74.37%,100%{fill:var(--ce)}}.c.ce{fill:var(--c4);animation-name:ce}@keyframes cf{73.98%{fill:var(--c4)}74%,100%{fill:var(--ce)}}.c.cf{fill:var(--c4);animation-name:cf}@keyframes cg{47.98%{fill:var(--c2)}48%,100%{fill:var(--ce)}}.c.cg{fill:var(--c2);animation-name:cg}@keyframes ch{47.61%{fill:var(--c2)}47.63%,100%{fill:var(--ce)}}.c.ch{fill:var(--c2);animation-name:ch}@keyframes ci{49.44%{fill:var(--c2)}49.46%,100%{fill:var(--ce)}}.c.ci{fill:var(--c2);animation-name:ci}@keyframes cj{25.63%{fill:var(--c2)}25.65%,100%{fill:var(--ce)}}.c.cj{fill:var(--c2);animation-name:cj}@keyframes ck{36.25%{fill:var(--c2)}36.27%,100%{fill:var(--ce)}}.c.ck{fill:var(--c2);animation-name:ck}@keyframes cl{35.89%{fill:var(--c2)}35.91%,100%{fill:var(--ce)}}.c.cl{fill:var(--c2);animation-name:cl}@keyframes cm{38.45%{fill:var(--c2)}38.47%,100%{fill:var(--ce)}}.c.cm{fill:var(--c2);animation-name:cm}@keyframes cn{38.82%{fill:var(--c2)}38.84%,100%{fill:var(--ce)}}.c.cn{fill:var(--c2);animation-name:cn}@keyframes co{47.24%{fill:var(--c2)}47.26%,100%{fill:var(--ce)}}.c.co{fill:var(--c2);animation-name:co}@keyframes cp{49.07%{fill:var(--c2)}49.09%,100%{fill:var(--ce)}}.c.cp{fill:var(--c2);animation-name:cp}@keyframes cq{26%{fill:var(--c2)}26.02%,100%{fill:var(--ce)}}.c.cq{fill:var(--c2);animation-name:cq}@keyframes cr{75.45%{fill:var(--c4)}75.47%,100%{fill:var(--ce)}}.c.cr{fill:var(--c4);animation-name:cr}@keyframes cs{35.52%{fill:var(--c2)}35.54%,100%{fill:var(--ce)}}.c.cs{fill:var(--c2);animation-name:cs}@keyframes ct{35.15%{fill:var(--c2)}35.17%,100%{fill:var(--ce)}}.c.ct{fill:var(--c2);animation-name:ct}@keyframes cu{39.18%{fill:var(--c2)}39.2%,100%{fill:var(--ce)}}.c.cu{fill:var(--c2);animation-name:cu}@keyframes cv{46.88%{fill:var(--c2)}46.9%,100%{fill:var(--ce)}}.c.cv{fill:var(--c2);animation-name:cv}@keyframes cw{46.51%{fill:var(--c2)}46.53%,100%{fill:var(--ce)}}.c.cw{fill:var(--c2);animation-name:cw}@keyframes cx{26.36%{fill:var(--c2)}26.38%,100%{fill:var(--ce)}}.c.cx{fill:var(--c2);animation-name:cx}@keyframes cy{31.13%{fill:var(--c2)}31.15%,100%{fill:var(--ce)}}.c.cy{fill:var(--c2);animation-name:cy}@keyframes cz{31.49%{fill:var(--c2)}31.51%,100%{fill:var(--ce)}}.c.cz{fill:var(--c2);animation-name:cz}@keyframes c10{34.79%{fill:var(--c2)}34.81%,100%{fill:var(--ce)}}.c.c10{fill:var(--c2);animation-name:c10}@keyframes c11{39.55%{fill:var(--c2)}39.57%,100%{fill:var(--ce)}}.c.c11{fill:var(--c2);animation-name:c11}@keyframes c12{39.92%{fill:var(--c2)}39.94%,100%{fill:var(--ce)}}.c.c12{fill:var(--c2);animation-name:c12}@keyframes c13{46.14%{fill:var(--c2)}46.16%,100%{fill:var(--ce)}}.c.c13{fill:var(--c2);animation-name:c13}@keyframes c14{26.73%{fill:var(--c2)}26.75%,100%{fill:var(--ce)}}.c.c14{fill:var(--c2);animation-name:c14}@keyframes c15{30.76%{fill:var(--c2)}30.78%,100%{fill:var(--ce)}}.c.c15{fill:var(--c2);animation-name:c15}@keyframes c16{31.86%{fill:var(--c2)}31.88%,100%{fill:var(--ce)}}.c.c16{fill:var(--c2);animation-name:c16}@keyframes c17{34.42%{fill:var(--c2)}34.44%,100%{fill:var(--ce)}}.c.c17{fill:var(--c2);animation-name:c17}@keyframes c18{77.28%{fill:var(--c4)}77.3%,100%{fill:var(--ce)}}.c.c18{fill:var(--c4);animation-name:c18}@keyframes c19{40.28%{fill:var(--c2)}40.3%,100%{fill:var(--ce)}}.c.c19{fill:var(--c2);animation-name:c19}@keyframes c1a{45.78%{fill:var(--c2)}45.8%,100%{fill:var(--ce)}}.c.c1a{fill:var(--c2);animation-name:c1a}@keyframes c1b{27.1%{fill:var(--c2)}27.12%,100%{fill:var(--ce)}}.c.c1b{fill:var(--c2);animation-name:c1b}@keyframes c1c{30.39%{fill:var(--c2)}30.41%,100%{fill:var(--ce)}}.c.c1c{fill:var(--c2);animation-name:c1c}@keyframes c1d{32.22%{fill:var(--c2)}32.24%,100%{fill:var(--ce)}}.c.c1d{fill:var(--c2);animation-name:c1d}@keyframes c1e{34.06%{fill:var(--c2)}34.08%,100%{fill:var(--ce)}}.c.c1e{fill:var(--c2);animation-name:c1e}@keyframes c1f{42.48%{fill:var(--c2)}42.5%,100%{fill:var(--ce)}}.c.c1f{fill:var(--c2);animation-name:c1f}@keyframes c1g{40.65%{fill:var(--c2)}40.67%,100%{fill:var(--ce)}}.c.c1g{fill:var(--c2);animation-name:c1g}@keyframes c1h{43.21%{fill:var(--c2)}43.23%,100%{fill:var(--ce)}}.c.c1h{fill:var(--c2);animation-name:c1h}@keyframes c1i{27.46%{fill:var(--c2)}27.48%,100%{fill:var(--ce)}}.c.c1i{fill:var(--c2);animation-name:c1i}@keyframes c1j{30.03%{fill:var(--c2)}30.05%,100%{fill:var(--ce)}}.c.c1j{fill:var(--c2);animation-name:c1j}@keyframes c1k{32.59%{fill:var(--c2)}32.61%,100%{fill:var(--ce)}}.c.c1k{fill:var(--c2);animation-name:c1k}@keyframes c1l{33.69%{fill:var(--c2)}33.71%,100%{fill:var(--ce)}}.c.c1l{fill:var(--c2);animation-name:c1l}@keyframes c1m{42.11%{fill:var(--c2)}42.13%,100%{fill:var(--ce)}}.c.c1m{fill:var(--c2);animation-name:c1m}@keyframes c1n{41.02%{fill:var(--c2)}41.04%,100%{fill:var(--ce)}}.c.c1n{fill:var(--c2);animation-name:c1n}@keyframes c1o{43.58%{fill:var(--c2)}43.6%,100%{fill:var(--ce)}}.c.c1o{fill:var(--c2);animation-name:c1o}@keyframes c1p{27.83%{fill:var(--c2)}27.85%,100%{fill:var(--ce)}}.c.c1p{fill:var(--c2);animation-name:c1p}@keyframes c1q{29.66%{fill:var(--c2)}29.68%,100%{fill:var(--ce)}}.c.c1q{fill:var(--c2);animation-name:c1q}@keyframes c1r{32.96%{fill:var(--c2)}32.98%,100%{fill:var(--ce)}}.c.c1r{fill:var(--c2);animation-name:c1r}@keyframes c1s{33.32%{fill:var(--c2)}33.34%,100%{fill:var(--ce)}}.c.c1s{fill:var(--c2);animation-name:c1s}@keyframes c1t{41.75%{fill:var(--c2)}41.77%,100%{fill:var(--ce)}}.c.c1t{fill:var(--c2);animation-name:c1t}@keyframes c1u{41.38%{fill:var(--c2)}41.4%,100%{fill:var(--ce)}}.c.c1u{fill:var(--c2);animation-name:c1u}@keyframes c1v{43.95%{fill:var(--c2)}43.97%,100%{fill:var(--ce)}}.c.c1v{fill:var(--c2);animation-name:c1v}@keyframes c1w{28.2%{fill:var(--c2)}28.22%,100%{fill:var(--ce)}}.c.c1w{fill:var(--c2);animation-name:c1w}@keyframes c1x{79.84%{fill:var(--c4)}79.86%,100%{fill:var(--ce)}}.c.c1x{fill:var(--c4);animation-name:c1x}.u{transform-origin:0 0;transform:scale(0,1);animation:none linear 27300ms infinite}@keyframes u0{6.22%{transform:scale(0.000,1)}6.24%,6.58%{transform:scale(0.111,1)}6.6%,8.78%{transform:scale(0.222,1)}8.8%,15.37%{transform:scale(0.333,1)}15.39%,19.4%{transform:scale(0.444,1)}19.42%,20.14%{transform:scale(0.556,1)}20.16%,21.24%{transform:scale(0.667,1)}21.26%,21.6%{transform:scale(0.778,1)}21.62%,24.17%{transform:scale(0.889,1)}24.19%,100%{transform:scale(1.000,1)}}.u.u0{fill:var(--c1);animation-name:u0;transform-origin:0.0px 0}@keyframes u1{25.63%{transform:scale(0.000,1)}25.65%,26%{transform:scale(0.019,1)}26.02%,26.36%{transform:scale(0.037,1)}26.38%,26.73%{transform:scale(0.056,1)}26.75%,27.1%{transform:scale(0.074,1)}27.12%,27.46%{transform:scale(0.093,1)}27.48%,27.83%{transform:scale(0.111,1)}27.85%,28.2%{transform:scale(0.130,1)}28.22%,29.66%{transform:scale(0.148,1)}29.68%,30.03%{transform:scale(0.167,1)}30.05%,30.39%{transform:scale(0.185,1)}30.41%,30.76%{transform:scale(0.204,1)}30.78%,31.13%{transform:scale(0.222,1)}31.15%,31.49%{transform:scale(0.241,1)}31.51%,31.86%{transform:scale(0.259,1)}31.88%,32.22%{transform:scale(0.278,1)}32.24%,32.59%{transform:scale(0.296,1)}32.61%,32.96%{transform:scale(0.315,1)}32.98%,33.32%{transform:scale(0.333,1)}33.34%,33.69%{transform:scale(0.352,1)}33.71%,34.06%{transform:scale(0.370,1)}34.08%,34.42%{transform:scale(0.389,1)}34.44%,34.79%{transform:scale(0.407,1)}34.81%,35.15%{transform:scale(0.426,1)}35.17%,35.52%{transform:scale(0.444,1)}35.54%,35.89%{transform:scale(0.463,1)}35.91%,36.25%{transform:scale(0.481,1)}36.27%,38.45%{transform:scale(0.500,1)}38.47%,38.82%{transform:scale(0.519,1)}38.84%,39.18%{transform:scale(0.537,1)}39.2%,39.55%{transform:scale(0.556,1)}39.57%,39.92%{transform:scale(0.574,1)}39.94%,40.28%{transform:scale(0.593,1)}40.3%,40.65%{transform:scale(0.611,1)}40.67%,41.02%{transform:scale(0.630,1)}41.04%,41.38%{transform:scale(0.648,1)}41.4%,41.75%{transform:scale(0.667,1)}41.77%,42.11%{transform:scale(0.685,1)}42.13%,42.48%{transform:scale(0.704,1)}42.5%,43.21%{transform:scale(0.722,1)}43.23%,43.58%{transform:scale(0.741,1)}43.6%,43.95%{transform:scale(0.759,1)}43.97%,45.78%{transform:scale(0.778,1)}45.8%,46.14%{transform:scale(0.796,1)}46.16%,46.51%{transform:scale(0.815,1)}46.53%,46.88%{transform:scale(0.833,1)}46.9%,47.24%{transform:scale(0.852,1)}47.26%,47.61%{transform:scale(0.870,1)}47.63%,47.98%{transform:scale(0.889,1)}48%,49.07%{transform:scale(0.907,1)}49.09%,49.44%{transform:scale(0.926,1)}49.46%,50.91%{transform:scale(0.944,1)}50.93%,58.6%{transform:scale(0.963,1)}58.62%,61.89%{transform:scale(0.981,1)}61.91%,100%{transform:scale(1.000,1)}}.u.u1{fill:var(--c2);animation-name:u1;transform-origin:109.0px 0}@keyframes u2{68.12%{transform:scale(0.000,1)}68.14%,73.98%{transform:scale(0.143,1)}74%,74.35%{transform:scale(0.286,1)}74.37%,75.45%{transform:scale(0.429,1)}75.47%,77.28%{transform:scale(0.571,1)}77.3%,79.84%{transform:scale(0.714,1)}79.86%,84.24%{transform:scale(0.857,1)}84.26%,100%{transform:scale(1.000,1)}}.u.u2{fill:var(--c4);animation-name:u2;transform-origin:763.2px 0}.s{shape-rendering:geometricPrecision;fill:var(--cs);animation:none linear 27300ms infinite}@keyframes s0{0%,99.63%{transform:translate(0px,-16px)}0.37%{transform:translate(0px,0px)}6.23%{transform:translate(256px,0px)}6.59%{transform:translate(256px,16px)}7.33%{transform:translate(224px,16px)}8.79%{transform:translate(224px,80px)}14.65%{transform:translate(480px,80px)}15.38%{transform:translate(480px,48px)}19.41%{transform:translate(656px,48px)}19.78%{transform:translate(656px,64px)}20.15%{transform:translate(640px,64px)}20.51%,51.28%{transform:translate(640px,80px)}21.25%{transform:translate(672px,80px)}21.61%{transform:translate(672px,96px)}21.98%{transform:translate(688px,96px)}23.81%{transform:translate(688px,16px)}24.18%{transform:translate(672px,16px)}24.54%{transform:translate(672px,0px)}28.21%,80.22%{transform:translate(832px,0px)}28.57%{transform:translate(832px,-16px)}28.94%{transform:translate(816px,-16px)}29.67%{transform:translate(816px,16px)}31.14%{transform:translate(752px,16px)}31.5%{transform:translate(752px,32px)}32.97%{transform:translate(816px,32px)}33.33%{transform:translate(816px,48px)}35.16%{transform:translate(736px,48px)}35.53%,75.09%{transform:translate(736px,32px)}35.9%{transform:translate(720px,32px)}36.63%{transform:translate(720px,0px)}37%{transform:translate(704px,0px)}37.36%{transform:translate(704px,16px)}37.73%{transform:translate(720px,16px)}38.83%,48.35%{transform:translate(720px,64px)}39.56%{transform:translate(752px,64px)}39.93%{transform:translate(752px,80px)}41.39%,44.32%{transform:translate(816px,80px)}41.76%{transform:translate(816px,64px)}42.49%{transform:translate(784px,64px)}43.22%{transform:translate(784px,96px)}43.96%{transform:translate(816px,96px)}45.42%{transform:translate(768px,80px)}45.79%{transform:translate(768px,96px)}46.52%{transform:translate(736px,96px)}46.89%{transform:translate(736px,80px)}47.62%{transform:translate(704px,80px)}47.99%,73.63%{transform:translate(704px,64px)}49.08%{transform:translate(720px,96px)}50.92%{transform:translate(640px,96px)}55.68%{transform:translate(448px,80px)}56.04%{transform:translate(448px,64px)}61.17%{transform:translate(224px,64px)}61.9%{transform:translate(224px,96px)}67.4%{transform:translate(464px,96px)}68.13%{transform:translate(464px,64px)}74.36%{transform:translate(704px,32px)}75.46%{transform:translate(736px,16px)}76.19%{transform:translate(768px,16px)}77.29%{transform:translate(768px,64px)}78.75%{transform:translate(832px,64px)}97.8%{transform:translate(64px,0px)}98.17%{transform:translate(64px,-16px)}}.s.s0{transform:translate(0px,-16px);animation-name:s0}@keyframes s1{0%,99.63%{transform:translate(16px,-16px)}0.37%{transform:translate(0px,-16px)}0.73%{transform:translate(0px,0px)}6.59%{transform:translate(256px,0px)}6.96%{transform:translate(256px,16px)}7.69%{transform:translate(224px,16px)}9.16%{transform:translate(224px,80px)}15.02%{transform:translate(480px,80px)}15.75%{transform:translate(480px,48px)}19.78%{transform:translate(656px,48px)}20.15%{transform:translate(656px,64px)}20.51%{transform:translate(640px,64px)}20.88%,51.65%{transform:translate(640px,80px)}21.61%{transform:translate(672px,80px)}21.98%{transform:translate(672px,96px)}22.34%{transform:translate(688px,96px)}24.18%{transform:translate(688px,16px)}24.54%{transform:translate(672px,16px)}24.91%{transform:translate(672px,0px)}28.57%,80.59%{transform:translate(832px,0px)}28.94%{transform:translate(832px,-16px)}29.3%{transform:translate(816px,-16px)}30.04%{transform:translate(816px,16px)}31.5%{transform:translate(752px,16px)}31.87%{transform:translate(752px,32px)}33.33%{transform:translate(816px,32px)}33.7%{transform:translate(816px,48px)}35.53%{transform:translate(736px,48px)}35.9%,75.46%{transform:translate(736px,32px)}36.26%{transform:translate(720px,32px)}37%{transform:translate(720px,0px)}37.36%{transform:translate(704px,0px)}37.73%{transform:translate(704px,16px)}38.1%{transform:translate(720px,16px)}39.19%,48.72%{transform:translate(720px,64px)}39.93%{transform:translate(752px,64px)}40.29%{transform:translate(752px,80px)}41.76%,44.69%{transform:translate(816px,80px)}42.12%{transform:translate(816px,64px)}42.86%{transform:translate(784px,64px)}43.59%{transform:translate(784px,96px)}44.32%{transform:translate(816px,96px)}45.79%{transform:translate(768px,80px)}46.15%{transform:translate(768px,96px)}46.89%{transform:translate(736px,96px)}47.25%{transform:translate(736px,80px)}47.99%{transform:translate(704px,80px)}48.35%,73.99%{transform:translate(704px,64px)}49.45%{transform:translate(720px,96px)}51.28%{transform:translate(640px,96px)}56.04%{transform:translate(448px,80px)}56.41%{transform:translate(448px,64px)}61.54%{transform:translate(224px,64px)}62.27%{transform:translate(224px,96px)}67.77%{transform:translate(464px,96px)}68.5%{transform:translate(464px,64px)}74.73%{transform:translate(704px,32px)}75.82%{transform:translate(736px,16px)}76.56%{transform:translate(768px,16px)}77.66%{transform:translate(768px,64px)}79.12%{transform:translate(832px,64px)}98.17%{transform:translate(64px,0px)}98.53%{transform:translate(64px,-16px)}}.s.s1{transform:translate(16px,-16px);animation-name:s1}@keyframes s2{0%,99.63%{transform:translate(32px,-16px)}0.73%{transform:translate(0px,-16px)}1.1%{transform:translate(0px,0px)}6.96%{transform:translate(256px,0px)}7.33%{transform:translate(256px,16px)}8.06%{transform:translate(224px,16px)}9.52%{transform:translate(224px,80px)}15.38%{transform:translate(480px,80px)}16.12%{transform:translate(480px,48px)}20.15%{transform:translate(656px,48px)}20.51%{transform:translate(656px,64px)}20.88%{transform:translate(640px,64px)}21.25%,52.01%{transform:translate(640px,80px)}21.98%{transform:translate(672px,80px)}22.34%{transform:translate(672px,96px)}22.71%{transform:translate(688px,96px)}24.54%{transform:translate(688px,16px)}24.91%{transform:translate(672px,16px)}25.27%{transform:translate(672px,0px)}28.94%,80.95%{transform:translate(832px,0px)}29.3%{transform:translate(832px,-16px)}29.67%{transform:translate(816px,-16px)}30.4%{transform:translate(816px,16px)}31.87%{transform:translate(752px,16px)}32.23%{transform:translate(752px,32px)}33.7%{transform:translate(816px,32px)}34.07%{transform:translate(816px,48px)}35.9%{transform:translate(736px,48px)}36.26%,75.82%{transform:translate(736px,32px)}36.63%{transform:translate(720px,32px)}37.36%{transform:translate(720px,0px)}37.73%{transform:translate(704px,0px)}38.1%{transform:translate(704px,16px)}38.46%{transform:translate(720px,16px)}39.56%,49.08%{transform:translate(720px,64px)}40.29%{transform:translate(752px,64px)}40.66%{transform:translate(752px,80px)}42.12%,45.05%{transform:translate(816px,80px)}42.49%{transform:translate(816px,64px)}43.22%{transform:translate(784px,64px)}43.96%{transform:translate(784px,96px)}44.69%{transform:translate(816px,96px)}46.15%{transform:translate(768px,80px)}46.52%{transform:translate(768px,96px)}47.25%{transform:translate(736px,96px)}47.62%{transform:translate(736px,80px)}48.35%{transform:translate(704px,80px)}48.72%,74.36%{transform:translate(704px,64px)}49.82%{transform:translate(720px,96px)}51.65%{transform:translate(640px,96px)}56.41%{transform:translate(448px,80px)}56.78%{transform:translate(448px,64px)}61.9%{transform:translate(224px,64px)}62.64%{transform:translate(224px,96px)}68.13%{transform:translate(464px,96px)}68.86%{transform:translate(464px,64px)}75.09%{transform:translate(704px,32px)}76.19%{transform:translate(736px,16px)}76.92%{transform:translate(768px,16px)}78.02%{transform:translate(768px,64px)}79.49%{transform:translate(832px,64px)}98.53%{transform:translate(64px,0px)}98.9%{transform:translate(64px,-16px)}}.s.s2{transform:translate(32px,-16px);animation-name:s2}@keyframes s3{0%,99.63%{transform:translate(48px,-16px)}1.1%{transform:translate(0px,-16px)}1.47%{transform:translate(0px,0px)}7.33%{transform:translate(256px,0px)}7.69%{transform:translate(256px,16px)}8.42%{transform:translate(224px,16px)}9.89%{transform:translate(224px,80px)}15.75%{transform:translate(480px,80px)}16.48%{transform:translate(480px,48px)}20.51%{transform:translate(656px,48px)}20.88%{transform:translate(656px,64px)}21.25%{transform:translate(640px,64px)}21.61%,52.38%{transform:translate(640px,80px)}22.34%{transform:translate(672px,80px)}22.71%{transform:translate(672px,96px)}23.08%{transform:translate(688px,96px)}24.91%{transform:translate(688px,16px)}25.27%{transform:translate(672px,16px)}25.64%{transform:translate(672px,0px)}29.3%,81.32%{transform:translate(832px,0px)}29.67%{transform:translate(832px,-16px)}30.04%{transform:translate(816px,-16px)}30.77%{transform:translate(816px,16px)}32.23%{transform:translate(752px,16px)}32.6%{transform:translate(752px,32px)}34.07%{transform:translate(816px,32px)}34.43%{transform:translate(816px,48px)}36.26%{transform:translate(736px,48px)}36.63%,76.19%{transform:translate(736px,32px)}37%{transform:translate(720px,32px)}37.73%{transform:translate(720px,0px)}38.1%{transform:translate(704px,0px)}38.46%{transform:translate(704px,16px)}38.83%{transform:translate(720px,16px)}39.93%,49.45%{transform:translate(720px,64px)}40.66%{transform:translate(752px,64px)}41.03%{transform:translate(752px,80px)}42.49%,45.42%{transform:translate(816px,80px)}42.86%{transform:translate(816px,64px)}43.59%{transform:translate(784px,64px)}44.32%{transform:translate(784px,96px)}45.05%{transform:translate(816px,96px)}46.52%{transform:translate(768px,80px)}46.89%{transform:translate(768px,96px)}47.62%{transform:translate(736px,96px)}47.99%{transform:translate(736px,80px)}48.72%{transform:translate(704px,80px)}49.08%,74.73%{transform:translate(704px,64px)}50.18%{transform:translate(720px,96px)}52.01%{transform:translate(640px,96px)}56.78%{transform:translate(448px,80px)}57.14%{transform:translate(448px,64px)}62.27%{transform:translate(224px,64px)}63%{transform:translate(224px,96px)}68.5%{transform:translate(464px,96px)}69.23%{transform:translate(464px,64px)}75.46%{transform:translate(704px,32px)}76.56%{transform:translate(736px,16px)}77.29%{transform:translate(768px,16px)}78.39%{transform:translate(768px,64px)}79.85%{transform:translate(832px,64px)}98.9%{transform:translate(64px,0px)}99.27%{transform:translate(64px,-16px)}}.s.s3{transform:translate(48px,-16px);animation-name:s3}</style><rect class="c" x="2" y="2" rx="2" ry="2"/><rect class="c" x="2" y="18" rx="2" ry="2"/><rect class="c" x="2" y="34" rx="2" ry="2"/><rect class="c" x="2" y="50" rx="2" ry="2"/><rect class="c" x="2" y="66" rx="2" ry="2"/><rect class="c" x="2" y="82" rx="2" ry="2"/><rect class="c" x="2" y="98" rx="2" ry="2"/><rect class="c" x="18" y="2" rx="2" ry="2"/><rect class="c" x="18" y="18" rx="2" ry="2"/><rect class="c" x="18" y="34" rx="2" ry="2"/><rect class="c" x="18" y="50" rx="2" ry="2"/><rect class="c" x="18" y="66" rx="2" ry="2"/><rect class="c" x="18" y="82" rx="2" ry="2"/><rect class="c" x="18" y="98" rx="2" ry="2"/><rect class="c" x="34" y="2" rx="2" ry="2"/><rect class="c" x="34" y="18" rx="2" ry="2"/><rect class="c" x="34" y="34" rx="2" ry="2"/><rect class="c" x="34" y="50" rx="2" ry="2"/><rect class="c" x="34" y="66" rx="2" ry="2"/><rect class="c" x="34" y="82" rx="2" ry="2"/><rect class="c" x="34" y="98" rx="2" ry="2"/><rect class="c" x="50" y="2" rx="2" ry="2"/><rect class="c" x="50" y="18" rx="2" ry="2"/><rect class="c" x="50" y="34" rx="2" ry="2"/><rect class="c" x="50" y="50" rx="2" ry="2"/><rect class="c" x="50" y="66" rx="2" ry="2"/><rect class="c" x="50" y="82" rx="2" ry="2"/><rect class="c" x="50" y="98" rx="2" ry="2"/><rect class="c" x="66" y="2" rx="2" ry="2"/><rect class="c" x="66" y="18" rx="2" ry="2"/><rect class="c" x="66" y="34" rx="2" ry="2"/><rect class="c" x="66" y="50" rx="2" ry="2"/><rect class="c" x="66" y="66" rx="2" ry="2"/><rect class="c" x="66" y="82" rx="2" ry="2"/><rect class="c" x="66" y="98" rx="2" ry="2"/><rect class="c" x="82" y="2" rx="2" ry="2"/><rect class="c" x="82" y="18" rx="2" ry="2"/><rect class="c" x="82" y="34" rx="2" ry="2"/><rect class="c" x="82" y="50" rx="2" ry="2"/><rect class="c" x="82" y="66" rx="2" ry="2"/><rect class="c" x="82" y="82" rx="2" ry="2"/><rect class="c" x="82" y="98" rx="2" ry="2"/><rect class="c" x="98" y="2" rx="2" ry="2"/><rect class="c" x="98" y="18" rx="2" ry="2"/><rect class="c" x="98" y="34" rx="2" ry="2"/><rect class="c" x="98" y="50" rx="2" ry="2"/><rect class="c" x="98" y="66" rx="2" ry="2"/><rect class="c" x="98" y="82" rx="2" ry="2"/><rect class="c" x="98" y="98" rx="2" ry="2"/><rect class="c" x="114" y="2" rx="2" ry="2"/><rect class="c" x="114" y="18" rx="2" ry="2"/><rect class="c" x="114" y="34" rx="2" ry="2"/><rect class="c" x="114" y="50" rx="2" ry="2"/><rect class="c" x="114" y="66" rx="2" ry="2"/><rect class="c" x="114" y="82" rx="2" ry="2"/><rect class="c" x="114" y="98" rx="2" ry="2"/><rect class="c" x="130" y="2" rx="2" ry="2"/><rect class="c" x="130" y="18" rx="2" ry="2"/><rect class="c" x="130" y="34" rx="2" ry="2"/><rect class="c" x="130" y="50" rx="2" ry="2"/><rect class="c" x="130" y="66" rx="2" ry="2"/><rect class="c" x="130" y="82" rx="2" ry="2"/><rect class="c" x="130" y="98" rx="2" ry="2"/><rect class="c" x="146" y="2" rx="2" ry="2"/><rect class="c" x="146" y="18" rx="2" ry="2"/><rect class="c" x="146" y="34" rx="2" ry="2"/><rect class="c" x="146" y="50" rx="2" ry="2"/><rect class="c" x="146" y="66" rx="2" ry="2"/><rect class="c" x="146" y="82" rx="2" ry="2"/><rect class="c" x="146" y="98" rx="2" ry="2"/><rect class="c" x="162" y="2" rx="2" ry="2"/><rect class="c" x="162" y="18" rx="2" ry="2"/><rect class="c" x="162" y="34" rx="2" ry="2"/><rect class="c" x="162" y="50" rx="2" ry="2"/><rect class="c" x="162" y="66" rx="2" ry="2"/><rect class="c" x="162" y="82" rx="2" ry="2"/><rect class="c" x="162" y="98" rx="2" ry="2"/><rect class="c" x="178" y="2" rx="2" ry="2"/><rect class="c" x="178" y="18" rx="2" ry="2"/><rect class="c" x="178" y="34" rx="2" ry="2"/><rect class="c" x="178" y="50" rx="2" ry="2"/><rect class="c" x="178" y="66" rx="2" ry="2"/><rect class="c" x="178" y="82" rx="2" ry="2"/><rect class="c" x="178" y="98" rx="2" ry="2"/><rect class="c" x="194" y="2" rx="2" ry="2"/><rect class="c" x="194" y="18" rx="2" ry="2"/><rect class="c" x="194" y="34" rx="2" ry="2"/><rect class="c" x="194" y="50" rx="2" ry="2"/><rect class="c" x="194" y="66" rx="2" ry="2"/><rect class="c" x="194" y="82" rx="2" ry="2"/><rect class="c" x="194" y="98" rx="2" ry="2"/><rect class="c" x="210" y="2" rx="2" ry="2"/><rect class="c" x="210" y="18" rx="2" ry="2"/><rect class="c" x="210" y="34" rx="2" ry="2"/><rect class="c" x="210" y="50" rx="2" ry="2"/><rect class="c" x="210" y="66" rx="2" ry="2"/><rect class="c" x="210" y="82" rx="2" ry="2"/><rect class="c" x="210" y="98" rx="2" ry="2"/><rect class="c" x="226" y="2" rx="2" ry="2"/><rect class="c" x="226" y="18" rx="2" ry="2"/><rect class="c" x="226" y="34" rx="2" ry="2"/><rect class="c" x="226" y="50" rx="2" ry="2"/><rect class="c" x="226" y="66" rx="2" ry="2"/><rect class="c c0" x="226" y="82" rx="2" ry="2"/><rect class="c c1" x="226" y="98" rx="2" ry="2"/><rect class="c" x="242" y="2" rx="2" ry="2"/><rect class="c" x="242" y="18" rx="2" ry="2"/><rect class="c" x="242" y="34" rx="2" ry="2"/><rect class="c" x="242" y="50" rx="2" ry="2"/><rect class="c" x="242" y="66" rx="2" ry="2"/><rect class="c" x="242" y="82" rx="2" ry="2"/><rect class="c" x="242" y="98" rx="2" ry="2"/><rect class="c c2" x="258" y="2" rx="2" ry="2"/><rect class="c c3" x="258" y="18" rx="2" ry="2"/><rect class="c" x="258" y="34" rx="2" ry="2"/><rect class="c" x="258" y="50" rx="2" ry="2"/><rect class="c" x="258" y="66" rx="2" ry="2"/><rect class="c" x="258" y="82" rx="2" ry="2"/><rect class="c" x="258" y="98" rx="2" ry="2"/><rect class="c" x="274" y="2" rx="2" ry="2"/><rect class="c" x="274" y="18" rx="2" ry="2"/><rect class="c" x="274" y="34" rx="2" ry="2"/><rect class="c" x="274" y="50" rx="2" ry="2"/><rect class="c" x="274" y="66" rx="2" ry="2"/><rect class="c" x="274" y="82" rx="2" ry="2"/><rect class="c" x="274" y="98" rx="2" ry="2"/><rect class="c" x="290" y="2" rx="2" ry="2"/><rect class="c" x="290" y="18" rx="2" ry="2"/><rect class="c" x="290" y="34" rx="2" ry="2"/><rect class="c" x="290" y="50" rx="2" ry="2"/><rect class="c" x="290" y="66" rx="2" ry="2"/><rect class="c" x="290" y="82" rx="2" ry="2"/><rect class="c" x="290" y="98" rx="2" ry="2"/><rect class="c" x="306" y="2" rx="2" ry="2"/><rect class="c" x="306" y="18" rx="2" ry="2"/><rect class="c" x="306" y="34" rx="2" ry="2"/><rect class="c" x="306" y="50" rx="2" ry="2"/><rect class="c" x="306" y="66" rx="2" ry="2"/><rect class="c" x="306" y="82" rx="2" ry="2"/><rect class="c" x="306" y="98" rx="2" ry="2"/><rect class="c" x="322" y="2" rx="2" ry="2"/><rect class="c" x="322" y="18" rx="2" ry="2"/><rect class="c" x="322" y="34" rx="2" ry="2"/><rect class="c" x="322" y="50" rx="2" ry="2"/><rect class="c" x="322" y="66" rx="2" ry="2"/><rect class="c" x="322" y="82" rx="2" ry="2"/><rect class="c" x="322" y="98" rx="2" ry="2"/><rect class="c" x="338" y="2" rx="2" ry="2"/><rect class="c" x="338" y="18" rx="2" ry="2"/><rect class="c" x="338" y="34" rx="2" ry="2"/><rect class="c" x="338" y="50" rx="2" ry="2"/><rect class="c c4" x="338" y="66" rx="2" ry="2"/><rect class="c" x="338" y="82" rx="2" ry="2"/><rect class="c" x="338" y="98" rx="2" ry="2"/><rect class="c" x="354" y="2" rx="2" ry="2"/><rect class="c" x="354" y="18" rx="2" ry="2"/><rect class="c" x="354" y="34" rx="2" ry="2"/><rect class="c" x="354" y="50" rx="2" ry="2"/><rect class="c" x="354" y="66" rx="2" ry="2"/><rect class="c" x="354" y="82" rx="2" ry="2"/><rect class="c" x="354" y="98" rx="2" ry="2"/><rect class="c" x="370" y="2" rx="2" ry="2"/><rect class="c" x="370" y="18" rx="2" ry="2"/><rect class="c" x="370" y="34" rx="2" ry="2"/><rect class="c" x="370" y="50" rx="2" ry="2"/><rect class="c" x="370" y="66" rx="2" ry="2"/><rect class="c" x="370" y="82" rx="2" ry="2"/><rect class="c" x="370" y="98" rx="2" ry="2"/><rect class="c" x="386" y="2" rx="2" ry="2"/><rect class="c" x="386" y="18" rx="2" ry="2"/><rect class="c" x="386" y="34" rx="2" ry="2"/><rect class="c" x="386" y="50" rx="2" ry="2"/><rect class="c" x="386" y="66" rx="2" ry="2"/><rect class="c" x="386" y="82" rx="2" ry="2"/><rect class="c" x="386" y="98" rx="2" ry="2"/><rect class="c" x="402" y="2" rx="2" ry="2"/><rect class="c" x="402" y="18" rx="2" ry="2"/><rect class="c" x="402" y="34" rx="2" ry="2"/><rect class="c" x="402" y="50" rx="2" ry="2"/><rect class="c" x="402" y="66" rx="2" ry="2"/><rect class="c" x="402" y="82" rx="2" ry="2"/><rect class="c" x="402" y="98" rx="2" ry="2"/><rect class="c" x="418" y="2" rx="2" ry="2"/><rect class="c" x="418" y="18" rx="2" ry="2"/><rect class="c" x="418" y="34" rx="2" ry="2"/><rect class="c" x="418" y="50" rx="2" ry="2"/><rect class="c" x="418" y="66" rx="2" ry="2"/><rect class="c" x="418" y="82" rx="2" ry="2"/><rect class="c" x="418" y="98" rx="2" ry="2"/><rect class="c" x="434" y="2" rx="2" ry="2"/><rect class="c" x="434" y="18" rx="2" ry="2"/><rect class="c" x="434" y="34" rx="2" ry="2"/><rect class="c" x="434" y="50" rx="2" ry="2"/><rect class="c" x="434" y="66" rx="2" ry="2"/><rect class="c" x="434" y="82" rx="2" ry="2"/><rect class="c" x="434" y="98" rx="2" ry="2"/><rect class="c" x="450" y="2" rx="2" ry="2"/><rect class="c" x="450" y="18" rx="2" ry="2"/><rect class="c" x="450" y="34" rx="2" ry="2"/><rect class="c" x="450" y="50" rx="2" ry="2"/><rect class="c" x="450" y="66" rx="2" ry="2"/><rect class="c" x="450" y="82" rx="2" ry="2"/><rect class="c" x="450" y="98" rx="2" ry="2"/><rect class="c" x="466" y="2" rx="2" ry="2"/><rect class="c" x="466" y="18" rx="2" ry="2"/><rect class="c" x="466" y="34" rx="2" ry="2"/><rect class="c" x="466" y="50" rx="2" ry="2"/><rect class="c c5" x="466" y="66" rx="2" ry="2"/><rect class="c" x="466" y="82" rx="2" ry="2"/><rect class="c" x="466" y="98" rx="2" ry="2"/><rect class="c" x="482" y="2" rx="2" ry="2"/><rect class="c" x="482" y="18" rx="2" ry="2"/><rect class="c" x="482" y="34" rx="2" ry="2"/><rect class="c c6" x="482" y="50" rx="2" ry="2"/><rect class="c" x="482" y="66" rx="2" ry="2"/><rect class="c" x="482" y="82" rx="2" ry="2"/><rect class="c" x="482" y="98" rx="2" ry="2"/><rect class="c" x="498" y="2" rx="2" ry="2"/><rect class="c" x="498" y="18" rx="2" ry="2"/><rect class="c" x="498" y="34" rx="2" ry="2"/><rect class="c" x="498" y="50" rx="2" ry="2"/><rect class="c" x="498" y="66" rx="2" ry="2"/><rect class="c" x="498" y="82" rx="2" ry="2"/><rect class="c" x="498" y="98" rx="2" ry="2"/><rect class="c" x="514" y="2" rx="2" ry="2"/><rect class="c" x="514" y="18" rx="2" ry="2"/><rect class="c" x="514" y="34" rx="2" ry="2"/><rect class="c" x="514" y="50" rx="2" ry="2"/><rect class="c" x="514" y="66" rx="2" ry="2"/><rect class="c" x="514" y="82" rx="2" ry="2"/><rect class="c" x="514" y="98" rx="2" ry="2"/><rect class="c" x="530" y="2" rx="2" ry="2"/><rect class="c" x="530" y="18" rx="2" ry="2"/><rect class="c" x="530" y="34" rx="2" ry="2"/><rect class="c" x="530" y="50" rx="2" ry="2"/><rect class="c" x="530" y="66" rx="2" ry="2"/><rect class="c" x="530" y="82" rx="2" ry="2"/><rect class="c" x="530" y="98" rx="2" ry="2"/><rect class="c" x="546" y="2" rx="2" ry="2"/><rect class="c" x="546" y="18" rx="2" ry="2"/><rect class="c" x="546" y="34" rx="2" ry="2"/><rect class="c" x="546" y="50" rx="2" ry="2"/><rect class="c" x="546" y="66" rx="2" ry="2"/><rect class="c" x="546" y="82" rx="2" ry="2"/><rect class="c" x="546" y="98" rx="2" ry="2"/><rect class="c" x="562" y="2" rx="2" ry="2"/><rect class="c" x="562" y="18" rx="2" ry="2"/><rect class="c" x="562" y="34" rx="2" ry="2"/><rect class="c" x="562" y="50" rx="2" ry="2"/><rect class="c" x="562" y="66" rx="2" ry="2"/><rect class="c" x="562" y="82" rx="2" ry="2"/><rect class="c" x="562" y="98" rx="2" ry="2"/><rect class="c" x="578" y="2" rx="2" ry="2"/><rect class="c" x="578" y="18" rx="2" ry="2"/><rect class="c" x="578" y="34" rx="2" ry="2"/><rect class="c" x="578" y="50" rx="2" ry="2"/><rect class="c" x="578" y="66" rx="2" ry="2"/><rect class="c" x="578" y="82" rx="2" ry="2"/><rect class="c" x="578" y="98" rx="2" ry="2"/><rect class="c" x="594" y="2" rx="2" ry="2"/><rect class="c" x="594" y="18" rx="2" ry="2"/><rect class="c" x="594" y="34" rx="2" ry="2"/><rect class="c" x="594" y="50" rx="2" ry="2"/><rect class="c" x="594" y="66" rx="2" ry="2"/><rect class="c" x="594" y="82" rx="2" ry="2"/><rect class="c" x="594" y="98" rx="2" ry="2"/><rect class="c" x="610" y="2" rx="2" ry="2"/><rect class="c" x="610" y="18" rx="2" ry="2"/><rect class="c" x="610" y="34" rx="2" ry="2"/><rect class="c" x="610" y="50" rx="2" ry="2"/><rect class="c" x="610" y="66" rx="2" ry="2"/><rect class="c" x="610" y="82" rx="2" ry="2"/><rect class="c" x="610" y="98" rx="2" ry="2"/><rect class="c" x="626" y="2" rx="2" ry="2"/><rect class="c" x="626" y="18" rx="2" ry="2"/><rect class="c" x="626" y="34" rx="2" ry="2"/><rect class="c" x="626" y="50" rx="2" ry="2"/><rect class="c" x="626" y="66" rx="2" ry="2"/><rect class="c" x="626" y="82" rx="2" ry="2"/><rect class="c" x="626" y="98" rx="2" ry="2"/><rect class="c" x="642" y="2" rx="2" ry="2"/><rect class="c" x="642" y="18" rx="2" ry="2"/><rect class="c" x="642" y="34" rx="2" ry="2"/><rect class="c" x="642" y="50" rx="2" ry="2"/><rect class="c c7" x="642" y="66" rx="2" ry="2"/><rect class="c" x="642" y="82" rx="2" ry="2"/><rect class="c c8" x="642" y="98" rx="2" ry="2"/><rect class="c c9" x="658" y="2" rx="2" ry="2"/><rect class="c" x="658" y="18" rx="2" ry="2"/><rect class="c" x="658" y="34" rx="2" ry="2"/><rect class="c ca" x="658" y="50" rx="2" ry="2"/><rect class="c" x="658" y="66" rx="2" ry="2"/><rect class="c" x="658" y="82" rx="2" ry="2"/><rect class="c" x="658" y="98" rx="2" ry="2"/><rect class="c" x="674" y="2" rx="2" ry="2"/><rect class="c cb" x="674" y="18" rx="2" ry="2"/><rect class="c" x="674" y="34" rx="2" ry="2"/><rect class="c" x="674" y="50" rx="2" ry="2"/><rect class="c" x="674" y="66" rx="2" ry="2"/><rect class="c cc" x="674" y="82" rx="2" ry="2"/><rect class="c cd" x="674" y="98" rx="2" ry="2"/><rect class="c" x="690" y="2" rx="2" ry="2"/><rect class="c" x="690" y="18" rx="2" ry="2"/><rect class="c" x="690" y="34" rx="2" ry="2"/><rect class="c" x="690" y="50" rx="2" ry="2"/><rect class="c" x="690" y="66" rx="2" ry="2"/><rect class="c" x="690" y="82" rx="2" ry="2"/><rect class="c" x="690" y="98" rx="2" ry="2"/><rect class="c" x="706" y="2" rx="2" ry="2"/><rect class="c" x="706" y="18" rx="2" ry="2"/><rect class="c ce" x="706" y="34" rx="2" ry="2"/><rect class="c cf" x="706" y="50" rx="2" ry="2"/><rect class="c cg" x="706" y="66" rx="2" ry="2"/><rect class="c ch" x="706" y="82" rx="2" ry="2"/><rect class="c ci" x="706" y="98" rx="2" ry="2"/><rect class="c cj" x="722" y="2" rx="2" ry="2"/><rect class="c ck" x="722" y="18" rx="2" ry="2"/><rect class="c cl" x="722" y="34" rx="2" ry="2"/><rect class="c cm" x="722" y="50" rx="2" ry="2"/><rect class="c cn" x="722" y="66" rx="2" ry="2"/><rect class="c co" x="722" y="82" rx="2" ry="2"/><rect class="c cp" x="722" y="98" rx="2" ry="2"/><rect class="c cq" x="738" y="2" rx="2" ry="2"/><rect class="c cr" x="738" y="18" rx="2" ry="2"/><rect class="c cs" x="738" y="34" rx="2" ry="2"/><rect class="c ct" x="738" y="50" rx="2" ry="2"/><rect class="c cu" x="738" y="66" rx="2" ry="2"/><rect class="c cv" x="738" y="82" rx="2" ry="2"/><rect class="c cw" x="738" y="98" rx="2" ry="2"/><rect class="c cx" x="754" y="2" rx="2" ry="2"/><rect class="c cy" x="754" y="18" rx="2" ry="2"/><rect class="c cz" x="754" y="34" rx="2" ry="2"/><rect class="c c10" x="754" y="50" rx="2" ry="2"/><rect class="c c11" x="754" y="66" rx="2" ry="2"/><rect class="c c12" x="754" y="82" rx="2" ry="2"/><rect class="c c13" x="754" y="98" rx="2" ry="2"/><rect class="c c14" x="770" y="2" rx="2" ry="2"/><rect class="c c15" x="770" y="18" rx="2" ry="2"/><rect class="c c16" x="770" y="34" rx="2" ry="2"/><rect class="c c17" x="770" y="50" rx="2" ry="2"/><rect class="c c18" x="770" y="66" rx="2" ry="2"/><rect class="c c19" x="770" y="82" rx="2" ry="2"/><rect class="c c1a" x="770" y="98" rx="2" ry="2"/><rect class="c c1b" x="786" y="2" rx="2" ry="2"/><rect class="c c1c" x="786" y="18" rx="2" ry="2"/><rect class="c c1d" x="786" y="34" rx="2" ry="2"/><rect class="c c1e" x="786" y="50" rx="2" ry="2"/><rect class="c c1f" x="786" y="66" rx="2" ry="2"/><rect class="c c1g" x="786" y="82" rx="2" ry="2"/><rect class="c c1h" x="786" y="98" rx="2" ry="2"/><rect class="c c1i" x="802" y="2" rx="2" ry="2"/><rect class="c c1j" x="802" y="18" rx="2" ry="2"/><rect class="c c1k" x="802" y="34" rx="2" ry="2"/><rect class="c c1l" x="802" y="50" rx="2" ry="2"/><rect class="c c1m" x="802" y="66" rx="2" ry="2"/><rect class="c c1n" x="802" y="82" rx="2" ry="2"/><rect class="c c1o" x="802" y="98" rx="2" ry="2"/><rect class="c c1p" x="818" y="2" rx="2" ry="2"/><rect class="c c1q" x="818" y="18" rx="2" ry="2"/><rect class="c c1r" x="818" y="34" rx="2" ry="2"/><rect class="c c1s" x="818" y="50" rx="2" ry="2"/><rect class="c c1t" x="818" y="66" rx="2" ry="2"/><rect class="c c1u" x="818" y="82" rx="2" ry="2"/><rect class="c c1v" x="818" y="98" rx="2" ry="2"/><rect class="c c1w" x="834" y="2" rx="2" ry="2"/><rect class="c c1x" x="834" y="18" rx="2" ry="2"/><rect class="u u0" height="12" width="109.6" x="0.0" y="144"/><rect class="u u1" height="12" width="654.8" x="109.0" y="144"/><rect class="u u2" height="12" width="85.4" x="763.2" y="144"/><rect class="s s0" x="0.8" y="0.8" width="14.4" height="14.4" rx="4.5" ry="4.5"/><rect class="s s1" x="1.8" y="1.8" width="12.3" height="12.3" rx="4.1" ry="4.1"/><rect class="s s2" x="2.6" y="2.6" width="10.8" height="10.8" rx="3.6" ry="3.6"/><rect class="s s3" x="3.0" y="3.0" width="9.9" height="9.9" rx="3.3" ry="3.3"/></svg>