<svg viewBox="-16 -32 880 192" width="880" height="192" xmlns="http://www.w3.org/2000/svg"><desc>Generated with https://github.com/Platane/snk</desc><style>:root{--cb:#1b1f230a;--cs:purple;--ce:#ebedf0;--c0:#ebedf0;--c1:#9be9a8;--c2:#40c463;--c3:#30a14e;--c4:#216e39}.c{shape-rendering:geometricPrecision;fill:var(--ce);stroke-width:1px;stroke:var(--cb);animation:none 28500ms linear infinite;width:12px;height:12px}@keyframes c0{8.41%{fill:var(--c1)}8.43%,100%{fill:var(--ce)}}.c.c0{fill:var(--c1);animation-name:c0}@keyframes c1{59.99%{fill:var(--c2)}60.01%,100%{fill:var(--ce)}}.c.c1{fill:var(--c2);animation-name:c1}@keyframes c2{5.95%{fill:var(--c1)}5.97%,100%{fill:var(--ce)}}.c.c2{fill:var(--c1);animation-name:c2}@keyframes c3{6.31%{fill:var(--c1)}6.33%,100%{fill:var(--ce)}}.c.c3{fill:var(--c1);animation-name:c3}@keyframes c4{56.83%{fill:var(--c2)}56.85%,100%{fill:var(--ce)}}.c.c4{fill:var(--c2);animation-name:c4}@keyframes c5{65.95%{fill:var(--c4)}65.97%,100%{fill:var(--ce)}}.c.c5{fill:var(--c4);animation-name:c5}@keyframes c6{14.73%{fill:var(--c1)}14.75%,100%{fill:var(--ce)}}.c.c6{fill:var(--c1);animation-name:c6}@keyframes c7{19.29%{fill:var(--c1)}19.31%,100%{fill:var(--ce)}}.c.c7{fill:var(--c1);animation-name:c7}@keyframes c8{49.46%{fill:var(--c2)}49.48%,100%{fill:var(--ce)}}.c.c8{fill:var(--c2);animation-name:c8}@keyframes c9{84.9%{fill:var(--c4)}84.92%,100%{fill:var(--ce)}}.c.c9{fill:var(--c4);animation-name:c9}@keyframes ca{18.59%{fill:var(--c1)}18.61%,100%{fill:var(--ce)}}.c.ca{fill:var(--c1);animation-name:ca}@keyframes cb{23.15%{fill:var(--c1)}23.17%,100%{fill:var(--ce)}}.c.cb{fill:var(--c1);animation-name:cb}@keyframes cc{20.34%{fill:var(--c1)}20.36%,100%{fill:var(--ce)}}.c.cc{fill:var(--c1);animation-name:cc}@keyframes cd{20.69%{fill:var(--c1)}20.71%,100%{fill:var(--ce)}}.c.cd{fill:var(--c1);animation-name:cd}@keyframes ce{71.92%{fill:var(--c4)}71.94%,100%{fill:var(--ce)}}.c.ce{fill:var(--c4);animation-name:ce}@keyframes cf{71.57%{fill:var(--c4)}71.59%,100%{fill:var(--ce)}}.c.cf{fill:var(--c4);animation-name:cf}@keyframes cg{46.66%{fill:var(--c2)}46.68%,100%{fill:var(--ce)}}.c.cg{fill:var(--c2);animation-name:cg}@keyframes ch{46.31%{fill:var(--c2)}46.33%,100%{fill:var(--ce)}}.c.ch{fill:var(--c2);animation-name:ch}@keyframes ci{48.06%{fill:var(--c2)}48.08%,100%{fill:var(--ce)}}.c.ci{fill:var(--c2);animation-name:ci}@keyframes cj{24.55%{fill:var(--c2)}24.57%,100%{fill:var(--ce)}}.c.cj{fill:var(--c2);animation-name:cj}@keyframes ck{34.73%{fill:var(--c2)}34.75%,100%{fill:var(--ce)}}.c.ck{fill:var(--c2);animation-name:ck}@keyframes cl{34.38%{fill:var(--c2)}34.4%,100%{fill:var(--ce)}}.c.cl{fill:var(--c2);animation-name:cl}@keyframes cm{36.83%{fill:var(--c2)}36.85%,100%{fill:var(--ce)}}.c.cm{fill:var(--c2);animation-name:cm}@keyframes cn{37.18%{fill:var(--c2)}37.2%,100%{fill:var(--ce)}}.c.cn{fill:var(--c2);animation-name:cn}@keyframes co{45.95%{fill:var(--c2)}45.97%,100%{fill:var(--ce)}}.c.co{fill:var(--c2);animation-name:co}@keyframes cp{47.71%{fill:var(--c2)}47.73%,100%{fill:var(--ce)}}.c.cp{fill:var(--c2);animation-name:cp}@keyframes cq{24.9%{fill:var(--c2)}24.92%,100%{fill:var(--ce)}}.c.cq{fill:var(--c2);animation-name:cq}@keyframes cr{72.97%{fill:var(--c4)}72.99%,100%{fill:var(--ce)}}.c.cr{fill:var(--c4);animation-name:cr}@keyframes cs{34.03%{fill:var(--c2)}34.05%,100%{fill:var(--ce)}}.c.cs{fill:var(--c2);animation-name:cs}@keyframes ct{33.67%{fill:var(--c2)}33.69%,100%{fill:var(--ce)}}.c.ct{fill:var(--c2);animation-name:ct}@keyframes cu{37.53%{fill:var(--c2)}37.55%,100%{fill:var(--ce)}}.c.cu{fill:var(--c2);animation-name:cu}@keyframes cv{45.6%{fill:var(--c2)}45.62%,100%{fill:var(--ce)}}.c.cv{fill:var(--c2);animation-name:cv}@keyframes cw{45.25%{fill:var(--c2)}45.27%,100%{fill:var(--ce)}}.c.cw{fill:var(--c2);animation-name:cw}@keyframes cx{25.25%{fill:var(--c2)}25.27%,100%{fill:var(--ce)}}.c.cx{fill:var(--c2);animation-name:cx}@keyframes cy{29.81%{fill:var(--c2)}29.83%,100%{fill:var(--ce)}}.c.cy{fill:var(--c2);animation-name:cy}@keyframes cz{30.17%{fill:var(--c2)}30.19%,100%{fill:var(--ce)}}.c.cz{fill:var(--c2);animation-name:cz}@keyframes c10{33.32%{fill:var(--c2)}33.34%,100%{fill:var(--ce)}}.c.c10{fill:var(--c2);animation-name:c10}@keyframes c11{37.88%{fill:var(--c2)}37.9%,100%{fill:var(--ce)}}.c.c11{fill:var(--c2);animation-name:c11}@keyframes c12{38.24%{fill:var(--c2)}38.26%,100%{fill:var(--ce)}}.c.c12{fill:var(--c2);animation-name:c12}@keyframes c13{44.9%{fill:var(--c2)}44.92%,100%{fill:var(--ce)}}.c.c13{fill:var(--c2);animation-name:c13}@keyframes c14{25.6%{fill:var(--c2)}25.62%,100%{fill:var(--ce)}}.c.c14{fill:var(--c2);animation-name:c14}@keyframes c15{29.46%{fill:var(--c2)}29.48%,100%{fill:var(--ce)}}.c.c15{fill:var(--c2);animation-name:c15}@keyframes c16{30.52%{fill:var(--c2)}30.54%,100%{fill:var(--ce)}}.c.c16{fill:var(--c2);animation-name:c16}@keyframes c17{32.97%{fill:var(--c2)}32.99%,100%{fill:var(--ce)}}.c.c17{fill:var(--c2);animation-name:c17}@keyframes c18{74.73%{fill:var(--c4)}74.75%,100%{fill:var(--ce)}}.c.c18{fill:var(--c4);animation-name:c18}@keyframes c19{38.59%{fill:var(--c2)}38.61%,100%{fill:var(--ce)}}.c.c19{fill:var(--c2);animation-name:c19}@keyframes c1a{44.55%{fill:var(--c2)}44.57%,100%{fill:var(--ce)}}.c.c1a{fill:var(--c2);animation-name:c1a}@keyframes c1b{25.95%{fill:var(--c2)}25.97%,100%{fill:var(--ce)}}.c.c1b{fill:var(--c2);animation-name:c1b}@keyframes c1c{29.11%{fill:var(--c2)}29.13%,100%{fill:var(--ce)}}.c.c1c{fill:var(--c2);animation-name:c1c}@keyframes c1d{30.87%{fill:var(--c2)}30.89%,100%{fill:var(--ce)}}.c.c1d{fill:var(--c2);animation-name:c1d}@keyframes c1e{32.62%{fill:var(--c2)}32.64%,100%{fill:var(--ce)}}.c.c1e{fill:var(--c2);animation-name:c1e}@keyframes c1f{40.69%{fill:var(--c2)}40.71%,100%{fill:var(--ce)}}.c.c1f{fill:var(--c2);animation-name:c1f}@keyframes c1g{38.94%{fill:var(--c2)}38.96%,100%{fill:var(--ce)}}.c.c1g{fill:var(--c2);animation-name:c1g}@keyframes c1h{41.39%{fill:var(--c2)}41.41%,100%{fill:var(--ce)}}.c.c1h{fill:var(--c2);animation-name:c1h}@keyframes c1i{26.31%{fill:var(--c2)}26.33%,100%{fill:var(--ce)}}.c.c1i{fill:var(--c2);animation-name:c1i}@keyframes c1j{28.76%{fill:var(--c2)}28.78%,100%{fill:var(--ce)}}.c.c1j{fill:var(--c2);animation-name:c1j}@keyframes c1k{31.22%{fill:var(--c2)}31.24%,100%{fill:var(--ce)}}.c.c1k{fill:var(--c2);animation-name:c1k}@keyframes c1l{32.27%{fill:var(--c2)}32.29%,100%{fill:var(--ce)}}.c.c1l{fill:var(--c2);animation-name:c1l}@keyframes c1m{40.34%{fill:var(--c2)}40.36%,100%{fill:var(--ce)}}.c.c1m{fill:var(--c2);animation-name:c1m}@keyframes c1n{39.29%{fill:var(--c2)}39.31%,100%{fill:var(--ce)}}.c.c1n{fill:var(--c2);animation-name:c1n}@keyframes c1o{41.74%{fill:var(--c2)}41.76%,100%{fill:var(--ce)}}.c.c1o{fill:var(--c2);animation-name:c1o}@keyframes c1p{26.66%{fill:var(--c2)}26.68%,100%{fill:var(--ce)}}.c.c1p{fill:var(--c2);animation-name:c1p}@keyframes c1q{28.41%{fill:var(--c2)}28.43%,100%{fill:var(--ce)}}.c.c1q{fill:var(--c2);animation-name:c1q}@keyframes c1r{31.57%{fill:var(--c2)}31.59%,100%{fill:var(--ce)}}.c.c1r{fill:var(--c2);animation-name:c1r}@keyframes c1s{31.92%{fill:var(--c2)}31.94%,100%{fill:var(--ce)}}.c.c1s{fill:var(--c2);animation-name:c1s}@keyframes c1t{39.99%{fill:var(--c2)}40.01%,100%{fill:var(--ce)}}.c.c1t{fill:var(--c2);animation-name:c1t}@keyframes c1u{39.64%{fill:var(--c2)}39.66%,100%{fill:var(--ce)}}.c.c1u{fill:var(--c2);animation-name:c1u}@keyframes c1v{42.1%{fill:var(--c2)}42.12%,100%{fill:var(--ce)}}.c.c1v{fill:var(--c2);animation-name:c1v}@keyframes c1w{27.01%{fill:var(--c2)}27.03%,100%{fill:var(--ce)}}.c.c1w{fill:var(--c2);animation-name:c1w}@keyframes c1x{77.18%{fill:var(--c4)}77.2%,100%{fill:var(--ce)}}.c.c1x{fill:var(--c4);animation-name:c1x}@keyframes c1y{76.83%{fill:var(--c4)}76.85%,100%{fill:var(--ce)}}.c.c1y{fill:var(--c4);animation-name:c1y}@keyframes c1z{76.48%{fill:var(--c4)}76.5%,100%{fill:var(--ce)}}.c.c1z{fill:var(--c4);animation-name:c1z}@keyframes c20{76.13%{fill:var(--c4)}76.15%,100%{fill:var(--ce)}}.c.c20{fill:var(--c4);animation-name:c20}@keyframes c21{79.29%{fill:var(--c4)}79.31%,100%{fill:var(--ce)}}.c.c21{fill:var(--c4);animation-name:c21}@keyframes c22{42.45%{fill:var(--c2)}42.47%,100%{fill:var(--ce)}}.c.c22{fill:var(--c2);animation-name:c22}.u{transform-origin:0 0;transform:scale(0,1);animation:none linear 28500ms infinite}@keyframes u0{5.95%{transform:scale(0.000,1)}5.97%,6.31%{transform:scale(0.111,1)}6.33%,8.41%{transform:scale(0.222,1)}8.43%,14.73%{transform:scale(0.333,1)}14.75%,18.59%{transform:scale(0.444,1)}18.61%,19.29%{transform:scale(0.556,1)}19.31%,20.34%{transform:scale(0.667,1)}20.36%,20.69%{transform:scale(0.778,1)}20.71%,23.15%{transform:scale(0.889,1)}23.17%,100%{transform:scale(1.000,1)}}.u.u0{fill:var(--c1);animation-name:u0;transform-origin:0.0px 0}@keyframes u1{24.55%{transform:scale(0.000,1)}24.57%,24.9%{transform:scale(0.018,1)}24.92%,25.25%{transform:scale(0.036,1)}25.27%,25.6%{transform:scale(0.055,1)}25.62%,25.95%{transform:scale(0.073,1)}25.97%,26.31%{transform:scale(0.091,1)}26.33%,26.66%{transform:scale(0.109,1)}26.68%,27.01%{transform:scale(0.127,1)}27.03%,28.41%{transform:scale(0.145,1)}28.43%,28.76%{transform:scale(0.164,1)}28.78%,29.11%{transform:scale(0.182,1)}29.13%,29.46%{transform:scale(0.200,1)}29.48%,29.81%{transform:scale(0.218,1)}29.83%,30.17%{transform:scale(0.236,1)}30.19%,30.52%{transform:scale(0.255,1)}30.54%,30.87%{transform:scale(0.273,1)}30.89%,31.22%{transform:scale(0.291,1)}31.24%,31.57%{transform:scale(0.309,1)}31.59%,31.92%{transform:scale(0.327,1)}31.94%,32.27%{transform:scale(0.345,1)}32.29%,32.62%{transform:scale(0.364,1)}32.64%,32.97%{transform:scale(0.382,1)}32.99%,33.32%{transform:scale(0.400,1)}33.34%,33.67%{transform:scale(0.418,1)}33.69%,34.03%{transform:scale(0.436,1)}34.05%,34.38%{transform:scale(0.455,1)}34.4%,34.73%{transform:scale(0.473,1)}34.75%,36.83%{transform:scale(0.491,1)}36.85%,37.18%{transform:scale(0.509,1)}37.2%,37.53%{transform:scale(0.527,1)}37.55%,37.88%{transform:scale(0.545,1)}37.9%,38.24%{transform:scale(0.564,1)}38.26%,38.59%{transform:scale(0.582,1)}38.61%,38.94%{transform:scale(0.600,1)}38.96%,39.29%{transform:scale(0.618,1)}39.31%,39.64%{transform:scale(0.636,1)}39.66%,39.99%{transform:scale(0.655,1)}40.01%,40.34%{transform:scale(0.673,1)}40.36%,40.69%{transform:scale(0.691,1)}40.71%,41.39%{transform:scale(0.709,1)}41.41%,41.74%{transform:scale(0.727,1)}41.76%,42.1%{transform:scale(0.745,1)}42.12%,42.45%{transform:scale(0.764,1)}42.47%,44.55%{transform:scale(0.782,1)}44.57%,44.9%{transform:scale(0.800,1)}44.92%,45.25%{transform:scale(0.818,1)}45.27%,45.6%{transform:scale(0.836,1)}45.62%,45.95%{transform:scale(0.855,1)}45.97%,46.31%{transform:scale(0.873,1)}46.33%,46.66%{transform:scale(0.891,1)}46.68%,47.71%{transform:scale(0.909,1)}47.73%,48.06%{transform:scale(0.927,1)}48.08%,49.46%{transform:scale(0.945,1)}49.48%,56.83%{transform:scale(0.964,1)}56.85%,59.99%{transform:scale(0.982,1)}60.01%,100%{transform:scale(1.000,1)}}.u.u1{fill:var(--c2);animation-name:u1;transform-origin:101.8px 0}@keyframes u2{65.95%{transform:scale(0.000,1)}65.97%,71.57%{transform:scale(0.091,1)}71.59%,71.92%{transform:scale(0.182,1)}71.94%,72.97%{transform:scale(0.273,1)}72.99%,74.73%{transform:scale(0.364,1)}74.75%,76.13%{transform:scale(0.455,1)}76.15%,76.48%{transform:scale(0.545,1)}76.5%,76.83%{transform:scale(0.636,1)}76.85%,77.18%{transform:scale(0.727,1)}77.2%,79.29%{transform:scale(0.818,1)}79.31%,84.9%{transform:scale(0.909,1)}84.92%,100%{transform:scale(1.000,1)}}.u.u2{fill:var(--c4);animation-name:u2;transform-origin:723.6px 0}.s{shape-rendering:geometricPrecision;fill:var(--cs);animation:none linear 28500ms infinite}@keyframes s0{0%,99.65%{transform:translate(0px,-16px)}0.35%{transform:translate(0px,0px)}5.96%{transform:translate(256px,0px)}6.32%{transform:translate(256px,16px)}7.02%{transform:translate(224px,16px)}8.42%{transform:translate(224px,80px)}14.04%{transform:translate(480px,80px)}14.74%{transform:translate(480px,48px)}18.6%{transform:translate(656px,48px)}18.95%{transform:translate(656px,64px)}19.3%{transform:translate(640px,64px)}19.65%,49.82%{transform:translate(640px,80px)}20.35%{transform:translate(672px,80px)}20.7%{transform:translate(672px,96px)}21.05%{transform:translate(688px,96px)}22.81%{transform:translate(688px,16px)}23.16%{transform:translate(672px,16px)}23.51%{transform:translate(672px,0px)}27.02%{transform:translate(832px,0px)}27.37%{transform:translate(832px,-16px)}27.72%{transform:translate(816px,-16px)}28.42%{transform:translate(816px,16px)}29.82%{transform:translate(752px,16px)}30.18%{transform:translate(752px,32px)}31.58%{transform:translate(816px,32px)}31.93%{transform:translate(816px,48px)}33.68%{transform:translate(736px,48px)}34.04%,72.63%{transform:translate(736px,32px)}34.39%{transform:translate(720px,32px)}35.09%{transform:translate(720px,0px)}35.44%{transform:translate(704px,0px)}35.79%{transform:translate(704px,16px)}36.14%{transform:translate(720px,16px)}37.19%,47.02%{transform:translate(720px,64px)}37.89%{transform:translate(752px,64px)}38.25%{transform:translate(752px,80px)}39.65%,79.65%{transform:translate(816px,80px)}40%{transform:translate(816px,64px)}40.7%{transform:translate(784px,64px)}41.4%{transform:translate(784px,96px)}42.46%{transform:translate(832px,96px)}42.81%{transform:translate(832px,112px)}43.16%{transform:translate(816px,112px)}43.51%{transform:translate(816px,96px)}45.26%{transform:translate(736px,96px)}45.61%{transform:translate(736px,80px)}46.32%{transform:translate(704px,80px)}46.67%,71.23%{transform:translate(704px,64px)}47.72%{transform:translate(720px,96px)}49.47%{transform:translate(640px,96px)}54.04%{transform:translate(448px,80px)}54.39%{transform:translate(448px,64px)}59.3%{transform:translate(224px,64px)}60%{transform:translate(224px,96px)}65.26%{transform:translate(464px,96px)}65.96%{transform:translate(464px,64px)}71.93%{transform:translate(704px,32px)}72.98%{transform:translate(736px,16px)}73.68%{transform:translate(768px,16px)}74.74%{transform:translate(768px,64px)}76.14%{transform:translate(832px,64px)}77.19%{transform:translate(832px,16px)}77.54%{transform:translate(848px,16px)}77.89%{transform:translate(848px,32px)}78.25%{transform:translate(832px,32px)}79.3%{transform:translate(832px,80px)}81.4%{transform:translate(816px,0px)}97.89%{transform:translate(64px,0px)}98.25%{transform:translate(64px,-16px)}}.s.s0{transform:translate(0px,-16px);animation-name:s0}@keyframes s1{0%,99.65%{transform:translate(16px,-16px)}0.35%{transform:translate(0px,-16px)}0.7%{transform:translate(0px,0px)}6.32%{transform:translate(256px,0px)}6.67%{transform:translate(256px,16px)}7.37%{transform:translate(224px,16px)}8.77%{transform:translate(224px,80px)}14.39%{transform:translate(480px,80px)}15.09%{transform:translate(480px,48px)}18.95%{transform:translate(656px,48px)}19.3%{transform:translate(656px,64px)}19.65%{transform:translate(640px,64px)}20%,50.18%{transform:translate(640px,80px)}20.7%{transform:translate(672px,80px)}21.05%{transform:translate(672px,96px)}21.4%{transform:translate(688px,96px)}23.16%{transform:translate(688px,16px)}23.51%{transform:translate(672px,16px)}23.86%{transform:translate(672px,0px)}27.37%{transform:translate(832px,0px)}27.72%{transform:translate(832px,-16px)}28.07%{transform:translate(816px,-16px)}28.77%{transform:translate(816px,16px)}30.18%{transform:translate(752px,16px)}30.53%{transform:translate(752px,32px)}31.93%{transform:translate(816px,32px)}32.28%{transform:translate(816px,48px)}34.04%{transform:translate(736px,48px)}34.39%,72.98%{transform:translate(736px,32px)}34.74%{transform:translate(720px,32px)}35.44%{transform:translate(720px,0px)}35.79%{transform:translate(704px,0px)}36.14%{transform:translate(704px,16px)}36.49%{transform:translate(720px,16px)}37.54%,47.37%{transform:translate(720px,64px)}38.25%{transform:translate(752px,64px)}38.6%{transform:translate(752px,80px)}40%,80%{transform:translate(816px,80px)}40.35%{transform:translate(816px,64px)}41.05%{transform:translate(784px,64px)}41.75%{transform:translate(784px,96px)}42.81%{transform:translate(832px,96px)}43.16%{transform:translate(832px,112px)}43.51%{transform:translate(816px,112px)}43.86%{transform:translate(816px,96px)}45.61%{transform:translate(736px,96px)}45.96%{transform:translate(736px,80px)}46.67%{transform:translate(704px,80px)}47.02%,71.58%{transform:translate(704px,64px)}48.07%{transform:translate(720px,96px)}49.82%{transform:translate(640px,96px)}54.39%{transform:translate(448px,80px)}54.74%{transform:translate(448px,64px)}59.65%{transform:translate(224px,64px)}60.35%{transform:translate(224px,96px)}65.61%{transform:translate(464px,96px)}66.32%{transform:translate(464px,64px)}72.28%{transform:translate(704px,32px)}73.33%{transform:translate(736px,16px)}74.04%{transform:translate(768px,16px)}75.09%{transform:translate(768px,64px)}76.49%{transform:translate(832px,64px)}77.54%{transform:translate(832px,16px)}77.89%{transform:translate(848px,16px)}78.25%{transform:translate(848px,32px)}78.6%{transform:translate(832px,32px)}79.65%{transform:translate(832px,80px)}81.75%{transform:translate(816px,0px)}98.25%{transform:translate(64px,0px)}98.6%{transform:translate(64px,-16px)}}.s.s1{transform:translate(16px,-16px);animation-name:s1}@keyframes s2{0%,99.65%{transform:translate(32px,-16px)}0.7%{transform:translate(0px,-16px)}1.05%{transform:translate(0px,0px)}6.67%{transform:translate(256px,0px)}7.02%{transform:translate(256px,16px)}7.72%{transform:translate(224px,16px)}9.12%{transform:translate(224px,80px)}14.74%{transform:translate(480px,80px)}15.44%{transform:translate(480px,48px)}19.3%{transform:translate(656px,48px)}19.65%{transform:translate(656px,64px)}20%{transform:translate(640px,64px)}20.35%,50.53%{transform:translate(640px,80px)}21.05%{transform:translate(672px,80px)}21.4%{transform:translate(672px,96px)}21.75%{transform:translate(688px,96px)}23.51%{transform:translate(688px,16px)}23.86%{transform:translate(672px,16px)}24.21%{transform:translate(672px,0px)}27.72%{transform:translate(832px,0px)}28.07%{transform:translate(832px,-16px)}28.42%{transform:translate(816px,-16px)}29.12%{transform:translate(816px,16px)}30.53%{transform:translate(752px,16px)}30.88%{transform:translate(752px,32px)}32.28%{transform:translate(816px,32px)}32.63%{transform:translate(816px,48px)}34.39%{transform:translate(736px,48px)}34.74%,73.33%{transform:translate(736px,32px)}35.09%{transform:translate(720px,32px)}35.79%{transform:translate(720px,0px)}36.14%{transform:translate(704px,0px)}36.49%{transform:translate(704px,16px)}36.84%{transform:translate(720px,16px)}37.89%,47.72%{transform:translate(720px,64px)}38.6%{transform:translate(752px,64px)}38.95%{transform:translate(752px,80px)}40.35%,80.35%{transform:translate(816px,80px)}40.7%{transform:translate(816px,64px)}41.4%{transform:translate(784px,64px)}42.11%{transform:translate(784px,96px)}43.16%{transform:translate(832px,96px)}43.51%{transform:translate(832px,112px)}43.86%{transform:translate(816px,112px)}44.21%{transform:translate(816px,96px)}45.96%{transform:translate(736px,96px)}46.32%{transform:translate(736px,80px)}47.02%{transform:translate(704px,80px)}47.37%,71.93%{transform:translate(704px,64px)}48.42%{transform:translate(720px,96px)}50.18%{transform:translate(640px,96px)}54.74%{transform:translate(448px,80px)}55.09%{transform:translate(448px,64px)}60%{transform:translate(224px,64px)}60.7%{transform:translate(224px,96px)}65.96%{transform:translate(464px,96px)}66.67%{transform:translate(464px,64px)}72.63%{transform:translate(704px,32px)}73.68%{transform:translate(736px,16px)}74.39%{transform:translate(768px,16px)}75.44%{transform:translate(768px,64px)}76.84%{transform:translate(832px,64px)}77.89%{transform:translate(832px,16px)}78.25%{transform:translate(848px,16px)}78.6%{transform:translate(848px,32px)}78.95%{transform:translate(832px,32px)}80%{transform:translate(832px,80px)}82.11%{transform:translate(816px,0px)}98.6%{transform:translate(64px,0px)}98.95%{transform:translate(64px,-16px)}}.s.s2{transform:translate(32px,-16px);animation-name:s2}@keyframes s3{0%,99.65%{transform:translate(48px,-16px)}1.05%{transform:translate(0px,-16px)}1.4%{transform:translate(0px,0px)}7.02%{transform:translate(256px,0px)}7.37%{transform:translate(256px,16px)}8.07%{transform:translate(224px,16px)}9.47%{transform:translate(224px,80px)}15.09%{transform:translate(480px,80px)}15.79%{transform:translate(480px,48px)}19.65%{transform:translate(656px,48px)}20%{transform:translate(656px,64px)}20.35%{transform:translate(640px,64px)}20.7%,50.88%{transform:translate(640px,80px)}21.4%{transform:translate(672px,80px)}21.75%{transform:translate(672px,96px)}22.11%{transform:translate(688px,96px)}23.86%{transform:translate(688px,16px)}24.21%{transform:translate(672px,16px)}24.56%{transform:translate(672px,0px)}28.07%{transform:translate(832px,0px)}28.42%{transform:translate(832px,-16px)}28.77%{transform:translate(816px,-16px)}29.47%{transform:translate(816px,16px)}30.88%{transform:translate(752px,16px)}31.23%{transform:translate(752px,32px)}32.63%{transform:translate(816px,32px)}32.98%{transform:translate(816px,48px)}34.74%{transform:translate(736px,48px)}35.09%,73.68%{transform:translate(736px,32px)}35.44%{transform:translate(720px,32px)}36.14%{transform:translate(720px,0px)}36.49%{transform:translate(704px,0px)}36.84%{transform:translate(704px,16px)}37.19%{transform:translate(720px,16px)}38.25%,48.07%{transform:translate(720px,64px)}38.95%{transform:translate(752px,64px)}39.3%{transform:translate(752px,80px)}40.7%,80.7%{transform:translate(816px,80px)}41.05%{transform:translate(816px,64px)}41.75%{transform:translate(784px,64px)}42.46%{transform:translate(784px,96px)}43.51%{transform:translate(832px,96px)}43.86%{transform:translate(832px,112px)}44.21%{transform:translate(816px,112px)}44.56%{transform:translate(816px,96px)}46.32%{transform:translate(736px,96px)}46.67%{transform:translate(736px,80px)}47.37%{transform:translate(704px,80px)}47.72%,72.28%{transform:translate(704px,64px)}48.77%{transform:translate(720px,96px)}50.53%{transform:translate(640px,96px)}55.09%{transform:translate(448px,80px)}55.44%{transform:translate(448px,64px)}60.35%{transform:translate(224px,64px)}61.05%{transform:translate(224px,96px)}66.32%{transform:translate(464px,96px)}67.02%{transform:translate(464px,64px)}72.98%{transform:translate(704px,32px)}74.04%{transform:translate(736px,16px)}74.74%{transform:translate(768px,16px)}75.79%{transform:translate(768px,64px)}77.19%{transform:translate(832px,64px)}78.25%{transform:translate(832px,16px)}78.6%{transform:translate(848px,16px)}78.95%{transform:translate(848px,32px)}79.3%{transform:translate(832px,32px)}80.35%{transform:translate(832px,80px)}82.46%{transform:translate(816px,0px)}98.95%{transform:translate(64px,0px)}99.3%{transform:translate(64px,-16px)}}.s.s3{transform:translate(48px,-16px);animation-name:s3}</style><rect class="c" x="2" y="2" rx="2" ry="2"/><rect class="c" x="2" y="18" rx="2" ry="2"/><rect class="c" x="2" y="34" rx="2" ry="2"/><rect class="c" x="2" y="50" rx="2" ry="2"/><rect class="c" x="2" y="66" rx="2" ry="2"/><rect class="c" x="2" y="82" rx="2" ry="2"/><rect class="c" x="2" y="98" rx="2" ry="2"/><rect class="c" x="18" y="2" rx="2" ry="2"/><rect class="c" x="18" y="18" rx="2" ry="2"/><rect class="c" x="18" y="34" rx="2" ry="2"/><rect class="c" x="18" y="50" rx="2" ry="2"/><rect class="c" x="18" y="66" rx="2" ry="2"/><rect class="c" x="18" y="82" rx="2" ry="2"/><rect class="c" x="18" y="98" rx="2" ry="2"/><rect class="c" x="34" y="2" rx="2" ry="2"/><rect class="c" x="34" y="18" rx="2" ry="2"/><rect class="c" x="34" y="34" rx="2" ry="2"/><rect class="c" x="34" y="50" rx="2" ry="2"/><rect class="c" x="34" y="66" rx="2" ry="2"/><rect class="c" x="34" y="82" rx="2" ry="2"/><rect class="c" x="34" y="98" rx="2" ry="2"/><rect class="c" x="50" y="2" rx="2" ry="2"/><rect class="c" x="50" y="18" rx="2" ry="2"/><rect class="c" x="50" y="34" rx="2" ry="2"/><rect class="c" x="50" y="50" rx="2" ry="2"/><rect class="c" x="50" y="66" rx="2" ry="2"/><rect class="c" x="50" y="82" rx="2" ry="2"/><rect class="c" x="50" y="98" rx="2" ry="2"/><rect class="c" x="66" y="2" rx="2" ry="2"/><rect class="c" x="66" y="18" rx="2" ry="2"/><rect class="c" x="66" y="34" rx="2" ry="2"/><rect class="c" x="66" y="50" rx="2" ry="2"/><rect class="c" x="66" y="66" rx="2" ry="2"/><rect class="c" x="66" y="82" rx="2" ry="2"/><rect class="c" x="66" y="98" rx="2" ry="2"/><rect class="c" x="82" y="2" rx="2" ry="2"/><rect class="c" x="82" y="18" rx="2" ry="2"/><rect class="c" x="82" y="34" rx="2" ry="2"/><rect class="c" x="82" y="50" rx="2" ry="2"/><rect class="c" x="82" y="66" rx="2" ry="2"/><rect class="c" x="82" y="82" rx="2" ry="2"/><rect class="c" x="82" y="98" rx="2" ry="2"/><rect class="c" x="98" y="2" rx="2" ry="2"/><rect class="c" x="98" y="18" rx="2" ry="2"/><rect class="c" x="98" y="34" rx="2" ry="2"/><rect class="c" x="98" y="50" rx="2" ry="2"/><rect class="c" x="98" y="66" rx="2" ry="2"/><rect class="c" x="98" y="82" rx="2" ry="2"/><rect class="c" x="98" y="98" rx="2" ry="2"/><rect class="c" x="114" y="2" rx="2" ry="2"/><rect class="c" x="114" y="18" rx="2" ry="2"/><rect class="c" x="114" y="34" rx="2" ry="2"/><rect class="c" x="114" y="50" rx="2" ry="2"/><rect class="c" x="114" y="66" rx="2" ry="2"/><rect class="c" x="114" y="82" rx="2" ry="2"/><rect class="c" x="114" y="98" rx="2" ry="2"/><rect class="c" x="130" y="2" rx="2" ry="2"/><rect class="c" x="130" y="18" rx="2" ry="2"/><rect class="c" x="130" y="34" rx="2" ry="2"/><rect class="c" x="130" y="50" rx="2" ry="2"/><rect class="c" x="130" y="66" rx="2" ry="2"/><rect class="c" x="130" y="82" rx="2" ry="2"/><rect class="c" x="130" y="98" rx="2" ry="2"/><rect class="c" x="146" y="2" rx="2" ry="2"/><rect class="c" x="146" y="18" rx="2" ry="2"/><rect class="c" x="146" y="34" rx="2" ry="2"/><rect class="c" x="146" y="50" rx="2" ry="2"/><rect class="c" x="146" y="66" rx="2" ry="2"/><rect class="c" x="146" y="82" rx="2" ry="2"/><rect class="c" x="146" y="98" rx="2" ry="2"/><rect class="c" x="162" y="2" rx="2" ry="2"/><rect class="c" x="162" y="18" rx="2" ry="2"/><rect class="c" x="162" y="34" rx="2" ry="2"/><rect class="c" x="162" y="50" rx="2" ry="2"/><rect class="c" x="162" y="66" rx="2" ry="2"/><rect class="c" x="162" y="82" rx="2" ry="2"/><rect class="c" x="162" y="98" rx="2" ry="2"/><rect class="c" x="178" y="2" rx="2" ry="2"/><rect class="c" x="178" y="18" rx="2" ry="2"/><rect class="c" x="178" y="34" rx="2" ry="2"/><rect class="c" x="178" y="50" rx="2" ry="2"/><rect class="c" x="178" y="66" rx="2" ry="2"/><rect class="c" x="178" y="82" rx="2" ry="2"/><rect class="c" x="178" y="98" rx="2" ry="2"/><rect class="c" x="194" y="2" rx="2" ry="2"/><rect class="c" x="194" y="18" rx="2" ry="2"/><rect class="c" x="194" y="34" rx="2" ry="2"/><rect class="c" x="194" y="50" rx="2" ry="2"/><rect class="c" x="194" y="66" rx="2" ry="2"/><rect class="c" x="194" y="82" rx="2" ry="2"/><rect class="c" x="194" y="98" rx="2" ry="2"/><rect class="c" x="210" y="2" rx="2" ry="2"/><rect class="c" x="210" y="18" rx="2" ry="2"/><rect class="c" x="210" y="34" rx="2" ry="2"/><rect class="c" x="210" y="50" rx="2" ry="2"/><rect class="c" x="210" y="66" rx="2" ry="2"/><rect class="c" x="210" y="82" rx="2" ry="2"/><rect class="c" x="210" y="98" rx="2" ry="2"/><rect class="c" x="226" y="2" rx="2" ry="2"/><rect class="c" x="226" y="18" rx="2" ry="2"/><rect class="c" x="226" y="34" rx="2" ry="2"/><rect class="c" x="226" y="50" rx="2" ry="2"/><rect class="c" x="226" y="66" rx="2" ry="2"/><rect class="c c0" x="226" y="82" rx="2" ry="2"/><rect class="c c1" x="226" y="98" rx="2" ry="2"/><rect class="c" x="242" y="2" rx="2" ry="2"/><rect class="c" x="242" y="18" rx="2" ry="2"/><rect class="c" x="242" y="34" rx="2" ry="2"/><rect class="c" x="242" y="50" rx="2" ry="2"/><rect class="c" x="242" y="66" rx="2" ry="2"/><rect class="c" x="242" y="82" rx="2" ry="2"/><rect class="c" x="242" y="98" rx="2" ry="2"/><rect class="c c2" x="258" y="2" rx="2" ry="2"/><rect class="c c3" x="258" y="18" rx="2" ry="2"/><rect class="c" x="258" y="34" rx="2" ry="2"/><rect class="c" x="258" y="50" rx="2" ry="2"/><rect class="c" x="258" y="66" rx="2" ry="2"/><rect class="c" x="258" y="82" rx="2" ry="2"/><rect class="c" x="258" y="98" rx="2" ry="2"/><rect class="c" x="274" y="2" rx="2" ry="2"/><rect class="c" x="274" y="18" rx="2" ry="2"/><rect class="c" x="274" y="34" rx="2" ry="2"/><rect class="c" x="274" y="50" rx="2" ry="2"/><rect class="c" x="274" y="66" rx="2" ry="2"/><rect class="c" x="274" y="82" rx="2" ry="2"/><rect class="c" x="274" y="98" rx="2" ry="2"/><rect class="c" x="290" y="2" rx="2" ry="2"/><rect class="c" x="290" y="18" rx="2" ry="2"/><rect class="c" x="290" y="34" rx="2" ry="2"/><rect class="c" x="290" y="50" rx="2" ry="2"/><rect class="c" x="290" y="66" rx="2" ry="2"/><rect class="c" x="290" y="82" rx="2" ry="2"/><rect class="c" x="290" y="98" rx="2" ry="2"/><rect class="c" x="306" y="2" rx="2" ry="2"/><rect class="c" x="306" y="18" rx="2" ry="2"/><rect class="c" x="306" y="34" rx="2" ry="2"/><rect class="c" x="306" y="50" rx="2" ry="2"/><rect class="c" x="306" y="66" rx="2" ry="2"/><rect class="c" x="306" y="82" rx="2" ry="2"/><rect class="c" x="306" y="98" rx="2" ry="2"/><rect class="c" x="322" y="2" rx="2" ry="2"/><rect class="c" x="322" y="18" rx="2" ry="2"/><rect class="c" x="322" y="34" rx="2" ry="2"/><rect class="c" x="322" y="50" rx="2" ry="2"/><rect class="c" x="322" y="66" rx="2" ry="2"/><rect class="c" x="322" y="82" rx="2" ry="2"/><rect class="c" x="322" y="98" rx="2" ry="2"/><rect class="c" x="338" y="2" rx="2" ry="2"/><rect class="c" x="338" y="18" rx="2" ry="2"/><rect class="c" x="338" y="34" rx="2" ry="2"/><rect class="c" x="338" y="50" rx="2" ry="2"/><rect class="c c4" x="338" y="66" rx="2" ry="2"/><rect class="c" x="338" y="82" rx="2" ry="2"/><rect class="c" x="338" y="98" rx="2" ry="2"/><rect class="c" x="354" y="2" rx="2" ry="2"/><rect class="c" x="354" y="18" rx="2" ry="2"/><rect class="c" x="354" y="34" rx="2" ry="2"/><rect class="c" x="354" y="50" rx="2" ry="2"/><rect class="c" x="354" y="66" rx="2" ry="2"/><rect class="c" x="354" y="82" rx="2" ry="2"/><rect class="c" x="354" y="98" rx="2" ry="2"/><rect class="c" x="370" y="2" rx="2" ry="2"/><rect class="c" x="370" y="18" rx="2" ry="2"/><rect class="c" x="370" y="34" rx="2" ry="2"/><rect class="c" x="370" y="50" rx="2" ry="2"/><rect class="c" x="370" y="66" rx="2" ry="2"/><rect class="c" x="370" y="82" rx="2" ry="2"/><rect class="c" x="370" y="98" rx="2" ry="2"/><rect class="c" x="386" y="2" rx="2" ry="2"/><rect class="c" x="386" y="18" rx="2" ry="2"/><rect class="c" x="386" y="34" rx="2" ry="2"/><rect class="c" x="386" y="50" rx="2" ry="2"/><rect class="c" x="386" y="66" rx="2" ry="2"/><rect class="c" x="386" y="82" rx="2" ry="2"/><rect class="c" x="386" y="98" rx="2" ry="2"/><rect class="c" x="402" y="2" rx="2" ry="2"/><rect class="c" x="402" y="18" rx="2" ry="2"/><rect class="c" x="402" y="34" rx="2" ry="2"/><rect class="c" x="402" y="50" rx="2" ry="2"/><rect class="c" x="402" y="66" rx="2" ry="2"/><rect class="c" x="402" y="82" rx="2" ry="2"/><rect class="c" x="402" y="98" rx="2" ry="2"/><rect class="c" x="418" y="2" rx="2" ry="2"/><rect class="c" x="418" y="18" rx="2" ry="2"/><rect class="c" x="418" y="34" rx="2" ry="2"/><rect class="c" x="418" y="50" rx="2" ry="2"/><rect class="c" x="418" y="66" rx="2" ry="2"/><rect class="c" x="418" y="82" rx="2" ry="2"/><rect class="c" x="418" y="98" rx="2" ry="2"/><rect class="c" x="434" y="2" rx="2" ry="2"/><rect class="c" x="434" y="18" rx="2" ry="2"/><rect class="c" x="434" y="34" rx="2" ry="2"/><rect class="c" x="434" y="50" rx="2" ry="2"/><rect class="c" x="434" y="66" rx="2" ry="2"/><rect class="c" x="434" y="82" rx="2" ry="2"/><rect class="c" x="434" y="98" rx="2" ry="2"/><rect class="c" x="450" y="2" rx="2" ry="2"/><rect class="c" x="450" y="18" rx="2" ry="2"/><rect class="c" x="450" y="34" rx="2" ry="2"/><rect class="c" x="450" y="50" rx="2" ry="2"/><rect class="c" x="450" y="66" rx="2" ry="2"/><rect class="c" x="450" y="82" rx="2" ry="2"/><rect class="c" x="450" y="98" rx="2" ry="2"/><rect class="c" x="466" y="2" rx="2" ry="2"/><rect class="c" x="466" y="18" rx="2" ry="2"/><rect class="c" x="466" y="34" rx="2" ry="2"/><rect class="c" x="466" y="50" rx="2" ry="2"/><rect class="c c5" x="466" y="66" rx="2" ry="2"/><rect class="c" x="466" y="82" rx="2" ry="2"/><rect class="c" x="466" y="98" rx="2" ry="2"/><rect class="c" x="482" y="2" rx="2" ry="2"/><rect class="c" x="482" y="18" rx="2" ry="2"/><rect class="c" x="482" y="34" rx="2" ry="2"/><rect class="c c6" x="482" y="50" rx="2" ry="2"/><rect class="c" x="482" y="66" rx="2" ry="2"/><rect class="c" x="482" y="82" rx="2" ry="2"/><rect class="c" x="482" y="98" rx="2" ry="2"/><rect class="c" x="498" y="2" rx="2" ry="2"/><rect class="c" x="498" y="18" rx="2" ry="2"/><rect class="c" x="498" y="34" rx="2" ry="2"/><rect class="c" x="498" y="50" rx="2" ry="2"/><rect class="c" x="498" y="66" rx="2" ry="2"/><rect class="c" x="498" y="82" rx="2" ry="2"/><rect class="c" x="498" y="98" rx="2" ry="2"/><rect class="c" x="514" y="2" rx="2" ry="2"/><rect class="c" x="514" y="18" rx="2" ry="2"/><rect class="c" x="514" y="34" rx="2" ry="2"/><rect class="c" x="514" y="50" rx="2" ry="2"/><rect class="c" x="514" y="66" rx="2" ry="2"/><rect class="c" x="514" y="82" rx="2" ry="2"/><rect class="c" x="514" y="98" rx="2" ry="2"/><rect class="c" x="530" y="2" rx="2" ry="2"/><rect class="c" x="530" y="18" rx="2" ry="2"/><rect class="c" x="530" y="34" rx="2" ry="2"/><rect class="c" x="530" y="50" rx="2" ry="2"/><rect class="c" x="530" y="66" rx="2" ry="2"/><rect class="c" x="530" y="82" rx="2" ry="2"/><rect class="c" x="530" y="98" rx="2" ry="2"/><rect class="c" x="546" y="2" rx="2" ry="2"/><rect class="c" x="546" y="18" rx="2" ry="2"/><rect class="c" x="546" y="34" rx="2" ry="2"/><rect class="c" x="546" y="50" rx="2" ry="2"/><rect class="c" x="546" y="66" rx="2" ry="2"/><rect class="c" x="546" y="82" rx="2" ry="2"/><rect class="c" x="546" y="98" rx="2" ry="2"/><rect class="c" x="562" y="2" rx="2" ry="2"/><rect class="c" x="562" y="18" rx="2" ry="2"/><rect class="c" x="562" y="34" rx="2" ry="2"/><rect class="c" x="562" y="50" rx="2" ry="2"/><rect class="c" x="562" y="66" rx="2" ry="2"/><rect class="c" x="562" y="82" rx="2" ry="2"/><rect class="c" x="562" y="98" rx="2" ry="2"/><rect class="c" x="578" y="2" rx="2" ry="2"/><rect class="c" x="578" y="18" rx="2" ry="2"/><rect class="c" x="578" y="34" rx="2" ry="2"/><rect class="c" x="578" y="50" rx="2" ry="2"/><rect class="c" x="578" y="66" rx="2" ry="2"/><rect class="c" x="578" y="82" rx="2" ry="2"/><rect class="c" x="578" y="98" rx="2" ry="2"/><rect class="c" x="594" y="2" rx="2" ry="2"/><rect class="c" x="594" y="18" rx="2" ry="2"/><rect class="c" x="594" y="34" rx="2" ry="2"/><rect class="c" x="594" y="50" rx="2" ry="2"/><rect class="c" x="594" y="66" rx="2" ry="2"/><rect class="c" x="594" y="82" rx="2" ry="2"/><rect class="c" x="594" y="98" rx="2" ry="2"/><rect class="c" x="610" y="2" rx="2" ry="2"/><rect class="c" x="610" y="18" rx="2" ry="2"/><rect class="c" x="610" y="34" rx="2" ry="2"/><rect class="c" x="610" y="50" rx="2" ry="2"/><rect class="c" x="610" y="66" rx="2" ry="2"/><rect class="c" x="610" y="82" rx="2" ry="2"/><rect class="c" x="610" y="98" rx="2" ry="2"/><rect class="c" x="626" y="2" rx="2" ry="2"/><rect class="c" x="626" y="18" rx="2" ry="2"/><rect class="c" x="626" y="34" rx="2" ry="2"/><rect class="c" x="626" y="50" rx="2" ry="2"/><rect class="c" x="626" y="66" rx="2" ry="2"/><rect class="c" x="626" y="82" rx="2" ry="2"/><rect class="c" x="626" y="98" rx="2" ry="2"/><rect class="c" x="642" y="2" rx="2" ry="2"/><rect class="c" x="642" y="18" rx="2" ry="2"/><rect class="c" x="642" y="34" rx="2" ry="2"/><rect class="c" x="642" y="50" rx="2" ry="2"/><rect class="c c7" x="642" y="66" rx="2" ry="2"/><rect class="c" x="642" y="82" rx="2" ry="2"/><rect class="c c8" x="642" y="98" rx="2" ry="2"/><rect class="c c9" x="658" y="2" rx="2" ry="2"/><rect class="c" x="658" y="18" rx="2" ry="2"/><rect class="c" x="658" y="34" rx="2" ry="2"/><rect class="c ca" x="658" y="50" rx="2" ry="2"/><rect class="c" x="658" y="66" rx="2" ry="2"/><rect class="c" x="658" y="82" rx="2" ry="2"/><rect class="c" x="658" y="98" rx="2" ry="2"/><rect class="c" x="674" y="2" rx="2" ry="2"/><rect class="c cb" x="674" y="18" rx="2" ry="2"/><rect class="c" x="674" y="34" rx="2" ry="2"/><rect class="c" x="674" y="50" rx="2" ry="2"/><rect class="c" x="674" y="66" rx="2" ry="2"/><rect class="c cc" x="674" y="82" rx="2" ry="2"/><rect class="c cd" x="674" y="98" rx="2" ry="2"/><rect class="c" x="690" y="2" rx="2" ry="2"/><rect class="c" x="690" y="18" rx="2" ry="2"/><rect class="c" x="690" y="34" rx="2" ry="2"/><rect class="c" x="690" y="50" rx="2" ry="2"/><rect class="c" x="690" y="66" rx="2" ry="2"/><rect class="c" x="690" y="82" rx="2" ry="2"/><rect class="c" x="690" y="98" rx="2" ry="2"/><rect class="c" x="706" y="2" rx="2" ry="2"/><rect class="c" x="706" y="18" rx="2" ry="2"/><rect class="c ce" x="706" y="34" rx="2" ry="2"/><rect class="c cf" x="706" y="50" rx="2" ry="2"/><rect class="c cg" x="706" y="66" rx="2" ry="2"/><rect class="c ch" x="706" y="82" rx="2" ry="2"/><rect class="c ci" x="706" y="98" rx="2" ry="2"/><rect class="c cj" x="722" y="2" rx="2" ry="2"/><rect class="c ck" x="722" y="18" rx="2" ry="2"/><rect class="c cl" x="722" y="34" rx="2" ry="2"/><rect class="c cm" x="722" y="50" rx="2" ry="2"/><rect class="c cn" x="722" y="66" rx="2" ry="2"/><rect class="c co" x="722" y="82" rx="2" ry="2"/><rect class="c cp" x="722" y="98" rx="2" ry="2"/><rect class="c cq" x="738" y="2" rx="2" ry="2"/><rect class="c cr" x="738" y="18" rx="2" ry="2"/><rect class="c cs" x="738" y="34" rx="2" ry="2"/><rect class="c ct" x="738" y="50" rx="2" ry="2"/><rect class="c cu" x="738" y="66" rx="2" ry="2"/><rect class="c cv" x="738" y="82" rx="2" ry="2"/><rect class="c cw" x="738" y="98" rx="2" ry="2"/><rect class="c cx" x="754" y="2" rx="2" ry="2"/><rect class="c cy" x="754" y="18" rx="2" ry="2"/><rect class="c cz" x="754" y="34" rx="2" ry="2"/><rect class="c c10" x="754" y="50" rx="2" ry="2"/><rect class="c c11" x="754" y="66" rx="2" ry="2"/><rect class="c c12" x="754" y="82" rx="2" ry="2"/><rect class="c c13" x="754" y="98" rx="2" ry="2"/><rect class="c c14" x="770" y="2" rx="2" ry="2"/><rect class="c c15" x="770" y="18" rx="2" ry="2"/><rect class="c c16" x="770" y="34" rx="2" ry="2"/><rect class="c c17" x="770" y="50" rx="2" ry="2"/><rect class="c c18" x="770" y="66" rx="2" ry="2"/><rect class="c c19" x="770" y="82" rx="2" ry="2"/><rect class="c c1a" x="770" y="98" rx="2" ry="2"/><rect class="c c1b" x="786" y="2" rx="2" ry="2"/><rect class="c c1c" x="786" y="18" rx="2" ry="2"/><rect class="c c1d" x="786" y="34" rx="2" ry="2"/><rect class="c c1e" x="786" y="50" rx="2" ry="2"/><rect class="c c1f" x="786" y="66" rx="2" ry="2"/><rect class="c c1g" x="786" y="82" rx="2" ry="2"/><rect class="c c1h" x="786" y="98" rx="2" ry="2"/><rect class="c c1i" x="802" y="2" rx="2" ry="2"/><rect class="c c1j" x="802" y="18" rx="2" ry="2"/><rect class="c c1k" x="802" y="34" rx="2" ry="2"/><rect class="c c1l" x="802" y="50" rx="2" ry="2"/><rect class="c c1m" x="802" y="66" rx="2" ry="2"/><rect class="c c1n" x="802" y="82" rx="2" ry="2"/><rect class="c c1o" x="802" y="98" rx="2" ry="2"/><rect class="c c1p" x="818" y="2" rx="2" ry="2"/><rect class="c c1q" x="818" y="18" rx="2" ry="2"/><rect class="c c1r" x="818" y="34" rx="2" ry="2"/><rect class="c c1s" x="818" y="50" rx="2" ry="2"/><rect class="c c1t" x="818" y="66" rx="2" ry="2"/><rect class="c c1u" x="818" y="82" rx="2" ry="2"/><rect class="c c1v" x="818" y="98" rx="2" ry="2"/><rect class="c c1w" x="834" y="2" rx="2" ry="2"/><rect class="c c1x" x="834" y="18" rx="2" ry="2"/><rect class="c c1y" x="834" y="34" rx="2" ry="2"/><rect class="c c1z" x="834" y="50" rx="2" ry="2"/><rect class="c c20" x="834" y="66" rx="2" ry="2"/><rect class="c c21" x="834" y="82" rx="2" ry="2"/><rect class="c c22" x="834" y="98" rx="2" ry="2"/><rect class="u u0" height="12" width="102.4" x="0.0" y="144"/><rect class="u u1" height="12" width="622.5" x="101.8" y="144"/><rect class="u u2" height="12" width="125.0" x="723.6" y="144"/><rect class="s s0" x="0.8" y="0.8" width="14.4" height="14.4" rx="4.5" ry="4.5"/><rect class="s s1" x="1.8" y="1.8" width="12.3" height="12.3" rx="4.1" ry="4.1"/><rect class="s s2" x="2.6" y="2.6" width="10.8" height="10.8" rx="3.6" ry="3.6"/><rect class="s s3" x="3.0" y="3.0" width="9.9" height="9.9" rx="3.3" ry="3.3"/></svg>