<svg viewBox="-16 -32 880 192" width="880" height="192" xmlns="http://www.w3.org/2000/svg"><desc>Generated with https://github.com/Platane/snk</desc><style>:root{--cb:#1b1f230a;--cs:purple;--ce:#ebedf0;--c0:#ebedf0;--c1:#9be9a8;--c2:#40c463;--c3:#30a14e;--c4:#216e39}.c{shape-rendering:geometricPrecision;fill:var(--ce);stroke-width:1px;stroke:var(--cb);animation:none 22300ms linear infinite;width:12px;height:12px}@keyframes c0{11.2%{fill:var(--c1)}11.22%,100%{fill:var(--ce)}}.c.c0{fill:var(--c1);animation-name:c0}@keyframes c1{11.65%{fill:var(--c1)}11.67%,100%{fill:var(--ce)}}.c.c1{fill:var(--c1);animation-name:c1}@keyframes c2{8.06%{fill:var(--c1)}8.08%,100%{fill:var(--ce)}}.c.c2{fill:var(--c1);animation-name:c2}@keyframes c3{8.51%{fill:var(--c1)}8.53%,100%{fill:var(--ce)}}.c.c3{fill:var(--c1);animation-name:c3}@keyframes c4{15.69%{fill:var(--c1)}15.71%,100%{fill:var(--ce)}}.c.c4{fill:var(--c1);animation-name:c4}@keyframes c5{70.39%{fill:var(--c3)}70.41%,100%{fill:var(--ce)}}.c.c5{fill:var(--c3);animation-name:c5}@keyframes c6{20.17%{fill:var(--c1)}20.19%,100%{fill:var(--ce)}}.c.c6{fill:var(--c1);animation-name:c6}@keyframes c7{26%{fill:var(--c1)}26.02%,100%{fill:var(--ce)}}.c.c7{fill:var(--c1);animation-name:c7}@keyframes c8{26.9%{fill:var(--c1)}26.92%,100%{fill:var(--ce)}}.c.c8{fill:var(--c1);animation-name:c8}@keyframes c9{63.22%{fill:var(--c3)}63.24%,100%{fill:var(--ce)}}.c.c9{fill:var(--c3);animation-name:c9}@keyframes ca{25.1%{fill:var(--c1)}25.12%,100%{fill:var(--ce)}}.c.ca{fill:var(--c1);animation-name:ca}@keyframes cb{53.35%{fill:var(--c1)}53.37%,100%{fill:var(--ce)}}.c.cb{fill:var(--c1);animation-name:cb}@keyframes cc{28.24%{fill:var(--c1)}28.26%,100%{fill:var(--ce)}}.c.cc{fill:var(--c1);animation-name:cc}@keyframes cd{27.79%{fill:var(--c1)}27.81%,100%{fill:var(--ce)}}.c.cd{fill:var(--c1);animation-name:cd}@keyframes ce{60.98%{fill:var(--c3)}61%,100%{fill:var(--ce)}}.c.ce{fill:var(--c3);animation-name:ce}@keyframes cf{77.57%{fill:var(--c4)}77.59%,100%{fill:var(--ce)}}.c.cf{fill:var(--c4);animation-name:cf}@keyframes cg{48.42%{fill:var(--c1)}48.44%,100%{fill:var(--ce)}}.c.cg{fill:var(--c1);animation-name:cg}@keyframes ch{29.14%{fill:var(--c1)}29.16%,100%{fill:var(--ce)}}.c.ch{fill:var(--c1);animation-name:ch}@keyframes ci{47.52%{fill:var(--c1)}47.54%,100%{fill:var(--ce)}}.c.ci{fill:var(--c1);animation-name:ci}@keyframes cj{36.31%{fill:var(--c1)}36.33%,100%{fill:var(--ce)}}.c.cj{fill:var(--c1);animation-name:cj}@keyframes ck{36.76%{fill:var(--c1)}36.78%,100%{fill:var(--ce)}}.c.ck{fill:var(--c1);animation-name:ck}@keyframes cl{37.21%{fill:var(--c1)}37.23%,100%{fill:var(--ce)}}.c.cl{fill:var(--c1);animation-name:cl}@keyframes cm{51.11%{fill:var(--c1)}51.13%,100%{fill:var(--ce)}}.c.cm{fill:var(--c1);animation-name:cm}@keyframes cn{48.87%{fill:var(--c1)}48.89%,100%{fill:var(--ce)}}.c.cn{fill:var(--c1);animation-name:cn}@keyframes co{29.59%{fill:var(--c1)}29.61%,100%{fill:var(--ce)}}.c.co{fill:var(--c1);animation-name:co}@keyframes cp{47.08%{fill:var(--c1)}47.1%,100%{fill:var(--ce)}}.c.cp{fill:var(--c1);animation-name:cp}@keyframes cq{35.86%{fill:var(--c1)}35.88%,100%{fill:var(--ce)}}.c.cq{fill:var(--c1);animation-name:cq}@keyframes cr{56.04%{fill:var(--c2)}56.06%,100%{fill:var(--ce)}}.c.cr{fill:var(--c2);animation-name:cr}@keyframes cs{37.66%{fill:var(--c1)}37.68%,100%{fill:var(--ce)}}.c.cs{fill:var(--c1);animation-name:cs}@keyframes ct{50.66%{fill:var(--c1)}50.68%,100%{fill:var(--ce)}}.c.ct{fill:var(--c1);animation-name:ct}@keyframes cu{49.32%{fill:var(--c1)}49.34%,100%{fill:var(--ce)}}.c.cu{fill:var(--c1);animation-name:cu}@keyframes cv{30.03%{fill:var(--c1)}30.05%,100%{fill:var(--ce)}}.c.cv{fill:var(--c1);animation-name:cv}@keyframes cw{46.63%{fill:var(--c1)}46.65%,100%{fill:var(--ce)}}.c.cw{fill:var(--c1);animation-name:cw}@keyframes cx{35.42%{fill:var(--c1)}35.44%,100%{fill:var(--ce)}}.c.cx{fill:var(--c1);animation-name:cx}@keyframes cy{40.35%{fill:var(--c1)}40.37%,100%{fill:var(--ce)}}.c.cy{fill:var(--c1);animation-name:cy}@keyframes cz{38.11%{fill:var(--c1)}38.13%,100%{fill:var(--ce)}}.c.cz{fill:var(--c1);animation-name:cz}@keyframes c10{41.25%{fill:var(--c1)}41.27%,100%{fill:var(--ce)}}.c.c10{fill:var(--c1);animation-name:c10}@keyframes c11{49.77%{fill:var(--c1)}49.79%,100%{fill:var(--ce)}}.c.c11{fill:var(--c1);animation-name:c11}@keyframes c12{30.48%{fill:var(--c1)}30.5%,100%{fill:var(--ce)}}.c.c12{fill:var(--c1);animation-name:c12}@keyframes c13{46.18%{fill:var(--c1)}46.2%,100%{fill:var(--ce)}}.c.c13{fill:var(--c1);animation-name:c13}@keyframes c14{34.97%{fill:var(--c1)}34.99%,100%{fill:var(--ce)}}.c.c14{fill:var(--c1);animation-name:c14}@keyframes c15{39.9%{fill:var(--c1)}39.92%,100%{fill:var(--ce)}}.c.c15{fill:var(--c1);animation-name:c15}@keyframes c16{38.56%{fill:var(--c1)}38.58%,100%{fill:var(--ce)}}.c.c16{fill:var(--c1);animation-name:c16}@keyframes c17{41.69%{fill:var(--c1)}41.71%,100%{fill:var(--ce)}}.c.c17{fill:var(--c1);animation-name:c17}@keyframes c18{58.29%{fill:var(--c2)}58.31%,100%{fill:var(--ce)}}.c.c18{fill:var(--c2);animation-name:c18}@keyframes c19{30.93%{fill:var(--c1)}30.95%,100%{fill:var(--ce)}}.c.c19{fill:var(--c1);animation-name:c19}@keyframes c1a{45.73%{fill:var(--c1)}45.75%,100%{fill:var(--ce)}}.c.c1a{fill:var(--c1);animation-name:c1a}@keyframes c1b{34.52%{fill:var(--c1)}34.54%,100%{fill:var(--ce)}}.c.c1b{fill:var(--c1);animation-name:c1b}@keyframes c1c{39.45%{fill:var(--c1)}39.47%,100%{fill:var(--ce)}}.c.c1c{fill:var(--c1);animation-name:c1c}@keyframes c1d{39%{fill:var(--c1)}39.02%,100%{fill:var(--ce)}}.c.c1d{fill:var(--c1);animation-name:c1d}@keyframes c1e{42.14%{fill:var(--c1)}42.16%,100%{fill:var(--ce)}}.c.c1e{fill:var(--c1);animation-name:c1e}@keyframes c1f{42.59%{fill:var(--c1)}42.61%,100%{fill:var(--ce)}}.c.c1f{fill:var(--c1);animation-name:c1f}@keyframes c1g{31.38%{fill:var(--c1)}31.4%,100%{fill:var(--ce)}}.c.c1g{fill:var(--c1);animation-name:c1g}@keyframes c1h{43.49%{fill:var(--c1)}43.51%,100%{fill:var(--ce)}}.c.c1h{fill:var(--c1);animation-name:c1h}@keyframes c1i{34.07%{fill:var(--c1)}34.09%,100%{fill:var(--ce)}}.c.c1i{fill:var(--c1);animation-name:c1i}@keyframes c1j{33.62%{fill:var(--c1)}33.64%,100%{fill:var(--ce)}}.c.c1j{fill:var(--c1);animation-name:c1j}@keyframes c1k{33.17%{fill:var(--c1)}33.19%,100%{fill:var(--ce)}}.c.c1k{fill:var(--c1);animation-name:c1k}@keyframes c1l{32.73%{fill:var(--c1)}32.75%,100%{fill:var(--ce)}}.c.c1l{fill:var(--c1);animation-name:c1l}@keyframes c1m{32.28%{fill:var(--c1)}32.3%,100%{fill:var(--ce)}}.c.c1m{fill:var(--c1);animation-name:c1m}@keyframes c1n{31.83%{fill:var(--c1)}31.85%,100%{fill:var(--ce)}}.c.c1n{fill:var(--c1);animation-name:c1n}@keyframes c1o{43.94%{fill:var(--c1)}43.96%,100%{fill:var(--ce)}}.c.c1o{fill:var(--c1);animation-name:c1o}.u{transform-origin:0 0;transform:scale(0,1);animation:none linear 22300ms infinite}@keyframes u0{8.06%{transform:scale(0.000,1)}8.08%,8.51%{transform:scale(0.018,1)}8.53%,11.2%{transform:scale(0.036,1)}11.22%,11.65%{transform:scale(0.055,1)}11.67%,15.69%{transform:scale(0.073,1)}15.71%,20.17%{transform:scale(0.091,1)}20.19%,25.1%{transform:scale(0.109,1)}25.12%,26%{transform:scale(0.127,1)}26.02%,26.9%{transform:scale(0.145,1)}26.92%,27.79%{transform:scale(0.164,1)}27.81%,28.24%{transform:scale(0.182,1)}28.26%,29.14%{transform:scale(0.200,1)}29.16%,29.59%{transform:scale(0.218,1)}29.61%,30.03%{transform:scale(0.236,1)}30.05%,30.48%{transform:scale(0.255,1)}30.5%,30.93%{transform:scale(0.273,1)}30.95%,31.38%{transform:scale(0.291,1)}31.4%,31.83%{transform:scale(0.309,1)}31.85%,32.28%{transform:scale(0.327,1)}32.3%,32.73%{transform:scale(0.345,1)}32.75%,33.17%{transform:scale(0.364,1)}33.19%,33.62%{transform:scale(0.382,1)}33.64%,34.07%{transform:scale(0.400,1)}34.09%,34.52%{transform:scale(0.418,1)}34.54%,34.97%{transform:scale(0.436,1)}34.99%,35.42%{transform:scale(0.455,1)}35.44%,35.86%{transform:scale(0.473,1)}35.88%,36.31%{transform:scale(0.491,1)}36.33%,36.76%{transform:scale(0.509,1)}36.78%,37.21%{transform:scale(0.527,1)}37.23%,37.66%{transform:scale(0.545,1)}37.68%,38.11%{transform:scale(0.564,1)}38.13%,38.56%{transform:scale(0.582,1)}38.58%,39%{transform:scale(0.600,1)}39.02%,39.45%{transform:scale(0.618,1)}39.47%,39.9%{transform:scale(0.636,1)}39.92%,40.35%{transform:scale(0.655,1)}40.37%,41.25%{transform:scale(0.673,1)}41.27%,41.69%{transform:scale(0.691,1)}41.71%,42.14%{transform:scale(0.709,1)}42.16%,42.59%{transform:scale(0.727,1)}42.61%,43.49%{transform:scale(0.745,1)}43.51%,43.94%{transform:scale(0.764,1)}43.96%,45.73%{transform:scale(0.782,1)}45.75%,46.18%{transform:scale(0.800,1)}46.2%,46.63%{transform:scale(0.818,1)}46.65%,47.08%{transform:scale(0.836,1)}47.1%,47.52%{transform:scale(0.855,1)}47.54%,48.42%{transform:scale(0.873,1)}48.44%,48.87%{transform:scale(0.891,1)}48.89%,49.32%{transform:scale(0.909,1)}49.34%,49.77%{transform:scale(0.927,1)}49.79%,50.66%{transform:scale(0.945,1)}50.68%,51.11%{transform:scale(0.964,1)}51.13%,53.35%{transform:scale(0.982,1)}53.37%,100%{transform:scale(1.000,1)}}.u.u0{fill:var(--c1);animation-name:u0;transform-origin:0.0px 0}@keyframes u1{56.04%{transform:scale(0.000,1)}56.06%,58.29%{transform:scale(0.500,1)}58.31%,100%{transform:scale(1.000,1)}}.u.u1{fill:var(--c2);animation-name:u1;transform-origin:764.6px 0}@keyframes u2{60.98%{transform:scale(0.000,1)}61%,63.22%{transform:scale(0.333,1)}63.24%,70.39%{transform:scale(0.667,1)}70.41%,100%{transform:scale(1.000,1)}}.u.u2{fill:var(--c3);animation-name:u2;transform-origin:792.4px 0}@keyframes u3{77.57%{transform:scale(0.000,1)}77.59%,100%{transform:scale(1.000,1)}}.u.u3{fill:var(--c4);animation-name:u3;transform-origin:834.1px 0}.s{shape-rendering:geometricPrecision;fill:var(--cs);animation:none linear 22300ms infinite}@keyframes s0{0%,99.55%{transform:translate(0px,-16px)}0.45%{transform:translate(0px,0px)}8.07%{transform:translate(272px,0px)}8.52%{transform:translate(272px,16px)}9.42%{transform:translate(240px,16px)}11.66%{transform:translate(240px,96px)}14.8%{transform:translate(352px,96px)}15.7%{transform:translate(352px,64px)}18.83%{transform:translate(464px,64px)}19.28%{transform:translate(464px,48px)}25.11%{transform:translate(672px,48px)}25.56%{transform:translate(672px,64px)}26.01%{transform:translate(656px,64px)}26.91%{transform:translate(656px,96px)}27.8%{transform:translate(688px,96px)}28.25%{transform:translate(688px,80px)}31.84%,44.39%{transform:translate(816px,80px)}34.08%{transform:translate(816px,0px)}36.32%{transform:translate(736px,0px)}37.22%{transform:translate(736px,32px)}39.01%{transform:translate(800px,32px)}39.46%{transform:translate(800px,16px)}40.36%{transform:translate(768px,16px)}41.26%,50.22%{transform:translate(768px,48px)}42.15%{transform:translate(800px,48px)}43.5%{transform:translate(800px,96px)}43.95%{transform:translate(816px,96px)}45.29%{transform:translate(784px,80px)}45.74%{transform:translate(784px,96px)}47.53%{transform:translate(720px,96px)}48.43%,77.13%{transform:translate(720px,64px)}49.78%,58.74%{transform:translate(768px,64px)}51.12%{transform:translate(736px,48px)}52.02%{transform:translate(736px,16px)}53.36%{transform:translate(688px,16px)}53.81%{transform:translate(688px,0px)}55.61%{transform:translate(752px,0px)}56.05%{transform:translate(752px,16px)}56.95%{transform:translate(784px,16px)}58.3%{transform:translate(784px,64px)}59.64%{transform:translate(768px,32px)}60.99%{transform:translate(720px,32px)}61.88%{transform:translate(720px,0px)}68.61%{transform:translate(480px,0px)}70.4%{transform:translate(480px,64px)}77.58%{transform:translate(720px,48px)}95.96%{transform:translate(64px,48px)}96.86%{transform:translate(64px,16px)}97.31%{transform:translate(48px,16px)}98.21%{transform:translate(48px,-16px)}}.s.s0{transform:translate(0px,-16px);animation-name:s0}@keyframes s1{0%,99.55%{transform:translate(16px,-16px)}0.45%{transform:translate(0px,-16px)}0.9%{transform:translate(0px,0px)}8.52%{transform:translate(272px,0px)}8.97%{transform:translate(272px,16px)}9.87%{transform:translate(240px,16px)}12.11%{transform:translate(240px,96px)}15.25%{transform:translate(352px,96px)}16.14%{transform:translate(352px,64px)}19.28%{transform:translate(464px,64px)}19.73%{transform:translate(464px,48px)}25.56%{transform:translate(672px,48px)}26.01%{transform:translate(672px,64px)}26.46%{transform:translate(656px,64px)}27.35%{transform:translate(656px,96px)}28.25%{transform:translate(688px,96px)}28.7%{transform:translate(688px,80px)}32.29%,44.84%{transform:translate(816px,80px)}34.53%{transform:translate(816px,0px)}36.77%{transform:translate(736px,0px)}37.67%{transform:translate(736px,32px)}39.46%{transform:translate(800px,32px)}39.91%{transform:translate(800px,16px)}40.81%{transform:translate(768px,16px)}41.7%,50.67%{transform:translate(768px,48px)}42.6%{transform:translate(800px,48px)}43.95%{transform:translate(800px,96px)}44.39%{transform:translate(816px,96px)}45.74%{transform:translate(784px,80px)}46.19%{transform:translate(784px,96px)}47.98%{transform:translate(720px,96px)}48.88%,77.58%{transform:translate(720px,64px)}50.22%,59.19%{transform:translate(768px,64px)}51.57%{transform:translate(736px,48px)}52.47%{transform:translate(736px,16px)}53.81%{transform:translate(688px,16px)}54.26%{transform:translate(688px,0px)}56.05%{transform:translate(752px,0px)}56.5%{transform:translate(752px,16px)}57.4%{transform:translate(784px,16px)}58.74%{transform:translate(784px,64px)}60.09%{transform:translate(768px,32px)}61.43%{transform:translate(720px,32px)}62.33%{transform:translate(720px,0px)}69.06%{transform:translate(480px,0px)}70.85%{transform:translate(480px,64px)}78.03%{transform:translate(720px,48px)}96.41%{transform:translate(64px,48px)}97.31%{transform:translate(64px,16px)}97.76%{transform:translate(48px,16px)}98.65%{transform:translate(48px,-16px)}}.s.s1{transform:translate(16px,-16px);animation-name:s1}@keyframes s2{0%,99.55%{transform:translate(32px,-16px)}0.9%{transform:translate(0px,-16px)}1.35%{transform:translate(0px,0px)}8.97%{transform:translate(272px,0px)}9.42%{transform:translate(272px,16px)}10.31%{transform:translate(240px,16px)}12.56%{transform:translate(240px,96px)}15.7%{transform:translate(352px,96px)}16.59%{transform:translate(352px,64px)}19.73%{transform:translate(464px,64px)}20.18%{transform:translate(464px,48px)}26.01%{transform:translate(672px,48px)}26.46%{transform:translate(672px,64px)}26.91%{transform:translate(656px,64px)}27.8%{transform:translate(656px,96px)}28.7%{transform:translate(688px,96px)}29.15%{transform:translate(688px,80px)}32.74%,45.29%{transform:translate(816px,80px)}34.98%{transform:translate(816px,0px)}37.22%{transform:translate(736px,0px)}38.12%{transform:translate(736px,32px)}39.91%{transform:translate(800px,32px)}40.36%{transform:translate(800px,16px)}41.26%{transform:translate(768px,16px)}42.15%,51.12%{transform:translate(768px,48px)}43.05%{transform:translate(800px,48px)}44.39%{transform:translate(800px,96px)}44.84%{transform:translate(816px,96px)}46.19%{transform:translate(784px,80px)}46.64%{transform:translate(784px,96px)}48.43%{transform:translate(720px,96px)}49.33%,78.03%{transform:translate(720px,64px)}50.67%,59.64%{transform:translate(768px,64px)}52.02%{transform:translate(736px,48px)}52.91%{transform:translate(736px,16px)}54.26%{transform:translate(688px,16px)}54.71%{transform:translate(688px,0px)}56.5%{transform:translate(752px,0px)}56.95%{transform:translate(752px,16px)}57.85%{transform:translate(784px,16px)}59.19%{transform:translate(784px,64px)}60.54%{transform:translate(768px,32px)}61.88%{transform:translate(720px,32px)}62.78%{transform:translate(720px,0px)}69.51%{transform:translate(480px,0px)}71.3%{transform:translate(480px,64px)}78.48%{transform:translate(720px,48px)}96.86%{transform:translate(64px,48px)}97.76%{transform:translate(64px,16px)}98.21%{transform:translate(48px,16px)}99.1%{transform:translate(48px,-16px)}}.s.s2{transform:translate(32px,-16px);animation-name:s2}@keyframes s3{0%,99.55%{transform:translate(48px,-16px)}1.35%{transform:translate(0px,-16px)}1.79%{transform:translate(0px,0px)}9.42%{transform:translate(272px,0px)}9.87%{transform:translate(272px,16px)}10.76%{transform:translate(240px,16px)}13%{transform:translate(240px,96px)}16.14%{transform:translate(352px,96px)}17.04%{transform:translate(352px,64px)}20.18%{transform:translate(464px,64px)}20.63%{transform:translate(464px,48px)}26.46%{transform:translate(672px,48px)}26.91%{transform:translate(672px,64px)}27.35%{transform:translate(656px,64px)}28.25%{transform:translate(656px,96px)}29.15%{transform:translate(688px,96px)}29.6%{transform:translate(688px,80px)}33.18%,45.74%{transform:translate(816px,80px)}35.43%{transform:translate(816px,0px)}37.67%{transform:translate(736px,0px)}38.57%{transform:translate(736px,32px)}40.36%{transform:translate(800px,32px)}40.81%{transform:translate(800px,16px)}41.7%{transform:translate(768px,16px)}42.6%,51.57%{transform:translate(768px,48px)}43.5%{transform:translate(800px,48px)}44.84%{transform:translate(800px,96px)}45.29%{transform:translate(816px,96px)}46.64%{transform:translate(784px,80px)}47.09%{transform:translate(784px,96px)}48.88%{transform:translate(720px,96px)}49.78%,78.48%{transform:translate(720px,64px)}51.12%,60.09%{transform:translate(768px,64px)}52.47%{transform:translate(736px,48px)}53.36%{transform:translate(736px,16px)}54.71%{transform:translate(688px,16px)}55.16%{transform:translate(688px,0px)}56.95%{transform:translate(752px,0px)}57.4%{transform:translate(752px,16px)}58.3%{transform:translate(784px,16px)}59.64%{transform:translate(784px,64px)}60.99%{transform:translate(768px,32px)}62.33%{transform:translate(720px,32px)}63.23%{transform:translate(720px,0px)}69.96%{transform:translate(480px,0px)}71.75%{transform:translate(480px,64px)}78.92%{transform:translate(720px,48px)}97.31%{transform:translate(64px,48px)}98.21%{transform:translate(64px,16px)}98.65%{transform:translate(48px,16px)}}.s.s3{transform:translate(48px,-16px);animation-name:s3}</style><rect class="c" x="2" y="2" rx="2" ry="2"/><rect class="c" x="2" y="18" rx="2" ry="2"/><rect class="c" x="2" y="34" rx="2" ry="2"/><rect class="c" x="2" y="50" rx="2" ry="2"/><rect class="c" x="2" y="66" rx="2" ry="2"/><rect class="c" x="2" y="82" rx="2" ry="2"/><rect class="c" x="2" y="98" rx="2" ry="2"/><rect class="c" x="18" y="2" rx="2" ry="2"/><rect class="c" x="18" y="18" rx="2" ry="2"/><rect class="c" x="18" y="34" rx="2" ry="2"/><rect class="c" x="18" y="50" rx="2" ry="2"/><rect class="c" x="18" y="66" rx="2" ry="2"/><rect class="c" x="18" y="82" rx="2" ry="2"/><rect class="c" x="18" y="98" rx="2" ry="2"/><rect class="c" x="34" y="2" rx="2" ry="2"/><rect class="c" x="34" y="18" rx="2" ry="2"/><rect class="c" x="34" y="34" rx="2" ry="2"/><rect class="c" x="34" y="50" rx="2" ry="2"/><rect class="c" x="34" y="66" rx="2" ry="2"/><rect class="c" x="34" y="82" rx="2" ry="2"/><rect class="c" x="34" y="98" rx="2" ry="2"/><rect class="c" x="50" y="2" rx="2" ry="2"/><rect class="c" x="50" y="18" rx="2" ry="2"/><rect class="c" x="50" y="34" rx="2" ry="2"/><rect class="c" x="50" y="50" rx="2" ry="2"/><rect class="c" x="50" y="66" rx="2" ry="2"/><rect class="c" x="50" y="82" rx="2" ry="2"/><rect class="c" x="50" y="98" rx="2" ry="2"/><rect class="c" x="66" y="2" rx="2" ry="2"/><rect class="c" x="66" y="18" rx="2" ry="2"/><rect class="c" x="66" y="34" rx="2" ry="2"/><rect class="c" x="66" y="50" rx="2" ry="2"/><rect class="c" x="66" y="66" rx="2" ry="2"/><rect class="c" x="66" y="82" rx="2" ry="2"/><rect class="c" x="66" y="98" rx="2" ry="2"/><rect class="c" x="82" y="2" rx="2" ry="2"/><rect class="c" x="82" y="18" rx="2" ry="2"/><rect class="c" x="82" y="34" rx="2" ry="2"/><rect class="c" x="82" y="50" rx="2" ry="2"/><rect class="c" x="82" y="66" rx="2" ry="2"/><rect class="c" x="82" y="82" rx="2" ry="2"/><rect class="c" x="82" y="98" rx="2" ry="2"/><rect class="c" x="98" y="2" rx="2" ry="2"/><rect class="c" x="98" y="18" rx="2" ry="2"/><rect class="c" x="98" y="34" rx="2" ry="2"/><rect class="c" x="98" y="50" rx="2" ry="2"/><rect class="c" x="98" y="66" rx="2" ry="2"/><rect class="c" x="98" y="82" rx="2" ry="2"/><rect class="c" x="98" y="98" rx="2" ry="2"/><rect class="c" x="114" y="2" rx="2" ry="2"/><rect class="c" x="114" y="18" rx="2" ry="2"/><rect class="c" x="114" y="34" rx="2" ry="2"/><rect class="c" x="114" y="50" rx="2" ry="2"/><rect class="c" x="114" y="66" rx="2" ry="2"/><rect class="c" x="114" y="82" rx="2" ry="2"/><rect class="c" x="114" y="98" rx="2" ry="2"/><rect class="c" x="130" y="2" rx="2" ry="2"/><rect class="c" x="130" y="18" rx="2" ry="2"/><rect class="c" x="130" y="34" rx="2" ry="2"/><rect class="c" x="130" y="50" rx="2" ry="2"/><rect class="c" x="130" y="66" rx="2" ry="2"/><rect class="c" x="130" y="82" rx="2" ry="2"/><rect class="c" x="130" y="98" rx="2" ry="2"/><rect class="c" x="146" y="2" rx="2" ry="2"/><rect class="c" x="146" y="18" rx="2" ry="2"/><rect class="c" x="146" y="34" rx="2" ry="2"/><rect class="c" x="146" y="50" rx="2" ry="2"/><rect class="c" x="146" y="66" rx="2" ry="2"/><rect class="c" x="146" y="82" rx="2" ry="2"/><rect class="c" x="146" y="98" rx="2" ry="2"/><rect class="c" x="162" y="2" rx="2" ry="2"/><rect class="c" x="162" y="18" rx="2" ry="2"/><rect class="c" x="162" y="34" rx="2" ry="2"/><rect class="c" x="162" y="50" rx="2" ry="2"/><rect class="c" x="162" y="66" rx="2" ry="2"/><rect class="c" x="162" y="82" rx="2" ry="2"/><rect class="c" x="162" y="98" rx="2" ry="2"/><rect class="c" x="178" y="2" rx="2" ry="2"/><rect class="c" x="178" y="18" rx="2" ry="2"/><rect class="c" x="178" y="34" rx="2" ry="2"/><rect class="c" x="178" y="50" rx="2" ry="2"/><rect class="c" x="178" y="66" rx="2" ry="2"/><rect class="c" x="178" y="82" rx="2" ry="2"/><rect class="c" x="178" y="98" rx="2" ry="2"/><rect class="c" x="194" y="2" rx="2" ry="2"/><rect class="c" x="194" y="18" rx="2" ry="2"/><rect class="c" x="194" y="34" rx="2" ry="2"/><rect class="c" x="194" y="50" rx="2" ry="2"/><rect class="c" x="194" y="66" rx="2" ry="2"/><rect class="c" x="194" y="82" rx="2" ry="2"/><rect class="c" x="194" y="98" rx="2" ry="2"/><rect class="c" x="210" y="2" rx="2" ry="2"/><rect class="c" x="210" y="18" rx="2" ry="2"/><rect class="c" x="210" y="34" rx="2" ry="2"/><rect class="c" x="210" y="50" rx="2" ry="2"/><rect class="c" x="210" y="66" rx="2" ry="2"/><rect class="c" x="210" y="82" rx="2" ry="2"/><rect class="c" x="210" y="98" rx="2" ry="2"/><rect class="c" x="226" y="2" rx="2" ry="2"/><rect class="c" x="226" y="18" rx="2" ry="2"/><rect class="c" x="226" y="34" rx="2" ry="2"/><rect class="c" x="226" y="50" rx="2" ry="2"/><rect class="c" x="226" y="66" rx="2" ry="2"/><rect class="c" x="226" y="82" rx="2" ry="2"/><rect class="c" x="226" y="98" rx="2" ry="2"/><rect class="c" x="242" y="2" rx="2" ry="2"/><rect class="c" x="242" y="18" rx="2" ry="2"/><rect class="c" x="242" y="34" rx="2" ry="2"/><rect class="c" x="242" y="50" rx="2" ry="2"/><rect class="c" x="242" y="66" rx="2" ry="2"/><rect class="c c0" x="242" y="82" rx="2" ry="2"/><rect class="c c1" x="242" y="98" rx="2" ry="2"/><rect class="c" x="258" y="2" rx="2" ry="2"/><rect class="c" x="258" y="18" rx="2" ry="2"/><rect class="c" x="258" y="34" rx="2" ry="2"/><rect class="c" x="258" y="50" rx="2" ry="2"/><rect class="c" x="258" y="66" rx="2" ry="2"/><rect class="c" x="258" y="82" rx="2" ry="2"/><rect class="c" x="258" y="98" rx="2" ry="2"/><rect class="c c2" x="274" y="2" rx="2" ry="2"/><rect class="c c3" x="274" y="18" rx="2" ry="2"/><rect class="c" x="274" y="34" rx="2" ry="2"/><rect class="c" x="274" y="50" rx="2" ry="2"/><rect class="c" x="274" y="66" rx="2" ry="2"/><rect class="c" x="274" y="82" rx="2" ry="2"/><rect class="c" x="274" y="98" rx="2" ry="2"/><rect class="c" x="290" y="2" rx="2" ry="2"/><rect class="c" x="290" y="18" rx="2" ry="2"/><rect class="c" x="290" y="34" rx="2" ry="2"/><rect class="c" x="290" y="50" rx="2" ry="2"/><rect class="c" x="290" y="66" rx="2" ry="2"/><rect class="c" x="290" y="82" rx="2" ry="2"/><rect class="c" x="290" y="98" rx="2" ry="2"/><rect class="c" x="306" y="2" rx="2" ry="2"/><rect class="c" x="306" y="18" rx="2" ry="2"/><rect class="c" x="306" y="34" rx="2" ry="2"/><rect class="c" x="306" y="50" rx="2" ry="2"/><rect class="c" x="306" y="66" rx="2" ry="2"/><rect class="c" x="306" y="82" rx="2" ry="2"/><rect class="c" x="306" y="98" rx="2" ry="2"/><rect class="c" x="322" y="2" rx="2" ry="2"/><rect class="c" x="322" y="18" rx="2" ry="2"/><rect class="c" x="322" y="34" rx="2" ry="2"/><rect class="c" x="322" y="50" rx="2" ry="2"/><rect class="c" x="322" y="66" rx="2" ry="2"/><rect class="c" x="322" y="82" rx="2" ry="2"/><rect class="c" x="322" y="98" rx="2" ry="2"/><rect class="c" x="338" y="2" rx="2" ry="2"/><rect class="c" x="338" y="18" rx="2" ry="2"/><rect class="c" x="338" y="34" rx="2" ry="2"/><rect class="c" x="338" y="50" rx="2" ry="2"/><rect class="c" x="338" y="66" rx="2" ry="2"/><rect class="c" x="338" y="82" rx="2" ry="2"/><rect class="c" x="338" y="98" rx="2" ry="2"/><rect class="c" x="354" y="2" rx="2" ry="2"/><rect class="c" x="354" y="18" rx="2" ry="2"/><rect class="c" x="354" y="34" rx="2" ry="2"/><rect class="c" x="354" y="50" rx="2" ry="2"/><rect class="c c4" x="354" y="66" rx="2" ry="2"/><rect class="c" x="354" y="82" rx="2" ry="2"/><rect class="c" x="354" y="98" rx="2" ry="2"/><rect class="c" x="370" y="2" rx="2" ry="2"/><rect class="c" x="370" y="18" rx="2" ry="2"/><rect class="c" x="370" y="34" rx="2" ry="2"/><rect class="c" x="370" y="50" rx="2" ry="2"/><rect class="c" x="370" y="66" rx="2" ry="2"/><rect class="c" x="370" y="82" rx="2" ry="2"/><rect class="c" x="370" y="98" rx="2" ry="2"/><rect class="c" x="386" y="2" rx="2" ry="2"/><rect class="c" x="386" y="18" rx="2" ry="2"/><rect class="c" x="386" y="34" rx="2" ry="2"/><rect class="c" x="386" y="50" rx="2" ry="2"/><rect class="c" x="386" y="66" rx="2" ry="2"/><rect class="c" x="386" y="82" rx="2" ry="2"/><rect class="c" x="386" y="98" rx="2" ry="2"/><rect class="c" x="402" y="2" rx="2" ry="2"/><rect class="c" x="402" y="18" rx="2" ry="2"/><rect class="c" x="402" y="34" rx="2" ry="2"/><rect class="c" x="402" y="50" rx="2" ry="2"/><rect class="c" x="402" y="66" rx="2" ry="2"/><rect class="c" x="402" y="82" rx="2" ry="2"/><rect class="c" x="402" y="98" rx="2" ry="2"/><rect class="c" x="418" y="2" rx="2" ry="2"/><rect class="c" x="418" y="18" rx="2" ry="2"/><rect class="c" x="418" y="34" rx="2" ry="2"/><rect class="c" x="418" y="50" rx="2" ry="2"/><rect class="c" x="418" y="66" rx="2" ry="2"/><rect class="c" x="418" y="82" rx="2" ry="2"/><rect class="c" x="418" y="98" rx="2" ry="2"/><rect class="c" x="434" y="2" rx="2" ry="2"/><rect class="c" x="434" y="18" rx="2" ry="2"/><rect class="c" x="434" y="34" rx="2" ry="2"/><rect class="c" x="434" y="50" rx="2" ry="2"/><rect class="c" x="434" y="66" rx="2" ry="2"/><rect class="c" x="434" y="82" rx="2" ry="2"/><rect class="c" x="434" y="98" rx="2" ry="2"/><rect class="c" x="450" y="2" rx="2" ry="2"/><rect class="c" x="450" y="18" rx="2" ry="2"/><rect class="c" x="450" y="34" rx="2" ry="2"/><rect class="c" x="450" y="50" rx="2" ry="2"/><rect class="c" x="450" y="66" rx="2" ry="2"/><rect class="c" x="450" y="82" rx="2" ry="2"/><rect class="c" x="450" y="98" rx="2" ry="2"/><rect class="c" x="466" y="2" rx="2" ry="2"/><rect class="c" x="466" y="18" rx="2" ry="2"/><rect class="c" x="466" y="34" rx="2" ry="2"/><rect class="c" x="466" y="50" rx="2" ry="2"/><rect class="c" x="466" y="66" rx="2" ry="2"/><rect class="c" x="466" y="82" rx="2" ry="2"/><rect class="c" x="466" y="98" rx="2" ry="2"/><rect class="c" x="482" y="2" rx="2" ry="2"/><rect class="c" x="482" y="18" rx="2" ry="2"/><rect class="c" x="482" y="34" rx="2" ry="2"/><rect class="c" x="482" y="50" rx="2" ry="2"/><rect class="c c5" x="482" y="66" rx="2" ry="2"/><rect class="c" x="482" y="82" rx="2" ry="2"/><rect class="c" x="482" y="98" rx="2" ry="2"/><rect class="c" x="498" y="2" rx="2" ry="2"/><rect class="c" x="498" y="18" rx="2" ry="2"/><rect class="c" x="498" y="34" rx="2" ry="2"/><rect class="c c6" x="498" y="50" rx="2" ry="2"/><rect class="c" x="498" y="66" rx="2" ry="2"/><rect class="c" x="498" y="82" rx="2" ry="2"/><rect class="c" x="498" y="98" rx="2" ry="2"/><rect class="c" x="514" y="2" rx="2" ry="2"/><rect class="c" x="514" y="18" rx="2" ry="2"/><rect class="c" x="514" y="34" rx="2" ry="2"/><rect class="c" x="514" y="50" rx="2" ry="2"/><rect class="c" x="514" y="66" rx="2" ry="2"/><rect class="c" x="514" y="82" rx="2" ry="2"/><rect class="c" x="514" y="98" rx="2" ry="2"/><rect class="c" x="530" y="2" rx="2" ry="2"/><rect class="c" x="530" y="18" rx="2" ry="2"/><rect class="c" x="530" y="34" rx="2" ry="2"/><rect class="c" x="530" y="50" rx="2" ry="2"/><rect class="c" x="530" y="66" rx="2" ry="2"/><rect class="c" x="530" y="82" rx="2" ry="2"/><rect class="c" x="530" y="98" rx="2" ry="2"/><rect class="c" x="546" y="2" rx="2" ry="2"/><rect class="c" x="546" y="18" rx="2" ry="2"/><rect class="c" x="546" y="34" rx="2" ry="2"/><rect class="c" x="546" y="50" rx="2" ry="2"/><rect class="c" x="546" y="66" rx="2" ry="2"/><rect class="c" x="546" y="82" rx="2" ry="2"/><rect class="c" x="546" y="98" rx="2" ry="2"/><rect class="c" x="562" y="2" rx="2" ry="2"/><rect class="c" x="562" y="18" rx="2" ry="2"/><rect class="c" x="562" y="34" rx="2" ry="2"/><rect class="c" x="562" y="50" rx="2" ry="2"/><rect class="c" x="562" y="66" rx="2" ry="2"/><rect class="c" x="562" y="82" rx="2" ry="2"/><rect class="c" x="562" y="98" rx="2" ry="2"/><rect class="c" x="578" y="2" rx="2" ry="2"/><rect class="c" x="578" y="18" rx="2" ry="2"/><rect class="c" x="578" y="34" rx="2" ry="2"/><rect class="c" x="578" y="50" rx="2" ry="2"/><rect class="c" x="578" y="66" rx="2" ry="2"/><rect class="c" x="578" y="82" rx="2" ry="2"/><rect class="c" x="578" y="98" rx="2" ry="2"/><rect class="c" x="594" y="2" rx="2" ry="2"/><rect class="c" x="594" y="18" rx="2" ry="2"/><rect class="c" x="594" y="34" rx="2" ry="2"/><rect class="c" x="594" y="50" rx="2" ry="2"/><rect class="c" x="594" y="66" rx="2" ry="2"/><rect class="c" x="594" y="82" rx="2" ry="2"/><rect class="c" x="594" y="98" rx="2" ry="2"/><rect class="c" x="610" y="2" rx="2" ry="2"/><rect class="c" x="610" y="18" rx="2" ry="2"/><rect class="c" x="610" y="34" rx="2" ry="2"/><rect class="c" x="610" y="50" rx="2" ry="2"/><rect class="c" x="610" y="66" rx="2" ry="2"/><rect class="c" x="610" y="82" rx="2" ry="2"/><rect class="c" x="610" y="98" rx="2" ry="2"/><rect class="c" x="626" y="2" rx="2" ry="2"/><rect class="c" x="626" y="18" rx="2" ry="2"/><rect class="c" x="626" y="34" rx="2" ry="2"/><rect class="c" x="626" y="50" rx="2" ry="2"/><rect class="c" x="626" y="66" rx="2" ry="2"/><rect class="c" x="626" y="82" rx="2" ry="2"/><rect class="c" x="626" y="98" rx="2" ry="2"/><rect class="c" x="642" y="2" rx="2" ry="2"/><rect class="c" x="642" y="18" rx="2" ry="2"/><rect class="c" x="642" y="34" rx="2" ry="2"/><rect class="c" x="642" y="50" rx="2" ry="2"/><rect class="c" x="642" y="66" rx="2" ry="2"/><rect class="c" x="642" y="82" rx="2" ry="2"/><rect class="c" x="642" y="98" rx="2" ry="2"/><rect class="c" x="658" y="2" rx="2" ry="2"/><rect class="c" x="658" y="18" rx="2" ry="2"/><rect class="c" x="658" y="34" rx="2" ry="2"/><rect class="c" x="658" y="50" rx="2" ry="2"/><rect class="c c7" x="658" y="66" rx="2" ry="2"/><rect class="c" x="658" y="82" rx="2" ry="2"/><rect class="c c8" x="658" y="98" rx="2" ry="2"/><rect class="c c9" x="674" y="2" rx="2" ry="2"/><rect class="c" x="674" y="18" rx="2" ry="2"/><rect class="c" x="674" y="34" rx="2" ry="2"/><rect class="c ca" x="674" y="50" rx="2" ry="2"/><rect class="c" x="674" y="66" rx="2" ry="2"/><rect class="c" x="674" y="82" rx="2" ry="2"/><rect class="c" x="674" y="98" rx="2" ry="2"/><rect class="c" x="690" y="2" rx="2" ry="2"/><rect class="c cb" x="690" y="18" rx="2" ry="2"/><rect class="c" x="690" y="34" rx="2" ry="2"/><rect class="c" x="690" y="50" rx="2" ry="2"/><rect class="c" x="690" y="66" rx="2" ry="2"/><rect class="c cc" x="690" y="82" rx="2" ry="2"/><rect class="c cd" x="690" y="98" rx="2" ry="2"/><rect class="c" x="706" y="2" rx="2" ry="2"/><rect class="c" x="706" y="18" rx="2" ry="2"/><rect class="c" x="706" y="34" rx="2" ry="2"/><rect class="c" x="706" y="50" rx="2" ry="2"/><rect class="c" x="706" y="66" rx="2" ry="2"/><rect class="c" x="706" y="82" rx="2" ry="2"/><rect class="c" x="706" y="98" rx="2" ry="2"/><rect class="c" x="722" y="2" rx="2" ry="2"/><rect class="c" x="722" y="18" rx="2" ry="2"/><rect class="c ce" x="722" y="34" rx="2" ry="2"/><rect class="c cf" x="722" y="50" rx="2" ry="2"/><rect class="c cg" x="722" y="66" rx="2" ry="2"/><rect class="c ch" x="722" y="82" rx="2" ry="2"/><rect class="c ci" x="722" y="98" rx="2" ry="2"/><rect class="c cj" x="738" y="2" rx="2" ry="2"/><rect class="c ck" x="738" y="18" rx="2" ry="2"/><rect class="c cl" x="738" y="34" rx="2" ry="2"/><rect class="c cm" x="738" y="50" rx="2" ry="2"/><rect class="c cn" x="738" y="66" rx="2" ry="2"/><rect class="c co" x="738" y="82" rx="2" ry="2"/><rect class="c cp" x="738" y="98" rx="2" ry="2"/><rect class="c cq" x="754" y="2" rx="2" ry="2"/><rect class="c cr" x="754" y="18" rx="2" ry="2"/><rect class="c cs" x="754" y="34" rx="2" ry="2"/><rect class="c ct" x="754" y="50" rx="2" ry="2"/><rect class="c cu" x="754" y="66" rx="2" ry="2"/><rect class="c cv" x="754" y="82" rx="2" ry="2"/><rect class="c cw" x="754" y="98" rx="2" ry="2"/><rect class="c cx" x="770" y="2" rx="2" ry="2"/><rect class="c cy" x="770" y="18" rx="2" ry="2"/><rect class="c cz" x="770" y="34" rx="2" ry="2"/><rect class="c c10" x="770" y="50" rx="2" ry="2"/><rect class="c c11" x="770" y="66" rx="2" ry="2"/><rect class="c c12" x="770" y="82" rx="2" ry="2"/><rect class="c c13" x="770" y="98" rx="2" ry="2"/><rect class="c c14" x="786" y="2" rx="2" ry="2"/><rect class="c c15" x="786" y="18" rx="2" ry="2"/><rect class="c c16" x="786" y="34" rx="2" ry="2"/><rect class="c c17" x="786" y="50" rx="2" ry="2"/><rect class="c c18" x="786" y="66" rx="2" ry="2"/><rect class="c c19" x="786" y="82" rx="2" ry="2"/><rect class="c c1a" x="786" y="98" rx="2" ry="2"/><rect class="c c1b" x="802" y="2" rx="2" ry="2"/><rect class="c c1c" x="802" y="18" rx="2" ry="2"/><rect class="c c1d" x="802" y="34" rx="2" ry="2"/><rect class="c c1e" x="802" y="50" rx="2" ry="2"/><rect class="c c1f" x="802" y="66" rx="2" ry="2"/><rect class="c c1g" x="802" y="82" rx="2" ry="2"/><rect class="c c1h" x="802" y="98" rx="2" ry="2"/><rect class="c c1i" x="818" y="2" rx="2" ry="2"/><rect class="c c1j" x="818" y="18" rx="2" ry="2"/><rect class="c c1k" x="818" y="34" rx="2" ry="2"/><rect class="c c1l" x="818" y="50" rx="2" ry="2"/><rect class="c c1m" x="818" y="66" rx="2" ry="2"/><rect class="c c1n" x="818" y="82" rx="2" ry="2"/><rect class="c c1o" x="818" y="98" rx="2" ry="2"/><rect class="c" x="834" y="2" rx="2" ry="2"/><rect class="u u0" height="12" width="765.2" x="0.0" y="144"/><rect class="u u1" height="12" width="28.4" x="764.6" y="144"/><rect class="u u2" height="12" width="42.3" x="792.4" y="144"/><rect class="u u3" height="12" width="14.5" x="834.1" y="144"/><rect class="s s0" x="0.8" y="0.8" width="14.4" height="14.4" rx="4.5" ry="4.5"/><rect class="s s1" x="1.8" y="1.8" width="12.3" height="12.3" rx="4.1" ry="4.1"/><rect class="s s2" x="2.6" y="2.6" width="10.8" height="10.8" rx="3.6" ry="3.6"/><rect class="s s3" x="3.0" y="3.0" width="9.9" height="9.9" rx="3.3" ry="3.3"/></svg>