<svg viewBox="-16 -32 880 192" width="880" height="192" xmlns="http://www.w3.org/2000/svg"><desc>Generated with https://github.com/Platane/snk</desc><style>:root{--cb:#1b1f230a;--cs:purple;--ce:#ebedf0;--c0:#ebedf0;--c1:#9be9a8;--c2:#40c463;--c3:#30a14e;--c4:#216e39}.c{shape-rendering:geometricPrecision;fill:var(--ce);stroke-width:1px;stroke:var(--cb);animation:none 19300ms linear infinite;width:12px;height:12px}@keyframes c0{15.53%{fill:var(--c1)}15.55%,100%{fill:var(--ce)}}.c.c0{fill:var(--c1);animation-name:c0}@keyframes c1{16.05%{fill:var(--c1)}16.07%,100%{fill:var(--ce)}}.c.c1{fill:var(--c1);animation-name:c1}@keyframes c2{11.91%{fill:var(--c1)}11.93%,100%{fill:var(--ce)}}.c.c2{fill:var(--c1);animation-name:c2}@keyframes c3{12.43%{fill:var(--c1)}12.45%,100%{fill:var(--ce)}}.c.c3{fill:var(--c1);animation-name:c3}@keyframes c4{20.72%{fill:var(--c1)}20.74%,100%{fill:var(--ce)}}.c.c4{fill:var(--c1);animation-name:c4}@keyframes c5{63.2%{fill:var(--c3)}63.22%,100%{fill:var(--ce)}}.c.c5{fill:var(--c3);animation-name:c5}@keyframes c6{25.9%{fill:var(--c1)}25.92%,100%{fill:var(--ce)}}.c.c6{fill:var(--c1);animation-name:c6}@keyframes c7{32.63%{fill:var(--c1)}32.65%,100%{fill:var(--ce)}}.c.c7{fill:var(--c1);animation-name:c7}@keyframes c8{33.67%{fill:var(--c1)}33.69%,100%{fill:var(--ce)}}.c.c8{fill:var(--c1);animation-name:c8}@keyframes c9{54.91%{fill:var(--c3)}54.93%,100%{fill:var(--ce)}}.c.c9{fill:var(--c3);animation-name:c9}@keyframes ca{31.6%{fill:var(--c1)}31.62%,100%{fill:var(--ce)}}.c.ca{fill:var(--c1);animation-name:ca}@keyframes cb{43.51%{fill:var(--c1)}43.53%,100%{fill:var(--ce)}}.c.cb{fill:var(--c1);animation-name:cb}@keyframes cc{35.22%{fill:var(--c1)}35.24%,100%{fill:var(--ce)}}.c.cc{fill:var(--c1);animation-name:cc}@keyframes cd{34.71%{fill:var(--c1)}34.73%,100%{fill:var(--ce)}}.c.cd{fill:var(--c1);animation-name:cd}@keyframes ce{52.32%{fill:var(--c3)}52.34%,100%{fill:var(--ce)}}.c.ce{fill:var(--c3);animation-name:ce}@keyframes cf{71.49%{fill:var(--c4)}71.51%,100%{fill:var(--ce)}}.c.cf{fill:var(--c4);animation-name:cf}@keyframes cg{46.1%{fill:var(--c1)}46.12%,100%{fill:var(--ce)}}.c.cg{fill:var(--c1);animation-name:cg}@keyframes ch{36.26%{fill:var(--c1)}36.28%,100%{fill:var(--ce)}}.c.ch{fill:var(--c1);animation-name:ch}@keyframes ci{47.14%{fill:var(--c1)}47.16%,100%{fill:var(--ce)}}.c.ci{fill:var(--c1);animation-name:ci}@keyframes cj{41.44%{fill:var(--c1)}41.46%,100%{fill:var(--ce)}}.c.cj{fill:var(--c1);animation-name:cj}@keyframes ck{41.96%{fill:var(--c1)}41.98%,100%{fill:var(--ce)}}.c.ck{fill:var(--c1);animation-name:ck}@keyframes cl{38.33%{fill:var(--c1)}38.35%,100%{fill:var(--ce)}}.c.cl{fill:var(--c1);animation-name:cl}@keyframes cm{37.81%{fill:var(--c1)}37.83%,100%{fill:var(--ce)}}.c.cm{fill:var(--c1);animation-name:cm}@keyframes cn{37.3%{fill:var(--c1)}37.32%,100%{fill:var(--ce)}}.c.cn{fill:var(--c1);animation-name:cn}@keyframes co{36.78%{fill:var(--c1)}36.8%,100%{fill:var(--ce)}}.c.co{fill:var(--c1);animation-name:co}@keyframes cp{47.66%{fill:var(--c1)}47.68%,100%{fill:var(--ce)}}.c.cp{fill:var(--c1);animation-name:cp}@keyframes cq{40.92%{fill:var(--c1)}40.94%,100%{fill:var(--ce)}}.c.cq{fill:var(--c1);animation-name:cq}@keyframes cr{50.77%{fill:var(--c2)}50.79%,100%{fill:var(--ce)}}.c.cr{fill:var(--c2);animation-name:cr}@keyframes cs{38.85%{fill:var(--c1)}38.87%,100%{fill:var(--ce)}}.c.cs{fill:var(--c1);animation-name:cs}.u{transform-origin:0 0;transform:scale(0,1);animation:none linear 19300ms infinite}@keyframes u0{11.91%{transform:scale(0.000,1)}11.93%,12.43%{transform:scale(0.042,1)}12.45%,15.53%{transform:scale(0.083,1)}15.55%,16.05%{transform:scale(0.125,1)}16.07%,20.72%{transform:scale(0.167,1)}20.74%,25.9%{transform:scale(0.208,1)}25.92%,31.6%{transform:scale(0.250,1)}31.62%,32.63%{transform:scale(0.292,1)}32.65%,33.67%{transform:scale(0.333,1)}33.69%,34.71%{transform:scale(0.375,1)}34.73%,35.22%{transform:scale(0.417,1)}35.24%,36.26%{transform:scale(0.458,1)}36.28%,36.78%{transform:scale(0.500,1)}36.8%,37.3%{transform:scale(0.542,1)}37.32%,37.81%{transform:scale(0.583,1)}37.83%,38.33%{transform:scale(0.625,1)}38.35%,38.85%{transform:scale(0.667,1)}38.87%,40.92%{transform:scale(0.708,1)}40.94%,41.44%{transform:scale(0.750,1)}41.46%,41.96%{transform:scale(0.792,1)}41.98%,43.51%{transform:scale(0.833,1)}43.53%,46.1%{transform:scale(0.875,1)}46.12%,47.14%{transform:scale(0.917,1)}47.16%,47.66%{transform:scale(0.958,1)}47.68%,100%{transform:scale(1.000,1)}}.u.u0{fill:var(--c1);animation-name:u0;transform-origin:0.0px 0}@keyframes u1{50.77%{transform:scale(0.000,1)}50.79%,100%{transform:scale(1.000,1)}}.u.u1{fill:var(--c2);animation-name:u1;transform-origin:701.8px 0}@keyframes u2{52.32%{transform:scale(0.000,1)}52.34%,54.91%{transform:scale(0.333,1)}54.93%,63.2%{transform:scale(0.667,1)}63.22%,100%{transform:scale(1.000,1)}}.u.u2{fill:var(--c3);animation-name:u2;transform-origin:731.0px 0}@keyframes u3{71.49%{transform:scale(0.000,1)}71.51%,100%{transform:scale(1.000,1)}}.u.u3{fill:var(--c4);animation-name:u3;transform-origin:818.8px 0}.s{shape-rendering:geometricPrecision;fill:var(--cs);animation:none linear 19300ms infinite}@keyframes s0{0%,99.48%{transform:translate(0px,-16px)}0.52%{transform:translate(0px,0px)}11.92%{transform:translate(352px,0px)}12.44%{transform:translate(352px,16px)}13.47%{transform:translate(320px,16px)}16.06%{transform:translate(320px,96px)}19.69%{transform:translate(432px,96px)}20.73%{transform:translate(432px,64px)}24.35%{transform:translate(544px,64px)}24.87%{transform:translate(544px,48px)}31.61%{transform:translate(752px,48px)}32.12%{transform:translate(752px,64px)}32.64%{transform:translate(736px,64px)}33.68%{transform:translate(736px,96px)}34.72%{transform:translate(768px,96px)}35.23%{transform:translate(768px,80px)}36.79%{transform:translate(816px,80px)}38.34%{transform:translate(816px,32px)}39.38%{transform:translate(848px,32px)}40.41%{transform:translate(848px,0px)}41.45%{transform:translate(816px,0px)}41.97%{transform:translate(816px,16px)}43.52%{transform:translate(768px,16px)}44.04%{transform:translate(768px,32px)}44.56%,52.85%{transform:translate(784px,32px)}45.6%{transform:translate(784px,64px)}46.11%,70.98%{transform:translate(800px,64px)}47.15%{transform:translate(800px,96px)}48.19%{transform:translate(832px,96px)}50.78%{transform:translate(832px,16px)}51.81%{transform:translate(800px,16px)}52.33%{transform:translate(800px,32px)}53.89%{transform:translate(784px,0px)}61.14%{transform:translate(560px,0px)}63.21%{transform:translate(560px,64px)}71.5%{transform:translate(800px,48px)}92.75%{transform:translate(144px,48px)}93.26%{transform:translate(144px,32px)}93.78%{transform:translate(128px,32px)}94.3%{transform:translate(128px,16px)}95.85%{transform:translate(80px,16px)}96.89%{transform:translate(80px,-16px)}}.s.s0{transform:translate(0px,-16px);animation-name:s0}@keyframes s1{0%,99.48%{transform:translate(16px,-16px)}0.52%{transform:translate(0px,-16px)}1.04%{transform:translate(0px,0px)}12.44%{transform:translate(352px,0px)}12.95%{transform:translate(352px,16px)}13.99%{transform:translate(320px,16px)}16.58%{transform:translate(320px,96px)}20.21%{transform:translate(432px,96px)}21.24%{transform:translate(432px,64px)}24.87%{transform:translate(544px,64px)}25.39%{transform:translate(544px,48px)}32.12%{transform:translate(752px,48px)}32.64%{transform:translate(752px,64px)}33.16%{transform:translate(736px,64px)}34.2%{transform:translate(736px,96px)}35.23%{transform:translate(768px,96px)}35.75%{transform:translate(768px,80px)}37.31%{transform:translate(816px,80px)}38.86%{transform:translate(816px,32px)}39.9%{transform:translate(848px,32px)}40.93%{transform:translate(848px,0px)}41.97%{transform:translate(816px,0px)}42.49%{transform:translate(816px,16px)}44.04%{transform:translate(768px,16px)}44.56%{transform:translate(768px,32px)}45.08%,53.37%{transform:translate(784px,32px)}46.11%{transform:translate(784px,64px)}46.63%,71.5%{transform:translate(800px,64px)}47.67%{transform:translate(800px,96px)}48.7%{transform:translate(832px,96px)}51.3%{transform:translate(832px,16px)}52.33%{transform:translate(800px,16px)}52.85%{transform:translate(800px,32px)}54.4%{transform:translate(784px,0px)}61.66%{transform:translate(560px,0px)}63.73%{transform:translate(560px,64px)}72.02%{transform:translate(800px,48px)}93.26%{transform:translate(144px,48px)}93.78%{transform:translate(144px,32px)}94.3%{transform:translate(128px,32px)}94.82%{transform:translate(128px,16px)}96.37%{transform:translate(80px,16px)}97.41%{transform:translate(80px,-16px)}}.s.s1{transform:translate(16px,-16px);animation-name:s1}@keyframes s2{0%,99.48%{transform:translate(32px,-16px)}1.04%{transform:translate(0px,-16px)}1.55%{transform:translate(0px,0px)}12.95%{transform:translate(352px,0px)}13.47%{transform:translate(352px,16px)}14.51%{transform:translate(320px,16px)}17.1%{transform:translate(320px,96px)}20.73%{transform:translate(432px,96px)}21.76%{transform:translate(432px,64px)}25.39%{transform:translate(544px,64px)}25.91%{transform:translate(544px,48px)}32.64%{transform:translate(752px,48px)}33.16%{transform:translate(752px,64px)}33.68%{transform:translate(736px,64px)}34.72%{transform:translate(736px,96px)}35.75%{transform:translate(768px,96px)}36.27%{transform:translate(768px,80px)}37.82%{transform:translate(816px,80px)}39.38%{transform:translate(816px,32px)}40.41%{transform:translate(848px,32px)}41.45%{transform:translate(848px,0px)}42.49%{transform:translate(816px,0px)}43.01%{transform:translate(816px,16px)}44.56%{transform:translate(768px,16px)}45.08%{transform:translate(768px,32px)}45.6%,53.89%{transform:translate(784px,32px)}46.63%{transform:translate(784px,64px)}47.15%,72.02%{transform:translate(800px,64px)}48.19%{transform:translate(800px,96px)}49.22%{transform:translate(832px,96px)}51.81%{transform:translate(832px,16px)}52.85%{transform:translate(800px,16px)}53.37%{transform:translate(800px,32px)}54.92%{transform:translate(784px,0px)}62.18%{transform:translate(560px,0px)}64.25%{transform:translate(560px,64px)}72.54%{transform:translate(800px,48px)}93.78%{transform:translate(144px,48px)}94.3%{transform:translate(144px,32px)}94.82%{transform:translate(128px,32px)}95.34%{transform:translate(128px,16px)}96.89%{transform:translate(80px,16px)}97.93%{transform:translate(80px,-16px)}}.s.s2{transform:translate(32px,-16px);animation-name:s2}@keyframes s3{0%,99.48%{transform:translate(48px,-16px)}1.55%{transform:translate(0px,-16px)}2.07%{transform:translate(0px,0px)}13.47%{transform:translate(352px,0px)}13.99%{transform:translate(352px,16px)}15.03%{transform:translate(320px,16px)}17.62%{transform:translate(320px,96px)}21.24%{transform:translate(432px,96px)}22.28%{transform:translate(432px,64px)}25.91%{transform:translate(544px,64px)}26.42%{transform:translate(544px,48px)}33.16%{transform:translate(752px,48px)}33.68%{transform:translate(752px,64px)}34.2%{transform:translate(736px,64px)}35.23%{transform:translate(736px,96px)}36.27%{transform:translate(768px,96px)}36.79%{transform:translate(768px,80px)}38.34%{transform:translate(816px,80px)}39.9%{transform:translate(816px,32px)}40.93%{transform:translate(848px,32px)}41.97%{transform:translate(848px,0px)}43.01%{transform:translate(816px,0px)}43.52%{transform:translate(816px,16px)}45.08%{transform:translate(768px,16px)}45.6%{transform:translate(768px,32px)}46.11%,54.4%{transform:translate(784px,32px)}47.15%{transform:translate(784px,64px)}47.67%,72.54%{transform:translate(800px,64px)}48.7%{transform:translate(800px,96px)}49.74%{transform:translate(832px,96px)}52.33%{transform:translate(832px,16px)}53.37%{transform:translate(800px,16px)}53.89%{transform:translate(800px,32px)}55.44%{transform:translate(784px,0px)}62.69%{transform:translate(560px,0px)}64.77%{transform:translate(560px,64px)}73.06%{transform:translate(800px,48px)}94.3%{transform:translate(144px,48px)}94.82%{transform:translate(144px,32px)}95.34%{transform:translate(128px,32px)}95.85%{transform:translate(128px,16px)}97.41%{transform:translate(80px,16px)}98.45%{transform:translate(80px,-16px)}}.s.s3{transform:translate(48px,-16px);animation-name:s3}</style><rect class="c" x="2" y="2" rx="2" ry="2"/><rect class="c" x="2" y="18" rx="2" ry="2"/><rect class="c" x="2" y="34" rx="2" ry="2"/><rect class="c" x="2" y="50" rx="2" ry="2"/><rect class="c" x="2" y="66" rx="2" ry="2"/><rect class="c" x="2" y="82" rx="2" ry="2"/><rect class="c" x="2" y="98" rx="2" ry="2"/><rect class="c" x="18" y="2" rx="2" ry="2"/><rect class="c" x="18" y="18" rx="2" ry="2"/><rect class="c" x="18" y="34" rx="2" ry="2"/><rect class="c" x="18" y="50" rx="2" ry="2"/><rect class="c" x="18" y="66" rx="2" ry="2"/><rect class="c" x="18" y="82" rx="2" ry="2"/><rect class="c" x="18" y="98" rx="2" ry="2"/><rect class="c" x="34" y="2" rx="2" ry="2"/><rect class="c" x="34" y="18" rx="2" ry="2"/><rect class="c" x="34" y="34" rx="2" ry="2"/><rect class="c" x="34" y="50" rx="2" ry="2"/><rect class="c" x="34" y="66" rx="2" ry="2"/><rect class="c" x="34" y="82" rx="2" ry="2"/><rect class="c" x="34" y="98" rx="2" ry="2"/><rect class="c" x="50" y="2" rx="2" ry="2"/><rect class="c" x="50" y="18" rx="2" ry="2"/><rect class="c" x="50" y="34" rx="2" ry="2"/><rect class="c" x="50" y="50" rx="2" ry="2"/><rect class="c" x="50" y="66" rx="2" ry="2"/><rect class="c" x="50" y="82" rx="2" ry="2"/><rect class="c" x="50" y="98" rx="2" ry="2"/><rect class="c" x="66" y="2" rx="2" ry="2"/><rect class="c" x="66" y="18" rx="2" ry="2"/><rect class="c" x="66" y="34" rx="2" ry="2"/><rect class="c" x="66" y="50" rx="2" ry="2"/><rect class="c" x="66" y="66" rx="2" ry="2"/><rect class="c" x="66" y="82" rx="2" ry="2"/><rect class="c" x="66" y="98" rx="2" ry="2"/><rect class="c" x="82" y="2" rx="2" ry="2"/><rect class="c" x="82" y="18" rx="2" ry="2"/><rect class="c" x="82" y="34" rx="2" ry="2"/><rect class="c" x="82" y="50" rx="2" ry="2"/><rect class="c" x="82" y="66" rx="2" ry="2"/><rect class="c" x="82" y="82" rx="2" ry="2"/><rect class="c" x="82" y="98" rx="2" ry="2"/><rect class="c" x="98" y="2" rx="2" ry="2"/><rect class="c" x="98" y="18" rx="2" ry="2"/><rect class="c" x="98" y="34" rx="2" ry="2"/><rect class="c" x="98" y="50" rx="2" ry="2"/><rect class="c" x="98" y="66" rx="2" ry="2"/><rect class="c" x="98" y="82" rx="2" ry="2"/><rect class="c" x="98" y="98" rx="2" ry="2"/><rect class="c" x="114" y="2" rx="2" ry="2"/><rect class="c" x="114" y="18" rx="2" ry="2"/><rect class="c" x="114" y="34" rx="2" ry="2"/><rect class="c" x="114" y="50" rx="2" ry="2"/><rect class="c" x="114" y="66" rx="2" ry="2"/><rect class="c" x="114" y="82" rx="2" ry="2"/><rect class="c" x="114" y="98" rx="2" ry="2"/><rect class="c" x="130" y="2" rx="2" ry="2"/><rect class="c" x="130" y="18" rx="2" ry="2"/><rect class="c" x="130" y="34" rx="2" ry="2"/><rect class="c" x="130" y="50" rx="2" ry="2"/><rect class="c" x="130" y="66" rx="2" ry="2"/><rect class="c" x="130" y="82" rx="2" ry="2"/><rect class="c" x="130" y="98" rx="2" ry="2"/><rect class="c" x="146" y="2" rx="2" ry="2"/><rect class="c" x="146" y="18" rx="2" ry="2"/><rect class="c" x="146" y="34" rx="2" ry="2"/><rect class="c" x="146" y="50" rx="2" ry="2"/><rect class="c" x="146" y="66" rx="2" ry="2"/><rect class="c" x="146" y="82" rx="2" ry="2"/><rect class="c" x="146" y="98" rx="2" ry="2"/><rect class="c" x="162" y="2" rx="2" ry="2"/><rect class="c" x="162" y="18" rx="2" ry="2"/><rect class="c" x="162" y="34" rx="2" ry="2"/><rect class="c" x="162" y="50" rx="2" ry="2"/><rect class="c" x="162" y="66" rx="2" ry="2"/><rect class="c" x="162" y="82" rx="2" ry="2"/><rect class="c" x="162" y="98" rx="2" ry="2"/><rect class="c" x="178" y="2" rx="2" ry="2"/><rect class="c" x="178" y="18" rx="2" ry="2"/><rect class="c" x="178" y="34" rx="2" ry="2"/><rect class="c" x="178" y="50" rx="2" ry="2"/><rect class="c" x="178" y="66" rx="2" ry="2"/><rect class="c" x="178" y="82" rx="2" ry="2"/><rect class="c" x="178" y="98" rx="2" ry="2"/><rect class="c" x="194" y="2" rx="2" ry="2"/><rect class="c" x="194" y="18" rx="2" ry="2"/><rect class="c" x="194" y="34" rx="2" ry="2"/><rect class="c" x="194" y="50" rx="2" ry="2"/><rect class="c" x="194" y="66" rx="2" ry="2"/><rect class="c" x="194" y="82" rx="2" ry="2"/><rect class="c" x="194" y="98" rx="2" ry="2"/><rect class="c" x="210" y="2" rx="2" ry="2"/><rect class="c" x="210" y="18" rx="2" ry="2"/><rect class="c" x="210" y="34" rx="2" ry="2"/><rect class="c" x="210" y="50" rx="2" ry="2"/><rect class="c" x="210" y="66" rx="2" ry="2"/><rect class="c" x="210" y="82" rx="2" ry="2"/><rect class="c" x="210" y="98" rx="2" ry="2"/><rect class="c" x="226" y="2" rx="2" ry="2"/><rect class="c" x="226" y="18" rx="2" ry="2"/><rect class="c" x="226" y="34" rx="2" ry="2"/><rect class="c" x="226" y="50" rx="2" ry="2"/><rect class="c" x="226" y="66" rx="2" ry="2"/><rect class="c" x="226" y="82" rx="2" ry="2"/><rect class="c" x="226" y="98" rx="2" ry="2"/><rect class="c" x="242" y="2" rx="2" ry="2"/><rect class="c" x="242" y="18" rx="2" ry="2"/><rect class="c" x="242" y="34" rx="2" ry="2"/><rect class="c" x="242" y="50" rx="2" ry="2"/><rect class="c" x="242" y="66" rx="2" ry="2"/><rect class="c" x="242" y="82" rx="2" ry="2"/><rect class="c" x="242" y="98" rx="2" ry="2"/><rect class="c" x="258" y="2" rx="2" ry="2"/><rect class="c" x="258" y="18" rx="2" ry="2"/><rect class="c" x="258" y="34" rx="2" ry="2"/><rect class="c" x="258" y="50" rx="2" ry="2"/><rect class="c" x="258" y="66" rx="2" ry="2"/><rect class="c" x="258" y="82" rx="2" ry="2"/><rect class="c" x="258" y="98" rx="2" ry="2"/><rect class="c" x="274" y="2" rx="2" ry="2"/><rect class="c" x="274" y="18" rx="2" ry="2"/><rect class="c" x="274" y="34" rx="2" ry="2"/><rect class="c" x="274" y="50" rx="2" ry="2"/><rect class="c" x="274" y="66" rx="2" ry="2"/><rect class="c" x="274" y="82" rx="2" ry="2"/><rect class="c" x="274" y="98" rx="2" ry="2"/><rect class="c" x="290" y="2" rx="2" ry="2"/><rect class="c" x="290" y="18" rx="2" ry="2"/><rect class="c" x="290" y="34" rx="2" ry="2"/><rect class="c" x="290" y="50" rx="2" ry="2"/><rect class="c" x="290" y="66" rx="2" ry="2"/><rect class="c" x="290" y="82" rx="2" ry="2"/><rect class="c" x="290" y="98" rx="2" ry="2"/><rect class="c" x="306" y="2" rx="2" ry="2"/><rect class="c" x="306" y="18" rx="2" ry="2"/><rect class="c" x="306" y="34" rx="2" ry="2"/><rect class="c" x="306" y="50" rx="2" ry="2"/><rect class="c" x="306" y="66" rx="2" ry="2"/><rect class="c" x="306" y="82" rx="2" ry="2"/><rect class="c" x="306" y="98" rx="2" ry="2"/><rect class="c" x="322" y="2" rx="2" ry="2"/><rect class="c" x="322" y="18" rx="2" ry="2"/><rect class="c" x="322" y="34" rx="2" ry="2"/><rect class="c" x="322" y="50" rx="2" ry="2"/><rect class="c" x="322" y="66" rx="2" ry="2"/><rect class="c c0" x="322" y="82" rx="2" ry="2"/><rect class="c c1" x="322" y="98" rx="2" ry="2"/><rect class="c" x="338" y="2" rx="2" ry="2"/><rect class="c" x="338" y="18" rx="2" ry="2"/><rect class="c" x="338" y="34" rx="2" ry="2"/><rect class="c" x="338" y="50" rx="2" ry="2"/><rect class="c" x="338" y="66" rx="2" ry="2"/><rect class="c" x="338" y="82" rx="2" ry="2"/><rect class="c" x="338" y="98" rx="2" ry="2"/><rect class="c c2" x="354" y="2" rx="2" ry="2"/><rect class="c c3" x="354" y="18" rx="2" ry="2"/><rect class="c" x="354" y="34" rx="2" ry="2"/><rect class="c" x="354" y="50" rx="2" ry="2"/><rect class="c" x="354" y="66" rx="2" ry="2"/><rect class="c" x="354" y="82" rx="2" ry="2"/><rect class="c" x="354" y="98" rx="2" ry="2"/><rect class="c" x="370" y="2" rx="2" ry="2"/><rect class="c" x="370" y="18" rx="2" ry="2"/><rect class="c" x="370" y="34" rx="2" ry="2"/><rect class="c" x="370" y="50" rx="2" ry="2"/><rect class="c" x="370" y="66" rx="2" ry="2"/><rect class="c" x="370" y="82" rx="2" ry="2"/><rect class="c" x="370" y="98" rx="2" ry="2"/><rect class="c" x="386" y="2" rx="2" ry="2"/><rect class="c" x="386" y="18" rx="2" ry="2"/><rect class="c" x="386" y="34" rx="2" ry="2"/><rect class="c" x="386" y="50" rx="2" ry="2"/><rect class="c" x="386" y="66" rx="2" ry="2"/><rect class="c" x="386" y="82" rx="2" ry="2"/><rect class="c" x="386" y="98" rx="2" ry="2"/><rect class="c" x="402" y="2" rx="2" ry="2"/><rect class="c" x="402" y="18" rx="2" ry="2"/><rect class="c" x="402" y="34" rx="2" ry="2"/><rect class="c" x="402" y="50" rx="2" ry="2"/><rect class="c" x="402" y="66" rx="2" ry="2"/><rect class="c" x="402" y="82" rx="2" ry="2"/><rect class="c" x="402" y="98" rx="2" ry="2"/><rect class="c" x="418" y="2" rx="2" ry="2"/><rect class="c" x="418" y="18" rx="2" ry="2"/><rect class="c" x="418" y="34" rx="2" ry="2"/><rect class="c" x="418" y="50" rx="2" ry="2"/><rect class="c" x="418" y="66" rx="2" ry="2"/><rect class="c" x="418" y="82" rx="2" ry="2"/><rect class="c" x="418" y="98" rx="2" ry="2"/><rect class="c" x="434" y="2" rx="2" ry="2"/><rect class="c" x="434" y="18" rx="2" ry="2"/><rect class="c" x="434" y="34" rx="2" ry="2"/><rect class="c" x="434" y="50" rx="2" ry="2"/><rect class="c c4" x="434" y="66" rx="2" ry="2"/><rect class="c" x="434" y="82" rx="2" ry="2"/><rect class="c" x="434" y="98" rx="2" ry="2"/><rect class="c" x="450" y="2" rx="2" ry="2"/><rect class="c" x="450" y="18" rx="2" ry="2"/><rect class="c" x="450" y="34" rx="2" ry="2"/><rect class="c" x="450" y="50" rx="2" ry="2"/><rect class="c" x="450" y="66" rx="2" ry="2"/><rect class="c" x="450" y="82" rx="2" ry="2"/><rect class="c" x="450" y="98" rx="2" ry="2"/><rect class="c" x="466" y="2" rx="2" ry="2"/><rect class="c" x="466" y="18" rx="2" ry="2"/><rect class="c" x="466" y="34" rx="2" ry="2"/><rect class="c" x="466" y="50" rx="2" ry="2"/><rect class="c" x="466" y="66" rx="2" ry="2"/><rect class="c" x="466" y="82" rx="2" ry="2"/><rect class="c" x="466" y="98" rx="2" ry="2"/><rect class="c" x="482" y="2" rx="2" ry="2"/><rect class="c" x="482" y="18" rx="2" ry="2"/><rect class="c" x="482" y="34" rx="2" ry="2"/><rect class="c" x="482" y="50" rx="2" ry="2"/><rect class="c" x="482" y="66" rx="2" ry="2"/><rect class="c" x="482" y="82" rx="2" ry="2"/><rect class="c" x="482" y="98" rx="2" ry="2"/><rect class="c" x="498" y="2" rx="2" ry="2"/><rect class="c" x="498" y="18" rx="2" ry="2"/><rect class="c" x="498" y="34" rx="2" ry="2"/><rect class="c" x="498" y="50" rx="2" ry="2"/><rect class="c" x="498" y="66" rx="2" ry="2"/><rect class="c" x="498" y="82" rx="2" ry="2"/><rect class="c" x="498" y="98" rx="2" ry="2"/><rect class="c" x="514" y="2" rx="2" ry="2"/><rect class="c" x="514" y="18" rx="2" ry="2"/><rect class="c" x="514" y="34" rx="2" ry="2"/><rect class="c" x="514" y="50" rx="2" ry="2"/><rect class="c" x="514" y="66" rx="2" ry="2"/><rect class="c" x="514" y="82" rx="2" ry="2"/><rect class="c" x="514" y="98" rx="2" ry="2"/><rect class="c" x="530" y="2" rx="2" ry="2"/><rect class="c" x="530" y="18" rx="2" ry="2"/><rect class="c" x="530" y="34" rx="2" ry="2"/><rect class="c" x="530" y="50" rx="2" ry="2"/><rect class="c" x="530" y="66" rx="2" ry="2"/><rect class="c" x="530" y="82" rx="2" ry="2"/><rect class="c" x="530" y="98" rx="2" ry="2"/><rect class="c" x="546" y="2" rx="2" ry="2"/><rect class="c" x="546" y="18" rx="2" ry="2"/><rect class="c" x="546" y="34" rx="2" ry="2"/><rect class="c" x="546" y="50" rx="2" ry="2"/><rect class="c" x="546" y="66" rx="2" ry="2"/><rect class="c" x="546" y="82" rx="2" ry="2"/><rect class="c" x="546" y="98" rx="2" ry="2"/><rect class="c" x="562" y="2" rx="2" ry="2"/><rect class="c" x="562" y="18" rx="2" ry="2"/><rect class="c" x="562" y="34" rx="2" ry="2"/><rect class="c" x="562" y="50" rx="2" ry="2"/><rect class="c c5" x="562" y="66" rx="2" ry="2"/><rect class="c" x="562" y="82" rx="2" ry="2"/><rect class="c" x="562" y="98" rx="2" ry="2"/><rect class="c" x="578" y="2" rx="2" ry="2"/><rect class="c" x="578" y="18" rx="2" ry="2"/><rect class="c" x="578" y="34" rx="2" ry="2"/><rect class="c c6" x="578" y="50" rx="2" ry="2"/><rect class="c" x="578" y="66" rx="2" ry="2"/><rect class="c" x="578" y="82" rx="2" ry="2"/><rect class="c" x="578" y="98" rx="2" ry="2"/><rect class="c" x="594" y="2" rx="2" ry="2"/><rect class="c" x="594" y="18" rx="2" ry="2"/><rect class="c" x="594" y="34" rx="2" ry="2"/><rect class="c" x="594" y="50" rx="2" ry="2"/><rect class="c" x="594" y="66" rx="2" ry="2"/><rect class="c" x="594" y="82" rx="2" ry="2"/><rect class="c" x="594" y="98" rx="2" ry="2"/><rect class="c" x="610" y="2" rx="2" ry="2"/><rect class="c" x="610" y="18" rx="2" ry="2"/><rect class="c" x="610" y="34" rx="2" ry="2"/><rect class="c" x="610" y="50" rx="2" ry="2"/><rect class="c" x="610" y="66" rx="2" ry="2"/><rect class="c" x="610" y="82" rx="2" ry="2"/><rect class="c" x="610" y="98" rx="2" ry="2"/><rect class="c" x="626" y="2" rx="2" ry="2"/><rect class="c" x="626" y="18" rx="2" ry="2"/><rect class="c" x="626" y="34" rx="2" ry="2"/><rect class="c" x="626" y="50" rx="2" ry="2"/><rect class="c" x="626" y="66" rx="2" ry="2"/><rect class="c" x="626" y="82" rx="2" ry="2"/><rect class="c" x="626" y="98" rx="2" ry="2"/><rect class="c" x="642" y="2" rx="2" ry="2"/><rect class="c" x="642" y="18" rx="2" ry="2"/><rect class="c" x="642" y="34" rx="2" ry="2"/><rect class="c" x="642" y="50" rx="2" ry="2"/><rect class="c" x="642" y="66" rx="2" ry="2"/><rect class="c" x="642" y="82" rx="2" ry="2"/><rect class="c" x="642" y="98" rx="2" ry="2"/><rect class="c" x="658" y="2" rx="2" ry="2"/><rect class="c" x="658" y="18" rx="2" ry="2"/><rect class="c" x="658" y="34" rx="2" ry="2"/><rect class="c" x="658" y="50" rx="2" ry="2"/><rect class="c" x="658" y="66" rx="2" ry="2"/><rect class="c" x="658" y="82" rx="2" ry="2"/><rect class="c" x="658" y="98" rx="2" ry="2"/><rect class="c" x="674" y="2" rx="2" ry="2"/><rect class="c" x="674" y="18" rx="2" ry="2"/><rect class="c" x="674" y="34" rx="2" ry="2"/><rect class="c" x="674" y="50" rx="2" ry="2"/><rect class="c" x="674" y="66" rx="2" ry="2"/><rect class="c" x="674" y="82" rx="2" ry="2"/><rect class="c" x="674" y="98" rx="2" ry="2"/><rect class="c" x="690" y="2" rx="2" ry="2"/><rect class="c" x="690" y="18" rx="2" ry="2"/><rect class="c" x="690" y="34" rx="2" ry="2"/><rect class="c" x="690" y="50" rx="2" ry="2"/><rect class="c" x="690" y="66" rx="2" ry="2"/><rect class="c" x="690" y="82" rx="2" ry="2"/><rect class="c" x="690" y="98" rx="2" ry="2"/><rect class="c" x="706" y="2" rx="2" ry="2"/><rect class="c" x="706" y="18" rx="2" ry="2"/><rect class="c" x="706" y="34" rx="2" ry="2"/><rect class="c" x="706" y="50" rx="2" ry="2"/><rect class="c" x="706" y="66" rx="2" ry="2"/><rect class="c" x="706" y="82" rx="2" ry="2"/><rect class="c" x="706" y="98" rx="2" ry="2"/><rect class="c" x="722" y="2" rx="2" ry="2"/><rect class="c" x="722" y="18" rx="2" ry="2"/><rect class="c" x="722" y="34" rx="2" ry="2"/><rect class="c" x="722" y="50" rx="2" ry="2"/><rect class="c" x="722" y="66" rx="2" ry="2"/><rect class="c" x="722" y="82" rx="2" ry="2"/><rect class="c" x="722" y="98" rx="2" ry="2"/><rect class="c" x="738" y="2" rx="2" ry="2"/><rect class="c" x="738" y="18" rx="2" ry="2"/><rect class="c" x="738" y="34" rx="2" ry="2"/><rect class="c" x="738" y="50" rx="2" ry="2"/><rect class="c c7" x="738" y="66" rx="2" ry="2"/><rect class="c" x="738" y="82" rx="2" ry="2"/><rect class="c c8" x="738" y="98" rx="2" ry="2"/><rect class="c c9" x="754" y="2" rx="2" ry="2"/><rect class="c" x="754" y="18" rx="2" ry="2"/><rect class="c" x="754" y="34" rx="2" ry="2"/><rect class="c ca" x="754" y="50" rx="2" ry="2"/><rect class="c" x="754" y="66" rx="2" ry="2"/><rect class="c" x="754" y="82" rx="2" ry="2"/><rect class="c" x="754" y="98" rx="2" ry="2"/><rect class="c" x="770" y="2" rx="2" ry="2"/><rect class="c cb" x="770" y="18" rx="2" ry="2"/><rect class="c" x="770" y="34" rx="2" ry="2"/><rect class="c" x="770" y="50" rx="2" ry="2"/><rect class="c" x="770" y="66" rx="2" ry="2"/><rect class="c cc" x="770" y="82" rx="2" ry="2"/><rect class="c cd" x="770" y="98" rx="2" ry="2"/><rect class="c" x="786" y="2" rx="2" ry="2"/><rect class="c" x="786" y="18" rx="2" ry="2"/><rect class="c" x="786" y="34" rx="2" ry="2"/><rect class="c" x="786" y="50" rx="2" ry="2"/><rect class="c" x="786" y="66" rx="2" ry="2"/><rect class="c" x="786" y="82" rx="2" ry="2"/><rect class="c" x="786" y="98" rx="2" ry="2"/><rect class="c" x="802" y="2" rx="2" ry="2"/><rect class="c" x="802" y="18" rx="2" ry="2"/><rect class="c ce" x="802" y="34" rx="2" ry="2"/><rect class="c cf" x="802" y="50" rx="2" ry="2"/><rect class="c cg" x="802" y="66" rx="2" ry="2"/><rect class="c ch" x="802" y="82" rx="2" ry="2"/><rect class="c ci" x="802" y="98" rx="2" ry="2"/><rect class="c cj" x="818" y="2" rx="2" ry="2"/><rect class="c ck" x="818" y="18" rx="2" ry="2"/><rect class="c cl" x="818" y="34" rx="2" ry="2"/><rect class="c cm" x="818" y="50" rx="2" ry="2"/><rect class="c cn" x="818" y="66" rx="2" ry="2"/><rect class="c co" x="818" y="82" rx="2" ry="2"/><rect class="c cp" x="818" y="98" rx="2" ry="2"/><rect class="c cq" x="834" y="2" rx="2" ry="2"/><rect class="c cr" x="834" y="18" rx="2" ry="2"/><rect class="c cs" x="834" y="34" rx="2" ry="2"/><rect class="c" x="834" y="50" rx="2" ry="2"/><rect class="u u0" height="12" width="702.4" x="0.0" y="144"/><rect class="u u1" height="12" width="29.8" x="701.8" y="144"/><rect class="u u2" height="12" width="88.3" x="731.0" y="144"/><rect class="u u3" height="12" width="29.8" x="818.8" y="144"/><rect class="s s0" x="0.8" y="0.8" width="14.4" height="14.4" rx="4.5" ry="4.5"/><rect class="s s1" x="1.8" y="1.8" width="12.3" height="12.3" rx="4.1" ry="4.1"/><rect class="s s2" x="2.6" y="2.6" width="10.8" height="10.8" rx="3.6" ry="3.6"/><rect class="s s3" x="3.0" y="3.0" width="9.9" height="9.9" rx="3.3" ry="3.3"/></svg>