<svg viewBox="-16 -32 880 192" width="880" height="192" xmlns="http://www.w3.org/2000/svg"><desc>Generated with https://github.com/Platane/snk</desc><style>:root{--cb:#1b1f230a;--cs:purple;--ce:#ebedf0;--c0:#ebedf0;--c1:#9be9a8;--c2:#40c463;--c3:#30a14e;--c4:#216e39}.c{shape-rendering:geometricPrecision;fill:var(--ce);stroke-width:1px;stroke:var(--cb);animation:none 31100ms linear infinite;width:12px;height:12px}@keyframes c0{5.78%{fill:var(--c1)}5.8%,100%{fill:var(--ce)}}.c.c0{fill:var(--c1);animation-name:c0}@keyframes c1{52.4%{fill:var(--c2)}52.42%,100%{fill:var(--ce)}}.c.c1{fill:var(--c2);animation-name:c1}@keyframes c2{3.53%{fill:var(--c1)}3.55%,100%{fill:var(--ce)}}.c.c2{fill:var(--c1);animation-name:c2}@keyframes c3{3.85%{fill:var(--c1)}3.87%,100%{fill:var(--ce)}}.c.c3{fill:var(--c1);animation-name:c3}@keyframes c4{49.51%{fill:var(--c2)}49.53%,100%{fill:var(--ce)}}.c.c4{fill:var(--c2);animation-name:c4}@keyframes c5{57.87%{fill:var(--c4)}57.89%,100%{fill:var(--ce)}}.c.c5{fill:var(--c4);animation-name:c5}@keyframes c6{11.57%{fill:var(--c1)}11.59%,100%{fill:var(--ce)}}.c.c6{fill:var(--c1);animation-name:c6}@keyframes c7{15.75%{fill:var(--c1)}15.77%,100%{fill:var(--ce)}}.c.c7{fill:var(--c1);animation-name:c7}@keyframes c8{42.76%{fill:var(--c2)}42.78%,100%{fill:var(--ce)}}.c.c8{fill:var(--c2);animation-name:c8}@keyframes c9{88.09%{fill:var(--c4)}88.11%,100%{fill:var(--ce)}}.c.c9{fill:var(--c4);animation-name:c9}@keyframes ca{15.1%{fill:var(--c1)}15.12%,100%{fill:var(--ce)}}.c.ca{fill:var(--c1);animation-name:ca}@keyframes cb{19.28%{fill:var(--c1)}19.3%,100%{fill:var(--ce)}}.c.cb{fill:var(--c1);animation-name:cb}@keyframes cc{16.71%{fill:var(--c1)}16.73%,100%{fill:var(--ce)}}.c.cc{fill:var(--c1);animation-name:cc}@keyframes cd{17.03%{fill:var(--c1)}17.05%,100%{fill:var(--ce)}}.c.cd{fill:var(--c1);animation-name:cd}@keyframes ce{63.33%{fill:var(--c4)}63.35%,100%{fill:var(--ce)}}.c.ce{fill:var(--c4);animation-name:ce}@keyframes cf{63.01%{fill:var(--c4)}63.03%,100%{fill:var(--ce)}}.c.cf{fill:var(--c4);animation-name:cf}@keyframes cg{40.18%{fill:var(--c2)}40.2%,100%{fill:var(--ce)}}.c.cg{fill:var(--c2);animation-name:cg}@keyframes ch{39.86%{fill:var(--c2)}39.88%,100%{fill:var(--ce)}}.c.ch{fill:var(--c2);animation-name:ch}@keyframes ci{41.47%{fill:var(--c2)}41.49%,100%{fill:var(--ce)}}.c.ci{fill:var(--c2);animation-name:ci}@keyframes cj{20.57%{fill:var(--c2)}20.59%,100%{fill:var(--ce)}}.c.cj{fill:var(--c2);animation-name:cj}@keyframes ck{29.89%{fill:var(--c2)}29.91%,100%{fill:var(--ce)}}.c.ck{fill:var(--c2);animation-name:ck}@keyframes cl{29.57%{fill:var(--c2)}29.59%,100%{fill:var(--ce)}}.c.cl{fill:var(--c2);animation-name:cl}@keyframes cm{31.82%{fill:var(--c2)}31.84%,100%{fill:var(--ce)}}.c.cm{fill:var(--c2);animation-name:cm}@keyframes cn{32.14%{fill:var(--c2)}32.16%,100%{fill:var(--ce)}}.c.cn{fill:var(--c2);animation-name:cn}@keyframes co{39.54%{fill:var(--c2)}39.56%,100%{fill:var(--ce)}}.c.co{fill:var(--c2);animation-name:co}@keyframes cp{41.15%{fill:var(--c2)}41.17%,100%{fill:var(--ce)}}.c.cp{fill:var(--c2);animation-name:cp}@keyframes cq{20.89%{fill:var(--c2)}20.91%,100%{fill:var(--ce)}}.c.cq{fill:var(--c2);animation-name:cq}@keyframes cr{64.3%{fill:var(--c4)}64.32%,100%{fill:var(--ce)}}.c.cr{fill:var(--c4);animation-name:cr}@keyframes cs{29.25%{fill:var(--c2)}29.27%,100%{fill:var(--ce)}}.c.cs{fill:var(--c2);animation-name:cs}@keyframes ct{28.93%{fill:var(--c2)}28.95%,100%{fill:var(--ce)}}.c.ct{fill:var(--c2);animation-name:ct}@keyframes cu{32.47%{fill:var(--c2)}32.49%,100%{fill:var(--ce)}}.c.cu{fill:var(--c2);animation-name:cu}@keyframes cv{39.22%{fill:var(--c2)}39.24%,100%{fill:var(--ce)}}.c.cv{fill:var(--c2);animation-name:cv}@keyframes cw{38.9%{fill:var(--c2)}38.92%,100%{fill:var(--ce)}}.c.cw{fill:var(--c2);animation-name:cw}@keyframes cx{21.21%{fill:var(--c2)}21.23%,100%{fill:var(--ce)}}.c.cx{fill:var(--c2);animation-name:cx}@keyframes cy{25.39%{fill:var(--c2)}25.41%,100%{fill:var(--ce)}}.c.cy{fill:var(--c2);animation-name:cy}@keyframes cz{25.71%{fill:var(--c2)}25.73%,100%{fill:var(--ce)}}.c.cz{fill:var(--c2);animation-name:cz}@keyframes c10{28.61%{fill:var(--c2)}28.63%,100%{fill:var(--ce)}}.c.c10{fill:var(--c2);animation-name:c10}@keyframes c11{32.79%{fill:var(--c2)}32.81%,100%{fill:var(--ce)}}.c.c11{fill:var(--c2);animation-name:c11}@keyframes c12{33.11%{fill:var(--c2)}33.13%,100%{fill:var(--ce)}}.c.c12{fill:var(--c2);animation-name:c12}@keyframes c13{38.58%{fill:var(--c2)}38.6%,100%{fill:var(--ce)}}.c.c13{fill:var(--c2);animation-name:c13}@keyframes c14{21.53%{fill:var(--c2)}21.55%,100%{fill:var(--ce)}}.c.c14{fill:var(--c2);animation-name:c14}@keyframes c15{25.07%{fill:var(--c2)}25.09%,100%{fill:var(--ce)}}.c.c15{fill:var(--c2);animation-name:c15}@keyframes c16{26.04%{fill:var(--c2)}26.06%,100%{fill:var(--ce)}}.c.c16{fill:var(--c2);animation-name:c16}@keyframes c17{28.29%{fill:var(--c2)}28.31%,100%{fill:var(--ce)}}.c.c17{fill:var(--c2);animation-name:c17}@keyframes c18{65.91%{fill:var(--c4)}65.93%,100%{fill:var(--ce)}}.c.c18{fill:var(--c4);animation-name:c18}@keyframes c19{33.43%{fill:var(--c2)}33.45%,100%{fill:var(--ce)}}.c.c19{fill:var(--c2);animation-name:c19}@keyframes c1a{38.25%{fill:var(--c2)}38.27%,100%{fill:var(--ce)}}.c.c1a{fill:var(--c2);animation-name:c1a}@keyframes c1b{21.85%{fill:var(--c2)}21.87%,100%{fill:var(--ce)}}.c.c1b{fill:var(--c2);animation-name:c1b}@keyframes c1c{24.75%{fill:var(--c2)}24.77%,100%{fill:var(--ce)}}.c.c1c{fill:var(--c2);animation-name:c1c}@keyframes c1d{26.36%{fill:var(--c2)}26.38%,100%{fill:var(--ce)}}.c.c1d{fill:var(--c2);animation-name:c1d}@keyframes c1e{27.96%{fill:var(--c2)}27.98%,100%{fill:var(--ce)}}.c.c1e{fill:var(--c2);animation-name:c1e}@keyframes c1f{35.36%{fill:var(--c2)}35.38%,100%{fill:var(--ce)}}.c.c1f{fill:var(--c2);animation-name:c1f}@keyframes c1g{33.75%{fill:var(--c2)}33.77%,100%{fill:var(--ce)}}.c.c1g{fill:var(--c2);animation-name:c1g}@keyframes c1h{36%{fill:var(--c2)}36.02%,100%{fill:var(--ce)}}.c.c1h{fill:var(--c2);animation-name:c1h}@keyframes c1i{22.18%{fill:var(--c2)}22.2%,100%{fill:var(--ce)}}.c.c1i{fill:var(--c2);animation-name:c1i}@keyframes c1j{24.43%{fill:var(--c2)}24.45%,100%{fill:var(--ce)}}.c.c1j{fill:var(--c2);animation-name:c1j}@keyframes c1k{26.68%{fill:var(--c2)}26.7%,100%{fill:var(--ce)}}.c.c1k{fill:var(--c2);animation-name:c1k}@keyframes c1l{27.64%{fill:var(--c2)}27.66%,100%{fill:var(--ce)}}.c.c1l{fill:var(--c2);animation-name:c1l}@keyframes c1m{35.04%{fill:var(--c2)}35.06%,100%{fill:var(--ce)}}.c.c1m{fill:var(--c2);animation-name:c1m}@keyframes c1n{34.07%{fill:var(--c2)}34.09%,100%{fill:var(--ce)}}.c.c1n{fill:var(--c2);animation-name:c1n}@keyframes c1o{36.32%{fill:var(--c2)}36.34%,100%{fill:var(--ce)}}.c.c1o{fill:var(--c2);animation-name:c1o}@keyframes c1p{22.5%{fill:var(--c2)}22.52%,100%{fill:var(--ce)}}.c.c1p{fill:var(--c2);animation-name:c1p}@keyframes c1q{24.11%{fill:var(--c2)}24.13%,100%{fill:var(--ce)}}.c.c1q{fill:var(--c2);animation-name:c1q}@keyframes c1r{27%{fill:var(--c2)}27.02%,100%{fill:var(--ce)}}.c.c1r{fill:var(--c2);animation-name:c1r}@keyframes c1s{27.32%{fill:var(--c2)}27.34%,100%{fill:var(--ce)}}.c.c1s{fill:var(--c2);animation-name:c1s}@keyframes c1t{34.72%{fill:var(--c2)}34.74%,100%{fill:var(--ce)}}.c.c1t{fill:var(--c2);animation-name:c1t}@keyframes c1u{34.4%{fill:var(--c2)}34.42%,100%{fill:var(--ce)}}.c.c1u{fill:var(--c2);animation-name:c1u}@keyframes c1v{36.65%{fill:var(--c2)}36.67%,100%{fill:var(--ce)}}.c.c1v{fill:var(--c2);animation-name:c1v}@keyframes c1w{22.82%{fill:var(--c2)}22.84%,100%{fill:var(--ce)}}.c.c1w{fill:var(--c2);animation-name:c1w}@keyframes c1x{75.87%{fill:var(--c4)}75.89%,100%{fill:var(--ce)}}.c.c1x{fill:var(--c4);animation-name:c1x}@keyframes c1y{75.55%{fill:var(--c4)}75.57%,100%{fill:var(--ce)}}.c.c1y{fill:var(--c4);animation-name:c1y}@keyframes c1z{83.59%{fill:var(--c4)}83.61%,100%{fill:var(--ce)}}.c.c1z{fill:var(--c4);animation-name:c1z}@keyframes c20{67.19%{fill:var(--c4)}67.21%,100%{fill:var(--ce)}}.c.c20{fill:var(--c4);animation-name:c20}@keyframes c21{81.02%{fill:var(--c4)}81.04%,100%{fill:var(--ce)}}.c.c21{fill:var(--c4);animation-name:c21}@keyframes c22{81.34%{fill:var(--c4)}81.36%,100%{fill:var(--ce)}}.c.c22{fill:var(--c4);animation-name:c22}@keyframes c23{72.02%{fill:var(--c4)}72.04%,100%{fill:var(--ce)}}.c.c23{fill:var(--c4);animation-name:c23}@keyframes c24{72.34%{fill:var(--c4)}72.36%,100%{fill:var(--ce)}}.c.c24{fill:var(--c4);animation-name:c24}@keyframes c25{75.23%{fill:var(--c4)}75.25%,100%{fill:var(--ce)}}.c.c25{fill:var(--c4);animation-name:c25}@keyframes c26{76.84%{fill:var(--c4)}76.86%,100%{fill:var(--ce)}}.c.c26{fill:var(--c4);animation-name:c26}@keyframes c27{67.51%{fill:var(--c4)}67.53%,100%{fill:var(--ce)}}.c.c27{fill:var(--c4);animation-name:c27}@keyframes c28{80.7%{fill:var(--c4)}80.72%,100%{fill:var(--ce)}}.c.c28{fill:var(--c4);animation-name:c28}@keyframes c29{81.66%{fill:var(--c4)}81.68%,100%{fill:var(--ce)}}.c.c29{fill:var(--c4);animation-name:c29}@keyframes c2a{71.69%{fill:var(--c4)}71.71%,100%{fill:var(--ce)}}.c.c2a{fill:var(--c4);animation-name:c2a}@keyframes c2b{72.66%{fill:var(--c4)}72.68%,100%{fill:var(--ce)}}.c.c2b{fill:var(--c4);animation-name:c2b}@keyframes c2c{74.91%{fill:var(--c4)}74.93%,100%{fill:var(--ce)}}.c.c2c{fill:var(--c4);animation-name:c2c}@keyframes c2d{77.16%{fill:var(--c4)}77.18%,100%{fill:var(--ce)}}.c.c2d{fill:var(--c4);animation-name:c2d}@keyframes c2e{67.84%{fill:var(--c4)}67.86%,100%{fill:var(--ce)}}.c.c2e{fill:var(--c4);animation-name:c2e}@keyframes c2f{80.38%{fill:var(--c4)}80.4%,100%{fill:var(--ce)}}.c.c2f{fill:var(--c4);animation-name:c2f}@keyframes c2g{81.98%{fill:var(--c4)}82%,100%{fill:var(--ce)}}.c.c2g{fill:var(--c4);animation-name:c2g}@keyframes c2h{71.37%{fill:var(--c4)}71.39%,100%{fill:var(--ce)}}.c.c2h{fill:var(--c4);animation-name:c2h}@keyframes c2i{72.98%{fill:var(--c4)}73%,100%{fill:var(--ce)}}.c.c2i{fill:var(--c4);animation-name:c2i}@keyframes c2j{74.59%{fill:var(--c4)}74.61%,100%{fill:var(--ce)}}.c.c2j{fill:var(--c4);animation-name:c2j}@keyframes c2k{77.48%{fill:var(--c4)}77.5%,100%{fill:var(--ce)}}.c.c2k{fill:var(--c4);animation-name:c2k}@keyframes c2l{68.16%{fill:var(--c4)}68.18%,100%{fill:var(--ce)}}.c.c2l{fill:var(--c4);animation-name:c2l}@keyframes c2m{80.05%{fill:var(--c4)}80.07%,100%{fill:var(--ce)}}.c.c2m{fill:var(--c4);animation-name:c2m}@keyframes c2n{79.73%{fill:var(--c4)}79.75%,100%{fill:var(--ce)}}.c.c2n{fill:var(--c4);animation-name:c2n}@keyframes c2o{71.05%{fill:var(--c4)}71.07%,100%{fill:var(--ce)}}.c.c2o{fill:var(--c4);animation-name:c2o}@keyframes c2p{73.3%{fill:var(--c4)}73.32%,100%{fill:var(--ce)}}.c.c2p{fill:var(--c4);animation-name:c2p}@keyframes c2q{74.27%{fill:var(--c4)}74.29%,100%{fill:var(--ce)}}.c.c2q{fill:var(--c4);animation-name:c2q}@keyframes c2r{77.8%{fill:var(--c4)}77.82%,100%{fill:var(--ce)}}.c.c2r{fill:var(--c4);animation-name:c2r}@keyframes c2s{68.48%{fill:var(--c4)}68.5%,100%{fill:var(--ce)}}.c.c2s{fill:var(--c4);animation-name:c2s}@keyframes c2t{78.45%{fill:var(--c4)}78.47%,100%{fill:var(--ce)}}.c.c2t{fill:var(--c4);animation-name:c2t}@keyframes c2u{79.41%{fill:var(--c4)}79.43%,100%{fill:var(--ce)}}.c.c2u{fill:var(--c4);animation-name:c2u}@keyframes c2v{70.73%{fill:var(--c4)}70.75%,100%{fill:var(--ce)}}.c.c2v{fill:var(--c4);animation-name:c2v}@keyframes c2w{73.62%{fill:var(--c4)}73.64%,100%{fill:var(--ce)}}.c.c2w{fill:var(--c4);animation-name:c2w}@keyframes c2x{73.94%{fill:var(--c4)}73.96%,100%{fill:var(--ce)}}.c.c2x{fill:var(--c4);animation-name:c2x}@keyframes c2y{69.12%{fill:var(--c4)}69.14%,100%{fill:var(--ce)}}.c.c2y{fill:var(--c4);animation-name:c2y}@keyframes c2z{68.8%{fill:var(--c4)}68.82%,100%{fill:var(--ce)}}.c.c2z{fill:var(--c4);animation-name:c2z}@keyframes c30{78.77%{fill:var(--c4)}78.79%,100%{fill:var(--ce)}}.c.c30{fill:var(--c4);animation-name:c30}@keyframes c31{79.09%{fill:var(--c4)}79.11%,100%{fill:var(--ce)}}.c.c31{fill:var(--c4);animation-name:c31}@keyframes c32{70.41%{fill:var(--c4)}70.43%,100%{fill:var(--ce)}}.c.c32{fill:var(--c4);animation-name:c32}@keyframes c33{70.09%{fill:var(--c4)}70.11%,100%{fill:var(--ce)}}.c.c33{fill:var(--c4);animation-name:c33}@keyframes c34{69.76%{fill:var(--c4)}69.78%,100%{fill:var(--ce)}}.c.c34{fill:var(--c4);animation-name:c34}@keyframes c35{69.44%{fill:var(--c4)}69.46%,100%{fill:var(--ce)}}.c.c35{fill:var(--c4);animation-name:c35}.u{transform-origin:0 0;transform:scale(0,1);animation:none linear 31100ms infinite}@keyframes u0{3.53%{transform:scale(0.000,1)}3.55%,3.85%{transform:scale(0.111,1)}3.87%,5.78%{transform:scale(0.222,1)}5.8%,11.57%{transform:scale(0.333,1)}11.59%,15.1%{transform:scale(0.444,1)}15.12%,15.75%{transform:scale(0.556,1)}15.77%,16.71%{transform:scale(0.667,1)}16.73%,17.03%{transform:scale(0.778,1)}17.05%,19.28%{transform:scale(0.889,1)}19.3%,100%{transform:scale(1.000,1)}}.u.u0{fill:var(--c1);animation-name:u0;transform-origin:0.0px 0}@keyframes u1{20.57%{transform:scale(0.000,1)}20.59%,20.89%{transform:scale(0.019,1)}20.91%,21.21%{transform:scale(0.037,1)}21.23%,21.53%{transform:scale(0.056,1)}21.55%,21.85%{transform:scale(0.074,1)}21.87%,22.18%{transform:scale(0.093,1)}22.2%,22.5%{transform:scale(0.111,1)}22.52%,22.82%{transform:scale(0.130,1)}22.84%,24.11%{transform:scale(0.148,1)}24.13%,24.43%{transform:scale(0.167,1)}24.45%,24.75%{transform:scale(0.185,1)}24.77%,25.07%{transform:scale(0.204,1)}25.09%,25.39%{transform:scale(0.222,1)}25.41%,25.71%{transform:scale(0.241,1)}25.73%,26.04%{transform:scale(0.259,1)}26.06%,26.36%{transform:scale(0.278,1)}26.38%,26.68%{transform:scale(0.296,1)}26.7%,27%{transform:scale(0.315,1)}27.02%,27.32%{transform:scale(0.333,1)}27.34%,27.64%{transform:scale(0.352,1)}27.66%,27.96%{transform:scale(0.370,1)}27.98%,28.29%{transform:scale(0.389,1)}28.31%,28.61%{transform:scale(0.407,1)}28.63%,28.93%{transform:scale(0.426,1)}28.95%,29.25%{transform:scale(0.444,1)}29.27%,29.57%{transform:scale(0.463,1)}29.59%,29.89%{transform:scale(0.481,1)}29.91%,31.82%{transform:scale(0.500,1)}31.84%,32.14%{transform:scale(0.519,1)}32.16%,32.47%{transform:scale(0.537,1)}32.49%,32.79%{transform:scale(0.556,1)}32.81%,33.11%{transform:scale(0.574,1)}33.13%,33.43%{transform:scale(0.593,1)}33.45%,33.75%{transform:scale(0.611,1)}33.77%,34.07%{transform:scale(0.630,1)}34.09%,34.4%{transform:scale(0.648,1)}34.42%,34.72%{transform:scale(0.667,1)}34.74%,35.04%{transform:scale(0.685,1)}35.06%,35.36%{transform:scale(0.704,1)}35.38%,36%{transform:scale(0.722,1)}36.02%,36.32%{transform:scale(0.741,1)}36.34%,36.65%{transform:scale(0.759,1)}36.67%,38.25%{transform:scale(0.778,1)}38.27%,38.58%{transform:scale(0.796,1)}38.6%,38.9%{transform:scale(0.815,1)}38.92%,39.22%{transform:scale(0.833,1)}39.24%,39.54%{transform:scale(0.852,1)}39.56%,39.86%{transform:scale(0.870,1)}39.88%,40.18%{transform:scale(0.889,1)}40.2%,41.15%{transform:scale(0.907,1)}41.17%,41.47%{transform:scale(0.926,1)}41.49%,42.76%{transform:scale(0.944,1)}42.78%,49.51%{transform:scale(0.963,1)}49.53%,52.4%{transform:scale(0.981,1)}52.42%,100%{transform:scale(1.000,1)}}.u.u1{fill:var(--c2);animation-name:u1;transform-origin:66.9px 0}@keyframes u2{57.87%{transform:scale(0.000,1)}57.89%,63.01%{transform:scale(0.020,1)}63.03%,63.33%{transform:scale(0.039,1)}63.35%,64.3%{transform:scale(0.059,1)}64.32%,65.91%{transform:scale(0.078,1)}65.93%,67.19%{transform:scale(0.098,1)}67.21%,67.51%{transform:scale(0.118,1)}67.53%,67.84%{transform:scale(0.137,1)}67.86%,68.16%{transform:scale(0.157,1)}68.18%,68.48%{transform:scale(0.176,1)}68.5%,68.8%{transform:scale(0.196,1)}68.82%,69.12%{transform:scale(0.216,1)}69.14%,69.44%{transform:scale(0.235,1)}69.46%,69.76%{transform:scale(0.255,1)}69.78%,70.09%{transform:scale(0.275,1)}70.11%,70.41%{transform:scale(0.294,1)}70.43%,70.73%{transform:scale(0.314,1)}70.75%,71.05%{transform:scale(0.333,1)}71.07%,71.37%{transform:scale(0.353,1)}71.39%,71.69%{transform:scale(0.373,1)}71.71%,72.02%{transform:scale(0.392,1)}72.04%,72.34%{transform:scale(0.412,1)}72.36%,72.66%{transform:scale(0.431,1)}72.68%,72.98%{transform:scale(0.451,1)}73%,73.3%{transform:scale(0.471,1)}73.32%,73.62%{transform:scale(0.490,1)}73.64%,73.94%{transform:scale(0.510,1)}73.96%,74.27%{transform:scale(0.529,1)}74.29%,74.59%{transform:scale(0.549,1)}74.61%,74.91%{transform:scale(0.569,1)}74.93%,75.23%{transform:scale(0.588,1)}75.25%,75.55%{transform:scale(0.608,1)}75.57%,75.87%{transform:scale(0.627,1)}75.89%,76.84%{transform:scale(0.647,1)}76.86%,77.16%{transform:scale(0.667,1)}77.18%,77.48%{transform:scale(0.686,1)}77.5%,77.8%{transform:scale(0.706,1)}77.82%,78.45%{transform:scale(0.725,1)}78.47%,78.77%{transform:scale(0.745,1)}78.79%,79.09%{transform:scale(0.765,1)}79.11%,79.41%{transform:scale(0.784,1)}79.43%,79.73%{transform:scale(0.804,1)}79.75%,80.05%{transform:scale(0.824,1)}80.07%,80.38%{transform:scale(0.843,1)}80.4%,80.7%{transform:scale(0.863,1)}80.72%,81.02%{transform:scale(0.882,1)}81.04%,81.34%{transform:scale(0.902,1)}81.36%,81.66%{transform:scale(0.922,1)}81.68%,81.98%{transform:scale(0.941,1)}82%,83.59%{transform:scale(0.961,1)}83.61%,88.09%{transform:scale(0.980,1)}88.11%,100%{transform:scale(1.000,1)}}.u.u2{fill:var(--c4);animation-name:u2;transform-origin:468.6px 0}.s{shape-rendering:geometricPrecision;fill:var(--cs);animation:none linear 31100ms infinite}@keyframes s0{0%,99.68%{transform:translate(0px,-16px)}0.32%{transform:translate(0px,0px)}3.54%{transform:translate(160px,0px)}3.86%{transform:translate(160px,16px)}4.5%{transform:translate(128px,16px)}5.79%{transform:translate(128px,80px)}10.93%{transform:translate(384px,80px)}11.58%{transform:translate(384px,48px)}15.11%{transform:translate(560px,48px)}15.43%{transform:translate(560px,64px)}15.76%{transform:translate(544px,64px)}16.08%,43.09%{transform:translate(544px,80px)}16.72%{transform:translate(576px,80px)}17.04%{transform:translate(576px,96px)}17.36%{transform:translate(592px,96px)}18.97%{transform:translate(592px,16px)}19.29%{transform:translate(576px,16px)}19.61%{transform:translate(576px,0px)}22.83%,84.57%{transform:translate(736px,0px)}23.15%{transform:translate(736px,-16px)}23.47%{transform:translate(720px,-16px)}24.12%{transform:translate(720px,16px)}25.4%{transform:translate(656px,16px)}25.72%{transform:translate(656px,32px)}27.01%{transform:translate(720px,32px)}27.33%{transform:translate(720px,48px)}28.94%{transform:translate(640px,48px)}29.26%,63.99%{transform:translate(640px,32px)}29.58%{transform:translate(624px,32px)}30.23%{transform:translate(624px,0px)}30.55%{transform:translate(608px,0px)}30.87%{transform:translate(608px,16px)}31.19%{transform:translate(624px,16px)}32.15%,40.51%{transform:translate(624px,64px)}32.8%{transform:translate(656px,64px)}33.12%{transform:translate(656px,80px)}34.41%,36.98%{transform:translate(720px,80px)}34.73%{transform:translate(720px,64px)}35.37%{transform:translate(688px,64px)}36.01%{transform:translate(688px,96px)}36.66%{transform:translate(720px,96px)}37.94%{transform:translate(672px,80px)}38.26%{transform:translate(672px,96px)}38.91%{transform:translate(640px,96px)}39.23%{transform:translate(640px,80px)}39.87%{transform:translate(608px,80px)}40.19%,62.7%{transform:translate(608px,64px)}41.16%{transform:translate(624px,96px)}42.77%{transform:translate(544px,96px)}46.95%{transform:translate(352px,80px)}47.27%{transform:translate(352px,64px)}51.77%{transform:translate(128px,64px)}52.41%{transform:translate(128px,96px)}57.23%{transform:translate(368px,96px)}57.88%{transform:translate(368px,64px)}63.34%{transform:translate(608px,32px)}64.31%{transform:translate(640px,16px)}64.95%{transform:translate(672px,16px)}65.92%{transform:translate(672px,64px)}68.81%{transform:translate(816px,64px)}69.13%{transform:translate(816px,48px)}69.45%{transform:translate(832px,48px)}70.42%{transform:translate(832px,0px)}72.03%{transform:translate(752px,0px)}72.35%,76.21%{transform:translate(752px,16px)}73.63%{transform:translate(816px,16px)}73.95%{transform:translate(816px,32px)}75.56%{transform:translate(736px,32px)}75.88%{transform:translate(736px,16px)}76.85%{transform:translate(752px,48px)}77.81%{transform:translate(800px,48px)}78.46%{transform:translate(800px,80px)}78.78%{transform:translate(816px,80px)}79.1%{transform:translate(816px,96px)}79.74%{transform:translate(784px,96px)}80.06%{transform:translate(784px,80px)}81.03%{transform:translate(736px,80px)}81.35%{transform:translate(736px,96px)}81.99%{transform:translate(768px,96px)}82.96%{transform:translate(768px,48px)}83.6%{transform:translate(736px,48px)}97.43%{transform:translate(96px,0px)}97.75%{transform:translate(96px,-16px)}}.s.s0{transform:translate(0px,-16px);animation-name:s0}@keyframes s1{0%,99.68%{transform:translate(16px,-16px)}0.32%{transform:translate(0px,-16px)}0.64%{transform:translate(0px,0px)}3.86%{transform:translate(160px,0px)}4.18%{transform:translate(160px,16px)}4.82%{transform:translate(128px,16px)}6.11%{transform:translate(128px,80px)}11.25%{transform:translate(384px,80px)}11.9%{transform:translate(384px,48px)}15.43%{transform:translate(560px,48px)}15.76%{transform:translate(560px,64px)}16.08%{transform:translate(544px,64px)}16.4%,43.41%{transform:translate(544px,80px)}17.04%{transform:translate(576px,80px)}17.36%{transform:translate(576px,96px)}17.68%{transform:translate(592px,96px)}19.29%{transform:translate(592px,16px)}19.61%{transform:translate(576px,16px)}19.94%{transform:translate(576px,0px)}23.15%,84.89%{transform:translate(736px,0px)}23.47%{transform:translate(736px,-16px)}23.79%{transform:translate(720px,-16px)}24.44%{transform:translate(720px,16px)}25.72%{transform:translate(656px,16px)}26.05%{transform:translate(656px,32px)}27.33%{transform:translate(720px,32px)}27.65%{transform:translate(720px,48px)}29.26%{transform:translate(640px,48px)}29.58%,64.31%{transform:translate(640px,32px)}29.9%{transform:translate(624px,32px)}30.55%{transform:translate(624px,0px)}30.87%{transform:translate(608px,0px)}31.19%{transform:translate(608px,16px)}31.51%{transform:translate(624px,16px)}32.48%,40.84%{transform:translate(624px,64px)}33.12%{transform:translate(656px,64px)}33.44%{transform:translate(656px,80px)}34.73%,37.3%{transform:translate(720px,80px)}35.05%{transform:translate(720px,64px)}35.69%{transform:translate(688px,64px)}36.33%{transform:translate(688px,96px)}36.98%{transform:translate(720px,96px)}38.26%{transform:translate(672px,80px)}38.59%{transform:translate(672px,96px)}39.23%{transform:translate(640px,96px)}39.55%{transform:translate(640px,80px)}40.19%{transform:translate(608px,80px)}40.51%,63.02%{transform:translate(608px,64px)}41.48%{transform:translate(624px,96px)}43.09%{transform:translate(544px,96px)}47.27%{transform:translate(352px,80px)}47.59%{transform:translate(352px,64px)}52.09%{transform:translate(128px,64px)}52.73%{transform:translate(128px,96px)}57.56%{transform:translate(368px,96px)}58.2%{transform:translate(368px,64px)}63.67%{transform:translate(608px,32px)}64.63%{transform:translate(640px,16px)}65.27%{transform:translate(672px,16px)}66.24%{transform:translate(672px,64px)}69.13%{transform:translate(816px,64px)}69.45%{transform:translate(816px,48px)}69.77%{transform:translate(832px,48px)}70.74%{transform:translate(832px,0px)}72.35%{transform:translate(752px,0px)}72.67%,76.53%{transform:translate(752px,16px)}73.95%{transform:translate(816px,16px)}74.28%{transform:translate(816px,32px)}75.88%{transform:translate(736px,32px)}76.21%{transform:translate(736px,16px)}77.17%{transform:translate(752px,48px)}78.14%{transform:translate(800px,48px)}78.78%{transform:translate(800px,80px)}79.1%{transform:translate(816px,80px)}79.42%{transform:translate(816px,96px)}80.06%{transform:translate(784px,96px)}80.39%{transform:translate(784px,80px)}81.35%{transform:translate(736px,80px)}81.67%{transform:translate(736px,96px)}82.32%{transform:translate(768px,96px)}83.28%{transform:translate(768px,48px)}83.92%{transform:translate(736px,48px)}97.75%{transform:translate(96px,0px)}98.07%{transform:translate(96px,-16px)}}.s.s1{transform:translate(16px,-16px);animation-name:s1}@keyframes s2{0%,99.68%{transform:translate(32px,-16px)}0.64%{transform:translate(0px,-16px)}0.96%{transform:translate(0px,0px)}4.18%{transform:translate(160px,0px)}4.5%{transform:translate(160px,16px)}5.14%{transform:translate(128px,16px)}6.43%{transform:translate(128px,80px)}11.58%{transform:translate(384px,80px)}12.22%{transform:translate(384px,48px)}15.76%{transform:translate(560px,48px)}16.08%{transform:translate(560px,64px)}16.4%{transform:translate(544px,64px)}16.72%,43.73%{transform:translate(544px,80px)}17.36%{transform:translate(576px,80px)}17.68%{transform:translate(576px,96px)}18.01%{transform:translate(592px,96px)}19.61%{transform:translate(592px,16px)}19.94%{transform:translate(576px,16px)}20.26%{transform:translate(576px,0px)}23.47%,85.21%{transform:translate(736px,0px)}23.79%{transform:translate(736px,-16px)}24.12%{transform:translate(720px,-16px)}24.76%{transform:translate(720px,16px)}26.05%{transform:translate(656px,16px)}26.37%{transform:translate(656px,32px)}27.65%{transform:translate(720px,32px)}27.97%{transform:translate(720px,48px)}29.58%{transform:translate(640px,48px)}29.9%,64.63%{transform:translate(640px,32px)}30.23%{transform:translate(624px,32px)}30.87%{transform:translate(624px,0px)}31.19%{transform:translate(608px,0px)}31.51%{transform:translate(608px,16px)}31.83%{transform:translate(624px,16px)}32.8%,41.16%{transform:translate(624px,64px)}33.44%{transform:translate(656px,64px)}33.76%{transform:translate(656px,80px)}35.05%,37.62%{transform:translate(720px,80px)}35.37%{transform:translate(720px,64px)}36.01%{transform:translate(688px,64px)}36.66%{transform:translate(688px,96px)}37.3%{transform:translate(720px,96px)}38.59%{transform:translate(672px,80px)}38.91%{transform:translate(672px,96px)}39.55%{transform:translate(640px,96px)}39.87%{transform:translate(640px,80px)}40.51%{transform:translate(608px,80px)}40.84%,63.34%{transform:translate(608px,64px)}41.8%{transform:translate(624px,96px)}43.41%{transform:translate(544px,96px)}47.59%{transform:translate(352px,80px)}47.91%{transform:translate(352px,64px)}52.41%{transform:translate(128px,64px)}53.05%{transform:translate(128px,96px)}57.88%{transform:translate(368px,96px)}58.52%{transform:translate(368px,64px)}63.99%{transform:translate(608px,32px)}64.95%{transform:translate(640px,16px)}65.59%{transform:translate(672px,16px)}66.56%{transform:translate(672px,64px)}69.45%{transform:translate(816px,64px)}69.77%{transform:translate(816px,48px)}70.1%{transform:translate(832px,48px)}71.06%{transform:translate(832px,0px)}72.67%{transform:translate(752px,0px)}72.99%,76.85%{transform:translate(752px,16px)}74.28%{transform:translate(816px,16px)}74.6%{transform:translate(816px,32px)}76.21%{transform:translate(736px,32px)}76.53%{transform:translate(736px,16px)}77.49%{transform:translate(752px,48px)}78.46%{transform:translate(800px,48px)}79.1%{transform:translate(800px,80px)}79.42%{transform:translate(816px,80px)}79.74%{transform:translate(816px,96px)}80.39%{transform:translate(784px,96px)}80.71%{transform:translate(784px,80px)}81.67%{transform:translate(736px,80px)}81.99%{transform:translate(736px,96px)}82.64%{transform:translate(768px,96px)}83.6%{transform:translate(768px,48px)}84.24%{transform:translate(736px,48px)}98.07%{transform:translate(96px,0px)}98.39%{transform:translate(96px,-16px)}}.s.s2{transform:translate(32px,-16px);animation-name:s2}@keyframes s3{0%,99.68%{transform:translate(48px,-16px)}0.96%{transform:translate(0px,-16px)}1.29%{transform:translate(0px,0px)}4.5%{transform:translate(160px,0px)}4.82%{transform:translate(160px,16px)}5.47%{transform:translate(128px,16px)}6.75%{transform:translate(128px,80px)}11.9%{transform:translate(384px,80px)}12.54%{transform:translate(384px,48px)}16.08%{transform:translate(560px,48px)}16.4%{transform:translate(560px,64px)}16.72%{transform:translate(544px,64px)}17.04%,44.05%{transform:translate(544px,80px)}17.68%{transform:translate(576px,80px)}18.01%{transform:translate(576px,96px)}18.33%{transform:translate(592px,96px)}19.94%{transform:translate(592px,16px)}20.26%{transform:translate(576px,16px)}20.58%{transform:translate(576px,0px)}23.79%,85.53%{transform:translate(736px,0px)}24.12%{transform:translate(736px,-16px)}24.44%{transform:translate(720px,-16px)}25.08%{transform:translate(720px,16px)}26.37%{transform:translate(656px,16px)}26.69%{transform:translate(656px,32px)}27.97%{transform:translate(720px,32px)}28.3%{transform:translate(720px,48px)}29.9%{transform:translate(640px,48px)}30.23%,64.95%{transform:translate(640px,32px)}30.55%{transform:translate(624px,32px)}31.19%{transform:translate(624px,0px)}31.51%{transform:translate(608px,0px)}31.83%{transform:translate(608px,16px)}32.15%{transform:translate(624px,16px)}33.12%,41.48%{transform:translate(624px,64px)}33.76%{transform:translate(656px,64px)}34.08%{transform:translate(656px,80px)}35.37%,37.94%{transform:translate(720px,80px)}35.69%{transform:translate(720px,64px)}36.33%{transform:translate(688px,64px)}36.98%{transform:translate(688px,96px)}37.62%{transform:translate(720px,96px)}38.91%{transform:translate(672px,80px)}39.23%{transform:translate(672px,96px)}39.87%{transform:translate(640px,96px)}40.19%{transform:translate(640px,80px)}40.84%{transform:translate(608px,80px)}41.16%,63.67%{transform:translate(608px,64px)}42.12%{transform:translate(624px,96px)}43.73%{transform:translate(544px,96px)}47.91%{transform:translate(352px,80px)}48.23%{transform:translate(352px,64px)}52.73%{transform:translate(128px,64px)}53.38%{transform:translate(128px,96px)}58.2%{transform:translate(368px,96px)}58.84%{transform:translate(368px,64px)}64.31%{transform:translate(608px,32px)}65.27%{transform:translate(640px,16px)}65.92%{transform:translate(672px,16px)}66.88%{transform:translate(672px,64px)}69.77%{transform:translate(816px,64px)}70.1%{transform:translate(816px,48px)}70.42%{transform:translate(832px,48px)}71.38%{transform:translate(832px,0px)}72.99%{transform:translate(752px,0px)}73.31%,77.17%{transform:translate(752px,16px)}74.6%{transform:translate(816px,16px)}74.92%{transform:translate(816px,32px)}76.53%{transform:translate(736px,32px)}76.85%{transform:translate(736px,16px)}77.81%{transform:translate(752px,48px)}78.78%{transform:translate(800px,48px)}79.42%{transform:translate(800px,80px)}79.74%{transform:translate(816px,80px)}80.06%{transform:translate(816px,96px)}80.71%{transform:translate(784px,96px)}81.03%{transform:translate(784px,80px)}81.99%{transform:translate(736px,80px)}82.32%{transform:translate(736px,96px)}82.96%{transform:translate(768px,96px)}83.92%{transform:translate(768px,48px)}84.57%{transform:translate(736px,48px)}98.39%{transform:translate(96px,0px)}98.71%{transform:translate(96px,-16px)}}.s.s3{transform:translate(48px,-16px);animation-name:s3}</style><rect class="c" x="2" y="2" rx="2" ry="2"/><rect class="c" x="2" y="18" rx="2" ry="2"/><rect class="c" x="2" y="34" rx="2" ry="2"/><rect class="c" x="2" y="50" rx="2" ry="2"/><rect class="c" x="2" y="66" rx="2" ry="2"/><rect class="c" x="2" y="82" rx="2" ry="2"/><rect class="c" x="2" y="98" rx="2" ry="2"/><rect class="c" x="18" y="2" rx="2" ry="2"/><rect class="c" x="18" y="18" rx="2" ry="2"/><rect class="c" x="18" y="34" rx="2" ry="2"/><rect class="c" x="18" y="50" rx="2" ry="2"/><rect class="c" x="18" y="66" rx="2" ry="2"/><rect class="c" x="18" y="82" rx="2" ry="2"/><rect class="c" x="18" y="98" rx="2" ry="2"/><rect class="c" x="34" y="2" rx="2" ry="2"/><rect class="c" x="34" y="18" rx="2" ry="2"/><rect class="c" x="34" y="34" rx="2" ry="2"/><rect class="c" x="34" y="50" rx="2" ry="2"/><rect class="c" x="34" y="66" rx="2" ry="2"/><rect class="c" x="34" y="82" rx="2" ry="2"/><rect class="c" x="34" y="98" rx="2" ry="2"/><rect class="c" x="50" y="2" rx="2" ry="2"/><rect class="c" x="50" y="18" rx="2" ry="2"/><rect class="c" x="50" y="34" rx="2" ry="2"/><rect class="c" x="50" y="50" rx="2" ry="2"/><rect class="c" x="50" y="66" rx="2" ry="2"/><rect class="c" x="50" y="82" rx="2" ry="2"/><rect class="c" x="50" y="98" rx="2" ry="2"/><rect class="c" x="66" y="2" rx="2" ry="2"/><rect class="c" x="66" y="18" rx="2" ry="2"/><rect class="c" x="66" y="34" rx="2" ry="2"/><rect class="c" x="66" y="50" rx="2" ry="2"/><rect class="c" x="66" y="66" rx="2" ry="2"/><rect class="c" x="66" y="82" rx="2" ry="2"/><rect class="c" x="66" y="98" rx="2" ry="2"/><rect class="c" x="82" y="2" rx="2" ry="2"/><rect class="c" x="82" y="18" rx="2" ry="2"/><rect class="c" x="82" y="34" rx="2" ry="2"/><rect class="c" x="82" y="50" rx="2" ry="2"/><rect class="c" x="82" y="66" rx="2" ry="2"/><rect class="c" x="82" y="82" rx="2" ry="2"/><rect class="c" x="82" y="98" rx="2" ry="2"/><rect class="c" x="98" y="2" rx="2" ry="2"/><rect class="c" x="98" y="18" rx="2" ry="2"/><rect class="c" x="98" y="34" rx="2" ry="2"/><rect class="c" x="98" y="50" rx="2" ry="2"/><rect class="c" x="98" y="66" rx="2" ry="2"/><rect class="c" x="98" y="82" rx="2" ry="2"/><rect class="c" x="98" y="98" rx="2" ry="2"/><rect class="c" x="114" y="2" rx="2" ry="2"/><rect class="c" x="114" y="18" rx="2" ry="2"/><rect class="c" x="114" y="34" rx="2" ry="2"/><rect class="c" x="114" y="50" rx="2" ry="2"/><rect class="c" x="114" y="66" rx="2" ry="2"/><rect class="c" x="114" y="82" rx="2" ry="2"/><rect class="c" x="114" y="98" rx="2" ry="2"/><rect class="c" x="130" y="2" rx="2" ry="2"/><rect class="c" x="130" y="18" rx="2" ry="2"/><rect class="c" x="130" y="34" rx="2" ry="2"/><rect class="c" x="130" y="50" rx="2" ry="2"/><rect class="c" x="130" y="66" rx="2" ry="2"/><rect class="c c0" x="130" y="82" rx="2" ry="2"/><rect class="c c1" x="130" y="98" rx="2" ry="2"/><rect class="c" x="146" y="2" rx="2" ry="2"/><rect class="c" x="146" y="18" rx="2" ry="2"/><rect class="c" x="146" y="34" rx="2" ry="2"/><rect class="c" x="146" y="50" rx="2" ry="2"/><rect class="c" x="146" y="66" rx="2" ry="2"/><rect class="c" x="146" y="82" rx="2" ry="2"/><rect class="c" x="146" y="98" rx="2" ry="2"/><rect class="c c2" x="162" y="2" rx="2" ry="2"/><rect class="c c3" x="162" y="18" rx="2" ry="2"/><rect class="c" x="162" y="34" rx="2" ry="2"/><rect class="c" x="162" y="50" rx="2" ry="2"/><rect class="c" x="162" y="66" rx="2" ry="2"/><rect class="c" x="162" y="82" rx="2" ry="2"/><rect class="c" x="162" y="98" rx="2" ry="2"/><rect class="c" x="178" y="2" rx="2" ry="2"/><rect class="c" x="178" y="18" rx="2" ry="2"/><rect class="c" x="178" y="34" rx="2" ry="2"/><rect class="c" x="178" y="50" rx="2" ry="2"/><rect class="c" x="178" y="66" rx="2" ry="2"/><rect class="c" x="178" y="82" rx="2" ry="2"/><rect class="c" x="178" y="98" rx="2" ry="2"/><rect class="c" x="194" y="2" rx="2" ry="2"/><rect class="c" x="194" y="18" rx="2" ry="2"/><rect class="c" x="194" y="34" rx="2" ry="2"/><rect class="c" x="194" y="50" rx="2" ry="2"/><rect class="c" x="194" y="66" rx="2" ry="2"/><rect class="c" x="194" y="82" rx="2" ry="2"/><rect class="c" x="194" y="98" rx="2" ry="2"/><rect class="c" x="210" y="2" rx="2" ry="2"/><rect class="c" x="210" y="18" rx="2" ry="2"/><rect class="c" x="210" y="34" rx="2" ry="2"/><rect class="c" x="210" y="50" rx="2" ry="2"/><rect class="c" x="210" y="66" rx="2" ry="2"/><rect class="c" x="210" y="82" rx="2" ry="2"/><rect class="c" x="210" y="98" rx="2" ry="2"/><rect class="c" x="226" y="2" rx="2" ry="2"/><rect class="c" x="226" y="18" rx="2" ry="2"/><rect class="c" x="226" y="34" rx="2" ry="2"/><rect class="c" x="226" y="50" rx="2" ry="2"/><rect class="c" x="226" y="66" rx="2" ry="2"/><rect class="c" x="226" y="82" rx="2" ry="2"/><rect class="c" x="226" y="98" rx="2" ry="2"/><rect class="c" x="242" y="2" rx="2" ry="2"/><rect class="c" x="242" y="18" rx="2" ry="2"/><rect class="c" x="242" y="34" rx="2" ry="2"/><rect class="c" x="242" y="50" rx="2" ry="2"/><rect class="c c4" x="242" y="66" rx="2" ry="2"/><rect class="c" x="242" y="82" rx="2" ry="2"/><rect class="c" x="242" y="98" rx="2" ry="2"/><rect class="c" x="258" y="2" rx="2" ry="2"/><rect class="c" x="258" y="18" rx="2" ry="2"/><rect class="c" x="258" y="34" rx="2" ry="2"/><rect class="c" x="258" y="50" rx="2" ry="2"/><rect class="c" x="258" y="66" rx="2" ry="2"/><rect class="c" x="258" y="82" rx="2" ry="2"/><rect class="c" x="258" y="98" rx="2" ry="2"/><rect class="c" x="274" y="2" rx="2" ry="2"/><rect class="c" x="274" y="18" rx="2" ry="2"/><rect class="c" x="274" y="34" rx="2" ry="2"/><rect class="c" x="274" y="50" rx="2" ry="2"/><rect class="c" x="274" y="66" rx="2" ry="2"/><rect class="c" x="274" y="82" rx="2" ry="2"/><rect class="c" x="274" y="98" rx="2" ry="2"/><rect class="c" x="290" y="2" rx="2" ry="2"/><rect class="c" x="290" y="18" rx="2" ry="2"/><rect class="c" x="290" y="34" rx="2" ry="2"/><rect class="c" x="290" y="50" rx="2" ry="2"/><rect class="c" x="290" y="66" rx="2" ry="2"/><rect class="c" x="290" y="82" rx="2" ry="2"/><rect class="c" x="290" y="98" rx="2" ry="2"/><rect class="c" x="306" y="2" rx="2" ry="2"/><rect class="c" x="306" y="18" rx="2" ry="2"/><rect class="c" x="306" y="34" rx="2" ry="2"/><rect class="c" x="306" y="50" rx="2" ry="2"/><rect class="c" x="306" y="66" rx="2" ry="2"/><rect class="c" x="306" y="82" rx="2" ry="2"/><rect class="c" x="306" y="98" rx="2" ry="2"/><rect class="c" x="322" y="2" rx="2" ry="2"/><rect class="c" x="322" y="18" rx="2" ry="2"/><rect class="c" x="322" y="34" rx="2" ry="2"/><rect class="c" x="322" y="50" rx="2" ry="2"/><rect class="c" x="322" y="66" rx="2" ry="2"/><rect class="c" x="322" y="82" rx="2" ry="2"/><rect class="c" x="322" y="98" rx="2" ry="2"/><rect class="c" x="338" y="2" rx="2" ry="2"/><rect class="c" x="338" y="18" rx="2" ry="2"/><rect class="c" x="338" y="34" rx="2" ry="2"/><rect class="c" x="338" y="50" rx="2" ry="2"/><rect class="c" x="338" y="66" rx="2" ry="2"/><rect class="c" x="338" y="82" rx="2" ry="2"/><rect class="c" x="338" y="98" rx="2" ry="2"/><rect class="c" x="354" y="2" rx="2" ry="2"/><rect class="c" x="354" y="18" rx="2" ry="2"/><rect class="c" x="354" y="34" rx="2" ry="2"/><rect class="c" x="354" y="50" rx="2" ry="2"/><rect class="c" x="354" y="66" rx="2" ry="2"/><rect class="c" x="354" y="82" rx="2" ry="2"/><rect class="c" x="354" y="98" rx="2" ry="2"/><rect class="c" x="370" y="2" rx="2" ry="2"/><rect class="c" x="370" y="18" rx="2" ry="2"/><rect class="c" x="370" y="34" rx="2" ry="2"/><rect class="c" x="370" y="50" rx="2" ry="2"/><rect class="c c5" x="370" y="66" rx="2" ry="2"/><rect class="c" x="370" y="82" rx="2" ry="2"/><rect class="c" x="370" y="98" rx="2" ry="2"/><rect class="c" x="386" y="2" rx="2" ry="2"/><rect class="c" x="386" y="18" rx="2" ry="2"/><rect class="c" x="386" y="34" rx="2" ry="2"/><rect class="c c6" x="386" y="50" rx="2" ry="2"/><rect class="c" x="386" y="66" rx="2" ry="2"/><rect class="c" x="386" y="82" rx="2" ry="2"/><rect class="c" x="386" y="98" rx="2" ry="2"/><rect class="c" x="402" y="2" rx="2" ry="2"/><rect class="c" x="402" y="18" rx="2" ry="2"/><rect class="c" x="402" y="34" rx="2" ry="2"/><rect class="c" x="402" y="50" rx="2" ry="2"/><rect class="c" x="402" y="66" rx="2" ry="2"/><rect class="c" x="402" y="82" rx="2" ry="2"/><rect class="c" x="402" y="98" rx="2" ry="2"/><rect class="c" x="418" y="2" rx="2" ry="2"/><rect class="c" x="418" y="18" rx="2" ry="2"/><rect class="c" x="418" y="34" rx="2" ry="2"/><rect class="c" x="418" y="50" rx="2" ry="2"/><rect class="c" x="418" y="66" rx="2" ry="2"/><rect class="c" x="418" y="82" rx="2" ry="2"/><rect class="c" x="418" y="98" rx="2" ry="2"/><rect class="c" x="434" y="2" rx="2" ry="2"/><rect class="c" x="434" y="18" rx="2" ry="2"/><rect class="c" x="434" y="34" rx="2" ry="2"/><rect class="c" x="434" y="50" rx="2" ry="2"/><rect class="c" x="434" y="66" rx="2" ry="2"/><rect class="c" x="434" y="82" rx="2" ry="2"/><rect class="c" x="434" y="98" rx="2" ry="2"/><rect class="c" x="450" y="2" rx="2" ry="2"/><rect class="c" x="450" y="18" rx="2" ry="2"/><rect class="c" x="450" y="34" rx="2" ry="2"/><rect class="c" x="450" y="50" rx="2" ry="2"/><rect class="c" x="450" y="66" rx="2" ry="2"/><rect class="c" x="450" y="82" rx="2" ry="2"/><rect class="c" x="450" y="98" rx="2" ry="2"/><rect class="c" x="466" y="2" rx="2" ry="2"/><rect class="c" x="466" y="18" rx="2" ry="2"/><rect class="c" x="466" y="34" rx="2" ry="2"/><rect class="c" x="466" y="50" rx="2" ry="2"/><rect class="c" x="466" y="66" rx="2" ry="2"/><rect class="c" x="466" y="82" rx="2" ry="2"/><rect class="c" x="466" y="98" rx="2" ry="2"/><rect class="c" x="482" y="2" rx="2" ry="2"/><rect class="c" x="482" y="18" rx="2" ry="2"/><rect class="c" x="482" y="34" rx="2" ry="2"/><rect class="c" x="482" y="50" rx="2" ry="2"/><rect class="c" x="482" y="66" rx="2" ry="2"/><rect class="c" x="482" y="82" rx="2" ry="2"/><rect class="c" x="482" y="98" rx="2" ry="2"/><rect class="c" x="498" y="2" rx="2" ry="2"/><rect class="c" x="498" y="18" rx="2" ry="2"/><rect class="c" x="498" y="34" rx="2" ry="2"/><rect class="c" x="498" y="50" rx="2" ry="2"/><rect class="c" x="498" y="66" rx="2" ry="2"/><rect class="c" x="498" y="82" rx="2" ry="2"/><rect class="c" x="498" y="98" rx="2" ry="2"/><rect class="c" x="514" y="2" rx="2" ry="2"/><rect class="c" x="514" y="18" rx="2" ry="2"/><rect class="c" x="514" y="34" rx="2" ry="2"/><rect class="c" x="514" y="50" rx="2" ry="2"/><rect class="c" x="514" y="66" rx="2" ry="2"/><rect class="c" x="514" y="82" rx="2" ry="2"/><rect class="c" x="514" y="98" rx="2" ry="2"/><rect class="c" x="530" y="2" rx="2" ry="2"/><rect class="c" x="530" y="18" rx="2" ry="2"/><rect class="c" x="530" y="34" rx="2" ry="2"/><rect class="c" x="530" y="50" rx="2" ry="2"/><rect class="c" x="530" y="66" rx="2" ry="2"/><rect class="c" x="530" y="82" rx="2" ry="2"/><rect class="c" x="530" y="98" rx="2" ry="2"/><rect class="c" x="546" y="2" rx="2" ry="2"/><rect class="c" x="546" y="18" rx="2" ry="2"/><rect class="c" x="546" y="34" rx="2" ry="2"/><rect class="c" x="546" y="50" rx="2" ry="2"/><rect class="c c7" x="546" y="66" rx="2" ry="2"/><rect class="c" x="546" y="82" rx="2" ry="2"/><rect class="c c8" x="546" y="98" rx="2" ry="2"/><rect class="c c9" x="562" y="2" rx="2" ry="2"/><rect class="c" x="562" y="18" rx="2" ry="2"/><rect class="c" x="562" y="34" rx="2" ry="2"/><rect class="c ca" x="562" y="50" rx="2" ry="2"/><rect class="c" x="562" y="66" rx="2" ry="2"/><rect class="c" x="562" y="82" rx="2" ry="2"/><rect class="c" x="562" y="98" rx="2" ry="2"/><rect class="c" x="578" y="2" rx="2" ry="2"/><rect class="c cb" x="578" y="18" rx="2" ry="2"/><rect class="c" x="578" y="34" rx="2" ry="2"/><rect class="c" x="578" y="50" rx="2" ry="2"/><rect class="c" x="578" y="66" rx="2" ry="2"/><rect class="c cc" x="578" y="82" rx="2" ry="2"/><rect class="c cd" x="578" y="98" rx="2" ry="2"/><rect class="c" x="594" y="2" rx="2" ry="2"/><rect class="c" x="594" y="18" rx="2" ry="2"/><rect class="c" x="594" y="34" rx="2" ry="2"/><rect class="c" x="594" y="50" rx="2" ry="2"/><rect class="c" x="594" y="66" rx="2" ry="2"/><rect class="c" x="594" y="82" rx="2" ry="2"/><rect class="c" x="594" y="98" rx="2" ry="2"/><rect class="c" x="610" y="2" rx="2" ry="2"/><rect class="c" x="610" y="18" rx="2" ry="2"/><rect class="c ce" x="610" y="34" rx="2" ry="2"/><rect class="c cf" x="610" y="50" rx="2" ry="2"/><rect class="c cg" x="610" y="66" rx="2" ry="2"/><rect class="c ch" x="610" y="82" rx="2" ry="2"/><rect class="c ci" x="610" y="98" rx="2" ry="2"/><rect class="c cj" x="626" y="2" rx="2" ry="2"/><rect class="c ck" x="626" y="18" rx="2" ry="2"/><rect class="c cl" x="626" y="34" rx="2" ry="2"/><rect class="c cm" x="626" y="50" rx="2" ry="2"/><rect class="c cn" x="626" y="66" rx="2" ry="2"/><rect class="c co" x="626" y="82" rx="2" ry="2"/><rect class="c cp" x="626" y="98" rx="2" ry="2"/><rect class="c cq" x="642" y="2" rx="2" ry="2"/><rect class="c cr" x="642" y="18" rx="2" ry="2"/><rect class="c cs" x="642" y="34" rx="2" ry="2"/><rect class="c ct" x="642" y="50" rx="2" ry="2"/><rect class="c cu" x="642" y="66" rx="2" ry="2"/><rect class="c cv" x="642" y="82" rx="2" ry="2"/><rect class="c cw" x="642" y="98" rx="2" ry="2"/><rect class="c cx" x="658" y="2" rx="2" ry="2"/><rect class="c cy" x="658" y="18" rx="2" ry="2"/><rect class="c cz" x="658" y="34" rx="2" ry="2"/><rect class="c c10" x="658" y="50" rx="2" ry="2"/><rect class="c c11" x="658" y="66" rx="2" ry="2"/><rect class="c c12" x="658" y="82" rx="2" ry="2"/><rect class="c c13" x="658" y="98" rx="2" ry="2"/><rect class="c c14" x="674" y="2" rx="2" ry="2"/><rect class="c c15" x="674" y="18" rx="2" ry="2"/><rect class="c c16" x="674" y="34" rx="2" ry="2"/><rect class="c c17" x="674" y="50" rx="2" ry="2"/><rect class="c c18" x="674" y="66" rx="2" ry="2"/><rect class="c c19" x="674" y="82" rx="2" ry="2"/><rect class="c c1a" x="674" y="98" rx="2" ry="2"/><rect class="c c1b" x="690" y="2" rx="2" ry="2"/><rect class="c c1c" x="690" y="18" rx="2" ry="2"/><rect class="c c1d" x="690" y="34" rx="2" ry="2"/><rect class="c c1e" x="690" y="50" rx="2" ry="2"/><rect class="c c1f" x="690" y="66" rx="2" ry="2"/><rect class="c c1g" x="690" y="82" rx="2" ry="2"/><rect class="c c1h" x="690" y="98" rx="2" ry="2"/><rect class="c c1i" x="706" y="2" rx="2" ry="2"/><rect class="c c1j" x="706" y="18" rx="2" ry="2"/><rect class="c c1k" x="706" y="34" rx="2" ry="2"/><rect class="c c1l" x="706" y="50" rx="2" ry="2"/><rect class="c c1m" x="706" y="66" rx="2" ry="2"/><rect class="c c1n" x="706" y="82" rx="2" ry="2"/><rect class="c c1o" x="706" y="98" rx="2" ry="2"/><rect class="c c1p" x="722" y="2" rx="2" ry="2"/><rect class="c c1q" x="722" y="18" rx="2" ry="2"/><rect class="c c1r" x="722" y="34" rx="2" ry="2"/><rect class="c c1s" x="722" y="50" rx="2" ry="2"/><rect class="c c1t" x="722" y="66" rx="2" ry="2"/><rect class="c c1u" x="722" y="82" rx="2" ry="2"/><rect class="c c1v" x="722" y="98" rx="2" ry="2"/><rect class="c c1w" x="738" y="2" rx="2" ry="2"/><rect class="c c1x" x="738" y="18" rx="2" ry="2"/><rect class="c c1y" x="738" y="34" rx="2" ry="2"/><rect class="c c1z" x="738" y="50" rx="2" ry="2"/><rect class="c c20" x="738" y="66" rx="2" ry="2"/><rect class="c c21" x="738" y="82" rx="2" ry="2"/><rect class="c c22" x="738" y="98" rx="2" ry="2"/><rect class="c c23" x="754" y="2" rx="2" ry="2"/><rect class="c c24" x="754" y="18" rx="2" ry="2"/><rect class="c c25" x="754" y="34" rx="2" ry="2"/><rect class="c c26" x="754" y="50" rx="2" ry="2"/><rect class="c c27" x="754" y="66" rx="2" ry="2"/><rect class="c c28" x="754" y="82" rx="2" ry="2"/><rect class="c c29" x="754" y="98" rx="2" ry="2"/><rect class="c c2a" x="770" y="2" rx="2" ry="2"/><rect class="c c2b" x="770" y="18" rx="2" ry="2"/><rect class="c c2c" x="770" y="34" rx="2" ry="2"/><rect class="c c2d" x="770" y="50" rx="2" ry="2"/><rect class="c c2e" x="770" y="66" rx="2" ry="2"/><rect class="c c2f" x="770" y="82" rx="2" ry="2"/><rect class="c c2g" x="770" y="98" rx="2" ry="2"/><rect class="c c2h" x="786" y="2" rx="2" ry="2"/><rect class="c c2i" x="786" y="18" rx="2" ry="2"/><rect class="c c2j" x="786" y="34" rx="2" ry="2"/><rect class="c c2k" x="786" y="50" rx="2" ry="2"/><rect class="c c2l" x="786" y="66" rx="2" ry="2"/><rect class="c c2m" x="786" y="82" rx="2" ry="2"/><rect class="c c2n" x="786" y="98" rx="2" ry="2"/><rect class="c c2o" x="802" y="2" rx="2" ry="2"/><rect class="c c2p" x="802" y="18" rx="2" ry="2"/><rect class="c c2q" x="802" y="34" rx="2" ry="2"/><rect class="c c2r" x="802" y="50" rx="2" ry="2"/><rect class="c c2s" x="802" y="66" rx="2" ry="2"/><rect class="c c2t" x="802" y="82" rx="2" ry="2"/><rect class="c c2u" x="802" y="98" rx="2" ry="2"/><rect class="c c2v" x="818" y="2" rx="2" ry="2"/><rect class="c c2w" x="818" y="18" rx="2" ry="2"/><rect class="c c2x" x="818" y="34" rx="2" ry="2"/><rect class="c c2y" x="818" y="50" rx="2" ry="2"/><rect class="c c2z" x="818" y="66" rx="2" ry="2"/><rect class="c c30" x="818" y="82" rx="2" ry="2"/><rect class="c c31" x="818" y="98" rx="2" ry="2"/><rect class="c c32" x="834" y="2" rx="2" ry="2"/><rect class="c c33" x="834" y="18" rx="2" ry="2"/><rect class="c c34" x="834" y="34" rx="2" ry="2"/><rect class="c c35" x="834" y="50" rx="2" ry="2"/><rect class="c" x="834" y="66" rx="2" ry="2"/><rect class="u u0" height="12" width="67.5" x="0.0" y="144"/><rect class="u u1" height="12" width="402.3" x="66.9" y="144"/><rect class="u u2" height="12" width="380.0" x="468.6" y="144"/><rect class="s s0" x="0.8" y="0.8" width="14.4" height="14.4" rx="4.5" ry="4.5"/><rect class="s s1" x="1.8" y="1.8" width="12.3" height="12.3" rx="4.1" ry="4.1"/><rect class="s s2" x="2.6" y="2.6" width="10.8" height="10.8" rx="3.6" ry="3.6"/><rect class="s s3" x="3.0" y="3.0" width="9.9" height="9.9" rx="3.3" ry="3.3"/></svg>