<svg viewBox="-16 -32 880 192" width="880" height="192" xmlns="http://www.w3.org/2000/svg"><desc>Generated with https://github.com/Platane/snk</desc><style>:root{--cb:#1b1f230a;--cs:purple;--ce:#ebedf0;--c0:#ebedf0;--c1:#9be9a8;--c2:#40c463;--c3:#30a14e;--c4:#216e39}.c{shape-rendering:geometricPrecision;fill:var(--ce);stroke-width:1px;stroke:var(--cb);animation:none 32500ms linear infinite;width:12px;height:12px}@keyframes c0{5.53%{fill:var(--c1)}5.55%,100%{fill:var(--ce)}}.c.c0{fill:var(--c1);animation-name:c0}@keyframes c1{50.14%{fill:var(--c2)}50.16%,100%{fill:var(--ce)}}.c.c1{fill:var(--c2);animation-name:c1}@keyframes c2{3.37%{fill:var(--c1)}3.39%,100%{fill:var(--ce)}}.c.c2{fill:var(--c1);animation-name:c2}@keyframes c3{3.68%{fill:var(--c1)}3.7%,100%{fill:var(--ce)}}.c.c3{fill:var(--c1);animation-name:c3}@keyframes c4{47.37%{fill:var(--c2)}47.39%,100%{fill:var(--ce)}}.c.c4{fill:var(--c2);animation-name:c4}@keyframes c5{91.07%{fill:var(--c4)}91.09%,100%{fill:var(--ce)}}.c.c5{fill:var(--c4);animation-name:c5}@keyframes c6{11.07%{fill:var(--c1)}11.09%,100%{fill:var(--ce)}}.c.c6{fill:var(--c1);animation-name:c6}@keyframes c7{15.07%{fill:var(--c1)}15.09%,100%{fill:var(--ce)}}.c.c7{fill:var(--c1);animation-name:c7}@keyframes c8{40.91%{fill:var(--c2)}40.93%,100%{fill:var(--ce)}}.c.c8{fill:var(--c2);animation-name:c8}@keyframes c9{86.14%{fill:var(--c4)}86.16%,100%{fill:var(--ce)}}.c.c9{fill:var(--c4);animation-name:c9}@keyframes ca{14.45%{fill:var(--c1)}14.47%,100%{fill:var(--ce)}}.c.ca{fill:var(--c1);animation-name:ca}@keyframes cb{18.45%{fill:var(--c1)}18.47%,100%{fill:var(--ce)}}.c.cb{fill:var(--c1);animation-name:cb}@keyframes cc{15.99%{fill:var(--c1)}16.01%,100%{fill:var(--ce)}}.c.cc{fill:var(--c1);animation-name:cc}@keyframes cd{16.3%{fill:var(--c1)}16.32%,100%{fill:var(--ce)}}.c.cd{fill:var(--c1);animation-name:cd}@keyframes ce{83.99%{fill:var(--c4)}84.01%,100%{fill:var(--ce)}}.c.ce{fill:var(--c4);animation-name:ce}@keyframes cf{84.3%{fill:var(--c4)}84.32%,100%{fill:var(--ce)}}.c.cf{fill:var(--c4);animation-name:cf}@keyframes cg{38.45%{fill:var(--c2)}38.47%,100%{fill:var(--ce)}}.c.cg{fill:var(--c2);animation-name:cg}@keyframes ch{38.14%{fill:var(--c2)}38.16%,100%{fill:var(--ce)}}.c.ch{fill:var(--c2);animation-name:ch}@keyframes ci{39.68%{fill:var(--c2)}39.7%,100%{fill:var(--ce)}}.c.ci{fill:var(--c2);animation-name:ci}@keyframes cj{19.68%{fill:var(--c2)}19.7%,100%{fill:var(--ce)}}.c.cj{fill:var(--c2);animation-name:cj}@keyframes ck{28.61%{fill:var(--c2)}28.63%,100%{fill:var(--ce)}}.c.ck{fill:var(--c2);animation-name:ck}@keyframes cl{28.3%{fill:var(--c2)}28.32%,100%{fill:var(--ce)}}.c.cl{fill:var(--c2);animation-name:cl}@keyframes cm{30.45%{fill:var(--c2)}30.47%,100%{fill:var(--ce)}}.c.cm{fill:var(--c2);animation-name:cm}@keyframes cn{30.76%{fill:var(--c2)}30.78%,100%{fill:var(--ce)}}.c.cn{fill:var(--c2);animation-name:cn}@keyframes co{37.84%{fill:var(--c2)}37.86%,100%{fill:var(--ce)}}.c.co{fill:var(--c2);animation-name:co}@keyframes cp{39.37%{fill:var(--c2)}39.39%,100%{fill:var(--ce)}}.c.cp{fill:var(--c2);animation-name:cp}@keyframes cq{19.99%{fill:var(--c2)}20.01%,100%{fill:var(--ce)}}.c.cq{fill:var(--c2);animation-name:cq}@keyframes cr{83.07%{fill:var(--c4)}83.09%,100%{fill:var(--ce)}}.c.cr{fill:var(--c4);animation-name:cr}@keyframes cs{27.99%{fill:var(--c2)}28.01%,100%{fill:var(--ce)}}.c.cs{fill:var(--c2);animation-name:cs}@keyframes ct{27.68%{fill:var(--c2)}27.7%,100%{fill:var(--ce)}}.c.ct{fill:var(--c2);animation-name:ct}@keyframes cu{31.07%{fill:var(--c2)}31.09%,100%{fill:var(--ce)}}.c.cu{fill:var(--c2);animation-name:cu}@keyframes cv{37.53%{fill:var(--c2)}37.55%,100%{fill:var(--ce)}}.c.cv{fill:var(--c2);animation-name:cv}@keyframes cw{37.22%{fill:var(--c2)}37.24%,100%{fill:var(--ce)}}.c.cw{fill:var(--c2);animation-name:cw}@keyframes cx{20.3%{fill:var(--c2)}20.32%,100%{fill:var(--ce)}}.c.cx{fill:var(--c2);animation-name:cx}@keyframes cy{24.3%{fill:var(--c2)}24.32%,100%{fill:var(--ce)}}.c.cy{fill:var(--c2);animation-name:cy}@keyframes cz{24.61%{fill:var(--c2)}24.63%,100%{fill:var(--ce)}}.c.cz{fill:var(--c2);animation-name:cz}@keyframes c10{27.37%{fill:var(--c2)}27.39%,100%{fill:var(--ce)}}.c.c10{fill:var(--c2);animation-name:c10}@keyframes c11{31.37%{fill:var(--c2)}31.39%,100%{fill:var(--ce)}}.c.c11{fill:var(--c2);animation-name:c11}@keyframes c12{31.68%{fill:var(--c2)}31.7%,100%{fill:var(--ce)}}.c.c12{fill:var(--c2);animation-name:c12}@keyframes c13{36.91%{fill:var(--c2)}36.93%,100%{fill:var(--ce)}}.c.c13{fill:var(--c2);animation-name:c13}@keyframes c14{20.61%{fill:var(--c2)}20.63%,100%{fill:var(--ce)}}.c.c14{fill:var(--c2);animation-name:c14}@keyframes c15{23.99%{fill:var(--c2)}24.01%,100%{fill:var(--ce)}}.c.c15{fill:var(--c2);animation-name:c15}@keyframes c16{24.91%{fill:var(--c2)}24.93%,100%{fill:var(--ce)}}.c.c16{fill:var(--c2);animation-name:c16}@keyframes c17{27.07%{fill:var(--c2)}27.09%,100%{fill:var(--ce)}}.c.c17{fill:var(--c2);animation-name:c17}@keyframes c18{81.53%{fill:var(--c4)}81.55%,100%{fill:var(--ce)}}.c.c18{fill:var(--c4);animation-name:c18}@keyframes c19{31.99%{fill:var(--c2)}32.01%,100%{fill:var(--ce)}}.c.c19{fill:var(--c2);animation-name:c19}@keyframes c1a{36.61%{fill:var(--c2)}36.63%,100%{fill:var(--ce)}}.c.c1a{fill:var(--c2);animation-name:c1a}@keyframes c1b{20.91%{fill:var(--c2)}20.93%,100%{fill:var(--ce)}}.c.c1b{fill:var(--c2);animation-name:c1b}@keyframes c1c{23.68%{fill:var(--c2)}23.7%,100%{fill:var(--ce)}}.c.c1c{fill:var(--c2);animation-name:c1c}@keyframes c1d{25.22%{fill:var(--c2)}25.24%,100%{fill:var(--ce)}}.c.c1d{fill:var(--c2);animation-name:c1d}@keyframes c1e{26.76%{fill:var(--c2)}26.78%,100%{fill:var(--ce)}}.c.c1e{fill:var(--c2);animation-name:c1e}@keyframes c1f{33.84%{fill:var(--c2)}33.86%,100%{fill:var(--ce)}}.c.c1f{fill:var(--c2);animation-name:c1f}@keyframes c1g{32.3%{fill:var(--c2)}32.32%,100%{fill:var(--ce)}}.c.c1g{fill:var(--c2);animation-name:c1g}@keyframes c1h{34.45%{fill:var(--c2)}34.47%,100%{fill:var(--ce)}}.c.c1h{fill:var(--c2);animation-name:c1h}@keyframes c1i{21.22%{fill:var(--c2)}21.24%,100%{fill:var(--ce)}}.c.c1i{fill:var(--c2);animation-name:c1i}@keyframes c1j{23.37%{fill:var(--c2)}23.39%,100%{fill:var(--ce)}}.c.c1j{fill:var(--c2);animation-name:c1j}@keyframes c1k{25.53%{fill:var(--c2)}25.55%,100%{fill:var(--ce)}}.c.c1k{fill:var(--c2);animation-name:c1k}@keyframes c1l{26.45%{fill:var(--c2)}26.47%,100%{fill:var(--ce)}}.c.c1l{fill:var(--c2);animation-name:c1l}@keyframes c1m{33.53%{fill:var(--c2)}33.55%,100%{fill:var(--ce)}}.c.c1m{fill:var(--c2);animation-name:c1m}@keyframes c1n{32.61%{fill:var(--c2)}32.63%,100%{fill:var(--ce)}}.c.c1n{fill:var(--c2);animation-name:c1n}@keyframes c1o{34.76%{fill:var(--c2)}34.78%,100%{fill:var(--ce)}}.c.c1o{fill:var(--c2);animation-name:c1o}@keyframes c1p{21.53%{fill:var(--c2)}21.55%,100%{fill:var(--ce)}}.c.c1p{fill:var(--c2);animation-name:c1p}@keyframes c1q{23.07%{fill:var(--c2)}23.09%,100%{fill:var(--ce)}}.c.c1q{fill:var(--c2);animation-name:c1q}@keyframes c1r{25.84%{fill:var(--c2)}25.86%,100%{fill:var(--ce)}}.c.c1r{fill:var(--c2);animation-name:c1r}@keyframes c1s{26.14%{fill:var(--c2)}26.16%,100%{fill:var(--ce)}}.c.c1s{fill:var(--c2);animation-name:c1s}@keyframes c1t{33.22%{fill:var(--c2)}33.24%,100%{fill:var(--ce)}}.c.c1t{fill:var(--c2);animation-name:c1t}@keyframes c1u{32.91%{fill:var(--c2)}32.93%,100%{fill:var(--ce)}}.c.c1u{fill:var(--c2);animation-name:c1u}@keyframes c1v{35.07%{fill:var(--c2)}35.09%,100%{fill:var(--ce)}}.c.c1v{fill:var(--c2);animation-name:c1v}@keyframes c1w{21.84%{fill:var(--c2)}21.86%,100%{fill:var(--ce)}}.c.c1w{fill:var(--c2);animation-name:c1w}@keyframes c1x{71.37%{fill:var(--c4)}71.39%,100%{fill:var(--ce)}}.c.c1x{fill:var(--c4);animation-name:c1x}@keyframes c1y{71.07%{fill:var(--c4)}71.09%,100%{fill:var(--ce)}}.c.c1y{fill:var(--c4);animation-name:c1y}@keyframes c1z{75.68%{fill:var(--c4)}75.7%,100%{fill:var(--ce)}}.c.c1z{fill:var(--c4);animation-name:c1z}@keyframes c20{75.37%{fill:var(--c4)}75.39%,100%{fill:var(--ce)}}.c.c20{fill:var(--c4);animation-name:c20}@keyframes c21{79.99%{fill:var(--c4)}80.01%,100%{fill:var(--ce)}}.c.c21{fill:var(--c4);animation-name:c21}@keyframes c22{79.68%{fill:var(--c4)}79.7%,100%{fill:var(--ce)}}.c.c22{fill:var(--c4);animation-name:c22}@keyframes c23{67.68%{fill:var(--c4)}67.7%,100%{fill:var(--ce)}}.c.c23{fill:var(--c4);animation-name:c23}@keyframes c24{67.99%{fill:var(--c4)}68.01%,100%{fill:var(--ce)}}.c.c24{fill:var(--c4);animation-name:c24}@keyframes c25{70.76%{fill:var(--c4)}70.78%,100%{fill:var(--ce)}}.c.c25{fill:var(--c4);animation-name:c25}@keyframes c26{72.3%{fill:var(--c4)}72.32%,100%{fill:var(--ce)}}.c.c26{fill:var(--c4);animation-name:c26}@keyframes c27{75.07%{fill:var(--c4)}75.09%,100%{fill:var(--ce)}}.c.c27{fill:var(--c4);animation-name:c27}@keyframes c28{76.61%{fill:var(--c4)}76.63%,100%{fill:var(--ce)}}.c.c28{fill:var(--c4);animation-name:c28}@keyframes c29{79.37%{fill:var(--c4)}79.39%,100%{fill:var(--ce)}}.c.c29{fill:var(--c4);animation-name:c29}@keyframes c2a{67.37%{fill:var(--c4)}67.39%,100%{fill:var(--ce)}}.c.c2a{fill:var(--c4);animation-name:c2a}@keyframes c2b{68.3%{fill:var(--c4)}68.32%,100%{fill:var(--ce)}}.c.c2b{fill:var(--c4);animation-name:c2b}@keyframes c2c{70.45%{fill:var(--c4)}70.47%,100%{fill:var(--ce)}}.c.c2c{fill:var(--c4);animation-name:c2c}@keyframes c2d{72.61%{fill:var(--c4)}72.63%,100%{fill:var(--ce)}}.c.c2d{fill:var(--c4);animation-name:c2d}@keyframes c2e{74.76%{fill:var(--c4)}74.78%,100%{fill:var(--ce)}}.c.c2e{fill:var(--c4);animation-name:c2e}@keyframes c2f{76.91%{fill:var(--c4)}76.93%,100%{fill:var(--ce)}}.c.c2f{fill:var(--c4);animation-name:c2f}@keyframes c2g{79.07%{fill:var(--c4)}79.09%,100%{fill:var(--ce)}}.c.c2g{fill:var(--c4);animation-name:c2g}@keyframes c2h{67.07%{fill:var(--c4)}67.09%,100%{fill:var(--ce)}}.c.c2h{fill:var(--c4);animation-name:c2h}@keyframes c2i{68.61%{fill:var(--c4)}68.63%,100%{fill:var(--ce)}}.c.c2i{fill:var(--c4);animation-name:c2i}@keyframes c2j{70.14%{fill:var(--c4)}70.16%,100%{fill:var(--ce)}}.c.c2j{fill:var(--c4);animation-name:c2j}@keyframes c2k{72.91%{fill:var(--c4)}72.93%,100%{fill:var(--ce)}}.c.c2k{fill:var(--c4);animation-name:c2k}@keyframes c2l{74.45%{fill:var(--c4)}74.47%,100%{fill:var(--ce)}}.c.c2l{fill:var(--c4);animation-name:c2l}@keyframes c2m{77.22%{fill:var(--c4)}77.24%,100%{fill:var(--ce)}}.c.c2m{fill:var(--c4);animation-name:c2m}@keyframes c2n{78.76%{fill:var(--c4)}78.78%,100%{fill:var(--ce)}}.c.c2n{fill:var(--c4);animation-name:c2n}@keyframes c2o{66.76%{fill:var(--c4)}66.78%,100%{fill:var(--ce)}}.c.c2o{fill:var(--c4);animation-name:c2o}@keyframes c2p{68.91%{fill:var(--c4)}68.93%,100%{fill:var(--ce)}}.c.c2p{fill:var(--c4);animation-name:c2p}@keyframes c2q{69.84%{fill:var(--c4)}69.86%,100%{fill:var(--ce)}}.c.c2q{fill:var(--c4);animation-name:c2q}@keyframes c2r{73.22%{fill:var(--c4)}73.24%,100%{fill:var(--ce)}}.c.c2r{fill:var(--c4);animation-name:c2r}@keyframes c2s{74.14%{fill:var(--c4)}74.16%,100%{fill:var(--ce)}}.c.c2s{fill:var(--c4);animation-name:c2s}@keyframes c2t{77.53%{fill:var(--c4)}77.55%,100%{fill:var(--ce)}}.c.c2t{fill:var(--c4);animation-name:c2t}@keyframes c2u{78.45%{fill:var(--c4)}78.47%,100%{fill:var(--ce)}}.c.c2u{fill:var(--c4);animation-name:c2u}@keyframes c2v{66.45%{fill:var(--c4)}66.47%,100%{fill:var(--ce)}}.c.c2v{fill:var(--c4);animation-name:c2v}@keyframes c2w{69.22%{fill:var(--c4)}69.24%,100%{fill:var(--ce)}}.c.c2w{fill:var(--c4);animation-name:c2w}@keyframes c2x{69.53%{fill:var(--c4)}69.55%,100%{fill:var(--ce)}}.c.c2x{fill:var(--c4);animation-name:c2x}@keyframes c2y{73.53%{fill:var(--c4)}73.55%,100%{fill:var(--ce)}}.c.c2y{fill:var(--c4);animation-name:c2y}@keyframes c2z{73.84%{fill:var(--c4)}73.86%,100%{fill:var(--ce)}}.c.c2z{fill:var(--c4);animation-name:c2z}@keyframes c30{77.84%{fill:var(--c4)}77.86%,100%{fill:var(--ce)}}.c.c30{fill:var(--c4);animation-name:c30}@keyframes c31{78.14%{fill:var(--c4)}78.16%,100%{fill:var(--ce)}}.c.c31{fill:var(--c4);animation-name:c31}@keyframes c32{66.14%{fill:var(--c4)}66.16%,100%{fill:var(--ce)}}.c.c32{fill:var(--c4);animation-name:c32}@keyframes c33{65.84%{fill:var(--c4)}65.86%,100%{fill:var(--ce)}}.c.c33{fill:var(--c4);animation-name:c33}@keyframes c34{65.53%{fill:var(--c4)}65.55%,100%{fill:var(--ce)}}.c.c34{fill:var(--c4);animation-name:c34}@keyframes c35{65.22%{fill:var(--c2)}65.24%,100%{fill:var(--ce)}}.c.c35{fill:var(--c2);animation-name:c35}.u{transform-origin:0 0;transform:scale(0,1);animation:none linear 32500ms infinite}@keyframes u0{3.37%{transform:scale(0.000,1)}3.39%,3.68%{transform:scale(0.111,1)}3.7%,5.53%{transform:scale(0.222,1)}5.55%,11.07%{transform:scale(0.333,1)}11.09%,14.45%{transform:scale(0.444,1)}14.47%,15.07%{transform:scale(0.556,1)}15.09%,15.99%{transform:scale(0.667,1)}16.01%,16.3%{transform:scale(0.778,1)}16.32%,18.45%{transform:scale(0.889,1)}18.47%,100%{transform:scale(1.000,1)}}.u.u0{fill:var(--c1);animation-name:u0;transform-origin:0.0px 0}@keyframes u1{19.68%{transform:scale(0.000,1)}19.7%,19.99%{transform:scale(0.018,1)}20.01%,20.3%{transform:scale(0.036,1)}20.32%,20.61%{transform:scale(0.055,1)}20.63%,20.91%{transform:scale(0.073,1)}20.93%,21.22%{transform:scale(0.091,1)}21.24%,21.53%{transform:scale(0.109,1)}21.55%,21.84%{transform:scale(0.127,1)}21.86%,23.07%{transform:scale(0.145,1)}23.09%,23.37%{transform:scale(0.164,1)}23.39%,23.68%{transform:scale(0.182,1)}23.7%,23.99%{transform:scale(0.200,1)}24.01%,24.3%{transform:scale(0.218,1)}24.32%,24.61%{transform:scale(0.236,1)}24.63%,24.91%{transform:scale(0.255,1)}24.93%,25.22%{transform:scale(0.273,1)}25.24%,25.53%{transform:scale(0.291,1)}25.55%,25.84%{transform:scale(0.309,1)}25.86%,26.14%{transform:scale(0.327,1)}26.16%,26.45%{transform:scale(0.345,1)}26.47%,26.76%{transform:scale(0.364,1)}26.78%,27.07%{transform:scale(0.382,1)}27.09%,27.37%{transform:scale(0.400,1)}27.39%,27.68%{transform:scale(0.418,1)}27.7%,27.99%{transform:scale(0.436,1)}28.01%,28.3%{transform:scale(0.455,1)}28.32%,28.61%{transform:scale(0.473,1)}28.63%,30.45%{transform:scale(0.491,1)}30.47%,30.76%{transform:scale(0.509,1)}30.78%,31.07%{transform:scale(0.527,1)}31.09%,31.37%{transform:scale(0.545,1)}31.39%,31.68%{transform:scale(0.564,1)}31.7%,31.99%{transform:scale(0.582,1)}32.01%,32.3%{transform:scale(0.600,1)}32.32%,32.61%{transform:scale(0.618,1)}32.63%,32.91%{transform:scale(0.636,1)}32.93%,33.22%{transform:scale(0.655,1)}33.24%,33.53%{transform:scale(0.673,1)}33.55%,33.84%{transform:scale(0.691,1)}33.86%,34.45%{transform:scale(0.709,1)}34.47%,34.76%{transform:scale(0.727,1)}34.78%,35.07%{transform:scale(0.745,1)}35.09%,36.61%{transform:scale(0.764,1)}36.63%,36.91%{transform:scale(0.782,1)}36.93%,37.22%{transform:scale(0.800,1)}37.24%,37.53%{transform:scale(0.818,1)}37.55%,37.84%{transform:scale(0.836,1)}37.86%,38.14%{transform:scale(0.855,1)}38.16%,38.45%{transform:scale(0.873,1)}38.47%,39.37%{transform:scale(0.891,1)}39.39%,39.68%{transform:scale(0.909,1)}39.7%,40.91%{transform:scale(0.927,1)}40.93%,47.37%{transform:scale(0.945,1)}47.39%,50.14%{transform:scale(0.964,1)}50.16%,65.22%{transform:scale(0.982,1)}65.24%,100%{transform:scale(1.000,1)}}.u.u1{fill:var(--c2);animation-name:u1;transform-origin:66.9px 0}@keyframes u2{65.53%{transform:scale(0.000,1)}65.55%,65.84%{transform:scale(0.020,1)}65.86%,66.14%{transform:scale(0.040,1)}66.16%,66.45%{transform:scale(0.060,1)}66.47%,66.76%{transform:scale(0.080,1)}66.78%,67.07%{transform:scale(0.100,1)}67.09%,67.37%{transform:scale(0.120,1)}67.39%,67.68%{transform:scale(0.140,1)}67.7%,67.99%{transform:scale(0.160,1)}68.01%,68.3%{transform:scale(0.180,1)}68.32%,68.61%{transform:scale(0.200,1)}68.63%,68.91%{transform:scale(0.220,1)}68.93%,69.22%{transform:scale(0.240,1)}69.24%,69.53%{transform:scale(0.260,1)}69.55%,69.84%{transform:scale(0.280,1)}69.86%,70.14%{transform:scale(0.300,1)}70.16%,70.45%{transform:scale(0.320,1)}70.47%,70.76%{transform:scale(0.340,1)}70.78%,71.07%{transform:scale(0.360,1)}71.09%,71.37%{transform:scale(0.380,1)}71.39%,72.3%{transform:scale(0.400,1)}72.32%,72.61%{transform:scale(0.420,1)}72.63%,72.91%{transform:scale(0.440,1)}72.93%,73.22%{transform:scale(0.460,1)}73.24%,73.53%{transform:scale(0.480,1)}73.55%,73.84%{transform:scale(0.500,1)}73.86%,74.14%{transform:scale(0.520,1)}74.16%,74.45%{transform:scale(0.540,1)}74.47%,74.76%{transform:scale(0.560,1)}74.78%,75.07%{transform:scale(0.580,1)}75.09%,75.37%{transform:scale(0.600,1)}75.39%,75.68%{transform:scale(0.620,1)}75.7%,76.61%{transform:scale(0.640,1)}76.63%,76.91%{transform:scale(0.660,1)}76.93%,77.22%{transform:scale(0.680,1)}77.24%,77.53%{transform:scale(0.700,1)}77.55%,77.84%{transform:scale(0.720,1)}77.86%,78.14%{transform:scale(0.740,1)}78.16%,78.45%{transform:scale(0.760,1)}78.47%,78.76%{transform:scale(0.780,1)}78.78%,79.07%{transform:scale(0.800,1)}79.09%,79.37%{transform:scale(0.820,1)}79.39%,79.68%{transform:scale(0.840,1)}79.7%,79.99%{transform:scale(0.860,1)}80.01%,81.53%{transform:scale(0.880,1)}81.55%,83.07%{transform:scale(0.900,1)}83.09%,83.99%{transform:scale(0.920,1)}84.01%,84.3%{transform:scale(0.940,1)}84.32%,86.14%{transform:scale(0.960,1)}86.16%,91.07%{transform:scale(0.980,1)}91.09%,100%{transform:scale(1.000,1)}}.u.u2{fill:var(--c4);animation-name:u2;transform-origin:476.1px 0}.s{shape-rendering:geometricPrecision;fill:var(--cs);animation:none linear 32500ms infinite}@keyframes s0{0%,99.69%{transform:translate(0px,-16px)}0.31%{transform:translate(0px,0px)}3.38%{transform:translate(160px,0px)}3.69%{transform:translate(160px,16px)}4.31%{transform:translate(128px,16px)}5.54%{transform:translate(128px,80px)}10.46%{transform:translate(384px,80px)}11.08%{transform:translate(384px,48px)}14.46%{transform:translate(560px,48px)}14.77%{transform:translate(560px,64px)}15.08%{transform:translate(544px,64px)}15.38%,41.23%{transform:translate(544px,80px)}16%{transform:translate(576px,80px)}16.31%{transform:translate(576px,96px)}16.62%{transform:translate(592px,96px)}18.15%{transform:translate(592px,16px)}18.46%{transform:translate(576px,16px)}18.77%{transform:translate(576px,0px)}21.85%{transform:translate(736px,0px)}22.15%{transform:translate(736px,-16px)}22.46%{transform:translate(720px,-16px)}23.08%{transform:translate(720px,16px)}24.31%{transform:translate(656px,16px)}24.62%{transform:translate(656px,32px)}25.85%{transform:translate(720px,32px)}26.15%{transform:translate(720px,48px)}27.69%{transform:translate(640px,48px)}28%{transform:translate(640px,32px)}28.31%{transform:translate(624px,32px)}28.92%{transform:translate(624px,0px)}29.23%{transform:translate(608px,0px)}29.54%,83.69%{transform:translate(608px,16px)}29.85%{transform:translate(624px,16px)}30.77%,38.77%{transform:translate(624px,64px)}31.38%{transform:translate(656px,64px)}31.69%{transform:translate(656px,80px)}32.92%,35.38%{transform:translate(720px,80px)}33.23%{transform:translate(720px,64px)}33.85%{transform:translate(688px,64px)}34.46%{transform:translate(688px,96px)}35.08%,61.54%{transform:translate(720px,96px)}36.31%{transform:translate(672px,80px)}36.62%{transform:translate(672px,96px)}37.23%{transform:translate(640px,96px)}37.54%{transform:translate(640px,80px)}38.15%{transform:translate(608px,80px)}38.46%{transform:translate(608px,64px)}39.38%{transform:translate(624px,96px)}40.92%{transform:translate(544px,96px)}44.92%{transform:translate(352px,80px)}45.23%{transform:translate(352px,64px)}49.54%{transform:translate(128px,64px)}50.15%{transform:translate(128px,96px)}61.85%{transform:translate(720px,112px)}64%{transform:translate(832px,112px)}66.15%{transform:translate(832px,0px)}67.69%{transform:translate(752px,0px)}68%,71.69%{transform:translate(752px,16px)}69.23%{transform:translate(816px,16px)}69.54%{transform:translate(816px,32px)}71.08%{transform:translate(736px,32px)}71.38%{transform:translate(736px,16px)}72.31%,76%{transform:translate(752px,48px)}73.54%{transform:translate(816px,48px)}73.85%{transform:translate(816px,64px)}75.38%,80.31%{transform:translate(736px,64px)}75.69%{transform:translate(736px,48px)}76.62%{transform:translate(752px,80px)}77.85%{transform:translate(816px,80px)}78.15%{transform:translate(816px,96px)}79.69%{transform:translate(736px,96px)}81.54%{transform:translate(672px,64px)}82.46%{transform:translate(672px,16px)}84.31%{transform:translate(608px,48px)}84.62%{transform:translate(592px,48px)}85.54%{transform:translate(592px,0px)}89.85%{transform:translate(368px,0px)}91.08%{transform:translate(368px,64px)}94.46%{transform:translate(192px,64px)}94.77%{transform:translate(192px,48px)}95.08%{transform:translate(176px,48px)}95.38%{transform:translate(176px,32px)}97.23%{transform:translate(80px,32px)}97.85%{transform:translate(80px,0px)}98.15%{transform:translate(64px,0px)}98.46%{transform:translate(64px,-16px)}}.s.s0{transform:translate(0px,-16px);animation-name:s0}@keyframes s1{0%,99.69%{transform:translate(16px,-16px)}0.31%{transform:translate(0px,-16px)}0.62%{transform:translate(0px,0px)}3.69%{transform:translate(160px,0px)}4%{transform:translate(160px,16px)}4.62%{transform:translate(128px,16px)}5.85%{transform:translate(128px,80px)}10.77%{transform:translate(384px,80px)}11.38%{transform:translate(384px,48px)}14.77%{transform:translate(560px,48px)}15.08%{transform:translate(560px,64px)}15.38%{transform:translate(544px,64px)}15.69%,41.54%{transform:translate(544px,80px)}16.31%{transform:translate(576px,80px)}16.62%{transform:translate(576px,96px)}16.92%{transform:translate(592px,96px)}18.46%{transform:translate(592px,16px)}18.77%{transform:translate(576px,16px)}19.08%{transform:translate(576px,0px)}22.15%{transform:translate(736px,0px)}22.46%{transform:translate(736px,-16px)}22.77%{transform:translate(720px,-16px)}23.38%{transform:translate(720px,16px)}24.62%{transform:translate(656px,16px)}24.92%{transform:translate(656px,32px)}26.15%{transform:translate(720px,32px)}26.46%{transform:translate(720px,48px)}28%{transform:translate(640px,48px)}28.31%{transform:translate(640px,32px)}28.62%{transform:translate(624px,32px)}29.23%{transform:translate(624px,0px)}29.54%{transform:translate(608px,0px)}29.85%,84%{transform:translate(608px,16px)}30.15%{transform:translate(624px,16px)}31.08%,39.08%{transform:translate(624px,64px)}31.69%{transform:translate(656px,64px)}32%{transform:translate(656px,80px)}33.23%,35.69%{transform:translate(720px,80px)}33.54%{transform:translate(720px,64px)}34.15%{transform:translate(688px,64px)}34.77%{transform:translate(688px,96px)}35.38%,61.85%{transform:translate(720px,96px)}36.62%{transform:translate(672px,80px)}36.92%{transform:translate(672px,96px)}37.54%{transform:translate(640px,96px)}37.85%{transform:translate(640px,80px)}38.46%{transform:translate(608px,80px)}38.77%{transform:translate(608px,64px)}39.69%{transform:translate(624px,96px)}41.23%{transform:translate(544px,96px)}45.23%{transform:translate(352px,80px)}45.54%{transform:translate(352px,64px)}49.85%{transform:translate(128px,64px)}50.46%{transform:translate(128px,96px)}62.15%{transform:translate(720px,112px)}64.31%{transform:translate(832px,112px)}66.46%{transform:translate(832px,0px)}68%{transform:translate(752px,0px)}68.31%,72%{transform:translate(752px,16px)}69.54%{transform:translate(816px,16px)}69.85%{transform:translate(816px,32px)}71.38%{transform:translate(736px,32px)}71.69%{transform:translate(736px,16px)}72.62%,76.31%{transform:translate(752px,48px)}73.85%{transform:translate(816px,48px)}74.15%{transform:translate(816px,64px)}75.69%,80.62%{transform:translate(736px,64px)}76%{transform:translate(736px,48px)}76.92%{transform:translate(752px,80px)}78.15%{transform:translate(816px,80px)}78.46%{transform:translate(816px,96px)}80%{transform:translate(736px,96px)}81.85%{transform:translate(672px,64px)}82.77%{transform:translate(672px,16px)}84.62%{transform:translate(608px,48px)}84.92%{transform:translate(592px,48px)}85.85%{transform:translate(592px,0px)}90.15%{transform:translate(368px,0px)}91.38%{transform:translate(368px,64px)}94.77%{transform:translate(192px,64px)}95.08%{transform:translate(192px,48px)}95.38%{transform:translate(176px,48px)}95.69%{transform:translate(176px,32px)}97.54%{transform:translate(80px,32px)}98.15%{transform:translate(80px,0px)}98.46%{transform:translate(64px,0px)}98.77%{transform:translate(64px,-16px)}}.s.s1{transform:translate(16px,-16px);animation-name:s1}@keyframes s2{0%,99.69%{transform:translate(32px,-16px)}0.62%{transform:translate(0px,-16px)}0.92%{transform:translate(0px,0px)}4%{transform:translate(160px,0px)}4.31%{transform:translate(160px,16px)}4.92%{transform:translate(128px,16px)}6.15%{transform:translate(128px,80px)}11.08%{transform:translate(384px,80px)}11.69%{transform:translate(384px,48px)}15.08%{transform:translate(560px,48px)}15.38%{transform:translate(560px,64px)}15.69%{transform:translate(544px,64px)}16%,41.85%{transform:translate(544px,80px)}16.62%{transform:translate(576px,80px)}16.92%{transform:translate(576px,96px)}17.23%{transform:translate(592px,96px)}18.77%{transform:translate(592px,16px)}19.08%{transform:translate(576px,16px)}19.38%{transform:translate(576px,0px)}22.46%{transform:translate(736px,0px)}22.77%{transform:translate(736px,-16px)}23.08%{transform:translate(720px,-16px)}23.69%{transform:translate(720px,16px)}24.92%{transform:translate(656px,16px)}25.23%{transform:translate(656px,32px)}26.46%{transform:translate(720px,32px)}26.77%{transform:translate(720px,48px)}28.31%{transform:translate(640px,48px)}28.62%{transform:translate(640px,32px)}28.92%{transform:translate(624px,32px)}29.54%{transform:translate(624px,0px)}29.85%{transform:translate(608px,0px)}30.15%,84.31%{transform:translate(608px,16px)}30.46%{transform:translate(624px,16px)}31.38%,39.38%{transform:translate(624px,64px)}32%{transform:translate(656px,64px)}32.31%{transform:translate(656px,80px)}33.54%,36%{transform:translate(720px,80px)}33.85%{transform:translate(720px,64px)}34.46%{transform:translate(688px,64px)}35.08%{transform:translate(688px,96px)}35.69%,62.15%{transform:translate(720px,96px)}36.92%{transform:translate(672px,80px)}37.23%{transform:translate(672px,96px)}37.85%{transform:translate(640px,96px)}38.15%{transform:translate(640px,80px)}38.77%{transform:translate(608px,80px)}39.08%{transform:translate(608px,64px)}40%{transform:translate(624px,96px)}41.54%{transform:translate(544px,96px)}45.54%{transform:translate(352px,80px)}45.85%{transform:translate(352px,64px)}50.15%{transform:translate(128px,64px)}50.77%{transform:translate(128px,96px)}62.46%{transform:translate(720px,112px)}64.62%{transform:translate(832px,112px)}66.77%{transform:translate(832px,0px)}68.31%{transform:translate(752px,0px)}68.62%,72.31%{transform:translate(752px,16px)}69.85%{transform:translate(816px,16px)}70.15%{transform:translate(816px,32px)}71.69%{transform:translate(736px,32px)}72%{transform:translate(736px,16px)}72.92%,76.62%{transform:translate(752px,48px)}74.15%{transform:translate(816px,48px)}74.46%{transform:translate(816px,64px)}76%,80.92%{transform:translate(736px,64px)}76.31%{transform:translate(736px,48px)}77.23%{transform:translate(752px,80px)}78.46%{transform:translate(816px,80px)}78.77%{transform:translate(816px,96px)}80.31%{transform:translate(736px,96px)}82.15%{transform:translate(672px,64px)}83.08%{transform:translate(672px,16px)}84.92%{transform:translate(608px,48px)}85.23%{transform:translate(592px,48px)}86.15%{transform:translate(592px,0px)}90.46%{transform:translate(368px,0px)}91.69%{transform:translate(368px,64px)}95.08%{transform:translate(192px,64px)}95.38%{transform:translate(192px,48px)}95.69%{transform:translate(176px,48px)}96%{transform:translate(176px,32px)}97.85%{transform:translate(80px,32px)}98.46%{transform:translate(80px,0px)}98.77%{transform:translate(64px,0px)}99.08%{transform:translate(64px,-16px)}}.s.s2{transform:translate(32px,-16px);animation-name:s2}@keyframes s3{0%,99.69%{transform:translate(48px,-16px)}0.92%{transform:translate(0px,-16px)}1.23%{transform:translate(0px,0px)}4.31%{transform:translate(160px,0px)}4.62%{transform:translate(160px,16px)}5.23%{transform:translate(128px,16px)}6.46%{transform:translate(128px,80px)}11.38%{transform:translate(384px,80px)}12%{transform:translate(384px,48px)}15.38%{transform:translate(560px,48px)}15.69%{transform:translate(560px,64px)}16%{transform:translate(544px,64px)}16.31%,42.15%{transform:translate(544px,80px)}16.92%{transform:translate(576px,80px)}17.23%{transform:translate(576px,96px)}17.54%{transform:translate(592px,96px)}19.08%{transform:translate(592px,16px)}19.38%{transform:translate(576px,16px)}19.69%{transform:translate(576px,0px)}22.77%{transform:translate(736px,0px)}23.08%{transform:translate(736px,-16px)}23.38%{transform:translate(720px,-16px)}24%{transform:translate(720px,16px)}25.23%{transform:translate(656px,16px)}25.54%{transform:translate(656px,32px)}26.77%{transform:translate(720px,32px)}27.08%{transform:translate(720px,48px)}28.62%{transform:translate(640px,48px)}28.92%{transform:translate(640px,32px)}29.23%{transform:translate(624px,32px)}29.85%{transform:translate(624px,0px)}30.15%{transform:translate(608px,0px)}30.46%,84.62%{transform:translate(608px,16px)}30.77%{transform:translate(624px,16px)}31.69%,39.69%{transform:translate(624px,64px)}32.31%{transform:translate(656px,64px)}32.62%{transform:translate(656px,80px)}33.85%,36.31%{transform:translate(720px,80px)}34.15%{transform:translate(720px,64px)}34.77%{transform:translate(688px,64px)}35.38%{transform:translate(688px,96px)}36%,62.46%{transform:translate(720px,96px)}37.23%{transform:translate(672px,80px)}37.54%{transform:translate(672px,96px)}38.15%{transform:translate(640px,96px)}38.46%{transform:translate(640px,80px)}39.08%{transform:translate(608px,80px)}39.38%{transform:translate(608px,64px)}40.31%{transform:translate(624px,96px)}41.85%{transform:translate(544px,96px)}45.85%{transform:translate(352px,80px)}46.15%{transform:translate(352px,64px)}50.46%{transform:translate(128px,64px)}51.08%{transform:translate(128px,96px)}62.77%{transform:translate(720px,112px)}64.92%{transform:translate(832px,112px)}67.08%{transform:translate(832px,0px)}68.62%{transform:translate(752px,0px)}68.92%,72.62%{transform:translate(752px,16px)}70.15%{transform:translate(816px,16px)}70.46%{transform:translate(816px,32px)}72%{transform:translate(736px,32px)}72.31%{transform:translate(736px,16px)}73.23%,76.92%{transform:translate(752px,48px)}74.46%{transform:translate(816px,48px)}74.77%{transform:translate(816px,64px)}76.31%,81.23%{transform:translate(736px,64px)}76.62%{transform:translate(736px,48px)}77.54%{transform:translate(752px,80px)}78.77%{transform:translate(816px,80px)}79.08%{transform:translate(816px,96px)}80.62%{transform:translate(736px,96px)}82.46%{transform:translate(672px,64px)}83.38%{transform:translate(672px,16px)}85.23%{transform:translate(608px,48px)}85.54%{transform:translate(592px,48px)}86.46%{transform:translate(592px,0px)}90.77%{transform:translate(368px,0px)}92%{transform:translate(368px,64px)}95.38%{transform:translate(192px,64px)}95.69%{transform:translate(192px,48px)}96%{transform:translate(176px,48px)}96.31%{transform:translate(176px,32px)}98.15%{transform:translate(80px,32px)}98.77%{transform:translate(80px,0px)}99.08%{transform:translate(64px,0px)}99.38%{transform:translate(64px,-16px)}}.s.s3{transform:translate(48px,-16px);animation-name:s3}</style><rect class="c" x="2" y="2" rx="2" ry="2"/><rect class="c" x="2" y="18" rx="2" ry="2"/><rect class="c" x="2" y="34" rx="2" ry="2"/><rect class="c" x="2" y="50" rx="2" ry="2"/><rect class="c" x="2" y="66" rx="2" ry="2"/><rect class="c" x="2" y="82" rx="2" ry="2"/><rect class="c" x="2" y="98" rx="2" ry="2"/><rect class="c" x="18" y="2" rx="2" ry="2"/><rect class="c" x="18" y="18" rx="2" ry="2"/><rect class="c" x="18" y="34" rx="2" ry="2"/><rect class="c" x="18" y="50" rx="2" ry="2"/><rect class="c" x="18" y="66" rx="2" ry="2"/><rect class="c" x="18" y="82" rx="2" ry="2"/><rect class="c" x="18" y="98" rx="2" ry="2"/><rect class="c" x="34" y="2" rx="2" ry="2"/><rect class="c" x="34" y="18" rx="2" ry="2"/><rect class="c" x="34" y="34" rx="2" ry="2"/><rect class="c" x="34" y="50" rx="2" ry="2"/><rect class="c" x="34" y="66" rx="2" ry="2"/><rect class="c" x="34" y="82" rx="2" ry="2"/><rect class="c" x="34" y="98" rx="2" ry="2"/><rect class="c" x="50" y="2" rx="2" ry="2"/><rect class="c" x="50" y="18" rx="2" ry="2"/><rect class="c" x="50" y="34" rx="2" ry="2"/><rect class="c" x="50" y="50" rx="2" ry="2"/><rect class="c" x="50" y="66" rx="2" ry="2"/><rect class="c" x="50" y="82" rx="2" ry="2"/><rect class="c" x="50" y="98" rx="2" ry="2"/><rect class="c" x="66" y="2" rx="2" ry="2"/><rect class="c" x="66" y="18" rx="2" ry="2"/><rect class="c" x="66" y="34" rx="2" ry="2"/><rect class="c" x="66" y="50" rx="2" ry="2"/><rect class="c" x="66" y="66" rx="2" ry="2"/><rect class="c" x="66" y="82" rx="2" ry="2"/><rect class="c" x="66" y="98" rx="2" ry="2"/><rect class="c" x="82" y="2" rx="2" ry="2"/><rect class="c" x="82" y="18" rx="2" ry="2"/><rect class="c" x="82" y="34" rx="2" ry="2"/><rect class="c" x="82" y="50" rx="2" ry="2"/><rect class="c" x="82" y="66" rx="2" ry="2"/><rect class="c" x="82" y="82" rx="2" ry="2"/><rect class="c" x="82" y="98" rx="2" ry="2"/><rect class="c" x="98" y="2" rx="2" ry="2"/><rect class="c" x="98" y="18" rx="2" ry="2"/><rect class="c" x="98" y="34" rx="2" ry="2"/><rect class="c" x="98" y="50" rx="2" ry="2"/><rect class="c" x="98" y="66" rx="2" ry="2"/><rect class="c" x="98" y="82" rx="2" ry="2"/><rect class="c" x="98" y="98" rx="2" ry="2"/><rect class="c" x="114" y="2" rx="2" ry="2"/><rect class="c" x="114" y="18" rx="2" ry="2"/><rect class="c" x="114" y="34" rx="2" ry="2"/><rect class="c" x="114" y="50" rx="2" ry="2"/><rect class="c" x="114" y="66" rx="2" ry="2"/><rect class="c" x="114" y="82" rx="2" ry="2"/><rect class="c" x="114" y="98" rx="2" ry="2"/><rect class="c" x="130" y="2" rx="2" ry="2"/><rect class="c" x="130" y="18" rx="2" ry="2"/><rect class="c" x="130" y="34" rx="2" ry="2"/><rect class="c" x="130" y="50" rx="2" ry="2"/><rect class="c" x="130" y="66" rx="2" ry="2"/><rect class="c c0" x="130" y="82" rx="2" ry="2"/><rect class="c c1" x="130" y="98" rx="2" ry="2"/><rect class="c" x="146" y="2" rx="2" ry="2"/><rect class="c" x="146" y="18" rx="2" ry="2"/><rect class="c" x="146" y="34" rx="2" ry="2"/><rect class="c" x="146" y="50" rx="2" ry="2"/><rect class="c" x="146" y="66" rx="2" ry="2"/><rect class="c" x="146" y="82" rx="2" ry="2"/><rect class="c" x="146" y="98" rx="2" ry="2"/><rect class="c c2" x="162" y="2" rx="2" ry="2"/><rect class="c c3" x="162" y="18" rx="2" ry="2"/><rect class="c" x="162" y="34" rx="2" ry="2"/><rect class="c" x="162" y="50" rx="2" ry="2"/><rect class="c" x="162" y="66" rx="2" ry="2"/><rect class="c" x="162" y="82" rx="2" ry="2"/><rect class="c" x="162" y="98" rx="2" ry="2"/><rect class="c" x="178" y="2" rx="2" ry="2"/><rect class="c" x="178" y="18" rx="2" ry="2"/><rect class="c" x="178" y="34" rx="2" ry="2"/><rect class="c" x="178" y="50" rx="2" ry="2"/><rect class="c" x="178" y="66" rx="2" ry="2"/><rect class="c" x="178" y="82" rx="2" ry="2"/><rect class="c" x="178" y="98" rx="2" ry="2"/><rect class="c" x="194" y="2" rx="2" ry="2"/><rect class="c" x="194" y="18" rx="2" ry="2"/><rect class="c" x="194" y="34" rx="2" ry="2"/><rect class="c" x="194" y="50" rx="2" ry="2"/><rect class="c" x="194" y="66" rx="2" ry="2"/><rect class="c" x="194" y="82" rx="2" ry="2"/><rect class="c" x="194" y="98" rx="2" ry="2"/><rect class="c" x="210" y="2" rx="2" ry="2"/><rect class="c" x="210" y="18" rx="2" ry="2"/><rect class="c" x="210" y="34" rx="2" ry="2"/><rect class="c" x="210" y="50" rx="2" ry="2"/><rect class="c" x="210" y="66" rx="2" ry="2"/><rect class="c" x="210" y="82" rx="2" ry="2"/><rect class="c" x="210" y="98" rx="2" ry="2"/><rect class="c" x="226" y="2" rx="2" ry="2"/><rect class="c" x="226" y="18" rx="2" ry="2"/><rect class="c" x="226" y="34" rx="2" ry="2"/><rect class="c" x="226" y="50" rx="2" ry="2"/><rect class="c" x="226" y="66" rx="2" ry="2"/><rect class="c" x="226" y="82" rx="2" ry="2"/><rect class="c" x="226" y="98" rx="2" ry="2"/><rect class="c" x="242" y="2" rx="2" ry="2"/><rect class="c" x="242" y="18" rx="2" ry="2"/><rect class="c" x="242" y="34" rx="2" ry="2"/><rect class="c" x="242" y="50" rx="2" ry="2"/><rect class="c c4" x="242" y="66" rx="2" ry="2"/><rect class="c" x="242" y="82" rx="2" ry="2"/><rect class="c" x="242" y="98" rx="2" ry="2"/><rect class="c" x="258" y="2" rx="2" ry="2"/><rect class="c" x="258" y="18" rx="2" ry="2"/><rect class="c" x="258" y="34" rx="2" ry="2"/><rect class="c" x="258" y="50" rx="2" ry="2"/><rect class="c" x="258" y="66" rx="2" ry="2"/><rect class="c" x="258" y="82" rx="2" ry="2"/><rect class="c" x="258" y="98" rx="2" ry="2"/><rect class="c" x="274" y="2" rx="2" ry="2"/><rect class="c" x="274" y="18" rx="2" ry="2"/><rect class="c" x="274" y="34" rx="2" ry="2"/><rect class="c" x="274" y="50" rx="2" ry="2"/><rect class="c" x="274" y="66" rx="2" ry="2"/><rect class="c" x="274" y="82" rx="2" ry="2"/><rect class="c" x="274" y="98" rx="2" ry="2"/><rect class="c" x="290" y="2" rx="2" ry="2"/><rect class="c" x="290" y="18" rx="2" ry="2"/><rect class="c" x="290" y="34" rx="2" ry="2"/><rect class="c" x="290" y="50" rx="2" ry="2"/><rect class="c" x="290" y="66" rx="2" ry="2"/><rect class="c" x="290" y="82" rx="2" ry="2"/><rect class="c" x="290" y="98" rx="2" ry="2"/><rect class="c" x="306" y="2" rx="2" ry="2"/><rect class="c" x="306" y="18" rx="2" ry="2"/><rect class="c" x="306" y="34" rx="2" ry="2"/><rect class="c" x="306" y="50" rx="2" ry="2"/><rect class="c" x="306" y="66" rx="2" ry="2"/><rect class="c" x="306" y="82" rx="2" ry="2"/><rect class="c" x="306" y="98" rx="2" ry="2"/><rect class="c" x="322" y="2" rx="2" ry="2"/><rect class="c" x="322" y="18" rx="2" ry="2"/><rect class="c" x="322" y="34" rx="2" ry="2"/><rect class="c" x="322" y="50" rx="2" ry="2"/><rect class="c" x="322" y="66" rx="2" ry="2"/><rect class="c" x="322" y="82" rx="2" ry="2"/><rect class="c" x="322" y="98" rx="2" ry="2"/><rect class="c" x="338" y="2" rx="2" ry="2"/><rect class="c" x="338" y="18" rx="2" ry="2"/><rect class="c" x="338" y="34" rx="2" ry="2"/><rect class="c" x="338" y="50" rx="2" ry="2"/><rect class="c" x="338" y="66" rx="2" ry="2"/><rect class="c" x="338" y="82" rx="2" ry="2"/><rect class="c" x="338" y="98" rx="2" ry="2"/><rect class="c" x="354" y="2" rx="2" ry="2"/><rect class="c" x="354" y="18" rx="2" ry="2"/><rect class="c" x="354" y="34" rx="2" ry="2"/><rect class="c" x="354" y="50" rx="2" ry="2"/><rect class="c" x="354" y="66" rx="2" ry="2"/><rect class="c" x="354" y="82" rx="2" ry="2"/><rect class="c" x="354" y="98" rx="2" ry="2"/><rect class="c" x="370" y="2" rx="2" ry="2"/><rect class="c" x="370" y="18" rx="2" ry="2"/><rect class="c" x="370" y="34" rx="2" ry="2"/><rect class="c" x="370" y="50" rx="2" ry="2"/><rect class="c c5" x="370" y="66" rx="2" ry="2"/><rect class="c" x="370" y="82" rx="2" ry="2"/><rect class="c" x="370" y="98" rx="2" ry="2"/><rect class="c" x="386" y="2" rx="2" ry="2"/><rect class="c" x="386" y="18" rx="2" ry="2"/><rect class="c" x="386" y="34" rx="2" ry="2"/><rect class="c c6" x="386" y="50" rx="2" ry="2"/><rect class="c" x="386" y="66" rx="2" ry="2"/><rect class="c" x="386" y="82" rx="2" ry="2"/><rect class="c" x="386" y="98" rx="2" ry="2"/><rect class="c" x="402" y="2" rx="2" ry="2"/><rect class="c" x="402" y="18" rx="2" ry="2"/><rect class="c" x="402" y="34" rx="2" ry="2"/><rect class="c" x="402" y="50" rx="2" ry="2"/><rect class="c" x="402" y="66" rx="2" ry="2"/><rect class="c" x="402" y="82" rx="2" ry="2"/><rect class="c" x="402" y="98" rx="2" ry="2"/><rect class="c" x="418" y="2" rx="2" ry="2"/><rect class="c" x="418" y="18" rx="2" ry="2"/><rect class="c" x="418" y="34" rx="2" ry="2"/><rect class="c" x="418" y="50" rx="2" ry="2"/><rect class="c" x="418" y="66" rx="2" ry="2"/><rect class="c" x="418" y="82" rx="2" ry="2"/><rect class="c" x="418" y="98" rx="2" ry="2"/><rect class="c" x="434" y="2" rx="2" ry="2"/><rect class="c" x="434" y="18" rx="2" ry="2"/><rect class="c" x="434" y="34" rx="2" ry="2"/><rect class="c" x="434" y="50" rx="2" ry="2"/><rect class="c" x="434" y="66" rx="2" ry="2"/><rect class="c" x="434" y="82" rx="2" ry="2"/><rect class="c" x="434" y="98" rx="2" ry="2"/><rect class="c" x="450" y="2" rx="2" ry="2"/><rect class="c" x="450" y="18" rx="2" ry="2"/><rect class="c" x="450" y="34" rx="2" ry="2"/><rect class="c" x="450" y="50" rx="2" ry="2"/><rect class="c" x="450" y="66" rx="2" ry="2"/><rect class="c" x="450" y="82" rx="2" ry="2"/><rect class="c" x="450" y="98" rx="2" ry="2"/><rect class="c" x="466" y="2" rx="2" ry="2"/><rect class="c" x="466" y="18" rx="2" ry="2"/><rect class="c" x="466" y="34" rx="2" ry="2"/><rect class="c" x="466" y="50" rx="2" ry="2"/><rect class="c" x="466" y="66" rx="2" ry="2"/><rect class="c" x="466" y="82" rx="2" ry="2"/><rect class="c" x="466" y="98" rx="2" ry="2"/><rect class="c" x="482" y="2" rx="2" ry="2"/><rect class="c" x="482" y="18" rx="2" ry="2"/><rect class="c" x="482" y="34" rx="2" ry="2"/><rect class="c" x="482" y="50" rx="2" ry="2"/><rect class="c" x="482" y="66" rx="2" ry="2"/><rect class="c" x="482" y="82" rx="2" ry="2"/><rect class="c" x="482" y="98" rx="2" ry="2"/><rect class="c" x="498" y="2" rx="2" ry="2"/><rect class="c" x="498" y="18" rx="2" ry="2"/><rect class="c" x="498" y="34" rx="2" ry="2"/><rect class="c" x="498" y="50" rx="2" ry="2"/><rect class="c" x="498" y="66" rx="2" ry="2"/><rect class="c" x="498" y="82" rx="2" ry="2"/><rect class="c" x="498" y="98" rx="2" ry="2"/><rect class="c" x="514" y="2" rx="2" ry="2"/><rect class="c" x="514" y="18" rx="2" ry="2"/><rect class="c" x="514" y="34" rx="2" ry="2"/><rect class="c" x="514" y="50" rx="2" ry="2"/><rect class="c" x="514" y="66" rx="2" ry="2"/><rect class="c" x="514" y="82" rx="2" ry="2"/><rect class="c" x="514" y="98" rx="2" ry="2"/><rect class="c" x="530" y="2" rx="2" ry="2"/><rect class="c" x="530" y="18" rx="2" ry="2"/><rect class="c" x="530" y="34" rx="2" ry="2"/><rect class="c" x="530" y="50" rx="2" ry="2"/><rect class="c" x="530" y="66" rx="2" ry="2"/><rect class="c" x="530" y="82" rx="2" ry="2"/><rect class="c" x="530" y="98" rx="2" ry="2"/><rect class="c" x="546" y="2" rx="2" ry="2"/><rect class="c" x="546" y="18" rx="2" ry="2"/><rect class="c" x="546" y="34" rx="2" ry="2"/><rect class="c" x="546" y="50" rx="2" ry="2"/><rect class="c c7" x="546" y="66" rx="2" ry="2"/><rect class="c" x="546" y="82" rx="2" ry="2"/><rect class="c c8" x="546" y="98" rx="2" ry="2"/><rect class="c c9" x="562" y="2" rx="2" ry="2"/><rect class="c" x="562" y="18" rx="2" ry="2"/><rect class="c" x="562" y="34" rx="2" ry="2"/><rect class="c ca" x="562" y="50" rx="2" ry="2"/><rect class="c" x="562" y="66" rx="2" ry="2"/><rect class="c" x="562" y="82" rx="2" ry="2"/><rect class="c" x="562" y="98" rx="2" ry="2"/><rect class="c" x="578" y="2" rx="2" ry="2"/><rect class="c cb" x="578" y="18" rx="2" ry="2"/><rect class="c" x="578" y="34" rx="2" ry="2"/><rect class="c" x="578" y="50" rx="2" ry="2"/><rect class="c" x="578" y="66" rx="2" ry="2"/><rect class="c cc" x="578" y="82" rx="2" ry="2"/><rect class="c cd" x="578" y="98" rx="2" ry="2"/><rect class="c" x="594" y="2" rx="2" ry="2"/><rect class="c" x="594" y="18" rx="2" ry="2"/><rect class="c" x="594" y="34" rx="2" ry="2"/><rect class="c" x="594" y="50" rx="2" ry="2"/><rect class="c" x="594" y="66" rx="2" ry="2"/><rect class="c" x="594" y="82" rx="2" ry="2"/><rect class="c" x="594" y="98" rx="2" ry="2"/><rect class="c" x="610" y="2" rx="2" ry="2"/><rect class="c" x="610" y="18" rx="2" ry="2"/><rect class="c ce" x="610" y="34" rx="2" ry="2"/><rect class="c cf" x="610" y="50" rx="2" ry="2"/><rect class="c cg" x="610" y="66" rx="2" ry="2"/><rect class="c ch" x="610" y="82" rx="2" ry="2"/><rect class="c ci" x="610" y="98" rx="2" ry="2"/><rect class="c cj" x="626" y="2" rx="2" ry="2"/><rect class="c ck" x="626" y="18" rx="2" ry="2"/><rect class="c cl" x="626" y="34" rx="2" ry="2"/><rect class="c cm" x="626" y="50" rx="2" ry="2"/><rect class="c cn" x="626" y="66" rx="2" ry="2"/><rect class="c co" x="626" y="82" rx="2" ry="2"/><rect class="c cp" x="626" y="98" rx="2" ry="2"/><rect class="c cq" x="642" y="2" rx="2" ry="2"/><rect class="c cr" x="642" y="18" rx="2" ry="2"/><rect class="c cs" x="642" y="34" rx="2" ry="2"/><rect class="c ct" x="642" y="50" rx="2" ry="2"/><rect class="c cu" x="642" y="66" rx="2" ry="2"/><rect class="c cv" x="642" y="82" rx="2" ry="2"/><rect class="c cw" x="642" y="98" rx="2" ry="2"/><rect class="c cx" x="658" y="2" rx="2" ry="2"/><rect class="c cy" x="658" y="18" rx="2" ry="2"/><rect class="c cz" x="658" y="34" rx="2" ry="2"/><rect class="c c10" x="658" y="50" rx="2" ry="2"/><rect class="c c11" x="658" y="66" rx="2" ry="2"/><rect class="c c12" x="658" y="82" rx="2" ry="2"/><rect class="c c13" x="658" y="98" rx="2" ry="2"/><rect class="c c14" x="674" y="2" rx="2" ry="2"/><rect class="c c15" x="674" y="18" rx="2" ry="2"/><rect class="c c16" x="674" y="34" rx="2" ry="2"/><rect class="c c17" x="674" y="50" rx="2" ry="2"/><rect class="c c18" x="674" y="66" rx="2" ry="2"/><rect class="c c19" x="674" y="82" rx="2" ry="2"/><rect class="c c1a" x="674" y="98" rx="2" ry="2"/><rect class="c c1b" x="690" y="2" rx="2" ry="2"/><rect class="c c1c" x="690" y="18" rx="2" ry="2"/><rect class="c c1d" x="690" y="34" rx="2" ry="2"/><rect class="c c1e" x="690" y="50" rx="2" ry="2"/><rect class="c c1f" x="690" y="66" rx="2" ry="2"/><rect class="c c1g" x="690" y="82" rx="2" ry="2"/><rect class="c c1h" x="690" y="98" rx="2" ry="2"/><rect class="c c1i" x="706" y="2" rx="2" ry="2"/><rect class="c c1j" x="706" y="18" rx="2" ry="2"/><rect class="c c1k" x="706" y="34" rx="2" ry="2"/><rect class="c c1l" x="706" y="50" rx="2" ry="2"/><rect class="c c1m" x="706" y="66" rx="2" ry="2"/><rect class="c c1n" x="706" y="82" rx="2" ry="2"/><rect class="c c1o" x="706" y="98" rx="2" ry="2"/><rect class="c c1p" x="722" y="2" rx="2" ry="2"/><rect class="c c1q" x="722" y="18" rx="2" ry="2"/><rect class="c c1r" x="722" y="34" rx="2" ry="2"/><rect class="c c1s" x="722" y="50" rx="2" ry="2"/><rect class="c c1t" x="722" y="66" rx="2" ry="2"/><rect class="c c1u" x="722" y="82" rx="2" ry="2"/><rect class="c c1v" x="722" y="98" rx="2" ry="2"/><rect class="c c1w" x="738" y="2" rx="2" ry="2"/><rect class="c c1x" x="738" y="18" rx="2" ry="2"/><rect class="c c1y" x="738" y="34" rx="2" ry="2"/><rect class="c c1z" x="738" y="50" rx="2" ry="2"/><rect class="c c20" x="738" y="66" rx="2" ry="2"/><rect class="c c21" x="738" y="82" rx="2" ry="2"/><rect class="c c22" x="738" y="98" rx="2" ry="2"/><rect class="c c23" x="754" y="2" rx="2" ry="2"/><rect class="c c24" x="754" y="18" rx="2" ry="2"/><rect class="c c25" x="754" y="34" rx="2" ry="2"/><rect class="c c26" x="754" y="50" rx="2" ry="2"/><rect class="c c27" x="754" y="66" rx="2" ry="2"/><rect class="c c28" x="754" y="82" rx="2" ry="2"/><rect class="c c29" x="754" y="98" rx="2" ry="2"/><rect class="c c2a" x="770" y="2" rx="2" ry="2"/><rect class="c c2b" x="770" y="18" rx="2" ry="2"/><rect class="c c2c" x="770" y="34" rx="2" ry="2"/><rect class="c c2d" x="770" y="50" rx="2" ry="2"/><rect class="c c2e" x="770" y="66" rx="2" ry="2"/><rect class="c c2f" x="770" y="82" rx="2" ry="2"/><rect class="c c2g" x="770" y="98" rx="2" ry="2"/><rect class="c c2h" x="786" y="2" rx="2" ry="2"/><rect class="c c2i" x="786" y="18" rx="2" ry="2"/><rect class="c c2j" x="786" y="34" rx="2" ry="2"/><rect class="c c2k" x="786" y="50" rx="2" ry="2"/><rect class="c c2l" x="786" y="66" rx="2" ry="2"/><rect class="c c2m" x="786" y="82" rx="2" ry="2"/><rect class="c c2n" x="786" y="98" rx="2" ry="2"/><rect class="c c2o" x="802" y="2" rx="2" ry="2"/><rect class="c c2p" x="802" y="18" rx="2" ry="2"/><rect class="c c2q" x="802" y="34" rx="2" ry="2"/><rect class="c c2r" x="802" y="50" rx="2" ry="2"/><rect class="c c2s" x="802" y="66" rx="2" ry="2"/><rect class="c c2t" x="802" y="82" rx="2" ry="2"/><rect class="c c2u" x="802" y="98" rx="2" ry="2"/><rect class="c c2v" x="818" y="2" rx="2" ry="2"/><rect class="c c2w" x="818" y="18" rx="2" ry="2"/><rect class="c c2x" x="818" y="34" rx="2" ry="2"/><rect class="c c2y" x="818" y="50" rx="2" ry="2"/><rect class="c c2z" x="818" y="66" rx="2" ry="2"/><rect class="c c30" x="818" y="82" rx="2" ry="2"/><rect class="c c31" x="818" y="98" rx="2" ry="2"/><rect class="c c32" x="834" y="2" rx="2" ry="2"/><rect class="c c33" x="834" y="18" rx="2" ry="2"/><rect class="c c34" x="834" y="34" rx="2" ry="2"/><rect class="c c35" x="834" y="50" rx="2" ry="2"/><rect class="u u0" height="12" width="67.5" x="0.0" y="144"/><rect class="u u1" height="12" width="409.7" x="66.9" y="144"/><rect class="u u2" height="12" width="372.5" x="476.1" y="144"/><rect class="s s0" x="0.8" y="0.8" width="14.4" height="14.4" rx="4.5" ry="4.5"/><rect class="s s1" x="1.8" y="1.8" width="12.3" height="12.3" rx="4.1" ry="4.1"/><rect class="s s2" x="2.6" y="2.6" width="10.8" height="10.8" rx="3.6" ry="3.6"/><rect class="s s3" x="3.0" y="3.0" width="9.9" height="9.9" rx="3.3" ry="3.3"/></svg>