<svg viewBox="-16 -32 880 192" width="880" height="192" xmlns="http://www.w3.org/2000/svg"><desc>Generated with https://github.com/Platane/snk</desc><style>:root{--cb:#1b1f230a;--cs:purple;--ce:#ebedf0;--c0:#ebedf0;--c1:#9be9a8;--c2:#40c463;--c3:#30a14e;--c4:#216e39}.c{shape-rendering:geometricPrecision;fill:var(--ce);stroke-width:1px;stroke:var(--cb);animation:none 32500ms linear infinite;width:12px;height:12px}@keyframes c0{5.84%{fill:var(--c1)}5.86%,100%{fill:var(--ce)}}.c.c0{fill:var(--c1);animation-name:c0}@keyframes c1{57.22%{fill:var(--c2)}57.24%,100%{fill:var(--ce)}}.c.c1{fill:var(--c2);animation-name:c1}@keyframes c2{3.68%{fill:var(--c1)}3.7%,100%{fill:var(--ce)}}.c.c2{fill:var(--c1);animation-name:c2}@keyframes c3{3.99%{fill:var(--c1)}4.01%,100%{fill:var(--ce)}}.c.c3{fill:var(--c1);animation-name:c3}@keyframes c4{54.45%{fill:var(--c2)}54.47%,100%{fill:var(--ce)}}.c.c4{fill:var(--c2);animation-name:c4}@keyframes c5{62.45%{fill:var(--c4)}62.47%,100%{fill:var(--ce)}}.c.c5{fill:var(--c4);animation-name:c5}@keyframes c6{11.37%{fill:var(--c1)}11.39%,100%{fill:var(--ce)}}.c.c6{fill:var(--c1);animation-name:c6}@keyframes c7{15.37%{fill:var(--c1)}15.39%,100%{fill:var(--ce)}}.c.c7{fill:var(--c1);animation-name:c7}@keyframes c8{47.99%{fill:var(--c2)}48.01%,100%{fill:var(--ce)}}.c.c8{fill:var(--c2);animation-name:c8}@keyframes c9{88.3%{fill:var(--c4)}88.32%,100%{fill:var(--ce)}}.c.c9{fill:var(--c4);animation-name:c9}@keyframes ca{14.76%{fill:var(--c1)}14.78%,100%{fill:var(--ce)}}.c.ca{fill:var(--c1);animation-name:ca}@keyframes cb{18.76%{fill:var(--c1)}18.78%,100%{fill:var(--ce)}}.c.cb{fill:var(--c1);animation-name:cb}@keyframes cc{16.3%{fill:var(--c1)}16.32%,100%{fill:var(--ce)}}.c.cc{fill:var(--c1);animation-name:cc}@keyframes cd{16.61%{fill:var(--c1)}16.63%,100%{fill:var(--ce)}}.c.cd{fill:var(--c1);animation-name:cd}@keyframes ce{67.68%{fill:var(--c4)}67.7%,100%{fill:var(--ce)}}.c.ce{fill:var(--c4);animation-name:ce}@keyframes cf{67.37%{fill:var(--c4)}67.39%,100%{fill:var(--ce)}}.c.cf{fill:var(--c4);animation-name:cf}@keyframes cg{43.68%{fill:var(--c2)}43.7%,100%{fill:var(--ce)}}.c.cg{fill:var(--c2);animation-name:cg}@keyframes ch{43.99%{fill:var(--c2)}44.01%,100%{fill:var(--ce)}}.c.ch{fill:var(--c2);animation-name:ch}@keyframes ci{46.76%{fill:var(--c2)}46.78%,100%{fill:var(--ce)}}.c.ci{fill:var(--c2);animation-name:ci}@keyframes cj{34.14%{fill:var(--c2)}34.16%,100%{fill:var(--ce)}}.c.cj{fill:var(--c2);animation-name:cj}@keyframes ck{34.45%{fill:var(--c2)}34.47%,100%{fill:var(--ce)}}.c.ck{fill:var(--c2);animation-name:ck}@keyframes cl{34.76%{fill:var(--c2)}34.78%,100%{fill:var(--ce)}}.c.cl{fill:var(--c2);animation-name:cl}@keyframes cm{43.07%{fill:var(--c2)}43.09%,100%{fill:var(--ce)}}.c.cm{fill:var(--c2);animation-name:cm}@keyframes cn{43.37%{fill:var(--c2)}43.39%,100%{fill:var(--ce)}}.c.cn{fill:var(--c2);animation-name:cn}@keyframes co{44.3%{fill:var(--c2)}44.32%,100%{fill:var(--ce)}}.c.co{fill:var(--c2);animation-name:co}@keyframes cp{46.45%{fill:var(--c2)}46.47%,100%{fill:var(--ce)}}.c.cp{fill:var(--c2);animation-name:cp}@keyframes cq{33.84%{fill:var(--c2)}33.86%,100%{fill:var(--ce)}}.c.cq{fill:var(--c2);animation-name:cq}@keyframes cr{68.61%{fill:var(--c4)}68.63%,100%{fill:var(--ce)}}.c.cr{fill:var(--c4);animation-name:cr}@keyframes cs{35.07%{fill:var(--c2)}35.09%,100%{fill:var(--ce)}}.c.cs{fill:var(--c2);animation-name:cs}@keyframes ct{42.76%{fill:var(--c2)}42.78%,100%{fill:var(--ce)}}.c.ct{fill:var(--c2);animation-name:ct}@keyframes cu{42.45%{fill:var(--c2)}42.47%,100%{fill:var(--ce)}}.c.cu{fill:var(--c2);animation-name:cu}@keyframes cv{44.61%{fill:var(--c2)}44.63%,100%{fill:var(--ce)}}.c.cv{fill:var(--c2);animation-name:cv}@keyframes cw{44.91%{fill:var(--c2)}44.93%,100%{fill:var(--ce)}}.c.cw{fill:var(--c2);animation-name:cw}@keyframes cx{33.53%{fill:var(--c2)}33.55%,100%{fill:var(--ce)}}.c.cx{fill:var(--c2);animation-name:cx}@keyframes cy{37.53%{fill:var(--c2)}37.55%,100%{fill:var(--ce)}}.c.cy{fill:var(--c2);animation-name:cy}@keyframes cz{35.37%{fill:var(--c2)}35.39%,100%{fill:var(--ce)}}.c.cz{fill:var(--c2);animation-name:cz}@keyframes c10{38.14%{fill:var(--c2)}38.16%,100%{fill:var(--ce)}}.c.c10{fill:var(--c2);animation-name:c10}@keyframes c11{42.14%{fill:var(--c2)}42.16%,100%{fill:var(--ce)}}.c.c11{fill:var(--c2);animation-name:c11}@keyframes c12{41.84%{fill:var(--c2)}41.86%,100%{fill:var(--ce)}}.c.c12{fill:var(--c2);animation-name:c12}@keyframes c13{45.22%{fill:var(--c2)}45.24%,100%{fill:var(--ce)}}.c.c13{fill:var(--c2);animation-name:c13}@keyframes c14{33.22%{fill:var(--c2)}33.24%,100%{fill:var(--ce)}}.c.c14{fill:var(--c2);animation-name:c14}@keyframes c15{37.22%{fill:var(--c2)}37.24%,100%{fill:var(--ce)}}.c.c15{fill:var(--c2);animation-name:c15}@keyframes c16{35.68%{fill:var(--c2)}35.7%,100%{fill:var(--ce)}}.c.c16{fill:var(--c2);animation-name:c16}@keyframes c17{38.45%{fill:var(--c2)}38.47%,100%{fill:var(--ce)}}.c.c17{fill:var(--c2);animation-name:c17}@keyframes c18{70.14%{fill:var(--c4)}70.16%,100%{fill:var(--ce)}}.c.c18{fill:var(--c4);animation-name:c18}@keyframes c19{41.53%{fill:var(--c2)}41.55%,100%{fill:var(--ce)}}.c.c19{fill:var(--c2);animation-name:c19}@keyframes c1a{41.22%{fill:var(--c2)}41.24%,100%{fill:var(--ce)}}.c.c1a{fill:var(--c2);animation-name:c1a}@keyframes c1b{32.91%{fill:var(--c2)}32.93%,100%{fill:var(--ce)}}.c.c1b{fill:var(--c2);animation-name:c1b}@keyframes c1c{36.91%{fill:var(--c2)}36.93%,100%{fill:var(--ce)}}.c.c1c{fill:var(--c2);animation-name:c1c}@keyframes c1d{35.99%{fill:var(--c2)}36.01%,100%{fill:var(--ce)}}.c.c1d{fill:var(--c2);animation-name:c1d}@keyframes c1e{38.76%{fill:var(--c2)}38.78%,100%{fill:var(--ce)}}.c.c1e{fill:var(--c2);animation-name:c1e}@keyframes c1f{39.68%{fill:var(--c2)}39.7%,100%{fill:var(--ce)}}.c.c1f{fill:var(--c2);animation-name:c1f}@keyframes c1g{39.99%{fill:var(--c2)}40.01%,100%{fill:var(--ce)}}.c.c1g{fill:var(--c2);animation-name:c1g}@keyframes c1h{40.91%{fill:var(--c2)}40.93%,100%{fill:var(--ce)}}.c.c1h{fill:var(--c2);animation-name:c1h}@keyframes c1i{32.61%{fill:var(--c2)}32.63%,100%{fill:var(--ce)}}.c.c1i{fill:var(--c2);animation-name:c1i}@keyframes c1j{36.61%{fill:var(--c2)}36.63%,100%{fill:var(--ce)}}.c.c1j{fill:var(--c2);animation-name:c1j}@keyframes c1k{36.3%{fill:var(--c2)}36.32%,100%{fill:var(--ce)}}.c.c1k{fill:var(--c2);animation-name:c1k}@keyframes c1l{39.07%{fill:var(--c2)}39.09%,100%{fill:var(--ce)}}.c.c1l{fill:var(--c2);animation-name:c1l}@keyframes c1m{39.37%{fill:var(--c2)}39.39%,100%{fill:var(--ce)}}.c.c1m{fill:var(--c2);animation-name:c1m}@keyframes c1n{40.3%{fill:var(--c2)}40.32%,100%{fill:var(--ce)}}.c.c1n{fill:var(--c2);animation-name:c1n}@keyframes c1o{40.61%{fill:var(--c2)}40.63%,100%{fill:var(--ce)}}.c.c1o{fill:var(--c2);animation-name:c1o}@keyframes c1p{31.07%{fill:var(--c2)}31.09%,100%{fill:var(--ce)}}.c.c1p{fill:var(--c2);animation-name:c1p}@keyframes c1q{30.76%{fill:var(--c2)}30.78%,100%{fill:var(--ce)}}.c.c1q{fill:var(--c2);animation-name:c1q}@keyframes c1r{30.45%{fill:var(--c2)}30.47%,100%{fill:var(--ce)}}.c.c1r{fill:var(--c2);animation-name:c1r}@keyframes c1s{30.14%{fill:var(--c2)}30.16%,100%{fill:var(--ce)}}.c.c1s{fill:var(--c2);animation-name:c1s}@keyframes c1t{29.84%{fill:var(--c2)}29.86%,100%{fill:var(--ce)}}.c.c1t{fill:var(--c2);animation-name:c1t}@keyframes c1u{29.53%{fill:var(--c2)}29.55%,100%{fill:var(--ce)}}.c.c1u{fill:var(--c2);animation-name:c1u}@keyframes c1v{29.22%{fill:var(--c2)}29.24%,100%{fill:var(--ce)}}.c.c1v{fill:var(--c2);animation-name:c1v}@keyframes c1w{31.37%{fill:var(--c2)}31.39%,100%{fill:var(--ce)}}.c.c1w{fill:var(--c2);animation-name:c1w}@keyframes c1x{77.84%{fill:var(--c4)}77.86%,100%{fill:var(--ce)}}.c.c1x{fill:var(--c4);animation-name:c1x}@keyframes c1y{77.53%{fill:var(--c4)}77.55%,100%{fill:var(--ce)}}.c.c1y{fill:var(--c4);animation-name:c1y}@keyframes c1z{83.99%{fill:var(--c4)}84.01%,100%{fill:var(--ce)}}.c.c1z{fill:var(--c4);animation-name:c1z}@keyframes c20{71.37%{fill:var(--c4)}71.39%,100%{fill:var(--ce)}}.c.c20{fill:var(--c4);animation-name:c20}@keyframes c21{82.14%{fill:var(--c4)}82.16%,100%{fill:var(--ce)}}.c.c21{fill:var(--c4);animation-name:c21}@keyframes c22{82.45%{fill:var(--c4)}82.47%,100%{fill:var(--ce)}}.c.c22{fill:var(--c4);animation-name:c22}@keyframes c23{75.37%{fill:var(--c4)}75.39%,100%{fill:var(--ce)}}.c.c23{fill:var(--c4);animation-name:c23}@keyframes c24{75.68%{fill:var(--c4)}75.7%,100%{fill:var(--ce)}}.c.c24{fill:var(--c4);animation-name:c24}@keyframes c25{77.22%{fill:var(--c4)}77.24%,100%{fill:var(--ce)}}.c.c25{fill:var(--c4);animation-name:c25}@keyframes c26{78.76%{fill:var(--c4)}78.78%,100%{fill:var(--ce)}}.c.c26{fill:var(--c4);animation-name:c26}@keyframes c27{71.68%{fill:var(--c4)}71.7%,100%{fill:var(--ce)}}.c.c27{fill:var(--c4);animation-name:c27}@keyframes c28{81.84%{fill:var(--c4)}81.86%,100%{fill:var(--ce)}}.c.c28{fill:var(--c4);animation-name:c28}@keyframes c29{82.76%{fill:var(--c4)}82.78%,100%{fill:var(--ce)}}.c.c29{fill:var(--c4);animation-name:c29}@keyframes c2a{75.07%{fill:var(--c4)}75.09%,100%{fill:var(--ce)}}.c.c2a{fill:var(--c4);animation-name:c2a}@keyframes c2b{75.99%{fill:var(--c4)}76.01%,100%{fill:var(--ce)}}.c.c2b{fill:var(--c4);animation-name:c2b}@keyframes c2c{76.91%{fill:var(--c4)}76.93%,100%{fill:var(--ce)}}.c.c2c{fill:var(--c4);animation-name:c2c}@keyframes c2d{79.07%{fill:var(--c4)}79.09%,100%{fill:var(--ce)}}.c.c2d{fill:var(--c4);animation-name:c2d}@keyframes c2e{71.99%{fill:var(--c4)}72.01%,100%{fill:var(--ce)}}.c.c2e{fill:var(--c4);animation-name:c2e}@keyframes c2f{81.53%{fill:var(--c4)}81.55%,100%{fill:var(--ce)}}.c.c2f{fill:var(--c4);animation-name:c2f}@keyframes c2g{81.22%{fill:var(--c4)}81.24%,100%{fill:var(--ce)}}.c.c2g{fill:var(--c4);animation-name:c2g}@keyframes c2h{74.76%{fill:var(--c4)}74.78%,100%{fill:var(--ce)}}.c.c2h{fill:var(--c4);animation-name:c2h}@keyframes c2i{76.3%{fill:var(--c4)}76.32%,100%{fill:var(--ce)}}.c.c2i{fill:var(--c4);animation-name:c2i}@keyframes c2j{76.61%{fill:var(--c4)}76.63%,100%{fill:var(--ce)}}.c.c2j{fill:var(--c4);animation-name:c2j}@keyframes c2k{79.37%{fill:var(--c4)}79.39%,100%{fill:var(--ce)}}.c.c2k{fill:var(--c4);animation-name:c2k}@keyframes c2l{72.3%{fill:var(--c4)}72.32%,100%{fill:var(--ce)}}.c.c2l{fill:var(--c4);animation-name:c2l}@keyframes c2m{79.99%{fill:var(--c4)}80.01%,100%{fill:var(--ce)}}.c.c2m{fill:var(--c4);animation-name:c2m}@keyframes c2n{80.91%{fill:var(--c4)}80.93%,100%{fill:var(--ce)}}.c.c2n{fill:var(--c4);animation-name:c2n}@keyframes c2o{74.45%{fill:var(--c4)}74.47%,100%{fill:var(--ce)}}.c.c2o{fill:var(--c4);animation-name:c2o}@keyframes c2p{73.53%{fill:var(--c4)}73.55%,100%{fill:var(--ce)}}.c.c2p{fill:var(--c4);animation-name:c2p}@keyframes c2q{73.22%{fill:var(--c4)}73.24%,100%{fill:var(--ce)}}.c.c2q{fill:var(--c4);animation-name:c2q}@keyframes c2r{72.91%{fill:var(--c4)}72.93%,100%{fill:var(--ce)}}.c.c2r{fill:var(--c4);animation-name:c2r}@keyframes c2s{72.61%{fill:var(--c4)}72.63%,100%{fill:var(--ce)}}.c.c2s{fill:var(--c4);animation-name:c2s}@keyframes c2t{80.3%{fill:var(--c4)}80.32%,100%{fill:var(--ce)}}.c.c2t{fill:var(--c4);animation-name:c2t}@keyframes c2u{80.61%{fill:var(--c4)}80.63%,100%{fill:var(--ce)}}.c.c2u{fill:var(--c4);animation-name:c2u}@keyframes c2v{74.14%{fill:var(--c4)}74.16%,100%{fill:var(--ce)}}.c.c2v{fill:var(--c4);animation-name:c2v}@keyframes c2w{73.84%{fill:var(--c4)}73.86%,100%{fill:var(--ce)}}.c.c2w{fill:var(--c4);animation-name:c2w}@keyframes c2x{25.53%{fill:var(--c1)}25.55%,100%{fill:var(--ce)}}.c.c2x{fill:var(--c1);animation-name:c2x}.u{transform-origin:0 0;transform:scale(0,1);animation:none linear 32500ms infinite}@keyframes u0{3.68%{transform:scale(0.000,1)}3.7%,3.99%{transform:scale(0.100,1)}4.01%,5.84%{transform:scale(0.200,1)}5.86%,11.37%{transform:scale(0.300,1)}11.39%,14.76%{transform:scale(0.400,1)}14.78%,15.37%{transform:scale(0.500,1)}15.39%,16.3%{transform:scale(0.600,1)}16.32%,16.61%{transform:scale(0.700,1)}16.63%,18.76%{transform:scale(0.800,1)}18.78%,25.53%{transform:scale(0.900,1)}25.55%,100%{transform:scale(1.000,1)}}.u.u0{fill:var(--c1);animation-name:u0;transform-origin:0.0px 0}@keyframes u1{29.22%{transform:scale(0.000,1)}29.24%,29.53%{transform:scale(0.019,1)}29.55%,29.84%{transform:scale(0.037,1)}29.86%,30.14%{transform:scale(0.056,1)}30.16%,30.45%{transform:scale(0.074,1)}30.47%,30.76%{transform:scale(0.093,1)}30.78%,31.07%{transform:scale(0.111,1)}31.09%,31.37%{transform:scale(0.130,1)}31.39%,32.61%{transform:scale(0.148,1)}32.63%,32.91%{transform:scale(0.167,1)}32.93%,33.22%{transform:scale(0.185,1)}33.24%,33.53%{transform:scale(0.204,1)}33.55%,33.84%{transform:scale(0.222,1)}33.86%,34.14%{transform:scale(0.241,1)}34.16%,34.45%{transform:scale(0.259,1)}34.47%,34.76%{transform:scale(0.278,1)}34.78%,35.07%{transform:scale(0.296,1)}35.09%,35.37%{transform:scale(0.315,1)}35.39%,35.68%{transform:scale(0.333,1)}35.7%,35.99%{transform:scale(0.352,1)}36.01%,36.3%{transform:scale(0.370,1)}36.32%,36.61%{transform:scale(0.389,1)}36.63%,36.91%{transform:scale(0.407,1)}36.93%,37.22%{transform:scale(0.426,1)}37.24%,37.53%{transform:scale(0.444,1)}37.55%,38.14%{transform:scale(0.463,1)}38.16%,38.45%{transform:scale(0.481,1)}38.47%,38.76%{transform:scale(0.500,1)}38.78%,39.07%{transform:scale(0.519,1)}39.09%,39.37%{transform:scale(0.537,1)}39.39%,39.68%{transform:scale(0.556,1)}39.7%,39.99%{transform:scale(0.574,1)}40.01%,40.3%{transform:scale(0.593,1)}40.32%,40.61%{transform:scale(0.611,1)}40.63%,40.91%{transform:scale(0.630,1)}40.93%,41.22%{transform:scale(0.648,1)}41.24%,41.53%{transform:scale(0.667,1)}41.55%,41.84%{transform:scale(0.685,1)}41.86%,42.14%{transform:scale(0.704,1)}42.16%,42.45%{transform:scale(0.722,1)}42.47%,42.76%{transform:scale(0.741,1)}42.78%,43.07%{transform:scale(0.759,1)}43.09%,43.37%{transform:scale(0.778,1)}43.39%,43.68%{transform:scale(0.796,1)}43.7%,43.99%{transform:scale(0.815,1)}44.01%,44.3%{transform:scale(0.833,1)}44.32%,44.61%{transform:scale(0.852,1)}44.63%,44.91%{transform:scale(0.870,1)}44.93%,45.22%{transform:scale(0.889,1)}45.24%,46.45%{transform:scale(0.907,1)}46.47%,46.76%{transform:scale(0.926,1)}46.78%,47.99%{transform:scale(0.944,1)}48.01%,54.45%{transform:scale(0.963,1)}54.47%,57.22%{transform:scale(0.981,1)}57.24%,100%{transform:scale(1.000,1)}}.u.u1{fill:var(--c2);animation-name:u1;transform-origin:80.0px 0}@keyframes u2{62.45%{transform:scale(0.000,1)}62.47%,67.37%{transform:scale(0.024,1)}67.39%,67.68%{transform:scale(0.048,1)}67.7%,68.61%{transform:scale(0.071,1)}68.63%,70.14%{transform:scale(0.095,1)}70.16%,71.37%{transform:scale(0.119,1)}71.39%,71.68%{transform:scale(0.143,1)}71.7%,71.99%{transform:scale(0.167,1)}72.01%,72.3%{transform:scale(0.190,1)}72.32%,72.61%{transform:scale(0.214,1)}72.63%,72.91%{transform:scale(0.238,1)}72.93%,73.22%{transform:scale(0.262,1)}73.24%,73.53%{transform:scale(0.286,1)}73.55%,73.84%{transform:scale(0.310,1)}73.86%,74.14%{transform:scale(0.333,1)}74.16%,74.45%{transform:scale(0.357,1)}74.47%,74.76%{transform:scale(0.381,1)}74.78%,75.07%{transform:scale(0.405,1)}75.09%,75.37%{transform:scale(0.429,1)}75.39%,75.68%{transform:scale(0.452,1)}75.7%,75.99%{transform:scale(0.476,1)}76.01%,76.3%{transform:scale(0.500,1)}76.32%,76.61%{transform:scale(0.524,1)}76.63%,76.91%{transform:scale(0.548,1)}76.93%,77.22%{transform:scale(0.571,1)}77.24%,77.53%{transform:scale(0.595,1)}77.55%,77.84%{transform:scale(0.619,1)}77.86%,78.76%{transform:scale(0.643,1)}78.78%,79.07%{transform:scale(0.667,1)}79.09%,79.37%{transform:scale(0.690,1)}79.39%,79.99%{transform:scale(0.714,1)}80.01%,80.3%{transform:scale(0.738,1)}80.32%,80.61%{transform:scale(0.762,1)}80.63%,80.91%{transform:scale(0.786,1)}80.93%,81.22%{transform:scale(0.810,1)}81.24%,81.53%{transform:scale(0.833,1)}81.55%,81.84%{transform:scale(0.857,1)}81.86%,82.14%{transform:scale(0.881,1)}82.16%,82.45%{transform:scale(0.905,1)}82.47%,82.76%{transform:scale(0.929,1)}82.78%,83.99%{transform:scale(0.952,1)}84.01%,88.3%{transform:scale(0.976,1)}88.32%,100%{transform:scale(1.000,1)}}.u.u2{fill:var(--c4);animation-name:u2;transform-origin:512.0px 0}.s{shape-rendering:geometricPrecision;fill:var(--cs);animation:none linear 32500ms infinite}@keyframes s0{0%,99.69%{transform:translate(0px,-16px)}0.31%{transform:translate(0px,0px)}3.69%{transform:translate(176px,0px)}4%{transform:translate(176px,16px)}4.62%{transform:translate(144px,16px)}5.85%{transform:translate(144px,80px)}10.77%{transform:translate(400px,80px)}11.38%{transform:translate(400px,48px)}14.77%{transform:translate(576px,48px)}15.08%{transform:translate(576px,64px)}15.38%{transform:translate(560px,64px)}15.69%,48.31%{transform:translate(560px,80px)}16.31%{transform:translate(592px,80px)}16.62%{transform:translate(592px,96px)}16.92%{transform:translate(608px,96px)}18.46%{transform:translate(608px,16px)}18.77%{transform:translate(592px,16px)}19.08%{transform:translate(592px,0px)}19.69%{transform:translate(624px,0px)}20%{transform:translate(624px,-16px)}24.31%{transform:translate(848px,-16px)}25.23%{transform:translate(848px,32px)}25.54%{transform:translate(832px,32px)}27.08%{transform:translate(832px,112px)}28.92%{transform:translate(736px,112px)}31.08%{transform:translate(736px,0px)}31.38%,84.92%{transform:translate(752px,0px)}31.69%{transform:translate(752px,-16px)}32.31%{transform:translate(720px,-16px)}32.62%{transform:translate(720px,0px)}34.15%{transform:translate(640px,0px)}34.77%{transform:translate(640px,32px)}36.31%{transform:translate(720px,32px)}36.62%{transform:translate(720px,16px)}37.54%{transform:translate(672px,16px)}38.15%{transform:translate(672px,48px)}39.08%{transform:translate(720px,48px)}39.38%{transform:translate(720px,64px)}39.69%{transform:translate(704px,64px)}40%{transform:translate(704px,80px)}40.31%{transform:translate(720px,80px)}40.62%{transform:translate(720px,96px)}41.23%{transform:translate(688px,96px)}41.54%{transform:translate(688px,80px)}41.85%,45.54%{transform:translate(672px,80px)}42.15%{transform:translate(672px,64px)}42.46%{transform:translate(656px,64px)}42.77%{transform:translate(656px,48px)}43.08%{transform:translate(640px,48px)}43.38%{transform:translate(640px,64px)}43.69%,67.08%{transform:translate(624px,64px)}44%{transform:translate(624px,80px)}44.62%{transform:translate(656px,80px)}44.92%{transform:translate(656px,96px)}45.23%{transform:translate(672px,96px)}46.15%{transform:translate(640px,80px)}46.46%{transform:translate(640px,96px)}48%{transform:translate(560px,96px)}52%{transform:translate(368px,80px)}52.31%{transform:translate(368px,64px)}56.62%{transform:translate(144px,64px)}57.23%{transform:translate(144px,96px)}61.85%{transform:translate(384px,96px)}62.46%{transform:translate(384px,64px)}67.69%{transform:translate(624px,32px)}68.31%{transform:translate(656px,32px)}68.62%{transform:translate(656px,16px)}69.23%{transform:translate(688px,16px)}70.15%{transform:translate(688px,64px)}72.62%{transform:translate(816px,64px)}73.54%{transform:translate(816px,16px)}73.85%{transform:translate(832px,16px)}74.15%{transform:translate(832px,0px)}75.38%{transform:translate(768px,0px)}75.69%,78.15%{transform:translate(768px,16px)}76.31%{transform:translate(800px,16px)}76.62%{transform:translate(800px,32px)}77.54%{transform:translate(752px,32px)}77.85%{transform:translate(752px,16px)}78.77%,83.69%{transform:translate(768px,48px)}79.38%{transform:translate(800px,48px)}80%{transform:translate(800px,80px)}80.31%{transform:translate(816px,80px)}80.62%{transform:translate(816px,96px)}81.23%{transform:translate(784px,96px)}81.54%{transform:translate(784px,80px)}82.15%{transform:translate(752px,80px)}82.46%{transform:translate(752px,96px)}82.77%{transform:translate(768px,96px)}84%{transform:translate(752px,48px)}98.15%{transform:translate(64px,0px)}98.46%{transform:translate(64px,-16px)}}.s.s0{transform:translate(0px,-16px);animation-name:s0}@keyframes s1{0%,99.69%{transform:translate(16px,-16px)}0.31%{transform:translate(0px,-16px)}0.62%{transform:translate(0px,0px)}4%{transform:translate(176px,0px)}4.31%{transform:translate(176px,16px)}4.92%{transform:translate(144px,16px)}6.15%{transform:translate(144px,80px)}11.08%{transform:translate(400px,80px)}11.69%{transform:translate(400px,48px)}15.08%{transform:translate(576px,48px)}15.38%{transform:translate(576px,64px)}15.69%{transform:translate(560px,64px)}16%,48.62%{transform:translate(560px,80px)}16.62%{transform:translate(592px,80px)}16.92%{transform:translate(592px,96px)}17.23%{transform:translate(608px,96px)}18.77%{transform:translate(608px,16px)}19.08%{transform:translate(592px,16px)}19.38%{transform:translate(592px,0px)}20%{transform:translate(624px,0px)}20.31%{transform:translate(624px,-16px)}24.62%{transform:translate(848px,-16px)}25.54%{transform:translate(848px,32px)}25.85%{transform:translate(832px,32px)}27.38%{transform:translate(832px,112px)}29.23%{transform:translate(736px,112px)}31.38%{transform:translate(736px,0px)}31.69%,85.23%{transform:translate(752px,0px)}32%{transform:translate(752px,-16px)}32.62%{transform:translate(720px,-16px)}32.92%{transform:translate(720px,0px)}34.46%{transform:translate(640px,0px)}35.08%{transform:translate(640px,32px)}36.62%{transform:translate(720px,32px)}36.92%{transform:translate(720px,16px)}37.85%{transform:translate(672px,16px)}38.46%{transform:translate(672px,48px)}39.38%{transform:translate(720px,48px)}39.69%{transform:translate(720px,64px)}40%{transform:translate(704px,64px)}40.31%{transform:translate(704px,80px)}40.62%{transform:translate(720px,80px)}40.92%{transform:translate(720px,96px)}41.54%{transform:translate(688px,96px)}41.85%{transform:translate(688px,80px)}42.15%,45.85%{transform:translate(672px,80px)}42.46%{transform:translate(672px,64px)}42.77%{transform:translate(656px,64px)}43.08%{transform:translate(656px,48px)}43.38%{transform:translate(640px,48px)}43.69%{transform:translate(640px,64px)}44%,67.38%{transform:translate(624px,64px)}44.31%{transform:translate(624px,80px)}44.92%{transform:translate(656px,80px)}45.23%{transform:translate(656px,96px)}45.54%{transform:translate(672px,96px)}46.46%{transform:translate(640px,80px)}46.77%{transform:translate(640px,96px)}48.31%{transform:translate(560px,96px)}52.31%{transform:translate(368px,80px)}52.62%{transform:translate(368px,64px)}56.92%{transform:translate(144px,64px)}57.54%{transform:translate(144px,96px)}62.15%{transform:translate(384px,96px)}62.77%{transform:translate(384px,64px)}68%{transform:translate(624px,32px)}68.62%{transform:translate(656px,32px)}68.92%{transform:translate(656px,16px)}69.54%{transform:translate(688px,16px)}70.46%{transform:translate(688px,64px)}72.92%{transform:translate(816px,64px)}73.85%{transform:translate(816px,16px)}74.15%{transform:translate(832px,16px)}74.46%{transform:translate(832px,0px)}75.69%{transform:translate(768px,0px)}76%,78.46%{transform:translate(768px,16px)}76.62%{transform:translate(800px,16px)}76.92%{transform:translate(800px,32px)}77.85%{transform:translate(752px,32px)}78.15%{transform:translate(752px,16px)}79.08%,84%{transform:translate(768px,48px)}79.69%{transform:translate(800px,48px)}80.31%{transform:translate(800px,80px)}80.62%{transform:translate(816px,80px)}80.92%{transform:translate(816px,96px)}81.54%{transform:translate(784px,96px)}81.85%{transform:translate(784px,80px)}82.46%{transform:translate(752px,80px)}82.77%{transform:translate(752px,96px)}83.08%{transform:translate(768px,96px)}84.31%{transform:translate(752px,48px)}98.46%{transform:translate(64px,0px)}98.77%{transform:translate(64px,-16px)}}.s.s1{transform:translate(16px,-16px);animation-name:s1}@keyframes s2{0%,99.69%{transform:translate(32px,-16px)}0.62%{transform:translate(0px,-16px)}0.92%{transform:translate(0px,0px)}4.31%{transform:translate(176px,0px)}4.62%{transform:translate(176px,16px)}5.23%{transform:translate(144px,16px)}6.46%{transform:translate(144px,80px)}11.38%{transform:translate(400px,80px)}12%{transform:translate(400px,48px)}15.38%{transform:translate(576px,48px)}15.69%{transform:translate(576px,64px)}16%{transform:translate(560px,64px)}16.31%,48.92%{transform:translate(560px,80px)}16.92%{transform:translate(592px,80px)}17.23%{transform:translate(592px,96px)}17.54%{transform:translate(608px,96px)}19.08%{transform:translate(608px,16px)}19.38%{transform:translate(592px,16px)}19.69%{transform:translate(592px,0px)}20.31%{transform:translate(624px,0px)}20.62%{transform:translate(624px,-16px)}24.92%{transform:translate(848px,-16px)}25.85%{transform:translate(848px,32px)}26.15%{transform:translate(832px,32px)}27.69%{transform:translate(832px,112px)}29.54%{transform:translate(736px,112px)}31.69%{transform:translate(736px,0px)}32%,85.54%{transform:translate(752px,0px)}32.31%{transform:translate(752px,-16px)}32.92%{transform:translate(720px,-16px)}33.23%{transform:translate(720px,0px)}34.77%{transform:translate(640px,0px)}35.38%{transform:translate(640px,32px)}36.92%{transform:translate(720px,32px)}37.23%{transform:translate(720px,16px)}38.15%{transform:translate(672px,16px)}38.77%{transform:translate(672px,48px)}39.69%{transform:translate(720px,48px)}40%{transform:translate(720px,64px)}40.31%{transform:translate(704px,64px)}40.62%{transform:translate(704px,80px)}40.92%{transform:translate(720px,80px)}41.23%{transform:translate(720px,96px)}41.85%{transform:translate(688px,96px)}42.15%{transform:translate(688px,80px)}42.46%,46.15%{transform:translate(672px,80px)}42.77%{transform:translate(672px,64px)}43.08%{transform:translate(656px,64px)}43.38%{transform:translate(656px,48px)}43.69%{transform:translate(640px,48px)}44%{transform:translate(640px,64px)}44.31%,67.69%{transform:translate(624px,64px)}44.62%{transform:translate(624px,80px)}45.23%{transform:translate(656px,80px)}45.54%{transform:translate(656px,96px)}45.85%{transform:translate(672px,96px)}46.77%{transform:translate(640px,80px)}47.08%{transform:translate(640px,96px)}48.62%{transform:translate(560px,96px)}52.62%{transform:translate(368px,80px)}52.92%{transform:translate(368px,64px)}57.23%{transform:translate(144px,64px)}57.85%{transform:translate(144px,96px)}62.46%{transform:translate(384px,96px)}63.08%{transform:translate(384px,64px)}68.31%{transform:translate(624px,32px)}68.92%{transform:translate(656px,32px)}69.23%{transform:translate(656px,16px)}69.85%{transform:translate(688px,16px)}70.77%{transform:translate(688px,64px)}73.23%{transform:translate(816px,64px)}74.15%{transform:translate(816px,16px)}74.46%{transform:translate(832px,16px)}74.77%{transform:translate(832px,0px)}76%{transform:translate(768px,0px)}76.31%,78.77%{transform:translate(768px,16px)}76.92%{transform:translate(800px,16px)}77.23%{transform:translate(800px,32px)}78.15%{transform:translate(752px,32px)}78.46%{transform:translate(752px,16px)}79.38%,84.31%{transform:translate(768px,48px)}80%{transform:translate(800px,48px)}80.62%{transform:translate(800px,80px)}80.92%{transform:translate(816px,80px)}81.23%{transform:translate(816px,96px)}81.85%{transform:translate(784px,96px)}82.15%{transform:translate(784px,80px)}82.77%{transform:translate(752px,80px)}83.08%{transform:translate(752px,96px)}83.38%{transform:translate(768px,96px)}84.62%{transform:translate(752px,48px)}98.77%{transform:translate(64px,0px)}99.08%{transform:translate(64px,-16px)}}.s.s2{transform:translate(32px,-16px);animation-name:s2}@keyframes s3{0%,99.69%{transform:translate(48px,-16px)}0.92%{transform:translate(0px,-16px)}1.23%{transform:translate(0px,0px)}4.62%{transform:translate(176px,0px)}4.92%{transform:translate(176px,16px)}5.54%{transform:translate(144px,16px)}6.77%{transform:translate(144px,80px)}11.69%{transform:translate(400px,80px)}12.31%{transform:translate(400px,48px)}15.69%{transform:translate(576px,48px)}16%{transform:translate(576px,64px)}16.31%{transform:translate(560px,64px)}16.62%,49.23%{transform:translate(560px,80px)}17.23%{transform:translate(592px,80px)}17.54%{transform:translate(592px,96px)}17.85%{transform:translate(608px,96px)}19.38%{transform:translate(608px,16px)}19.69%{transform:translate(592px,16px)}20%{transform:translate(592px,0px)}20.62%{transform:translate(624px,0px)}20.92%{transform:translate(624px,-16px)}25.23%{transform:translate(848px,-16px)}26.15%{transform:translate(848px,32px)}26.46%{transform:translate(832px,32px)}28%{transform:translate(832px,112px)}29.85%{transform:translate(736px,112px)}32%{transform:translate(736px,0px)}32.31%,85.85%{transform:translate(752px,0px)}32.62%{transform:translate(752px,-16px)}33.23%{transform:translate(720px,-16px)}33.54%{transform:translate(720px,0px)}35.08%{transform:translate(640px,0px)}35.69%{transform:translate(640px,32px)}37.23%{transform:translate(720px,32px)}37.54%{transform:translate(720px,16px)}38.46%{transform:translate(672px,16px)}39.08%{transform:translate(672px,48px)}40%{transform:translate(720px,48px)}40.31%{transform:translate(720px,64px)}40.62%{transform:translate(704px,64px)}40.92%{transform:translate(704px,80px)}41.23%{transform:translate(720px,80px)}41.54%{transform:translate(720px,96px)}42.15%{transform:translate(688px,96px)}42.46%{transform:translate(688px,80px)}42.77%,46.46%{transform:translate(672px,80px)}43.08%{transform:translate(672px,64px)}43.38%{transform:translate(656px,64px)}43.69%{transform:translate(656px,48px)}44%{transform:translate(640px,48px)}44.31%{transform:translate(640px,64px)}44.62%,68%{transform:translate(624px,64px)}44.92%{transform:translate(624px,80px)}45.54%{transform:translate(656px,80px)}45.85%{transform:translate(656px,96px)}46.15%{transform:translate(672px,96px)}47.08%{transform:translate(640px,80px)}47.38%{transform:translate(640px,96px)}48.92%{transform:translate(560px,96px)}52.92%{transform:translate(368px,80px)}53.23%{transform:translate(368px,64px)}57.54%{transform:translate(144px,64px)}58.15%{transform:translate(144px,96px)}62.77%{transform:translate(384px,96px)}63.38%{transform:translate(384px,64px)}68.62%{transform:translate(624px,32px)}69.23%{transform:translate(656px,32px)}69.54%{transform:translate(656px,16px)}70.15%{transform:translate(688px,16px)}71.08%{transform:translate(688px,64px)}73.54%{transform:translate(816px,64px)}74.46%{transform:translate(816px,16px)}74.77%{transform:translate(832px,16px)}75.08%{transform:translate(832px,0px)}76.31%{transform:translate(768px,0px)}76.62%,79.08%{transform:translate(768px,16px)}77.23%{transform:translate(800px,16px)}77.54%{transform:translate(800px,32px)}78.46%{transform:translate(752px,32px)}78.77%{transform:translate(752px,16px)}79.69%,84.62%{transform:translate(768px,48px)}80.31%{transform:translate(800px,48px)}80.92%{transform:translate(800px,80px)}81.23%{transform:translate(816px,80px)}81.54%{transform:translate(816px,96px)}82.15%{transform:translate(784px,96px)}82.46%{transform:translate(784px,80px)}83.08%{transform:translate(752px,80px)}83.38%{transform:translate(752px,96px)}83.69%{transform:translate(768px,96px)}84.92%{transform:translate(752px,48px)}99.08%{transform:translate(64px,0px)}99.38%{transform:translate(64px,-16px)}}.s.s3{transform:translate(48px,-16px);animation-name:s3}</style><rect class="c" x="2" y="2" rx="2" ry="2"/><rect class="c" x="2" y="18" rx="2" ry="2"/><rect class="c" x="2" y="34" rx="2" ry="2"/><rect class="c" x="2" y="50" rx="2" ry="2"/><rect class="c" x="2" y="66" rx="2" ry="2"/><rect class="c" x="2" y="82" rx="2" ry="2"/><rect class="c" x="2" y="98" rx="2" ry="2"/><rect class="c" x="18" y="2" rx="2" ry="2"/><rect class="c" x="18" y="18" rx="2" ry="2"/><rect class="c" x="18" y="34" rx="2" ry="2"/><rect class="c" x="18" y="50" rx="2" ry="2"/><rect class="c" x="18" y="66" rx="2" ry="2"/><rect class="c" x="18" y="82" rx="2" ry="2"/><rect class="c" x="18" y="98" rx="2" ry="2"/><rect class="c" x="34" y="2" rx="2" ry="2"/><rect class="c" x="34" y="18" rx="2" ry="2"/><rect class="c" x="34" y="34" rx="2" ry="2"/><rect class="c" x="34" y="50" rx="2" ry="2"/><rect class="c" x="34" y="66" rx="2" ry="2"/><rect class="c" x="34" y="82" rx="2" ry="2"/><rect class="c" x="34" y="98" rx="2" ry="2"/><rect class="c" x="50" y="2" rx="2" ry="2"/><rect class="c" x="50" y="18" rx="2" ry="2"/><rect class="c" x="50" y="34" rx="2" ry="2"/><rect class="c" x="50" y="50" rx="2" ry="2"/><rect class="c" x="50" y="66" rx="2" ry="2"/><rect class="c" x="50" y="82" rx="2" ry="2"/><rect class="c" x="50" y="98" rx="2" ry="2"/><rect class="c" x="66" y="2" rx="2" ry="2"/><rect class="c" x="66" y="18" rx="2" ry="2"/><rect class="c" x="66" y="34" rx="2" ry="2"/><rect class="c" x="66" y="50" rx="2" ry="2"/><rect class="c" x="66" y="66" rx="2" ry="2"/><rect class="c" x="66" y="82" rx="2" ry="2"/><rect class="c" x="66" y="98" rx="2" ry="2"/><rect class="c" x="82" y="2" rx="2" ry="2"/><rect class="c" x="82" y="18" rx="2" ry="2"/><rect class="c" x="82" y="34" rx="2" ry="2"/><rect class="c" x="82" y="50" rx="2" ry="2"/><rect class="c" x="82" y="66" rx="2" ry="2"/><rect class="c" x="82" y="82" rx="2" ry="2"/><rect class="c" x="82" y="98" rx="2" ry="2"/><rect class="c" x="98" y="2" rx="2" ry="2"/><rect class="c" x="98" y="18" rx="2" ry="2"/><rect class="c" x="98" y="34" rx="2" ry="2"/><rect class="c" x="98" y="50" rx="2" ry="2"/><rect class="c" x="98" y="66" rx="2" ry="2"/><rect class="c" x="98" y="82" rx="2" ry="2"/><rect class="c" x="98" y="98" rx="2" ry="2"/><rect class="c" x="114" y="2" rx="2" ry="2"/><rect class="c" x="114" y="18" rx="2" ry="2"/><rect class="c" x="114" y="34" rx="2" ry="2"/><rect class="c" x="114" y="50" rx="2" ry="2"/><rect class="c" x="114" y="66" rx="2" ry="2"/><rect class="c" x="114" y="82" rx="2" ry="2"/><rect class="c" x="114" y="98" rx="2" ry="2"/><rect class="c" x="130" y="2" rx="2" ry="2"/><rect class="c" x="130" y="18" rx="2" ry="2"/><rect class="c" x="130" y="34" rx="2" ry="2"/><rect class="c" x="130" y="50" rx="2" ry="2"/><rect class="c" x="130" y="66" rx="2" ry="2"/><rect class="c" x="130" y="82" rx="2" ry="2"/><rect class="c" x="130" y="98" rx="2" ry="2"/><rect class="c" x="146" y="2" rx="2" ry="2"/><rect class="c" x="146" y="18" rx="2" ry="2"/><rect class="c" x="146" y="34" rx="2" ry="2"/><rect class="c" x="146" y="50" rx="2" ry="2"/><rect class="c" x="146" y="66" rx="2" ry="2"/><rect class="c c0" x="146" y="82" rx="2" ry="2"/><rect class="c c1" x="146" y="98" rx="2" ry="2"/><rect class="c" x="162" y="2" rx="2" ry="2"/><rect class="c" x="162" y="18" rx="2" ry="2"/><rect class="c" x="162" y="34" rx="2" ry="2"/><rect class="c" x="162" y="50" rx="2" ry="2"/><rect class="c" x="162" y="66" rx="2" ry="2"/><rect class="c" x="162" y="82" rx="2" ry="2"/><rect class="c" x="162" y="98" rx="2" ry="2"/><rect class="c c2" x="178" y="2" rx="2" ry="2"/><rect class="c c3" x="178" y="18" rx="2" ry="2"/><rect class="c" x="178" y="34" rx="2" ry="2"/><rect class="c" x="178" y="50" rx="2" ry="2"/><rect class="c" x="178" y="66" rx="2" ry="2"/><rect class="c" x="178" y="82" rx="2" ry="2"/><rect class="c" x="178" y="98" rx="2" ry="2"/><rect class="c" x="194" y="2" rx="2" ry="2"/><rect class="c" x="194" y="18" rx="2" ry="2"/><rect class="c" x="194" y="34" rx="2" ry="2"/><rect class="c" x="194" y="50" rx="2" ry="2"/><rect class="c" x="194" y="66" rx="2" ry="2"/><rect class="c" x="194" y="82" rx="2" ry="2"/><rect class="c" x="194" y="98" rx="2" ry="2"/><rect class="c" x="210" y="2" rx="2" ry="2"/><rect class="c" x="210" y="18" rx="2" ry="2"/><rect class="c" x="210" y="34" rx="2" ry="2"/><rect class="c" x="210" y="50" rx="2" ry="2"/><rect class="c" x="210" y="66" rx="2" ry="2"/><rect class="c" x="210" y="82" rx="2" ry="2"/><rect class="c" x="210" y="98" rx="2" ry="2"/><rect class="c" x="226" y="2" rx="2" ry="2"/><rect class="c" x="226" y="18" rx="2" ry="2"/><rect class="c" x="226" y="34" rx="2" ry="2"/><rect class="c" x="226" y="50" rx="2" ry="2"/><rect class="c" x="226" y="66" rx="2" ry="2"/><rect class="c" x="226" y="82" rx="2" ry="2"/><rect class="c" x="226" y="98" rx="2" ry="2"/><rect class="c" x="242" y="2" rx="2" ry="2"/><rect class="c" x="242" y="18" rx="2" ry="2"/><rect class="c" x="242" y="34" rx="2" ry="2"/><rect class="c" x="242" y="50" rx="2" ry="2"/><rect class="c" x="242" y="66" rx="2" ry="2"/><rect class="c" x="242" y="82" rx="2" ry="2"/><rect class="c" x="242" y="98" rx="2" ry="2"/><rect class="c" x="258" y="2" rx="2" ry="2"/><rect class="c" x="258" y="18" rx="2" ry="2"/><rect class="c" x="258" y="34" rx="2" ry="2"/><rect class="c" x="258" y="50" rx="2" ry="2"/><rect class="c c4" x="258" y="66" rx="2" ry="2"/><rect class="c" x="258" y="82" rx="2" ry="2"/><rect class="c" x="258" y="98" rx="2" ry="2"/><rect class="c" x="274" y="2" rx="2" ry="2"/><rect class="c" x="274" y="18" rx="2" ry="2"/><rect class="c" x="274" y="34" rx="2" ry="2"/><rect class="c" x="274" y="50" rx="2" ry="2"/><rect class="c" x="274" y="66" rx="2" ry="2"/><rect class="c" x="274" y="82" rx="2" ry="2"/><rect class="c" x="274" y="98" rx="2" ry="2"/><rect class="c" x="290" y="2" rx="2" ry="2"/><rect class="c" x="290" y="18" rx="2" ry="2"/><rect class="c" x="290" y="34" rx="2" ry="2"/><rect class="c" x="290" y="50" rx="2" ry="2"/><rect class="c" x="290" y="66" rx="2" ry="2"/><rect class="c" x="290" y="82" rx="2" ry="2"/><rect class="c" x="290" y="98" rx="2" ry="2"/><rect class="c" x="306" y="2" rx="2" ry="2"/><rect class="c" x="306" y="18" rx="2" ry="2"/><rect class="c" x="306" y="34" rx="2" ry="2"/><rect class="c" x="306" y="50" rx="2" ry="2"/><rect class="c" x="306" y="66" rx="2" ry="2"/><rect class="c" x="306" y="82" rx="2" ry="2"/><rect class="c" x="306" y="98" rx="2" ry="2"/><rect class="c" x="322" y="2" rx="2" ry="2"/><rect class="c" x="322" y="18" rx="2" ry="2"/><rect class="c" x="322" y="34" rx="2" ry="2"/><rect class="c" x="322" y="50" rx="2" ry="2"/><rect class="c" x="322" y="66" rx="2" ry="2"/><rect class="c" x="322" y="82" rx="2" ry="2"/><rect class="c" x="322" y="98" rx="2" ry="2"/><rect class="c" x="338" y="2" rx="2" ry="2"/><rect class="c" x="338" y="18" rx="2" ry="2"/><rect class="c" x="338" y="34" rx="2" ry="2"/><rect class="c" x="338" y="50" rx="2" ry="2"/><rect class="c" x="338" y="66" rx="2" ry="2"/><rect class="c" x="338" y="82" rx="2" ry="2"/><rect class="c" x="338" y="98" rx="2" ry="2"/><rect class="c" x="354" y="2" rx="2" ry="2"/><rect class="c" x="354" y="18" rx="2" ry="2"/><rect class="c" x="354" y="34" rx="2" ry="2"/><rect class="c" x="354" y="50" rx="2" ry="2"/><rect class="c" x="354" y="66" rx="2" ry="2"/><rect class="c" x="354" y="82" rx="2" ry="2"/><rect class="c" x="354" y="98" rx="2" ry="2"/><rect class="c" x="370" y="2" rx="2" ry="2"/><rect class="c" x="370" y="18" rx="2" ry="2"/><rect class="c" x="370" y="34" rx="2" ry="2"/><rect class="c" x="370" y="50" rx="2" ry="2"/><rect class="c" x="370" y="66" rx="2" ry="2"/><rect class="c" x="370" y="82" rx="2" ry="2"/><rect class="c" x="370" y="98" rx="2" ry="2"/><rect class="c" x="386" y="2" rx="2" ry="2"/><rect class="c" x="386" y="18" rx="2" ry="2"/><rect class="c" x="386" y="34" rx="2" ry="2"/><rect class="c" x="386" y="50" rx="2" ry="2"/><rect class="c c5" x="386" y="66" rx="2" ry="2"/><rect class="c" x="386" y="82" rx="2" ry="2"/><rect class="c" x="386" y="98" rx="2" ry="2"/><rect class="c" x="402" y="2" rx="2" ry="2"/><rect class="c" x="402" y="18" rx="2" ry="2"/><rect class="c" x="402" y="34" rx="2" ry="2"/><rect class="c c6" x="402" y="50" rx="2" ry="2"/><rect class="c" x="402" y="66" rx="2" ry="2"/><rect class="c" x="402" y="82" rx="2" ry="2"/><rect class="c" x="402" y="98" rx="2" ry="2"/><rect class="c" x="418" y="2" rx="2" ry="2"/><rect class="c" x="418" y="18" rx="2" ry="2"/><rect class="c" x="418" y="34" rx="2" ry="2"/><rect class="c" x="418" y="50" rx="2" ry="2"/><rect class="c" x="418" y="66" rx="2" ry="2"/><rect class="c" x="418" y="82" rx="2" ry="2"/><rect class="c" x="418" y="98" rx="2" ry="2"/><rect class="c" x="434" y="2" rx="2" ry="2"/><rect class="c" x="434" y="18" rx="2" ry="2"/><rect class="c" x="434" y="34" rx="2" ry="2"/><rect class="c" x="434" y="50" rx="2" ry="2"/><rect class="c" x="434" y="66" rx="2" ry="2"/><rect class="c" x="434" y="82" rx="2" ry="2"/><rect class="c" x="434" y="98" rx="2" ry="2"/><rect class="c" x="450" y="2" rx="2" ry="2"/><rect class="c" x="450" y="18" rx="2" ry="2"/><rect class="c" x="450" y="34" rx="2" ry="2"/><rect class="c" x="450" y="50" rx="2" ry="2"/><rect class="c" x="450" y="66" rx="2" ry="2"/><rect class="c" x="450" y="82" rx="2" ry="2"/><rect class="c" x="450" y="98" rx="2" ry="2"/><rect class="c" x="466" y="2" rx="2" ry="2"/><rect class="c" x="466" y="18" rx="2" ry="2"/><rect class="c" x="466" y="34" rx="2" ry="2"/><rect class="c" x="466" y="50" rx="2" ry="2"/><rect class="c" x="466" y="66" rx="2" ry="2"/><rect class="c" x="466" y="82" rx="2" ry="2"/><rect class="c" x="466" y="98" rx="2" ry="2"/><rect class="c" x="482" y="2" rx="2" ry="2"/><rect class="c" x="482" y="18" rx="2" ry="2"/><rect class="c" x="482" y="34" rx="2" ry="2"/><rect class="c" x="482" y="50" rx="2" ry="2"/><rect class="c" x="482" y="66" rx="2" ry="2"/><rect class="c" x="482" y="82" rx="2" ry="2"/><rect class="c" x="482" y="98" rx="2" ry="2"/><rect class="c" x="498" y="2" rx="2" ry="2"/><rect class="c" x="498" y="18" rx="2" ry="2"/><rect class="c" x="498" y="34" rx="2" ry="2"/><rect class="c" x="498" y="50" rx="2" ry="2"/><rect class="c" x="498" y="66" rx="2" ry="2"/><rect class="c" x="498" y="82" rx="2" ry="2"/><rect class="c" x="498" y="98" rx="2" ry="2"/><rect class="c" x="514" y="2" rx="2" ry="2"/><rect class="c" x="514" y="18" rx="2" ry="2"/><rect class="c" x="514" y="34" rx="2" ry="2"/><rect class="c" x="514" y="50" rx="2" ry="2"/><rect class="c" x="514" y="66" rx="2" ry="2"/><rect class="c" x="514" y="82" rx="2" ry="2"/><rect class="c" x="514" y="98" rx="2" ry="2"/><rect class="c" x="530" y="2" rx="2" ry="2"/><rect class="c" x="530" y="18" rx="2" ry="2"/><rect class="c" x="530" y="34" rx="2" ry="2"/><rect class="c" x="530" y="50" rx="2" ry="2"/><rect class="c" x="530" y="66" rx="2" ry="2"/><rect class="c" x="530" y="82" rx="2" ry="2"/><rect class="c" x="530" y="98" rx="2" ry="2"/><rect class="c" x="546" y="2" rx="2" ry="2"/><rect class="c" x="546" y="18" rx="2" ry="2"/><rect class="c" x="546" y="34" rx="2" ry="2"/><rect class="c" x="546" y="50" rx="2" ry="2"/><rect class="c" x="546" y="66" rx="2" ry="2"/><rect class="c" x="546" y="82" rx="2" ry="2"/><rect class="c" x="546" y="98" rx="2" ry="2"/><rect class="c" x="562" y="2" rx="2" ry="2"/><rect class="c" x="562" y="18" rx="2" ry="2"/><rect class="c" x="562" y="34" rx="2" ry="2"/><rect class="c" x="562" y="50" rx="2" ry="2"/><rect class="c c7" x="562" y="66" rx="2" ry="2"/><rect class="c" x="562" y="82" rx="2" ry="2"/><rect class="c c8" x="562" y="98" rx="2" ry="2"/><rect class="c c9" x="578" y="2" rx="2" ry="2"/><rect class="c" x="578" y="18" rx="2" ry="2"/><rect class="c" x="578" y="34" rx="2" ry="2"/><rect class="c ca" x="578" y="50" rx="2" ry="2"/><rect class="c" x="578" y="66" rx="2" ry="2"/><rect class="c" x="578" y="82" rx="2" ry="2"/><rect class="c" x="578" y="98" rx="2" ry="2"/><rect class="c" x="594" y="2" rx="2" ry="2"/><rect class="c cb" x="594" y="18" rx="2" ry="2"/><rect class="c" x="594" y="34" rx="2" ry="2"/><rect class="c" x="594" y="50" rx="2" ry="2"/><rect class="c" x="594" y="66" rx="2" ry="2"/><rect class="c cc" x="594" y="82" rx="2" ry="2"/><rect class="c cd" x="594" y="98" rx="2" ry="2"/><rect class="c" x="610" y="2" rx="2" ry="2"/><rect class="c" x="610" y="18" rx="2" ry="2"/><rect class="c" x="610" y="34" rx="2" ry="2"/><rect class="c" x="610" y="50" rx="2" ry="2"/><rect class="c" x="610" y="66" rx="2" ry="2"/><rect class="c" x="610" y="82" rx="2" ry="2"/><rect class="c" x="610" y="98" rx="2" ry="2"/><rect class="c" x="626" y="2" rx="2" ry="2"/><rect class="c" x="626" y="18" rx="2" ry="2"/><rect class="c ce" x="626" y="34" rx="2" ry="2"/><rect class="c cf" x="626" y="50" rx="2" ry="2"/><rect class="c cg" x="626" y="66" rx="2" ry="2"/><rect class="c ch" x="626" y="82" rx="2" ry="2"/><rect class="c ci" x="626" y="98" rx="2" ry="2"/><rect class="c cj" x="642" y="2" rx="2" ry="2"/><rect class="c ck" x="642" y="18" rx="2" ry="2"/><rect class="c cl" x="642" y="34" rx="2" ry="2"/><rect class="c cm" x="642" y="50" rx="2" ry="2"/><rect class="c cn" x="642" y="66" rx="2" ry="2"/><rect class="c co" x="642" y="82" rx="2" ry="2"/><rect class="c cp" x="642" y="98" rx="2" ry="2"/><rect class="c cq" x="658" y="2" rx="2" ry="2"/><rect class="c cr" x="658" y="18" rx="2" ry="2"/><rect class="c cs" x="658" y="34" rx="2" ry="2"/><rect class="c ct" x="658" y="50" rx="2" ry="2"/><rect class="c cu" x="658" y="66" rx="2" ry="2"/><rect class="c cv" x="658" y="82" rx="2" ry="2"/><rect class="c cw" x="658" y="98" rx="2" ry="2"/><rect class="c cx" x="674" y="2" rx="2" ry="2"/><rect class="c cy" x="674" y="18" rx="2" ry="2"/><rect class="c cz" x="674" y="34" rx="2" ry="2"/><rect class="c c10" x="674" y="50" rx="2" ry="2"/><rect class="c c11" x="674" y="66" rx="2" ry="2"/><rect class="c c12" x="674" y="82" rx="2" ry="2"/><rect class="c c13" x="674" y="98" rx="2" ry="2"/><rect class="c c14" x="690" y="2" rx="2" ry="2"/><rect class="c c15" x="690" y="18" rx="2" ry="2"/><rect class="c c16" x="690" y="34" rx="2" ry="2"/><rect class="c c17" x="690" y="50" rx="2" ry="2"/><rect class="c c18" x="690" y="66" rx="2" ry="2"/><rect class="c c19" x="690" y="82" rx="2" ry="2"/><rect class="c c1a" x="690" y="98" rx="2" ry="2"/><rect class="c c1b" x="706" y="2" rx="2" ry="2"/><rect class="c c1c" x="706" y="18" rx="2" ry="2"/><rect class="c c1d" x="706" y="34" rx="2" ry="2"/><rect class="c c1e" x="706" y="50" rx="2" ry="2"/><rect class="c c1f" x="706" y="66" rx="2" ry="2"/><rect class="c c1g" x="706" y="82" rx="2" ry="2"/><rect class="c c1h" x="706" y="98" rx="2" ry="2"/><rect class="c c1i" x="722" y="2" rx="2" ry="2"/><rect class="c c1j" x="722" y="18" rx="2" ry="2"/><rect class="c c1k" x="722" y="34" rx="2" ry="2"/><rect class="c c1l" x="722" y="50" rx="2" ry="2"/><rect class="c c1m" x="722" y="66" rx="2" ry="2"/><rect class="c c1n" x="722" y="82" rx="2" ry="2"/><rect class="c c1o" x="722" y="98" rx="2" ry="2"/><rect class="c c1p" x="738" y="2" rx="2" ry="2"/><rect class="c c1q" x="738" y="18" rx="2" ry="2"/><rect class="c c1r" x="738" y="34" rx="2" ry="2"/><rect class="c c1s" x="738" y="50" rx="2" ry="2"/><rect class="c c1t" x="738" y="66" rx="2" ry="2"/><rect class="c c1u" x="738" y="82" rx="2" ry="2"/><rect class="c c1v" x="738" y="98" rx="2" ry="2"/><rect class="c c1w" x="754" y="2" rx="2" ry="2"/><rect class="c c1x" x="754" y="18" rx="2" ry="2"/><rect class="c c1y" x="754" y="34" rx="2" ry="2"/><rect class="c c1z" x="754" y="50" rx="2" ry="2"/><rect class="c c20" x="754" y="66" rx="2" ry="2"/><rect class="c c21" x="754" y="82" rx="2" ry="2"/><rect class="c c22" x="754" y="98" rx="2" ry="2"/><rect class="c c23" x="770" y="2" rx="2" ry="2"/><rect class="c c24" x="770" y="18" rx="2" ry="2"/><rect class="c c25" x="770" y="34" rx="2" ry="2"/><rect class="c c26" x="770" y="50" rx="2" ry="2"/><rect class="c c27" x="770" y="66" rx="2" ry="2"/><rect class="c c28" x="770" y="82" rx="2" ry="2"/><rect class="c c29" x="770" y="98" rx="2" ry="2"/><rect class="c c2a" x="786" y="2" rx="2" ry="2"/><rect class="c c2b" x="786" y="18" rx="2" ry="2"/><rect class="c c2c" x="786" y="34" rx="2" ry="2"/><rect class="c c2d" x="786" y="50" rx="2" ry="2"/><rect class="c c2e" x="786" y="66" rx="2" ry="2"/><rect class="c c2f" x="786" y="82" rx="2" ry="2"/><rect class="c c2g" x="786" y="98" rx="2" ry="2"/><rect class="c c2h" x="802" y="2" rx="2" ry="2"/><rect class="c c2i" x="802" y="18" rx="2" ry="2"/><rect class="c c2j" x="802" y="34" rx="2" ry="2"/><rect class="c c2k" x="802" y="50" rx="2" ry="2"/><rect class="c c2l" x="802" y="66" rx="2" ry="2"/><rect class="c c2m" x="802" y="82" rx="2" ry="2"/><rect class="c c2n" x="802" y="98" rx="2" ry="2"/><rect class="c c2o" x="818" y="2" rx="2" ry="2"/><rect class="c c2p" x="818" y="18" rx="2" ry="2"/><rect class="c c2q" x="818" y="34" rx="2" ry="2"/><rect class="c c2r" x="818" y="50" rx="2" ry="2"/><rect class="c c2s" x="818" y="66" rx="2" ry="2"/><rect class="c c2t" x="818" y="82" rx="2" ry="2"/><rect class="c c2u" x="818" y="98" rx="2" ry="2"/><rect class="c c2v" x="834" y="2" rx="2" ry="2"/><rect class="c c2w" x="834" y="18" rx="2" ry="2"/><rect class="c c2x" x="834" y="34" rx="2" ry="2"/><rect class="u u0" height="12" width="80.6" x="0.0" y="144"/><rect class="u u1" height="12" width="432.6" x="80.0" y="144"/><rect class="u u2" height="12" width="336.6" x="512.0" y="144"/><rect class="s s0" x="0.8" y="0.8" width="14.4" height="14.4" rx="4.5" ry="4.5"/><rect class="s s1" x="1.8" y="1.8" width="12.3" height="12.3" rx="4.1" ry="4.1"/><rect class="s s2" x="2.6" y="2.6" width="10.8" height="10.8" rx="3.6" ry="3.6"/><rect class="s s3" x="3.0" y="3.0" width="9.9" height="9.9" rx="3.3" ry="3.3"/></svg>