<svg viewBox="-16 -32 880 192" width="880" height="192" xmlns="http://www.w3.org/2000/svg"><desc>Generated with https://github.com/Platane/snk</desc><style>:root{--cb:#1b1f230a;--cs:purple;--ce:#ebedf0;--c0:#ebedf0;--c1:#9be9a8;--c2:#40c463;--c3:#30a14e;--c4:#216e39}.c{shape-rendering:geometricPrecision;fill:var(--ce);stroke-width:1px;stroke:var(--cb);animation:none 32700ms linear infinite;width:12px;height:12px}@keyframes c0{5.8%{fill:var(--c1)}5.82%,100%{fill:var(--ce)}}.c.c0{fill:var(--c1);animation-name:c0}@keyframes c1{56.87%{fill:var(--c2)}56.89%,100%{fill:var(--ce)}}.c.c1{fill:var(--c2);animation-name:c1}@keyframes c2{3.66%{fill:var(--c1)}3.68%,100%{fill:var(--ce)}}.c.c2{fill:var(--c1);animation-name:c2}@keyframes c3{3.97%{fill:var(--c1)}3.99%,100%{fill:var(--ce)}}.c.c3{fill:var(--c1);animation-name:c3}@keyframes c4{54.12%{fill:var(--c2)}54.14%,100%{fill:var(--ce)}}.c.c4{fill:var(--c2);animation-name:c4}@keyframes c5{62.07%{fill:var(--c4)}62.09%,100%{fill:var(--ce)}}.c.c5{fill:var(--c4);animation-name:c5}@keyframes c6{11.3%{fill:var(--c1)}11.32%,100%{fill:var(--ce)}}.c.c6{fill:var(--c1);animation-name:c6}@keyframes c7{15.28%{fill:var(--c1)}15.3%,100%{fill:var(--ce)}}.c.c7{fill:var(--c1);animation-name:c7}@keyframes c8{47.7%{fill:var(--c2)}47.72%,100%{fill:var(--ce)}}.c.c8{fill:var(--c2);animation-name:c8}@keyframes c9{88.37%{fill:var(--c4)}88.39%,100%{fill:var(--ce)}}.c.c9{fill:var(--c4);animation-name:c9}@keyframes ca{14.67%{fill:var(--c1)}14.69%,100%{fill:var(--ce)}}.c.ca{fill:var(--c1);animation-name:ca}@keyframes cb{18.64%{fill:var(--c1)}18.66%,100%{fill:var(--ce)}}.c.cb{fill:var(--c1);animation-name:cb}@keyframes cc{16.2%{fill:var(--c1)}16.22%,100%{fill:var(--ce)}}.c.cc{fill:var(--c1);animation-name:cc}@keyframes cd{16.5%{fill:var(--c1)}16.52%,100%{fill:var(--ce)}}.c.cd{fill:var(--c1);animation-name:cd}@keyframes ce{67.27%{fill:var(--c4)}67.29%,100%{fill:var(--ce)}}.c.ce{fill:var(--c4);animation-name:ce}@keyframes cf{66.96%{fill:var(--c4)}66.98%,100%{fill:var(--ce)}}.c.cf{fill:var(--c4);animation-name:cf}@keyframes cg{43.42%{fill:var(--c2)}43.44%,100%{fill:var(--ce)}}.c.cg{fill:var(--c2);animation-name:cg}@keyframes ch{43.72%{fill:var(--c2)}43.74%,100%{fill:var(--ce)}}.c.ch{fill:var(--c2);animation-name:ch}@keyframes ci{46.47%{fill:var(--c2)}46.49%,100%{fill:var(--ce)}}.c.ci{fill:var(--c2);animation-name:ci}@keyframes cj{33.93%{fill:var(--c2)}33.95%,100%{fill:var(--ce)}}.c.cj{fill:var(--c2);animation-name:cj}@keyframes ck{34.24%{fill:var(--c2)}34.26%,100%{fill:var(--ce)}}.c.ck{fill:var(--c2);animation-name:ck}@keyframes cl{34.55%{fill:var(--c2)}34.57%,100%{fill:var(--ce)}}.c.cl{fill:var(--c2);animation-name:cl}@keyframes cm{42.8%{fill:var(--c2)}42.82%,100%{fill:var(--ce)}}.c.cm{fill:var(--c2);animation-name:cm}@keyframes cn{43.11%{fill:var(--c2)}43.13%,100%{fill:var(--ce)}}.c.cn{fill:var(--c2);animation-name:cn}@keyframes co{44.03%{fill:var(--c2)}44.05%,100%{fill:var(--ce)}}.c.co{fill:var(--c2);animation-name:co}@keyframes cp{46.17%{fill:var(--c2)}46.19%,100%{fill:var(--ce)}}.c.cp{fill:var(--c2);animation-name:cp}@keyframes cq{33.63%{fill:var(--c2)}33.65%,100%{fill:var(--ce)}}.c.cq{fill:var(--c2);animation-name:cq}@keyframes cr{68.19%{fill:var(--c4)}68.21%,100%{fill:var(--ce)}}.c.cr{fill:var(--c4);animation-name:cr}@keyframes cs{34.85%{fill:var(--c2)}34.87%,100%{fill:var(--ce)}}.c.cs{fill:var(--c2);animation-name:cs}@keyframes ct{42.5%{fill:var(--c2)}42.52%,100%{fill:var(--ce)}}.c.ct{fill:var(--c2);animation-name:ct}@keyframes cu{42.19%{fill:var(--c2)}42.21%,100%{fill:var(--ce)}}.c.cu{fill:var(--c2);animation-name:cu}@keyframes cv{44.33%{fill:var(--c2)}44.35%,100%{fill:var(--ce)}}.c.cv{fill:var(--c2);animation-name:cv}@keyframes cw{44.64%{fill:var(--c2)}44.66%,100%{fill:var(--ce)}}.c.cw{fill:var(--c2);animation-name:cw}@keyframes cx{33.32%{fill:var(--c2)}33.34%,100%{fill:var(--ce)}}.c.cx{fill:var(--c2);animation-name:cx}@keyframes cy{37.3%{fill:var(--c2)}37.32%,100%{fill:var(--ce)}}.c.cy{fill:var(--c2);animation-name:cy}@keyframes cz{35.16%{fill:var(--c2)}35.18%,100%{fill:var(--ce)}}.c.cz{fill:var(--c2);animation-name:cz}@keyframes c10{37.91%{fill:var(--c2)}37.93%,100%{fill:var(--ce)}}.c.c10{fill:var(--c2);animation-name:c10}@keyframes c11{41.89%{fill:var(--c2)}41.91%,100%{fill:var(--ce)}}.c.c11{fill:var(--c2);animation-name:c11}@keyframes c12{41.58%{fill:var(--c2)}41.6%,100%{fill:var(--ce)}}.c.c12{fill:var(--c2);animation-name:c12}@keyframes c13{44.94%{fill:var(--c2)}44.96%,100%{fill:var(--ce)}}.c.c13{fill:var(--c2);animation-name:c13}@keyframes c14{33.02%{fill:var(--c2)}33.04%,100%{fill:var(--ce)}}.c.c14{fill:var(--c2);animation-name:c14}@keyframes c15{36.99%{fill:var(--c2)}37.01%,100%{fill:var(--ce)}}.c.c15{fill:var(--c2);animation-name:c15}@keyframes c16{35.46%{fill:var(--c2)}35.48%,100%{fill:var(--ce)}}.c.c16{fill:var(--c2);animation-name:c16}@keyframes c17{38.22%{fill:var(--c2)}38.24%,100%{fill:var(--ce)}}.c.c17{fill:var(--c2);animation-name:c17}@keyframes c18{69.71%{fill:var(--c4)}69.73%,100%{fill:var(--ce)}}.c.c18{fill:var(--c4);animation-name:c18}@keyframes c19{41.27%{fill:var(--c2)}41.29%,100%{fill:var(--ce)}}.c.c19{fill:var(--c2);animation-name:c19}@keyframes c1a{40.97%{fill:var(--c2)}40.99%,100%{fill:var(--ce)}}.c.c1a{fill:var(--c2);animation-name:c1a}@keyframes c1b{32.71%{fill:var(--c2)}32.73%,100%{fill:var(--ce)}}.c.c1b{fill:var(--c2);animation-name:c1b}@keyframes c1c{36.69%{fill:var(--c2)}36.71%,100%{fill:var(--ce)}}.c.c1c{fill:var(--c2);animation-name:c1c}@keyframes c1d{35.77%{fill:var(--c2)}35.79%,100%{fill:var(--ce)}}.c.c1d{fill:var(--c2);animation-name:c1d}@keyframes c1e{38.52%{fill:var(--c2)}38.54%,100%{fill:var(--ce)}}.c.c1e{fill:var(--c2);animation-name:c1e}@keyframes c1f{39.44%{fill:var(--c2)}39.46%,100%{fill:var(--ce)}}.c.c1f{fill:var(--c2);animation-name:c1f}@keyframes c1g{39.75%{fill:var(--c2)}39.77%,100%{fill:var(--ce)}}.c.c1g{fill:var(--c2);animation-name:c1g}@keyframes c1h{40.66%{fill:var(--c2)}40.68%,100%{fill:var(--ce)}}.c.c1h{fill:var(--c2);animation-name:c1h}@keyframes c1i{32.41%{fill:var(--c2)}32.43%,100%{fill:var(--ce)}}.c.c1i{fill:var(--c2);animation-name:c1i}@keyframes c1j{36.38%{fill:var(--c2)}36.4%,100%{fill:var(--ce)}}.c.c1j{fill:var(--c2);animation-name:c1j}@keyframes c1k{36.08%{fill:var(--c2)}36.1%,100%{fill:var(--ce)}}.c.c1k{fill:var(--c2);animation-name:c1k}@keyframes c1l{38.83%{fill:var(--c2)}38.85%,100%{fill:var(--ce)}}.c.c1l{fill:var(--c2);animation-name:c1l}@keyframes c1m{39.13%{fill:var(--c2)}39.15%,100%{fill:var(--ce)}}.c.c1m{fill:var(--c2);animation-name:c1m}@keyframes c1n{40.05%{fill:var(--c2)}40.07%,100%{fill:var(--ce)}}.c.c1n{fill:var(--c2);animation-name:c1n}@keyframes c1o{40.36%{fill:var(--c2)}40.38%,100%{fill:var(--ce)}}.c.c1o{fill:var(--c2);animation-name:c1o}@keyframes c1p{30.88%{fill:var(--c2)}30.9%,100%{fill:var(--ce)}}.c.c1p{fill:var(--c2);animation-name:c1p}@keyframes c1q{30.57%{fill:var(--c2)}30.59%,100%{fill:var(--ce)}}.c.c1q{fill:var(--c2);animation-name:c1q}@keyframes c1r{30.27%{fill:var(--c2)}30.29%,100%{fill:var(--ce)}}.c.c1r{fill:var(--c2);animation-name:c1r}@keyframes c1s{29.96%{fill:var(--c2)}29.98%,100%{fill:var(--ce)}}.c.c1s{fill:var(--c2);animation-name:c1s}@keyframes c1t{29.65%{fill:var(--c2)}29.67%,100%{fill:var(--ce)}}.c.c1t{fill:var(--c2);animation-name:c1t}@keyframes c1u{29.35%{fill:var(--c2)}29.37%,100%{fill:var(--ce)}}.c.c1u{fill:var(--c2);animation-name:c1u}@keyframes c1v{29.04%{fill:var(--c2)}29.06%,100%{fill:var(--ce)}}.c.c1v{fill:var(--c2);animation-name:c1v}@keyframes c1w{31.18%{fill:var(--c2)}31.2%,100%{fill:var(--ce)}}.c.c1w{fill:var(--c2);animation-name:c1w}@keyframes c1x{77.97%{fill:var(--c4)}77.99%,100%{fill:var(--ce)}}.c.c1x{fill:var(--c4);animation-name:c1x}@keyframes c1y{77.67%{fill:var(--c4)}77.69%,100%{fill:var(--ce)}}.c.c1y{fill:var(--c4);animation-name:c1y}@keyframes c1z{84.09%{fill:var(--c4)}84.11%,100%{fill:var(--ce)}}.c.c1z{fill:var(--c4);animation-name:c1z}@keyframes c20{70.94%{fill:var(--c4)}70.96%,100%{fill:var(--ce)}}.c.c20{fill:var(--c4);animation-name:c20}@keyframes c21{82.25%{fill:var(--c4)}82.27%,100%{fill:var(--ce)}}.c.c21{fill:var(--c4);animation-name:c21}@keyframes c22{82.56%{fill:var(--c4)}82.58%,100%{fill:var(--ce)}}.c.c22{fill:var(--c4);animation-name:c22}@keyframes c23{74.91%{fill:var(--c4)}74.93%,100%{fill:var(--ce)}}.c.c23{fill:var(--c4);animation-name:c23}@keyframes c24{75.22%{fill:var(--c4)}75.24%,100%{fill:var(--ce)}}.c.c24{fill:var(--c4);animation-name:c24}@keyframes c25{77.36%{fill:var(--c4)}77.38%,100%{fill:var(--ce)}}.c.c25{fill:var(--c4);animation-name:c25}@keyframes c26{78.89%{fill:var(--c4)}78.91%,100%{fill:var(--ce)}}.c.c26{fill:var(--c4);animation-name:c26}@keyframes c27{71.24%{fill:var(--c4)}71.26%,100%{fill:var(--ce)}}.c.c27{fill:var(--c4);animation-name:c27}@keyframes c28{81.95%{fill:var(--c4)}81.97%,100%{fill:var(--ce)}}.c.c28{fill:var(--c4);animation-name:c28}@keyframes c29{82.86%{fill:var(--c4)}82.88%,100%{fill:var(--ce)}}.c.c29{fill:var(--c4);animation-name:c29}@keyframes c2a{74.61%{fill:var(--c4)}74.63%,100%{fill:var(--ce)}}.c.c2a{fill:var(--c4);animation-name:c2a}@keyframes c2b{75.53%{fill:var(--c4)}75.55%,100%{fill:var(--ce)}}.c.c2b{fill:var(--c4);animation-name:c2b}@keyframes c2c{77.05%{fill:var(--c4)}77.07%,100%{fill:var(--ce)}}.c.c2c{fill:var(--c4);animation-name:c2c}@keyframes c2d{79.19%{fill:var(--c4)}79.21%,100%{fill:var(--ce)}}.c.c2d{fill:var(--c4);animation-name:c2d}@keyframes c2e{71.55%{fill:var(--c4)}71.57%,100%{fill:var(--ce)}}.c.c2e{fill:var(--c4);animation-name:c2e}@keyframes c2f{81.64%{fill:var(--c4)}81.66%,100%{fill:var(--ce)}}.c.c2f{fill:var(--c4);animation-name:c2f}@keyframes c2g{81.34%{fill:var(--c4)}81.36%,100%{fill:var(--ce)}}.c.c2g{fill:var(--c4);animation-name:c2g}@keyframes c2h{74.3%{fill:var(--c4)}74.32%,100%{fill:var(--ce)}}.c.c2h{fill:var(--c4);animation-name:c2h}@keyframes c2i{75.83%{fill:var(--c4)}75.85%,100%{fill:var(--ce)}}.c.c2i{fill:var(--c4);animation-name:c2i}@keyframes c2j{76.75%{fill:var(--c4)}76.77%,100%{fill:var(--ce)}}.c.c2j{fill:var(--c4);animation-name:c2j}@keyframes c2k{79.5%{fill:var(--c4)}79.52%,100%{fill:var(--ce)}}.c.c2k{fill:var(--c4);animation-name:c2k}@keyframes c2l{71.86%{fill:var(--c4)}71.88%,100%{fill:var(--ce)}}.c.c2l{fill:var(--c4);animation-name:c2l}@keyframes c2m{80.11%{fill:var(--c4)}80.13%,100%{fill:var(--ce)}}.c.c2m{fill:var(--c4);animation-name:c2m}@keyframes c2n{81.03%{fill:var(--c4)}81.05%,100%{fill:var(--ce)}}.c.c2n{fill:var(--c4);animation-name:c2n}@keyframes c2o{74%{fill:var(--c4)}74.02%,100%{fill:var(--ce)}}.c.c2o{fill:var(--c4);animation-name:c2o}@keyframes c2p{76.14%{fill:var(--c4)}76.16%,100%{fill:var(--ce)}}.c.c2p{fill:var(--c4);animation-name:c2p}@keyframes c2q{76.44%{fill:var(--c4)}76.46%,100%{fill:var(--ce)}}.c.c2q{fill:var(--c4);animation-name:c2q}@keyframes c2r{72.47%{fill:var(--c4)}72.49%,100%{fill:var(--ce)}}.c.c2r{fill:var(--c4);animation-name:c2r}@keyframes c2s{72.16%{fill:var(--c4)}72.18%,100%{fill:var(--ce)}}.c.c2s{fill:var(--c4);animation-name:c2s}@keyframes c2t{80.42%{fill:var(--c4)}80.44%,100%{fill:var(--ce)}}.c.c2t{fill:var(--c4);animation-name:c2t}@keyframes c2u{80.72%{fill:var(--c4)}80.74%,100%{fill:var(--ce)}}.c.c2u{fill:var(--c4);animation-name:c2u}@keyframes c2v{73.69%{fill:var(--c4)}73.71%,100%{fill:var(--ce)}}.c.c2v{fill:var(--c4);animation-name:c2v}@keyframes c2w{73.38%{fill:var(--c4)}73.4%,100%{fill:var(--ce)}}.c.c2w{fill:var(--c4);animation-name:c2w}@keyframes c2x{73.08%{fill:var(--c4)}73.1%,100%{fill:var(--ce)}}.c.c2x{fill:var(--c4);animation-name:c2x}@keyframes c2y{72.77%{fill:var(--c4)}72.79%,100%{fill:var(--ce)}}.c.c2y{fill:var(--c4);animation-name:c2y}@keyframes c2z{25.98%{fill:var(--c1)}26%,100%{fill:var(--ce)}}.c.c2z{fill:var(--c1);animation-name:c2z}.u{transform-origin:0 0;transform:scale(0,1);animation:none linear 32700ms infinite}@keyframes u0{3.66%{transform:scale(0.000,1)}3.68%,3.97%{transform:scale(0.100,1)}3.99%,5.8%{transform:scale(0.200,1)}5.82%,11.3%{transform:scale(0.300,1)}11.32%,14.67%{transform:scale(0.400,1)}14.69%,15.28%{transform:scale(0.500,1)}15.3%,16.2%{transform:scale(0.600,1)}16.22%,16.5%{transform:scale(0.700,1)}16.52%,18.64%{transform:scale(0.800,1)}18.66%,25.98%{transform:scale(0.900,1)}26%,100%{transform:scale(1.000,1)}}.u.u0{fill:var(--c1);animation-name:u0;transform-origin:0.0px 0}@keyframes u1{29.04%{transform:scale(0.000,1)}29.06%,29.35%{transform:scale(0.019,1)}29.37%,29.65%{transform:scale(0.037,1)}29.67%,29.96%{transform:scale(0.056,1)}29.98%,30.27%{transform:scale(0.074,1)}30.29%,30.57%{transform:scale(0.093,1)}30.59%,30.88%{transform:scale(0.111,1)}30.9%,31.18%{transform:scale(0.130,1)}31.2%,32.41%{transform:scale(0.148,1)}32.43%,32.71%{transform:scale(0.167,1)}32.73%,33.02%{transform:scale(0.185,1)}33.04%,33.32%{transform:scale(0.204,1)}33.34%,33.63%{transform:scale(0.222,1)}33.65%,33.93%{transform:scale(0.241,1)}33.95%,34.24%{transform:scale(0.259,1)}34.26%,34.55%{transform:scale(0.278,1)}34.57%,34.85%{transform:scale(0.296,1)}34.87%,35.16%{transform:scale(0.315,1)}35.18%,35.46%{transform:scale(0.333,1)}35.48%,35.77%{transform:scale(0.352,1)}35.79%,36.08%{transform:scale(0.370,1)}36.1%,36.38%{transform:scale(0.389,1)}36.4%,36.69%{transform:scale(0.407,1)}36.71%,36.99%{transform:scale(0.426,1)}37.01%,37.3%{transform:scale(0.444,1)}37.32%,37.91%{transform:scale(0.463,1)}37.93%,38.22%{transform:scale(0.481,1)}38.24%,38.52%{transform:scale(0.500,1)}38.54%,38.83%{transform:scale(0.519,1)}38.85%,39.13%{transform:scale(0.537,1)}39.15%,39.44%{transform:scale(0.556,1)}39.46%,39.75%{transform:scale(0.574,1)}39.77%,40.05%{transform:scale(0.593,1)}40.07%,40.36%{transform:scale(0.611,1)}40.38%,40.66%{transform:scale(0.630,1)}40.68%,40.97%{transform:scale(0.648,1)}40.99%,41.27%{transform:scale(0.667,1)}41.29%,41.58%{transform:scale(0.685,1)}41.6%,41.89%{transform:scale(0.704,1)}41.91%,42.19%{transform:scale(0.722,1)}42.21%,42.5%{transform:scale(0.741,1)}42.52%,42.8%{transform:scale(0.759,1)}42.82%,43.11%{transform:scale(0.778,1)}43.13%,43.42%{transform:scale(0.796,1)}43.44%,43.72%{transform:scale(0.815,1)}43.74%,44.03%{transform:scale(0.833,1)}44.05%,44.33%{transform:scale(0.852,1)}44.35%,44.64%{transform:scale(0.870,1)}44.66%,44.94%{transform:scale(0.889,1)}44.96%,46.17%{transform:scale(0.907,1)}46.19%,46.47%{transform:scale(0.926,1)}46.49%,47.7%{transform:scale(0.944,1)}47.72%,54.12%{transform:scale(0.963,1)}54.14%,56.87%{transform:scale(0.981,1)}56.89%,100%{transform:scale(1.000,1)}}.u.u1{fill:var(--c2);animation-name:u1;transform-origin:78.5px 0}@keyframes u2{62.07%{transform:scale(0.000,1)}62.09%,66.96%{transform:scale(0.023,1)}66.98%,67.27%{transform:scale(0.045,1)}67.29%,68.19%{transform:scale(0.068,1)}68.21%,69.71%{transform:scale(0.091,1)}69.73%,70.94%{transform:scale(0.114,1)}70.96%,71.24%{transform:scale(0.136,1)}71.26%,71.55%{transform:scale(0.159,1)}71.57%,71.86%{transform:scale(0.182,1)}71.88%,72.16%{transform:scale(0.205,1)}72.18%,72.47%{transform:scale(0.227,1)}72.49%,72.77%{transform:scale(0.250,1)}72.79%,73.08%{transform:scale(0.273,1)}73.1%,73.38%{transform:scale(0.295,1)}73.4%,73.69%{transform:scale(0.318,1)}73.71%,74%{transform:scale(0.341,1)}74.02%,74.3%{transform:scale(0.364,1)}74.32%,74.61%{transform:scale(0.386,1)}74.63%,74.91%{transform:scale(0.409,1)}74.93%,75.22%{transform:scale(0.432,1)}75.24%,75.53%{transform:scale(0.455,1)}75.55%,75.83%{transform:scale(0.477,1)}75.85%,76.14%{transform:scale(0.500,1)}76.16%,76.44%{transform:scale(0.523,1)}76.46%,76.75%{transform:scale(0.545,1)}76.77%,77.05%{transform:scale(0.568,1)}77.07%,77.36%{transform:scale(0.591,1)}77.38%,77.67%{transform:scale(0.614,1)}77.69%,77.97%{transform:scale(0.636,1)}77.99%,78.89%{transform:scale(0.659,1)}78.91%,79.19%{transform:scale(0.682,1)}79.21%,79.5%{transform:scale(0.705,1)}79.52%,80.11%{transform:scale(0.727,1)}80.13%,80.42%{transform:scale(0.750,1)}80.44%,80.72%{transform:scale(0.773,1)}80.74%,81.03%{transform:scale(0.795,1)}81.05%,81.34%{transform:scale(0.818,1)}81.36%,81.64%{transform:scale(0.841,1)}81.66%,81.95%{transform:scale(0.864,1)}81.97%,82.25%{transform:scale(0.886,1)}82.27%,82.56%{transform:scale(0.909,1)}82.58%,82.86%{transform:scale(0.932,1)}82.88%,84.09%{transform:scale(0.955,1)}84.11%,88.37%{transform:scale(0.977,1)}88.39%,100%{transform:scale(1.000,1)}}.u.u2{fill:var(--c4);animation-name:u2;transform-origin:502.5px 0}.s{shape-rendering:geometricPrecision;fill:var(--cs);animation:none linear 32700ms infinite}@keyframes s0{0%,99.69%{transform:translate(0px,-16px)}0.31%{transform:translate(0px,0px)}3.67%{transform:translate(176px,0px)}3.98%{transform:translate(176px,16px)}4.59%{transform:translate(144px,16px)}5.81%{transform:translate(144px,80px)}10.7%{transform:translate(400px,80px)}11.31%{transform:translate(400px,48px)}14.68%{transform:translate(576px,48px)}14.98%{transform:translate(576px,64px)}15.29%{transform:translate(560px,64px)}15.6%,48.01%{transform:translate(560px,80px)}16.21%{transform:translate(592px,80px)}16.51%{transform:translate(592px,96px)}16.82%{transform:translate(608px,96px)}18.35%{transform:translate(608px,16px)}18.65%{transform:translate(592px,16px)}18.96%{transform:translate(592px,0px)}19.57%{transform:translate(624px,0px)}19.88%{transform:translate(624px,-16px)}24.16%{transform:translate(848px,-16px)}25.69%{transform:translate(848px,64px)}25.99%{transform:translate(832px,64px)}26.91%{transform:translate(832px,112px)}28.75%{transform:translate(736px,112px)}30.89%{transform:translate(736px,0px)}31.19%,85.02%{transform:translate(752px,0px)}31.5%{transform:translate(752px,-16px)}32.11%{transform:translate(720px,-16px)}32.42%{transform:translate(720px,0px)}33.94%{transform:translate(640px,0px)}34.56%{transform:translate(640px,32px)}36.09%{transform:translate(720px,32px)}36.39%{transform:translate(720px,16px)}37.31%{transform:translate(672px,16px)}37.92%{transform:translate(672px,48px)}38.84%{transform:translate(720px,48px)}39.14%{transform:translate(720px,64px)}39.45%{transform:translate(704px,64px)}39.76%{transform:translate(704px,80px)}40.06%{transform:translate(720px,80px)}40.37%{transform:translate(720px,96px)}40.98%{transform:translate(688px,96px)}41.28%{transform:translate(688px,80px)}41.59%,45.26%{transform:translate(672px,80px)}41.9%{transform:translate(672px,64px)}42.2%{transform:translate(656px,64px)}42.51%{transform:translate(656px,48px)}42.81%{transform:translate(640px,48px)}43.12%{transform:translate(640px,64px)}43.43%,66.67%{transform:translate(624px,64px)}43.73%{transform:translate(624px,80px)}44.34%{transform:translate(656px,80px)}44.65%{transform:translate(656px,96px)}44.95%{transform:translate(672px,96px)}45.87%{transform:translate(640px,80px)}46.18%{transform:translate(640px,96px)}47.71%{transform:translate(560px,96px)}51.68%{transform:translate(368px,80px)}51.99%{transform:translate(368px,64px)}56.27%{transform:translate(144px,64px)}56.88%{transform:translate(144px,96px)}61.47%{transform:translate(384px,96px)}62.08%{transform:translate(384px,64px)}67.28%{transform:translate(624px,32px)}67.89%{transform:translate(656px,32px)}68.2%{transform:translate(656px,16px)}68.81%{transform:translate(688px,16px)}69.72%{transform:translate(688px,64px)}72.17%{transform:translate(816px,64px)}72.48%{transform:translate(816px,48px)}72.78%{transform:translate(832px,48px)}73.7%{transform:translate(832px,0px)}74.92%{transform:translate(768px,0px)}75.23%,78.29%{transform:translate(768px,16px)}76.15%{transform:translate(816px,16px)}76.45%{transform:translate(816px,32px)}77.68%{transform:translate(752px,32px)}77.98%{transform:translate(752px,16px)}78.9%,83.79%{transform:translate(768px,48px)}79.51%{transform:translate(800px,48px)}80.12%{transform:translate(800px,80px)}80.43%{transform:translate(816px,80px)}80.73%{transform:translate(816px,96px)}81.35%{transform:translate(784px,96px)}81.65%{transform:translate(784px,80px)}82.26%{transform:translate(752px,80px)}82.57%{transform:translate(752px,96px)}82.87%{transform:translate(768px,96px)}84.1%{transform:translate(752px,48px)}98.17%{transform:translate(64px,0px)}98.47%{transform:translate(64px,-16px)}}.s.s0{transform:translate(0px,-16px);animation-name:s0}@keyframes s1{0%,99.69%{transform:translate(16px,-16px)}0.31%{transform:translate(0px,-16px)}0.61%{transform:translate(0px,0px)}3.98%{transform:translate(176px,0px)}4.28%{transform:translate(176px,16px)}4.89%{transform:translate(144px,16px)}6.12%{transform:translate(144px,80px)}11.01%{transform:translate(400px,80px)}11.62%{transform:translate(400px,48px)}14.98%{transform:translate(576px,48px)}15.29%{transform:translate(576px,64px)}15.6%{transform:translate(560px,64px)}15.9%,48.32%{transform:translate(560px,80px)}16.51%{transform:translate(592px,80px)}16.82%{transform:translate(592px,96px)}17.13%{transform:translate(608px,96px)}18.65%{transform:translate(608px,16px)}18.96%{transform:translate(592px,16px)}19.27%{transform:translate(592px,0px)}19.88%{transform:translate(624px,0px)}20.18%{transform:translate(624px,-16px)}24.46%{transform:translate(848px,-16px)}25.99%{transform:translate(848px,64px)}26.3%{transform:translate(832px,64px)}27.22%{transform:translate(832px,112px)}29.05%{transform:translate(736px,112px)}31.19%{transform:translate(736px,0px)}31.5%,85.32%{transform:translate(752px,0px)}31.8%{transform:translate(752px,-16px)}32.42%{transform:translate(720px,-16px)}32.72%{transform:translate(720px,0px)}34.25%{transform:translate(640px,0px)}34.86%{transform:translate(640px,32px)}36.39%{transform:translate(720px,32px)}36.7%{transform:translate(720px,16px)}37.61%{transform:translate(672px,16px)}38.23%{transform:translate(672px,48px)}39.14%{transform:translate(720px,48px)}39.45%{transform:translate(720px,64px)}39.76%{transform:translate(704px,64px)}40.06%{transform:translate(704px,80px)}40.37%{transform:translate(720px,80px)}40.67%{transform:translate(720px,96px)}41.28%{transform:translate(688px,96px)}41.59%{transform:translate(688px,80px)}41.9%,45.57%{transform:translate(672px,80px)}42.2%{transform:translate(672px,64px)}42.51%{transform:translate(656px,64px)}42.81%{transform:translate(656px,48px)}43.12%{transform:translate(640px,48px)}43.43%{transform:translate(640px,64px)}43.73%,66.97%{transform:translate(624px,64px)}44.04%{transform:translate(624px,80px)}44.65%{transform:translate(656px,80px)}44.95%{transform:translate(656px,96px)}45.26%{transform:translate(672px,96px)}46.18%{transform:translate(640px,80px)}46.48%{transform:translate(640px,96px)}48.01%{transform:translate(560px,96px)}51.99%{transform:translate(368px,80px)}52.29%{transform:translate(368px,64px)}56.57%{transform:translate(144px,64px)}57.19%{transform:translate(144px,96px)}61.77%{transform:translate(384px,96px)}62.39%{transform:translate(384px,64px)}67.58%{transform:translate(624px,32px)}68.2%{transform:translate(656px,32px)}68.5%{transform:translate(656px,16px)}69.11%{transform:translate(688px,16px)}70.03%{transform:translate(688px,64px)}72.48%{transform:translate(816px,64px)}72.78%{transform:translate(816px,48px)}73.09%{transform:translate(832px,48px)}74.01%{transform:translate(832px,0px)}75.23%{transform:translate(768px,0px)}75.54%,78.59%{transform:translate(768px,16px)}76.45%{transform:translate(816px,16px)}76.76%{transform:translate(816px,32px)}77.98%{transform:translate(752px,32px)}78.29%{transform:translate(752px,16px)}79.2%,84.1%{transform:translate(768px,48px)}79.82%{transform:translate(800px,48px)}80.43%{transform:translate(800px,80px)}80.73%{transform:translate(816px,80px)}81.04%{transform:translate(816px,96px)}81.65%{transform:translate(784px,96px)}81.96%{transform:translate(784px,80px)}82.57%{transform:translate(752px,80px)}82.87%{transform:translate(752px,96px)}83.18%{transform:translate(768px,96px)}84.4%{transform:translate(752px,48px)}98.47%{transform:translate(64px,0px)}98.78%{transform:translate(64px,-16px)}}.s.s1{transform:translate(16px,-16px);animation-name:s1}@keyframes s2{0%,99.69%{transform:translate(32px,-16px)}0.61%{transform:translate(0px,-16px)}0.92%{transform:translate(0px,0px)}4.28%{transform:translate(176px,0px)}4.59%{transform:translate(176px,16px)}5.2%{transform:translate(144px,16px)}6.42%{transform:translate(144px,80px)}11.31%{transform:translate(400px,80px)}11.93%{transform:translate(400px,48px)}15.29%{transform:translate(576px,48px)}15.6%{transform:translate(576px,64px)}15.9%{transform:translate(560px,64px)}16.21%,48.62%{transform:translate(560px,80px)}16.82%{transform:translate(592px,80px)}17.13%{transform:translate(592px,96px)}17.43%{transform:translate(608px,96px)}18.96%{transform:translate(608px,16px)}19.27%{transform:translate(592px,16px)}19.57%{transform:translate(592px,0px)}20.18%{transform:translate(624px,0px)}20.49%{transform:translate(624px,-16px)}24.77%{transform:translate(848px,-16px)}26.3%{transform:translate(848px,64px)}26.61%{transform:translate(832px,64px)}27.52%{transform:translate(832px,112px)}29.36%{transform:translate(736px,112px)}31.5%{transform:translate(736px,0px)}31.8%,85.63%{transform:translate(752px,0px)}32.11%{transform:translate(752px,-16px)}32.72%{transform:translate(720px,-16px)}33.03%{transform:translate(720px,0px)}34.56%{transform:translate(640px,0px)}35.17%{transform:translate(640px,32px)}36.7%{transform:translate(720px,32px)}37%{transform:translate(720px,16px)}37.92%{transform:translate(672px,16px)}38.53%{transform:translate(672px,48px)}39.45%{transform:translate(720px,48px)}39.76%{transform:translate(720px,64px)}40.06%{transform:translate(704px,64px)}40.37%{transform:translate(704px,80px)}40.67%{transform:translate(720px,80px)}40.98%{transform:translate(720px,96px)}41.59%{transform:translate(688px,96px)}41.9%{transform:translate(688px,80px)}42.2%,45.87%{transform:translate(672px,80px)}42.51%{transform:translate(672px,64px)}42.81%{transform:translate(656px,64px)}43.12%{transform:translate(656px,48px)}43.43%{transform:translate(640px,48px)}43.73%{transform:translate(640px,64px)}44.04%,67.28%{transform:translate(624px,64px)}44.34%{transform:translate(624px,80px)}44.95%{transform:translate(656px,80px)}45.26%{transform:translate(656px,96px)}45.57%{transform:translate(672px,96px)}46.48%{transform:translate(640px,80px)}46.79%{transform:translate(640px,96px)}48.32%{transform:translate(560px,96px)}52.29%{transform:translate(368px,80px)}52.6%{transform:translate(368px,64px)}56.88%{transform:translate(144px,64px)}57.49%{transform:translate(144px,96px)}62.08%{transform:translate(384px,96px)}62.69%{transform:translate(384px,64px)}67.89%{transform:translate(624px,32px)}68.5%{transform:translate(656px,32px)}68.81%{transform:translate(656px,16px)}69.42%{transform:translate(688px,16px)}70.34%{transform:translate(688px,64px)}72.78%{transform:translate(816px,64px)}73.09%{transform:translate(816px,48px)}73.39%{transform:translate(832px,48px)}74.31%{transform:translate(832px,0px)}75.54%{transform:translate(768px,0px)}75.84%,78.9%{transform:translate(768px,16px)}76.76%{transform:translate(816px,16px)}77.06%{transform:translate(816px,32px)}78.29%{transform:translate(752px,32px)}78.59%{transform:translate(752px,16px)}79.51%,84.4%{transform:translate(768px,48px)}80.12%{transform:translate(800px,48px)}80.73%{transform:translate(800px,80px)}81.04%{transform:translate(816px,80px)}81.35%{transform:translate(816px,96px)}81.96%{transform:translate(784px,96px)}82.26%{transform:translate(784px,80px)}82.87%{transform:translate(752px,80px)}83.18%{transform:translate(752px,96px)}83.49%{transform:translate(768px,96px)}84.71%{transform:translate(752px,48px)}98.78%{transform:translate(64px,0px)}99.08%{transform:translate(64px,-16px)}}.s.s2{transform:translate(32px,-16px);animation-name:s2}@keyframes s3{0%,99.69%{transform:translate(48px,-16px)}0.92%{transform:translate(0px,-16px)}1.22%{transform:translate(0px,0px)}4.59%{transform:translate(176px,0px)}4.89%{transform:translate(176px,16px)}5.5%{transform:translate(144px,16px)}6.73%{transform:translate(144px,80px)}11.62%{transform:translate(400px,80px)}12.23%{transform:translate(400px,48px)}15.6%{transform:translate(576px,48px)}15.9%{transform:translate(576px,64px)}16.21%{transform:translate(560px,64px)}16.51%,48.93%{transform:translate(560px,80px)}17.13%{transform:translate(592px,80px)}17.43%{transform:translate(592px,96px)}17.74%{transform:translate(608px,96px)}19.27%{transform:translate(608px,16px)}19.57%{transform:translate(592px,16px)}19.88%{transform:translate(592px,0px)}20.49%{transform:translate(624px,0px)}20.8%{transform:translate(624px,-16px)}25.08%{transform:translate(848px,-16px)}26.61%{transform:translate(848px,64px)}26.91%{transform:translate(832px,64px)}27.83%{transform:translate(832px,112px)}29.66%{transform:translate(736px,112px)}31.8%{transform:translate(736px,0px)}32.11%,85.93%{transform:translate(752px,0px)}32.42%{transform:translate(752px,-16px)}33.03%{transform:translate(720px,-16px)}33.33%{transform:translate(720px,0px)}34.86%{transform:translate(640px,0px)}35.47%{transform:translate(640px,32px)}37%{transform:translate(720px,32px)}37.31%{transform:translate(720px,16px)}38.23%{transform:translate(672px,16px)}38.84%{transform:translate(672px,48px)}39.76%{transform:translate(720px,48px)}40.06%{transform:translate(720px,64px)}40.37%{transform:translate(704px,64px)}40.67%{transform:translate(704px,80px)}40.98%{transform:translate(720px,80px)}41.28%{transform:translate(720px,96px)}41.9%{transform:translate(688px,96px)}42.2%{transform:translate(688px,80px)}42.51%,46.18%{transform:translate(672px,80px)}42.81%{transform:translate(672px,64px)}43.12%{transform:translate(656px,64px)}43.43%{transform:translate(656px,48px)}43.73%{transform:translate(640px,48px)}44.04%{transform:translate(640px,64px)}44.34%,67.58%{transform:translate(624px,64px)}44.65%{transform:translate(624px,80px)}45.26%{transform:translate(656px,80px)}45.57%{transform:translate(656px,96px)}45.87%{transform:translate(672px,96px)}46.79%{transform:translate(640px,80px)}47.09%{transform:translate(640px,96px)}48.62%{transform:translate(560px,96px)}52.6%{transform:translate(368px,80px)}52.91%{transform:translate(368px,64px)}57.19%{transform:translate(144px,64px)}57.8%{transform:translate(144px,96px)}62.39%{transform:translate(384px,96px)}63%{transform:translate(384px,64px)}68.2%{transform:translate(624px,32px)}68.81%{transform:translate(656px,32px)}69.11%{transform:translate(656px,16px)}69.72%{transform:translate(688px,16px)}70.64%{transform:translate(688px,64px)}73.09%{transform:translate(816px,64px)}73.39%{transform:translate(816px,48px)}73.7%{transform:translate(832px,48px)}74.62%{transform:translate(832px,0px)}75.84%{transform:translate(768px,0px)}76.15%,79.2%{transform:translate(768px,16px)}77.06%{transform:translate(816px,16px)}77.37%{transform:translate(816px,32px)}78.59%{transform:translate(752px,32px)}78.9%{transform:translate(752px,16px)}79.82%,84.71%{transform:translate(768px,48px)}80.43%{transform:translate(800px,48px)}81.04%{transform:translate(800px,80px)}81.35%{transform:translate(816px,80px)}81.65%{transform:translate(816px,96px)}82.26%{transform:translate(784px,96px)}82.57%{transform:translate(784px,80px)}83.18%{transform:translate(752px,80px)}83.49%{transform:translate(752px,96px)}83.79%{transform:translate(768px,96px)}85.02%{transform:translate(752px,48px)}99.08%{transform:translate(64px,0px)}99.39%{transform:translate(64px,-16px)}}.s.s3{transform:translate(48px,-16px);animation-name:s3}</style><rect class="c" x="2" y="2" rx="2" ry="2"/><rect class="c" x="2" y="18" rx="2" ry="2"/><rect class="c" x="2" y="34" rx="2" ry="2"/><rect class="c" x="2" y="50" rx="2" ry="2"/><rect class="c" x="2" y="66" rx="2" ry="2"/><rect class="c" x="2" y="82" rx="2" ry="2"/><rect class="c" x="2" y="98" rx="2" ry="2"/><rect class="c" x="18" y="2" rx="2" ry="2"/><rect class="c" x="18" y="18" rx="2" ry="2"/><rect class="c" x="18" y="34" rx="2" ry="2"/><rect class="c" x="18" y="50" rx="2" ry="2"/><rect class="c" x="18" y="66" rx="2" ry="2"/><rect class="c" x="18" y="82" rx="2" ry="2"/><rect class="c" x="18" y="98" rx="2" ry="2"/><rect class="c" x="34" y="2" rx="2" ry="2"/><rect class="c" x="34" y="18" rx="2" ry="2"/><rect class="c" x="34" y="34" rx="2" ry="2"/><rect class="c" x="34" y="50" rx="2" ry="2"/><rect class="c" x="34" y="66" rx="2" ry="2"/><rect class="c" x="34" y="82" rx="2" ry="2"/><rect class="c" x="34" y="98" rx="2" ry="2"/><rect class="c" x="50" y="2" rx="2" ry="2"/><rect class="c" x="50" y="18" rx="2" ry="2"/><rect class="c" x="50" y="34" rx="2" ry="2"/><rect class="c" x="50" y="50" rx="2" ry="2"/><rect class="c" x="50" y="66" rx="2" ry="2"/><rect class="c" x="50" y="82" rx="2" ry="2"/><rect class="c" x="50" y="98" rx="2" ry="2"/><rect class="c" x="66" y="2" rx="2" ry="2"/><rect class="c" x="66" y="18" rx="2" ry="2"/><rect class="c" x="66" y="34" rx="2" ry="2"/><rect class="c" x="66" y="50" rx="2" ry="2"/><rect class="c" x="66" y="66" rx="2" ry="2"/><rect class="c" x="66" y="82" rx="2" ry="2"/><rect class="c" x="66" y="98" rx="2" ry="2"/><rect class="c" x="82" y="2" rx="2" ry="2"/><rect class="c" x="82" y="18" rx="2" ry="2"/><rect class="c" x="82" y="34" rx="2" ry="2"/><rect class="c" x="82" y="50" rx="2" ry="2"/><rect class="c" x="82" y="66" rx="2" ry="2"/><rect class="c" x="82" y="82" rx="2" ry="2"/><rect class="c" x="82" y="98" rx="2" ry="2"/><rect class="c" x="98" y="2" rx="2" ry="2"/><rect class="c" x="98" y="18" rx="2" ry="2"/><rect class="c" x="98" y="34" rx="2" ry="2"/><rect class="c" x="98" y="50" rx="2" ry="2"/><rect class="c" x="98" y="66" rx="2" ry="2"/><rect class="c" x="98" y="82" rx="2" ry="2"/><rect class="c" x="98" y="98" rx="2" ry="2"/><rect class="c" x="114" y="2" rx="2" ry="2"/><rect class="c" x="114" y="18" rx="2" ry="2"/><rect class="c" x="114" y="34" rx="2" ry="2"/><rect class="c" x="114" y="50" rx="2" ry="2"/><rect class="c" x="114" y="66" rx="2" ry="2"/><rect class="c" x="114" y="82" rx="2" ry="2"/><rect class="c" x="114" y="98" rx="2" ry="2"/><rect class="c" x="130" y="2" rx="2" ry="2"/><rect class="c" x="130" y="18" rx="2" ry="2"/><rect class="c" x="130" y="34" rx="2" ry="2"/><rect class="c" x="130" y="50" rx="2" ry="2"/><rect class="c" x="130" y="66" rx="2" ry="2"/><rect class="c" x="130" y="82" rx="2" ry="2"/><rect class="c" x="130" y="98" rx="2" ry="2"/><rect class="c" x="146" y="2" rx="2" ry="2"/><rect class="c" x="146" y="18" rx="2" ry="2"/><rect class="c" x="146" y="34" rx="2" ry="2"/><rect class="c" x="146" y="50" rx="2" ry="2"/><rect class="c" x="146" y="66" rx="2" ry="2"/><rect class="c c0" x="146" y="82" rx="2" ry="2"/><rect class="c c1" x="146" y="98" rx="2" ry="2"/><rect class="c" x="162" y="2" rx="2" ry="2"/><rect class="c" x="162" y="18" rx="2" ry="2"/><rect class="c" x="162" y="34" rx="2" ry="2"/><rect class="c" x="162" y="50" rx="2" ry="2"/><rect class="c" x="162" y="66" rx="2" ry="2"/><rect class="c" x="162" y="82" rx="2" ry="2"/><rect class="c" x="162" y="98" rx="2" ry="2"/><rect class="c c2" x="178" y="2" rx="2" ry="2"/><rect class="c c3" x="178" y="18" rx="2" ry="2"/><rect class="c" x="178" y="34" rx="2" ry="2"/><rect class="c" x="178" y="50" rx="2" ry="2"/><rect class="c" x="178" y="66" rx="2" ry="2"/><rect class="c" x="178" y="82" rx="2" ry="2"/><rect class="c" x="178" y="98" rx="2" ry="2"/><rect class="c" x="194" y="2" rx="2" ry="2"/><rect class="c" x="194" y="18" rx="2" ry="2"/><rect class="c" x="194" y="34" rx="2" ry="2"/><rect class="c" x="194" y="50" rx="2" ry="2"/><rect class="c" x="194" y="66" rx="2" ry="2"/><rect class="c" x="194" y="82" rx="2" ry="2"/><rect class="c" x="194" y="98" rx="2" ry="2"/><rect class="c" x="210" y="2" rx="2" ry="2"/><rect class="c" x="210" y="18" rx="2" ry="2"/><rect class="c" x="210" y="34" rx="2" ry="2"/><rect class="c" x="210" y="50" rx="2" ry="2"/><rect class="c" x="210" y="66" rx="2" ry="2"/><rect class="c" x="210" y="82" rx="2" ry="2"/><rect class="c" x="210" y="98" rx="2" ry="2"/><rect class="c" x="226" y="2" rx="2" ry="2"/><rect class="c" x="226" y="18" rx="2" ry="2"/><rect class="c" x="226" y="34" rx="2" ry="2"/><rect class="c" x="226" y="50" rx="2" ry="2"/><rect class="c" x="226" y="66" rx="2" ry="2"/><rect class="c" x="226" y="82" rx="2" ry="2"/><rect class="c" x="226" y="98" rx="2" ry="2"/><rect class="c" x="242" y="2" rx="2" ry="2"/><rect class="c" x="242" y="18" rx="2" ry="2"/><rect class="c" x="242" y="34" rx="2" ry="2"/><rect class="c" x="242" y="50" rx="2" ry="2"/><rect class="c" x="242" y="66" rx="2" ry="2"/><rect class="c" x="242" y="82" rx="2" ry="2"/><rect class="c" x="242" y="98" rx="2" ry="2"/><rect class="c" x="258" y="2" rx="2" ry="2"/><rect class="c" x="258" y="18" rx="2" ry="2"/><rect class="c" x="258" y="34" rx="2" ry="2"/><rect class="c" x="258" y="50" rx="2" ry="2"/><rect class="c c4" x="258" y="66" rx="2" ry="2"/><rect class="c" x="258" y="82" rx="2" ry="2"/><rect class="c" x="258" y="98" rx="2" ry="2"/><rect class="c" x="274" y="2" rx="2" ry="2"/><rect class="c" x="274" y="18" rx="2" ry="2"/><rect class="c" x="274" y="34" rx="2" ry="2"/><rect class="c" x="274" y="50" rx="2" ry="2"/><rect class="c" x="274" y="66" rx="2" ry="2"/><rect class="c" x="274" y="82" rx="2" ry="2"/><rect class="c" x="274" y="98" rx="2" ry="2"/><rect class="c" x="290" y="2" rx="2" ry="2"/><rect class="c" x="290" y="18" rx="2" ry="2"/><rect class="c" x="290" y="34" rx="2" ry="2"/><rect class="c" x="290" y="50" rx="2" ry="2"/><rect class="c" x="290" y="66" rx="2" ry="2"/><rect class="c" x="290" y="82" rx="2" ry="2"/><rect class="c" x="290" y="98" rx="2" ry="2"/><rect class="c" x="306" y="2" rx="2" ry="2"/><rect class="c" x="306" y="18" rx="2" ry="2"/><rect class="c" x="306" y="34" rx="2" ry="2"/><rect class="c" x="306" y="50" rx="2" ry="2"/><rect class="c" x="306" y="66" rx="2" ry="2"/><rect class="c" x="306" y="82" rx="2" ry="2"/><rect class="c" x="306" y="98" rx="2" ry="2"/><rect class="c" x="322" y="2" rx="2" ry="2"/><rect class="c" x="322" y="18" rx="2" ry="2"/><rect class="c" x="322" y="34" rx="2" ry="2"/><rect class="c" x="322" y="50" rx="2" ry="2"/><rect class="c" x="322" y="66" rx="2" ry="2"/><rect class="c" x="322" y="82" rx="2" ry="2"/><rect class="c" x="322" y="98" rx="2" ry="2"/><rect class="c" x="338" y="2" rx="2" ry="2"/><rect class="c" x="338" y="18" rx="2" ry="2"/><rect class="c" x="338" y="34" rx="2" ry="2"/><rect class="c" x="338" y="50" rx="2" ry="2"/><rect class="c" x="338" y="66" rx="2" ry="2"/><rect class="c" x="338" y="82" rx="2" ry="2"/><rect class="c" x="338" y="98" rx="2" ry="2"/><rect class="c" x="354" y="2" rx="2" ry="2"/><rect class="c" x="354" y="18" rx="2" ry="2"/><rect class="c" x="354" y="34" rx="2" ry="2"/><rect class="c" x="354" y="50" rx="2" ry="2"/><rect class="c" x="354" y="66" rx="2" ry="2"/><rect class="c" x="354" y="82" rx="2" ry="2"/><rect class="c" x="354" y="98" rx="2" ry="2"/><rect class="c" x="370" y="2" rx="2" ry="2"/><rect class="c" x="370" y="18" rx="2" ry="2"/><rect class="c" x="370" y="34" rx="2" ry="2"/><rect class="c" x="370" y="50" rx="2" ry="2"/><rect class="c" x="370" y="66" rx="2" ry="2"/><rect class="c" x="370" y="82" rx="2" ry="2"/><rect class="c" x="370" y="98" rx="2" ry="2"/><rect class="c" x="386" y="2" rx="2" ry="2"/><rect class="c" x="386" y="18" rx="2" ry="2"/><rect class="c" x="386" y="34" rx="2" ry="2"/><rect class="c" x="386" y="50" rx="2" ry="2"/><rect class="c c5" x="386" y="66" rx="2" ry="2"/><rect class="c" x="386" y="82" rx="2" ry="2"/><rect class="c" x="386" y="98" rx="2" ry="2"/><rect class="c" x="402" y="2" rx="2" ry="2"/><rect class="c" x="402" y="18" rx="2" ry="2"/><rect class="c" x="402" y="34" rx="2" ry="2"/><rect class="c c6" x="402" y="50" rx="2" ry="2"/><rect class="c" x="402" y="66" rx="2" ry="2"/><rect class="c" x="402" y="82" rx="2" ry="2"/><rect class="c" x="402" y="98" rx="2" ry="2"/><rect class="c" x="418" y="2" rx="2" ry="2"/><rect class="c" x="418" y="18" rx="2" ry="2"/><rect class="c" x="418" y="34" rx="2" ry="2"/><rect class="c" x="418" y="50" rx="2" ry="2"/><rect class="c" x="418" y="66" rx="2" ry="2"/><rect class="c" x="418" y="82" rx="2" ry="2"/><rect class="c" x="418" y="98" rx="2" ry="2"/><rect class="c" x="434" y="2" rx="2" ry="2"/><rect class="c" x="434" y="18" rx="2" ry="2"/><rect class="c" x="434" y="34" rx="2" ry="2"/><rect class="c" x="434" y="50" rx="2" ry="2"/><rect class="c" x="434" y="66" rx="2" ry="2"/><rect class="c" x="434" y="82" rx="2" ry="2"/><rect class="c" x="434" y="98" rx="2" ry="2"/><rect class="c" x="450" y="2" rx="2" ry="2"/><rect class="c" x="450" y="18" rx="2" ry="2"/><rect class="c" x="450" y="34" rx="2" ry="2"/><rect class="c" x="450" y="50" rx="2" ry="2"/><rect class="c" x="450" y="66" rx="2" ry="2"/><rect class="c" x="450" y="82" rx="2" ry="2"/><rect class="c" x="450" y="98" rx="2" ry="2"/><rect class="c" x="466" y="2" rx="2" ry="2"/><rect class="c" x="466" y="18" rx="2" ry="2"/><rect class="c" x="466" y="34" rx="2" ry="2"/><rect class="c" x="466" y="50" rx="2" ry="2"/><rect class="c" x="466" y="66" rx="2" ry="2"/><rect class="c" x="466" y="82" rx="2" ry="2"/><rect class="c" x="466" y="98" rx="2" ry="2"/><rect class="c" x="482" y="2" rx="2" ry="2"/><rect class="c" x="482" y="18" rx="2" ry="2"/><rect class="c" x="482" y="34" rx="2" ry="2"/><rect class="c" x="482" y="50" rx="2" ry="2"/><rect class="c" x="482" y="66" rx="2" ry="2"/><rect class="c" x="482" y="82" rx="2" ry="2"/><rect class="c" x="482" y="98" rx="2" ry="2"/><rect class="c" x="498" y="2" rx="2" ry="2"/><rect class="c" x="498" y="18" rx="2" ry="2"/><rect class="c" x="498" y="34" rx="2" ry="2"/><rect class="c" x="498" y="50" rx="2" ry="2"/><rect class="c" x="498" y="66" rx="2" ry="2"/><rect class="c" x="498" y="82" rx="2" ry="2"/><rect class="c" x="498" y="98" rx="2" ry="2"/><rect class="c" x="514" y="2" rx="2" ry="2"/><rect class="c" x="514" y="18" rx="2" ry="2"/><rect class="c" x="514" y="34" rx="2" ry="2"/><rect class="c" x="514" y="50" rx="2" ry="2"/><rect class="c" x="514" y="66" rx="2" ry="2"/><rect class="c" x="514" y="82" rx="2" ry="2"/><rect class="c" x="514" y="98" rx="2" ry="2"/><rect class="c" x="530" y="2" rx="2" ry="2"/><rect class="c" x="530" y="18" rx="2" ry="2"/><rect class="c" x="530" y="34" rx="2" ry="2"/><rect class="c" x="530" y="50" rx="2" ry="2"/><rect class="c" x="530" y="66" rx="2" ry="2"/><rect class="c" x="530" y="82" rx="2" ry="2"/><rect class="c" x="530" y="98" rx="2" ry="2"/><rect class="c" x="546" y="2" rx="2" ry="2"/><rect class="c" x="546" y="18" rx="2" ry="2"/><rect class="c" x="546" y="34" rx="2" ry="2"/><rect class="c" x="546" y="50" rx="2" ry="2"/><rect class="c" x="546" y="66" rx="2" ry="2"/><rect class="c" x="546" y="82" rx="2" ry="2"/><rect class="c" x="546" y="98" rx="2" ry="2"/><rect class="c" x="562" y="2" rx="2" ry="2"/><rect class="c" x="562" y="18" rx="2" ry="2"/><rect class="c" x="562" y="34" rx="2" ry="2"/><rect class="c" x="562" y="50" rx="2" ry="2"/><rect class="c c7" x="562" y="66" rx="2" ry="2"/><rect class="c" x="562" y="82" rx="2" ry="2"/><rect class="c c8" x="562" y="98" rx="2" ry="2"/><rect class="c c9" x="578" y="2" rx="2" ry="2"/><rect class="c" x="578" y="18" rx="2" ry="2"/><rect class="c" x="578" y="34" rx="2" ry="2"/><rect class="c ca" x="578" y="50" rx="2" ry="2"/><rect class="c" x="578" y="66" rx="2" ry="2"/><rect class="c" x="578" y="82" rx="2" ry="2"/><rect class="c" x="578" y="98" rx="2" ry="2"/><rect class="c" x="594" y="2" rx="2" ry="2"/><rect class="c cb" x="594" y="18" rx="2" ry="2"/><rect class="c" x="594" y="34" rx="2" ry="2"/><rect class="c" x="594" y="50" rx="2" ry="2"/><rect class="c" x="594" y="66" rx="2" ry="2"/><rect class="c cc" x="594" y="82" rx="2" ry="2"/><rect class="c cd" x="594" y="98" rx="2" ry="2"/><rect class="c" x="610" y="2" rx="2" ry="2"/><rect class="c" x="610" y="18" rx="2" ry="2"/><rect class="c" x="610" y="34" rx="2" ry="2"/><rect class="c" x="610" y="50" rx="2" ry="2"/><rect class="c" x="610" y="66" rx="2" ry="2"/><rect class="c" x="610" y="82" rx="2" ry="2"/><rect class="c" x="610" y="98" rx="2" ry="2"/><rect class="c" x="626" y="2" rx="2" ry="2"/><rect class="c" x="626" y="18" rx="2" ry="2"/><rect class="c ce" x="626" y="34" rx="2" ry="2"/><rect class="c cf" x="626" y="50" rx="2" ry="2"/><rect class="c cg" x="626" y="66" rx="2" ry="2"/><rect class="c ch" x="626" y="82" rx="2" ry="2"/><rect class="c ci" x="626" y="98" rx="2" ry="2"/><rect class="c cj" x="642" y="2" rx="2" ry="2"/><rect class="c ck" x="642" y="18" rx="2" ry="2"/><rect class="c cl" x="642" y="34" rx="2" ry="2"/><rect class="c cm" x="642" y="50" rx="2" ry="2"/><rect class="c cn" x="642" y="66" rx="2" ry="2"/><rect class="c co" x="642" y="82" rx="2" ry="2"/><rect class="c cp" x="642" y="98" rx="2" ry="2"/><rect class="c cq" x="658" y="2" rx="2" ry="2"/><rect class="c cr" x="658" y="18" rx="2" ry="2"/><rect class="c cs" x="658" y="34" rx="2" ry="2"/><rect class="c ct" x="658" y="50" rx="2" ry="2"/><rect class="c cu" x="658" y="66" rx="2" ry="2"/><rect class="c cv" x="658" y="82" rx="2" ry="2"/><rect class="c cw" x="658" y="98" rx="2" ry="2"/><rect class="c cx" x="674" y="2" rx="2" ry="2"/><rect class="c cy" x="674" y="18" rx="2" ry="2"/><rect class="c cz" x="674" y="34" rx="2" ry="2"/><rect class="c c10" x="674" y="50" rx="2" ry="2"/><rect class="c c11" x="674" y="66" rx="2" ry="2"/><rect class="c c12" x="674" y="82" rx="2" ry="2"/><rect class="c c13" x="674" y="98" rx="2" ry="2"/><rect class="c c14" x="690" y="2" rx="2" ry="2"/><rect class="c c15" x="690" y="18" rx="2" ry="2"/><rect class="c c16" x="690" y="34" rx="2" ry="2"/><rect class="c c17" x="690" y="50" rx="2" ry="2"/><rect class="c c18" x="690" y="66" rx="2" ry="2"/><rect class="c c19" x="690" y="82" rx="2" ry="2"/><rect class="c c1a" x="690" y="98" rx="2" ry="2"/><rect class="c c1b" x="706" y="2" rx="2" ry="2"/><rect class="c c1c" x="706" y="18" rx="2" ry="2"/><rect class="c c1d" x="706" y="34" rx="2" ry="2"/><rect class="c c1e" x="706" y="50" rx="2" ry="2"/><rect class="c c1f" x="706" y="66" rx="2" ry="2"/><rect class="c c1g" x="706" y="82" rx="2" ry="2"/><rect class="c c1h" x="706" y="98" rx="2" ry="2"/><rect class="c c1i" x="722" y="2" rx="2" ry="2"/><rect class="c c1j" x="722" y="18" rx="2" ry="2"/><rect class="c c1k" x="722" y="34" rx="2" ry="2"/><rect class="c c1l" x="722" y="50" rx="2" ry="2"/><rect class="c c1m" x="722" y="66" rx="2" ry="2"/><rect class="c c1n" x="722" y="82" rx="2" ry="2"/><rect class="c c1o" x="722" y="98" rx="2" ry="2"/><rect class="c c1p" x="738" y="2" rx="2" ry="2"/><rect class="c c1q" x="738" y="18" rx="2" ry="2"/><rect class="c c1r" x="738" y="34" rx="2" ry="2"/><rect class="c c1s" x="738" y="50" rx="2" ry="2"/><rect class="c c1t" x="738" y="66" rx="2" ry="2"/><rect class="c c1u" x="738" y="82" rx="2" ry="2"/><rect class="c c1v" x="738" y="98" rx="2" ry="2"/><rect class="c c1w" x="754" y="2" rx="2" ry="2"/><rect class="c c1x" x="754" y="18" rx="2" ry="2"/><rect class="c c1y" x="754" y="34" rx="2" ry="2"/><rect class="c c1z" x="754" y="50" rx="2" ry="2"/><rect class="c c20" x="754" y="66" rx="2" ry="2"/><rect class="c c21" x="754" y="82" rx="2" ry="2"/><rect class="c c22" x="754" y="98" rx="2" ry="2"/><rect class="c c23" x="770" y="2" rx="2" ry="2"/><rect class="c c24" x="770" y="18" rx="2" ry="2"/><rect class="c c25" x="770" y="34" rx="2" ry="2"/><rect class="c c26" x="770" y="50" rx="2" ry="2"/><rect class="c c27" x="770" y="66" rx="2" ry="2"/><rect class="c c28" x="770" y="82" rx="2" ry="2"/><rect class="c c29" x="770" y="98" rx="2" ry="2"/><rect class="c c2a" x="786" y="2" rx="2" ry="2"/><rect class="c c2b" x="786" y="18" rx="2" ry="2"/><rect class="c c2c" x="786" y="34" rx="2" ry="2"/><rect class="c c2d" x="786" y="50" rx="2" ry="2"/><rect class="c c2e" x="786" y="66" rx="2" ry="2"/><rect class="c c2f" x="786" y="82" rx="2" ry="2"/><rect class="c c2g" x="786" y="98" rx="2" ry="2"/><rect class="c c2h" x="802" y="2" rx="2" ry="2"/><rect class="c c2i" x="802" y="18" rx="2" ry="2"/><rect class="c c2j" x="802" y="34" rx="2" ry="2"/><rect class="c c2k" x="802" y="50" rx="2" ry="2"/><rect class="c c2l" x="802" y="66" rx="2" ry="2"/><rect class="c c2m" x="802" y="82" rx="2" ry="2"/><rect class="c c2n" x="802" y="98" rx="2" ry="2"/><rect class="c c2o" x="818" y="2" rx="2" ry="2"/><rect class="c c2p" x="818" y="18" rx="2" ry="2"/><rect class="c c2q" x="818" y="34" rx="2" ry="2"/><rect class="c c2r" x="818" y="50" rx="2" ry="2"/><rect class="c c2s" x="818" y="66" rx="2" ry="2"/><rect class="c c2t" x="818" y="82" rx="2" ry="2"/><rect class="c c2u" x="818" y="98" rx="2" ry="2"/><rect class="c c2v" x="834" y="2" rx="2" ry="2"/><rect class="c c2w" x="834" y="18" rx="2" ry="2"/><rect class="c c2x" x="834" y="34" rx="2" ry="2"/><rect class="c c2y" x="834" y="50" rx="2" ry="2"/><rect class="c c2z" x="834" y="66" rx="2" ry="2"/><rect class="u u0" height="12" width="79.1" x="0.0" y="144"/><rect class="u u1" height="12" width="424.6" x="78.5" y="144"/><rect class="u u2" height="12" width="346.1" x="502.5" y="144"/><rect class="s s0" x="0.8" y="0.8" width="14.4" height="14.4" rx="4.5" ry="4.5"/><rect class="s s1" x="1.8" y="1.8" width="12.3" height="12.3" rx="4.1" ry="4.1"/><rect class="s s2" x="2.6" y="2.6" width="10.8" height="10.8" rx="3.6" ry="3.6"/><rect class="s s3" x="3.0" y="3.0" width="9.9" height="9.9" rx="3.3" ry="3.3"/></svg>