<svg viewBox="-16 -32 880 192" width="880" height="192" xmlns="http://www.w3.org/2000/svg"><desc>Generated with https://github.com/Platane/snk</desc><style>:root{--cb:#1b1f230a;--cs:purple;--ce:#ebedf0;--c0:#ebedf0;--c1:#9be9a8;--c2:#40c463;--c3:#30a14e;--c4:#216e39}.c{shape-rendering:geometricPrecision;fill:var(--ce);stroke-width:1px;stroke:var(--cb);animation:none 32900ms linear infinite;width:12px;height:12px}@keyframes c0{6.68%{fill:var(--c1)}6.7%,100%{fill:var(--ce)}}.c.c0{fill:var(--c1);animation-name:c0}@keyframes c1{63.52%{fill:var(--c2)}63.54%,100%{fill:var(--ce)}}.c.c1{fill:var(--c2);animation-name:c1}@keyframes c2{4.55%{fill:var(--c1)}4.57%,100%{fill:var(--ce)}}.c.c2{fill:var(--c1);animation-name:c2}@keyframes c3{4.85%{fill:var(--c1)}4.87%,100%{fill:var(--ce)}}.c.c3{fill:var(--c1);animation-name:c3}@keyframes c4{60.78%{fill:var(--c2)}60.8%,100%{fill:var(--ce)}}.c.c4{fill:var(--c2);animation-name:c4}@keyframes c5{68.68%{fill:var(--c4)}68.7%,100%{fill:var(--ce)}}.c.c5{fill:var(--c4);animation-name:c5}@keyframes c6{12.15%{fill:var(--c1)}12.17%,100%{fill:var(--ce)}}.c.c6{fill:var(--c1);animation-name:c6}@keyframes c7{16.1%{fill:var(--c1)}16.12%,100%{fill:var(--ce)}}.c.c7{fill:var(--c1);animation-name:c7}@keyframes c8{41.63%{fill:var(--c2)}41.65%,100%{fill:var(--ce)}}.c.c8{fill:var(--c2);animation-name:c8}@keyframes c9{87.53%{fill:var(--c4)}87.55%,100%{fill:var(--ce)}}.c.c9{fill:var(--c4);animation-name:c9}@keyframes ca{15.49%{fill:var(--c1)}15.51%,100%{fill:var(--ce)}}.c.ca{fill:var(--c1);animation-name:ca}@keyframes cb{19.44%{fill:var(--c1)}19.46%,100%{fill:var(--ce)}}.c.cb{fill:var(--c1);animation-name:cb}@keyframes cc{17.01%{fill:var(--c1)}17.03%,100%{fill:var(--ce)}}.c.cc{fill:var(--c1);animation-name:cc}@keyframes cd{17.32%{fill:var(--c1)}17.34%,100%{fill:var(--ce)}}.c.cd{fill:var(--c1);animation-name:cd}@keyframes ce{73.85%{fill:var(--c4)}73.87%,100%{fill:var(--ce)}}.c.ce{fill:var(--c4);animation-name:ce}@keyframes cf{73.55%{fill:var(--c4)}73.57%,100%{fill:var(--ce)}}.c.cf{fill:var(--c4);animation-name:cf}@keyframes cg{39.2%{fill:var(--c2)}39.22%,100%{fill:var(--ce)}}.c.cg{fill:var(--c2);animation-name:cg}@keyframes ch{38.9%{fill:var(--c2)}38.92%,100%{fill:var(--ce)}}.c.ch{fill:var(--c2);animation-name:ch}@keyframes ci{40.42%{fill:var(--c2)}40.44%,100%{fill:var(--ce)}}.c.ci{fill:var(--c2);animation-name:ci}@keyframes cj{20.66%{fill:var(--c2)}20.68%,100%{fill:var(--ce)}}.c.cj{fill:var(--c2);animation-name:cj}@keyframes ck{29.47%{fill:var(--c2)}29.49%,100%{fill:var(--ce)}}.c.ck{fill:var(--c2);animation-name:ck}@keyframes cl{29.17%{fill:var(--c2)}29.19%,100%{fill:var(--ce)}}.c.cl{fill:var(--c2);animation-name:cl}@keyframes cm{31.3%{fill:var(--c2)}31.32%,100%{fill:var(--ce)}}.c.cm{fill:var(--c2);animation-name:cm}@keyframes cn{31.6%{fill:var(--c2)}31.62%,100%{fill:var(--ce)}}.c.cn{fill:var(--c2);animation-name:cn}@keyframes co{38.59%{fill:var(--c2)}38.61%,100%{fill:var(--ce)}}.c.co{fill:var(--c2);animation-name:co}@keyframes cp{40.11%{fill:var(--c2)}40.13%,100%{fill:var(--ce)}}.c.cp{fill:var(--c2);animation-name:cp}@keyframes cq{20.96%{fill:var(--c2)}20.98%,100%{fill:var(--ce)}}.c.cq{fill:var(--c2);animation-name:cq}@keyframes cr{74.76%{fill:var(--c4)}74.78%,100%{fill:var(--ce)}}.c.cr{fill:var(--c4);animation-name:cr}@keyframes cs{28.87%{fill:var(--c2)}28.89%,100%{fill:var(--ce)}}.c.cs{fill:var(--c2);animation-name:cs}@keyframes ct{28.56%{fill:var(--c2)}28.58%,100%{fill:var(--ce)}}.c.ct{fill:var(--c2);animation-name:ct}@keyframes cu{31.9%{fill:var(--c2)}31.92%,100%{fill:var(--ce)}}.c.cu{fill:var(--c2);animation-name:cu}@keyframes cv{38.29%{fill:var(--c2)}38.31%,100%{fill:var(--ce)}}.c.cv{fill:var(--c2);animation-name:cv}@keyframes cw{37.98%{fill:var(--c2)}38%,100%{fill:var(--ce)}}.c.cw{fill:var(--c2);animation-name:cw}@keyframes cx{21.27%{fill:var(--c2)}21.29%,100%{fill:var(--ce)}}.c.cx{fill:var(--c2);animation-name:cx}@keyframes cy{25.22%{fill:var(--c2)}25.24%,100%{fill:var(--ce)}}.c.cy{fill:var(--c2);animation-name:cy}@keyframes cz{25.52%{fill:var(--c2)}25.54%,100%{fill:var(--ce)}}.c.cz{fill:var(--c2);animation-name:cz}@keyframes c10{28.26%{fill:var(--c2)}28.28%,100%{fill:var(--ce)}}.c.c10{fill:var(--c2);animation-name:c10}@keyframes c11{32.21%{fill:var(--c2)}32.23%,100%{fill:var(--ce)}}.c.c11{fill:var(--c2);animation-name:c11}@keyframes c12{32.51%{fill:var(--c2)}32.53%,100%{fill:var(--ce)}}.c.c12{fill:var(--c2);animation-name:c12}@keyframes c13{37.68%{fill:var(--c2)}37.7%,100%{fill:var(--ce)}}.c.c13{fill:var(--c2);animation-name:c13}@keyframes c14{21.57%{fill:var(--c2)}21.59%,100%{fill:var(--ce)}}.c.c14{fill:var(--c2);animation-name:c14}@keyframes c15{24.91%{fill:var(--c2)}24.93%,100%{fill:var(--ce)}}.c.c15{fill:var(--c2);animation-name:c15}@keyframes c16{25.83%{fill:var(--c2)}25.85%,100%{fill:var(--ce)}}.c.c16{fill:var(--c2);animation-name:c16}@keyframes c17{27.95%{fill:var(--c2)}27.97%,100%{fill:var(--ce)}}.c.c17{fill:var(--c2);animation-name:c17}@keyframes c18{76.28%{fill:var(--c4)}76.3%,100%{fill:var(--ce)}}.c.c18{fill:var(--c4);animation-name:c18}@keyframes c19{32.82%{fill:var(--c2)}32.84%,100%{fill:var(--ce)}}.c.c19{fill:var(--c2);animation-name:c19}@keyframes c1a{37.38%{fill:var(--c2)}37.4%,100%{fill:var(--ce)}}.c.c1a{fill:var(--c2);animation-name:c1a}@keyframes c1b{21.87%{fill:var(--c2)}21.89%,100%{fill:var(--ce)}}.c.c1b{fill:var(--c2);animation-name:c1b}@keyframes c1c{24.61%{fill:var(--c2)}24.63%,100%{fill:var(--ce)}}.c.c1c{fill:var(--c2);animation-name:c1c}@keyframes c1d{26.13%{fill:var(--c2)}26.15%,100%{fill:var(--ce)}}.c.c1d{fill:var(--c2);animation-name:c1d}@keyframes c1e{27.65%{fill:var(--c2)}27.67%,100%{fill:var(--ce)}}.c.c1e{fill:var(--c2);animation-name:c1e}@keyframes c1f{34.64%{fill:var(--c2)}34.66%,100%{fill:var(--ce)}}.c.c1f{fill:var(--c2);animation-name:c1f}@keyframes c1g{33.12%{fill:var(--c2)}33.14%,100%{fill:var(--ce)}}.c.c1g{fill:var(--c2);animation-name:c1g}@keyframes c1h{35.25%{fill:var(--c2)}35.27%,100%{fill:var(--ce)}}.c.c1h{fill:var(--c2);animation-name:c1h}@keyframes c1i{22.18%{fill:var(--c2)}22.2%,100%{fill:var(--ce)}}.c.c1i{fill:var(--c2);animation-name:c1i}@keyframes c1j{24.31%{fill:var(--c2)}24.33%,100%{fill:var(--ce)}}.c.c1j{fill:var(--c2);animation-name:c1j}@keyframes c1k{26.43%{fill:var(--c2)}26.45%,100%{fill:var(--ce)}}.c.c1k{fill:var(--c2);animation-name:c1k}@keyframes c1l{27.35%{fill:var(--c2)}27.37%,100%{fill:var(--ce)}}.c.c1l{fill:var(--c2);animation-name:c1l}@keyframes c1m{34.34%{fill:var(--c2)}34.36%,100%{fill:var(--ce)}}.c.c1m{fill:var(--c2);animation-name:c1m}@keyframes c1n{33.42%{fill:var(--c2)}33.44%,100%{fill:var(--ce)}}.c.c1n{fill:var(--c2);animation-name:c1n}@keyframes c1o{35.55%{fill:var(--c2)}35.57%,100%{fill:var(--ce)}}.c.c1o{fill:var(--c2);animation-name:c1o}@keyframes c1p{22.48%{fill:var(--c2)}22.5%,100%{fill:var(--ce)}}.c.c1p{fill:var(--c2);animation-name:c1p}@keyframes c1q{24%{fill:var(--c2)}24.02%,100%{fill:var(--ce)}}.c.c1q{fill:var(--c2);animation-name:c1q}@keyframes c1r{26.74%{fill:var(--c2)}26.76%,100%{fill:var(--ce)}}.c.c1r{fill:var(--c2);animation-name:c1r}@keyframes c1s{27.04%{fill:var(--c2)}27.06%,100%{fill:var(--ce)}}.c.c1s{fill:var(--c2);animation-name:c1s}@keyframes c1t{34.03%{fill:var(--c2)}34.05%,100%{fill:var(--ce)}}.c.c1t{fill:var(--c2);animation-name:c1t}@keyframes c1u{33.73%{fill:var(--c2)}33.75%,100%{fill:var(--ce)}}.c.c1u{fill:var(--c2);animation-name:c1u}@keyframes c1v{35.86%{fill:var(--c2)}35.88%,100%{fill:var(--ce)}}.c.c1v{fill:var(--c2);animation-name:c1v}@keyframes c1w{22.79%{fill:var(--c2)}22.81%,100%{fill:var(--ce)}}.c.c1w{fill:var(--c2);animation-name:c1w}@keyframes c1x{80.23%{fill:var(--c4)}80.25%,100%{fill:var(--ce)}}.c.c1x{fill:var(--c4);animation-name:c1x}@keyframes c1y{80.54%{fill:var(--c4)}80.56%,100%{fill:var(--ce)}}.c.c1y{fill:var(--c4);animation-name:c1y}@keyframes c1z{80.84%{fill:var(--c4)}80.86%,100%{fill:var(--ce)}}.c.c1z{fill:var(--c4);animation-name:c1z}@keyframes c20{77.5%{fill:var(--c4)}77.52%,100%{fill:var(--ce)}}.c.c20{fill:var(--c4);animation-name:c20}@keyframes c21{81.45%{fill:var(--c4)}81.47%,100%{fill:var(--ce)}}.c.c21{fill:var(--c4);animation-name:c21}@keyframes c22{82.36%{fill:var(--c4)}82.38%,100%{fill:var(--ce)}}.c.c22{fill:var(--c4);animation-name:c22}@keyframes c23{79.63%{fill:var(--c4)}79.65%,100%{fill:var(--ce)}}.c.c23{fill:var(--c4);animation-name:c23}@keyframes c24{78.71%{fill:var(--c4)}78.73%,100%{fill:var(--ce)}}.c.c24{fill:var(--c4);animation-name:c24}@keyframes c25{78.41%{fill:var(--c4)}78.43%,100%{fill:var(--ce)}}.c.c25{fill:var(--c4);animation-name:c25}@keyframes c26{78.11%{fill:var(--c4)}78.13%,100%{fill:var(--ce)}}.c.c26{fill:var(--c4);animation-name:c26}@keyframes c27{77.8%{fill:var(--c4)}77.82%,100%{fill:var(--ce)}}.c.c27{fill:var(--c4);animation-name:c27}@keyframes c28{81.75%{fill:var(--c4)}81.77%,100%{fill:var(--ce)}}.c.c28{fill:var(--c4);animation-name:c28}@keyframes c29{82.06%{fill:var(--c4)}82.08%,100%{fill:var(--ce)}}.c.c29{fill:var(--c4);animation-name:c29}@keyframes c2a{79.32%{fill:var(--c4)}79.34%,100%{fill:var(--ce)}}.c.c2a{fill:var(--c4);animation-name:c2a}@keyframes c2b{79.02%{fill:var(--c4)}79.04%,100%{fill:var(--ce)}}.c.c2b{fill:var(--c4);animation-name:c2b}@keyframes c2c{47.71%{fill:var(--c2)}47.73%,100%{fill:var(--ce)}}.c.c2c{fill:var(--c2);animation-name:c2c}.u{transform-origin:0 0;transform:scale(0,1);animation:none linear 32900ms infinite}@keyframes u0{4.55%{transform:scale(0.000,1)}4.57%,4.85%{transform:scale(0.111,1)}4.87%,6.68%{transform:scale(0.222,1)}6.7%,12.15%{transform:scale(0.333,1)}12.17%,15.49%{transform:scale(0.444,1)}15.51%,16.1%{transform:scale(0.556,1)}16.12%,17.01%{transform:scale(0.667,1)}17.03%,17.32%{transform:scale(0.778,1)}17.34%,19.44%{transform:scale(0.889,1)}19.46%,100%{transform:scale(1.000,1)}}.u.u0{fill:var(--c1);animation-name:u0;transform-origin:0.0px 0}@keyframes u1{20.66%{transform:scale(0.000,1)}20.68%,20.96%{transform:scale(0.018,1)}20.98%,21.27%{transform:scale(0.036,1)}21.29%,21.57%{transform:scale(0.055,1)}21.59%,21.87%{transform:scale(0.073,1)}21.89%,22.18%{transform:scale(0.091,1)}22.2%,22.48%{transform:scale(0.109,1)}22.5%,22.79%{transform:scale(0.127,1)}22.81%,24%{transform:scale(0.145,1)}24.02%,24.31%{transform:scale(0.164,1)}24.33%,24.61%{transform:scale(0.182,1)}24.63%,24.91%{transform:scale(0.200,1)}24.93%,25.22%{transform:scale(0.218,1)}25.24%,25.52%{transform:scale(0.236,1)}25.54%,25.83%{transform:scale(0.255,1)}25.85%,26.13%{transform:scale(0.273,1)}26.15%,26.43%{transform:scale(0.291,1)}26.45%,26.74%{transform:scale(0.309,1)}26.76%,27.04%{transform:scale(0.327,1)}27.06%,27.35%{transform:scale(0.345,1)}27.37%,27.65%{transform:scale(0.364,1)}27.67%,27.95%{transform:scale(0.382,1)}27.97%,28.26%{transform:scale(0.400,1)}28.28%,28.56%{transform:scale(0.418,1)}28.58%,28.87%{transform:scale(0.436,1)}28.89%,29.17%{transform:scale(0.455,1)}29.19%,29.47%{transform:scale(0.473,1)}29.49%,31.3%{transform:scale(0.491,1)}31.32%,31.6%{transform:scale(0.509,1)}31.62%,31.9%{transform:scale(0.527,1)}31.92%,32.21%{transform:scale(0.545,1)}32.23%,32.51%{transform:scale(0.564,1)}32.53%,32.82%{transform:scale(0.582,1)}32.84%,33.12%{transform:scale(0.600,1)}33.14%,33.42%{transform:scale(0.618,1)}33.44%,33.73%{transform:scale(0.636,1)}33.75%,34.03%{transform:scale(0.655,1)}34.05%,34.34%{transform:scale(0.673,1)}34.36%,34.64%{transform:scale(0.691,1)}34.66%,35.25%{transform:scale(0.709,1)}35.27%,35.55%{transform:scale(0.727,1)}35.57%,35.86%{transform:scale(0.745,1)}35.88%,37.38%{transform:scale(0.764,1)}37.4%,37.68%{transform:scale(0.782,1)}37.7%,37.98%{transform:scale(0.800,1)}38%,38.29%{transform:scale(0.818,1)}38.31%,38.59%{transform:scale(0.836,1)}38.61%,38.9%{transform:scale(0.855,1)}38.92%,39.2%{transform:scale(0.873,1)}39.22%,40.11%{transform:scale(0.891,1)}40.13%,40.42%{transform:scale(0.909,1)}40.44%,41.63%{transform:scale(0.927,1)}41.65%,47.71%{transform:scale(0.945,1)}47.73%,60.78%{transform:scale(0.964,1)}60.8%,63.52%{transform:scale(0.982,1)}63.54%,100%{transform:scale(1.000,1)}}.u.u1{fill:var(--c2);animation-name:u1;transform-origin:89.8px 0}@keyframes u2{68.68%{transform:scale(0.000,1)}68.7%,73.55%{transform:scale(0.048,1)}73.57%,73.85%{transform:scale(0.095,1)}73.87%,74.76%{transform:scale(0.143,1)}74.78%,76.28%{transform:scale(0.190,1)}76.3%,77.5%{transform:scale(0.238,1)}77.52%,77.8%{transform:scale(0.286,1)}77.82%,78.11%{transform:scale(0.333,1)}78.13%,78.41%{transform:scale(0.381,1)}78.43%,78.71%{transform:scale(0.429,1)}78.73%,79.02%{transform:scale(0.476,1)}79.04%,79.32%{transform:scale(0.524,1)}79.34%,79.63%{transform:scale(0.571,1)}79.65%,80.23%{transform:scale(0.619,1)}80.25%,80.54%{transform:scale(0.667,1)}80.56%,80.84%{transform:scale(0.714,1)}80.86%,81.45%{transform:scale(0.762,1)}81.47%,81.75%{transform:scale(0.810,1)}81.77%,82.06%{transform:scale(0.857,1)}82.08%,82.36%{transform:scale(0.905,1)}82.38%,87.53%{transform:scale(0.952,1)}87.55%,100%{transform:scale(1.000,1)}}.u.u2{fill:var(--c4);animation-name:u2;transform-origin:638.5px 0}.s{shape-rendering:geometricPrecision;fill:var(--cs);animation:none linear 32900ms infinite}@keyframes s0{0%,99.7%{transform:translate(0px,-16px)}0.3%{transform:translate(0px,0px)}4.56%{transform:translate(224px,0px)}4.86%{transform:translate(224px,16px)}5.47%{transform:translate(192px,16px)}6.69%{transform:translate(192px,80px)}11.55%{transform:translate(448px,80px)}12.16%{transform:translate(448px,48px)}15.5%{transform:translate(624px,48px)}15.81%{transform:translate(624px,64px)}16.11%{transform:translate(608px,64px)}16.41%{transform:translate(608px,80px)}17.02%{transform:translate(640px,80px)}17.33%{transform:translate(640px,96px)}17.63%{transform:translate(656px,96px)}19.15%{transform:translate(656px,16px)}19.45%{transform:translate(640px,16px)}19.76%{transform:translate(640px,0px)}22.8%,79.94%,84.19%{transform:translate(800px,0px)}23.1%{transform:translate(800px,-16px)}23.4%{transform:translate(784px,-16px)}24.01%{transform:translate(784px,16px)}25.23%{transform:translate(720px,16px)}25.53%{transform:translate(720px,32px)}26.75%{transform:translate(784px,32px)}27.05%{transform:translate(784px,48px)}28.57%{transform:translate(704px,48px)}28.88%,74.47%{transform:translate(704px,32px)}29.18%{transform:translate(688px,32px)}29.79%{transform:translate(688px,0px)}30.09%{transform:translate(672px,0px)}30.4%{transform:translate(672px,16px)}30.7%{transform:translate(688px,16px)}31.61%,39.51%{transform:translate(688px,64px)}32.22%{transform:translate(720px,64px)}32.52%{transform:translate(720px,80px)}33.74%,36.17%{transform:translate(784px,80px)}34.04%{transform:translate(784px,64px)}34.65%{transform:translate(752px,64px)}35.26%{transform:translate(752px,96px)}35.87%{transform:translate(784px,96px)}37.08%{transform:translate(736px,80px)}37.39%{transform:translate(736px,96px)}37.99%{transform:translate(704px,96px)}38.3%{transform:translate(704px,80px)}38.91%{transform:translate(672px,80px)}39.21%,73.25%{transform:translate(672px,64px)}40.12%{transform:translate(688px,96px)}41.64%{transform:translate(608px,96px)}41.95%{transform:translate(608px,112px)}46.2%{transform:translate(832px,112px)}47.72%{transform:translate(832px,32px)}48.02%{transform:translate(848px,32px)}48.94%{transform:translate(848px,-16px)}59.27%{transform:translate(304px,-16px)}60.79%{transform:translate(304px,64px)}62.92%{transform:translate(192px,64px)}63.53%{transform:translate(192px,96px)}68.09%{transform:translate(432px,96px)}68.69%{transform:translate(432px,64px)}73.86%{transform:translate(672px,32px)}74.77%{transform:translate(704px,16px)}75.38%{transform:translate(736px,16px)}76.29%{transform:translate(736px,64px)}77.81%{transform:translate(816px,64px)}78.72%{transform:translate(816px,16px)}79.03%{transform:translate(832px,16px)}79.33%{transform:translate(832px,0px)}81.46%{transform:translate(800px,80px)}81.76%{transform:translate(816px,80px)}82.07%{transform:translate(816px,96px)}82.37%{transform:translate(800px,96px)}97.57%{transform:translate(96px,0px)}97.87%{transform:translate(96px,-16px)}}.s.s0{transform:translate(0px,-16px);animation-name:s0}@keyframes s1{0%,99.7%{transform:translate(16px,-16px)}0.3%{transform:translate(0px,-16px)}0.61%{transform:translate(0px,0px)}4.86%{transform:translate(224px,0px)}5.17%{transform:translate(224px,16px)}5.78%{transform:translate(192px,16px)}6.99%{transform:translate(192px,80px)}11.85%{transform:translate(448px,80px)}12.46%{transform:translate(448px,48px)}15.81%{transform:translate(624px,48px)}16.11%{transform:translate(624px,64px)}16.41%{transform:translate(608px,64px)}16.72%{transform:translate(608px,80px)}17.33%{transform:translate(640px,80px)}17.63%{transform:translate(640px,96px)}17.93%{transform:translate(656px,96px)}19.45%{transform:translate(656px,16px)}19.76%{transform:translate(640px,16px)}20.06%{transform:translate(640px,0px)}23.1%,80.24%,84.5%{transform:translate(800px,0px)}23.4%{transform:translate(800px,-16px)}23.71%{transform:translate(784px,-16px)}24.32%{transform:translate(784px,16px)}25.53%{transform:translate(720px,16px)}25.84%{transform:translate(720px,32px)}27.05%{transform:translate(784px,32px)}27.36%{transform:translate(784px,48px)}28.88%{transform:translate(704px,48px)}29.18%,74.77%{transform:translate(704px,32px)}29.48%{transform:translate(688px,32px)}30.09%{transform:translate(688px,0px)}30.4%{transform:translate(672px,0px)}30.7%{transform:translate(672px,16px)}31%{transform:translate(688px,16px)}31.91%,39.82%{transform:translate(688px,64px)}32.52%{transform:translate(720px,64px)}32.83%{transform:translate(720px,80px)}34.04%,36.47%{transform:translate(784px,80px)}34.35%{transform:translate(784px,64px)}34.95%{transform:translate(752px,64px)}35.56%{transform:translate(752px,96px)}36.17%{transform:translate(784px,96px)}37.39%{transform:translate(736px,80px)}37.69%{transform:translate(736px,96px)}38.3%{transform:translate(704px,96px)}38.6%{transform:translate(704px,80px)}39.21%{transform:translate(672px,80px)}39.51%,73.56%{transform:translate(672px,64px)}40.43%{transform:translate(688px,96px)}41.95%{transform:translate(608px,96px)}42.25%{transform:translate(608px,112px)}46.5%{transform:translate(832px,112px)}48.02%{transform:translate(832px,32px)}48.33%{transform:translate(848px,32px)}49.24%{transform:translate(848px,-16px)}59.57%{transform:translate(304px,-16px)}61.09%{transform:translate(304px,64px)}63.22%{transform:translate(192px,64px)}63.83%{transform:translate(192px,96px)}68.39%{transform:translate(432px,96px)}69%{transform:translate(432px,64px)}74.16%{transform:translate(672px,32px)}75.08%{transform:translate(704px,16px)}75.68%{transform:translate(736px,16px)}76.6%{transform:translate(736px,64px)}78.12%{transform:translate(816px,64px)}79.03%{transform:translate(816px,16px)}79.33%{transform:translate(832px,16px)}79.64%{transform:translate(832px,0px)}81.76%{transform:translate(800px,80px)}82.07%{transform:translate(816px,80px)}82.37%{transform:translate(816px,96px)}82.67%{transform:translate(800px,96px)}97.87%{transform:translate(96px,0px)}98.18%{transform:translate(96px,-16px)}}.s.s1{transform:translate(16px,-16px);animation-name:s1}@keyframes s2{0%,99.7%{transform:translate(32px,-16px)}0.61%{transform:translate(0px,-16px)}0.91%{transform:translate(0px,0px)}5.17%{transform:translate(224px,0px)}5.47%{transform:translate(224px,16px)}6.08%{transform:translate(192px,16px)}7.29%{transform:translate(192px,80px)}12.16%{transform:translate(448px,80px)}12.77%{transform:translate(448px,48px)}16.11%{transform:translate(624px,48px)}16.41%{transform:translate(624px,64px)}16.72%{transform:translate(608px,64px)}17.02%{transform:translate(608px,80px)}17.63%{transform:translate(640px,80px)}17.93%{transform:translate(640px,96px)}18.24%{transform:translate(656px,96px)}19.76%{transform:translate(656px,16px)}20.06%{transform:translate(640px,16px)}20.36%{transform:translate(640px,0px)}23.4%,80.55%,84.8%{transform:translate(800px,0px)}23.71%{transform:translate(800px,-16px)}24.01%{transform:translate(784px,-16px)}24.62%{transform:translate(784px,16px)}25.84%{transform:translate(720px,16px)}26.14%{transform:translate(720px,32px)}27.36%{transform:translate(784px,32px)}27.66%{transform:translate(784px,48px)}29.18%{transform:translate(704px,48px)}29.48%,75.08%{transform:translate(704px,32px)}29.79%{transform:translate(688px,32px)}30.4%{transform:translate(688px,0px)}30.7%{transform:translate(672px,0px)}31%{transform:translate(672px,16px)}31.31%{transform:translate(688px,16px)}32.22%,40.12%{transform:translate(688px,64px)}32.83%{transform:translate(720px,64px)}33.13%{transform:translate(720px,80px)}34.35%,36.78%{transform:translate(784px,80px)}34.65%{transform:translate(784px,64px)}35.26%{transform:translate(752px,64px)}35.87%{transform:translate(752px,96px)}36.47%{transform:translate(784px,96px)}37.69%{transform:translate(736px,80px)}37.99%{transform:translate(736px,96px)}38.6%{transform:translate(704px,96px)}38.91%{transform:translate(704px,80px)}39.51%{transform:translate(672px,80px)}39.82%,73.86%{transform:translate(672px,64px)}40.73%{transform:translate(688px,96px)}42.25%{transform:translate(608px,96px)}42.55%{transform:translate(608px,112px)}46.81%{transform:translate(832px,112px)}48.33%{transform:translate(832px,32px)}48.63%{transform:translate(848px,32px)}49.54%{transform:translate(848px,-16px)}59.88%{transform:translate(304px,-16px)}61.4%{transform:translate(304px,64px)}63.53%{transform:translate(192px,64px)}64.13%{transform:translate(192px,96px)}68.69%{transform:translate(432px,96px)}69.3%{transform:translate(432px,64px)}74.47%{transform:translate(672px,32px)}75.38%{transform:translate(704px,16px)}75.99%{transform:translate(736px,16px)}76.9%{transform:translate(736px,64px)}78.42%{transform:translate(816px,64px)}79.33%{transform:translate(816px,16px)}79.64%{transform:translate(832px,16px)}79.94%{transform:translate(832px,0px)}82.07%{transform:translate(800px,80px)}82.37%{transform:translate(816px,80px)}82.67%{transform:translate(816px,96px)}82.98%{transform:translate(800px,96px)}98.18%{transform:translate(96px,0px)}98.48%{transform:translate(96px,-16px)}}.s.s2{transform:translate(32px,-16px);animation-name:s2}@keyframes s3{0%,99.7%{transform:translate(48px,-16px)}0.91%{transform:translate(0px,-16px)}1.22%{transform:translate(0px,0px)}5.47%{transform:translate(224px,0px)}5.78%{transform:translate(224px,16px)}6.38%{transform:translate(192px,16px)}7.6%{transform:translate(192px,80px)}12.46%{transform:translate(448px,80px)}13.07%{transform:translate(448px,48px)}16.41%{transform:translate(624px,48px)}16.72%{transform:translate(624px,64px)}17.02%{transform:translate(608px,64px)}17.33%{transform:translate(608px,80px)}17.93%{transform:translate(640px,80px)}18.24%{transform:translate(640px,96px)}18.54%{transform:translate(656px,96px)}20.06%{transform:translate(656px,16px)}20.36%{transform:translate(640px,16px)}20.67%{transform:translate(640px,0px)}23.71%,80.85%,85.11%{transform:translate(800px,0px)}24.01%{transform:translate(800px,-16px)}24.32%{transform:translate(784px,-16px)}24.92%{transform:translate(784px,16px)}26.14%{transform:translate(720px,16px)}26.44%{transform:translate(720px,32px)}27.66%{transform:translate(784px,32px)}27.96%{transform:translate(784px,48px)}29.48%{transform:translate(704px,48px)}29.79%,75.38%{transform:translate(704px,32px)}30.09%{transform:translate(688px,32px)}30.7%{transform:translate(688px,0px)}31%{transform:translate(672px,0px)}31.31%{transform:translate(672px,16px)}31.61%{transform:translate(688px,16px)}32.52%,40.43%{transform:translate(688px,64px)}33.13%{transform:translate(720px,64px)}33.43%{transform:translate(720px,80px)}34.65%,37.08%{transform:translate(784px,80px)}34.95%{transform:translate(784px,64px)}35.56%{transform:translate(752px,64px)}36.17%{transform:translate(752px,96px)}36.78%{transform:translate(784px,96px)}37.99%{transform:translate(736px,80px)}38.3%{transform:translate(736px,96px)}38.91%{transform:translate(704px,96px)}39.21%{transform:translate(704px,80px)}39.82%{transform:translate(672px,80px)}40.12%,74.16%{transform:translate(672px,64px)}41.03%{transform:translate(688px,96px)}42.55%{transform:translate(608px,96px)}42.86%{transform:translate(608px,112px)}47.11%{transform:translate(832px,112px)}48.63%{transform:translate(832px,32px)}48.94%{transform:translate(848px,32px)}49.85%{transform:translate(848px,-16px)}60.18%{transform:translate(304px,-16px)}61.7%{transform:translate(304px,64px)}63.83%{transform:translate(192px,64px)}64.44%{transform:translate(192px,96px)}69%{transform:translate(432px,96px)}69.6%{transform:translate(432px,64px)}74.77%{transform:translate(672px,32px)}75.68%{transform:translate(704px,16px)}76.29%{transform:translate(736px,16px)}77.2%{transform:translate(736px,64px)}78.72%{transform:translate(816px,64px)}79.64%{transform:translate(816px,16px)}79.94%{transform:translate(832px,16px)}80.24%{transform:translate(832px,0px)}82.37%{transform:translate(800px,80px)}82.67%{transform:translate(816px,80px)}82.98%{transform:translate(816px,96px)}83.28%{transform:translate(800px,96px)}98.48%{transform:translate(96px,0px)}98.78%{transform:translate(96px,-16px)}}.s.s3{transform:translate(48px,-16px);animation-name:s3}</style><rect class="c" x="2" y="2" rx="2" ry="2"/><rect class="c" x="2" y="18" rx="2" ry="2"/><rect class="c" x="2" y="34" rx="2" ry="2"/><rect class="c" x="2" y="50" rx="2" ry="2"/><rect class="c" x="2" y="66" rx="2" ry="2"/><rect class="c" x="2" y="82" rx="2" ry="2"/><rect class="c" x="2" y="98" rx="2" ry="2"/><rect class="c" x="18" y="2" rx="2" ry="2"/><rect class="c" x="18" y="18" rx="2" ry="2"/><rect class="c" x="18" y="34" rx="2" ry="2"/><rect class="c" x="18" y="50" rx="2" ry="2"/><rect class="c" x="18" y="66" rx="2" ry="2"/><rect class="c" x="18" y="82" rx="2" ry="2"/><rect class="c" x="18" y="98" rx="2" ry="2"/><rect class="c" x="34" y="2" rx="2" ry="2"/><rect class="c" x="34" y="18" rx="2" ry="2"/><rect class="c" x="34" y="34" rx="2" ry="2"/><rect class="c" x="34" y="50" rx="2" ry="2"/><rect class="c" x="34" y="66" rx="2" ry="2"/><rect class="c" x="34" y="82" rx="2" ry="2"/><rect class="c" x="34" y="98" rx="2" ry="2"/><rect class="c" x="50" y="2" rx="2" ry="2"/><rect class="c" x="50" y="18" rx="2" ry="2"/><rect class="c" x="50" y="34" rx="2" ry="2"/><rect class="c" x="50" y="50" rx="2" ry="2"/><rect class="c" x="50" y="66" rx="2" ry="2"/><rect class="c" x="50" y="82" rx="2" ry="2"/><rect class="c" x="50" y="98" rx="2" ry="2"/><rect class="c" x="66" y="2" rx="2" ry="2"/><rect class="c" x="66" y="18" rx="2" ry="2"/><rect class="c" x="66" y="34" rx="2" ry="2"/><rect class="c" x="66" y="50" rx="2" ry="2"/><rect class="c" x="66" y="66" rx="2" ry="2"/><rect class="c" x="66" y="82" rx="2" ry="2"/><rect class="c" x="66" y="98" rx="2" ry="2"/><rect class="c" x="82" y="2" rx="2" ry="2"/><rect class="c" x="82" y="18" rx="2" ry="2"/><rect class="c" x="82" y="34" rx="2" ry="2"/><rect class="c" x="82" y="50" rx="2" ry="2"/><rect class="c" x="82" y="66" rx="2" ry="2"/><rect class="c" x="82" y="82" rx="2" ry="2"/><rect class="c" x="82" y="98" rx="2" ry="2"/><rect class="c" x="98" y="2" rx="2" ry="2"/><rect class="c" x="98" y="18" rx="2" ry="2"/><rect class="c" x="98" y="34" rx="2" ry="2"/><rect class="c" x="98" y="50" rx="2" ry="2"/><rect class="c" x="98" y="66" rx="2" ry="2"/><rect class="c" x="98" y="82" rx="2" ry="2"/><rect class="c" x="98" y="98" rx="2" ry="2"/><rect class="c" x="114" y="2" rx="2" ry="2"/><rect class="c" x="114" y="18" rx="2" ry="2"/><rect class="c" x="114" y="34" rx="2" ry="2"/><rect class="c" x="114" y="50" rx="2" ry="2"/><rect class="c" x="114" y="66" rx="2" ry="2"/><rect class="c" x="114" y="82" rx="2" ry="2"/><rect class="c" x="114" y="98" rx="2" ry="2"/><rect class="c" x="130" y="2" rx="2" ry="2"/><rect class="c" x="130" y="18" rx="2" ry="2"/><rect class="c" x="130" y="34" rx="2" ry="2"/><rect class="c" x="130" y="50" rx="2" ry="2"/><rect class="c" x="130" y="66" rx="2" ry="2"/><rect class="c" x="130" y="82" rx="2" ry="2"/><rect class="c" x="130" y="98" rx="2" ry="2"/><rect class="c" x="146" y="2" rx="2" ry="2"/><rect class="c" x="146" y="18" rx="2" ry="2"/><rect class="c" x="146" y="34" rx="2" ry="2"/><rect class="c" x="146" y="50" rx="2" ry="2"/><rect class="c" x="146" y="66" rx="2" ry="2"/><rect class="c" x="146" y="82" rx="2" ry="2"/><rect class="c" x="146" y="98" rx="2" ry="2"/><rect class="c" x="162" y="2" rx="2" ry="2"/><rect class="c" x="162" y="18" rx="2" ry="2"/><rect class="c" x="162" y="34" rx="2" ry="2"/><rect class="c" x="162" y="50" rx="2" ry="2"/><rect class="c" x="162" y="66" rx="2" ry="2"/><rect class="c" x="162" y="82" rx="2" ry="2"/><rect class="c" x="162" y="98" rx="2" ry="2"/><rect class="c" x="178" y="2" rx="2" ry="2"/><rect class="c" x="178" y="18" rx="2" ry="2"/><rect class="c" x="178" y="34" rx="2" ry="2"/><rect class="c" x="178" y="50" rx="2" ry="2"/><rect class="c" x="178" y="66" rx="2" ry="2"/><rect class="c" x="178" y="82" rx="2" ry="2"/><rect class="c" x="178" y="98" rx="2" ry="2"/><rect class="c" x="194" y="2" rx="2" ry="2"/><rect class="c" x="194" y="18" rx="2" ry="2"/><rect class="c" x="194" y="34" rx="2" ry="2"/><rect class="c" x="194" y="50" rx="2" ry="2"/><rect class="c" x="194" y="66" rx="2" ry="2"/><rect class="c c0" x="194" y="82" rx="2" ry="2"/><rect class="c c1" x="194" y="98" rx="2" ry="2"/><rect class="c" x="210" y="2" rx="2" ry="2"/><rect class="c" x="210" y="18" rx="2" ry="2"/><rect class="c" x="210" y="34" rx="2" ry="2"/><rect class="c" x="210" y="50" rx="2" ry="2"/><rect class="c" x="210" y="66" rx="2" ry="2"/><rect class="c" x="210" y="82" rx="2" ry="2"/><rect class="c" x="210" y="98" rx="2" ry="2"/><rect class="c c2" x="226" y="2" rx="2" ry="2"/><rect class="c c3" x="226" y="18" rx="2" ry="2"/><rect class="c" x="226" y="34" rx="2" ry="2"/><rect class="c" x="226" y="50" rx="2" ry="2"/><rect class="c" x="226" y="66" rx="2" ry="2"/><rect class="c" x="226" y="82" rx="2" ry="2"/><rect class="c" x="226" y="98" rx="2" ry="2"/><rect class="c" x="242" y="2" rx="2" ry="2"/><rect class="c" x="242" y="18" rx="2" ry="2"/><rect class="c" x="242" y="34" rx="2" ry="2"/><rect class="c" x="242" y="50" rx="2" ry="2"/><rect class="c" x="242" y="66" rx="2" ry="2"/><rect class="c" x="242" y="82" rx="2" ry="2"/><rect class="c" x="242" y="98" rx="2" ry="2"/><rect class="c" x="258" y="2" rx="2" ry="2"/><rect class="c" x="258" y="18" rx="2" ry="2"/><rect class="c" x="258" y="34" rx="2" ry="2"/><rect class="c" x="258" y="50" rx="2" ry="2"/><rect class="c" x="258" y="66" rx="2" ry="2"/><rect class="c" x="258" y="82" rx="2" ry="2"/><rect class="c" x="258" y="98" rx="2" ry="2"/><rect class="c" x="274" y="2" rx="2" ry="2"/><rect class="c" x="274" y="18" rx="2" ry="2"/><rect class="c" x="274" y="34" rx="2" ry="2"/><rect class="c" x="274" y="50" rx="2" ry="2"/><rect class="c" x="274" y="66" rx="2" ry="2"/><rect class="c" x="274" y="82" rx="2" ry="2"/><rect class="c" x="274" y="98" rx="2" ry="2"/><rect class="c" x="290" y="2" rx="2" ry="2"/><rect class="c" x="290" y="18" rx="2" ry="2"/><rect class="c" x="290" y="34" rx="2" ry="2"/><rect class="c" x="290" y="50" rx="2" ry="2"/><rect class="c" x="290" y="66" rx="2" ry="2"/><rect class="c" x="290" y="82" rx="2" ry="2"/><rect class="c" x="290" y="98" rx="2" ry="2"/><rect class="c" x="306" y="2" rx="2" ry="2"/><rect class="c" x="306" y="18" rx="2" ry="2"/><rect class="c" x="306" y="34" rx="2" ry="2"/><rect class="c" x="306" y="50" rx="2" ry="2"/><rect class="c c4" x="306" y="66" rx="2" ry="2"/><rect class="c" x="306" y="82" rx="2" ry="2"/><rect class="c" x="306" y="98" rx="2" ry="2"/><rect class="c" x="322" y="2" rx="2" ry="2"/><rect class="c" x="322" y="18" rx="2" ry="2"/><rect class="c" x="322" y="34" rx="2" ry="2"/><rect class="c" x="322" y="50" rx="2" ry="2"/><rect class="c" x="322" y="66" rx="2" ry="2"/><rect class="c" x="322" y="82" rx="2" ry="2"/><rect class="c" x="322" y="98" rx="2" ry="2"/><rect class="c" x="338" y="2" rx="2" ry="2"/><rect class="c" x="338" y="18" rx="2" ry="2"/><rect class="c" x="338" y="34" rx="2" ry="2"/><rect class="c" x="338" y="50" rx="2" ry="2"/><rect class="c" x="338" y="66" rx="2" ry="2"/><rect class="c" x="338" y="82" rx="2" ry="2"/><rect class="c" x="338" y="98" rx="2" ry="2"/><rect class="c" x="354" y="2" rx="2" ry="2"/><rect class="c" x="354" y="18" rx="2" ry="2"/><rect class="c" x="354" y="34" rx="2" ry="2"/><rect class="c" x="354" y="50" rx="2" ry="2"/><rect class="c" x="354" y="66" rx="2" ry="2"/><rect class="c" x="354" y="82" rx="2" ry="2"/><rect class="c" x="354" y="98" rx="2" ry="2"/><rect class="c" x="370" y="2" rx="2" ry="2"/><rect class="c" x="370" y="18" rx="2" ry="2"/><rect class="c" x="370" y="34" rx="2" ry="2"/><rect class="c" x="370" y="50" rx="2" ry="2"/><rect class="c" x="370" y="66" rx="2" ry="2"/><rect class="c" x="370" y="82" rx="2" ry="2"/><rect class="c" x="370" y="98" rx="2" ry="2"/><rect class="c" x="386" y="2" rx="2" ry="2"/><rect class="c" x="386" y="18" rx="2" ry="2"/><rect class="c" x="386" y="34" rx="2" ry="2"/><rect class="c" x="386" y="50" rx="2" ry="2"/><rect class="c" x="386" y="66" rx="2" ry="2"/><rect class="c" x="386" y="82" rx="2" ry="2"/><rect class="c" x="386" y="98" rx="2" ry="2"/><rect class="c" x="402" y="2" rx="2" ry="2"/><rect class="c" x="402" y="18" rx="2" ry="2"/><rect class="c" x="402" y="34" rx="2" ry="2"/><rect class="c" x="402" y="50" rx="2" ry="2"/><rect class="c" x="402" y="66" rx="2" ry="2"/><rect class="c" x="402" y="82" rx="2" ry="2"/><rect class="c" x="402" y="98" rx="2" ry="2"/><rect class="c" x="418" y="2" rx="2" ry="2"/><rect class="c" x="418" y="18" rx="2" ry="2"/><rect class="c" x="418" y="34" rx="2" ry="2"/><rect class="c" x="418" y="50" rx="2" ry="2"/><rect class="c" x="418" y="66" rx="2" ry="2"/><rect class="c" x="418" y="82" rx="2" ry="2"/><rect class="c" x="418" y="98" rx="2" ry="2"/><rect class="c" x="434" y="2" rx="2" ry="2"/><rect class="c" x="434" y="18" rx="2" ry="2"/><rect class="c" x="434" y="34" rx="2" ry="2"/><rect class="c" x="434" y="50" rx="2" ry="2"/><rect class="c c5" x="434" y="66" rx="2" ry="2"/><rect class="c" x="434" y="82" rx="2" ry="2"/><rect class="c" x="434" y="98" rx="2" ry="2"/><rect class="c" x="450" y="2" rx="2" ry="2"/><rect class="c" x="450" y="18" rx="2" ry="2"/><rect class="c" x="450" y="34" rx="2" ry="2"/><rect class="c c6" x="450" y="50" rx="2" ry="2"/><rect class="c" x="450" y="66" rx="2" ry="2"/><rect class="c" x="450" y="82" rx="2" ry="2"/><rect class="c" x="450" y="98" rx="2" ry="2"/><rect class="c" x="466" y="2" rx="2" ry="2"/><rect class="c" x="466" y="18" rx="2" ry="2"/><rect class="c" x="466" y="34" rx="2" ry="2"/><rect class="c" x="466" y="50" rx="2" ry="2"/><rect class="c" x="466" y="66" rx="2" ry="2"/><rect class="c" x="466" y="82" rx="2" ry="2"/><rect class="c" x="466" y="98" rx="2" ry="2"/><rect class="c" x="482" y="2" rx="2" ry="2"/><rect class="c" x="482" y="18" rx="2" ry="2"/><rect class="c" x="482" y="34" rx="2" ry="2"/><rect class="c" x="482" y="50" rx="2" ry="2"/><rect class="c" x="482" y="66" rx="2" ry="2"/><rect class="c" x="482" y="82" rx="2" ry="2"/><rect class="c" x="482" y="98" rx="2" ry="2"/><rect class="c" x="498" y="2" rx="2" ry="2"/><rect class="c" x="498" y="18" rx="2" ry="2"/><rect class="c" x="498" y="34" rx="2" ry="2"/><rect class="c" x="498" y="50" rx="2" ry="2"/><rect class="c" x="498" y="66" rx="2" ry="2"/><rect class="c" x="498" y="82" rx="2" ry="2"/><rect class="c" x="498" y="98" rx="2" ry="2"/><rect class="c" x="514" y="2" rx="2" ry="2"/><rect class="c" x="514" y="18" rx="2" ry="2"/><rect class="c" x="514" y="34" rx="2" ry="2"/><rect class="c" x="514" y="50" rx="2" ry="2"/><rect class="c" x="514" y="66" rx="2" ry="2"/><rect class="c" x="514" y="82" rx="2" ry="2"/><rect class="c" x="514" y="98" rx="2" ry="2"/><rect class="c" x="530" y="2" rx="2" ry="2"/><rect class="c" x="530" y="18" rx="2" ry="2"/><rect class="c" x="530" y="34" rx="2" ry="2"/><rect class="c" x="530" y="50" rx="2" ry="2"/><rect class="c" x="530" y="66" rx="2" ry="2"/><rect class="c" x="530" y="82" rx="2" ry="2"/><rect class="c" x="530" y="98" rx="2" ry="2"/><rect class="c" x="546" y="2" rx="2" ry="2"/><rect class="c" x="546" y="18" rx="2" ry="2"/><rect class="c" x="546" y="34" rx="2" ry="2"/><rect class="c" x="546" y="50" rx="2" ry="2"/><rect class="c" x="546" y="66" rx="2" ry="2"/><rect class="c" x="546" y="82" rx="2" ry="2"/><rect class="c" x="546" y="98" rx="2" ry="2"/><rect class="c" x="562" y="2" rx="2" ry="2"/><rect class="c" x="562" y="18" rx="2" ry="2"/><rect class="c" x="562" y="34" rx="2" ry="2"/><rect class="c" x="562" y="50" rx="2" ry="2"/><rect class="c" x="562" y="66" rx="2" ry="2"/><rect class="c" x="562" y="82" rx="2" ry="2"/><rect class="c" x="562" y="98" rx="2" ry="2"/><rect class="c" x="578" y="2" rx="2" ry="2"/><rect class="c" x="578" y="18" rx="2" ry="2"/><rect class="c" x="578" y="34" rx="2" ry="2"/><rect class="c" x="578" y="50" rx="2" ry="2"/><rect class="c" x="578" y="66" rx="2" ry="2"/><rect class="c" x="578" y="82" rx="2" ry="2"/><rect class="c" x="578" y="98" rx="2" ry="2"/><rect class="c" x="594" y="2" rx="2" ry="2"/><rect class="c" x="594" y="18" rx="2" ry="2"/><rect class="c" x="594" y="34" rx="2" ry="2"/><rect class="c" x="594" y="50" rx="2" ry="2"/><rect class="c" x="594" y="66" rx="2" ry="2"/><rect class="c" x="594" y="82" rx="2" ry="2"/><rect class="c" x="594" y="98" rx="2" ry="2"/><rect class="c" x="610" y="2" rx="2" ry="2"/><rect class="c" x="610" y="18" rx="2" ry="2"/><rect class="c" x="610" y="34" rx="2" ry="2"/><rect class="c" x="610" y="50" rx="2" ry="2"/><rect class="c c7" x="610" y="66" rx="2" ry="2"/><rect class="c" x="610" y="82" rx="2" ry="2"/><rect class="c c8" x="610" y="98" rx="2" ry="2"/><rect class="c c9" x="626" y="2" rx="2" ry="2"/><rect class="c" x="626" y="18" rx="2" ry="2"/><rect class="c" x="626" y="34" rx="2" ry="2"/><rect class="c ca" x="626" y="50" rx="2" ry="2"/><rect class="c" x="626" y="66" rx="2" ry="2"/><rect class="c" x="626" y="82" rx="2" ry="2"/><rect class="c" x="626" y="98" rx="2" ry="2"/><rect class="c" x="642" y="2" rx="2" ry="2"/><rect class="c cb" x="642" y="18" rx="2" ry="2"/><rect class="c" x="642" y="34" rx="2" ry="2"/><rect class="c" x="642" y="50" rx="2" ry="2"/><rect class="c" x="642" y="66" rx="2" ry="2"/><rect class="c cc" x="642" y="82" rx="2" ry="2"/><rect class="c cd" x="642" y="98" rx="2" ry="2"/><rect class="c" x="658" y="2" rx="2" ry="2"/><rect class="c" x="658" y="18" rx="2" ry="2"/><rect class="c" x="658" y="34" rx="2" ry="2"/><rect class="c" x="658" y="50" rx="2" ry="2"/><rect class="c" x="658" y="66" rx="2" ry="2"/><rect class="c" x="658" y="82" rx="2" ry="2"/><rect class="c" x="658" y="98" rx="2" ry="2"/><rect class="c" x="674" y="2" rx="2" ry="2"/><rect class="c" x="674" y="18" rx="2" ry="2"/><rect class="c ce" x="674" y="34" rx="2" ry="2"/><rect class="c cf" x="674" y="50" rx="2" ry="2"/><rect class="c cg" x="674" y="66" rx="2" ry="2"/><rect class="c ch" x="674" y="82" rx="2" ry="2"/><rect class="c ci" x="674" y="98" rx="2" ry="2"/><rect class="c cj" x="690" y="2" rx="2" ry="2"/><rect class="c ck" x="690" y="18" rx="2" ry="2"/><rect class="c cl" x="690" y="34" rx="2" ry="2"/><rect class="c cm" x="690" y="50" rx="2" ry="2"/><rect class="c cn" x="690" y="66" rx="2" ry="2"/><rect class="c co" x="690" y="82" rx="2" ry="2"/><rect class="c cp" x="690" y="98" rx="2" ry="2"/><rect class="c cq" x="706" y="2" rx="2" ry="2"/><rect class="c cr" x="706" y="18" rx="2" ry="2"/><rect class="c cs" x="706" y="34" rx="2" ry="2"/><rect class="c ct" x="706" y="50" rx="2" ry="2"/><rect class="c cu" x="706" y="66" rx="2" ry="2"/><rect class="c cv" x="706" y="82" rx="2" ry="2"/><rect class="c cw" x="706" y="98" rx="2" ry="2"/><rect class="c cx" x="722" y="2" rx="2" ry="2"/><rect class="c cy" x="722" y="18" rx="2" ry="2"/><rect class="c cz" x="722" y="34" rx="2" ry="2"/><rect class="c c10" x="722" y="50" rx="2" ry="2"/><rect class="c c11" x="722" y="66" rx="2" ry="2"/><rect class="c c12" x="722" y="82" rx="2" ry="2"/><rect class="c c13" x="722" y="98" rx="2" ry="2"/><rect class="c c14" x="738" y="2" rx="2" ry="2"/><rect class="c c15" x="738" y="18" rx="2" ry="2"/><rect class="c c16" x="738" y="34" rx="2" ry="2"/><rect class="c c17" x="738" y="50" rx="2" ry="2"/><rect class="c c18" x="738" y="66" rx="2" ry="2"/><rect class="c c19" x="738" y="82" rx="2" ry="2"/><rect class="c c1a" x="738" y="98" rx="2" ry="2"/><rect class="c c1b" x="754" y="2" rx="2" ry="2"/><rect class="c c1c" x="754" y="18" rx="2" ry="2"/><rect class="c c1d" x="754" y="34" rx="2" ry="2"/><rect class="c c1e" x="754" y="50" rx="2" ry="2"/><rect class="c c1f" x="754" y="66" rx="2" ry="2"/><rect class="c c1g" x="754" y="82" rx="2" ry="2"/><rect class="c c1h" x="754" y="98" rx="2" ry="2"/><rect class="c c1i" x="770" y="2" rx="2" ry="2"/><rect class="c c1j" x="770" y="18" rx="2" ry="2"/><rect class="c c1k" x="770" y="34" rx="2" ry="2"/><rect class="c c1l" x="770" y="50" rx="2" ry="2"/><rect class="c c1m" x="770" y="66" rx="2" ry="2"/><rect class="c c1n" x="770" y="82" rx="2" ry="2"/><rect class="c c1o" x="770" y="98" rx="2" ry="2"/><rect class="c c1p" x="786" y="2" rx="2" ry="2"/><rect class="c c1q" x="786" y="18" rx="2" ry="2"/><rect class="c c1r" x="786" y="34" rx="2" ry="2"/><rect class="c c1s" x="786" y="50" rx="2" ry="2"/><rect class="c c1t" x="786" y="66" rx="2" ry="2"/><rect class="c c1u" x="786" y="82" rx="2" ry="2"/><rect class="c c1v" x="786" y="98" rx="2" ry="2"/><rect class="c c1w" x="802" y="2" rx="2" ry="2"/><rect class="c c1x" x="802" y="18" rx="2" ry="2"/><rect class="c c1y" x="802" y="34" rx="2" ry="2"/><rect class="c c1z" x="802" y="50" rx="2" ry="2"/><rect class="c c20" x="802" y="66" rx="2" ry="2"/><rect class="c c21" x="802" y="82" rx="2" ry="2"/><rect class="c c22" x="802" y="98" rx="2" ry="2"/><rect class="c c23" x="818" y="2" rx="2" ry="2"/><rect class="c c24" x="818" y="18" rx="2" ry="2"/><rect class="c c25" x="818" y="34" rx="2" ry="2"/><rect class="c c26" x="818" y="50" rx="2" ry="2"/><rect class="c c27" x="818" y="66" rx="2" ry="2"/><rect class="c c28" x="818" y="82" rx="2" ry="2"/><rect class="c c29" x="818" y="98" rx="2" ry="2"/><rect class="c c2a" x="834" y="2" rx="2" ry="2"/><rect class="c c2b" x="834" y="18" rx="2" ry="2"/><rect class="c c2c" x="834" y="34" rx="2" ry="2"/><rect class="u u0" height="12" width="90.4" x="0.0" y="144"/><rect class="u u1" height="12" width="549.3" x="89.8" y="144"/><rect class="u u2" height="12" width="210.1" x="638.5" y="144"/><rect class="s s0" x="0.8" y="0.8" width="14.4" height="14.4" rx="4.5" ry="4.5"/><rect class="s s1" x="1.8" y="1.8" width="12.3" height="12.3" rx="4.1" ry="4.1"/><rect class="s s2" x="2.6" y="2.6" width="10.8" height="10.8" rx="3.6" ry="3.6"/><rect class="s s3" x="3.0" y="3.0" width="9.9" height="9.9" rx="3.3" ry="3.3"/></svg>